ISO-10303-21;
HEADER;
FILE_DESCRIPTION(('FreeCAD Model'),'2;1');
FILE_NAME('Open CASCADE Shape Model','2026-06-18T12:48:08',(''),(''),
  'Open CASCADE STEP processor 7.8','FreeCAD','Unknown');
FILE_SCHEMA(('AUTOMOTIVE_DESIGN { 1 0 10303 214 1 1 1 1 }'));
ENDSEC;
DATA;
#1 = APPLICATION_PROTOCOL_DEFINITION('international standard',
  'automotive_design',2000,#2);
#2 = APPLICATION_CONTEXT(
  'core data for automotive mechanical design processes');
#3 = SHAPE_DEFINITION_REPRESENTATION(#4,#10);
#4 = PRODUCT_DEFINITION_SHAPE('','',#5);
#5 = PRODUCT_DEFINITION('design','',#6,#9);
#6 = PRODUCT_DEFINITION_FORMATION('','',#7);
#7 = PRODUCT('LED','LED','',(#8));
#8 = PRODUCT_CONTEXT('',#2,'mechanical');
#9 = PRODUCT_DEFINITION_CONTEXT('part definition',#2,'design');
#10 = SHAPE_REPRESENTATION('',(#11,#15,#19),#23);
#11 = AXIS2_PLACEMENT_3D('',#12,#13,#14);
#12 = CARTESIAN_POINT('',(0.,0.,0.));
#13 = DIRECTION('',(0.,0.,1.));
#14 = DIRECTION('',(1.,0.,-0.));
#15 = AXIS2_PLACEMENT_3D('',#16,#17,#18);
#16 = CARTESIAN_POINT('',(0.,0.,0.));
#17 = DIRECTION('',(0.,0.,1.));
#18 = DIRECTION('',(1.,0.,0.));
#19 = AXIS2_PLACEMENT_3D('',#20,#21,#22);
#20 = CARTESIAN_POINT('',(0.,0.,0.));
#21 = DIRECTION('',(0.,0.,1.));
#22 = DIRECTION('',(1.,0.,0.));
#23 = ( GEOMETRIC_REPRESENTATION_CONTEXT(3) 
GLOBAL_UNCERTAINTY_ASSIGNED_CONTEXT((#27)) GLOBAL_UNIT_ASSIGNED_CONTEXT(
(#24,#25,#26)) REPRESENTATION_CONTEXT('Context #1',
  '3D Context with UNIT and UNCERTAINTY') );
#24 = ( LENGTH_UNIT() NAMED_UNIT(*) SI_UNIT(.MILLI.,.METRE.) );
#25 = ( NAMED_UNIT(*) PLANE_ANGLE_UNIT() SI_UNIT($,.RADIAN.) );
#26 = ( NAMED_UNIT(*) SI_UNIT($,.STERADIAN.) SOLID_ANGLE_UNIT() );
#27 = UNCERTAINTY_MEASURE_WITH_UNIT(LENGTH_MEASURE(1.E-07),#24,
  'distance_accuracy_value','confusion accuracy');
#28 = PRODUCT_RELATED_PRODUCT_CATEGORY('part',$,(#7));
#29 = SHAPE_DEFINITION_REPRESENTATION(#30,#36);
#30 = PRODUCT_DEFINITION_SHAPE('','',#31);
#31 = PRODUCT_DEFINITION('design','',#32,#35);
#32 = PRODUCT_DEFINITION_FORMATION('','',#33);
#33 = PRODUCT('LensGroup','LensGroup','',(#34));
#34 = PRODUCT_CONTEXT('',#2,'mechanical');
#35 = PRODUCT_DEFINITION_CONTEXT('part definition',#2,'design');
#36 = SHAPE_REPRESENTATION('',(#11,#37,#41),#45);
#37 = AXIS2_PLACEMENT_3D('',#38,#39,#40);
#38 = CARTESIAN_POINT('',(0.,0.,0.));
#39 = DIRECTION('',(0.,0.,1.));
#40 = DIRECTION('',(1.,0.,0.));
#41 = AXIS2_PLACEMENT_3D('',#42,#43,#44);
#42 = CARTESIAN_POINT('',(0.,0.,1.5));
#43 = DIRECTION('',(0.,0.,1.));
#44 = DIRECTION('',(1.,0.,0.));
#45 = ( GEOMETRIC_REPRESENTATION_CONTEXT(3) 
GLOBAL_UNCERTAINTY_ASSIGNED_CONTEXT((#49)) GLOBAL_UNIT_ASSIGNED_CONTEXT(
(#46,#47,#48)) REPRESENTATION_CONTEXT('Context #1',
  '3D Context with UNIT and UNCERTAINTY') );
#46 = ( LENGTH_UNIT() NAMED_UNIT(*) SI_UNIT(.MILLI.,.METRE.) );
#47 = ( NAMED_UNIT(*) PLANE_ANGLE_UNIT() SI_UNIT($,.RADIAN.) );
#48 = ( NAMED_UNIT(*) SI_UNIT($,.STERADIAN.) SOLID_ANGLE_UNIT() );
#49 = UNCERTAINTY_MEASURE_WITH_UNIT(LENGTH_MEASURE(1.E-07),#46,
  'distance_accuracy_value','confusion accuracy');
#50 = CONTEXT_DEPENDENT_SHAPE_REPRESENTATION(#51,#53);
#51 = ( REPRESENTATION_RELATIONSHIP('','',#36,#10) 
REPRESENTATION_RELATIONSHIP_WITH_TRANSFORMATION(#52) 
SHAPE_REPRESENTATION_RELATIONSHIP() );
#52 = ITEM_DEFINED_TRANSFORMATION('','',#11,#15);
#53 = PRODUCT_DEFINITION_SHAPE('Placement','Placement of an item',#54);
#54 = NEXT_ASSEMBLY_USAGE_OCCURRENCE('10','LensGroup','',#5,#31,$);
#55 = PRODUCT_RELATED_PRODUCT_CATEGORY('part',$,(#33));
#56 = SHAPE_DEFINITION_REPRESENTATION(#57,#63);
#57 = PRODUCT_DEFINITION_SHAPE('','',#58);
#58 = PRODUCT_DEFINITION('design','',#59,#62);
#59 = PRODUCT_DEFINITION_FORMATION('','',#60);
#60 = PRODUCT('Lens','Lens','',(#61));
#61 = PRODUCT_CONTEXT('',#2,'mechanical');
#62 = PRODUCT_DEFINITION_CONTEXT('part definition',#2,'design');
#63 = ADVANCED_BREP_SHAPE_REPRESENTATION('',(#11,#64),#127);
#64 = MANIFOLD_SOLID_BREP('',#65);
#65 = CLOSED_SHELL('',(#66,#99,#118));
#66 = ADVANCED_FACE('',(#67),#94,.T.);
#67 = FACE_BOUND('',#68,.F.);
#68 = EDGE_LOOP('',(#69,#79,#86,#87));
#69 = ORIENTED_EDGE('',*,*,#70,.T.);
#70 = EDGE_CURVE('',#71,#73,#75,.T.);
#71 = VERTEX_POINT('',#72);
#72 = CARTESIAN_POINT('',(0.9,0.,1.5));
#73 = VERTEX_POINT('',#74);
#74 = CARTESIAN_POINT('',(0.9,0.,3.6));
#75 = LINE('',#76,#77);
#76 = CARTESIAN_POINT('',(0.9,0.,1.5));
#77 = VECTOR('',#78,1.);
#78 = DIRECTION('',(0.,0.,1.));
#79 = ORIENTED_EDGE('',*,*,#80,.T.);
#80 = EDGE_CURVE('',#73,#73,#81,.T.);
#81 = CIRCLE('',#82,0.9);
#82 = AXIS2_PLACEMENT_3D('',#83,#84,#85);
#83 = CARTESIAN_POINT('',(0.,0.,3.6));
#84 = DIRECTION('',(0.,0.,1.));
#85 = DIRECTION('',(1.,0.,0.));
#86 = ORIENTED_EDGE('',*,*,#70,.F.);
#87 = ORIENTED_EDGE('',*,*,#88,.F.);
#88 = EDGE_CURVE('',#71,#71,#89,.T.);
#89 = CIRCLE('',#90,0.9);
#90 = AXIS2_PLACEMENT_3D('',#91,#92,#93);
#91 = CARTESIAN_POINT('',(0.,0.,1.5));
#92 = DIRECTION('',(0.,0.,1.));
#93 = DIRECTION('',(1.,0.,0.));
#94 = CYLINDRICAL_SURFACE('',#95,0.9);
#95 = AXIS2_PLACEMENT_3D('',#96,#97,#98);
#96 = CARTESIAN_POINT('',(0.,0.,1.5));
#97 = DIRECTION('',(-0.,-0.,-1.));
#98 = DIRECTION('',(1.,0.,0.));
#99 = ADVANCED_FACE('',(#100),#113,.T.);
#100 = FACE_BOUND('',#101,.T.);
#101 = EDGE_LOOP('',(#102,#111,#112));
#102 = ORIENTED_EDGE('',*,*,#103,.F.);
#103 = EDGE_CURVE('',#73,#104,#106,.T.);
#104 = VERTEX_POINT('',#105);
#105 = CARTESIAN_POINT('',(5.510910596163E-17,0.,4.5));
#106 = CIRCLE('',#107,0.9);
#107 = AXIS2_PLACEMENT_3D('',#108,#109,#110);
#108 = CARTESIAN_POINT('',(0.,0.,3.6));
#109 = DIRECTION('',(0.,-1.,0.));
#110 = DIRECTION('',(1.,0.,0.));
#111 = ORIENTED_EDGE('',*,*,#80,.T.);
#112 = ORIENTED_EDGE('',*,*,#103,.T.);
#113 = SPHERICAL_SURFACE('',#114,0.9);
#114 = AXIS2_PLACEMENT_3D('',#115,#116,#117);
#115 = CARTESIAN_POINT('',(0.,0.,3.6));
#116 = DIRECTION('',(0.,0.,1.));
#117 = DIRECTION('',(1.,0.,0.));
#118 = ADVANCED_FACE('',(#119),#122,.F.);
#119 = FACE_BOUND('',#120,.F.);
#120 = EDGE_LOOP('',(#121));
#121 = ORIENTED_EDGE('',*,*,#88,.T.);
#122 = PLANE('',#123);
#123 = AXIS2_PLACEMENT_3D('',#124,#125,#126);
#124 = CARTESIAN_POINT('',(-2.374028007881E-17,1.07411561832E-17,1.5));
#125 = DIRECTION('',(0.,0.,1.));
#126 = DIRECTION('',(1.,0.,0.));
#127 = ( GEOMETRIC_REPRESENTATION_CONTEXT(3) 
GLOBAL_UNCERTAINTY_ASSIGNED_CONTEXT((#131)) GLOBAL_UNIT_ASSIGNED_CONTEXT
((#128,#129,#130)) REPRESENTATION_CONTEXT('Context #1',
  '3D Context with UNIT and UNCERTAINTY') );
#128 = ( LENGTH_UNIT() NAMED_UNIT(*) SI_UNIT(.MILLI.,.METRE.) );
#129 = ( NAMED_UNIT(*) PLANE_ANGLE_UNIT() SI_UNIT($,.RADIAN.) );
#130 = ( NAMED_UNIT(*) SI_UNIT($,.STERADIAN.) SOLID_ANGLE_UNIT() );
#131 = UNCERTAINTY_MEASURE_WITH_UNIT(LENGTH_MEASURE(1.E-07),#128,
  'distance_accuracy_value','confusion accuracy');
#132 = CONTEXT_DEPENDENT_SHAPE_REPRESENTATION(#133,#135);
#133 = ( REPRESENTATION_RELATIONSHIP('','',#63,#36) 
REPRESENTATION_RELATIONSHIP_WITH_TRANSFORMATION(#134) 
SHAPE_REPRESENTATION_RELATIONSHIP() );
#134 = ITEM_DEFINED_TRANSFORMATION('','',#11,#37);
#135 = PRODUCT_DEFINITION_SHAPE('Placement','Placement of an item',#136
  );
#136 = NEXT_ASSEMBLY_USAGE_OCCURRENCE('8','Lens','',#31,#58,$);
#137 = PRODUCT_RELATED_PRODUCT_CATEGORY('part',$,(#60));
#138 = SHAPE_DEFINITION_REPRESENTATION(#139,#145);
#139 = PRODUCT_DEFINITION_SHAPE('','',#140);
#140 = PRODUCT_DEFINITION('design','',#141,#144);
#141 = PRODUCT_DEFINITION_FORMATION('','',#142);
#142 = PRODUCT('Mark','Mark','',(#143));
#143 = PRODUCT_CONTEXT('',#2,'mechanical');
#144 = PRODUCT_DEFINITION_CONTEXT('part definition',#2,'design');
#145 = ADVANCED_BREP_SHAPE_REPRESENTATION('',(#11,#146),#298);
#146 = MANIFOLD_SOLID_BREP('',#147);
#147 = CLOSED_SHELL('',(#148,#188,#219,#250,#274,#286));
#148 = ADVANCED_FACE('',(#149),#183,.F.);
#149 = FACE_BOUND('',#150,.F.);
#150 = EDGE_LOOP('',(#151,#161,#169,#177));
#151 = ORIENTED_EDGE('',*,*,#152,.T.);
#152 = EDGE_CURVE('',#153,#155,#157,.T.);
#153 = VERTEX_POINT('',#154);
#154 = CARTESIAN_POINT('',(-1.204159457879,-1.2,0.));
#155 = VERTEX_POINT('',#156);
#156 = CARTESIAN_POINT('',(-1.204159457879,-1.2,1.6));
#157 = LINE('',#158,#159);
#158 = CARTESIAN_POINT('',(-1.204159457879,-1.2,0.));
#159 = VECTOR('',#160,1.);
#160 = DIRECTION('',(0.,0.,1.));
#161 = ORIENTED_EDGE('',*,*,#162,.T.);
#162 = EDGE_CURVE('',#155,#163,#165,.T.);
#163 = VERTEX_POINT('',#164);
#164 = CARTESIAN_POINT('',(1.6,-1.2,1.6));
#165 = LINE('',#166,#167);
#166 = CARTESIAN_POINT('',(-1.204159457879,-1.2,1.6));
#167 = VECTOR('',#168,1.);
#168 = DIRECTION('',(1.,0.,0.));
#169 = ORIENTED_EDGE('',*,*,#170,.F.);
#170 = EDGE_CURVE('',#171,#163,#173,.T.);
#171 = VERTEX_POINT('',#172);
#172 = CARTESIAN_POINT('',(1.6,-1.2,0.));
#173 = LINE('',#174,#175);
#174 = CARTESIAN_POINT('',(1.6,-1.2,0.));
#175 = VECTOR('',#176,1.);
#176 = DIRECTION('',(0.,0.,1.));
#177 = ORIENTED_EDGE('',*,*,#178,.F.);
#178 = EDGE_CURVE('',#153,#171,#179,.T.);
#179 = LINE('',#180,#181);
#180 = CARTESIAN_POINT('',(-1.204159457879,-1.2,0.));
#181 = VECTOR('',#182,1.);
#182 = DIRECTION('',(1.,0.,0.));
#183 = PLANE('',#184);
#184 = AXIS2_PLACEMENT_3D('',#185,#186,#187);
#185 = CARTESIAN_POINT('',(-1.204159457879,-1.2,0.));
#186 = DIRECTION('',(0.,1.,0.));
#187 = DIRECTION('',(1.,0.,0.));
#188 = ADVANCED_FACE('',(#189),#214,.F.);
#189 = FACE_BOUND('',#190,.F.);
#190 = EDGE_LOOP('',(#191,#192,#200,#208));
#191 = ORIENTED_EDGE('',*,*,#170,.T.);
#192 = ORIENTED_EDGE('',*,*,#193,.T.);
#193 = EDGE_CURVE('',#163,#194,#196,.T.);
#194 = VERTEX_POINT('',#195);
#195 = CARTESIAN_POINT('',(1.6,1.2,1.6));
#196 = LINE('',#197,#198);
#197 = CARTESIAN_POINT('',(1.6,-1.2,1.6));
#198 = VECTOR('',#199,1.);
#199 = DIRECTION('',(0.,1.,0.));
#200 = ORIENTED_EDGE('',*,*,#201,.F.);
#201 = EDGE_CURVE('',#202,#194,#204,.T.);
#202 = VERTEX_POINT('',#203);
#203 = CARTESIAN_POINT('',(1.6,1.2,0.));
#204 = LINE('',#205,#206);
#205 = CARTESIAN_POINT('',(1.6,1.2,0.));
#206 = VECTOR('',#207,1.);
#207 = DIRECTION('',(0.,0.,1.));
#208 = ORIENTED_EDGE('',*,*,#209,.F.);
#209 = EDGE_CURVE('',#171,#202,#210,.T.);
#210 = LINE('',#211,#212);
#211 = CARTESIAN_POINT('',(1.6,-1.2,0.));
#212 = VECTOR('',#213,1.);
#213 = DIRECTION('',(0.,1.,0.));
#214 = PLANE('',#215);
#215 = AXIS2_PLACEMENT_3D('',#216,#217,#218);
#216 = CARTESIAN_POINT('',(1.6,-1.2,0.));
#217 = DIRECTION('',(-1.,0.,0.));
#218 = DIRECTION('',(0.,1.,0.));
#219 = ADVANCED_FACE('',(#220),#245,.F.);
#220 = FACE_BOUND('',#221,.F.);
#221 = EDGE_LOOP('',(#222,#223,#231,#239));
#222 = ORIENTED_EDGE('',*,*,#201,.T.);
#223 = ORIENTED_EDGE('',*,*,#224,.T.);
#224 = EDGE_CURVE('',#194,#225,#227,.T.);
#225 = VERTEX_POINT('',#226);
#226 = CARTESIAN_POINT('',(-1.204159457879,1.2,1.6));
#227 = LINE('',#228,#229);
#228 = CARTESIAN_POINT('',(1.6,1.2,1.6));
#229 = VECTOR('',#230,1.);
#230 = DIRECTION('',(-1.,0.,0.));
#231 = ORIENTED_EDGE('',*,*,#232,.F.);
#232 = EDGE_CURVE('',#233,#225,#235,.T.);
#233 = VERTEX_POINT('',#234);
#234 = CARTESIAN_POINT('',(-1.204159457879,1.2,0.));
#235 = LINE('',#236,#237);
#236 = CARTESIAN_POINT('',(-1.204159457879,1.2,0.));
#237 = VECTOR('',#238,1.);
#238 = DIRECTION('',(0.,0.,1.));
#239 = ORIENTED_EDGE('',*,*,#240,.F.);
#240 = EDGE_CURVE('',#202,#233,#241,.T.);
#241 = LINE('',#242,#243);
#242 = CARTESIAN_POINT('',(1.6,1.2,0.));
#243 = VECTOR('',#244,1.);
#244 = DIRECTION('',(-1.,0.,0.));
#245 = PLANE('',#246);
#246 = AXIS2_PLACEMENT_3D('',#247,#248,#249);
#247 = CARTESIAN_POINT('',(1.6,1.2,0.));
#248 = DIRECTION('',(0.,-1.,0.));
#249 = DIRECTION('',(-1.,0.,0.));
#250 = ADVANCED_FACE('',(#251),#269,.T.);
#251 = FACE_BOUND('',#252,.F.);
#252 = EDGE_LOOP('',(#253,#254,#261,#262));
#253 = ORIENTED_EDGE('',*,*,#232,.T.);
#254 = ORIENTED_EDGE('',*,*,#255,.T.);
#255 = EDGE_CURVE('',#225,#155,#256,.T.);
#256 = CIRCLE('',#257,1.7);
#257 = AXIS2_PLACEMENT_3D('',#258,#259,#260);
#258 = CARTESIAN_POINT('',(0.,0.,1.6));
#259 = DIRECTION('',(0.,0.,1.));
#260 = DIRECTION('',(1.,0.,0.));
#261 = ORIENTED_EDGE('',*,*,#152,.F.);
#262 = ORIENTED_EDGE('',*,*,#263,.F.);
#263 = EDGE_CURVE('',#233,#153,#264,.T.);
#264 = CIRCLE('',#265,1.7);
#265 = AXIS2_PLACEMENT_3D('',#266,#267,#268);
#266 = CARTESIAN_POINT('',(0.,0.,0.));
#267 = DIRECTION('',(0.,0.,1.));
#268 = DIRECTION('',(1.,0.,0.));
#269 = CYLINDRICAL_SURFACE('',#270,1.7);
#270 = AXIS2_PLACEMENT_3D('',#271,#272,#273);
#271 = CARTESIAN_POINT('',(0.,0.,0.));
#272 = DIRECTION('',(-0.,-0.,-1.));
#273 = DIRECTION('',(1.,0.,0.));
#274 = ADVANCED_FACE('',(#275),#281,.F.);
#275 = FACE_BOUND('',#276,.F.);
#276 = EDGE_LOOP('',(#277,#278,#279,#280));
#277 = ORIENTED_EDGE('',*,*,#178,.T.);
#278 = ORIENTED_EDGE('',*,*,#209,.T.);
#279 = ORIENTED_EDGE('',*,*,#240,.T.);
#280 = ORIENTED_EDGE('',*,*,#263,.T.);
#281 = PLANE('',#282);
#282 = AXIS2_PLACEMENT_3D('',#283,#284,#285);
#283 = CARTESIAN_POINT('',(9.475270777675E-02,-2.086377357796E-17,0.));
#284 = DIRECTION('',(0.,0.,1.));
#285 = DIRECTION('',(1.,0.,0.));
#286 = ADVANCED_FACE('',(#287),#293,.T.);
#287 = FACE_BOUND('',#288,.T.);
#288 = EDGE_LOOP('',(#289,#290,#291,#292));
#289 = ORIENTED_EDGE('',*,*,#162,.T.);
#290 = ORIENTED_EDGE('',*,*,#193,.T.);
#291 = ORIENTED_EDGE('',*,*,#224,.T.);
#292 = ORIENTED_EDGE('',*,*,#255,.T.);
#293 = PLANE('',#294);
#294 = AXIS2_PLACEMENT_3D('',#295,#296,#297);
#295 = CARTESIAN_POINT('',(9.475270777675E-02,-2.086377357796E-17,1.6));
#296 = DIRECTION('',(0.,0.,1.));
#297 = DIRECTION('',(1.,0.,0.));
#298 = ( GEOMETRIC_REPRESENTATION_CONTEXT(3) 
GLOBAL_UNCERTAINTY_ASSIGNED_CONTEXT((#302)) GLOBAL_UNIT_ASSIGNED_CONTEXT
((#299,#300,#301)) REPRESENTATION_CONTEXT('Context #1',
  '3D Context with UNIT and UNCERTAINTY') );
#299 = ( LENGTH_UNIT() NAMED_UNIT(*) SI_UNIT(.MILLI.,.METRE.) );
#300 = ( NAMED_UNIT(*) PLANE_ANGLE_UNIT() SI_UNIT($,.RADIAN.) );
#301 = ( NAMED_UNIT(*) SI_UNIT($,.STERADIAN.) SOLID_ANGLE_UNIT() );
#302 = UNCERTAINTY_MEASURE_WITH_UNIT(LENGTH_MEASURE(1.E-07),#299,
  'distance_accuracy_value','confusion accuracy');
#303 = CONTEXT_DEPENDENT_SHAPE_REPRESENTATION(#304,#306);
#304 = ( REPRESENTATION_RELATIONSHIP('','',#145,#36) 
REPRESENTATION_RELATIONSHIP_WITH_TRANSFORMATION(#305) 
SHAPE_REPRESENTATION_RELATIONSHIP() );
#305 = ITEM_DEFINED_TRANSFORMATION('','',#11,#41);
#306 = PRODUCT_DEFINITION_SHAPE('Placement','Placement of an item',#307
  );
#307 = NEXT_ASSEMBLY_USAGE_OCCURRENCE('9','Mark','',#31,#140,$);
#308 = PRODUCT_RELATED_PRODUCT_CATEGORY('part',$,(#142));
#309 = SHAPE_DEFINITION_REPRESENTATION(#310,#316);
#310 = PRODUCT_DEFINITION_SHAPE('','',#311);
#311 = PRODUCT_DEFINITION('design','',#312,#315);
#312 = PRODUCT_DEFINITION_FORMATION('','',#313);
#313 = PRODUCT('PinsGroup','PinsGroup','',(#314));
#314 = PRODUCT_CONTEXT('',#2,'mechanical');
#315 = PRODUCT_DEFINITION_CONTEXT('part definition',#2,'design');
#316 = SHAPE_REPRESENTATION('',(#11,#317,#321,#325),#329);
#317 = AXIS2_PLACEMENT_3D('',#318,#319,#320);
#318 = CARTESIAN_POINT('',(0.,0.,0.));
#319 = DIRECTION('',(0.,0.,1.));
#320 = DIRECTION('',(1.,0.,0.));
#321 = AXIS2_PLACEMENT_3D('',#322,#323,#324);
#322 = CARTESIAN_POINT('',(0.,0.,0.));
#323 = DIRECTION('',(0.,0.,1.));
#324 = DIRECTION('',(1.,0.,0.));
#325 = AXIS2_PLACEMENT_3D('',#326,#327,#328);
#326 = CARTESIAN_POINT('',(0.,0.,0.));
#327 = DIRECTION('',(0.,0.,1.));
#328 = DIRECTION('',(1.,0.,0.));
#329 = ( GEOMETRIC_REPRESENTATION_CONTEXT(3) 
GLOBAL_UNCERTAINTY_ASSIGNED_CONTEXT((#333)) GLOBAL_UNIT_ASSIGNED_CONTEXT
((#330,#331,#332)) REPRESENTATION_CONTEXT('Context #1',
  '3D Context with UNIT and UNCERTAINTY') );
#330 = ( LENGTH_UNIT() NAMED_UNIT(*) SI_UNIT(.MILLI.,.METRE.) );
#331 = ( NAMED_UNIT(*) PLANE_ANGLE_UNIT() SI_UNIT($,.RADIAN.) );
#332 = ( NAMED_UNIT(*) SI_UNIT($,.STERADIAN.) SOLID_ANGLE_UNIT() );
#333 = UNCERTAINTY_MEASURE_WITH_UNIT(LENGTH_MEASURE(1.E-07),#330,
  'distance_accuracy_value','confusion accuracy');
#334 = CONTEXT_DEPENDENT_SHAPE_REPRESENTATION(#335,#337);
#335 = ( REPRESENTATION_RELATIONSHIP('','',#316,#10) 
REPRESENTATION_RELATIONSHIP_WITH_TRANSFORMATION(#336) 
SHAPE_REPRESENTATION_RELATIONSHIP() );
#336 = ITEM_DEFINED_TRANSFORMATION('','',#11,#19);
#337 = PRODUCT_DEFINITION_SHAPE('Placement','Placement of an item',#338
  );
#338 = NEXT_ASSEMBLY_USAGE_OCCURRENCE('14','PinsGroup','',#5,#311,$);
#339 = PRODUCT_RELATED_PRODUCT_CATEGORY('part',$,(#313));
#340 = SHAPE_DEFINITION_REPRESENTATION(#341,#347);
#341 = PRODUCT_DEFINITION_SHAPE('','',#342);
#342 = PRODUCT_DEFINITION('design','',#343,#346);
#343 = PRODUCT_DEFINITION_FORMATION('','',#344);
#344 = PRODUCT('PinA','PinA','',(#345));
#345 = PRODUCT_CONTEXT('',#2,'mechanical');
#346 = PRODUCT_DEFINITION_CONTEXT('part definition',#2,'design');
#347 = ADVANCED_BREP_SHAPE_REPRESENTATION('',(#11,#348),#498);
#348 = MANIFOLD_SOLID_BREP('',#349);
#349 = CLOSED_SHELL('',(#350,#390,#421,#452,#474,#486));
#350 = ADVANCED_FACE('',(#351),#385,.T.);
#351 = FACE_BOUND('',#352,.T.);
#352 = EDGE_LOOP('',(#353,#363,#371,#379));
#353 = ORIENTED_EDGE('',*,*,#354,.T.);
#354 = EDGE_CURVE('',#355,#357,#359,.T.);
#355 = VERTEX_POINT('',#356);
#356 = CARTESIAN_POINT('',(-1.52,-0.25,0.));
#357 = VERTEX_POINT('',#358);
#358 = CARTESIAN_POINT('',(-1.52,-0.25,-5.));
#359 = LINE('',#360,#361);
#360 = CARTESIAN_POINT('',(-1.52,-0.25,0.));
#361 = VECTOR('',#362,1.);
#362 = DIRECTION('',(-0.,-0.,-1.));
#363 = ORIENTED_EDGE('',*,*,#364,.T.);
#364 = EDGE_CURVE('',#357,#365,#367,.T.);
#365 = VERTEX_POINT('',#366);
#366 = CARTESIAN_POINT('',(-1.02,-0.25,-5.));
#367 = LINE('',#368,#369);
#368 = CARTESIAN_POINT('',(-1.52,-0.25,-5.));
#369 = VECTOR('',#370,1.);
#370 = DIRECTION('',(1.,0.,0.));
#371 = ORIENTED_EDGE('',*,*,#372,.F.);
#372 = EDGE_CURVE('',#373,#365,#375,.T.);
#373 = VERTEX_POINT('',#374);
#374 = CARTESIAN_POINT('',(-1.02,-0.25,0.));
#375 = LINE('',#376,#377);
#376 = CARTESIAN_POINT('',(-1.02,-0.25,0.));
#377 = VECTOR('',#378,1.);
#378 = DIRECTION('',(-0.,-0.,-1.));
#379 = ORIENTED_EDGE('',*,*,#380,.F.);
#380 = EDGE_CURVE('',#355,#373,#381,.T.);
#381 = LINE('',#382,#383);
#382 = CARTESIAN_POINT('',(-1.52,-0.25,0.));
#383 = VECTOR('',#384,1.);
#384 = DIRECTION('',(1.,0.,0.));
#385 = PLANE('',#386);
#386 = AXIS2_PLACEMENT_3D('',#387,#388,#389);
#387 = CARTESIAN_POINT('',(-1.52,-0.25,0.));
#388 = DIRECTION('',(0.,-1.,0.));
#389 = DIRECTION('',(1.,0.,0.));
#390 = ADVANCED_FACE('',(#391),#416,.T.);
#391 = FACE_BOUND('',#392,.T.);
#392 = EDGE_LOOP('',(#393,#394,#402,#410));
#393 = ORIENTED_EDGE('',*,*,#372,.T.);
#394 = ORIENTED_EDGE('',*,*,#395,.T.);
#395 = EDGE_CURVE('',#365,#396,#398,.T.);
#396 = VERTEX_POINT('',#397);
#397 = CARTESIAN_POINT('',(-1.02,0.25,-5.));
#398 = LINE('',#399,#400);
#399 = CARTESIAN_POINT('',(-1.02,-0.25,-5.));
#400 = VECTOR('',#401,1.);
#401 = DIRECTION('',(0.,1.,0.));
#402 = ORIENTED_EDGE('',*,*,#403,.F.);
#403 = EDGE_CURVE('',#404,#396,#406,.T.);
#404 = VERTEX_POINT('',#405);
#405 = CARTESIAN_POINT('',(-1.02,0.25,0.));
#406 = LINE('',#407,#408);
#407 = CARTESIAN_POINT('',(-1.02,0.25,0.));
#408 = VECTOR('',#409,1.);
#409 = DIRECTION('',(-0.,-0.,-1.));
#410 = ORIENTED_EDGE('',*,*,#411,.F.);
#411 = EDGE_CURVE('',#373,#404,#412,.T.);
#412 = LINE('',#413,#414);
#413 = CARTESIAN_POINT('',(-1.02,-0.25,0.));
#414 = VECTOR('',#415,1.);
#415 = DIRECTION('',(0.,1.,0.));
#416 = PLANE('',#417);
#417 = AXIS2_PLACEMENT_3D('',#418,#419,#420);
#418 = CARTESIAN_POINT('',(-1.02,-0.25,0.));
#419 = DIRECTION('',(1.,0.,0.));
#420 = DIRECTION('',(-0.,1.,0.));
#421 = ADVANCED_FACE('',(#422),#447,.T.);
#422 = FACE_BOUND('',#423,.T.);
#423 = EDGE_LOOP('',(#424,#425,#433,#441));
#424 = ORIENTED_EDGE('',*,*,#403,.T.);
#425 = ORIENTED_EDGE('',*,*,#426,.T.);
#426 = EDGE_CURVE('',#396,#427,#429,.T.);
#427 = VERTEX_POINT('',#428);
#428 = CARTESIAN_POINT('',(-1.52,0.25,-5.));
#429 = LINE('',#430,#431);
#430 = CARTESIAN_POINT('',(-1.02,0.25,-5.));
#431 = VECTOR('',#432,1.);
#432 = DIRECTION('',(-1.,0.,0.));
#433 = ORIENTED_EDGE('',*,*,#434,.F.);
#434 = EDGE_CURVE('',#435,#427,#437,.T.);
#435 = VERTEX_POINT('',#436);
#436 = CARTESIAN_POINT('',(-1.52,0.25,0.));
#437 = LINE('',#438,#439);
#438 = CARTESIAN_POINT('',(-1.52,0.25,0.));
#439 = VECTOR('',#440,1.);
#440 = DIRECTION('',(-0.,-0.,-1.));
#441 = ORIENTED_EDGE('',*,*,#442,.F.);
#442 = EDGE_CURVE('',#404,#435,#443,.T.);
#443 = LINE('',#444,#445);
#444 = CARTESIAN_POINT('',(-1.02,0.25,0.));
#445 = VECTOR('',#446,1.);
#446 = DIRECTION('',(-1.,0.,0.));
#447 = PLANE('',#448);
#448 = AXIS2_PLACEMENT_3D('',#449,#450,#451);
#449 = CARTESIAN_POINT('',(-1.02,0.25,0.));
#450 = DIRECTION('',(0.,1.,0.));
#451 = DIRECTION('',(-1.,0.,0.));
#452 = ADVANCED_FACE('',(#453),#469,.T.);
#453 = FACE_BOUND('',#454,.T.);
#454 = EDGE_LOOP('',(#455,#456,#462,#463));
#455 = ORIENTED_EDGE('',*,*,#434,.T.);
#456 = ORIENTED_EDGE('',*,*,#457,.T.);
#457 = EDGE_CURVE('',#427,#357,#458,.T.);
#458 = LINE('',#459,#460);
#459 = CARTESIAN_POINT('',(-1.52,0.25,-5.));
#460 = VECTOR('',#461,1.);
#461 = DIRECTION('',(0.,-1.,0.));
#462 = ORIENTED_EDGE('',*,*,#354,.F.);
#463 = ORIENTED_EDGE('',*,*,#464,.F.);
#464 = EDGE_CURVE('',#435,#355,#465,.T.);
#465 = LINE('',#466,#467);
#466 = CARTESIAN_POINT('',(-1.52,0.25,0.));
#467 = VECTOR('',#468,1.);
#468 = DIRECTION('',(0.,-1.,0.));
#469 = PLANE('',#470);
#470 = AXIS2_PLACEMENT_3D('',#471,#472,#473);
#471 = CARTESIAN_POINT('',(-1.52,0.25,0.));
#472 = DIRECTION('',(-1.,0.,0.));
#473 = DIRECTION('',(0.,-1.,0.));
#474 = ADVANCED_FACE('',(#475),#481,.T.);
#475 = FACE_BOUND('',#476,.T.);
#476 = EDGE_LOOP('',(#477,#478,#479,#480));
#477 = ORIENTED_EDGE('',*,*,#380,.T.);
#478 = ORIENTED_EDGE('',*,*,#411,.T.);
#479 = ORIENTED_EDGE('',*,*,#442,.T.);
#480 = ORIENTED_EDGE('',*,*,#464,.T.);
#481 = PLANE('',#482);
#482 = AXIS2_PLACEMENT_3D('',#483,#484,#485);
#483 = CARTESIAN_POINT('',(-1.27,0.,0.));
#484 = DIRECTION('',(0.,0.,1.));
#485 = DIRECTION('',(1.,0.,0.));
#486 = ADVANCED_FACE('',(#487),#493,.F.);
#487 = FACE_BOUND('',#488,.F.);
#488 = EDGE_LOOP('',(#489,#490,#491,#492));
#489 = ORIENTED_EDGE('',*,*,#364,.T.);
#490 = ORIENTED_EDGE('',*,*,#395,.T.);
#491 = ORIENTED_EDGE('',*,*,#426,.T.);
#492 = ORIENTED_EDGE('',*,*,#457,.T.);
#493 = PLANE('',#494);
#494 = AXIS2_PLACEMENT_3D('',#495,#496,#497);
#495 = CARTESIAN_POINT('',(-1.27,0.,-5.));
#496 = DIRECTION('',(0.,0.,1.));
#497 = DIRECTION('',(1.,0.,0.));
#498 = ( GEOMETRIC_REPRESENTATION_CONTEXT(3) 
GLOBAL_UNCERTAINTY_ASSIGNED_CONTEXT((#502)) GLOBAL_UNIT_ASSIGNED_CONTEXT
((#499,#500,#501)) REPRESENTATION_CONTEXT('Context #1',
  '3D Context with UNIT and UNCERTAINTY') );
#499 = ( LENGTH_UNIT() NAMED_UNIT(*) SI_UNIT(.MILLI.,.METRE.) );
#500 = ( NAMED_UNIT(*) PLANE_ANGLE_UNIT() SI_UNIT($,.RADIAN.) );
#501 = ( NAMED_UNIT(*) SI_UNIT($,.STERADIAN.) SOLID_ANGLE_UNIT() );
#502 = UNCERTAINTY_MEASURE_WITH_UNIT(LENGTH_MEASURE(1.E-07),#499,
  'distance_accuracy_value','confusion accuracy');
#503 = CONTEXT_DEPENDENT_SHAPE_REPRESENTATION(#504,#506);
#504 = ( REPRESENTATION_RELATIONSHIP('','',#347,#316) 
REPRESENTATION_RELATIONSHIP_WITH_TRANSFORMATION(#505) 
SHAPE_REPRESENTATION_RELATIONSHIP() );
#505 = ITEM_DEFINED_TRANSFORMATION('','',#11,#317);
#506 = PRODUCT_DEFINITION_SHAPE('Placement','Placement of an item',#507
  );
#507 = NEXT_ASSEMBLY_USAGE_OCCURRENCE('11','PinA','',#311,#342,$);
#508 = PRODUCT_RELATED_PRODUCT_CATEGORY('part',$,(#344));
#509 = SHAPE_DEFINITION_REPRESENTATION(#510,#516);
#510 = PRODUCT_DEFINITION_SHAPE('','',#511);
#511 = PRODUCT_DEFINITION('design','',#512,#515);
#512 = PRODUCT_DEFINITION_FORMATION('','',#513);
#513 = PRODUCT('PinB','PinB','',(#514));
#514 = PRODUCT_CONTEXT('',#2,'mechanical');
#515 = PRODUCT_DEFINITION_CONTEXT('part definition',#2,'design');
#516 = ADVANCED_BREP_SHAPE_REPRESENTATION('',(#11,#517),#667);
#517 = MANIFOLD_SOLID_BREP('',#518);
#518 = CLOSED_SHELL('',(#519,#559,#590,#621,#643,#655));
#519 = ADVANCED_FACE('',(#520),#554,.T.);
#520 = FACE_BOUND('',#521,.T.);
#521 = EDGE_LOOP('',(#522,#532,#540,#548));
#522 = ORIENTED_EDGE('',*,*,#523,.T.);
#523 = EDGE_CURVE('',#524,#526,#528,.T.);
#524 = VERTEX_POINT('',#525);
#525 = CARTESIAN_POINT('',(1.02,-0.25,0.));
#526 = VERTEX_POINT('',#527);
#527 = CARTESIAN_POINT('',(1.02,-0.25,-5.));
#528 = LINE('',#529,#530);
#529 = CARTESIAN_POINT('',(1.02,-0.25,0.));
#530 = VECTOR('',#531,1.);
#531 = DIRECTION('',(-0.,-0.,-1.));
#532 = ORIENTED_EDGE('',*,*,#533,.T.);
#533 = EDGE_CURVE('',#526,#534,#536,.T.);
#534 = VERTEX_POINT('',#535);
#535 = CARTESIAN_POINT('',(1.52,-0.25,-5.));
#536 = LINE('',#537,#538);
#537 = CARTESIAN_POINT('',(1.02,-0.25,-5.));
#538 = VECTOR('',#539,1.);
#539 = DIRECTION('',(1.,0.,0.));
#540 = ORIENTED_EDGE('',*,*,#541,.F.);
#541 = EDGE_CURVE('',#542,#534,#544,.T.);
#542 = VERTEX_POINT('',#543);
#543 = CARTESIAN_POINT('',(1.52,-0.25,0.));
#544 = LINE('',#545,#546);
#545 = CARTESIAN_POINT('',(1.52,-0.25,0.));
#546 = VECTOR('',#547,1.);
#547 = DIRECTION('',(-0.,-0.,-1.));
#548 = ORIENTED_EDGE('',*,*,#549,.F.);
#549 = EDGE_CURVE('',#524,#542,#550,.T.);
#550 = LINE('',#551,#552);
#551 = CARTESIAN_POINT('',(1.02,-0.25,0.));
#552 = VECTOR('',#553,1.);
#553 = DIRECTION('',(1.,0.,0.));
#554 = PLANE('',#555);
#555 = AXIS2_PLACEMENT_3D('',#556,#557,#558);
#556 = CARTESIAN_POINT('',(1.02,-0.25,0.));
#557 = DIRECTION('',(0.,-1.,0.));
#558 = DIRECTION('',(1.,0.,0.));
#559 = ADVANCED_FACE('',(#560),#585,.T.);
#560 = FACE_BOUND('',#561,.T.);
#561 = EDGE_LOOP('',(#562,#563,#571,#579));
#562 = ORIENTED_EDGE('',*,*,#541,.T.);
#563 = ORIENTED_EDGE('',*,*,#564,.T.);
#564 = EDGE_CURVE('',#534,#565,#567,.T.);
#565 = VERTEX_POINT('',#566);
#566 = CARTESIAN_POINT('',(1.52,0.25,-5.));
#567 = LINE('',#568,#569);
#568 = CARTESIAN_POINT('',(1.52,-0.25,-5.));
#569 = VECTOR('',#570,1.);
#570 = DIRECTION('',(0.,1.,0.));
#571 = ORIENTED_EDGE('',*,*,#572,.F.);
#572 = EDGE_CURVE('',#573,#565,#575,.T.);
#573 = VERTEX_POINT('',#574);
#574 = CARTESIAN_POINT('',(1.52,0.25,0.));
#575 = LINE('',#576,#577);
#576 = CARTESIAN_POINT('',(1.52,0.25,0.));
#577 = VECTOR('',#578,1.);
#578 = DIRECTION('',(-0.,-0.,-1.));
#579 = ORIENTED_EDGE('',*,*,#580,.F.);
#580 = EDGE_CURVE('',#542,#573,#581,.T.);
#581 = LINE('',#582,#583);
#582 = CARTESIAN_POINT('',(1.52,-0.25,0.));
#583 = VECTOR('',#584,1.);
#584 = DIRECTION('',(0.,1.,0.));
#585 = PLANE('',#586);
#586 = AXIS2_PLACEMENT_3D('',#587,#588,#589);
#587 = CARTESIAN_POINT('',(1.52,-0.25,0.));
#588 = DIRECTION('',(1.,0.,0.));
#589 = DIRECTION('',(-0.,1.,0.));
#590 = ADVANCED_FACE('',(#591),#616,.T.);
#591 = FACE_BOUND('',#592,.T.);
#592 = EDGE_LOOP('',(#593,#594,#602,#610));
#593 = ORIENTED_EDGE('',*,*,#572,.T.);
#594 = ORIENTED_EDGE('',*,*,#595,.T.);
#595 = EDGE_CURVE('',#565,#596,#598,.T.);
#596 = VERTEX_POINT('',#597);
#597 = CARTESIAN_POINT('',(1.02,0.25,-5.));
#598 = LINE('',#599,#600);
#599 = CARTESIAN_POINT('',(1.52,0.25,-5.));
#600 = VECTOR('',#601,1.);
#601 = DIRECTION('',(-1.,0.,0.));
#602 = ORIENTED_EDGE('',*,*,#603,.F.);
#603 = EDGE_CURVE('',#604,#596,#606,.T.);
#604 = VERTEX_POINT('',#605);
#605 = CARTESIAN_POINT('',(1.02,0.25,0.));
#606 = LINE('',#607,#608);
#607 = CARTESIAN_POINT('',(1.02,0.25,0.));
#608 = VECTOR('',#609,1.);
#609 = DIRECTION('',(-0.,-0.,-1.));
#610 = ORIENTED_EDGE('',*,*,#611,.F.);
#611 = EDGE_CURVE('',#573,#604,#612,.T.);
#612 = LINE('',#613,#614);
#613 = CARTESIAN_POINT('',(1.52,0.25,0.));
#614 = VECTOR('',#615,1.);
#615 = DIRECTION('',(-1.,0.,0.));
#616 = PLANE('',#617);
#617 = AXIS2_PLACEMENT_3D('',#618,#619,#620);
#618 = CARTESIAN_POINT('',(1.52,0.25,0.));
#619 = DIRECTION('',(0.,1.,0.));
#620 = DIRECTION('',(-1.,0.,0.));
#621 = ADVANCED_FACE('',(#622),#638,.T.);
#622 = FACE_BOUND('',#623,.T.);
#623 = EDGE_LOOP('',(#624,#625,#631,#632));
#624 = ORIENTED_EDGE('',*,*,#603,.T.);
#625 = ORIENTED_EDGE('',*,*,#626,.T.);
#626 = EDGE_CURVE('',#596,#526,#627,.T.);
#627 = LINE('',#628,#629);
#628 = CARTESIAN_POINT('',(1.02,0.25,-5.));
#629 = VECTOR('',#630,1.);
#630 = DIRECTION('',(0.,-1.,0.));
#631 = ORIENTED_EDGE('',*,*,#523,.F.);
#632 = ORIENTED_EDGE('',*,*,#633,.F.);
#633 = EDGE_CURVE('',#604,#524,#634,.T.);
#634 = LINE('',#635,#636);
#635 = CARTESIAN_POINT('',(1.02,0.25,0.));
#636 = VECTOR('',#637,1.);
#637 = DIRECTION('',(0.,-1.,0.));
#638 = PLANE('',#639);
#639 = AXIS2_PLACEMENT_3D('',#640,#641,#642);
#640 = CARTESIAN_POINT('',(1.02,0.25,0.));
#641 = DIRECTION('',(-1.,0.,0.));
#642 = DIRECTION('',(0.,-1.,0.));
#643 = ADVANCED_FACE('',(#644),#650,.T.);
#644 = FACE_BOUND('',#645,.T.);
#645 = EDGE_LOOP('',(#646,#647,#648,#649));
#646 = ORIENTED_EDGE('',*,*,#549,.T.);
#647 = ORIENTED_EDGE('',*,*,#580,.T.);
#648 = ORIENTED_EDGE('',*,*,#611,.T.);
#649 = ORIENTED_EDGE('',*,*,#633,.T.);
#650 = PLANE('',#651);
#651 = AXIS2_PLACEMENT_3D('',#652,#653,#654);
#652 = CARTESIAN_POINT('',(1.27,0.,0.));
#653 = DIRECTION('',(0.,0.,1.));
#654 = DIRECTION('',(1.,0.,0.));
#655 = ADVANCED_FACE('',(#656),#662,.F.);
#656 = FACE_BOUND('',#657,.F.);
#657 = EDGE_LOOP('',(#658,#659,#660,#661));
#658 = ORIENTED_EDGE('',*,*,#533,.T.);
#659 = ORIENTED_EDGE('',*,*,#564,.T.);
#660 = ORIENTED_EDGE('',*,*,#595,.T.);
#661 = ORIENTED_EDGE('',*,*,#626,.T.);
#662 = PLANE('',#663);
#663 = AXIS2_PLACEMENT_3D('',#664,#665,#666);
#664 = CARTESIAN_POINT('',(1.27,0.,-5.));
#665 = DIRECTION('',(0.,0.,1.));
#666 = DIRECTION('',(1.,0.,0.));
#667 = ( GEOMETRIC_REPRESENTATION_CONTEXT(3) 
GLOBAL_UNCERTAINTY_ASSIGNED_CONTEXT((#671)) GLOBAL_UNIT_ASSIGNED_CONTEXT
((#668,#669,#670)) REPRESENTATION_CONTEXT('Context #1',
  '3D Context with UNIT and UNCERTAINTY') );
#668 = ( LENGTH_UNIT() NAMED_UNIT(*) SI_UNIT(.MILLI.,.METRE.) );
#669 = ( NAMED_UNIT(*) PLANE_ANGLE_UNIT() SI_UNIT($,.RADIAN.) );
#670 = ( NAMED_UNIT(*) SI_UNIT($,.STERADIAN.) SOLID_ANGLE_UNIT() );
#671 = UNCERTAINTY_MEASURE_WITH_UNIT(LENGTH_MEASURE(1.E-07),#668,
  'distance_accuracy_value','confusion accuracy');
#672 = CONTEXT_DEPENDENT_SHAPE_REPRESENTATION(#673,#675);
#673 = ( REPRESENTATION_RELATIONSHIP('','',#516,#316) 
REPRESENTATION_RELATIONSHIP_WITH_TRANSFORMATION(#674) 
SHAPE_REPRESENTATION_RELATIONSHIP() );
#674 = ITEM_DEFINED_TRANSFORMATION('','',#11,#321);
#675 = PRODUCT_DEFINITION_SHAPE('Placement','Placement of an item',#676
  );
#676 = NEXT_ASSEMBLY_USAGE_OCCURRENCE('12','PinB','',#311,#511,$);
#677 = PRODUCT_RELATED_PRODUCT_CATEGORY('part',$,(#513));
#678 = SHAPE_DEFINITION_REPRESENTATION(#679,#685);
#679 = PRODUCT_DEFINITION_SHAPE('','',#680);
#680 = PRODUCT_DEFINITION('design','',#681,#684);
#681 = PRODUCT_DEFINITION_FORMATION('','',#682);
#682 = PRODUCT('StandOff','StandOff','',(#683));
#683 = PRODUCT_CONTEXT('',#2,'mechanical');
#684 = PRODUCT_DEFINITION_CONTEXT('part definition',#2,'design');
#685 = SHAPE_REPRESENTATION('',(#11,#686,#836),#986);
#686 = MANIFOLD_SOLID_BREP('',#687);
#687 = CLOSED_SHELL('',(#688,#728,#759,#790,#812,#824));
#688 = ADVANCED_FACE('',(#689),#723,.F.);
#689 = FACE_BOUND('',#690,.F.);
#690 = EDGE_LOOP('',(#691,#701,#709,#717));
#691 = ORIENTED_EDGE('',*,*,#692,.T.);
#692 = EDGE_CURVE('',#693,#695,#697,.T.);
#693 = VERTEX_POINT('',#694);
#694 = CARTESIAN_POINT('',(0.52,0.25,0.));
#695 = VERTEX_POINT('',#696);
#696 = CARTESIAN_POINT('',(0.52,0.25,1.5));
#697 = LINE('',#698,#699);
#698 = CARTESIAN_POINT('',(0.52,0.25,0.));
#699 = VECTOR('',#700,1.);
#700 = DIRECTION('',(0.,0.,1.));
#701 = ORIENTED_EDGE('',*,*,#702,.T.);
#702 = EDGE_CURVE('',#695,#703,#705,.T.);
#703 = VERTEX_POINT('',#704);
#704 = CARTESIAN_POINT('',(0.52,-0.25,1.5));
#705 = LINE('',#706,#707);
#706 = CARTESIAN_POINT('',(0.52,0.25,1.5));
#707 = VECTOR('',#708,1.);
#708 = DIRECTION('',(0.,-1.,0.));
#709 = ORIENTED_EDGE('',*,*,#710,.F.);
#710 = EDGE_CURVE('',#711,#703,#713,.T.);
#711 = VERTEX_POINT('',#712);
#712 = CARTESIAN_POINT('',(0.52,-0.25,0.));
#713 = LINE('',#714,#715);
#714 = CARTESIAN_POINT('',(0.52,-0.25,0.));
#715 = VECTOR('',#716,1.);
#716 = DIRECTION('',(0.,0.,1.));
#717 = ORIENTED_EDGE('',*,*,#718,.F.);
#718 = EDGE_CURVE('',#693,#711,#719,.T.);
#719 = LINE('',#720,#721);
#720 = CARTESIAN_POINT('',(0.52,0.25,0.));
#721 = VECTOR('',#722,1.);
#722 = DIRECTION('',(0.,-1.,0.));
#723 = PLANE('',#724);
#724 = AXIS2_PLACEMENT_3D('',#725,#726,#727);
#725 = CARTESIAN_POINT('',(0.52,0.25,0.));
#726 = DIRECTION('',(1.,0.,-0.));
#727 = DIRECTION('',(0.,-1.,0.));
#728 = ADVANCED_FACE('',(#729),#754,.F.);
#729 = FACE_BOUND('',#730,.F.);
#730 = EDGE_LOOP('',(#731,#732,#740,#748));
#731 = ORIENTED_EDGE('',*,*,#710,.T.);
#732 = ORIENTED_EDGE('',*,*,#733,.T.);
#733 = EDGE_CURVE('',#703,#734,#736,.T.);
#734 = VERTEX_POINT('',#735);
#735 = CARTESIAN_POINT('',(1.52,-0.25,1.5));
#736 = LINE('',#737,#738);
#737 = CARTESIAN_POINT('',(0.52,-0.25,1.5));
#738 = VECTOR('',#739,1.);
#739 = DIRECTION('',(1.,0.,0.));
#740 = ORIENTED_EDGE('',*,*,#741,.F.);
#741 = EDGE_CURVE('',#742,#734,#744,.T.);
#742 = VERTEX_POINT('',#743);
#743 = CARTESIAN_POINT('',(1.52,-0.25,0.));
#744 = LINE('',#745,#746);
#745 = CARTESIAN_POINT('',(1.52,-0.25,0.));
#746 = VECTOR('',#747,1.);
#747 = DIRECTION('',(0.,0.,1.));
#748 = ORIENTED_EDGE('',*,*,#749,.F.);
#749 = EDGE_CURVE('',#711,#742,#750,.T.);
#750 = LINE('',#751,#752);
#751 = CARTESIAN_POINT('',(0.52,-0.25,0.));
#752 = VECTOR('',#753,1.);
#753 = DIRECTION('',(1.,0.,0.));
#754 = PLANE('',#755);
#755 = AXIS2_PLACEMENT_3D('',#756,#757,#758);
#756 = CARTESIAN_POINT('',(0.52,-0.25,0.));
#757 = DIRECTION('',(0.,1.,0.));
#758 = DIRECTION('',(1.,0.,0.));
#759 = ADVANCED_FACE('',(#760),#785,.F.);
#760 = FACE_BOUND('',#761,.F.);
#761 = EDGE_LOOP('',(#762,#763,#771,#779));
#762 = ORIENTED_EDGE('',*,*,#741,.T.);
#763 = ORIENTED_EDGE('',*,*,#764,.T.);
#764 = EDGE_CURVE('',#734,#765,#767,.T.);
#765 = VERTEX_POINT('',#766);
#766 = CARTESIAN_POINT('',(1.52,0.25,1.5));
#767 = LINE('',#768,#769);
#768 = CARTESIAN_POINT('',(1.52,-0.25,1.5));
#769 = VECTOR('',#770,1.);
#770 = DIRECTION('',(0.,1.,0.));
#771 = ORIENTED_EDGE('',*,*,#772,.F.);
#772 = EDGE_CURVE('',#773,#765,#775,.T.);
#773 = VERTEX_POINT('',#774);
#774 = CARTESIAN_POINT('',(1.52,0.25,0.));
#775 = LINE('',#776,#777);
#776 = CARTESIAN_POINT('',(1.52,0.25,0.));
#777 = VECTOR('',#778,1.);
#778 = DIRECTION('',(0.,0.,1.));
#779 = ORIENTED_EDGE('',*,*,#780,.F.);
#780 = EDGE_CURVE('',#742,#773,#781,.T.);
#781 = LINE('',#782,#783);
#782 = CARTESIAN_POINT('',(1.52,-0.25,0.));
#783 = VECTOR('',#784,1.);
#784 = DIRECTION('',(0.,1.,0.));
#785 = PLANE('',#786);
#786 = AXIS2_PLACEMENT_3D('',#787,#788,#789);
#787 = CARTESIAN_POINT('',(1.52,-0.25,0.));
#788 = DIRECTION('',(-1.,0.,0.));
#789 = DIRECTION('',(0.,1.,0.));
#790 = ADVANCED_FACE('',(#791),#807,.F.);
#791 = FACE_BOUND('',#792,.F.);
#792 = EDGE_LOOP('',(#793,#794,#800,#801));
#793 = ORIENTED_EDGE('',*,*,#772,.T.);
#794 = ORIENTED_EDGE('',*,*,#795,.T.);
#795 = EDGE_CURVE('',#765,#695,#796,.T.);
#796 = LINE('',#797,#798);
#797 = CARTESIAN_POINT('',(1.52,0.25,1.5));
#798 = VECTOR('',#799,1.);
#799 = DIRECTION('',(-1.,0.,0.));
#800 = ORIENTED_EDGE('',*,*,#692,.F.);
#801 = ORIENTED_EDGE('',*,*,#802,.F.);
#802 = EDGE_CURVE('',#773,#693,#803,.T.);
#803 = LINE('',#804,#805);
#804 = CARTESIAN_POINT('',(1.52,0.25,0.));
#805 = VECTOR('',#806,1.);
#806 = DIRECTION('',(-1.,0.,0.));
#807 = PLANE('',#808);
#808 = AXIS2_PLACEMENT_3D('',#809,#810,#811);
#809 = CARTESIAN_POINT('',(1.52,0.25,0.));
#810 = DIRECTION('',(0.,-1.,0.));
#811 = DIRECTION('',(-1.,0.,0.));
#812 = ADVANCED_FACE('',(#813),#819,.F.);
#813 = FACE_BOUND('',#814,.F.);
#814 = EDGE_LOOP('',(#815,#816,#817,#818));
#815 = ORIENTED_EDGE('',*,*,#718,.T.);
#816 = ORIENTED_EDGE('',*,*,#749,.T.);
#817 = ORIENTED_EDGE('',*,*,#780,.T.);
#818 = ORIENTED_EDGE('',*,*,#802,.T.);
#819 = PLANE('',#820);
#820 = AXIS2_PLACEMENT_3D('',#821,#822,#823);
#821 = CARTESIAN_POINT('',(0.,0.,0.));
#822 = DIRECTION('',(0.,0.,1.));
#823 = DIRECTION('',(1.,0.,-0.));
#824 = ADVANCED_FACE('',(#825),#831,.T.);
#825 = FACE_BOUND('',#826,.T.);
#826 = EDGE_LOOP('',(#827,#828,#829,#830));
#827 = ORIENTED_EDGE('',*,*,#702,.T.);
#828 = ORIENTED_EDGE('',*,*,#733,.T.);
#829 = ORIENTED_EDGE('',*,*,#764,.T.);
#830 = ORIENTED_EDGE('',*,*,#795,.T.);
#831 = PLANE('',#832);
#832 = AXIS2_PLACEMENT_3D('',#833,#834,#835);
#833 = CARTESIAN_POINT('',(0.,0.,1.5));
#834 = DIRECTION('',(0.,0.,1.));
#835 = DIRECTION('',(1.,0.,-0.));
#836 = MANIFOLD_SOLID_BREP('',#837);
#837 = CLOSED_SHELL('',(#838,#878,#909,#940,#962,#974));
#838 = ADVANCED_FACE('',(#839),#873,.F.);
#839 = FACE_BOUND('',#840,.F.);
#840 = EDGE_LOOP('',(#841,#851,#859,#867));
#841 = ORIENTED_EDGE('',*,*,#842,.T.);
#842 = EDGE_CURVE('',#843,#845,#847,.T.);
#843 = VERTEX_POINT('',#844);
#844 = CARTESIAN_POINT('',(-1.52,0.25,0.));
#845 = VERTEX_POINT('',#846);
#846 = CARTESIAN_POINT('',(-1.52,0.25,1.5));
#847 = LINE('',#848,#849);
#848 = CARTESIAN_POINT('',(-1.52,0.25,0.));
#849 = VECTOR('',#850,1.);
#850 = DIRECTION('',(0.,0.,1.));
#851 = ORIENTED_EDGE('',*,*,#852,.T.);
#852 = EDGE_CURVE('',#845,#853,#855,.T.);
#853 = VERTEX_POINT('',#854);
#854 = CARTESIAN_POINT('',(-1.52,-0.25,1.5));
#855 = LINE('',#856,#857);
#856 = CARTESIAN_POINT('',(-1.52,0.25,1.5));
#857 = VECTOR('',#858,1.);
#858 = DIRECTION('',(0.,-1.,0.));
#859 = ORIENTED_EDGE('',*,*,#860,.F.);
#860 = EDGE_CURVE('',#861,#853,#863,.T.);
#861 = VERTEX_POINT('',#862);
#862 = CARTESIAN_POINT('',(-1.52,-0.25,0.));
#863 = LINE('',#864,#865);
#864 = CARTESIAN_POINT('',(-1.52,-0.25,0.));
#865 = VECTOR('',#866,1.);
#866 = DIRECTION('',(0.,0.,1.));
#867 = ORIENTED_EDGE('',*,*,#868,.F.);
#868 = EDGE_CURVE('',#843,#861,#869,.T.);
#869 = LINE('',#870,#871);
#870 = CARTESIAN_POINT('',(-1.52,0.25,0.));
#871 = VECTOR('',#872,1.);
#872 = DIRECTION('',(0.,-1.,0.));
#873 = PLANE('',#874);
#874 = AXIS2_PLACEMENT_3D('',#875,#876,#877);
#875 = CARTESIAN_POINT('',(-1.52,0.25,0.));
#876 = DIRECTION('',(1.,0.,-0.));
#877 = DIRECTION('',(0.,-1.,0.));
#878 = ADVANCED_FACE('',(#879),#904,.F.);
#879 = FACE_BOUND('',#880,.F.);
#880 = EDGE_LOOP('',(#881,#882,#890,#898));
#881 = ORIENTED_EDGE('',*,*,#860,.T.);
#882 = ORIENTED_EDGE('',*,*,#883,.T.);
#883 = EDGE_CURVE('',#853,#884,#886,.T.);
#884 = VERTEX_POINT('',#885);
#885 = CARTESIAN_POINT('',(-0.52,-0.25,1.5));
#886 = LINE('',#887,#888);
#887 = CARTESIAN_POINT('',(-1.52,-0.25,1.5));
#888 = VECTOR('',#889,1.);
#889 = DIRECTION('',(1.,0.,0.));
#890 = ORIENTED_EDGE('',*,*,#891,.F.);
#891 = EDGE_CURVE('',#892,#884,#894,.T.);
#892 = VERTEX_POINT('',#893);
#893 = CARTESIAN_POINT('',(-0.52,-0.25,0.));
#894 = LINE('',#895,#896);
#895 = CARTESIAN_POINT('',(-0.52,-0.25,0.));
#896 = VECTOR('',#897,1.);
#897 = DIRECTION('',(0.,0.,1.));
#898 = ORIENTED_EDGE('',*,*,#899,.F.);
#899 = EDGE_CURVE('',#861,#892,#900,.T.);
#900 = LINE('',#901,#902);
#901 = CARTESIAN_POINT('',(-1.52,-0.25,0.));
#902 = VECTOR('',#903,1.);
#903 = DIRECTION('',(1.,0.,0.));
#904 = PLANE('',#905);
#905 = AXIS2_PLACEMENT_3D('',#906,#907,#908);
#906 = CARTESIAN_POINT('',(-1.52,-0.25,0.));
#907 = DIRECTION('',(0.,1.,0.));
#908 = DIRECTION('',(1.,0.,0.));
#909 = ADVANCED_FACE('',(#910),#935,.F.);
#910 = FACE_BOUND('',#911,.F.);
#911 = EDGE_LOOP('',(#912,#913,#921,#929));
#912 = ORIENTED_EDGE('',*,*,#891,.T.);
#913 = ORIENTED_EDGE('',*,*,#914,.T.);
#914 = EDGE_CURVE('',#884,#915,#917,.T.);
#915 = VERTEX_POINT('',#916);
#916 = CARTESIAN_POINT('',(-0.52,0.25,1.5));
#917 = LINE('',#918,#919);
#918 = CARTESIAN_POINT('',(-0.52,-0.25,1.5));
#919 = VECTOR('',#920,1.);
#920 = DIRECTION('',(0.,1.,0.));
#921 = ORIENTED_EDGE('',*,*,#922,.F.);
#922 = EDGE_CURVE('',#923,#915,#925,.T.);
#923 = VERTEX_POINT('',#924);
#924 = CARTESIAN_POINT('',(-0.52,0.25,0.));
#925 = LINE('',#926,#927);
#926 = CARTESIAN_POINT('',(-0.52,0.25,0.));
#927 = VECTOR('',#928,1.);
#928 = DIRECTION('',(0.,0.,1.));
#929 = ORIENTED_EDGE('',*,*,#930,.F.);
#930 = EDGE_CURVE('',#892,#923,#931,.T.);
#931 = LINE('',#932,#933);
#932 = CARTESIAN_POINT('',(-0.52,-0.25,0.));
#933 = VECTOR('',#934,1.);
#934 = DIRECTION('',(0.,1.,0.));
#935 = PLANE('',#936);
#936 = AXIS2_PLACEMENT_3D('',#937,#938,#939);
#937 = CARTESIAN_POINT('',(-0.52,-0.25,0.));
#938 = DIRECTION('',(-1.,0.,0.));
#939 = DIRECTION('',(0.,1.,0.));
#940 = ADVANCED_FACE('',(#941),#957,.F.);
#941 = FACE_BOUND('',#942,.F.);
#942 = EDGE_LOOP('',(#943,#944,#950,#951));
#943 = ORIENTED_EDGE('',*,*,#922,.T.);
#944 = ORIENTED_EDGE('',*,*,#945,.T.);
#945 = EDGE_CURVE('',#915,#845,#946,.T.);
#946 = LINE('',#947,#948);
#947 = CARTESIAN_POINT('',(-0.52,0.25,1.5));
#948 = VECTOR('',#949,1.);
#949 = DIRECTION('',(-1.,0.,0.));
#950 = ORIENTED_EDGE('',*,*,#842,.F.);
#951 = ORIENTED_EDGE('',*,*,#952,.F.);
#952 = EDGE_CURVE('',#923,#843,#953,.T.);
#953 = LINE('',#954,#955);
#954 = CARTESIAN_POINT('',(-0.52,0.25,0.));
#955 = VECTOR('',#956,1.);
#956 = DIRECTION('',(-1.,0.,0.));
#957 = PLANE('',#958);
#958 = AXIS2_PLACEMENT_3D('',#959,#960,#961);
#959 = CARTESIAN_POINT('',(-0.52,0.25,0.));
#960 = DIRECTION('',(0.,-1.,0.));
#961 = DIRECTION('',(-1.,0.,0.));
#962 = ADVANCED_FACE('',(#963),#969,.F.);
#963 = FACE_BOUND('',#964,.F.);
#964 = EDGE_LOOP('',(#965,#966,#967,#968));
#965 = ORIENTED_EDGE('',*,*,#868,.T.);
#966 = ORIENTED_EDGE('',*,*,#899,.T.);
#967 = ORIENTED_EDGE('',*,*,#930,.T.);
#968 = ORIENTED_EDGE('',*,*,#952,.T.);
#969 = PLANE('',#970);
#970 = AXIS2_PLACEMENT_3D('',#971,#972,#973);
#971 = CARTESIAN_POINT('',(0.,0.,0.));
#972 = DIRECTION('',(0.,0.,1.));
#973 = DIRECTION('',(1.,0.,-0.));
#974 = ADVANCED_FACE('',(#975),#981,.T.);
#975 = FACE_BOUND('',#976,.T.);
#976 = EDGE_LOOP('',(#977,#978,#979,#980));
#977 = ORIENTED_EDGE('',*,*,#852,.T.);
#978 = ORIENTED_EDGE('',*,*,#883,.T.);
#979 = ORIENTED_EDGE('',*,*,#914,.T.);
#980 = ORIENTED_EDGE('',*,*,#945,.T.);
#981 = PLANE('',#982);
#982 = AXIS2_PLACEMENT_3D('',#983,#984,#985);
#983 = CARTESIAN_POINT('',(0.,0.,1.5));
#984 = DIRECTION('',(0.,0.,1.));
#985 = DIRECTION('',(1.,0.,-0.));
#986 = ( GEOMETRIC_REPRESENTATION_CONTEXT(3) 
GLOBAL_UNCERTAINTY_ASSIGNED_CONTEXT((#990)) GLOBAL_UNIT_ASSIGNED_CONTEXT
((#987,#988,#989)) REPRESENTATION_CONTEXT('Context #1',
  '3D Context with UNIT and UNCERTAINTY') );
#987 = ( LENGTH_UNIT() NAMED_UNIT(*) SI_UNIT(.MILLI.,.METRE.) );
#988 = ( NAMED_UNIT(*) PLANE_ANGLE_UNIT() SI_UNIT($,.RADIAN.) );
#989 = ( NAMED_UNIT(*) SI_UNIT($,.STERADIAN.) SOLID_ANGLE_UNIT() );
#990 = UNCERTAINTY_MEASURE_WITH_UNIT(LENGTH_MEASURE(1.E-07),#987,
  'distance_accuracy_value','confusion accuracy');
#991 = CONTEXT_DEPENDENT_SHAPE_REPRESENTATION(#992,#994);
#992 = ( REPRESENTATION_RELATIONSHIP('','',#685,#316) 
REPRESENTATION_RELATIONSHIP_WITH_TRANSFORMATION(#993) 
SHAPE_REPRESENTATION_RELATIONSHIP() );
#993 = ITEM_DEFINED_TRANSFORMATION('','',#11,#325);
#994 = PRODUCT_DEFINITION_SHAPE('Placement','Placement of an item',#995
  );
#995 = NEXT_ASSEMBLY_USAGE_OCCURRENCE('13','StandOff','',#311,#680,$);
#996 = PRODUCT_RELATED_PRODUCT_CATEGORY('part',$,(#682));
#997 = MECHANICAL_DESIGN_GEOMETRIC_PRESENTATION_REPRESENTATION('',(#998,
    #1009),#986);
#998 = STYLED_ITEM('color',(#999),#686);
#999 = PRESENTATION_STYLE_ASSIGNMENT((#1000,#1006));
#1000 = SURFACE_STYLE_USAGE(.BOTH.,#1001);
#1001 = SURFACE_SIDE_STYLE('',(#1002));
#1002 = SURFACE_STYLE_FILL_AREA(#1003);
#1003 = FILL_AREA_STYLE('',(#1004));
#1004 = FILL_AREA_STYLE_COLOUR('',#1005);
#1005 = COLOUR_RGB('',0.800000010877,0.800000010877,0.901960800373);
#1006 = CURVE_STYLE('',#1007,POSITIVE_LENGTH_MEASURE(0.1),#1008);
#1007 = DRAUGHTING_PRE_DEFINED_CURVE_FONT('continuous');
#1008 = DRAUGHTING_PRE_DEFINED_COLOUR('black');
#1009 = STYLED_ITEM('color',(#1010),#836);
#1010 = PRESENTATION_STYLE_ASSIGNMENT((#1011,#1016));
#1011 = SURFACE_STYLE_USAGE(.BOTH.,#1012);
#1012 = SURFACE_SIDE_STYLE('',(#1013));
#1013 = SURFACE_STYLE_FILL_AREA(#1014);
#1014 = FILL_AREA_STYLE('',(#1015));
#1015 = FILL_AREA_STYLE_COLOUR('',#1005);
#1016 = CURVE_STYLE('',#1017,POSITIVE_LENGTH_MEASURE(0.1),#1008);
#1017 = DRAUGHTING_PRE_DEFINED_CURVE_FONT('continuous');
#1018 = MECHANICAL_DESIGN_GEOMETRIC_PRESENTATION_REPRESENTATION('',(
    #1019),#127);
#1019 = STYLED_ITEM('color',(#1020),#64);
#1020 = PRESENTATION_STYLE_ASSIGNMENT((#1021,#1027));
#1021 = SURFACE_STYLE_USAGE(.BOTH.,#1022);
#1022 = SURFACE_SIDE_STYLE('',(#1023));
#1023 = SURFACE_STYLE_FILL_AREA(#1024);
#1024 = FILL_AREA_STYLE('',(#1025));
#1025 = FILL_AREA_STYLE_COLOUR('',#1026);
#1026 = DRAUGHTING_PRE_DEFINED_COLOUR('blue');
#1027 = CURVE_STYLE('',#1028,POSITIVE_LENGTH_MEASURE(0.1),#1029);
#1028 = DRAUGHTING_PRE_DEFINED_CURVE_FONT('continuous');
#1029 = COLOUR_RGB('',9.803921802644E-02,9.803921802644E-02,
  9.803921802644E-02);
#1030 = MECHANICAL_DESIGN_GEOMETRIC_PRESENTATION_REPRESENTATION('',(
    #1031),#667);
#1031 = STYLED_ITEM('color',(#1032),#517);
#1032 = PRESENTATION_STYLE_ASSIGNMENT((#1033,#1038));
#1033 = SURFACE_STYLE_USAGE(.BOTH.,#1034);
#1034 = SURFACE_SIDE_STYLE('',(#1035));
#1035 = SURFACE_STYLE_FILL_AREA(#1036);
#1036 = FILL_AREA_STYLE('',(#1037));
#1037 = FILL_AREA_STYLE_COLOUR('',#1005);
#1038 = CURVE_STYLE('',#1039,POSITIVE_LENGTH_MEASURE(0.1),#1029);
#1039 = DRAUGHTING_PRE_DEFINED_CURVE_FONT('continuous');
#1040 = MECHANICAL_DESIGN_GEOMETRIC_PRESENTATION_REPRESENTATION('',(
    #1041),#298);
#1041 = STYLED_ITEM('color',(#1042),#146);
#1042 = PRESENTATION_STYLE_ASSIGNMENT((#1043,#1048));
#1043 = SURFACE_STYLE_USAGE(.BOTH.,#1044);
#1044 = SURFACE_SIDE_STYLE('',(#1045));
#1045 = SURFACE_STYLE_FILL_AREA(#1046);
#1046 = FILL_AREA_STYLE('',(#1047));
#1047 = FILL_AREA_STYLE_COLOUR('',#1026);
#1048 = CURVE_STYLE('',#1049,POSITIVE_LENGTH_MEASURE(0.1),#1029);
#1049 = DRAUGHTING_PRE_DEFINED_CURVE_FONT('continuous');
#1050 = MECHANICAL_DESIGN_GEOMETRIC_PRESENTATION_REPRESENTATION('',(
    #1051),#498);
#1051 = STYLED_ITEM('color',(#1052),#348);
#1052 = PRESENTATION_STYLE_ASSIGNMENT((#1053,#1058));
#1053 = SURFACE_STYLE_USAGE(.BOTH.,#1054);
#1054 = SURFACE_SIDE_STYLE('',(#1055));
#1055 = SURFACE_STYLE_FILL_AREA(#1056);
#1056 = FILL_AREA_STYLE('',(#1057));
#1057 = FILL_AREA_STYLE_COLOUR('',#1005);
#1058 = CURVE_STYLE('',#1059,POSITIVE_LENGTH_MEASURE(0.1),#1029);
#1059 = DRAUGHTING_PRE_DEFINED_CURVE_FONT('continuous');
ENDSEC;
END-ISO-10303-21;
