ISO-10303-21;
HEADER;
FILE_DESCRIPTION(('FreeCAD Model'),'2;1');
FILE_NAME('Open CASCADE Shape Model','2026-07-06T13:29:46',(''),(''),
  'Open CASCADE STEP processor 7.8','FreeCAD','Unknown');
FILE_SCHEMA(('AUTOMOTIVE_DESIGN { 1 0 10303 214 1 1 1 1 }'));
ENDSEC;
DATA;
#1 = APPLICATION_PROTOCOL_DEFINITION('international standard',
  'automotive_design',2000,#2);
#2 = APPLICATION_CONTEXT(
  'core data for automotive mechanical design processes');
#3 = SHAPE_DEFINITION_REPRESENTATION(#4,#10);
#4 = PRODUCT_DEFINITION_SHAPE('','',#5);
#5 = PRODUCT_DEFINITION('design','',#6,#9);
#6 = PRODUCT_DEFINITION_FORMATION('','',#7);
#7 = PRODUCT('Part','Part','',(#8));
#8 = PRODUCT_CONTEXT('',#2,'mechanical');
#9 = PRODUCT_DEFINITION_CONTEXT('part definition',#2,'design');
#10 = SHAPE_REPRESENTATION('',(#11,#15,#19,#23,#27,#31,#35,#39,#43),#47
  );
#11 = AXIS2_PLACEMENT_3D('',#12,#13,#14);
#12 = CARTESIAN_POINT('',(0.,0.,0.));
#13 = DIRECTION('',(0.,0.,1.));
#14 = DIRECTION('',(1.,0.,-0.));
#15 = AXIS2_PLACEMENT_3D('',#16,#17,#18);
#16 = CARTESIAN_POINT('',(0.,0.,0.));
#17 = DIRECTION('',(0.,0.,1.));
#18 = DIRECTION('',(1.,0.,0.));
#19 = AXIS2_PLACEMENT_3D('',#20,#21,#22);
#20 = CARTESIAN_POINT('',(0.,2.54,0.));
#21 = DIRECTION('',(0.,0.,1.));
#22 = DIRECTION('',(1.,0.,0.));
#23 = AXIS2_PLACEMENT_3D('',#24,#25,#26);
#24 = CARTESIAN_POINT('',(0.,2.54,0.));
#25 = DIRECTION('',(0.,0.,1.));
#26 = DIRECTION('',(1.,0.,0.));
#27 = AXIS2_PLACEMENT_3D('',#28,#29,#30);
#28 = CARTESIAN_POINT('',(0.,2.54,0.));
#29 = DIRECTION('',(0.,0.,1.));
#30 = DIRECTION('',(1.,0.,0.));
#31 = AXIS2_PLACEMENT_3D('',#32,#33,#34);
#32 = CARTESIAN_POINT('',(0.,2.54,0.));
#33 = DIRECTION('',(0.,0.,1.));
#34 = DIRECTION('',(1.,0.,0.));
#35 = AXIS2_PLACEMENT_3D('',#36,#37,#38);
#36 = CARTESIAN_POINT('',(0.,2.54,0.));
#37 = DIRECTION('',(0.,0.,1.));
#38 = DIRECTION('',(1.,0.,0.));
#39 = AXIS2_PLACEMENT_3D('',#40,#41,#42);
#40 = CARTESIAN_POINT('',(0.,2.54,0.));
#41 = DIRECTION('',(0.,0.,1.));
#42 = DIRECTION('',(1.,0.,0.));
#43 = AXIS2_PLACEMENT_3D('',#44,#45,#46);
#44 = CARTESIAN_POINT('',(0.,2.54,0.));
#45 = DIRECTION('',(0.,0.,1.));
#46 = DIRECTION('',(1.,0.,0.));
#47 = ( GEOMETRIC_REPRESENTATION_CONTEXT(3) 
GLOBAL_UNCERTAINTY_ASSIGNED_CONTEXT((#51)) GLOBAL_UNIT_ASSIGNED_CONTEXT(
(#48,#49,#50)) REPRESENTATION_CONTEXT('Context #1',
  '3D Context with UNIT and UNCERTAINTY') );
#48 = ( LENGTH_UNIT() NAMED_UNIT(*) SI_UNIT(.MILLI.,.METRE.) );
#49 = ( NAMED_UNIT(*) PLANE_ANGLE_UNIT() SI_UNIT($,.RADIAN.) );
#50 = ( NAMED_UNIT(*) SI_UNIT($,.STERADIAN.) SOLID_ANGLE_UNIT() );
#51 = UNCERTAINTY_MEASURE_WITH_UNIT(LENGTH_MEASURE(1.E-07),#48,
  'distance_accuracy_value','confusion accuracy');
#52 = PRODUCT_RELATED_PRODUCT_CATEGORY('part',$,(#7));
#53 = SHAPE_DEFINITION_REPRESENTATION(#54,#60);
#54 = PRODUCT_DEFINITION_SHAPE('','',#55);
#55 = PRODUCT_DEFINITION('design','',#56,#59);
#56 = PRODUCT_DEFINITION_FORMATION('','',#57);
#57 = PRODUCT('Header','Header','',(#58));
#58 = PRODUCT_CONTEXT('',#2,'mechanical');
#59 = PRODUCT_DEFINITION_CONTEXT('part definition',#2,'design');
#60 = SHAPE_REPRESENTATION('',(#11,#61,#65,#69),#73);
#61 = AXIS2_PLACEMENT_3D('',#62,#63,#64);
#62 = CARTESIAN_POINT('',(0.,0.,0.));
#63 = DIRECTION('',(0.,0.,1.));
#64 = DIRECTION('',(1.,0.,0.));
#65 = AXIS2_PLACEMENT_3D('',#66,#67,#68);
#66 = CARTESIAN_POINT('',(0.,0.,0.));
#67 = DIRECTION('',(0.,0.,1.));
#68 = DIRECTION('',(-1.,0.,0.));
#69 = AXIS2_PLACEMENT_3D('',#70,#71,#72);
#70 = CARTESIAN_POINT('',(0.,0.,0.));
#71 = DIRECTION('',(0.,0.,1.));
#72 = DIRECTION('',(1.,0.,0.));
#73 = ( GEOMETRIC_REPRESENTATION_CONTEXT(3) 
GLOBAL_UNCERTAINTY_ASSIGNED_CONTEXT((#77)) GLOBAL_UNIT_ASSIGNED_CONTEXT(
(#74,#75,#76)) REPRESENTATION_CONTEXT('Context #1',
  '3D Context with UNIT and UNCERTAINTY') );
#74 = ( LENGTH_UNIT() NAMED_UNIT(*) SI_UNIT(.MILLI.,.METRE.) );
#75 = ( NAMED_UNIT(*) PLANE_ANGLE_UNIT() SI_UNIT($,.RADIAN.) );
#76 = ( NAMED_UNIT(*) SI_UNIT($,.STERADIAN.) SOLID_ANGLE_UNIT() );
#77 = UNCERTAINTY_MEASURE_WITH_UNIT(LENGTH_MEASURE(1.E-07),#74,
  'distance_accuracy_value','confusion accuracy');
#78 = CONTEXT_DEPENDENT_SHAPE_REPRESENTATION(#79,#81);
#79 = ( REPRESENTATION_RELATIONSHIP('','',#60,#10) 
REPRESENTATION_RELATIONSHIP_WITH_TRANSFORMATION(#80) 
SHAPE_REPRESENTATION_RELATIONSHIP() );
#80 = ITEM_DEFINED_TRANSFORMATION('','',#11,#15);
#81 = PRODUCT_DEFINITION_SHAPE('Placement','Placement of an item',#82);
#82 = NEXT_ASSEMBLY_USAGE_OCCURRENCE('46','Header','',#5,#55,$);
#83 = PRODUCT_RELATED_PRODUCT_CATEGORY('part',$,(#57));
#84 = SHAPE_DEFINITION_REPRESENTATION(#85,#91);
#85 = PRODUCT_DEFINITION_SHAPE('','',#86);
#86 = PRODUCT_DEFINITION('design','',#87,#90);
#87 = PRODUCT_DEFINITION_FORMATION('','',#88);
#88 = PRODUCT('Body-Pin_Lower-Origin','Body-Pin_Lower-Origin','',(#89));
#89 = PRODUCT_CONTEXT('',#2,'mechanical');
#90 = PRODUCT_DEFINITION_CONTEXT('part definition',#2,'design');
#91 = ADVANCED_BREP_SHAPE_REPRESENTATION('',(#11,#92),#535);
#92 = MANIFOLD_SOLID_BREP('',#93);
#93 = CLOSED_SHELL('',(#94,#134,#165,#189,#213,#230,#261,#310,#359,#376,
    #393,#410,#441,#458,#489,#506,#523));
#94 = ADVANCED_FACE('',(#95),#129,.F.);
#95 = FACE_BOUND('',#96,.F.);
#96 = EDGE_LOOP('',(#97,#107,#115,#123));
#97 = ORIENTED_EDGE('',*,*,#98,.T.);
#98 = EDGE_CURVE('',#99,#101,#103,.T.);
#99 = VERTEX_POINT('',#100);
#100 = CARTESIAN_POINT('',(1.05,-0.22,9.2));
#101 = VERTEX_POINT('',#102);
#102 = CARTESIAN_POINT('',(1.05,0.22,9.2));
#103 = LINE('',#104,#105);
#104 = CARTESIAN_POINT('',(1.05,-0.32,9.2));
#105 = VECTOR('',#106,1.);
#106 = DIRECTION('',(1.4E-16,1.,-4.2E-16));
#107 = ORIENTED_EDGE('',*,*,#108,.T.);
#108 = EDGE_CURVE('',#101,#109,#111,.T.);
#109 = VERTEX_POINT('',#110);
#110 = CARTESIAN_POINT('',(1.49,0.22,9.2));
#111 = LINE('',#112,#113);
#112 = CARTESIAN_POINT('',(0.95,0.22,9.2));
#113 = VECTOR('',#114,1.);
#114 = DIRECTION('',(1.,-1.4E-16,-1.6E-16));
#115 = ORIENTED_EDGE('',*,*,#116,.T.);
#116 = EDGE_CURVE('',#109,#117,#119,.T.);
#117 = VERTEX_POINT('',#118);
#118 = CARTESIAN_POINT('',(1.49,-0.22,9.2));
#119 = LINE('',#120,#121);
#120 = CARTESIAN_POINT('',(1.49,0.32,9.2));
#121 = VECTOR('',#122,1.);
#122 = DIRECTION('',(-1.4E-16,-1.,4.2E-16));
#123 = ORIENTED_EDGE('',*,*,#124,.T.);
#124 = EDGE_CURVE('',#117,#99,#125,.T.);
#125 = LINE('',#126,#127);
#126 = CARTESIAN_POINT('',(1.59,-0.22,9.2));
#127 = VECTOR('',#128,1.);
#128 = DIRECTION('',(-1.,1.4E-16,1.6E-16));
#129 = PLANE('',#130);
#130 = AXIS2_PLACEMENT_3D('',#131,#132,#133);
#131 = CARTESIAN_POINT('',(1.27,3.07E-15,9.2));
#132 = DIRECTION('',(-0.,-2.2E-16,-1.));
#133 = DIRECTION('',(0.,1.,-2.2E-16));
#134 = ADVANCED_FACE('',(#135),#160,.F.);
#135 = FACE_BOUND('',#136,.T.);
#136 = EDGE_LOOP('',(#137,#145,#146,#154));
#137 = ORIENTED_EDGE('',*,*,#138,.F.);
#138 = EDGE_CURVE('',#99,#139,#141,.T.);
#139 = VERTEX_POINT('',#140);
#140 = CARTESIAN_POINT('',(0.95,-0.32,9.1));
#141 = LINE('',#142,#143);
#142 = CARTESIAN_POINT('',(1.09,-0.18,9.24));
#143 = VECTOR('',#144,1.);
#144 = DIRECTION('',(-0.57735026919,-0.57735026919,-0.57735026919));
#145 = ORIENTED_EDGE('',*,*,#98,.T.);
#146 = ORIENTED_EDGE('',*,*,#147,.T.);
#147 = EDGE_CURVE('',#101,#148,#150,.T.);
#148 = VERTEX_POINT('',#149);
#149 = CARTESIAN_POINT('',(0.95,0.32,9.1));
#150 = LINE('',#151,#152);
#151 = CARTESIAN_POINT('',(1.09,0.18,9.24));
#152 = VECTOR('',#153,1.);
#153 = DIRECTION('',(-0.57735026919,0.57735026919,-0.57735026919));
#154 = ORIENTED_EDGE('',*,*,#155,.F.);
#155 = EDGE_CURVE('',#139,#148,#156,.T.);
#156 = LINE('',#157,#158);
#157 = CARTESIAN_POINT('',(0.95,-0.32,9.1));
#158 = VECTOR('',#159,1.);
#159 = DIRECTION('',(1.4E-16,1.,-4.2E-16));
#160 = PLANE('',#161);
#161 = AXIS2_PLACEMENT_3D('',#162,#163,#164);
#162 = CARTESIAN_POINT('',(1.,-0.32,9.15));
#163 = DIRECTION('',(0.707106781187,-2.5E-16,-0.707106781187));
#164 = DIRECTION('',(-3.677669529664E-17,-1.,3.167766952966E-16));
#165 = ADVANCED_FACE('',(#166),#184,.F.);
#166 = FACE_BOUND('',#167,.T.);
#167 = EDGE_LOOP('',(#168,#176,#177,#178));
#168 = ORIENTED_EDGE('',*,*,#169,.F.);
#169 = EDGE_CURVE('',#117,#170,#172,.T.);
#170 = VERTEX_POINT('',#171);
#171 = CARTESIAN_POINT('',(1.59,-0.32,9.1));
#172 = LINE('',#173,#174);
#173 = CARTESIAN_POINT('',(1.45,-0.18,9.24));
#174 = VECTOR('',#175,1.);
#175 = DIRECTION('',(0.57735026919,-0.57735026919,-0.57735026919));
#176 = ORIENTED_EDGE('',*,*,#124,.T.);
#177 = ORIENTED_EDGE('',*,*,#138,.T.);
#178 = ORIENTED_EDGE('',*,*,#179,.F.);
#179 = EDGE_CURVE('',#170,#139,#180,.T.);
#180 = LINE('',#181,#182);
#181 = CARTESIAN_POINT('',(1.59,-0.32,9.1));
#182 = VECTOR('',#183,1.);
#183 = DIRECTION('',(-1.,1.4E-16,1.6E-16));
#184 = PLANE('',#185);
#185 = AXIS2_PLACEMENT_3D('',#186,#187,#188);
#186 = CARTESIAN_POINT('',(1.59,-0.27,9.15));
#187 = DIRECTION('',(0.,0.707106781187,-0.707106781187));
#188 = DIRECTION('',(1.,-1.5E-16,-1.5E-16));
#189 = ADVANCED_FACE('',(#190),#208,.F.);
#190 = FACE_BOUND('',#191,.T.);
#191 = EDGE_LOOP('',(#192,#193,#194,#202));
#192 = ORIENTED_EDGE('',*,*,#147,.F.);
#193 = ORIENTED_EDGE('',*,*,#108,.T.);
#194 = ORIENTED_EDGE('',*,*,#195,.T.);
#195 = EDGE_CURVE('',#109,#196,#198,.T.);
#196 = VERTEX_POINT('',#197);
#197 = CARTESIAN_POINT('',(1.59,0.32,9.1));
#198 = LINE('',#199,#200);
#199 = CARTESIAN_POINT('',(1.45,0.18,9.24));
#200 = VECTOR('',#201,1.);
#201 = DIRECTION('',(0.57735026919,0.57735026919,-0.57735026919));
#202 = ORIENTED_EDGE('',*,*,#203,.F.);
#203 = EDGE_CURVE('',#148,#196,#204,.T.);
#204 = LINE('',#205,#206);
#205 = CARTESIAN_POINT('',(0.95,0.32,9.1));
#206 = VECTOR('',#207,1.);
#207 = DIRECTION('',(1.,-1.4E-16,-1.6E-16));
#208 = PLANE('',#209);
#209 = AXIS2_PLACEMENT_3D('',#210,#211,#212);
#210 = CARTESIAN_POINT('',(0.95,0.27,9.15));
#211 = DIRECTION('',(0.,-0.707106781187,-0.707106781187));
#212 = DIRECTION('',(-1.,-1.E-17,1.E-17));
#213 = ADVANCED_FACE('',(#214),#225,.F.);
#214 = FACE_BOUND('',#215,.T.);
#215 = EDGE_LOOP('',(#216,#217,#218,#219));
#216 = ORIENTED_EDGE('',*,*,#195,.F.);
#217 = ORIENTED_EDGE('',*,*,#116,.T.);
#218 = ORIENTED_EDGE('',*,*,#169,.T.);
#219 = ORIENTED_EDGE('',*,*,#220,.F.);
#220 = EDGE_CURVE('',#196,#170,#221,.T.);
#221 = LINE('',#222,#223);
#222 = CARTESIAN_POINT('',(1.59,0.32,9.1));
#223 = VECTOR('',#224,1.);
#224 = DIRECTION('',(-1.4E-16,-1.,4.2E-16));
#225 = PLANE('',#226);
#226 = AXIS2_PLACEMENT_3D('',#227,#228,#229);
#227 = CARTESIAN_POINT('',(1.54,0.32,9.15));
#228 = DIRECTION('',(-0.707106781187,-6.E-17,-0.707106781187));
#229 = DIRECTION('',(2.325735931288E-16,1.,-3.174264068712E-16));
#230 = ADVANCED_FACE('',(#231),#256,.T.);
#231 = FACE_BOUND('',#232,.T.);
#232 = EDGE_LOOP('',(#233,#241,#242,#250));
#233 = ORIENTED_EDGE('',*,*,#234,.F.);
#234 = EDGE_CURVE('',#139,#235,#237,.T.);
#235 = VERTEX_POINT('',#236);
#236 = CARTESIAN_POINT('',(0.95,-0.32,0.64));
#237 = LINE('',#238,#239);
#238 = CARTESIAN_POINT('',(0.95,-0.32,9.2));
#239 = VECTOR('',#240,1.);
#240 = DIRECTION('',(-0.,-4.2E-16,-1.));
#241 = ORIENTED_EDGE('',*,*,#155,.T.);
#242 = ORIENTED_EDGE('',*,*,#243,.T.);
#243 = EDGE_CURVE('',#148,#244,#246,.T.);
#244 = VERTEX_POINT('',#245);
#245 = CARTESIAN_POINT('',(0.95,0.32,0.64));
#246 = LINE('',#247,#248);
#247 = CARTESIAN_POINT('',(0.95,0.32,9.2));
#248 = VECTOR('',#249,1.);
#249 = DIRECTION('',(-0.,-4.2E-16,-1.));
#250 = ORIENTED_EDGE('',*,*,#251,.F.);
#251 = EDGE_CURVE('',#235,#244,#252,.T.);
#252 = LINE('',#253,#254);
#253 = CARTESIAN_POINT('',(0.95,-0.32,0.64));
#254 = VECTOR('',#255,1.);
#255 = DIRECTION('',(1.4E-16,1.,-4.2E-16));
#256 = PLANE('',#257);
#257 = AXIS2_PLACEMENT_3D('',#258,#259,#260);
#258 = CARTESIAN_POINT('',(0.95,-0.32,9.2));
#259 = DIRECTION('',(-1.,1.4E-16,0.));
#260 = DIRECTION('',(1.4E-16,1.,-4.2E-16));
#261 = ADVANCED_FACE('',(#262),#305,.T.);
#262 = FACE_BOUND('',#263,.T.);
#263 = EDGE_LOOP('',(#264,#272,#273,#274,#283,#291,#299));
#264 = ORIENTED_EDGE('',*,*,#265,.F.);
#265 = EDGE_CURVE('',#170,#266,#268,.T.);
#266 = VERTEX_POINT('',#267);
#267 = CARTESIAN_POINT('',(1.59,-0.32,0.64));
#268 = LINE('',#269,#270);
#269 = CARTESIAN_POINT('',(1.59,-0.32,9.2));
#270 = VECTOR('',#271,1.);
#271 = DIRECTION('',(-0.,-4.2E-16,-1.));
#272 = ORIENTED_EDGE('',*,*,#179,.T.);
#273 = ORIENTED_EDGE('',*,*,#234,.T.);
#274 = ORIENTED_EDGE('',*,*,#275,.T.);
#275 = EDGE_CURVE('',#235,#276,#278,.T.);
#276 = VERTEX_POINT('',#277);
#277 = CARTESIAN_POINT('',(1.59,-0.32,0.));
#278 = CIRCLE('',#279,0.64);
#279 = AXIS2_PLACEMENT_3D('',#280,#281,#282);
#280 = CARTESIAN_POINT('',(1.59,-0.32,0.64));
#281 = DIRECTION('',(0.,-1.,3.3E-16));
#282 = DIRECTION('',(1.,5.61E-32,1.7E-16));
#283 = ORIENTED_EDGE('',*,*,#284,.T.);
#284 = EDGE_CURVE('',#276,#285,#287,.T.);
#285 = VERTEX_POINT('',#286);
#286 = CARTESIAN_POINT('',(3.65,-0.32,0.));
#287 = LINE('',#288,#289);
#288 = CARTESIAN_POINT('',(1.59,-0.32,7.E-17));
#289 = VECTOR('',#290,1.);
#290 = DIRECTION('',(1.,-9.E-17,0.));
#291 = ORIENTED_EDGE('',*,*,#292,.F.);
#292 = EDGE_CURVE('',#293,#285,#295,.T.);
#293 = VERTEX_POINT('',#294);
#294 = CARTESIAN_POINT('',(3.65,-0.32,0.64));
#295 = LINE('',#296,#297);
#296 = CARTESIAN_POINT('',(3.65,-0.32,0.64));
#297 = VECTOR('',#298,1.);
#298 = DIRECTION('',(-2.2E-16,-2.E-16,-1.));
#299 = ORIENTED_EDGE('',*,*,#300,.F.);
#300 = EDGE_CURVE('',#266,#293,#301,.T.);
#301 = LINE('',#302,#303);
#302 = CARTESIAN_POINT('',(1.59,-0.32,0.64));
#303 = VECTOR('',#304,1.);
#304 = DIRECTION('',(1.,-9.E-17,0.));
#305 = PLANE('',#306);
#306 = AXIS2_PLACEMENT_3D('',#307,#308,#309);
#307 = CARTESIAN_POINT('',(1.588699359287,-0.32,3.877311014057));
#308 = DIRECTION('',(0.,-1.,2.2E-16));
#309 = DIRECTION('',(1.,0.,0.));
#310 = ADVANCED_FACE('',(#311),#354,.T.);
#311 = FACE_BOUND('',#312,.T.);
#312 = EDGE_LOOP('',(#313,#314,#315,#323,#331,#339,#347));
#313 = ORIENTED_EDGE('',*,*,#243,.F.);
#314 = ORIENTED_EDGE('',*,*,#203,.T.);
#315 = ORIENTED_EDGE('',*,*,#316,.T.);
#316 = EDGE_CURVE('',#196,#317,#319,.T.);
#317 = VERTEX_POINT('',#318);
#318 = CARTESIAN_POINT('',(1.59,0.32,0.64));
#319 = LINE('',#320,#321);
#320 = CARTESIAN_POINT('',(1.59,0.32,9.2));
#321 = VECTOR('',#322,1.);
#322 = DIRECTION('',(-1.6E-16,-3.3E-16,-1.));
#323 = ORIENTED_EDGE('',*,*,#324,.T.);
#324 = EDGE_CURVE('',#317,#325,#327,.T.);
#325 = VERTEX_POINT('',#326);
#326 = CARTESIAN_POINT('',(3.65,0.32,0.64));
#327 = LINE('',#328,#329);
#328 = CARTESIAN_POINT('',(1.59,0.32,0.64));
#329 = VECTOR('',#330,1.);
#330 = DIRECTION('',(1.,0.,-2.2E-16));
#331 = ORIENTED_EDGE('',*,*,#332,.F.);
#332 = EDGE_CURVE('',#333,#325,#335,.T.);
#333 = VERTEX_POINT('',#334);
#334 = CARTESIAN_POINT('',(3.65,0.32,0.));
#335 = LINE('',#336,#337);
#336 = CARTESIAN_POINT('',(3.65,0.32,-5.E-17));
#337 = VECTOR('',#338,1.);
#338 = DIRECTION('',(2.2E-16,2.E-16,1.));
#339 = ORIENTED_EDGE('',*,*,#340,.F.);
#340 = EDGE_CURVE('',#341,#333,#343,.T.);
#341 = VERTEX_POINT('',#342);
#342 = CARTESIAN_POINT('',(1.59,0.32,0.));
#343 = LINE('',#344,#345);
#344 = CARTESIAN_POINT('',(1.59,0.32,-6.E-17));
#345 = VECTOR('',#346,1.);
#346 = DIRECTION('',(1.,-9.E-17,0.));
#347 = ORIENTED_EDGE('',*,*,#348,.F.);
#348 = EDGE_CURVE('',#244,#341,#349,.T.);
#349 = CIRCLE('',#350,0.64);
#350 = AXIS2_PLACEMENT_3D('',#351,#352,#353);
#351 = CARTESIAN_POINT('',(1.59,0.32,0.64));
#352 = DIRECTION('',(0.,-1.,3.3E-16));
#353 = DIRECTION('',(1.,5.61E-32,1.7E-16));
#354 = PLANE('',#355);
#355 = AXIS2_PLACEMENT_3D('',#356,#357,#358);
#356 = CARTESIAN_POINT('',(1.588699359287,0.32,3.877311014057));
#357 = DIRECTION('',(0.,1.,-2.2E-16));
#358 = DIRECTION('',(-1.,0.,0.));
#359 = ADVANCED_FACE('',(#360),#371,.T.);
#360 = FACE_BOUND('',#361,.T.);
#361 = EDGE_LOOP('',(#362,#363,#364,#365));
#362 = ORIENTED_EDGE('',*,*,#316,.F.);
#363 = ORIENTED_EDGE('',*,*,#220,.T.);
#364 = ORIENTED_EDGE('',*,*,#265,.T.);
#365 = ORIENTED_EDGE('',*,*,#366,.F.);
#366 = EDGE_CURVE('',#317,#266,#367,.T.);
#367 = LINE('',#368,#369);
#368 = CARTESIAN_POINT('',(1.59,0.32,0.64));
#369 = VECTOR('',#370,1.);
#370 = DIRECTION('',(-1.4E-16,-1.,4.2E-16));
#371 = PLANE('',#372);
#372 = AXIS2_PLACEMENT_3D('',#373,#374,#375);
#373 = CARTESIAN_POINT('',(1.59,0.32,9.2));
#374 = DIRECTION('',(1.,-1.4E-16,0.));
#375 = DIRECTION('',(-1.4E-16,-1.,4.2E-16));
#376 = ADVANCED_FACE('',(#377),#388,.T.);
#377 = FACE_BOUND('',#378,.F.);
#378 = EDGE_LOOP('',(#379,#380,#386,#387));
#379 = ORIENTED_EDGE('',*,*,#275,.T.);
#380 = ORIENTED_EDGE('',*,*,#381,.T.);
#381 = EDGE_CURVE('',#276,#341,#382,.T.);
#382 = LINE('',#383,#384);
#383 = CARTESIAN_POINT('',(1.59,-0.32,-2.6E-16));
#384 = VECTOR('',#385,1.);
#385 = DIRECTION('',(0.,1.,-3.3E-16));
#386 = ORIENTED_EDGE('',*,*,#348,.F.);
#387 = ORIENTED_EDGE('',*,*,#251,.F.);
#388 = CYLINDRICAL_SURFACE('',#389,0.64);
#389 = AXIS2_PLACEMENT_3D('',#390,#391,#392);
#390 = CARTESIAN_POINT('',(1.59,-0.32,0.64));
#391 = DIRECTION('',(0.,1.,-3.3E-16));
#392 = DIRECTION('',(1.,5.61E-32,1.7E-16));
#393 = ADVANCED_FACE('',(#394),#405,.T.);
#394 = FACE_BOUND('',#395,.T.);
#395 = EDGE_LOOP('',(#396,#397,#398,#399));
#396 = ORIENTED_EDGE('',*,*,#324,.F.);
#397 = ORIENTED_EDGE('',*,*,#366,.T.);
#398 = ORIENTED_EDGE('',*,*,#300,.T.);
#399 = ORIENTED_EDGE('',*,*,#400,.F.);
#400 = EDGE_CURVE('',#325,#293,#401,.T.);
#401 = LINE('',#402,#403);
#402 = CARTESIAN_POINT('',(3.65,0.32,0.64));
#403 = VECTOR('',#404,1.);
#404 = DIRECTION('',(-9.E-17,-1.,2.E-16));
#405 = PLANE('',#406);
#406 = AXIS2_PLACEMENT_3D('',#407,#408,#409);
#407 = CARTESIAN_POINT('',(1.59,0.32,0.64));
#408 = DIRECTION('',(0.,2.E-16,1.));
#409 = DIRECTION('',(-9.E-17,-1.,2.E-16));
#410 = ADVANCED_FACE('',(#411),#436,.T.);
#411 = FACE_BOUND('',#412,.F.);
#412 = EDGE_LOOP('',(#413,#421,#429,#435));
#413 = ORIENTED_EDGE('',*,*,#414,.F.);
#414 = EDGE_CURVE('',#415,#293,#417,.T.);
#415 = VERTEX_POINT('',#416);
#416 = CARTESIAN_POINT('',(3.75,-0.22,0.54));
#417 = LINE('',#418,#419);
#418 = CARTESIAN_POINT('',(3.79,-0.18,0.5));
#419 = VECTOR('',#420,1.);
#420 = DIRECTION('',(-0.57735026919,-0.57735026919,0.57735026919));
#421 = ORIENTED_EDGE('',*,*,#422,.T.);
#422 = EDGE_CURVE('',#415,#423,#425,.T.);
#423 = VERTEX_POINT('',#424);
#424 = CARTESIAN_POINT('',(3.75,-0.22,0.1));
#425 = LINE('',#426,#427);
#426 = CARTESIAN_POINT('',(3.75,-0.22,0.64));
#427 = VECTOR('',#428,1.);
#428 = DIRECTION('',(-2.2E-16,-2.E-16,-1.));
#429 = ORIENTED_EDGE('',*,*,#430,.F.);
#430 = EDGE_CURVE('',#285,#423,#431,.T.);
#431 = LINE('',#432,#433);
#432 = CARTESIAN_POINT('',(3.79,-0.18,0.14));
#433 = VECTOR('',#434,1.);
#434 = DIRECTION('',(0.57735026919,0.57735026919,0.57735026919));
#435 = ORIENTED_EDGE('',*,*,#292,.F.);
#436 = PLANE('',#437);
#437 = AXIS2_PLACEMENT_3D('',#438,#439,#440);
#438 = CARTESIAN_POINT('',(3.7,-0.27,0.64));
#439 = DIRECTION('',(0.707106781187,-0.707106781187,1.6E-16));
#440 = DIRECTION('',(9.686291501015E-17,3.231370849898E-16,1.));
#441 = ADVANCED_FACE('',(#442),#453,.T.);
#442 = FACE_BOUND('',#443,.T.);
#443 = EDGE_LOOP('',(#444,#445,#446,#447));
#444 = ORIENTED_EDGE('',*,*,#284,.F.);
#445 = ORIENTED_EDGE('',*,*,#381,.T.);
#446 = ORIENTED_EDGE('',*,*,#340,.T.);
#447 = ORIENTED_EDGE('',*,*,#448,.F.);
#448 = EDGE_CURVE('',#285,#333,#449,.T.);
#449 = LINE('',#450,#451);
#450 = CARTESIAN_POINT('',(3.65,-0.32,7.E-17));
#451 = VECTOR('',#452,1.);
#452 = DIRECTION('',(9.E-17,1.,-2.E-16));
#453 = PLANE('',#454);
#454 = AXIS2_PLACEMENT_3D('',#455,#456,#457);
#455 = CARTESIAN_POINT('',(1.59,-0.32,7.E-17));
#456 = DIRECTION('',(0.,-2.E-16,-1.));
#457 = DIRECTION('',(9.E-17,1.,-2.E-16));
#458 = ADVANCED_FACE('',(#459),#484,.T.);
#459 = FACE_BOUND('',#460,.F.);
#460 = EDGE_LOOP('',(#461,#469,#477,#483));
#461 = ORIENTED_EDGE('',*,*,#462,.T.);
#462 = EDGE_CURVE('',#333,#463,#465,.T.);
#463 = VERTEX_POINT('',#464);
#464 = CARTESIAN_POINT('',(3.75,0.22,0.1));
#465 = LINE('',#466,#467);
#466 = CARTESIAN_POINT('',(3.79,0.18,0.14));
#467 = VECTOR('',#468,1.);
#468 = DIRECTION('',(0.57735026919,-0.57735026919,0.57735026919));
#469 = ORIENTED_EDGE('',*,*,#470,.T.);
#470 = EDGE_CURVE('',#463,#471,#473,.T.);
#471 = VERTEX_POINT('',#472);
#472 = CARTESIAN_POINT('',(3.75,0.22,0.54));
#473 = LINE('',#474,#475);
#474 = CARTESIAN_POINT('',(3.75,0.22,-5.E-17));
#475 = VECTOR('',#476,1.);
#476 = DIRECTION('',(2.2E-16,2.E-16,1.));
#477 = ORIENTED_EDGE('',*,*,#478,.T.);
#478 = EDGE_CURVE('',#471,#325,#479,.T.);
#479 = LINE('',#480,#481);
#480 = CARTESIAN_POINT('',(3.79,0.18,0.5));
#481 = VECTOR('',#482,1.);
#482 = DIRECTION('',(-0.57735026919,0.57735026919,0.57735026919));
#483 = ORIENTED_EDGE('',*,*,#332,.F.);
#484 = PLANE('',#485);
#485 = AXIS2_PLACEMENT_3D('',#486,#487,#488);
#486 = CARTESIAN_POINT('',(3.7,0.27,-5.E-17));
#487 = DIRECTION('',(0.707106781187,0.707106781187,-1.6E-16));
#488 = DIRECTION('',(-1.231370849898E-16,-1.031370849898E-16,-1.));
#489 = ADVANCED_FACE('',(#490),#501,.T.);
#490 = FACE_BOUND('',#491,.F.);
#491 = EDGE_LOOP('',(#492,#493,#499,#500));
#492 = ORIENTED_EDGE('',*,*,#478,.F.);
#493 = ORIENTED_EDGE('',*,*,#494,.T.);
#494 = EDGE_CURVE('',#471,#415,#495,.T.);
#495 = LINE('',#496,#497);
#496 = CARTESIAN_POINT('',(3.75,0.32,0.54));
#497 = VECTOR('',#498,1.);
#498 = DIRECTION('',(-9.E-17,-1.,2.E-16));
#499 = ORIENTED_EDGE('',*,*,#414,.T.);
#500 = ORIENTED_EDGE('',*,*,#400,.F.);
#501 = PLANE('',#502);
#502 = AXIS2_PLACEMENT_3D('',#503,#504,#505);
#503 = CARTESIAN_POINT('',(3.7,0.32,0.59));
#504 = DIRECTION('',(0.707106781187,1.4E-16,0.707106781187));
#505 = DIRECTION('',(4.100505063388E-17,1.,-2.389949493661E-16));
#506 = ADVANCED_FACE('',(#507),#518,.T.);
#507 = FACE_BOUND('',#508,.T.);
#508 = EDGE_LOOP('',(#509,#515,#516,#517));
#509 = ORIENTED_EDGE('',*,*,#510,.T.);
#510 = EDGE_CURVE('',#423,#463,#511,.T.);
#511 = LINE('',#512,#513);
#512 = CARTESIAN_POINT('',(3.75,-0.32,0.1));
#513 = VECTOR('',#514,1.);
#514 = DIRECTION('',(9.E-17,1.,-2.E-16));
#515 = ORIENTED_EDGE('',*,*,#470,.T.);
#516 = ORIENTED_EDGE('',*,*,#494,.T.);
#517 = ORIENTED_EDGE('',*,*,#422,.T.);
#518 = PLANE('',#519);
#519 = AXIS2_PLACEMENT_3D('',#520,#521,#522);
#520 = CARTESIAN_POINT('',(3.75,1.7E-16,0.32));
#521 = DIRECTION('',(1.,0.,0.));
#522 = DIRECTION('',(0.,-1.,2.2E-16));
#523 = ADVANCED_FACE('',(#524),#530,.T.);
#524 = FACE_BOUND('',#525,.T.);
#525 = EDGE_LOOP('',(#526,#527,#528,#529));
#526 = ORIENTED_EDGE('',*,*,#430,.F.);
#527 = ORIENTED_EDGE('',*,*,#448,.T.);
#528 = ORIENTED_EDGE('',*,*,#462,.T.);
#529 = ORIENTED_EDGE('',*,*,#510,.F.);
#530 = PLANE('',#531);
#531 = AXIS2_PLACEMENT_3D('',#532,#533,#534);
#532 = CARTESIAN_POINT('',(3.7,-0.32,5.E-02));
#533 = DIRECTION('',(0.707106781187,-1.4E-16,-0.707106781187));
#534 = DIRECTION('',(4.399494936612E-17,1.,-1.539949493661E-16));
#535 = ( GEOMETRIC_REPRESENTATION_CONTEXT(3) 
GLOBAL_UNCERTAINTY_ASSIGNED_CONTEXT((#539)) GLOBAL_UNIT_ASSIGNED_CONTEXT
((#536,#537,#538)) REPRESENTATION_CONTEXT('Context #1',
  '3D Context with UNIT and UNCERTAINTY') );
#536 = ( LENGTH_UNIT() NAMED_UNIT(*) SI_UNIT(.MILLI.,.METRE.) );
#537 = ( NAMED_UNIT(*) PLANE_ANGLE_UNIT() SI_UNIT($,.RADIAN.) );
#538 = ( NAMED_UNIT(*) SI_UNIT($,.STERADIAN.) SOLID_ANGLE_UNIT() );
#539 = UNCERTAINTY_MEASURE_WITH_UNIT(LENGTH_MEASURE(1.E-07),#536,
  'distance_accuracy_value','confusion accuracy');
#540 = CONTEXT_DEPENDENT_SHAPE_REPRESENTATION(#541,#543);
#541 = ( REPRESENTATION_RELATIONSHIP('','',#91,#60) 
REPRESENTATION_RELATIONSHIP_WITH_TRANSFORMATION(#542) 
SHAPE_REPRESENTATION_RELATIONSHIP() );
#542 = ITEM_DEFINED_TRANSFORMATION('','',#11,#61);
#543 = PRODUCT_DEFINITION_SHAPE('Placement','Placement of an item',#544
  );
#544 = NEXT_ASSEMBLY_USAGE_OCCURRENCE('43','Body-Pin_Lower-Origin','',
  #55,#86,$);
#545 = PRODUCT_RELATED_PRODUCT_CATEGORY('part',$,(#88));
#546 = SHAPE_DEFINITION_REPRESENTATION(#547,#553);
#547 = PRODUCT_DEFINITION_SHAPE('','',#548);
#548 = PRODUCT_DEFINITION('design','',#549,#552);
#549 = PRODUCT_DEFINITION_FORMATION('','',#550);
#550 = PRODUCT('Body-Pin-Higher-Cloned','Body-Pin-Higher-Cloned','',(
    #551));
#551 = PRODUCT_CONTEXT('',#2,'mechanical');
#552 = PRODUCT_DEFINITION_CONTEXT('part definition',#2,'design');
#553 = ADVANCED_BREP_SHAPE_REPRESENTATION('',(#11,#554),#997);
#554 = MANIFOLD_SOLID_BREP('',#555);
#555 = CLOSED_SHELL('',(#556,#596,#627,#651,#675,#692,#723,#772,#821,
    #838,#855,#872,#903,#920,#951,#968,#985));
#556 = ADVANCED_FACE('',(#557),#591,.F.);
#557 = FACE_BOUND('',#558,.F.);
#558 = EDGE_LOOP('',(#559,#569,#577,#585));
#559 = ORIENTED_EDGE('',*,*,#560,.T.);
#560 = EDGE_CURVE('',#561,#563,#565,.T.);
#561 = VERTEX_POINT('',#562);
#562 = CARTESIAN_POINT('',(1.05,-0.22,9.2));
#563 = VERTEX_POINT('',#564);
#564 = CARTESIAN_POINT('',(1.05,0.22,9.2));
#565 = LINE('',#566,#567);
#566 = CARTESIAN_POINT('',(1.05,-0.32,9.2));
#567 = VECTOR('',#568,1.);
#568 = DIRECTION('',(1.4E-16,1.,-4.2E-16));
#569 = ORIENTED_EDGE('',*,*,#570,.T.);
#570 = EDGE_CURVE('',#563,#571,#573,.T.);
#571 = VERTEX_POINT('',#572);
#572 = CARTESIAN_POINT('',(1.49,0.22,9.2));
#573 = LINE('',#574,#575);
#574 = CARTESIAN_POINT('',(0.95,0.22,9.2));
#575 = VECTOR('',#576,1.);
#576 = DIRECTION('',(1.,-1.4E-16,-1.6E-16));
#577 = ORIENTED_EDGE('',*,*,#578,.T.);
#578 = EDGE_CURVE('',#571,#579,#581,.T.);
#579 = VERTEX_POINT('',#580);
#580 = CARTESIAN_POINT('',(1.49,-0.22,9.2));
#581 = LINE('',#582,#583);
#582 = CARTESIAN_POINT('',(1.49,0.32,9.2));
#583 = VECTOR('',#584,1.);
#584 = DIRECTION('',(-1.4E-16,-1.,4.2E-16));
#585 = ORIENTED_EDGE('',*,*,#586,.T.);
#586 = EDGE_CURVE('',#579,#561,#587,.T.);
#587 = LINE('',#588,#589);
#588 = CARTESIAN_POINT('',(1.59,-0.22,9.2));
#589 = VECTOR('',#590,1.);
#590 = DIRECTION('',(-1.,1.4E-16,1.6E-16));
#591 = PLANE('',#592);
#592 = AXIS2_PLACEMENT_3D('',#593,#594,#595);
#593 = CARTESIAN_POINT('',(1.27,3.07E-15,9.2));
#594 = DIRECTION('',(-0.,-2.2E-16,-1.));
#595 = DIRECTION('',(0.,1.,-2.2E-16));
#596 = ADVANCED_FACE('',(#597),#622,.F.);
#597 = FACE_BOUND('',#598,.T.);
#598 = EDGE_LOOP('',(#599,#607,#608,#616));
#599 = ORIENTED_EDGE('',*,*,#600,.F.);
#600 = EDGE_CURVE('',#561,#601,#603,.T.);
#601 = VERTEX_POINT('',#602);
#602 = CARTESIAN_POINT('',(0.95,-0.32,9.1));
#603 = LINE('',#604,#605);
#604 = CARTESIAN_POINT('',(1.09,-0.18,9.24));
#605 = VECTOR('',#606,1.);
#606 = DIRECTION('',(-0.57735026919,-0.57735026919,-0.57735026919));
#607 = ORIENTED_EDGE('',*,*,#560,.T.);
#608 = ORIENTED_EDGE('',*,*,#609,.T.);
#609 = EDGE_CURVE('',#563,#610,#612,.T.);
#610 = VERTEX_POINT('',#611);
#611 = CARTESIAN_POINT('',(0.95,0.32,9.1));
#612 = LINE('',#613,#614);
#613 = CARTESIAN_POINT('',(1.09,0.18,9.24));
#614 = VECTOR('',#615,1.);
#615 = DIRECTION('',(-0.57735026919,0.57735026919,-0.57735026919));
#616 = ORIENTED_EDGE('',*,*,#617,.F.);
#617 = EDGE_CURVE('',#601,#610,#618,.T.);
#618 = LINE('',#619,#620);
#619 = CARTESIAN_POINT('',(0.95,-0.32,9.1));
#620 = VECTOR('',#621,1.);
#621 = DIRECTION('',(1.4E-16,1.,-4.2E-16));
#622 = PLANE('',#623);
#623 = AXIS2_PLACEMENT_3D('',#624,#625,#626);
#624 = CARTESIAN_POINT('',(1.,-0.32,9.15));
#625 = DIRECTION('',(0.707106781187,-2.5E-16,-0.707106781187));
#626 = DIRECTION('',(-3.677669529664E-17,-1.,3.167766952966E-16));
#627 = ADVANCED_FACE('',(#628),#646,.F.);
#628 = FACE_BOUND('',#629,.T.);
#629 = EDGE_LOOP('',(#630,#638,#639,#640));
#630 = ORIENTED_EDGE('',*,*,#631,.F.);
#631 = EDGE_CURVE('',#579,#632,#634,.T.);
#632 = VERTEX_POINT('',#633);
#633 = CARTESIAN_POINT('',(1.59,-0.32,9.1));
#634 = LINE('',#635,#636);
#635 = CARTESIAN_POINT('',(1.45,-0.18,9.24));
#636 = VECTOR('',#637,1.);
#637 = DIRECTION('',(0.57735026919,-0.57735026919,-0.57735026919));
#638 = ORIENTED_EDGE('',*,*,#586,.T.);
#639 = ORIENTED_EDGE('',*,*,#600,.T.);
#640 = ORIENTED_EDGE('',*,*,#641,.F.);
#641 = EDGE_CURVE('',#632,#601,#642,.T.);
#642 = LINE('',#643,#644);
#643 = CARTESIAN_POINT('',(1.59,-0.32,9.1));
#644 = VECTOR('',#645,1.);
#645 = DIRECTION('',(-1.,1.4E-16,1.6E-16));
#646 = PLANE('',#647);
#647 = AXIS2_PLACEMENT_3D('',#648,#649,#650);
#648 = CARTESIAN_POINT('',(1.59,-0.27,9.15));
#649 = DIRECTION('',(0.,0.707106781187,-0.707106781187));
#650 = DIRECTION('',(1.,-1.5E-16,-1.5E-16));
#651 = ADVANCED_FACE('',(#652),#670,.F.);
#652 = FACE_BOUND('',#653,.T.);
#653 = EDGE_LOOP('',(#654,#655,#656,#664));
#654 = ORIENTED_EDGE('',*,*,#609,.F.);
#655 = ORIENTED_EDGE('',*,*,#570,.T.);
#656 = ORIENTED_EDGE('',*,*,#657,.T.);
#657 = EDGE_CURVE('',#571,#658,#660,.T.);
#658 = VERTEX_POINT('',#659);
#659 = CARTESIAN_POINT('',(1.59,0.32,9.1));
#660 = LINE('',#661,#662);
#661 = CARTESIAN_POINT('',(1.45,0.18,9.24));
#662 = VECTOR('',#663,1.);
#663 = DIRECTION('',(0.57735026919,0.57735026919,-0.57735026919));
#664 = ORIENTED_EDGE('',*,*,#665,.F.);
#665 = EDGE_CURVE('',#610,#658,#666,.T.);
#666 = LINE('',#667,#668);
#667 = CARTESIAN_POINT('',(0.95,0.32,9.1));
#668 = VECTOR('',#669,1.);
#669 = DIRECTION('',(1.,-1.4E-16,-1.6E-16));
#670 = PLANE('',#671);
#671 = AXIS2_PLACEMENT_3D('',#672,#673,#674);
#672 = CARTESIAN_POINT('',(0.95,0.27,9.15));
#673 = DIRECTION('',(0.,-0.707106781187,-0.707106781187));
#674 = DIRECTION('',(-1.,-1.E-17,1.E-17));
#675 = ADVANCED_FACE('',(#676),#687,.F.);
#676 = FACE_BOUND('',#677,.T.);
#677 = EDGE_LOOP('',(#678,#679,#680,#681));
#678 = ORIENTED_EDGE('',*,*,#657,.F.);
#679 = ORIENTED_EDGE('',*,*,#578,.T.);
#680 = ORIENTED_EDGE('',*,*,#631,.T.);
#681 = ORIENTED_EDGE('',*,*,#682,.F.);
#682 = EDGE_CURVE('',#658,#632,#683,.T.);
#683 = LINE('',#684,#685);
#684 = CARTESIAN_POINT('',(1.59,0.32,9.1));
#685 = VECTOR('',#686,1.);
#686 = DIRECTION('',(-1.4E-16,-1.,4.2E-16));
#687 = PLANE('',#688);
#688 = AXIS2_PLACEMENT_3D('',#689,#690,#691);
#689 = CARTESIAN_POINT('',(1.54,0.32,9.15));
#690 = DIRECTION('',(-0.707106781187,-6.E-17,-0.707106781187));
#691 = DIRECTION('',(2.325735931288E-16,1.,-3.174264068712E-16));
#692 = ADVANCED_FACE('',(#693),#718,.T.);
#693 = FACE_BOUND('',#694,.T.);
#694 = EDGE_LOOP('',(#695,#703,#704,#712));
#695 = ORIENTED_EDGE('',*,*,#696,.F.);
#696 = EDGE_CURVE('',#601,#697,#699,.T.);
#697 = VERTEX_POINT('',#698);
#698 = CARTESIAN_POINT('',(0.95,-0.32,0.64));
#699 = LINE('',#700,#701);
#700 = CARTESIAN_POINT('',(0.95,-0.32,9.2));
#701 = VECTOR('',#702,1.);
#702 = DIRECTION('',(-0.,-4.2E-16,-1.));
#703 = ORIENTED_EDGE('',*,*,#617,.T.);
#704 = ORIENTED_EDGE('',*,*,#705,.T.);
#705 = EDGE_CURVE('',#610,#706,#708,.T.);
#706 = VERTEX_POINT('',#707);
#707 = CARTESIAN_POINT('',(0.95,0.32,0.64));
#708 = LINE('',#709,#710);
#709 = CARTESIAN_POINT('',(0.95,0.32,9.2));
#710 = VECTOR('',#711,1.);
#711 = DIRECTION('',(-0.,-4.2E-16,-1.));
#712 = ORIENTED_EDGE('',*,*,#713,.F.);
#713 = EDGE_CURVE('',#697,#706,#714,.T.);
#714 = LINE('',#715,#716);
#715 = CARTESIAN_POINT('',(0.95,-0.32,0.64));
#716 = VECTOR('',#717,1.);
#717 = DIRECTION('',(1.4E-16,1.,-4.2E-16));
#718 = PLANE('',#719);
#719 = AXIS2_PLACEMENT_3D('',#720,#721,#722);
#720 = CARTESIAN_POINT('',(0.95,-0.32,9.2));
#721 = DIRECTION('',(-1.,1.4E-16,0.));
#722 = DIRECTION('',(1.4E-16,1.,-4.2E-16));
#723 = ADVANCED_FACE('',(#724),#767,.T.);
#724 = FACE_BOUND('',#725,.T.);
#725 = EDGE_LOOP('',(#726,#734,#735,#736,#745,#753,#761));
#726 = ORIENTED_EDGE('',*,*,#727,.F.);
#727 = EDGE_CURVE('',#632,#728,#730,.T.);
#728 = VERTEX_POINT('',#729);
#729 = CARTESIAN_POINT('',(1.59,-0.32,0.64));
#730 = LINE('',#731,#732);
#731 = CARTESIAN_POINT('',(1.59,-0.32,9.2));
#732 = VECTOR('',#733,1.);
#733 = DIRECTION('',(-0.,-4.2E-16,-1.));
#734 = ORIENTED_EDGE('',*,*,#641,.T.);
#735 = ORIENTED_EDGE('',*,*,#696,.T.);
#736 = ORIENTED_EDGE('',*,*,#737,.T.);
#737 = EDGE_CURVE('',#697,#738,#740,.T.);
#738 = VERTEX_POINT('',#739);
#739 = CARTESIAN_POINT('',(1.59,-0.32,0.));
#740 = CIRCLE('',#741,0.64);
#741 = AXIS2_PLACEMENT_3D('',#742,#743,#744);
#742 = CARTESIAN_POINT('',(1.59,-0.32,0.64));
#743 = DIRECTION('',(0.,-1.,3.3E-16));
#744 = DIRECTION('',(1.,5.61E-32,1.7E-16));
#745 = ORIENTED_EDGE('',*,*,#746,.T.);
#746 = EDGE_CURVE('',#738,#747,#749,.T.);
#747 = VERTEX_POINT('',#748);
#748 = CARTESIAN_POINT('',(3.65,-0.32,0.));
#749 = LINE('',#750,#751);
#750 = CARTESIAN_POINT('',(1.59,-0.32,7.E-17));
#751 = VECTOR('',#752,1.);
#752 = DIRECTION('',(1.,-9.E-17,0.));
#753 = ORIENTED_EDGE('',*,*,#754,.F.);
#754 = EDGE_CURVE('',#755,#747,#757,.T.);
#755 = VERTEX_POINT('',#756);
#756 = CARTESIAN_POINT('',(3.65,-0.32,0.64));
#757 = LINE('',#758,#759);
#758 = CARTESIAN_POINT('',(3.65,-0.32,0.64));
#759 = VECTOR('',#760,1.);
#760 = DIRECTION('',(-2.2E-16,-2.E-16,-1.));
#761 = ORIENTED_EDGE('',*,*,#762,.F.);
#762 = EDGE_CURVE('',#728,#755,#763,.T.);
#763 = LINE('',#764,#765);
#764 = CARTESIAN_POINT('',(1.59,-0.32,0.64));
#765 = VECTOR('',#766,1.);
#766 = DIRECTION('',(1.,-9.E-17,0.));
#767 = PLANE('',#768);
#768 = AXIS2_PLACEMENT_3D('',#769,#770,#771);
#769 = CARTESIAN_POINT('',(1.588699359287,-0.32,3.877311014057));
#770 = DIRECTION('',(0.,-1.,2.2E-16));
#771 = DIRECTION('',(1.,0.,0.));
#772 = ADVANCED_FACE('',(#773),#816,.T.);
#773 = FACE_BOUND('',#774,.T.);
#774 = EDGE_LOOP('',(#775,#776,#777,#785,#793,#801,#809));
#775 = ORIENTED_EDGE('',*,*,#705,.F.);
#776 = ORIENTED_EDGE('',*,*,#665,.T.);
#777 = ORIENTED_EDGE('',*,*,#778,.T.);
#778 = EDGE_CURVE('',#658,#779,#781,.T.);
#779 = VERTEX_POINT('',#780);
#780 = CARTESIAN_POINT('',(1.59,0.32,0.64));
#781 = LINE('',#782,#783);
#782 = CARTESIAN_POINT('',(1.59,0.32,9.2));
#783 = VECTOR('',#784,1.);
#784 = DIRECTION('',(-1.6E-16,-3.3E-16,-1.));
#785 = ORIENTED_EDGE('',*,*,#786,.T.);
#786 = EDGE_CURVE('',#779,#787,#789,.T.);
#787 = VERTEX_POINT('',#788);
#788 = CARTESIAN_POINT('',(3.65,0.32,0.64));
#789 = LINE('',#790,#791);
#790 = CARTESIAN_POINT('',(1.59,0.32,0.64));
#791 = VECTOR('',#792,1.);
#792 = DIRECTION('',(1.,0.,-2.2E-16));
#793 = ORIENTED_EDGE('',*,*,#794,.F.);
#794 = EDGE_CURVE('',#795,#787,#797,.T.);
#795 = VERTEX_POINT('',#796);
#796 = CARTESIAN_POINT('',(3.65,0.32,0.));
#797 = LINE('',#798,#799);
#798 = CARTESIAN_POINT('',(3.65,0.32,-5.E-17));
#799 = VECTOR('',#800,1.);
#800 = DIRECTION('',(2.2E-16,2.E-16,1.));
#801 = ORIENTED_EDGE('',*,*,#802,.F.);
#802 = EDGE_CURVE('',#803,#795,#805,.T.);
#803 = VERTEX_POINT('',#804);
#804 = CARTESIAN_POINT('',(1.59,0.32,0.));
#805 = LINE('',#806,#807);
#806 = CARTESIAN_POINT('',(1.59,0.32,-6.E-17));
#807 = VECTOR('',#808,1.);
#808 = DIRECTION('',(1.,-9.E-17,0.));
#809 = ORIENTED_EDGE('',*,*,#810,.F.);
#810 = EDGE_CURVE('',#706,#803,#811,.T.);
#811 = CIRCLE('',#812,0.64);
#812 = AXIS2_PLACEMENT_3D('',#813,#814,#815);
#813 = CARTESIAN_POINT('',(1.59,0.32,0.64));
#814 = DIRECTION('',(0.,-1.,3.3E-16));
#815 = DIRECTION('',(1.,5.61E-32,1.7E-16));
#816 = PLANE('',#817);
#817 = AXIS2_PLACEMENT_3D('',#818,#819,#820);
#818 = CARTESIAN_POINT('',(1.588699359287,0.32,3.877311014057));
#819 = DIRECTION('',(0.,1.,-2.2E-16));
#820 = DIRECTION('',(-1.,0.,0.));
#821 = ADVANCED_FACE('',(#822),#833,.T.);
#822 = FACE_BOUND('',#823,.T.);
#823 = EDGE_LOOP('',(#824,#825,#826,#827));
#824 = ORIENTED_EDGE('',*,*,#778,.F.);
#825 = ORIENTED_EDGE('',*,*,#682,.T.);
#826 = ORIENTED_EDGE('',*,*,#727,.T.);
#827 = ORIENTED_EDGE('',*,*,#828,.F.);
#828 = EDGE_CURVE('',#779,#728,#829,.T.);
#829 = LINE('',#830,#831);
#830 = CARTESIAN_POINT('',(1.59,0.32,0.64));
#831 = VECTOR('',#832,1.);
#832 = DIRECTION('',(-1.4E-16,-1.,4.2E-16));
#833 = PLANE('',#834);
#834 = AXIS2_PLACEMENT_3D('',#835,#836,#837);
#835 = CARTESIAN_POINT('',(1.59,0.32,9.2));
#836 = DIRECTION('',(1.,-1.4E-16,0.));
#837 = DIRECTION('',(-1.4E-16,-1.,4.2E-16));
#838 = ADVANCED_FACE('',(#839),#850,.T.);
#839 = FACE_BOUND('',#840,.F.);
#840 = EDGE_LOOP('',(#841,#842,#848,#849));
#841 = ORIENTED_EDGE('',*,*,#737,.T.);
#842 = ORIENTED_EDGE('',*,*,#843,.T.);
#843 = EDGE_CURVE('',#738,#803,#844,.T.);
#844 = LINE('',#845,#846);
#845 = CARTESIAN_POINT('',(1.59,-0.32,-2.6E-16));
#846 = VECTOR('',#847,1.);
#847 = DIRECTION('',(0.,1.,-3.3E-16));
#848 = ORIENTED_EDGE('',*,*,#810,.F.);
#849 = ORIENTED_EDGE('',*,*,#713,.F.);
#850 = CYLINDRICAL_SURFACE('',#851,0.64);
#851 = AXIS2_PLACEMENT_3D('',#852,#853,#854);
#852 = CARTESIAN_POINT('',(1.59,-0.32,0.64));
#853 = DIRECTION('',(0.,1.,-3.3E-16));
#854 = DIRECTION('',(1.,5.61E-32,1.7E-16));
#855 = ADVANCED_FACE('',(#856),#867,.T.);
#856 = FACE_BOUND('',#857,.T.);
#857 = EDGE_LOOP('',(#858,#859,#860,#861));
#858 = ORIENTED_EDGE('',*,*,#786,.F.);
#859 = ORIENTED_EDGE('',*,*,#828,.T.);
#860 = ORIENTED_EDGE('',*,*,#762,.T.);
#861 = ORIENTED_EDGE('',*,*,#862,.F.);
#862 = EDGE_CURVE('',#787,#755,#863,.T.);
#863 = LINE('',#864,#865);
#864 = CARTESIAN_POINT('',(3.65,0.32,0.64));
#865 = VECTOR('',#866,1.);
#866 = DIRECTION('',(-9.E-17,-1.,2.E-16));
#867 = PLANE('',#868);
#868 = AXIS2_PLACEMENT_3D('',#869,#870,#871);
#869 = CARTESIAN_POINT('',(1.59,0.32,0.64));
#870 = DIRECTION('',(0.,2.E-16,1.));
#871 = DIRECTION('',(-9.E-17,-1.,2.E-16));
#872 = ADVANCED_FACE('',(#873),#898,.T.);
#873 = FACE_BOUND('',#874,.F.);
#874 = EDGE_LOOP('',(#875,#883,#891,#897));
#875 = ORIENTED_EDGE('',*,*,#876,.F.);
#876 = EDGE_CURVE('',#877,#755,#879,.T.);
#877 = VERTEX_POINT('',#878);
#878 = CARTESIAN_POINT('',(3.75,-0.22,0.54));
#879 = LINE('',#880,#881);
#880 = CARTESIAN_POINT('',(3.79,-0.18,0.5));
#881 = VECTOR('',#882,1.);
#882 = DIRECTION('',(-0.57735026919,-0.57735026919,0.57735026919));
#883 = ORIENTED_EDGE('',*,*,#884,.T.);
#884 = EDGE_CURVE('',#877,#885,#887,.T.);
#885 = VERTEX_POINT('',#886);
#886 = CARTESIAN_POINT('',(3.75,-0.22,0.1));
#887 = LINE('',#888,#889);
#888 = CARTESIAN_POINT('',(3.75,-0.22,0.64));
#889 = VECTOR('',#890,1.);
#890 = DIRECTION('',(-2.2E-16,-2.E-16,-1.));
#891 = ORIENTED_EDGE('',*,*,#892,.F.);
#892 = EDGE_CURVE('',#747,#885,#893,.T.);
#893 = LINE('',#894,#895);
#894 = CARTESIAN_POINT('',(3.79,-0.18,0.14));
#895 = VECTOR('',#896,1.);
#896 = DIRECTION('',(0.57735026919,0.57735026919,0.57735026919));
#897 = ORIENTED_EDGE('',*,*,#754,.F.);
#898 = PLANE('',#899);
#899 = AXIS2_PLACEMENT_3D('',#900,#901,#902);
#900 = CARTESIAN_POINT('',(3.7,-0.27,0.64));
#901 = DIRECTION('',(0.707106781187,-0.707106781187,1.6E-16));
#902 = DIRECTION('',(9.686291501015E-17,3.231370849898E-16,1.));
#903 = ADVANCED_FACE('',(#904),#915,.T.);
#904 = FACE_BOUND('',#905,.T.);
#905 = EDGE_LOOP('',(#906,#907,#908,#909));
#906 = ORIENTED_EDGE('',*,*,#746,.F.);
#907 = ORIENTED_EDGE('',*,*,#843,.T.);
#908 = ORIENTED_EDGE('',*,*,#802,.T.);
#909 = ORIENTED_EDGE('',*,*,#910,.F.);
#910 = EDGE_CURVE('',#747,#795,#911,.T.);
#911 = LINE('',#912,#913);
#912 = CARTESIAN_POINT('',(3.65,-0.32,7.E-17));
#913 = VECTOR('',#914,1.);
#914 = DIRECTION('',(9.E-17,1.,-2.E-16));
#915 = PLANE('',#916);
#916 = AXIS2_PLACEMENT_3D('',#917,#918,#919);
#917 = CARTESIAN_POINT('',(1.59,-0.32,7.E-17));
#918 = DIRECTION('',(0.,-2.E-16,-1.));
#919 = DIRECTION('',(9.E-17,1.,-2.E-16));
#920 = ADVANCED_FACE('',(#921),#946,.T.);
#921 = FACE_BOUND('',#922,.F.);
#922 = EDGE_LOOP('',(#923,#931,#939,#945));
#923 = ORIENTED_EDGE('',*,*,#924,.T.);
#924 = EDGE_CURVE('',#795,#925,#927,.T.);
#925 = VERTEX_POINT('',#926);
#926 = CARTESIAN_POINT('',(3.75,0.22,0.1));
#927 = LINE('',#928,#929);
#928 = CARTESIAN_POINT('',(3.79,0.18,0.14));
#929 = VECTOR('',#930,1.);
#930 = DIRECTION('',(0.57735026919,-0.57735026919,0.57735026919));
#931 = ORIENTED_EDGE('',*,*,#932,.T.);
#932 = EDGE_CURVE('',#925,#933,#935,.T.);
#933 = VERTEX_POINT('',#934);
#934 = CARTESIAN_POINT('',(3.75,0.22,0.54));
#935 = LINE('',#936,#937);
#936 = CARTESIAN_POINT('',(3.75,0.22,-5.E-17));
#937 = VECTOR('',#938,1.);
#938 = DIRECTION('',(2.2E-16,2.E-16,1.));
#939 = ORIENTED_EDGE('',*,*,#940,.T.);
#940 = EDGE_CURVE('',#933,#787,#941,.T.);
#941 = LINE('',#942,#943);
#942 = CARTESIAN_POINT('',(3.79,0.18,0.5));
#943 = VECTOR('',#944,1.);
#944 = DIRECTION('',(-0.57735026919,0.57735026919,0.57735026919));
#945 = ORIENTED_EDGE('',*,*,#794,.F.);
#946 = PLANE('',#947);
#947 = AXIS2_PLACEMENT_3D('',#948,#949,#950);
#948 = CARTESIAN_POINT('',(3.7,0.27,-5.E-17));
#949 = DIRECTION('',(0.707106781187,0.707106781187,-1.6E-16));
#950 = DIRECTION('',(-1.231370849898E-16,-1.031370849898E-16,-1.));
#951 = ADVANCED_FACE('',(#952),#963,.T.);
#952 = FACE_BOUND('',#953,.F.);
#953 = EDGE_LOOP('',(#954,#955,#961,#962));
#954 = ORIENTED_EDGE('',*,*,#940,.F.);
#955 = ORIENTED_EDGE('',*,*,#956,.T.);
#956 = EDGE_CURVE('',#933,#877,#957,.T.);
#957 = LINE('',#958,#959);
#958 = CARTESIAN_POINT('',(3.75,0.32,0.54));
#959 = VECTOR('',#960,1.);
#960 = DIRECTION('',(-9.E-17,-1.,2.E-16));
#961 = ORIENTED_EDGE('',*,*,#876,.T.);
#962 = ORIENTED_EDGE('',*,*,#862,.F.);
#963 = PLANE('',#964);
#964 = AXIS2_PLACEMENT_3D('',#965,#966,#967);
#965 = CARTESIAN_POINT('',(3.7,0.32,0.59));
#966 = DIRECTION('',(0.707106781187,1.4E-16,0.707106781187));
#967 = DIRECTION('',(4.100505063388E-17,1.,-2.389949493661E-16));
#968 = ADVANCED_FACE('',(#969),#980,.T.);
#969 = FACE_BOUND('',#970,.T.);
#970 = EDGE_LOOP('',(#971,#977,#978,#979));
#971 = ORIENTED_EDGE('',*,*,#972,.T.);
#972 = EDGE_CURVE('',#885,#925,#973,.T.);
#973 = LINE('',#974,#975);
#974 = CARTESIAN_POINT('',(3.75,-0.32,0.1));
#975 = VECTOR('',#976,1.);
#976 = DIRECTION('',(9.E-17,1.,-2.E-16));
#977 = ORIENTED_EDGE('',*,*,#932,.T.);
#978 = ORIENTED_EDGE('',*,*,#956,.T.);
#979 = ORIENTED_EDGE('',*,*,#884,.T.);
#980 = PLANE('',#981);
#981 = AXIS2_PLACEMENT_3D('',#982,#983,#984);
#982 = CARTESIAN_POINT('',(3.75,1.7E-16,0.32));
#983 = DIRECTION('',(1.,0.,0.));
#984 = DIRECTION('',(0.,-1.,2.2E-16));
#985 = ADVANCED_FACE('',(#986),#992,.T.);
#986 = FACE_BOUND('',#987,.T.);
#987 = EDGE_LOOP('',(#988,#989,#990,#991));
#988 = ORIENTED_EDGE('',*,*,#892,.F.);
#989 = ORIENTED_EDGE('',*,*,#910,.T.);
#990 = ORIENTED_EDGE('',*,*,#924,.T.);
#991 = ORIENTED_EDGE('',*,*,#972,.F.);
#992 = PLANE('',#993);
#993 = AXIS2_PLACEMENT_3D('',#994,#995,#996);
#994 = CARTESIAN_POINT('',(3.7,-0.32,5.E-02));
#995 = DIRECTION('',(0.707106781187,-1.4E-16,-0.707106781187));
#996 = DIRECTION('',(4.399494936612E-17,1.,-1.539949493661E-16));
#997 = ( GEOMETRIC_REPRESENTATION_CONTEXT(3) 
GLOBAL_UNCERTAINTY_ASSIGNED_CONTEXT((#1001)) 
GLOBAL_UNIT_ASSIGNED_CONTEXT((#998,#999,#1000)) REPRESENTATION_CONTEXT(
  'Context #1','3D Context with UNIT and UNCERTAINTY') );
#998 = ( LENGTH_UNIT() NAMED_UNIT(*) SI_UNIT(.MILLI.,.METRE.) );
#999 = ( NAMED_UNIT(*) PLANE_ANGLE_UNIT() SI_UNIT($,.RADIAN.) );
#1000 = ( NAMED_UNIT(*) SI_UNIT($,.STERADIAN.) SOLID_ANGLE_UNIT() );
#1001 = UNCERTAINTY_MEASURE_WITH_UNIT(LENGTH_MEASURE(1.E-07),#998,
  'distance_accuracy_value','confusion accuracy');
#1002 = CONTEXT_DEPENDENT_SHAPE_REPRESENTATION(#1003,#1005);
#1003 = ( REPRESENTATION_RELATIONSHIP('','',#553,#60) 
REPRESENTATION_RELATIONSHIP_WITH_TRANSFORMATION(#1004) 
SHAPE_REPRESENTATION_RELATIONSHIP() );
#1004 = ITEM_DEFINED_TRANSFORMATION('','',#11,#65);
#1005 = PRODUCT_DEFINITION_SHAPE('Placement','Placement of an item',
  #1006);
#1006 = NEXT_ASSEMBLY_USAGE_OCCURRENCE('44','Body-Pin-Higher-Cloned','',
  #55,#548,$);
#1007 = PRODUCT_RELATED_PRODUCT_CATEGORY('part',$,(#550));
#1008 = SHAPE_DEFINITION_REPRESENTATION(#1009,#1015);
#1009 = PRODUCT_DEFINITION_SHAPE('','',#1010);
#1010 = PRODUCT_DEFINITION('design','',#1011,#1014);
#1011 = PRODUCT_DEFINITION_FORMATION('','',#1012);
#1012 = PRODUCT('Body-PartBody','Body-PartBody','',(#1013));
#1013 = PRODUCT_CONTEXT('',#2,'mechanical');
#1014 = PRODUCT_DEFINITION_CONTEXT('part definition',#2,'design');
#1015 = ADVANCED_BREP_SHAPE_REPRESENTATION('',(#11,#1016),#1394);
#1016 = MANIFOLD_SOLID_BREP('',#1017);
#1017 = CLOSED_SHELL('',(#1018,#1058,#1089,#1121,#1153,#1202,#1219,#1243
    ,#1267,#1299,#1331,#1348,#1365,#1382));
#1018 = ADVANCED_FACE('',(#1019),#1053,.F.);
#1019 = FACE_BOUND('',#1020,.F.);
#1020 = EDGE_LOOP('',(#1021,#1031,#1039,#1047));
#1021 = ORIENTED_EDGE('',*,*,#1022,.F.);
#1022 = EDGE_CURVE('',#1023,#1025,#1027,.T.);
#1023 = VERTEX_POINT('',#1024);
#1024 = CARTESIAN_POINT('',(-2.5,0.63,0.64));
#1025 = VERTEX_POINT('',#1026);
#1026 = CARTESIAN_POINT('',(-2.5,-0.63,0.64));
#1027 = LINE('',#1028,#1029);
#1028 = CARTESIAN_POINT('',(-2.5,1.27,0.64));
#1029 = VECTOR('',#1030,1.);
#1030 = DIRECTION('',(0.,-1.,0.));
#1031 = ORIENTED_EDGE('',*,*,#1032,.T.);
#1032 = EDGE_CURVE('',#1023,#1033,#1035,.T.);
#1033 = VERTEX_POINT('',#1034);
#1034 = CARTESIAN_POINT('',(-2.5,0.63,3.84));
#1035 = LINE('',#1036,#1037);
#1036 = CARTESIAN_POINT('',(-2.5,0.63,0.64));
#1037 = VECTOR('',#1038,1.);
#1038 = DIRECTION('',(0.,0.,1.));
#1039 = ORIENTED_EDGE('',*,*,#1040,.T.);
#1040 = EDGE_CURVE('',#1033,#1041,#1043,.T.);
#1041 = VERTEX_POINT('',#1042);
#1042 = CARTESIAN_POINT('',(-2.5,-0.63,3.84));
#1043 = LINE('',#1044,#1045);
#1044 = CARTESIAN_POINT('',(-2.5,1.27,3.84));
#1045 = VECTOR('',#1046,1.);
#1046 = DIRECTION('',(0.,-1.,0.));
#1047 = ORIENTED_EDGE('',*,*,#1048,.F.);
#1048 = EDGE_CURVE('',#1025,#1041,#1049,.T.);
#1049 = LINE('',#1050,#1051);
#1050 = CARTESIAN_POINT('',(-2.5,-0.63,0.64));
#1051 = VECTOR('',#1052,1.);
#1052 = DIRECTION('',(0.,0.,1.));
#1053 = PLANE('',#1054);
#1054 = AXIS2_PLACEMENT_3D('',#1055,#1056,#1057);
#1055 = CARTESIAN_POINT('',(-2.5,1.27,0.64));
#1056 = DIRECTION('',(1.,0.,0.));
#1057 = DIRECTION('',(0.,-1.,0.));
#1058 = ADVANCED_FACE('',(#1059),#1084,.F.);
#1059 = FACE_BOUND('',#1060,.F.);
#1060 = EDGE_LOOP('',(#1061,#1069,#1070,#1078));
#1061 = ORIENTED_EDGE('',*,*,#1062,.F.);
#1062 = EDGE_CURVE('',#1023,#1063,#1065,.T.);
#1063 = VERTEX_POINT('',#1064);
#1064 = CARTESIAN_POINT('',(-1.86,1.27,0.64));
#1065 = LINE('',#1066,#1067);
#1066 = CARTESIAN_POINT('',(-1.8725,1.2575,0.64));
#1067 = VECTOR('',#1068,1.);
#1068 = DIRECTION('',(0.707106781187,0.707106781187,0.));
#1069 = ORIENTED_EDGE('',*,*,#1022,.T.);
#1070 = ORIENTED_EDGE('',*,*,#1071,.T.);
#1071 = EDGE_CURVE('',#1025,#1072,#1074,.T.);
#1072 = VERTEX_POINT('',#1073);
#1073 = CARTESIAN_POINT('',(-1.86,-1.27,0.64));
#1074 = LINE('',#1075,#1076);
#1075 = CARTESIAN_POINT('',(-1.8725,-1.2575,0.64));
#1076 = VECTOR('',#1077,1.);
#1077 = DIRECTION('',(0.707106781187,-0.707106781187,0.));
#1078 = ORIENTED_EDGE('',*,*,#1079,.F.);
#1079 = EDGE_CURVE('',#1063,#1072,#1080,.T.);
#1080 = LINE('',#1081,#1082);
#1081 = CARTESIAN_POINT('',(-1.86,1.27,0.64));
#1082 = VECTOR('',#1083,1.);
#1083 = DIRECTION('',(0.,-1.,0.));
#1084 = PLANE('',#1085);
#1085 = AXIS2_PLACEMENT_3D('',#1086,#1087,#1088);
#1086 = CARTESIAN_POINT('',(0.,0.,0.64));
#1087 = DIRECTION('',(0.,0.,1.));
#1088 = DIRECTION('',(1.,0.,0.));
#1089 = ADVANCED_FACE('',(#1090),#1116,.T.);
#1090 = FACE_BOUND('',#1091,.T.);
#1091 = EDGE_LOOP('',(#1092,#1093,#1094,#1102,#1110));
#1092 = ORIENTED_EDGE('',*,*,#1062,.F.);
#1093 = ORIENTED_EDGE('',*,*,#1032,.T.);
#1094 = ORIENTED_EDGE('',*,*,#1095,.T.);
#1095 = EDGE_CURVE('',#1033,#1096,#1098,.T.);
#1096 = VERTEX_POINT('',#1097);
#1097 = CARTESIAN_POINT('',(-1.86,1.27,3.84));
#1098 = LINE('',#1099,#1100);
#1099 = CARTESIAN_POINT('',(-1.8725,1.2575,3.84));
#1100 = VECTOR('',#1101,1.);
#1101 = DIRECTION('',(0.707106781187,0.707106781187,0.));
#1102 = ORIENTED_EDGE('',*,*,#1103,.F.);
#1103 = EDGE_CURVE('',#1104,#1096,#1106,.T.);
#1104 = VERTEX_POINT('',#1105);
#1105 = CARTESIAN_POINT('',(-1.86,1.27,1.28));
#1106 = LINE('',#1107,#1108);
#1107 = CARTESIAN_POINT('',(-1.86,1.27,0.64));
#1108 = VECTOR('',#1109,1.);
#1109 = DIRECTION('',(0.,0.,1.));
#1110 = ORIENTED_EDGE('',*,*,#1111,.F.);
#1111 = EDGE_CURVE('',#1063,#1104,#1112,.T.);
#1112 = LINE('',#1113,#1114);
#1113 = CARTESIAN_POINT('',(-1.86,1.27,0.64));
#1114 = VECTOR('',#1115,1.);
#1115 = DIRECTION('',(0.,0.,1.));
#1116 = PLANE('',#1117);
#1117 = AXIS2_PLACEMENT_3D('',#1118,#1119,#1120);
#1118 = CARTESIAN_POINT('',(-2.18,0.95,0.64));
#1119 = DIRECTION('',(-0.707106781187,0.707106781187,0.));
#1120 = DIRECTION('',(0.,0.,1.));
#1121 = ADVANCED_FACE('',(#1122),#1148,.T.);
#1122 = FACE_BOUND('',#1123,.F.);
#1123 = EDGE_LOOP('',(#1124,#1125,#1126,#1134,#1142));
#1124 = ORIENTED_EDGE('',*,*,#1071,.F.);
#1125 = ORIENTED_EDGE('',*,*,#1048,.T.);
#1126 = ORIENTED_EDGE('',*,*,#1127,.T.);
#1127 = EDGE_CURVE('',#1041,#1128,#1130,.T.);
#1128 = VERTEX_POINT('',#1129);
#1129 = CARTESIAN_POINT('',(-1.86,-1.27,3.84));
#1130 = LINE('',#1131,#1132);
#1131 = CARTESIAN_POINT('',(-1.8725,-1.2575,3.84));
#1132 = VECTOR('',#1133,1.);
#1133 = DIRECTION('',(0.707106781187,-0.707106781187,0.));
#1134 = ORIENTED_EDGE('',*,*,#1135,.F.);
#1135 = EDGE_CURVE('',#1136,#1128,#1138,.T.);
#1136 = VERTEX_POINT('',#1137);
#1137 = CARTESIAN_POINT('',(-1.86,-1.27,1.28));
#1138 = LINE('',#1139,#1140);
#1139 = CARTESIAN_POINT('',(-1.86,-1.27,0.64));
#1140 = VECTOR('',#1141,1.);
#1141 = DIRECTION('',(0.,0.,1.));
#1142 = ORIENTED_EDGE('',*,*,#1143,.F.);
#1143 = EDGE_CURVE('',#1072,#1136,#1144,.T.);
#1144 = LINE('',#1145,#1146);
#1145 = CARTESIAN_POINT('',(-1.86,-1.27,0.64));
#1146 = VECTOR('',#1147,1.);
#1147 = DIRECTION('',(0.,0.,1.));
#1148 = PLANE('',#1149);
#1149 = AXIS2_PLACEMENT_3D('',#1150,#1151,#1152);
#1150 = CARTESIAN_POINT('',(-2.18,-0.95,0.64));
#1151 = DIRECTION('',(-0.707106781187,-0.707106781187,0.));
#1152 = DIRECTION('',(-0.,-0.,-1.));
#1153 = ADVANCED_FACE('',(#1154),#1197,.T.);
#1154 = FACE_BOUND('',#1155,.T.);
#1155 = EDGE_LOOP('',(#1156,#1157,#1158,#1166,#1174,#1182,#1190,#1196));
#1156 = ORIENTED_EDGE('',*,*,#1040,.T.);
#1157 = ORIENTED_EDGE('',*,*,#1127,.T.);
#1158 = ORIENTED_EDGE('',*,*,#1159,.T.);
#1159 = EDGE_CURVE('',#1128,#1160,#1162,.T.);
#1160 = VERTEX_POINT('',#1161);
#1161 = CARTESIAN_POINT('',(1.86,-1.27,3.84));
#1162 = LINE('',#1163,#1164);
#1163 = CARTESIAN_POINT('',(-2.5,-1.27,3.84));
#1164 = VECTOR('',#1165,1.);
#1165 = DIRECTION('',(1.,0.,0.));
#1166 = ORIENTED_EDGE('',*,*,#1167,.T.);
#1167 = EDGE_CURVE('',#1160,#1168,#1170,.T.);
#1168 = VERTEX_POINT('',#1169);
#1169 = CARTESIAN_POINT('',(2.5,-0.63,3.84));
#1170 = LINE('',#1171,#1172);
#1171 = CARTESIAN_POINT('',(1.8725,-1.2575,3.84));
#1172 = VECTOR('',#1173,1.);
#1173 = DIRECTION('',(0.707106781187,0.707106781187,0.));
#1174 = ORIENTED_EDGE('',*,*,#1175,.T.);
#1175 = EDGE_CURVE('',#1168,#1176,#1178,.T.);
#1176 = VERTEX_POINT('',#1177);
#1177 = CARTESIAN_POINT('',(2.5,0.63,3.84));
#1178 = LINE('',#1179,#1180);
#1179 = CARTESIAN_POINT('',(2.5,-1.27,3.84));
#1180 = VECTOR('',#1181,1.);
#1181 = DIRECTION('',(0.,1.,0.));
#1182 = ORIENTED_EDGE('',*,*,#1183,.T.);
#1183 = EDGE_CURVE('',#1176,#1184,#1186,.T.);
#1184 = VERTEX_POINT('',#1185);
#1185 = CARTESIAN_POINT('',(1.86,1.27,3.84));
#1186 = LINE('',#1187,#1188);
#1187 = CARTESIAN_POINT('',(1.8725,1.2575,3.84));
#1188 = VECTOR('',#1189,1.);
#1189 = DIRECTION('',(-0.707106781187,0.707106781187,0.));
#1190 = ORIENTED_EDGE('',*,*,#1191,.T.);
#1191 = EDGE_CURVE('',#1184,#1096,#1192,.T.);
#1192 = LINE('',#1193,#1194);
#1193 = CARTESIAN_POINT('',(2.5,1.27,3.84));
#1194 = VECTOR('',#1195,1.);
#1195 = DIRECTION('',(-1.,0.,0.));
#1196 = ORIENTED_EDGE('',*,*,#1095,.F.);
#1197 = PLANE('',#1198);
#1198 = AXIS2_PLACEMENT_3D('',#1199,#1200,#1201);
#1199 = CARTESIAN_POINT('',(0.,0.,3.84));
#1200 = DIRECTION('',(0.,0.,1.));
#1201 = DIRECTION('',(1.,0.,0.));
#1202 = ADVANCED_FACE('',(#1203),#1214,.T.);
#1203 = FACE_BOUND('',#1204,.T.);
#1204 = EDGE_LOOP('',(#1205,#1206,#1212,#1213));
#1205 = ORIENTED_EDGE('',*,*,#1111,.T.);
#1206 = ORIENTED_EDGE('',*,*,#1207,.T.);
#1207 = EDGE_CURVE('',#1104,#1136,#1208,.T.);
#1208 = LINE('',#1209,#1210);
#1209 = CARTESIAN_POINT('',(-1.86,1.27,1.28));
#1210 = VECTOR('',#1211,1.);
#1211 = DIRECTION('',(0.,-1.,0.));
#1212 = ORIENTED_EDGE('',*,*,#1143,.F.);
#1213 = ORIENTED_EDGE('',*,*,#1079,.F.);
#1214 = PLANE('',#1215);
#1215 = AXIS2_PLACEMENT_3D('',#1216,#1217,#1218);
#1216 = CARTESIAN_POINT('',(-1.86,1.27,0.64));
#1217 = DIRECTION('',(1.,0.,0.));
#1218 = DIRECTION('',(0.,-1.,0.));
#1219 = ADVANCED_FACE('',(#1220),#1238,.F.);
#1220 = FACE_BOUND('',#1221,.F.);
#1221 = EDGE_LOOP('',(#1222,#1230,#1236,#1237));
#1222 = ORIENTED_EDGE('',*,*,#1223,.F.);
#1223 = EDGE_CURVE('',#1224,#1104,#1226,.T.);
#1224 = VERTEX_POINT('',#1225);
#1225 = CARTESIAN_POINT('',(1.86,1.27,1.28));
#1226 = LINE('',#1227,#1228);
#1227 = CARTESIAN_POINT('',(1.86,1.27,1.28));
#1228 = VECTOR('',#1229,1.);
#1229 = DIRECTION('',(-1.,0.,0.));
#1230 = ORIENTED_EDGE('',*,*,#1231,.T.);
#1231 = EDGE_CURVE('',#1224,#1184,#1232,.T.);
#1232 = LINE('',#1233,#1234);
#1233 = CARTESIAN_POINT('',(1.86,1.27,0.64));
#1234 = VECTOR('',#1235,1.);
#1235 = DIRECTION('',(0.,0.,1.));
#1236 = ORIENTED_EDGE('',*,*,#1191,.T.);
#1237 = ORIENTED_EDGE('',*,*,#1103,.F.);
#1238 = PLANE('',#1239);
#1239 = AXIS2_PLACEMENT_3D('',#1240,#1241,#1242);
#1240 = CARTESIAN_POINT('',(2.5,1.27,0.64));
#1241 = DIRECTION('',(0.,-1.,0.));
#1242 = DIRECTION('',(-1.,0.,0.));
#1243 = ADVANCED_FACE('',(#1244),#1262,.F.);
#1244 = FACE_BOUND('',#1245,.F.);
#1245 = EDGE_LOOP('',(#1246,#1254,#1255,#1256));
#1246 = ORIENTED_EDGE('',*,*,#1247,.F.);
#1247 = EDGE_CURVE('',#1136,#1248,#1250,.T.);
#1248 = VERTEX_POINT('',#1249);
#1249 = CARTESIAN_POINT('',(1.86,-1.27,1.28));
#1250 = LINE('',#1251,#1252);
#1251 = CARTESIAN_POINT('',(-1.86,-1.27,1.28));
#1252 = VECTOR('',#1253,1.);
#1253 = DIRECTION('',(1.,0.,0.));
#1254 = ORIENTED_EDGE('',*,*,#1135,.T.);
#1255 = ORIENTED_EDGE('',*,*,#1159,.T.);
#1256 = ORIENTED_EDGE('',*,*,#1257,.F.);
#1257 = EDGE_CURVE('',#1248,#1160,#1258,.T.);
#1258 = LINE('',#1259,#1260);
#1259 = CARTESIAN_POINT('',(1.86,-1.27,0.64));
#1260 = VECTOR('',#1261,1.);
#1261 = DIRECTION('',(0.,0.,1.));
#1262 = PLANE('',#1263);
#1263 = AXIS2_PLACEMENT_3D('',#1264,#1265,#1266);
#1264 = CARTESIAN_POINT('',(-2.5,-1.27,0.64));
#1265 = DIRECTION('',(0.,1.,0.));
#1266 = DIRECTION('',(1.,0.,0.));
#1267 = ADVANCED_FACE('',(#1268),#1294,.T.);
#1268 = FACE_BOUND('',#1269,.F.);
#1269 = EDGE_LOOP('',(#1270,#1280,#1286,#1287,#1288));
#1270 = ORIENTED_EDGE('',*,*,#1271,.F.);
#1271 = EDGE_CURVE('',#1272,#1274,#1276,.T.);
#1272 = VERTEX_POINT('',#1273);
#1273 = CARTESIAN_POINT('',(2.5,0.63,0.64));
#1274 = VERTEX_POINT('',#1275);
#1275 = CARTESIAN_POINT('',(1.86,1.27,0.64));
#1276 = LINE('',#1277,#1278);
#1277 = CARTESIAN_POINT('',(1.8725,1.2575,0.64));
#1278 = VECTOR('',#1279,1.);
#1279 = DIRECTION('',(-0.707106781187,0.707106781187,0.));
#1280 = ORIENTED_EDGE('',*,*,#1281,.T.);
#1281 = EDGE_CURVE('',#1272,#1176,#1282,.T.);
#1282 = LINE('',#1283,#1284);
#1283 = CARTESIAN_POINT('',(2.5,0.63,0.64));
#1284 = VECTOR('',#1285,1.);
#1285 = DIRECTION('',(0.,0.,1.));
#1286 = ORIENTED_EDGE('',*,*,#1183,.T.);
#1287 = ORIENTED_EDGE('',*,*,#1231,.F.);
#1288 = ORIENTED_EDGE('',*,*,#1289,.F.);
#1289 = EDGE_CURVE('',#1274,#1224,#1290,.T.);
#1290 = LINE('',#1291,#1292);
#1291 = CARTESIAN_POINT('',(1.86,1.27,0.64));
#1292 = VECTOR('',#1293,1.);
#1293 = DIRECTION('',(0.,0.,1.));
#1294 = PLANE('',#1295);
#1295 = AXIS2_PLACEMENT_3D('',#1296,#1297,#1298);
#1296 = CARTESIAN_POINT('',(2.18,0.95,0.64));
#1297 = DIRECTION('',(0.707106781187,0.707106781187,0.));
#1298 = DIRECTION('',(0.,0.,-1.));
#1299 = ADVANCED_FACE('',(#1300),#1326,.T.);
#1300 = FACE_BOUND('',#1301,.F.);
#1301 = EDGE_LOOP('',(#1302,#1312,#1318,#1319,#1320));
#1302 = ORIENTED_EDGE('',*,*,#1303,.F.);
#1303 = EDGE_CURVE('',#1304,#1306,#1308,.T.);
#1304 = VERTEX_POINT('',#1305);
#1305 = CARTESIAN_POINT('',(1.86,-1.27,0.64));
#1306 = VERTEX_POINT('',#1307);
#1307 = CARTESIAN_POINT('',(2.5,-0.63,0.64));
#1308 = LINE('',#1309,#1310);
#1309 = CARTESIAN_POINT('',(1.8725,-1.2575,0.64));
#1310 = VECTOR('',#1311,1.);
#1311 = DIRECTION('',(0.707106781187,0.707106781187,0.));
#1312 = ORIENTED_EDGE('',*,*,#1313,.T.);
#1313 = EDGE_CURVE('',#1304,#1248,#1314,.T.);
#1314 = LINE('',#1315,#1316);
#1315 = CARTESIAN_POINT('',(1.86,-1.27,0.64));
#1316 = VECTOR('',#1317,1.);
#1317 = DIRECTION('',(0.,0.,1.));
#1318 = ORIENTED_EDGE('',*,*,#1257,.T.);
#1319 = ORIENTED_EDGE('',*,*,#1167,.T.);
#1320 = ORIENTED_EDGE('',*,*,#1321,.F.);
#1321 = EDGE_CURVE('',#1306,#1168,#1322,.T.);
#1322 = LINE('',#1323,#1324);
#1323 = CARTESIAN_POINT('',(2.5,-0.63,0.64));
#1324 = VECTOR('',#1325,1.);
#1325 = DIRECTION('',(0.,0.,1.));
#1326 = PLANE('',#1327);
#1327 = AXIS2_PLACEMENT_3D('',#1328,#1329,#1330);
#1328 = CARTESIAN_POINT('',(2.18,-0.95,0.64));
#1329 = DIRECTION('',(0.707106781187,-0.707106781187,0.));
#1330 = DIRECTION('',(-0.,-0.,-1.));
#1331 = ADVANCED_FACE('',(#1332),#1343,.F.);
#1332 = FACE_BOUND('',#1333,.F.);
#1333 = EDGE_LOOP('',(#1334,#1340,#1341,#1342));
#1334 = ORIENTED_EDGE('',*,*,#1335,.F.);
#1335 = EDGE_CURVE('',#1306,#1272,#1336,.T.);
#1336 = LINE('',#1337,#1338);
#1337 = CARTESIAN_POINT('',(2.5,-1.27,0.64));
#1338 = VECTOR('',#1339,1.);
#1339 = DIRECTION('',(0.,1.,0.));
#1340 = ORIENTED_EDGE('',*,*,#1321,.T.);
#1341 = ORIENTED_EDGE('',*,*,#1175,.T.);
#1342 = ORIENTED_EDGE('',*,*,#1281,.F.);
#1343 = PLANE('',#1344);
#1344 = AXIS2_PLACEMENT_3D('',#1345,#1346,#1347);
#1345 = CARTESIAN_POINT('',(2.5,-1.27,0.64));
#1346 = DIRECTION('',(-1.,0.,0.));
#1347 = DIRECTION('',(0.,1.,0.));
#1348 = ADVANCED_FACE('',(#1349),#1360,.F.);
#1349 = FACE_BOUND('',#1350,.F.);
#1350 = EDGE_LOOP('',(#1351,#1352,#1358,#1359));
#1351 = ORIENTED_EDGE('',*,*,#1247,.T.);
#1352 = ORIENTED_EDGE('',*,*,#1353,.T.);
#1353 = EDGE_CURVE('',#1248,#1224,#1354,.T.);
#1354 = LINE('',#1355,#1356);
#1355 = CARTESIAN_POINT('',(1.86,-1.27,1.28));
#1356 = VECTOR('',#1357,1.);
#1357 = DIRECTION('',(0.,1.,0.));
#1358 = ORIENTED_EDGE('',*,*,#1223,.T.);
#1359 = ORIENTED_EDGE('',*,*,#1207,.T.);
#1360 = PLANE('',#1361);
#1361 = AXIS2_PLACEMENT_3D('',#1362,#1363,#1364);
#1362 = CARTESIAN_POINT('',(0.,0.,1.28));
#1363 = DIRECTION('',(0.,0.,1.));
#1364 = DIRECTION('',(1.,0.,0.));
#1365 = ADVANCED_FACE('',(#1366),#1377,.F.);
#1366 = FACE_BOUND('',#1367,.F.);
#1367 = EDGE_LOOP('',(#1368,#1369,#1375,#1376));
#1368 = ORIENTED_EDGE('',*,*,#1271,.T.);
#1369 = ORIENTED_EDGE('',*,*,#1370,.F.);
#1370 = EDGE_CURVE('',#1304,#1274,#1371,.T.);
#1371 = LINE('',#1372,#1373);
#1372 = CARTESIAN_POINT('',(1.86,-1.27,0.64));
#1373 = VECTOR('',#1374,1.);
#1374 = DIRECTION('',(0.,1.,0.));
#1375 = ORIENTED_EDGE('',*,*,#1303,.T.);
#1376 = ORIENTED_EDGE('',*,*,#1335,.T.);
#1377 = PLANE('',#1378);
#1378 = AXIS2_PLACEMENT_3D('',#1379,#1380,#1381);
#1379 = CARTESIAN_POINT('',(0.,0.,0.64));
#1380 = DIRECTION('',(0.,0.,1.));
#1381 = DIRECTION('',(1.,0.,0.));
#1382 = ADVANCED_FACE('',(#1383),#1389,.T.);
#1383 = FACE_BOUND('',#1384,.T.);
#1384 = EDGE_LOOP('',(#1385,#1386,#1387,#1388));
#1385 = ORIENTED_EDGE('',*,*,#1313,.T.);
#1386 = ORIENTED_EDGE('',*,*,#1353,.T.);
#1387 = ORIENTED_EDGE('',*,*,#1289,.F.);
#1388 = ORIENTED_EDGE('',*,*,#1370,.F.);
#1389 = PLANE('',#1390);
#1390 = AXIS2_PLACEMENT_3D('',#1391,#1392,#1393);
#1391 = CARTESIAN_POINT('',(1.86,-1.27,0.64));
#1392 = DIRECTION('',(-1.,0.,0.));
#1393 = DIRECTION('',(0.,1.,0.));
#1394 = ( GEOMETRIC_REPRESENTATION_CONTEXT(3) 
GLOBAL_UNCERTAINTY_ASSIGNED_CONTEXT((#1398)) 
GLOBAL_UNIT_ASSIGNED_CONTEXT((#1395,#1396,#1397)) REPRESENTATION_CONTEXT
('Context #1','3D Context with UNIT and UNCERTAINTY') );
#1395 = ( LENGTH_UNIT() NAMED_UNIT(*) SI_UNIT(.MILLI.,.METRE.) );
#1396 = ( NAMED_UNIT(*) PLANE_ANGLE_UNIT() SI_UNIT($,.RADIAN.) );
#1397 = ( NAMED_UNIT(*) SI_UNIT($,.STERADIAN.) SOLID_ANGLE_UNIT() );
#1398 = UNCERTAINTY_MEASURE_WITH_UNIT(LENGTH_MEASURE(1.E-07),#1395,
  'distance_accuracy_value','confusion accuracy');
#1399 = CONTEXT_DEPENDENT_SHAPE_REPRESENTATION(#1400,#1402);
#1400 = ( REPRESENTATION_RELATIONSHIP('','',#1015,#60) 
REPRESENTATION_RELATIONSHIP_WITH_TRANSFORMATION(#1401) 
SHAPE_REPRESENTATION_RELATIONSHIP() );
#1401 = ITEM_DEFINED_TRANSFORMATION('','',#11,#69);
#1402 = PRODUCT_DEFINITION_SHAPE('Placement','Placement of an item',
  #1403);
#1403 = NEXT_ASSEMBLY_USAGE_OCCURRENCE('45','Body-PartBody','',#55,#1010
  ,$);
#1404 = PRODUCT_RELATED_PRODUCT_CATEGORY('part',$,(#1012));
#1405 = SHAPE_DEFINITION_REPRESENTATION(#1406,#1412);
#1406 = PRODUCT_DEFINITION_SHAPE('','',#1407);
#1407 = PRODUCT_DEFINITION('design','',#1408,#1411);
#1408 = PRODUCT_DEFINITION_FORMATION('','',#1409);
#1409 = PRODUCT('LinkGroup001','LinkGroup001','',(#1410));
#1410 = PRODUCT_CONTEXT('',#2,'mechanical');
#1411 = PRODUCT_DEFINITION_CONTEXT('part definition',#2,'design');
#1412 = SHAPE_REPRESENTATION('',(#11,#1413),#1417);
#1413 = AXIS2_PLACEMENT_3D('',#1414,#1415,#1416);
#1414 = CARTESIAN_POINT('',(0.,0.,0.));
#1415 = DIRECTION('',(0.,0.,1.));
#1416 = DIRECTION('',(1.,0.,0.));
#1417 = ( GEOMETRIC_REPRESENTATION_CONTEXT(3) 
GLOBAL_UNCERTAINTY_ASSIGNED_CONTEXT((#1421)) 
GLOBAL_UNIT_ASSIGNED_CONTEXT((#1418,#1419,#1420)) REPRESENTATION_CONTEXT
('Context #1','3D Context with UNIT and UNCERTAINTY') );
#1418 = ( LENGTH_UNIT() NAMED_UNIT(*) SI_UNIT(.MILLI.,.METRE.) );
#1419 = ( NAMED_UNIT(*) PLANE_ANGLE_UNIT() SI_UNIT($,.RADIAN.) );
#1420 = ( NAMED_UNIT(*) SI_UNIT($,.STERADIAN.) SOLID_ANGLE_UNIT() );
#1421 = UNCERTAINTY_MEASURE_WITH_UNIT(LENGTH_MEASURE(1.E-07),#1418,
  'distance_accuracy_value','confusion accuracy');
#1422 = CONTEXT_DEPENDENT_SHAPE_REPRESENTATION(#1423,#1425);
#1423 = ( REPRESENTATION_RELATIONSHIP('','',#1412,#10) 
REPRESENTATION_RELATIONSHIP_WITH_TRANSFORMATION(#1424) 
SHAPE_REPRESENTATION_RELATIONSHIP() );
#1424 = ITEM_DEFINED_TRANSFORMATION('','',#11,#19);
#1425 = PRODUCT_DEFINITION_SHAPE('Placement','Placement of an item',
  #1426);
#1426 = NEXT_ASSEMBLY_USAGE_OCCURRENCE('51','LinkGroup001','',#5,#1407,$
  );
#1427 = PRODUCT_RELATED_PRODUCT_CATEGORY('part',$,(#1409));
#1428 = SHAPE_DEFINITION_REPRESENTATION(#1429,#1435);
#1429 = PRODUCT_DEFINITION_SHAPE('','',#1430);
#1430 = PRODUCT_DEFINITION('design','',#1431,#1434);
#1431 = PRODUCT_DEFINITION_FORMATION('','',#1432);
#1432 = PRODUCT('Header','Header','',(#1433));
#1433 = PRODUCT_CONTEXT('',#2,'mechanical');
#1434 = PRODUCT_DEFINITION_CONTEXT('part definition',#2,'design');
#1435 = SHAPE_REPRESENTATION('',(#11,#1436,#1440,#1444),#1448);
#1436 = AXIS2_PLACEMENT_3D('',#1437,#1438,#1439);
#1437 = CARTESIAN_POINT('',(0.,0.,0.));
#1438 = DIRECTION('',(0.,0.,1.));
#1439 = DIRECTION('',(1.,0.,0.));
#1440 = AXIS2_PLACEMENT_3D('',#1441,#1442,#1443);
#1441 = CARTESIAN_POINT('',(0.,0.,0.));
#1442 = DIRECTION('',(0.,0.,1.));
#1443 = DIRECTION('',(-1.,0.,0.));
#1444 = AXIS2_PLACEMENT_3D('',#1445,#1446,#1447);
#1445 = CARTESIAN_POINT('',(0.,0.,0.));
#1446 = DIRECTION('',(0.,0.,1.));
#1447 = DIRECTION('',(1.,0.,0.));
#1448 = ( GEOMETRIC_REPRESENTATION_CONTEXT(3) 
GLOBAL_UNCERTAINTY_ASSIGNED_CONTEXT((#1452)) 
GLOBAL_UNIT_ASSIGNED_CONTEXT((#1449,#1450,#1451)) REPRESENTATION_CONTEXT
('Context #1','3D Context with UNIT and UNCERTAINTY') );
#1449 = ( LENGTH_UNIT() NAMED_UNIT(*) SI_UNIT(.MILLI.,.METRE.) );
#1450 = ( NAMED_UNIT(*) PLANE_ANGLE_UNIT() SI_UNIT($,.RADIAN.) );
#1451 = ( NAMED_UNIT(*) SI_UNIT($,.STERADIAN.) SOLID_ANGLE_UNIT() );
#1452 = UNCERTAINTY_MEASURE_WITH_UNIT(LENGTH_MEASURE(1.E-07),#1449,
  'distance_accuracy_value','confusion accuracy');
#1453 = CONTEXT_DEPENDENT_SHAPE_REPRESENTATION(#1454,#1456);
#1454 = ( REPRESENTATION_RELATIONSHIP('','',#1435,#1412) 
REPRESENTATION_RELATIONSHIP_WITH_TRANSFORMATION(#1455) 
SHAPE_REPRESENTATION_RELATIONSHIP() );
#1455 = ITEM_DEFINED_TRANSFORMATION('','',#11,#1413);
#1456 = PRODUCT_DEFINITION_SHAPE('Placement','Placement of an item',
  #1457);
#1457 = NEXT_ASSEMBLY_USAGE_OCCURRENCE('50','Header001','',#1407,#1430,$
  );
#1458 = PRODUCT_RELATED_PRODUCT_CATEGORY('part',$,(#1432));
#1459 = CONTEXT_DEPENDENT_SHAPE_REPRESENTATION(#1460,#1462);
#1460 = ( REPRESENTATION_RELATIONSHIP('','',#91,#1435) 
REPRESENTATION_RELATIONSHIP_WITH_TRANSFORMATION(#1461) 
SHAPE_REPRESENTATION_RELATIONSHIP() );
#1461 = ITEM_DEFINED_TRANSFORMATION('','',#11,#1436);
#1462 = PRODUCT_DEFINITION_SHAPE('Placement','Placement of an item',
  #1463);
#1463 = NEXT_ASSEMBLY_USAGE_OCCURRENCE('47','','',#1430,#86,$);
#1464 = CONTEXT_DEPENDENT_SHAPE_REPRESENTATION(#1465,#1467);
#1465 = ( REPRESENTATION_RELATIONSHIP('','',#553,#1435) 
REPRESENTATION_RELATIONSHIP_WITH_TRANSFORMATION(#1466) 
SHAPE_REPRESENTATION_RELATIONSHIP() );
#1466 = ITEM_DEFINED_TRANSFORMATION('','',#11,#1440);
#1467 = PRODUCT_DEFINITION_SHAPE('Placement','Placement of an item',
  #1468);
#1468 = NEXT_ASSEMBLY_USAGE_OCCURRENCE('48','','',#1430,#548,$);
#1469 = CONTEXT_DEPENDENT_SHAPE_REPRESENTATION(#1470,#1472);
#1470 = ( REPRESENTATION_RELATIONSHIP('','',#1015,#1435) 
REPRESENTATION_RELATIONSHIP_WITH_TRANSFORMATION(#1471) 
SHAPE_REPRESENTATION_RELATIONSHIP() );
#1471 = ITEM_DEFINED_TRANSFORMATION('','',#11,#1444);
#1472 = PRODUCT_DEFINITION_SHAPE('Placement','Placement of an item',
  #1473);
#1473 = NEXT_ASSEMBLY_USAGE_OCCURRENCE('49','','',#1430,#1010,$);
#1474 = SHAPE_DEFINITION_REPRESENTATION(#1475,#1481);
#1475 = PRODUCT_DEFINITION_SHAPE('','',#1476);
#1476 = PRODUCT_DEFINITION('design','',#1477,#1480);
#1477 = PRODUCT_DEFINITION_FORMATION('','',#1478);
#1478 = PRODUCT('LinkGroup003','LinkGroup003','',(#1479));
#1479 = PRODUCT_CONTEXT('',#2,'mechanical');
#1480 = PRODUCT_DEFINITION_CONTEXT('part definition',#2,'design');
#1481 = SHAPE_REPRESENTATION('',(#11,#1482),#1486);
#1482 = AXIS2_PLACEMENT_3D('',#1483,#1484,#1485);
#1483 = CARTESIAN_POINT('',(0.,2.54,0.));
#1484 = DIRECTION('',(0.,0.,1.));
#1485 = DIRECTION('',(1.,0.,0.));
#1486 = ( GEOMETRIC_REPRESENTATION_CONTEXT(3) 
GLOBAL_UNCERTAINTY_ASSIGNED_CONTEXT((#1490)) 
GLOBAL_UNIT_ASSIGNED_CONTEXT((#1487,#1488,#1489)) REPRESENTATION_CONTEXT
('Context #1','3D Context with UNIT and UNCERTAINTY') );
#1487 = ( LENGTH_UNIT() NAMED_UNIT(*) SI_UNIT(.MILLI.,.METRE.) );
#1488 = ( NAMED_UNIT(*) PLANE_ANGLE_UNIT() SI_UNIT($,.RADIAN.) );
#1489 = ( NAMED_UNIT(*) SI_UNIT($,.STERADIAN.) SOLID_ANGLE_UNIT() );
#1490 = UNCERTAINTY_MEASURE_WITH_UNIT(LENGTH_MEASURE(1.E-07),#1487,
  'distance_accuracy_value','confusion accuracy');
#1491 = CONTEXT_DEPENDENT_SHAPE_REPRESENTATION(#1492,#1494);
#1492 = ( REPRESENTATION_RELATIONSHIP('','',#1481,#10) 
REPRESENTATION_RELATIONSHIP_WITH_TRANSFORMATION(#1493) 
SHAPE_REPRESENTATION_RELATIONSHIP() );
#1493 = ITEM_DEFINED_TRANSFORMATION('','',#11,#23);
#1494 = PRODUCT_DEFINITION_SHAPE('Placement','Placement of an item',
  #1495);
#1495 = NEXT_ASSEMBLY_USAGE_OCCURRENCE('53','LinkGroup003','',#5,#1476,$
  );
#1496 = PRODUCT_RELATED_PRODUCT_CATEGORY('part',$,(#1478));
#1497 = CONTEXT_DEPENDENT_SHAPE_REPRESENTATION(#1498,#1500);
#1498 = ( REPRESENTATION_RELATIONSHIP('','',#1412,#1481) 
REPRESENTATION_RELATIONSHIP_WITH_TRANSFORMATION(#1499) 
SHAPE_REPRESENTATION_RELATIONSHIP() );
#1499 = ITEM_DEFINED_TRANSFORMATION('','',#11,#1482);
#1500 = PRODUCT_DEFINITION_SHAPE('Placement','Placement of an item',
  #1501);
#1501 = NEXT_ASSEMBLY_USAGE_OCCURRENCE('52','LinkGroup002','',#1476,
  #1407,$);
#1502 = SHAPE_DEFINITION_REPRESENTATION(#1503,#1509);
#1503 = PRODUCT_DEFINITION_SHAPE('','',#1504);
#1504 = PRODUCT_DEFINITION('design','',#1505,#1508);
#1505 = PRODUCT_DEFINITION_FORMATION('','',#1506);
#1506 = PRODUCT('LinkGroup004','LinkGroup004','',(#1507));
#1507 = PRODUCT_CONTEXT('',#2,'mechanical');
#1508 = PRODUCT_DEFINITION_CONTEXT('part definition',#2,'design');
#1509 = SHAPE_REPRESENTATION('',(#11,#1510),#1514);
#1510 = AXIS2_PLACEMENT_3D('',#1511,#1512,#1513);
#1511 = CARTESIAN_POINT('',(0.,2.54,0.));
#1512 = DIRECTION('',(0.,0.,1.));
#1513 = DIRECTION('',(1.,0.,0.));
#1514 = ( GEOMETRIC_REPRESENTATION_CONTEXT(3) 
GLOBAL_UNCERTAINTY_ASSIGNED_CONTEXT((#1518)) 
GLOBAL_UNIT_ASSIGNED_CONTEXT((#1515,#1516,#1517)) REPRESENTATION_CONTEXT
('Context #1','3D Context with UNIT and UNCERTAINTY') );
#1515 = ( LENGTH_UNIT() NAMED_UNIT(*) SI_UNIT(.MILLI.,.METRE.) );
#1516 = ( NAMED_UNIT(*) PLANE_ANGLE_UNIT() SI_UNIT($,.RADIAN.) );
#1517 = ( NAMED_UNIT(*) SI_UNIT($,.STERADIAN.) SOLID_ANGLE_UNIT() );
#1518 = UNCERTAINTY_MEASURE_WITH_UNIT(LENGTH_MEASURE(1.E-07),#1515,
  'distance_accuracy_value','confusion accuracy');
#1519 = CONTEXT_DEPENDENT_SHAPE_REPRESENTATION(#1520,#1522);
#1520 = ( REPRESENTATION_RELATIONSHIP('','',#1509,#10) 
REPRESENTATION_RELATIONSHIP_WITH_TRANSFORMATION(#1521) 
SHAPE_REPRESENTATION_RELATIONSHIP() );
#1521 = ITEM_DEFINED_TRANSFORMATION('','',#11,#27);
#1522 = PRODUCT_DEFINITION_SHAPE('Placement','Placement of an item',
  #1523);
#1523 = NEXT_ASSEMBLY_USAGE_OCCURRENCE('55','LinkGroup004','',#5,#1504,$
  );
#1524 = PRODUCT_RELATED_PRODUCT_CATEGORY('part',$,(#1506));
#1525 = CONTEXT_DEPENDENT_SHAPE_REPRESENTATION(#1526,#1528);
#1526 = ( REPRESENTATION_RELATIONSHIP('','',#1481,#1509) 
REPRESENTATION_RELATIONSHIP_WITH_TRANSFORMATION(#1527) 
SHAPE_REPRESENTATION_RELATIONSHIP() );
#1527 = ITEM_DEFINED_TRANSFORMATION('','',#11,#1510);
#1528 = PRODUCT_DEFINITION_SHAPE('Placement','Placement of an item',
  #1529);
#1529 = NEXT_ASSEMBLY_USAGE_OCCURRENCE('54','LinkGroup005','',#1504,
  #1476,$);
#1530 = SHAPE_DEFINITION_REPRESENTATION(#1531,#1537);
#1531 = PRODUCT_DEFINITION_SHAPE('','',#1532);
#1532 = PRODUCT_DEFINITION('design','',#1533,#1536);
#1533 = PRODUCT_DEFINITION_FORMATION('','',#1534);
#1534 = PRODUCT('LinkGroup006','LinkGroup006','',(#1535));
#1535 = PRODUCT_CONTEXT('',#2,'mechanical');
#1536 = PRODUCT_DEFINITION_CONTEXT('part definition',#2,'design');
#1537 = SHAPE_REPRESENTATION('',(#11,#1538),#1542);
#1538 = AXIS2_PLACEMENT_3D('',#1539,#1540,#1541);
#1539 = CARTESIAN_POINT('',(0.,2.54,0.));
#1540 = DIRECTION('',(0.,0.,1.));
#1541 = DIRECTION('',(1.,0.,0.));
#1542 = ( GEOMETRIC_REPRESENTATION_CONTEXT(3) 
GLOBAL_UNCERTAINTY_ASSIGNED_CONTEXT((#1546)) 
GLOBAL_UNIT_ASSIGNED_CONTEXT((#1543,#1544,#1545)) REPRESENTATION_CONTEXT
('Context #1','3D Context with UNIT and UNCERTAINTY') );
#1543 = ( LENGTH_UNIT() NAMED_UNIT(*) SI_UNIT(.MILLI.,.METRE.) );
#1544 = ( NAMED_UNIT(*) PLANE_ANGLE_UNIT() SI_UNIT($,.RADIAN.) );
#1545 = ( NAMED_UNIT(*) SI_UNIT($,.STERADIAN.) SOLID_ANGLE_UNIT() );
#1546 = UNCERTAINTY_MEASURE_WITH_UNIT(LENGTH_MEASURE(1.E-07),#1543,
  'distance_accuracy_value','confusion accuracy');
#1547 = CONTEXT_DEPENDENT_SHAPE_REPRESENTATION(#1548,#1550);
#1548 = ( REPRESENTATION_RELATIONSHIP('','',#1537,#10) 
REPRESENTATION_RELATIONSHIP_WITH_TRANSFORMATION(#1549) 
SHAPE_REPRESENTATION_RELATIONSHIP() );
#1549 = ITEM_DEFINED_TRANSFORMATION('','',#11,#31);
#1550 = PRODUCT_DEFINITION_SHAPE('Placement','Placement of an item',
  #1551);
#1551 = NEXT_ASSEMBLY_USAGE_OCCURRENCE('57','LinkGroup006','',#5,#1532,$
  );
#1552 = PRODUCT_RELATED_PRODUCT_CATEGORY('part',$,(#1534));
#1553 = CONTEXT_DEPENDENT_SHAPE_REPRESENTATION(#1554,#1556);
#1554 = ( REPRESENTATION_RELATIONSHIP('','',#1509,#1537) 
REPRESENTATION_RELATIONSHIP_WITH_TRANSFORMATION(#1555) 
SHAPE_REPRESENTATION_RELATIONSHIP() );
#1555 = ITEM_DEFINED_TRANSFORMATION('','',#11,#1538);
#1556 = PRODUCT_DEFINITION_SHAPE('Placement','Placement of an item',
  #1557);
#1557 = NEXT_ASSEMBLY_USAGE_OCCURRENCE('56','LinkGroup007','',#1532,
  #1504,$);
#1558 = SHAPE_DEFINITION_REPRESENTATION(#1559,#1565);
#1559 = PRODUCT_DEFINITION_SHAPE('','',#1560);
#1560 = PRODUCT_DEFINITION('design','',#1561,#1564);
#1561 = PRODUCT_DEFINITION_FORMATION('','',#1562);
#1562 = PRODUCT('LinkGroup008','LinkGroup008','',(#1563));
#1563 = PRODUCT_CONTEXT('',#2,'mechanical');
#1564 = PRODUCT_DEFINITION_CONTEXT('part definition',#2,'design');
#1565 = SHAPE_REPRESENTATION('',(#11,#1566),#1570);
#1566 = AXIS2_PLACEMENT_3D('',#1567,#1568,#1569);
#1567 = CARTESIAN_POINT('',(0.,2.54,0.));
#1568 = DIRECTION('',(0.,0.,1.));
#1569 = DIRECTION('',(1.,0.,0.));
#1570 = ( GEOMETRIC_REPRESENTATION_CONTEXT(3) 
GLOBAL_UNCERTAINTY_ASSIGNED_CONTEXT((#1574)) 
GLOBAL_UNIT_ASSIGNED_CONTEXT((#1571,#1572,#1573)) REPRESENTATION_CONTEXT
('Context #1','3D Context with UNIT and UNCERTAINTY') );
#1571 = ( LENGTH_UNIT() NAMED_UNIT(*) SI_UNIT(.MILLI.,.METRE.) );
#1572 = ( NAMED_UNIT(*) PLANE_ANGLE_UNIT() SI_UNIT($,.RADIAN.) );
#1573 = ( NAMED_UNIT(*) SI_UNIT($,.STERADIAN.) SOLID_ANGLE_UNIT() );
#1574 = UNCERTAINTY_MEASURE_WITH_UNIT(LENGTH_MEASURE(1.E-07),#1571,
  'distance_accuracy_value','confusion accuracy');
#1575 = CONTEXT_DEPENDENT_SHAPE_REPRESENTATION(#1576,#1578);
#1576 = ( REPRESENTATION_RELATIONSHIP('','',#1565,#10) 
REPRESENTATION_RELATIONSHIP_WITH_TRANSFORMATION(#1577) 
SHAPE_REPRESENTATION_RELATIONSHIP() );
#1577 = ITEM_DEFINED_TRANSFORMATION('','',#11,#35);
#1578 = PRODUCT_DEFINITION_SHAPE('Placement','Placement of an item',
  #1579);
#1579 = NEXT_ASSEMBLY_USAGE_OCCURRENCE('59','LinkGroup008','',#5,#1560,$
  );
#1580 = PRODUCT_RELATED_PRODUCT_CATEGORY('part',$,(#1562));
#1581 = CONTEXT_DEPENDENT_SHAPE_REPRESENTATION(#1582,#1584);
#1582 = ( REPRESENTATION_RELATIONSHIP('','',#1537,#1565) 
REPRESENTATION_RELATIONSHIP_WITH_TRANSFORMATION(#1583) 
SHAPE_REPRESENTATION_RELATIONSHIP() );
#1583 = ITEM_DEFINED_TRANSFORMATION('','',#11,#1566);
#1584 = PRODUCT_DEFINITION_SHAPE('Placement','Placement of an item',
  #1585);
#1585 = NEXT_ASSEMBLY_USAGE_OCCURRENCE('58','LinkGroup009','',#1560,
  #1532,$);
#1586 = SHAPE_DEFINITION_REPRESENTATION(#1587,#1593);
#1587 = PRODUCT_DEFINITION_SHAPE('','',#1588);
#1588 = PRODUCT_DEFINITION('design','',#1589,#1592);
#1589 = PRODUCT_DEFINITION_FORMATION('','',#1590);
#1590 = PRODUCT('LinkGroup010','LinkGroup010','',(#1591));
#1591 = PRODUCT_CONTEXT('',#2,'mechanical');
#1592 = PRODUCT_DEFINITION_CONTEXT('part definition',#2,'design');
#1593 = SHAPE_REPRESENTATION('',(#11,#1594),#1598);
#1594 = AXIS2_PLACEMENT_3D('',#1595,#1596,#1597);
#1595 = CARTESIAN_POINT('',(0.,2.54,0.));
#1596 = DIRECTION('',(0.,0.,1.));
#1597 = DIRECTION('',(1.,0.,0.));
#1598 = ( GEOMETRIC_REPRESENTATION_CONTEXT(3) 
GLOBAL_UNCERTAINTY_ASSIGNED_CONTEXT((#1602)) 
GLOBAL_UNIT_ASSIGNED_CONTEXT((#1599,#1600,#1601)) REPRESENTATION_CONTEXT
('Context #1','3D Context with UNIT and UNCERTAINTY') );
#1599 = ( LENGTH_UNIT() NAMED_UNIT(*) SI_UNIT(.MILLI.,.METRE.) );
#1600 = ( NAMED_UNIT(*) PLANE_ANGLE_UNIT() SI_UNIT($,.RADIAN.) );
#1601 = ( NAMED_UNIT(*) SI_UNIT($,.STERADIAN.) SOLID_ANGLE_UNIT() );
#1602 = UNCERTAINTY_MEASURE_WITH_UNIT(LENGTH_MEASURE(1.E-07),#1599,
  'distance_accuracy_value','confusion accuracy');
#1603 = CONTEXT_DEPENDENT_SHAPE_REPRESENTATION(#1604,#1606);
#1604 = ( REPRESENTATION_RELATIONSHIP('','',#1593,#10) 
REPRESENTATION_RELATIONSHIP_WITH_TRANSFORMATION(#1605) 
SHAPE_REPRESENTATION_RELATIONSHIP() );
#1605 = ITEM_DEFINED_TRANSFORMATION('','',#11,#39);
#1606 = PRODUCT_DEFINITION_SHAPE('Placement','Placement of an item',
  #1607);
#1607 = NEXT_ASSEMBLY_USAGE_OCCURRENCE('61','LinkGroup010','',#5,#1588,$
  );
#1608 = PRODUCT_RELATED_PRODUCT_CATEGORY('part',$,(#1590));
#1609 = CONTEXT_DEPENDENT_SHAPE_REPRESENTATION(#1610,#1612);
#1610 = ( REPRESENTATION_RELATIONSHIP('','',#1565,#1593) 
REPRESENTATION_RELATIONSHIP_WITH_TRANSFORMATION(#1611) 
SHAPE_REPRESENTATION_RELATIONSHIP() );
#1611 = ITEM_DEFINED_TRANSFORMATION('','',#11,#1594);
#1612 = PRODUCT_DEFINITION_SHAPE('Placement','Placement of an item',
  #1613);
#1613 = NEXT_ASSEMBLY_USAGE_OCCURRENCE('60','LinkGroup011','',#1588,
  #1560,$);
#1614 = SHAPE_DEFINITION_REPRESENTATION(#1615,#1621);
#1615 = PRODUCT_DEFINITION_SHAPE('','',#1616);
#1616 = PRODUCT_DEFINITION('design','',#1617,#1620);
#1617 = PRODUCT_DEFINITION_FORMATION('','',#1618);
#1618 = PRODUCT('LinkGroup012','LinkGroup012','',(#1619));
#1619 = PRODUCT_CONTEXT('',#2,'mechanical');
#1620 = PRODUCT_DEFINITION_CONTEXT('part definition',#2,'design');
#1621 = SHAPE_REPRESENTATION('',(#11,#1622),#1626);
#1622 = AXIS2_PLACEMENT_3D('',#1623,#1624,#1625);
#1623 = CARTESIAN_POINT('',(0.,2.54,0.));
#1624 = DIRECTION('',(0.,0.,1.));
#1625 = DIRECTION('',(1.,0.,0.));
#1626 = ( GEOMETRIC_REPRESENTATION_CONTEXT(3) 
GLOBAL_UNCERTAINTY_ASSIGNED_CONTEXT((#1630)) 
GLOBAL_UNIT_ASSIGNED_CONTEXT((#1627,#1628,#1629)) REPRESENTATION_CONTEXT
('Context #1','3D Context with UNIT and UNCERTAINTY') );
#1627 = ( LENGTH_UNIT() NAMED_UNIT(*) SI_UNIT(.MILLI.,.METRE.) );
#1628 = ( NAMED_UNIT(*) PLANE_ANGLE_UNIT() SI_UNIT($,.RADIAN.) );
#1629 = ( NAMED_UNIT(*) SI_UNIT($,.STERADIAN.) SOLID_ANGLE_UNIT() );
#1630 = UNCERTAINTY_MEASURE_WITH_UNIT(LENGTH_MEASURE(1.E-07),#1627,
  'distance_accuracy_value','confusion accuracy');
#1631 = CONTEXT_DEPENDENT_SHAPE_REPRESENTATION(#1632,#1634);
#1632 = ( REPRESENTATION_RELATIONSHIP('','',#1621,#10) 
REPRESENTATION_RELATIONSHIP_WITH_TRANSFORMATION(#1633) 
SHAPE_REPRESENTATION_RELATIONSHIP() );
#1633 = ITEM_DEFINED_TRANSFORMATION('','',#11,#43);
#1634 = PRODUCT_DEFINITION_SHAPE('Placement','Placement of an item',
  #1635);
#1635 = NEXT_ASSEMBLY_USAGE_OCCURRENCE('63','LinkGroup012','',#5,#1616,$
  );
#1636 = PRODUCT_RELATED_PRODUCT_CATEGORY('part',$,(#1618));
#1637 = CONTEXT_DEPENDENT_SHAPE_REPRESENTATION(#1638,#1640);
#1638 = ( REPRESENTATION_RELATIONSHIP('','',#1593,#1621) 
REPRESENTATION_RELATIONSHIP_WITH_TRANSFORMATION(#1639) 
SHAPE_REPRESENTATION_RELATIONSHIP() );
#1639 = ITEM_DEFINED_TRANSFORMATION('','',#11,#1622);
#1640 = PRODUCT_DEFINITION_SHAPE('Placement','Placement of an item',
  #1641);
#1641 = NEXT_ASSEMBLY_USAGE_OCCURRENCE('62','LinkGroup013','',#1616,
  #1588,$);
#1642 = MECHANICAL_DESIGN_GEOMETRIC_PRESENTATION_REPRESENTATION('',(
    #1643),#535);
#1643 = STYLED_ITEM('color',(#1644),#92);
#1644 = PRESENTATION_STYLE_ASSIGNMENT((#1645,#1651));
#1645 = SURFACE_STYLE_USAGE(.BOTH.,#1646);
#1646 = SURFACE_SIDE_STYLE('',(#1647));
#1647 = SURFACE_STYLE_FILL_AREA(#1648);
#1648 = FILL_AREA_STYLE('',(#1649));
#1649 = FILL_AREA_STYLE_COLOUR('',#1650);
#1650 = COLOUR_RGB('',0.890196087049,0.862745115625,1.960784362163E-02);
#1651 = CURVE_STYLE('',#1652,POSITIVE_LENGTH_MEASURE(0.1),#1650);
#1652 = DRAUGHTING_PRE_DEFINED_CURVE_FONT('continuous');
#1653 = MECHANICAL_DESIGN_GEOMETRIC_PRESENTATION_REPRESENTATION('',(
    #1654),#1394);
#1654 = STYLED_ITEM('color',(#1655),#1016);
#1655 = PRESENTATION_STYLE_ASSIGNMENT((#1656,#1662));
#1656 = SURFACE_STYLE_USAGE(.BOTH.,#1657);
#1657 = SURFACE_SIDE_STYLE('',(#1658));
#1658 = SURFACE_STYLE_FILL_AREA(#1659);
#1659 = FILL_AREA_STYLE('',(#1660));
#1660 = FILL_AREA_STYLE_COLOUR('',#1661);
#1661 = DRAUGHTING_PRE_DEFINED_COLOUR('black');
#1662 = CURVE_STYLE('',#1663,POSITIVE_LENGTH_MEASURE(0.1),#1664);
#1663 = DRAUGHTING_PRE_DEFINED_CURVE_FONT('continuous');
#1664 = COLOUR_RGB('',9.803921802644E-02,9.803921802644E-02,
  9.803921802644E-02);
#1665 = MECHANICAL_DESIGN_GEOMETRIC_PRESENTATION_REPRESENTATION('',(
    #1666),#997);
#1666 = STYLED_ITEM('color',(#1667),#554);
#1667 = PRESENTATION_STYLE_ASSIGNMENT((#1668,#1673));
#1668 = SURFACE_STYLE_USAGE(.BOTH.,#1669);
#1669 = SURFACE_SIDE_STYLE('',(#1670));
#1670 = SURFACE_STYLE_FILL_AREA(#1671);
#1671 = FILL_AREA_STYLE('',(#1672));
#1672 = FILL_AREA_STYLE_COLOUR('',#1650);
#1673 = CURVE_STYLE('',#1674,POSITIVE_LENGTH_MEASURE(0.1),#1664);
#1674 = DRAUGHTING_PRE_DEFINED_CURVE_FONT('continuous');
ENDSEC;
END-ISO-10303-21;
