ISO-10303-21;
HEADER;
FILE_DESCRIPTION(('FreeCAD Model'),'2;1');
FILE_NAME('Open CASCADE Shape Model','2026-07-06T16:00:47',(''),(''),
  'Open CASCADE STEP processor 7.8','FreeCAD','Unknown');
FILE_SCHEMA(('AUTOMOTIVE_DESIGN { 1 0 10303 214 1 1 1 1 }'));
ENDSEC;
DATA;
#1 = APPLICATION_PROTOCOL_DEFINITION('international standard',
  'automotive_design',2000,#2);
#2 = APPLICATION_CONTEXT(
  'core data for automotive mechanical design processes');
#3 = SHAPE_DEFINITION_REPRESENTATION(#4,#10);
#4 = PRODUCT_DEFINITION_SHAPE('','',#5);
#5 = PRODUCT_DEFINITION('design','',#6,#9);
#6 = PRODUCT_DEFINITION_FORMATION('','',#7);
#7 = PRODUCT('Part','Part','',(#8));
#8 = PRODUCT_CONTEXT('',#2,'mechanical');
#9 = PRODUCT_DEFINITION_CONTEXT('part definition',#2,'design');
#10 = SHAPE_REPRESENTATION('',(#11,#15,#19,#23,#27,#31,#35,#39,#43,#47,
    #51,#55),#59);
#11 = AXIS2_PLACEMENT_3D('',#12,#13,#14);
#12 = CARTESIAN_POINT('',(0.,0.,0.));
#13 = DIRECTION('',(0.,0.,1.));
#14 = DIRECTION('',(1.,0.,-0.));
#15 = AXIS2_PLACEMENT_3D('',#16,#17,#18);
#16 = CARTESIAN_POINT('',(0.,0.,0.));
#17 = DIRECTION('',(0.,0.,1.));
#18 = DIRECTION('',(1.,0.,0.));
#19 = AXIS2_PLACEMENT_3D('',#20,#21,#22);
#20 = CARTESIAN_POINT('',(0.,0.,0.));
#21 = DIRECTION('',(0.,0.,1.));
#22 = DIRECTION('',(1.,0.,0.));
#23 = AXIS2_PLACEMENT_3D('',#24,#25,#26);
#24 = CARTESIAN_POINT('',(0.,0.,0.));
#25 = DIRECTION('',(0.,0.,1.));
#26 = DIRECTION('',(-1.,0.,0.));
#27 = AXIS2_PLACEMENT_3D('',#28,#29,#30);
#28 = CARTESIAN_POINT('',(0.,0.,0.));
#29 = DIRECTION('',(0.,0.,1.));
#30 = DIRECTION('',(-1.,0.,0.));
#31 = AXIS2_PLACEMENT_3D('',#32,#33,#34);
#32 = CARTESIAN_POINT('',(2.54,0.,0.));
#33 = DIRECTION('',(0.,0.,1.));
#34 = DIRECTION('',(1.,0.,0.));
#35 = AXIS2_PLACEMENT_3D('',#36,#37,#38);
#36 = CARTESIAN_POINT('',(2.54,0.,0.));
#37 = DIRECTION('',(0.,0.,1.));
#38 = DIRECTION('',(1.,0.,0.));
#39 = AXIS2_PLACEMENT_3D('',#40,#41,#42);
#40 = CARTESIAN_POINT('',(2.54,0.,0.));
#41 = DIRECTION('',(0.,0.,1.));
#42 = DIRECTION('',(1.,0.,0.));
#43 = AXIS2_PLACEMENT_3D('',#44,#45,#46);
#44 = CARTESIAN_POINT('',(2.54,0.,0.));
#45 = DIRECTION('',(0.,0.,1.));
#46 = DIRECTION('',(1.,0.,0.));
#47 = AXIS2_PLACEMENT_3D('',#48,#49,#50);
#48 = CARTESIAN_POINT('',(2.54,0.,0.));
#49 = DIRECTION('',(0.,0.,1.));
#50 = DIRECTION('',(1.,0.,0.));
#51 = AXIS2_PLACEMENT_3D('',#52,#53,#54);
#52 = CARTESIAN_POINT('',(2.54,0.,0.));
#53 = DIRECTION('',(0.,0.,1.));
#54 = DIRECTION('',(1.,0.,0.));
#55 = AXIS2_PLACEMENT_3D('',#56,#57,#58);
#56 = CARTESIAN_POINT('',(2.54,0.,0.));
#57 = DIRECTION('',(0.,0.,1.));
#58 = DIRECTION('',(1.,0.,0.));
#59 = ( GEOMETRIC_REPRESENTATION_CONTEXT(3) 
GLOBAL_UNCERTAINTY_ASSIGNED_CONTEXT((#63)) GLOBAL_UNIT_ASSIGNED_CONTEXT(
(#60,#61,#62)) REPRESENTATION_CONTEXT('Context #1',
  '3D Context with UNIT and UNCERTAINTY') );
#60 = ( LENGTH_UNIT() NAMED_UNIT(*) SI_UNIT(.MILLI.,.METRE.) );
#61 = ( NAMED_UNIT(*) PLANE_ANGLE_UNIT() SI_UNIT($,.RADIAN.) );
#62 = ( NAMED_UNIT(*) SI_UNIT($,.STERADIAN.) SOLID_ANGLE_UNIT() );
#63 = UNCERTAINTY_MEASURE_WITH_UNIT(LENGTH_MEASURE(5.E-07),#60,
  'distance_accuracy_value','confusion accuracy');
#64 = PRODUCT_RELATED_PRODUCT_CATEGORY('part',$,(#7));
#65 = SHAPE_DEFINITION_REPRESENTATION(#66,#72);
#66 = PRODUCT_DEFINITION_SHAPE('','',#67);
#67 = PRODUCT_DEFINITION('design','',#68,#71);
#68 = PRODUCT_DEFINITION_FORMATION('','',#69);
#69 = PRODUCT('Body-Pin-Origin','Body-Pin-Origin','',(#70));
#70 = PRODUCT_CONTEXT('',#2,'mechanical');
#71 = PRODUCT_DEFINITION_CONTEXT('part definition',#2,'design');
#72 = ADVANCED_BREP_SHAPE_REPRESENTATION('',(#11,#73),#293);
#73 = MANIFOLD_SOLID_BREP('',#74);
#74 = CLOSED_SHELL('',(#75,#115,#164,#189,#213,#247,#264,#281));
#75 = ADVANCED_FACE('',(#76),#110,.F.);
#76 = FACE_BOUND('',#77,.F.);
#77 = EDGE_LOOP('',(#78,#88,#96,#104));
#78 = ORIENTED_EDGE('',*,*,#79,.F.);
#79 = EDGE_CURVE('',#80,#82,#84,.T.);
#80 = VERTEX_POINT('',#81);
#81 = CARTESIAN_POINT('',(-0.27,-1.62,0.));
#82 = VERTEX_POINT('',#83);
#83 = CARTESIAN_POINT('',(-0.27,-3.38,0.));
#84 = LINE('',#85,#86);
#85 = CARTESIAN_POINT('',(-0.27,-1.62,0.));
#86 = VECTOR('',#87,1.);
#87 = DIRECTION('',(0.,-1.,0.));
#88 = ORIENTED_EDGE('',*,*,#89,.T.);
#89 = EDGE_CURVE('',#80,#90,#92,.T.);
#90 = VERTEX_POINT('',#91);
#91 = CARTESIAN_POINT('',(-0.27,-1.62,0.25));
#92 = LINE('',#93,#94);
#93 = CARTESIAN_POINT('',(-0.27,-1.62,0.));
#94 = VECTOR('',#95,1.);
#95 = DIRECTION('',(0.,0.,1.));
#96 = ORIENTED_EDGE('',*,*,#97,.T.);
#97 = EDGE_CURVE('',#90,#98,#100,.T.);
#98 = VERTEX_POINT('',#99);
#99 = CARTESIAN_POINT('',(-0.27,-3.38,0.25));
#100 = LINE('',#101,#102);
#101 = CARTESIAN_POINT('',(-0.27,-1.62,0.25));
#102 = VECTOR('',#103,1.);
#103 = DIRECTION('',(0.,-1.,0.));
#104 = ORIENTED_EDGE('',*,*,#105,.F.);
#105 = EDGE_CURVE('',#82,#98,#106,.T.);
#106 = LINE('',#107,#108);
#107 = CARTESIAN_POINT('',(-0.27,-3.38,0.));
#108 = VECTOR('',#109,1.);
#109 = DIRECTION('',(0.,0.,1.));
#110 = PLANE('',#111);
#111 = AXIS2_PLACEMENT_3D('',#112,#113,#114);
#112 = CARTESIAN_POINT('',(-0.27,-1.62,0.));
#113 = DIRECTION('',(1.,0.,0.));
#114 = DIRECTION('',(0.,-1.,0.));
#115 = ADVANCED_FACE('',(#116),#159,.F.);
#116 = FACE_BOUND('',#117,.F.);
#117 = EDGE_LOOP('',(#118,#119,#128,#136,#145,#153));
#118 = ORIENTED_EDGE('',*,*,#79,.T.);
#119 = ORIENTED_EDGE('',*,*,#120,.T.);
#120 = EDGE_CURVE('',#82,#121,#123,.T.);
#121 = VERTEX_POINT('',#122);
#122 = CARTESIAN_POINT('',(-5.E-02,-3.6,0.));
#123 = CIRCLE('',#124,0.22);
#124 = AXIS2_PLACEMENT_3D('',#125,#126,#127);
#125 = CARTESIAN_POINT('',(-5.E-02,-3.38,0.));
#126 = DIRECTION('',(-0.,0.,1.));
#127 = DIRECTION('',(0.,-1.,0.));
#128 = ORIENTED_EDGE('',*,*,#129,.T.);
#129 = EDGE_CURVE('',#121,#130,#132,.T.);
#130 = VERTEX_POINT('',#131);
#131 = CARTESIAN_POINT('',(5.E-02,-3.6,0.));
#132 = LINE('',#133,#134);
#133 = CARTESIAN_POINT('',(-0.27,-3.6,0.));
#134 = VECTOR('',#135,1.);
#135 = DIRECTION('',(1.,0.,0.));
#136 = ORIENTED_EDGE('',*,*,#137,.T.);
#137 = EDGE_CURVE('',#130,#138,#140,.T.);
#138 = VERTEX_POINT('',#139);
#139 = CARTESIAN_POINT('',(0.27,-3.38,0.));
#140 = CIRCLE('',#141,0.22);
#141 = AXIS2_PLACEMENT_3D('',#142,#143,#144);
#142 = CARTESIAN_POINT('',(5.E-02,-3.38,0.));
#143 = DIRECTION('',(-0.,0.,1.));
#144 = DIRECTION('',(0.,-1.,0.));
#145 = ORIENTED_EDGE('',*,*,#146,.T.);
#146 = EDGE_CURVE('',#138,#147,#149,.T.);
#147 = VERTEX_POINT('',#148);
#148 = CARTESIAN_POINT('',(0.27,-1.62,0.));
#149 = LINE('',#150,#151);
#150 = CARTESIAN_POINT('',(0.27,-3.6,0.));
#151 = VECTOR('',#152,1.);
#152 = DIRECTION('',(0.,1.,0.));
#153 = ORIENTED_EDGE('',*,*,#154,.T.);
#154 = EDGE_CURVE('',#147,#80,#155,.T.);
#155 = LINE('',#156,#157);
#156 = CARTESIAN_POINT('',(0.27,-1.62,0.));
#157 = VECTOR('',#158,1.);
#158 = DIRECTION('',(-1.,0.,0.));
#159 = PLANE('',#160);
#160 = AXIS2_PLACEMENT_3D('',#161,#162,#163);
#161 = CARTESIAN_POINT('',(0.,-2.61,0.));
#162 = DIRECTION('',(0.,0.,1.));
#163 = DIRECTION('',(1.,0.,0.));
#164 = ADVANCED_FACE('',(#165),#184,.T.);
#165 = FACE_BOUND('',#166,.T.);
#166 = EDGE_LOOP('',(#167,#168,#176,#183));
#167 = ORIENTED_EDGE('',*,*,#120,.T.);
#168 = ORIENTED_EDGE('',*,*,#169,.T.);
#169 = EDGE_CURVE('',#121,#170,#172,.T.);
#170 = VERTEX_POINT('',#171);
#171 = CARTESIAN_POINT('',(-5.E-02,-3.6,0.25));
#172 = LINE('',#173,#174);
#173 = CARTESIAN_POINT('',(-5.E-02,-3.6,0.));
#174 = VECTOR('',#175,1.);
#175 = DIRECTION('',(0.,0.,1.));
#176 = ORIENTED_EDGE('',*,*,#177,.F.);
#177 = EDGE_CURVE('',#98,#170,#178,.T.);
#178 = CIRCLE('',#179,0.22);
#179 = AXIS2_PLACEMENT_3D('',#180,#181,#182);
#180 = CARTESIAN_POINT('',(-5.E-02,-3.38,0.25));
#181 = DIRECTION('',(-0.,0.,1.));
#182 = DIRECTION('',(0.,-1.,0.));
#183 = ORIENTED_EDGE('',*,*,#105,.F.);
#184 = CYLINDRICAL_SURFACE('',#185,0.22);
#185 = AXIS2_PLACEMENT_3D('',#186,#187,#188);
#186 = CARTESIAN_POINT('',(-5.E-02,-3.38,0.));
#187 = DIRECTION('',(0.,0.,1.));
#188 = DIRECTION('',(-1.,0.,0.));
#189 = ADVANCED_FACE('',(#190),#208,.F.);
#190 = FACE_BOUND('',#191,.F.);
#191 = EDGE_LOOP('',(#192,#200,#206,#207));
#192 = ORIENTED_EDGE('',*,*,#193,.T.);
#193 = EDGE_CURVE('',#147,#194,#196,.T.);
#194 = VERTEX_POINT('',#195);
#195 = CARTESIAN_POINT('',(0.27,-1.62,0.25));
#196 = LINE('',#197,#198);
#197 = CARTESIAN_POINT('',(0.27,-1.62,0.));
#198 = VECTOR('',#199,1.);
#199 = DIRECTION('',(0.,0.,1.));
#200 = ORIENTED_EDGE('',*,*,#201,.T.);
#201 = EDGE_CURVE('',#194,#90,#202,.T.);
#202 = LINE('',#203,#204);
#203 = CARTESIAN_POINT('',(0.27,-1.62,0.25));
#204 = VECTOR('',#205,1.);
#205 = DIRECTION('',(-1.,0.,0.));
#206 = ORIENTED_EDGE('',*,*,#89,.F.);
#207 = ORIENTED_EDGE('',*,*,#154,.F.);
#208 = PLANE('',#209);
#209 = AXIS2_PLACEMENT_3D('',#210,#211,#212);
#210 = CARTESIAN_POINT('',(0.27,-1.62,0.));
#211 = DIRECTION('',(0.,-1.,0.));
#212 = DIRECTION('',(-1.,0.,0.));
#213 = ADVANCED_FACE('',(#214),#242,.T.);
#214 = FACE_BOUND('',#215,.T.);
#215 = EDGE_LOOP('',(#216,#217,#218,#226,#235,#241));
#216 = ORIENTED_EDGE('',*,*,#97,.T.);
#217 = ORIENTED_EDGE('',*,*,#177,.T.);
#218 = ORIENTED_EDGE('',*,*,#219,.T.);
#219 = EDGE_CURVE('',#170,#220,#222,.T.);
#220 = VERTEX_POINT('',#221);
#221 = CARTESIAN_POINT('',(5.E-02,-3.6,0.25));
#222 = LINE('',#223,#224);
#223 = CARTESIAN_POINT('',(-0.27,-3.6,0.25));
#224 = VECTOR('',#225,1.);
#225 = DIRECTION('',(1.,0.,0.));
#226 = ORIENTED_EDGE('',*,*,#227,.T.);
#227 = EDGE_CURVE('',#220,#228,#230,.T.);
#228 = VERTEX_POINT('',#229);
#229 = CARTESIAN_POINT('',(0.27,-3.38,0.25));
#230 = CIRCLE('',#231,0.22);
#231 = AXIS2_PLACEMENT_3D('',#232,#233,#234);
#232 = CARTESIAN_POINT('',(5.E-02,-3.38,0.25));
#233 = DIRECTION('',(-0.,0.,1.));
#234 = DIRECTION('',(0.,-1.,0.));
#235 = ORIENTED_EDGE('',*,*,#236,.T.);
#236 = EDGE_CURVE('',#228,#194,#237,.T.);
#237 = LINE('',#238,#239);
#238 = CARTESIAN_POINT('',(0.27,-3.6,0.25));
#239 = VECTOR('',#240,1.);
#240 = DIRECTION('',(0.,1.,0.));
#241 = ORIENTED_EDGE('',*,*,#201,.T.);
#242 = PLANE('',#243);
#243 = AXIS2_PLACEMENT_3D('',#244,#245,#246);
#244 = CARTESIAN_POINT('',(0.,-2.61,0.25));
#245 = DIRECTION('',(0.,0.,1.));
#246 = DIRECTION('',(1.,0.,0.));
#247 = ADVANCED_FACE('',(#248),#259,.F.);
#248 = FACE_BOUND('',#249,.F.);
#249 = EDGE_LOOP('',(#250,#251,#252,#253));
#250 = ORIENTED_EDGE('',*,*,#129,.F.);
#251 = ORIENTED_EDGE('',*,*,#169,.T.);
#252 = ORIENTED_EDGE('',*,*,#219,.T.);
#253 = ORIENTED_EDGE('',*,*,#254,.F.);
#254 = EDGE_CURVE('',#130,#220,#255,.T.);
#255 = LINE('',#256,#257);
#256 = CARTESIAN_POINT('',(5.E-02,-3.6,0.));
#257 = VECTOR('',#258,1.);
#258 = DIRECTION('',(0.,0.,1.));
#259 = PLANE('',#260);
#260 = AXIS2_PLACEMENT_3D('',#261,#262,#263);
#261 = CARTESIAN_POINT('',(-0.27,-3.6,0.));
#262 = DIRECTION('',(0.,1.,0.));
#263 = DIRECTION('',(1.,0.,0.));
#264 = ADVANCED_FACE('',(#265),#276,.F.);
#265 = FACE_BOUND('',#266,.F.);
#266 = EDGE_LOOP('',(#267,#268,#274,#275));
#267 = ORIENTED_EDGE('',*,*,#146,.F.);
#268 = ORIENTED_EDGE('',*,*,#269,.T.);
#269 = EDGE_CURVE('',#138,#228,#270,.T.);
#270 = LINE('',#271,#272);
#271 = CARTESIAN_POINT('',(0.27,-3.38,0.));
#272 = VECTOR('',#273,1.);
#273 = DIRECTION('',(0.,0.,1.));
#274 = ORIENTED_EDGE('',*,*,#236,.T.);
#275 = ORIENTED_EDGE('',*,*,#193,.F.);
#276 = PLANE('',#277);
#277 = AXIS2_PLACEMENT_3D('',#278,#279,#280);
#278 = CARTESIAN_POINT('',(0.27,-3.6,0.));
#279 = DIRECTION('',(-1.,0.,0.));
#280 = DIRECTION('',(0.,1.,0.));
#281 = ADVANCED_FACE('',(#282),#288,.T.);
#282 = FACE_BOUND('',#283,.T.);
#283 = EDGE_LOOP('',(#284,#285,#286,#287));
#284 = ORIENTED_EDGE('',*,*,#137,.T.);
#285 = ORIENTED_EDGE('',*,*,#269,.T.);
#286 = ORIENTED_EDGE('',*,*,#227,.F.);
#287 = ORIENTED_EDGE('',*,*,#254,.F.);
#288 = CYLINDRICAL_SURFACE('',#289,0.22);
#289 = AXIS2_PLACEMENT_3D('',#290,#291,#292);
#290 = CARTESIAN_POINT('',(5.E-02,-3.38,0.));
#291 = DIRECTION('',(0.,0.,1.));
#292 = DIRECTION('',(0.,-1.,0.));
#293 = ( GEOMETRIC_REPRESENTATION_CONTEXT(3) 
GLOBAL_UNCERTAINTY_ASSIGNED_CONTEXT((#297)) GLOBAL_UNIT_ASSIGNED_CONTEXT
((#294,#295,#296)) REPRESENTATION_CONTEXT('Context #1',
  '3D Context with UNIT and UNCERTAINTY') );
#294 = ( LENGTH_UNIT() NAMED_UNIT(*) SI_UNIT(.MILLI.,.METRE.) );
#295 = ( NAMED_UNIT(*) PLANE_ANGLE_UNIT() SI_UNIT($,.RADIAN.) );
#296 = ( NAMED_UNIT(*) SI_UNIT($,.STERADIAN.) SOLID_ANGLE_UNIT() );
#297 = UNCERTAINTY_MEASURE_WITH_UNIT(LENGTH_MEASURE(1.E-07),#294,
  'distance_accuracy_value','confusion accuracy');
#298 = CONTEXT_DEPENDENT_SHAPE_REPRESENTATION(#299,#301);
#299 = ( REPRESENTATION_RELATIONSHIP('','',#72,#10) 
REPRESENTATION_RELATIONSHIP_WITH_TRANSFORMATION(#300) 
SHAPE_REPRESENTATION_RELATIONSHIP() );
#300 = ITEM_DEFINED_TRANSFORMATION('','',#11,#15);
#301 = PRODUCT_DEFINITION_SHAPE('Placement','Placement of an item',#302
  );
#302 = NEXT_ASSEMBLY_USAGE_OCCURRENCE('1','Body-Pin-Origin001','',#5,#67
  ,$);
#303 = PRODUCT_RELATED_PRODUCT_CATEGORY('part',$,(#69));
#304 = SHAPE_DEFINITION_REPRESENTATION(#305,#311);
#305 = PRODUCT_DEFINITION_SHAPE('','',#306);
#306 = PRODUCT_DEFINITION('design','',#307,#310);
#307 = PRODUCT_DEFINITION_FORMATION('','',#308);
#308 = PRODUCT('Body-Housing-Origin','Body-Housing-Origin','',(#309));
#309 = PRODUCT_CONTEXT('',#2,'mechanical');
#310 = PRODUCT_DEFINITION_CONTEXT('part definition',#2,'design');
#311 = ADVANCED_BREP_SHAPE_REPRESENTATION('',(#11,#312),#694);
#312 = MANIFOLD_SOLID_BREP('',#313);
#313 = CLOSED_SHELL('',(#314,#388,#419,#443,#467,#484,#515,#539,#563,
    #580,#611,#635,#659,#676));
#314 = ADVANCED_FACE('',(#315,#349),#383,.T.);
#315 = FACE_BOUND('',#316,.T.);
#316 = EDGE_LOOP('',(#317,#327,#335,#343));
#317 = ORIENTED_EDGE('',*,*,#318,.F.);
#318 = EDGE_CURVE('',#319,#321,#323,.T.);
#319 = VERTEX_POINT('',#320);
#320 = CARTESIAN_POINT('',(0.55,-0.72,8.2));
#321 = VERTEX_POINT('',#322);
#322 = CARTESIAN_POINT('',(-0.55,-0.72,8.2));
#323 = LINE('',#324,#325);
#324 = CARTESIAN_POINT('',(0.35,-0.72,8.2));
#325 = VECTOR('',#326,1.);
#326 = DIRECTION('',(-1.,0.,0.));
#327 = ORIENTED_EDGE('',*,*,#328,.F.);
#328 = EDGE_CURVE('',#329,#319,#331,.T.);
#329 = VERTEX_POINT('',#330);
#330 = CARTESIAN_POINT('',(0.55,-1.82,8.2));
#331 = LINE('',#332,#333);
#332 = CARTESIAN_POINT('',(0.55,-1.62,8.2));
#333 = VECTOR('',#334,1.);
#334 = DIRECTION('',(0.,1.,0.));
#335 = ORIENTED_EDGE('',*,*,#336,.F.);
#336 = EDGE_CURVE('',#337,#329,#339,.T.);
#337 = VERTEX_POINT('',#338);
#338 = CARTESIAN_POINT('',(-0.55,-1.82,8.2));
#339 = LINE('',#340,#341);
#340 = CARTESIAN_POINT('',(-0.35,-1.82,8.2));
#341 = VECTOR('',#342,1.);
#342 = DIRECTION('',(1.,0.,0.));
#343 = ORIENTED_EDGE('',*,*,#344,.F.);
#344 = EDGE_CURVE('',#321,#337,#345,.T.);
#345 = LINE('',#346,#347);
#346 = CARTESIAN_POINT('',(-0.55,-0.92,8.2));
#347 = VECTOR('',#348,1.);
#348 = DIRECTION('',(0.,-1.,0.));
#349 = FACE_BOUND('',#350,.T.);
#350 = EDGE_LOOP('',(#351,#361,#369,#377));
#351 = ORIENTED_EDGE('',*,*,#352,.T.);
#352 = EDGE_CURVE('',#353,#355,#357,.T.);
#353 = VERTEX_POINT('',#354);
#354 = CARTESIAN_POINT('',(-1.27,-2.5,8.2));
#355 = VERTEX_POINT('',#356);
#356 = CARTESIAN_POINT('',(1.27,-2.5,8.2));
#357 = LINE('',#358,#359);
#358 = CARTESIAN_POINT('',(-1.27,-2.5,8.2));
#359 = VECTOR('',#360,1.);
#360 = DIRECTION('',(1.,0.,0.));
#361 = ORIENTED_EDGE('',*,*,#362,.T.);
#362 = EDGE_CURVE('',#355,#363,#365,.T.);
#363 = VERTEX_POINT('',#364);
#364 = CARTESIAN_POINT('',(1.27,0.,8.2));
#365 = LINE('',#366,#367);
#366 = CARTESIAN_POINT('',(1.27,-2.5,8.2));
#367 = VECTOR('',#368,1.);
#368 = DIRECTION('',(0.,1.,0.));
#369 = ORIENTED_EDGE('',*,*,#370,.T.);
#370 = EDGE_CURVE('',#363,#371,#373,.T.);
#371 = VERTEX_POINT('',#372);
#372 = CARTESIAN_POINT('',(-1.27,0.,8.2));
#373 = LINE('',#374,#375);
#374 = CARTESIAN_POINT('',(1.27,0.,8.2));
#375 = VECTOR('',#376,1.);
#376 = DIRECTION('',(-1.,0.,0.));
#377 = ORIENTED_EDGE('',*,*,#378,.T.);
#378 = EDGE_CURVE('',#371,#353,#379,.T.);
#379 = LINE('',#380,#381);
#380 = CARTESIAN_POINT('',(-1.27,0.,8.2));
#381 = VECTOR('',#382,1.);
#382 = DIRECTION('',(0.,-1.,0.));
#383 = PLANE('',#384);
#384 = AXIS2_PLACEMENT_3D('',#385,#386,#387);
#385 = CARTESIAN_POINT('',(0.,-1.25,8.2));
#386 = DIRECTION('',(0.,0.,1.));
#387 = DIRECTION('',(1.,0.,0.));
#388 = ADVANCED_FACE('',(#389),#414,.T.);
#389 = FACE_BOUND('',#390,.T.);
#390 = EDGE_LOOP('',(#391,#399,#400,#408));
#391 = ORIENTED_EDGE('',*,*,#392,.F.);
#392 = EDGE_CURVE('',#319,#393,#395,.T.);
#393 = VERTEX_POINT('',#394);
#394 = CARTESIAN_POINT('',(0.35,-0.92,8.));
#395 = LINE('',#396,#397);
#396 = CARTESIAN_POINT('',(0.3,-0.97,7.95));
#397 = VECTOR('',#398,1.);
#398 = DIRECTION('',(-0.57735026919,-0.57735026919,-0.57735026919));
#399 = ORIENTED_EDGE('',*,*,#318,.T.);
#400 = ORIENTED_EDGE('',*,*,#401,.T.);
#401 = EDGE_CURVE('',#321,#402,#404,.T.);
#402 = VERTEX_POINT('',#403);
#403 = CARTESIAN_POINT('',(-0.35,-0.92,8.));
#404 = LINE('',#405,#406);
#405 = CARTESIAN_POINT('',(-0.3,-0.97,7.95));
#406 = VECTOR('',#407,1.);
#407 = DIRECTION('',(0.57735026919,-0.57735026919,-0.57735026919));
#408 = ORIENTED_EDGE('',*,*,#409,.F.);
#409 = EDGE_CURVE('',#393,#402,#410,.T.);
#410 = LINE('',#411,#412);
#411 = CARTESIAN_POINT('',(0.35,-0.92,8.));
#412 = VECTOR('',#413,1.);
#413 = DIRECTION('',(-1.,0.,0.));
#414 = PLANE('',#415);
#415 = AXIS2_PLACEMENT_3D('',#416,#417,#418);
#416 = CARTESIAN_POINT('',(0.35,-0.82,8.1));
#417 = DIRECTION('',(-0.,-0.707106781187,0.707106781187));
#418 = DIRECTION('',(-1.,0.,0.));
#419 = ADVANCED_FACE('',(#420),#438,.T.);
#420 = FACE_BOUND('',#421,.T.);
#421 = EDGE_LOOP('',(#422,#430,#431,#432));
#422 = ORIENTED_EDGE('',*,*,#423,.F.);
#423 = EDGE_CURVE('',#329,#424,#426,.T.);
#424 = VERTEX_POINT('',#425);
#425 = CARTESIAN_POINT('',(0.35,-1.62,8.));
#426 = LINE('',#427,#428);
#427 = CARTESIAN_POINT('',(0.3,-1.57,7.95));
#428 = VECTOR('',#429,1.);
#429 = DIRECTION('',(-0.57735026919,0.57735026919,-0.57735026919));
#430 = ORIENTED_EDGE('',*,*,#328,.T.);
#431 = ORIENTED_EDGE('',*,*,#392,.T.);
#432 = ORIENTED_EDGE('',*,*,#433,.F.);
#433 = EDGE_CURVE('',#424,#393,#434,.T.);
#434 = LINE('',#435,#436);
#435 = CARTESIAN_POINT('',(0.35,-1.62,8.));
#436 = VECTOR('',#437,1.);
#437 = DIRECTION('',(0.,1.,0.));
#438 = PLANE('',#439);
#439 = AXIS2_PLACEMENT_3D('',#440,#441,#442);
#440 = CARTESIAN_POINT('',(0.45,-1.62,8.1));
#441 = DIRECTION('',(-0.707106781187,0.,0.707106781187));
#442 = DIRECTION('',(0.,1.,-0.));
#443 = ADVANCED_FACE('',(#444),#462,.T.);
#444 = FACE_BOUND('',#445,.T.);
#445 = EDGE_LOOP('',(#446,#447,#448,#456));
#446 = ORIENTED_EDGE('',*,*,#401,.F.);
#447 = ORIENTED_EDGE('',*,*,#344,.T.);
#448 = ORIENTED_EDGE('',*,*,#449,.T.);
#449 = EDGE_CURVE('',#337,#450,#452,.T.);
#450 = VERTEX_POINT('',#451);
#451 = CARTESIAN_POINT('',(-0.35,-1.62,8.));
#452 = LINE('',#453,#454);
#453 = CARTESIAN_POINT('',(-0.3,-1.57,7.95));
#454 = VECTOR('',#455,1.);
#455 = DIRECTION('',(0.57735026919,0.57735026919,-0.57735026919));
#456 = ORIENTED_EDGE('',*,*,#457,.F.);
#457 = EDGE_CURVE('',#402,#450,#458,.T.);
#458 = LINE('',#459,#460);
#459 = CARTESIAN_POINT('',(-0.35,-0.92,8.));
#460 = VECTOR('',#461,1.);
#461 = DIRECTION('',(0.,-1.,0.));
#462 = PLANE('',#463);
#463 = AXIS2_PLACEMENT_3D('',#464,#465,#466);
#464 = CARTESIAN_POINT('',(-0.45,-0.92,8.1));
#465 = DIRECTION('',(0.707106781187,-0.,0.707106781187));
#466 = DIRECTION('',(-0.,-1.,0.));
#467 = ADVANCED_FACE('',(#468),#479,.T.);
#468 = FACE_BOUND('',#469,.T.);
#469 = EDGE_LOOP('',(#470,#471,#472,#473));
#470 = ORIENTED_EDGE('',*,*,#449,.F.);
#471 = ORIENTED_EDGE('',*,*,#336,.T.);
#472 = ORIENTED_EDGE('',*,*,#423,.T.);
#473 = ORIENTED_EDGE('',*,*,#474,.F.);
#474 = EDGE_CURVE('',#450,#424,#475,.T.);
#475 = LINE('',#476,#477);
#476 = CARTESIAN_POINT('',(-0.35,-1.62,8.));
#477 = VECTOR('',#478,1.);
#478 = DIRECTION('',(1.,0.,0.));
#479 = PLANE('',#480);
#480 = AXIS2_PLACEMENT_3D('',#481,#482,#483);
#481 = CARTESIAN_POINT('',(-0.35,-1.72,8.1));
#482 = DIRECTION('',(0.,0.707106781187,0.707106781187));
#483 = DIRECTION('',(1.,0.,-0.));
#484 = ADVANCED_FACE('',(#485),#510,.F.);
#485 = FACE_BOUND('',#486,.F.);
#486 = EDGE_LOOP('',(#487,#495,#496,#504));
#487 = ORIENTED_EDGE('',*,*,#488,.T.);
#488 = EDGE_CURVE('',#489,#353,#491,.T.);
#489 = VERTEX_POINT('',#490);
#490 = CARTESIAN_POINT('',(-1.27,-2.5,0.25));
#491 = LINE('',#492,#493);
#492 = CARTESIAN_POINT('',(-1.27,-2.5,0.25));
#493 = VECTOR('',#494,1.);
#494 = DIRECTION('',(0.,0.,1.));
#495 = ORIENTED_EDGE('',*,*,#352,.T.);
#496 = ORIENTED_EDGE('',*,*,#497,.F.);
#497 = EDGE_CURVE('',#498,#355,#500,.T.);
#498 = VERTEX_POINT('',#499);
#499 = CARTESIAN_POINT('',(1.27,-2.5,0.25));
#500 = LINE('',#501,#502);
#501 = CARTESIAN_POINT('',(1.27,-2.5,0.25));
#502 = VECTOR('',#503,1.);
#503 = DIRECTION('',(0.,0.,1.));
#504 = ORIENTED_EDGE('',*,*,#505,.F.);
#505 = EDGE_CURVE('',#489,#498,#506,.T.);
#506 = LINE('',#507,#508);
#507 = CARTESIAN_POINT('',(-1.27,-2.5,0.25));
#508 = VECTOR('',#509,1.);
#509 = DIRECTION('',(1.,0.,0.));
#510 = PLANE('',#511);
#511 = AXIS2_PLACEMENT_3D('',#512,#513,#514);
#512 = CARTESIAN_POINT('',(-1.27,-2.5,0.25));
#513 = DIRECTION('',(0.,1.,0.));
#514 = DIRECTION('',(1.,0.,0.));
#515 = ADVANCED_FACE('',(#516),#534,.F.);
#516 = FACE_BOUND('',#517,.F.);
#517 = EDGE_LOOP('',(#518,#526,#527,#528));
#518 = ORIENTED_EDGE('',*,*,#519,.T.);
#519 = EDGE_CURVE('',#520,#371,#522,.T.);
#520 = VERTEX_POINT('',#521);
#521 = CARTESIAN_POINT('',(-1.27,0.,0.25));
#522 = LINE('',#523,#524);
#523 = CARTESIAN_POINT('',(-1.27,0.,0.25));
#524 = VECTOR('',#525,1.);
#525 = DIRECTION('',(0.,0.,1.));
#526 = ORIENTED_EDGE('',*,*,#378,.T.);
#527 = ORIENTED_EDGE('',*,*,#488,.F.);
#528 = ORIENTED_EDGE('',*,*,#529,.F.);
#529 = EDGE_CURVE('',#520,#489,#530,.T.);
#530 = LINE('',#531,#532);
#531 = CARTESIAN_POINT('',(-1.27,0.,0.25));
#532 = VECTOR('',#533,1.);
#533 = DIRECTION('',(0.,-1.,0.));
#534 = PLANE('',#535);
#535 = AXIS2_PLACEMENT_3D('',#536,#537,#538);
#536 = CARTESIAN_POINT('',(-1.27,0.,0.25));
#537 = DIRECTION('',(1.,0.,0.));
#538 = DIRECTION('',(0.,-1.,0.));
#539 = ADVANCED_FACE('',(#540),#558,.F.);
#540 = FACE_BOUND('',#541,.F.);
#541 = EDGE_LOOP('',(#542,#543,#544,#552));
#542 = ORIENTED_EDGE('',*,*,#497,.T.);
#543 = ORIENTED_EDGE('',*,*,#362,.T.);
#544 = ORIENTED_EDGE('',*,*,#545,.F.);
#545 = EDGE_CURVE('',#546,#363,#548,.T.);
#546 = VERTEX_POINT('',#547);
#547 = CARTESIAN_POINT('',(1.27,0.,0.25));
#548 = LINE('',#549,#550);
#549 = CARTESIAN_POINT('',(1.27,0.,0.25));
#550 = VECTOR('',#551,1.);
#551 = DIRECTION('',(0.,0.,1.));
#552 = ORIENTED_EDGE('',*,*,#553,.F.);
#553 = EDGE_CURVE('',#498,#546,#554,.T.);
#554 = LINE('',#555,#556);
#555 = CARTESIAN_POINT('',(1.27,-2.5,0.25));
#556 = VECTOR('',#557,1.);
#557 = DIRECTION('',(0.,1.,0.));
#558 = PLANE('',#559);
#559 = AXIS2_PLACEMENT_3D('',#560,#561,#562);
#560 = CARTESIAN_POINT('',(1.27,-2.5,0.25));
#561 = DIRECTION('',(-1.,0.,0.));
#562 = DIRECTION('',(0.,1.,0.));
#563 = ADVANCED_FACE('',(#564),#575,.F.);
#564 = FACE_BOUND('',#565,.F.);
#565 = EDGE_LOOP('',(#566,#567,#568,#569));
#566 = ORIENTED_EDGE('',*,*,#545,.T.);
#567 = ORIENTED_EDGE('',*,*,#370,.T.);
#568 = ORIENTED_EDGE('',*,*,#519,.F.);
#569 = ORIENTED_EDGE('',*,*,#570,.F.);
#570 = EDGE_CURVE('',#546,#520,#571,.T.);
#571 = LINE('',#572,#573);
#572 = CARTESIAN_POINT('',(1.27,0.,0.25));
#573 = VECTOR('',#574,1.);
#574 = DIRECTION('',(-1.,0.,0.));
#575 = PLANE('',#576);
#576 = AXIS2_PLACEMENT_3D('',#577,#578,#579);
#577 = CARTESIAN_POINT('',(1.27,0.,0.25));
#578 = DIRECTION('',(0.,-1.,0.));
#579 = DIRECTION('',(-1.,0.,0.));
#580 = ADVANCED_FACE('',(#581),#606,.T.);
#581 = FACE_BOUND('',#582,.T.);
#582 = EDGE_LOOP('',(#583,#591,#599,#605));
#583 = ORIENTED_EDGE('',*,*,#584,.F.);
#584 = EDGE_CURVE('',#585,#402,#587,.T.);
#585 = VERTEX_POINT('',#586);
#586 = CARTESIAN_POINT('',(-0.35,-0.92,0.25));
#587 = LINE('',#588,#589);
#588 = CARTESIAN_POINT('',(-0.35,-0.92,0.));
#589 = VECTOR('',#590,1.);
#590 = DIRECTION('',(0.,0.,1.));
#591 = ORIENTED_EDGE('',*,*,#592,.T.);
#592 = EDGE_CURVE('',#585,#593,#595,.T.);
#593 = VERTEX_POINT('',#594);
#594 = CARTESIAN_POINT('',(0.35,-0.92,0.25));
#595 = LINE('',#596,#597);
#596 = CARTESIAN_POINT('',(0.175,-0.92,0.25));
#597 = VECTOR('',#598,1.);
#598 = DIRECTION('',(1.,0.,0.));
#599 = ORIENTED_EDGE('',*,*,#600,.T.);
#600 = EDGE_CURVE('',#593,#393,#601,.T.);
#601 = LINE('',#602,#603);
#602 = CARTESIAN_POINT('',(0.35,-0.92,0.));
#603 = VECTOR('',#604,1.);
#604 = DIRECTION('',(0.,0.,1.));
#605 = ORIENTED_EDGE('',*,*,#409,.T.);
#606 = PLANE('',#607);
#607 = AXIS2_PLACEMENT_3D('',#608,#609,#610);
#608 = CARTESIAN_POINT('',(0.35,-0.92,0.));
#609 = DIRECTION('',(0.,-1.,0.));
#610 = DIRECTION('',(-1.,0.,0.));
#611 = ADVANCED_FACE('',(#612),#630,.T.);
#612 = FACE_BOUND('',#613,.T.);
#613 = EDGE_LOOP('',(#614,#615,#623,#629));
#614 = ORIENTED_EDGE('',*,*,#600,.F.);
#615 = ORIENTED_EDGE('',*,*,#616,.T.);
#616 = EDGE_CURVE('',#593,#617,#619,.T.);
#617 = VERTEX_POINT('',#618);
#618 = CARTESIAN_POINT('',(0.35,-1.62,0.25));
#619 = LINE('',#620,#621);
#620 = CARTESIAN_POINT('',(0.35,-1.435,0.25));
#621 = VECTOR('',#622,1.);
#622 = DIRECTION('',(0.,-1.,0.));
#623 = ORIENTED_EDGE('',*,*,#624,.T.);
#624 = EDGE_CURVE('',#617,#424,#625,.T.);
#625 = LINE('',#626,#627);
#626 = CARTESIAN_POINT('',(0.35,-1.62,0.));
#627 = VECTOR('',#628,1.);
#628 = DIRECTION('',(0.,0.,1.));
#629 = ORIENTED_EDGE('',*,*,#433,.T.);
#630 = PLANE('',#631);
#631 = AXIS2_PLACEMENT_3D('',#632,#633,#634);
#632 = CARTESIAN_POINT('',(0.35,-1.62,0.));
#633 = DIRECTION('',(-1.,0.,0.));
#634 = DIRECTION('',(0.,1.,0.));
#635 = ADVANCED_FACE('',(#636),#654,.T.);
#636 = FACE_BOUND('',#637,.T.);
#637 = EDGE_LOOP('',(#638,#646,#652,#653));
#638 = ORIENTED_EDGE('',*,*,#639,.F.);
#639 = EDGE_CURVE('',#640,#450,#642,.T.);
#640 = VERTEX_POINT('',#641);
#641 = CARTESIAN_POINT('',(-0.35,-1.62,0.25));
#642 = LINE('',#643,#644);
#643 = CARTESIAN_POINT('',(-0.35,-1.62,0.));
#644 = VECTOR('',#645,1.);
#645 = DIRECTION('',(0.,0.,1.));
#646 = ORIENTED_EDGE('',*,*,#647,.T.);
#647 = EDGE_CURVE('',#640,#585,#648,.T.);
#648 = LINE('',#649,#650);
#649 = CARTESIAN_POINT('',(-0.35,-1.085,0.25));
#650 = VECTOR('',#651,1.);
#651 = DIRECTION('',(0.,1.,0.));
#652 = ORIENTED_EDGE('',*,*,#584,.T.);
#653 = ORIENTED_EDGE('',*,*,#457,.T.);
#654 = PLANE('',#655);
#655 = AXIS2_PLACEMENT_3D('',#656,#657,#658);
#656 = CARTESIAN_POINT('',(-0.35,-0.92,0.));
#657 = DIRECTION('',(1.,0.,0.));
#658 = DIRECTION('',(0.,-1.,0.));
#659 = ADVANCED_FACE('',(#660),#671,.T.);
#660 = FACE_BOUND('',#661,.T.);
#661 = EDGE_LOOP('',(#662,#663,#669,#670));
#662 = ORIENTED_EDGE('',*,*,#624,.F.);
#663 = ORIENTED_EDGE('',*,*,#664,.T.);
#664 = EDGE_CURVE('',#617,#640,#665,.T.);
#665 = LINE('',#666,#667);
#666 = CARTESIAN_POINT('',(-0.175,-1.62,0.25));
#667 = VECTOR('',#668,1.);
#668 = DIRECTION('',(-1.,0.,0.));
#669 = ORIENTED_EDGE('',*,*,#639,.T.);
#670 = ORIENTED_EDGE('',*,*,#474,.T.);
#671 = PLANE('',#672);
#672 = AXIS2_PLACEMENT_3D('',#673,#674,#675);
#673 = CARTESIAN_POINT('',(-0.35,-1.62,0.));
#674 = DIRECTION('',(0.,1.,0.));
#675 = DIRECTION('',(1.,0.,0.));
#676 = ADVANCED_FACE('',(#677,#683),#689,.F.);
#677 = FACE_BOUND('',#678,.F.);
#678 = EDGE_LOOP('',(#679,#680,#681,#682));
#679 = ORIENTED_EDGE('',*,*,#505,.T.);
#680 = ORIENTED_EDGE('',*,*,#553,.T.);
#681 = ORIENTED_EDGE('',*,*,#570,.T.);
#682 = ORIENTED_EDGE('',*,*,#529,.T.);
#683 = FACE_BOUND('',#684,.F.);
#684 = EDGE_LOOP('',(#685,#686,#687,#688));
#685 = ORIENTED_EDGE('',*,*,#616,.T.);
#686 = ORIENTED_EDGE('',*,*,#664,.T.);
#687 = ORIENTED_EDGE('',*,*,#647,.T.);
#688 = ORIENTED_EDGE('',*,*,#592,.T.);
#689 = PLANE('',#690);
#690 = AXIS2_PLACEMENT_3D('',#691,#692,#693);
#691 = CARTESIAN_POINT('',(0.,-1.25,0.25));
#692 = DIRECTION('',(0.,0.,1.));
#693 = DIRECTION('',(1.,0.,0.));
#694 = ( GEOMETRIC_REPRESENTATION_CONTEXT(3) 
GLOBAL_UNCERTAINTY_ASSIGNED_CONTEXT((#698)) GLOBAL_UNIT_ASSIGNED_CONTEXT
((#695,#696,#697)) REPRESENTATION_CONTEXT('Context #1',
  '3D Context with UNIT and UNCERTAINTY') );
#695 = ( LENGTH_UNIT() NAMED_UNIT(*) SI_UNIT(.MILLI.,.METRE.) );
#696 = ( NAMED_UNIT(*) PLANE_ANGLE_UNIT() SI_UNIT($,.RADIAN.) );
#697 = ( NAMED_UNIT(*) SI_UNIT($,.STERADIAN.) SOLID_ANGLE_UNIT() );
#698 = UNCERTAINTY_MEASURE_WITH_UNIT(LENGTH_MEASURE(1.E-06),#695,
  'distance_accuracy_value','confusion accuracy');
#699 = CONTEXT_DEPENDENT_SHAPE_REPRESENTATION(#700,#702);
#700 = ( REPRESENTATION_RELATIONSHIP('','',#311,#10) 
REPRESENTATION_RELATIONSHIP_WITH_TRANSFORMATION(#701) 
SHAPE_REPRESENTATION_RELATIONSHIP() );
#701 = ITEM_DEFINED_TRANSFORMATION('','',#11,#19);
#702 = PRODUCT_DEFINITION_SHAPE('Placement','Placement of an item',#703
  );
#703 = NEXT_ASSEMBLY_USAGE_OCCURRENCE('2','Body-Housing-Origin001','',#5
  ,#306,$);
#704 = PRODUCT_RELATED_PRODUCT_CATEGORY('part',$,(#308));
#705 = SHAPE_DEFINITION_REPRESENTATION(#706,#712);
#706 = PRODUCT_DEFINITION_SHAPE('','',#707);
#707 = PRODUCT_DEFINITION('design','',#708,#711);
#708 = PRODUCT_DEFINITION_FORMATION('','',#709);
#709 = PRODUCT('Body-Pin-Clone','Body-Pin-Clone','',(#710));
#710 = PRODUCT_CONTEXT('',#2,'mechanical');
#711 = PRODUCT_DEFINITION_CONTEXT('part definition',#2,'design');
#712 = ADVANCED_BREP_SHAPE_REPRESENTATION('',(#11,#713),#933);
#713 = MANIFOLD_SOLID_BREP('',#714);
#714 = CLOSED_SHELL('',(#715,#755,#804,#829,#853,#887,#904,#921));
#715 = ADVANCED_FACE('',(#716),#750,.F.);
#716 = FACE_BOUND('',#717,.F.);
#717 = EDGE_LOOP('',(#718,#728,#736,#744));
#718 = ORIENTED_EDGE('',*,*,#719,.F.);
#719 = EDGE_CURVE('',#720,#722,#724,.T.);
#720 = VERTEX_POINT('',#721);
#721 = CARTESIAN_POINT('',(-0.27,-1.62,0.));
#722 = VERTEX_POINT('',#723);
#723 = CARTESIAN_POINT('',(-0.27,-3.38,0.));
#724 = LINE('',#725,#726);
#725 = CARTESIAN_POINT('',(-0.27,-1.62,0.));
#726 = VECTOR('',#727,1.);
#727 = DIRECTION('',(0.,-1.,0.));
#728 = ORIENTED_EDGE('',*,*,#729,.T.);
#729 = EDGE_CURVE('',#720,#730,#732,.T.);
#730 = VERTEX_POINT('',#731);
#731 = CARTESIAN_POINT('',(-0.27,-1.62,0.25));
#732 = LINE('',#733,#734);
#733 = CARTESIAN_POINT('',(-0.27,-1.62,0.));
#734 = VECTOR('',#735,1.);
#735 = DIRECTION('',(0.,0.,1.));
#736 = ORIENTED_EDGE('',*,*,#737,.T.);
#737 = EDGE_CURVE('',#730,#738,#740,.T.);
#738 = VERTEX_POINT('',#739);
#739 = CARTESIAN_POINT('',(-0.27,-3.38,0.25));
#740 = LINE('',#741,#742);
#741 = CARTESIAN_POINT('',(-0.27,-1.62,0.25));
#742 = VECTOR('',#743,1.);
#743 = DIRECTION('',(0.,-1.,0.));
#744 = ORIENTED_EDGE('',*,*,#745,.F.);
#745 = EDGE_CURVE('',#722,#738,#746,.T.);
#746 = LINE('',#747,#748);
#747 = CARTESIAN_POINT('',(-0.27,-3.38,0.));
#748 = VECTOR('',#749,1.);
#749 = DIRECTION('',(0.,0.,1.));
#750 = PLANE('',#751);
#751 = AXIS2_PLACEMENT_3D('',#752,#753,#754);
#752 = CARTESIAN_POINT('',(-0.27,-1.62,0.));
#753 = DIRECTION('',(1.,0.,0.));
#754 = DIRECTION('',(0.,-1.,0.));
#755 = ADVANCED_FACE('',(#756),#799,.F.);
#756 = FACE_BOUND('',#757,.F.);
#757 = EDGE_LOOP('',(#758,#759,#768,#776,#785,#793));
#758 = ORIENTED_EDGE('',*,*,#719,.T.);
#759 = ORIENTED_EDGE('',*,*,#760,.T.);
#760 = EDGE_CURVE('',#722,#761,#763,.T.);
#761 = VERTEX_POINT('',#762);
#762 = CARTESIAN_POINT('',(-5.E-02,-3.6,0.));
#763 = CIRCLE('',#764,0.22);
#764 = AXIS2_PLACEMENT_3D('',#765,#766,#767);
#765 = CARTESIAN_POINT('',(-5.E-02,-3.38,0.));
#766 = DIRECTION('',(-0.,0.,1.));
#767 = DIRECTION('',(0.,-1.,0.));
#768 = ORIENTED_EDGE('',*,*,#769,.T.);
#769 = EDGE_CURVE('',#761,#770,#772,.T.);
#770 = VERTEX_POINT('',#771);
#771 = CARTESIAN_POINT('',(5.E-02,-3.6,0.));
#772 = LINE('',#773,#774);
#773 = CARTESIAN_POINT('',(-0.27,-3.6,0.));
#774 = VECTOR('',#775,1.);
#775 = DIRECTION('',(1.,0.,0.));
#776 = ORIENTED_EDGE('',*,*,#777,.T.);
#777 = EDGE_CURVE('',#770,#778,#780,.T.);
#778 = VERTEX_POINT('',#779);
#779 = CARTESIAN_POINT('',(0.27,-3.38,0.));
#780 = CIRCLE('',#781,0.22);
#781 = AXIS2_PLACEMENT_3D('',#782,#783,#784);
#782 = CARTESIAN_POINT('',(5.E-02,-3.38,0.));
#783 = DIRECTION('',(-0.,0.,1.));
#784 = DIRECTION('',(0.,-1.,0.));
#785 = ORIENTED_EDGE('',*,*,#786,.T.);
#786 = EDGE_CURVE('',#778,#787,#789,.T.);
#787 = VERTEX_POINT('',#788);
#788 = CARTESIAN_POINT('',(0.27,-1.62,0.));
#789 = LINE('',#790,#791);
#790 = CARTESIAN_POINT('',(0.27,-3.6,0.));
#791 = VECTOR('',#792,1.);
#792 = DIRECTION('',(0.,1.,0.));
#793 = ORIENTED_EDGE('',*,*,#794,.T.);
#794 = EDGE_CURVE('',#787,#720,#795,.T.);
#795 = LINE('',#796,#797);
#796 = CARTESIAN_POINT('',(0.27,-1.62,0.));
#797 = VECTOR('',#798,1.);
#798 = DIRECTION('',(-1.,0.,0.));
#799 = PLANE('',#800);
#800 = AXIS2_PLACEMENT_3D('',#801,#802,#803);
#801 = CARTESIAN_POINT('',(0.,-2.61,0.));
#802 = DIRECTION('',(0.,0.,1.));
#803 = DIRECTION('',(1.,0.,0.));
#804 = ADVANCED_FACE('',(#805),#824,.T.);
#805 = FACE_BOUND('',#806,.T.);
#806 = EDGE_LOOP('',(#807,#808,#816,#823));
#807 = ORIENTED_EDGE('',*,*,#760,.T.);
#808 = ORIENTED_EDGE('',*,*,#809,.T.);
#809 = EDGE_CURVE('',#761,#810,#812,.T.);
#810 = VERTEX_POINT('',#811);
#811 = CARTESIAN_POINT('',(-5.E-02,-3.6,0.25));
#812 = LINE('',#813,#814);
#813 = CARTESIAN_POINT('',(-5.E-02,-3.6,0.));
#814 = VECTOR('',#815,1.);
#815 = DIRECTION('',(0.,0.,1.));
#816 = ORIENTED_EDGE('',*,*,#817,.F.);
#817 = EDGE_CURVE('',#738,#810,#818,.T.);
#818 = CIRCLE('',#819,0.22);
#819 = AXIS2_PLACEMENT_3D('',#820,#821,#822);
#820 = CARTESIAN_POINT('',(-5.E-02,-3.38,0.25));
#821 = DIRECTION('',(-0.,0.,1.));
#822 = DIRECTION('',(0.,-1.,0.));
#823 = ORIENTED_EDGE('',*,*,#745,.F.);
#824 = CYLINDRICAL_SURFACE('',#825,0.22);
#825 = AXIS2_PLACEMENT_3D('',#826,#827,#828);
#826 = CARTESIAN_POINT('',(-5.E-02,-3.38,0.));
#827 = DIRECTION('',(0.,0.,1.));
#828 = DIRECTION('',(-1.,0.,0.));
#829 = ADVANCED_FACE('',(#830),#848,.F.);
#830 = FACE_BOUND('',#831,.F.);
#831 = EDGE_LOOP('',(#832,#840,#846,#847));
#832 = ORIENTED_EDGE('',*,*,#833,.T.);
#833 = EDGE_CURVE('',#787,#834,#836,.T.);
#834 = VERTEX_POINT('',#835);
#835 = CARTESIAN_POINT('',(0.27,-1.62,0.25));
#836 = LINE('',#837,#838);
#837 = CARTESIAN_POINT('',(0.27,-1.62,0.));
#838 = VECTOR('',#839,1.);
#839 = DIRECTION('',(0.,0.,1.));
#840 = ORIENTED_EDGE('',*,*,#841,.T.);
#841 = EDGE_CURVE('',#834,#730,#842,.T.);
#842 = LINE('',#843,#844);
#843 = CARTESIAN_POINT('',(0.27,-1.62,0.25));
#844 = VECTOR('',#845,1.);
#845 = DIRECTION('',(-1.,0.,0.));
#846 = ORIENTED_EDGE('',*,*,#729,.F.);
#847 = ORIENTED_EDGE('',*,*,#794,.F.);
#848 = PLANE('',#849);
#849 = AXIS2_PLACEMENT_3D('',#850,#851,#852);
#850 = CARTESIAN_POINT('',(0.27,-1.62,0.));
#851 = DIRECTION('',(0.,-1.,0.));
#852 = DIRECTION('',(-1.,0.,0.));
#853 = ADVANCED_FACE('',(#854),#882,.T.);
#854 = FACE_BOUND('',#855,.T.);
#855 = EDGE_LOOP('',(#856,#857,#858,#866,#875,#881));
#856 = ORIENTED_EDGE('',*,*,#737,.T.);
#857 = ORIENTED_EDGE('',*,*,#817,.T.);
#858 = ORIENTED_EDGE('',*,*,#859,.T.);
#859 = EDGE_CURVE('',#810,#860,#862,.T.);
#860 = VERTEX_POINT('',#861);
#861 = CARTESIAN_POINT('',(5.E-02,-3.6,0.25));
#862 = LINE('',#863,#864);
#863 = CARTESIAN_POINT('',(-0.27,-3.6,0.25));
#864 = VECTOR('',#865,1.);
#865 = DIRECTION('',(1.,0.,0.));
#866 = ORIENTED_EDGE('',*,*,#867,.T.);
#867 = EDGE_CURVE('',#860,#868,#870,.T.);
#868 = VERTEX_POINT('',#869);
#869 = CARTESIAN_POINT('',(0.27,-3.38,0.25));
#870 = CIRCLE('',#871,0.22);
#871 = AXIS2_PLACEMENT_3D('',#872,#873,#874);
#872 = CARTESIAN_POINT('',(5.E-02,-3.38,0.25));
#873 = DIRECTION('',(-0.,0.,1.));
#874 = DIRECTION('',(0.,-1.,0.));
#875 = ORIENTED_EDGE('',*,*,#876,.T.);
#876 = EDGE_CURVE('',#868,#834,#877,.T.);
#877 = LINE('',#878,#879);
#878 = CARTESIAN_POINT('',(0.27,-3.6,0.25));
#879 = VECTOR('',#880,1.);
#880 = DIRECTION('',(0.,1.,0.));
#881 = ORIENTED_EDGE('',*,*,#841,.T.);
#882 = PLANE('',#883);
#883 = AXIS2_PLACEMENT_3D('',#884,#885,#886);
#884 = CARTESIAN_POINT('',(0.,-2.61,0.25));
#885 = DIRECTION('',(0.,0.,1.));
#886 = DIRECTION('',(1.,0.,0.));
#887 = ADVANCED_FACE('',(#888),#899,.F.);
#888 = FACE_BOUND('',#889,.F.);
#889 = EDGE_LOOP('',(#890,#891,#892,#893));
#890 = ORIENTED_EDGE('',*,*,#769,.F.);
#891 = ORIENTED_EDGE('',*,*,#809,.T.);
#892 = ORIENTED_EDGE('',*,*,#859,.T.);
#893 = ORIENTED_EDGE('',*,*,#894,.F.);
#894 = EDGE_CURVE('',#770,#860,#895,.T.);
#895 = LINE('',#896,#897);
#896 = CARTESIAN_POINT('',(5.E-02,-3.6,0.));
#897 = VECTOR('',#898,1.);
#898 = DIRECTION('',(0.,0.,1.));
#899 = PLANE('',#900);
#900 = AXIS2_PLACEMENT_3D('',#901,#902,#903);
#901 = CARTESIAN_POINT('',(-0.27,-3.6,0.));
#902 = DIRECTION('',(0.,1.,0.));
#903 = DIRECTION('',(1.,0.,0.));
#904 = ADVANCED_FACE('',(#905),#916,.F.);
#905 = FACE_BOUND('',#906,.F.);
#906 = EDGE_LOOP('',(#907,#908,#914,#915));
#907 = ORIENTED_EDGE('',*,*,#786,.F.);
#908 = ORIENTED_EDGE('',*,*,#909,.T.);
#909 = EDGE_CURVE('',#778,#868,#910,.T.);
#910 = LINE('',#911,#912);
#911 = CARTESIAN_POINT('',(0.27,-3.38,0.));
#912 = VECTOR('',#913,1.);
#913 = DIRECTION('',(0.,0.,1.));
#914 = ORIENTED_EDGE('',*,*,#876,.T.);
#915 = ORIENTED_EDGE('',*,*,#833,.F.);
#916 = PLANE('',#917);
#917 = AXIS2_PLACEMENT_3D('',#918,#919,#920);
#918 = CARTESIAN_POINT('',(0.27,-3.6,0.));
#919 = DIRECTION('',(-1.,0.,0.));
#920 = DIRECTION('',(0.,1.,0.));
#921 = ADVANCED_FACE('',(#922),#928,.T.);
#922 = FACE_BOUND('',#923,.T.);
#923 = EDGE_LOOP('',(#924,#925,#926,#927));
#924 = ORIENTED_EDGE('',*,*,#777,.T.);
#925 = ORIENTED_EDGE('',*,*,#909,.T.);
#926 = ORIENTED_EDGE('',*,*,#867,.F.);
#927 = ORIENTED_EDGE('',*,*,#894,.F.);
#928 = CYLINDRICAL_SURFACE('',#929,0.22);
#929 = AXIS2_PLACEMENT_3D('',#930,#931,#932);
#930 = CARTESIAN_POINT('',(5.E-02,-3.38,0.));
#931 = DIRECTION('',(0.,0.,1.));
#932 = DIRECTION('',(0.,-1.,0.));
#933 = ( GEOMETRIC_REPRESENTATION_CONTEXT(3) 
GLOBAL_UNCERTAINTY_ASSIGNED_CONTEXT((#937)) GLOBAL_UNIT_ASSIGNED_CONTEXT
((#934,#935,#936)) REPRESENTATION_CONTEXT('Context #1',
  '3D Context with UNIT and UNCERTAINTY') );
#934 = ( LENGTH_UNIT() NAMED_UNIT(*) SI_UNIT(.MILLI.,.METRE.) );
#935 = ( NAMED_UNIT(*) PLANE_ANGLE_UNIT() SI_UNIT($,.RADIAN.) );
#936 = ( NAMED_UNIT(*) SI_UNIT($,.STERADIAN.) SOLID_ANGLE_UNIT() );
#937 = UNCERTAINTY_MEASURE_WITH_UNIT(LENGTH_MEASURE(1.E-07),#934,
  'distance_accuracy_value','confusion accuracy');
#938 = CONTEXT_DEPENDENT_SHAPE_REPRESENTATION(#939,#941);
#939 = ( REPRESENTATION_RELATIONSHIP('','',#712,#10) 
REPRESENTATION_RELATIONSHIP_WITH_TRANSFORMATION(#940) 
SHAPE_REPRESENTATION_RELATIONSHIP() );
#940 = ITEM_DEFINED_TRANSFORMATION('','',#11,#23);
#941 = PRODUCT_DEFINITION_SHAPE('Placement','Placement of an item',#942
  );
#942 = NEXT_ASSEMBLY_USAGE_OCCURRENCE('3','Body-Pin-Clone001','',#5,#707
  ,$);
#943 = PRODUCT_RELATED_PRODUCT_CATEGORY('part',$,(#709));
#944 = SHAPE_DEFINITION_REPRESENTATION(#945,#951);
#945 = PRODUCT_DEFINITION_SHAPE('','',#946);
#946 = PRODUCT_DEFINITION('design','',#947,#950);
#947 = PRODUCT_DEFINITION_FORMATION('','',#948);
#948 = PRODUCT('Body-Housing_Clone','Body-Housing_Clone','',(#949));
#949 = PRODUCT_CONTEXT('',#2,'mechanical');
#950 = PRODUCT_DEFINITION_CONTEXT('part definition',#2,'design');
#951 = ADVANCED_BREP_SHAPE_REPRESENTATION('',(#11,#952),#1334);
#952 = MANIFOLD_SOLID_BREP('',#953);
#953 = CLOSED_SHELL('',(#954,#1028,#1059,#1083,#1107,#1124,#1155,#1179,
    #1203,#1220,#1251,#1275,#1299,#1316));
#954 = ADVANCED_FACE('',(#955,#989),#1023,.T.);
#955 = FACE_BOUND('',#956,.T.);
#956 = EDGE_LOOP('',(#957,#967,#975,#983));
#957 = ORIENTED_EDGE('',*,*,#958,.F.);
#958 = EDGE_CURVE('',#959,#961,#963,.T.);
#959 = VERTEX_POINT('',#960);
#960 = CARTESIAN_POINT('',(0.55,-0.72,8.2));
#961 = VERTEX_POINT('',#962);
#962 = CARTESIAN_POINT('',(-0.55,-0.72,8.2));
#963 = LINE('',#964,#965);
#964 = CARTESIAN_POINT('',(0.35,-0.72,8.2));
#965 = VECTOR('',#966,1.);
#966 = DIRECTION('',(-1.,0.,0.));
#967 = ORIENTED_EDGE('',*,*,#968,.F.);
#968 = EDGE_CURVE('',#969,#959,#971,.T.);
#969 = VERTEX_POINT('',#970);
#970 = CARTESIAN_POINT('',(0.55,-1.82,8.2));
#971 = LINE('',#972,#973);
#972 = CARTESIAN_POINT('',(0.55,-1.62,8.2));
#973 = VECTOR('',#974,1.);
#974 = DIRECTION('',(0.,1.,0.));
#975 = ORIENTED_EDGE('',*,*,#976,.F.);
#976 = EDGE_CURVE('',#977,#969,#979,.T.);
#977 = VERTEX_POINT('',#978);
#978 = CARTESIAN_POINT('',(-0.55,-1.82,8.2));
#979 = LINE('',#980,#981);
#980 = CARTESIAN_POINT('',(-0.35,-1.82,8.2));
#981 = VECTOR('',#982,1.);
#982 = DIRECTION('',(1.,0.,0.));
#983 = ORIENTED_EDGE('',*,*,#984,.F.);
#984 = EDGE_CURVE('',#961,#977,#985,.T.);
#985 = LINE('',#986,#987);
#986 = CARTESIAN_POINT('',(-0.55,-0.92,8.2));
#987 = VECTOR('',#988,1.);
#988 = DIRECTION('',(0.,-1.,0.));
#989 = FACE_BOUND('',#990,.T.);
#990 = EDGE_LOOP('',(#991,#1001,#1009,#1017));
#991 = ORIENTED_EDGE('',*,*,#992,.T.);
#992 = EDGE_CURVE('',#993,#995,#997,.T.);
#993 = VERTEX_POINT('',#994);
#994 = CARTESIAN_POINT('',(-1.27,-2.5,8.2));
#995 = VERTEX_POINT('',#996);
#996 = CARTESIAN_POINT('',(1.27,-2.5,8.2));
#997 = LINE('',#998,#999);
#998 = CARTESIAN_POINT('',(-1.27,-2.5,8.2));
#999 = VECTOR('',#1000,1.);
#1000 = DIRECTION('',(1.,0.,0.));
#1001 = ORIENTED_EDGE('',*,*,#1002,.T.);
#1002 = EDGE_CURVE('',#995,#1003,#1005,.T.);
#1003 = VERTEX_POINT('',#1004);
#1004 = CARTESIAN_POINT('',(1.27,0.,8.2));
#1005 = LINE('',#1006,#1007);
#1006 = CARTESIAN_POINT('',(1.27,-2.5,8.2));
#1007 = VECTOR('',#1008,1.);
#1008 = DIRECTION('',(0.,1.,0.));
#1009 = ORIENTED_EDGE('',*,*,#1010,.T.);
#1010 = EDGE_CURVE('',#1003,#1011,#1013,.T.);
#1011 = VERTEX_POINT('',#1012);
#1012 = CARTESIAN_POINT('',(-1.27,0.,8.2));
#1013 = LINE('',#1014,#1015);
#1014 = CARTESIAN_POINT('',(1.27,0.,8.2));
#1015 = VECTOR('',#1016,1.);
#1016 = DIRECTION('',(-1.,0.,0.));
#1017 = ORIENTED_EDGE('',*,*,#1018,.T.);
#1018 = EDGE_CURVE('',#1011,#993,#1019,.T.);
#1019 = LINE('',#1020,#1021);
#1020 = CARTESIAN_POINT('',(-1.27,0.,8.2));
#1021 = VECTOR('',#1022,1.);
#1022 = DIRECTION('',(0.,-1.,0.));
#1023 = PLANE('',#1024);
#1024 = AXIS2_PLACEMENT_3D('',#1025,#1026,#1027);
#1025 = CARTESIAN_POINT('',(0.,-1.25,8.2));
#1026 = DIRECTION('',(0.,0.,1.));
#1027 = DIRECTION('',(1.,0.,0.));
#1028 = ADVANCED_FACE('',(#1029),#1054,.T.);
#1029 = FACE_BOUND('',#1030,.T.);
#1030 = EDGE_LOOP('',(#1031,#1039,#1040,#1048));
#1031 = ORIENTED_EDGE('',*,*,#1032,.F.);
#1032 = EDGE_CURVE('',#959,#1033,#1035,.T.);
#1033 = VERTEX_POINT('',#1034);
#1034 = CARTESIAN_POINT('',(0.35,-0.92,8.));
#1035 = LINE('',#1036,#1037);
#1036 = CARTESIAN_POINT('',(0.3,-0.97,7.95));
#1037 = VECTOR('',#1038,1.);
#1038 = DIRECTION('',(-0.57735026919,-0.57735026919,-0.57735026919));
#1039 = ORIENTED_EDGE('',*,*,#958,.T.);
#1040 = ORIENTED_EDGE('',*,*,#1041,.T.);
#1041 = EDGE_CURVE('',#961,#1042,#1044,.T.);
#1042 = VERTEX_POINT('',#1043);
#1043 = CARTESIAN_POINT('',(-0.35,-0.92,8.));
#1044 = LINE('',#1045,#1046);
#1045 = CARTESIAN_POINT('',(-0.3,-0.97,7.95));
#1046 = VECTOR('',#1047,1.);
#1047 = DIRECTION('',(0.57735026919,-0.57735026919,-0.57735026919));
#1048 = ORIENTED_EDGE('',*,*,#1049,.F.);
#1049 = EDGE_CURVE('',#1033,#1042,#1050,.T.);
#1050 = LINE('',#1051,#1052);
#1051 = CARTESIAN_POINT('',(0.35,-0.92,8.));
#1052 = VECTOR('',#1053,1.);
#1053 = DIRECTION('',(-1.,0.,0.));
#1054 = PLANE('',#1055);
#1055 = AXIS2_PLACEMENT_3D('',#1056,#1057,#1058);
#1056 = CARTESIAN_POINT('',(0.35,-0.82,8.1));
#1057 = DIRECTION('',(-0.,-0.707106781187,0.707106781187));
#1058 = DIRECTION('',(-1.,0.,0.));
#1059 = ADVANCED_FACE('',(#1060),#1078,.T.);
#1060 = FACE_BOUND('',#1061,.T.);
#1061 = EDGE_LOOP('',(#1062,#1070,#1071,#1072));
#1062 = ORIENTED_EDGE('',*,*,#1063,.F.);
#1063 = EDGE_CURVE('',#969,#1064,#1066,.T.);
#1064 = VERTEX_POINT('',#1065);
#1065 = CARTESIAN_POINT('',(0.35,-1.62,8.));
#1066 = LINE('',#1067,#1068);
#1067 = CARTESIAN_POINT('',(0.3,-1.57,7.95));
#1068 = VECTOR('',#1069,1.);
#1069 = DIRECTION('',(-0.57735026919,0.57735026919,-0.57735026919));
#1070 = ORIENTED_EDGE('',*,*,#968,.T.);
#1071 = ORIENTED_EDGE('',*,*,#1032,.T.);
#1072 = ORIENTED_EDGE('',*,*,#1073,.F.);
#1073 = EDGE_CURVE('',#1064,#1033,#1074,.T.);
#1074 = LINE('',#1075,#1076);
#1075 = CARTESIAN_POINT('',(0.35,-1.62,8.));
#1076 = VECTOR('',#1077,1.);
#1077 = DIRECTION('',(0.,1.,0.));
#1078 = PLANE('',#1079);
#1079 = AXIS2_PLACEMENT_3D('',#1080,#1081,#1082);
#1080 = CARTESIAN_POINT('',(0.45,-1.62,8.1));
#1081 = DIRECTION('',(-0.707106781187,0.,0.707106781187));
#1082 = DIRECTION('',(0.,1.,-0.));
#1083 = ADVANCED_FACE('',(#1084),#1102,.T.);
#1084 = FACE_BOUND('',#1085,.T.);
#1085 = EDGE_LOOP('',(#1086,#1087,#1088,#1096));
#1086 = ORIENTED_EDGE('',*,*,#1041,.F.);
#1087 = ORIENTED_EDGE('',*,*,#984,.T.);
#1088 = ORIENTED_EDGE('',*,*,#1089,.T.);
#1089 = EDGE_CURVE('',#977,#1090,#1092,.T.);
#1090 = VERTEX_POINT('',#1091);
#1091 = CARTESIAN_POINT('',(-0.35,-1.62,8.));
#1092 = LINE('',#1093,#1094);
#1093 = CARTESIAN_POINT('',(-0.3,-1.57,7.95));
#1094 = VECTOR('',#1095,1.);
#1095 = DIRECTION('',(0.57735026919,0.57735026919,-0.57735026919));
#1096 = ORIENTED_EDGE('',*,*,#1097,.F.);
#1097 = EDGE_CURVE('',#1042,#1090,#1098,.T.);
#1098 = LINE('',#1099,#1100);
#1099 = CARTESIAN_POINT('',(-0.35,-0.92,8.));
#1100 = VECTOR('',#1101,1.);
#1101 = DIRECTION('',(0.,-1.,0.));
#1102 = PLANE('',#1103);
#1103 = AXIS2_PLACEMENT_3D('',#1104,#1105,#1106);
#1104 = CARTESIAN_POINT('',(-0.45,-0.92,8.1));
#1105 = DIRECTION('',(0.707106781187,-0.,0.707106781187));
#1106 = DIRECTION('',(-0.,-1.,0.));
#1107 = ADVANCED_FACE('',(#1108),#1119,.T.);
#1108 = FACE_BOUND('',#1109,.T.);
#1109 = EDGE_LOOP('',(#1110,#1111,#1112,#1113));
#1110 = ORIENTED_EDGE('',*,*,#1089,.F.);
#1111 = ORIENTED_EDGE('',*,*,#976,.T.);
#1112 = ORIENTED_EDGE('',*,*,#1063,.T.);
#1113 = ORIENTED_EDGE('',*,*,#1114,.F.);
#1114 = EDGE_CURVE('',#1090,#1064,#1115,.T.);
#1115 = LINE('',#1116,#1117);
#1116 = CARTESIAN_POINT('',(-0.35,-1.62,8.));
#1117 = VECTOR('',#1118,1.);
#1118 = DIRECTION('',(1.,0.,0.));
#1119 = PLANE('',#1120);
#1120 = AXIS2_PLACEMENT_3D('',#1121,#1122,#1123);
#1121 = CARTESIAN_POINT('',(-0.35,-1.72,8.1));
#1122 = DIRECTION('',(0.,0.707106781187,0.707106781187));
#1123 = DIRECTION('',(1.,0.,-0.));
#1124 = ADVANCED_FACE('',(#1125),#1150,.F.);
#1125 = FACE_BOUND('',#1126,.F.);
#1126 = EDGE_LOOP('',(#1127,#1135,#1136,#1144));
#1127 = ORIENTED_EDGE('',*,*,#1128,.T.);
#1128 = EDGE_CURVE('',#1129,#993,#1131,.T.);
#1129 = VERTEX_POINT('',#1130);
#1130 = CARTESIAN_POINT('',(-1.27,-2.5,0.25));
#1131 = LINE('',#1132,#1133);
#1132 = CARTESIAN_POINT('',(-1.27,-2.5,0.25));
#1133 = VECTOR('',#1134,1.);
#1134 = DIRECTION('',(0.,0.,1.));
#1135 = ORIENTED_EDGE('',*,*,#992,.T.);
#1136 = ORIENTED_EDGE('',*,*,#1137,.F.);
#1137 = EDGE_CURVE('',#1138,#995,#1140,.T.);
#1138 = VERTEX_POINT('',#1139);
#1139 = CARTESIAN_POINT('',(1.27,-2.5,0.25));
#1140 = LINE('',#1141,#1142);
#1141 = CARTESIAN_POINT('',(1.27,-2.5,0.25));
#1142 = VECTOR('',#1143,1.);
#1143 = DIRECTION('',(0.,0.,1.));
#1144 = ORIENTED_EDGE('',*,*,#1145,.F.);
#1145 = EDGE_CURVE('',#1129,#1138,#1146,.T.);
#1146 = LINE('',#1147,#1148);
#1147 = CARTESIAN_POINT('',(-1.27,-2.5,0.25));
#1148 = VECTOR('',#1149,1.);
#1149 = DIRECTION('',(1.,0.,0.));
#1150 = PLANE('',#1151);
#1151 = AXIS2_PLACEMENT_3D('',#1152,#1153,#1154);
#1152 = CARTESIAN_POINT('',(-1.27,-2.5,0.25));
#1153 = DIRECTION('',(0.,1.,0.));
#1154 = DIRECTION('',(1.,0.,0.));
#1155 = ADVANCED_FACE('',(#1156),#1174,.F.);
#1156 = FACE_BOUND('',#1157,.F.);
#1157 = EDGE_LOOP('',(#1158,#1166,#1167,#1168));
#1158 = ORIENTED_EDGE('',*,*,#1159,.T.);
#1159 = EDGE_CURVE('',#1160,#1011,#1162,.T.);
#1160 = VERTEX_POINT('',#1161);
#1161 = CARTESIAN_POINT('',(-1.27,0.,0.25));
#1162 = LINE('',#1163,#1164);
#1163 = CARTESIAN_POINT('',(-1.27,0.,0.25));
#1164 = VECTOR('',#1165,1.);
#1165 = DIRECTION('',(0.,0.,1.));
#1166 = ORIENTED_EDGE('',*,*,#1018,.T.);
#1167 = ORIENTED_EDGE('',*,*,#1128,.F.);
#1168 = ORIENTED_EDGE('',*,*,#1169,.F.);
#1169 = EDGE_CURVE('',#1160,#1129,#1170,.T.);
#1170 = LINE('',#1171,#1172);
#1171 = CARTESIAN_POINT('',(-1.27,0.,0.25));
#1172 = VECTOR('',#1173,1.);
#1173 = DIRECTION('',(0.,-1.,0.));
#1174 = PLANE('',#1175);
#1175 = AXIS2_PLACEMENT_3D('',#1176,#1177,#1178);
#1176 = CARTESIAN_POINT('',(-1.27,0.,0.25));
#1177 = DIRECTION('',(1.,0.,0.));
#1178 = DIRECTION('',(0.,-1.,0.));
#1179 = ADVANCED_FACE('',(#1180),#1198,.F.);
#1180 = FACE_BOUND('',#1181,.F.);
#1181 = EDGE_LOOP('',(#1182,#1183,#1184,#1192));
#1182 = ORIENTED_EDGE('',*,*,#1137,.T.);
#1183 = ORIENTED_EDGE('',*,*,#1002,.T.);
#1184 = ORIENTED_EDGE('',*,*,#1185,.F.);
#1185 = EDGE_CURVE('',#1186,#1003,#1188,.T.);
#1186 = VERTEX_POINT('',#1187);
#1187 = CARTESIAN_POINT('',(1.27,0.,0.25));
#1188 = LINE('',#1189,#1190);
#1189 = CARTESIAN_POINT('',(1.27,0.,0.25));
#1190 = VECTOR('',#1191,1.);
#1191 = DIRECTION('',(0.,0.,1.));
#1192 = ORIENTED_EDGE('',*,*,#1193,.F.);
#1193 = EDGE_CURVE('',#1138,#1186,#1194,.T.);
#1194 = LINE('',#1195,#1196);
#1195 = CARTESIAN_POINT('',(1.27,-2.5,0.25));
#1196 = VECTOR('',#1197,1.);
#1197 = DIRECTION('',(0.,1.,0.));
#1198 = PLANE('',#1199);
#1199 = AXIS2_PLACEMENT_3D('',#1200,#1201,#1202);
#1200 = CARTESIAN_POINT('',(1.27,-2.5,0.25));
#1201 = DIRECTION('',(-1.,0.,0.));
#1202 = DIRECTION('',(0.,1.,0.));
#1203 = ADVANCED_FACE('',(#1204),#1215,.F.);
#1204 = FACE_BOUND('',#1205,.F.);
#1205 = EDGE_LOOP('',(#1206,#1207,#1208,#1209));
#1206 = ORIENTED_EDGE('',*,*,#1185,.T.);
#1207 = ORIENTED_EDGE('',*,*,#1010,.T.);
#1208 = ORIENTED_EDGE('',*,*,#1159,.F.);
#1209 = ORIENTED_EDGE('',*,*,#1210,.F.);
#1210 = EDGE_CURVE('',#1186,#1160,#1211,.T.);
#1211 = LINE('',#1212,#1213);
#1212 = CARTESIAN_POINT('',(1.27,0.,0.25));
#1213 = VECTOR('',#1214,1.);
#1214 = DIRECTION('',(-1.,0.,0.));
#1215 = PLANE('',#1216);
#1216 = AXIS2_PLACEMENT_3D('',#1217,#1218,#1219);
#1217 = CARTESIAN_POINT('',(1.27,0.,0.25));
#1218 = DIRECTION('',(0.,-1.,0.));
#1219 = DIRECTION('',(-1.,0.,0.));
#1220 = ADVANCED_FACE('',(#1221),#1246,.T.);
#1221 = FACE_BOUND('',#1222,.T.);
#1222 = EDGE_LOOP('',(#1223,#1231,#1239,#1245));
#1223 = ORIENTED_EDGE('',*,*,#1224,.F.);
#1224 = EDGE_CURVE('',#1225,#1042,#1227,.T.);
#1225 = VERTEX_POINT('',#1226);
#1226 = CARTESIAN_POINT('',(-0.35,-0.92,0.25));
#1227 = LINE('',#1228,#1229);
#1228 = CARTESIAN_POINT('',(-0.35,-0.92,0.));
#1229 = VECTOR('',#1230,1.);
#1230 = DIRECTION('',(0.,0.,1.));
#1231 = ORIENTED_EDGE('',*,*,#1232,.T.);
#1232 = EDGE_CURVE('',#1225,#1233,#1235,.T.);
#1233 = VERTEX_POINT('',#1234);
#1234 = CARTESIAN_POINT('',(0.35,-0.92,0.25));
#1235 = LINE('',#1236,#1237);
#1236 = CARTESIAN_POINT('',(0.175,-0.92,0.25));
#1237 = VECTOR('',#1238,1.);
#1238 = DIRECTION('',(1.,0.,0.));
#1239 = ORIENTED_EDGE('',*,*,#1240,.T.);
#1240 = EDGE_CURVE('',#1233,#1033,#1241,.T.);
#1241 = LINE('',#1242,#1243);
#1242 = CARTESIAN_POINT('',(0.35,-0.92,0.));
#1243 = VECTOR('',#1244,1.);
#1244 = DIRECTION('',(0.,0.,1.));
#1245 = ORIENTED_EDGE('',*,*,#1049,.T.);
#1246 = PLANE('',#1247);
#1247 = AXIS2_PLACEMENT_3D('',#1248,#1249,#1250);
#1248 = CARTESIAN_POINT('',(0.35,-0.92,0.));
#1249 = DIRECTION('',(0.,-1.,0.));
#1250 = DIRECTION('',(-1.,0.,0.));
#1251 = ADVANCED_FACE('',(#1252),#1270,.T.);
#1252 = FACE_BOUND('',#1253,.T.);
#1253 = EDGE_LOOP('',(#1254,#1255,#1263,#1269));
#1254 = ORIENTED_EDGE('',*,*,#1240,.F.);
#1255 = ORIENTED_EDGE('',*,*,#1256,.T.);
#1256 = EDGE_CURVE('',#1233,#1257,#1259,.T.);
#1257 = VERTEX_POINT('',#1258);
#1258 = CARTESIAN_POINT('',(0.35,-1.62,0.25));
#1259 = LINE('',#1260,#1261);
#1260 = CARTESIAN_POINT('',(0.35,-1.435,0.25));
#1261 = VECTOR('',#1262,1.);
#1262 = DIRECTION('',(0.,-1.,0.));
#1263 = ORIENTED_EDGE('',*,*,#1264,.T.);
#1264 = EDGE_CURVE('',#1257,#1064,#1265,.T.);
#1265 = LINE('',#1266,#1267);
#1266 = CARTESIAN_POINT('',(0.35,-1.62,0.));
#1267 = VECTOR('',#1268,1.);
#1268 = DIRECTION('',(0.,0.,1.));
#1269 = ORIENTED_EDGE('',*,*,#1073,.T.);
#1270 = PLANE('',#1271);
#1271 = AXIS2_PLACEMENT_3D('',#1272,#1273,#1274);
#1272 = CARTESIAN_POINT('',(0.35,-1.62,0.));
#1273 = DIRECTION('',(-1.,0.,0.));
#1274 = DIRECTION('',(0.,1.,0.));
#1275 = ADVANCED_FACE('',(#1276),#1294,.T.);
#1276 = FACE_BOUND('',#1277,.T.);
#1277 = EDGE_LOOP('',(#1278,#1286,#1292,#1293));
#1278 = ORIENTED_EDGE('',*,*,#1279,.F.);
#1279 = EDGE_CURVE('',#1280,#1090,#1282,.T.);
#1280 = VERTEX_POINT('',#1281);
#1281 = CARTESIAN_POINT('',(-0.35,-1.62,0.25));
#1282 = LINE('',#1283,#1284);
#1283 = CARTESIAN_POINT('',(-0.35,-1.62,0.));
#1284 = VECTOR('',#1285,1.);
#1285 = DIRECTION('',(0.,0.,1.));
#1286 = ORIENTED_EDGE('',*,*,#1287,.T.);
#1287 = EDGE_CURVE('',#1280,#1225,#1288,.T.);
#1288 = LINE('',#1289,#1290);
#1289 = CARTESIAN_POINT('',(-0.35,-1.085,0.25));
#1290 = VECTOR('',#1291,1.);
#1291 = DIRECTION('',(0.,1.,0.));
#1292 = ORIENTED_EDGE('',*,*,#1224,.T.);
#1293 = ORIENTED_EDGE('',*,*,#1097,.T.);
#1294 = PLANE('',#1295);
#1295 = AXIS2_PLACEMENT_3D('',#1296,#1297,#1298);
#1296 = CARTESIAN_POINT('',(-0.35,-0.92,0.));
#1297 = DIRECTION('',(1.,0.,0.));
#1298 = DIRECTION('',(0.,-1.,0.));
#1299 = ADVANCED_FACE('',(#1300),#1311,.T.);
#1300 = FACE_BOUND('',#1301,.T.);
#1301 = EDGE_LOOP('',(#1302,#1303,#1309,#1310));
#1302 = ORIENTED_EDGE('',*,*,#1264,.F.);
#1303 = ORIENTED_EDGE('',*,*,#1304,.T.);
#1304 = EDGE_CURVE('',#1257,#1280,#1305,.T.);
#1305 = LINE('',#1306,#1307);
#1306 = CARTESIAN_POINT('',(-0.175,-1.62,0.25));
#1307 = VECTOR('',#1308,1.);
#1308 = DIRECTION('',(-1.,0.,0.));
#1309 = ORIENTED_EDGE('',*,*,#1279,.T.);
#1310 = ORIENTED_EDGE('',*,*,#1114,.T.);
#1311 = PLANE('',#1312);
#1312 = AXIS2_PLACEMENT_3D('',#1313,#1314,#1315);
#1313 = CARTESIAN_POINT('',(-0.35,-1.62,0.));
#1314 = DIRECTION('',(0.,1.,0.));
#1315 = DIRECTION('',(1.,0.,0.));
#1316 = ADVANCED_FACE('',(#1317,#1323),#1329,.F.);
#1317 = FACE_BOUND('',#1318,.F.);
#1318 = EDGE_LOOP('',(#1319,#1320,#1321,#1322));
#1319 = ORIENTED_EDGE('',*,*,#1145,.T.);
#1320 = ORIENTED_EDGE('',*,*,#1193,.T.);
#1321 = ORIENTED_EDGE('',*,*,#1210,.T.);
#1322 = ORIENTED_EDGE('',*,*,#1169,.T.);
#1323 = FACE_BOUND('',#1324,.F.);
#1324 = EDGE_LOOP('',(#1325,#1326,#1327,#1328));
#1325 = ORIENTED_EDGE('',*,*,#1256,.T.);
#1326 = ORIENTED_EDGE('',*,*,#1304,.T.);
#1327 = ORIENTED_EDGE('',*,*,#1287,.T.);
#1328 = ORIENTED_EDGE('',*,*,#1232,.T.);
#1329 = PLANE('',#1330);
#1330 = AXIS2_PLACEMENT_3D('',#1331,#1332,#1333);
#1331 = CARTESIAN_POINT('',(0.,-1.25,0.25));
#1332 = DIRECTION('',(0.,0.,1.));
#1333 = DIRECTION('',(1.,0.,0.));
#1334 = ( GEOMETRIC_REPRESENTATION_CONTEXT(3) 
GLOBAL_UNCERTAINTY_ASSIGNED_CONTEXT((#1338)) 
GLOBAL_UNIT_ASSIGNED_CONTEXT((#1335,#1336,#1337)) REPRESENTATION_CONTEXT
('Context #1','3D Context with UNIT and UNCERTAINTY') );
#1335 = ( LENGTH_UNIT() NAMED_UNIT(*) SI_UNIT(.MILLI.,.METRE.) );
#1336 = ( NAMED_UNIT(*) PLANE_ANGLE_UNIT() SI_UNIT($,.RADIAN.) );
#1337 = ( NAMED_UNIT(*) SI_UNIT($,.STERADIAN.) SOLID_ANGLE_UNIT() );
#1338 = UNCERTAINTY_MEASURE_WITH_UNIT(LENGTH_MEASURE(1.E-06),#1335,
  'distance_accuracy_value','confusion accuracy');
#1339 = CONTEXT_DEPENDENT_SHAPE_REPRESENTATION(#1340,#1342);
#1340 = ( REPRESENTATION_RELATIONSHIP('','',#951,#10) 
REPRESENTATION_RELATIONSHIP_WITH_TRANSFORMATION(#1341) 
SHAPE_REPRESENTATION_RELATIONSHIP() );
#1341 = ITEM_DEFINED_TRANSFORMATION('','',#11,#27);
#1342 = PRODUCT_DEFINITION_SHAPE('Placement','Placement of an item',
  #1343);
#1343 = NEXT_ASSEMBLY_USAGE_OCCURRENCE('4','Body-Housing_Clone001','',#5
  ,#946,$);
#1344 = PRODUCT_RELATED_PRODUCT_CATEGORY('part',$,(#948));
#1345 = SHAPE_DEFINITION_REPRESENTATION(#1346,#1352);
#1346 = PRODUCT_DEFINITION_SHAPE('','',#1347);
#1347 = PRODUCT_DEFINITION('design','',#1348,#1351);
#1348 = PRODUCT_DEFINITION_FORMATION('','',#1349);
#1349 = PRODUCT('LinkGroup','LinkGroup','',(#1350));
#1350 = PRODUCT_CONTEXT('',#2,'mechanical');
#1351 = PRODUCT_DEFINITION_CONTEXT('part definition',#2,'design');
#1352 = SHAPE_REPRESENTATION('',(#11,#1353,#1357,#1361,#1365),#1369);
#1353 = AXIS2_PLACEMENT_3D('',#1354,#1355,#1356);
#1354 = CARTESIAN_POINT('',(0.,0.,0.));
#1355 = DIRECTION('',(0.,0.,1.));
#1356 = DIRECTION('',(1.,0.,0.));
#1357 = AXIS2_PLACEMENT_3D('',#1358,#1359,#1360);
#1358 = CARTESIAN_POINT('',(0.,0.,0.));
#1359 = DIRECTION('',(0.,0.,1.));
#1360 = DIRECTION('',(1.,0.,0.));
#1361 = AXIS2_PLACEMENT_3D('',#1362,#1363,#1364);
#1362 = CARTESIAN_POINT('',(0.,0.,0.));
#1363 = DIRECTION('',(0.,0.,1.));
#1364 = DIRECTION('',(-1.,0.,0.));
#1365 = AXIS2_PLACEMENT_3D('',#1366,#1367,#1368);
#1366 = CARTESIAN_POINT('',(0.,0.,0.));
#1367 = DIRECTION('',(0.,0.,1.));
#1368 = DIRECTION('',(-1.,0.,0.));
#1369 = ( GEOMETRIC_REPRESENTATION_CONTEXT(3) 
GLOBAL_UNCERTAINTY_ASSIGNED_CONTEXT((#1373)) 
GLOBAL_UNIT_ASSIGNED_CONTEXT((#1370,#1371,#1372)) REPRESENTATION_CONTEXT
('Context #1','3D Context with UNIT and UNCERTAINTY') );
#1370 = ( LENGTH_UNIT() NAMED_UNIT(*) SI_UNIT(.MILLI.,.METRE.) );
#1371 = ( NAMED_UNIT(*) PLANE_ANGLE_UNIT() SI_UNIT($,.RADIAN.) );
#1372 = ( NAMED_UNIT(*) SI_UNIT($,.STERADIAN.) SOLID_ANGLE_UNIT() );
#1373 = UNCERTAINTY_MEASURE_WITH_UNIT(LENGTH_MEASURE(5.E-07),#1370,
  'distance_accuracy_value','confusion accuracy');
#1374 = CONTEXT_DEPENDENT_SHAPE_REPRESENTATION(#1375,#1377);
#1375 = ( REPRESENTATION_RELATIONSHIP('','',#1352,#10) 
REPRESENTATION_RELATIONSHIP_WITH_TRANSFORMATION(#1376) 
SHAPE_REPRESENTATION_RELATIONSHIP() );
#1376 = ITEM_DEFINED_TRANSFORMATION('','',#11,#31);
#1377 = PRODUCT_DEFINITION_SHAPE('Placement','Placement of an item',
  #1378);
#1378 = NEXT_ASSEMBLY_USAGE_OCCURRENCE('9','LinkGroup','',#5,#1347,$);
#1379 = PRODUCT_RELATED_PRODUCT_CATEGORY('part',$,(#1349));
#1380 = CONTEXT_DEPENDENT_SHAPE_REPRESENTATION(#1381,#1383);
#1381 = ( REPRESENTATION_RELATIONSHIP('','',#72,#1352) 
REPRESENTATION_RELATIONSHIP_WITH_TRANSFORMATION(#1382) 
SHAPE_REPRESENTATION_RELATIONSHIP() );
#1382 = ITEM_DEFINED_TRANSFORMATION('','',#11,#1353);
#1383 = PRODUCT_DEFINITION_SHAPE('Placement','Placement of an item',
  #1384);
#1384 = NEXT_ASSEMBLY_USAGE_OCCURRENCE('5','','',#1347,#67,$);
#1385 = CONTEXT_DEPENDENT_SHAPE_REPRESENTATION(#1386,#1388);
#1386 = ( REPRESENTATION_RELATIONSHIP('','',#311,#1352) 
REPRESENTATION_RELATIONSHIP_WITH_TRANSFORMATION(#1387) 
SHAPE_REPRESENTATION_RELATIONSHIP() );
#1387 = ITEM_DEFINED_TRANSFORMATION('','',#11,#1357);
#1388 = PRODUCT_DEFINITION_SHAPE('Placement','Placement of an item',
  #1389);
#1389 = NEXT_ASSEMBLY_USAGE_OCCURRENCE('6','','',#1347,#306,$);
#1390 = CONTEXT_DEPENDENT_SHAPE_REPRESENTATION(#1391,#1393);
#1391 = ( REPRESENTATION_RELATIONSHIP('','',#712,#1352) 
REPRESENTATION_RELATIONSHIP_WITH_TRANSFORMATION(#1392) 
SHAPE_REPRESENTATION_RELATIONSHIP() );
#1392 = ITEM_DEFINED_TRANSFORMATION('','',#11,#1361);
#1393 = PRODUCT_DEFINITION_SHAPE('Placement','Placement of an item',
  #1394);
#1394 = NEXT_ASSEMBLY_USAGE_OCCURRENCE('7','','',#1347,#707,$);
#1395 = CONTEXT_DEPENDENT_SHAPE_REPRESENTATION(#1396,#1398);
#1396 = ( REPRESENTATION_RELATIONSHIP('','',#951,#1352) 
REPRESENTATION_RELATIONSHIP_WITH_TRANSFORMATION(#1397) 
SHAPE_REPRESENTATION_RELATIONSHIP() );
#1397 = ITEM_DEFINED_TRANSFORMATION('','',#11,#1365);
#1398 = PRODUCT_DEFINITION_SHAPE('Placement','Placement of an item',
  #1399);
#1399 = NEXT_ASSEMBLY_USAGE_OCCURRENCE('8','','',#1347,#946,$);
#1400 = SHAPE_DEFINITION_REPRESENTATION(#1401,#1407);
#1401 = PRODUCT_DEFINITION_SHAPE('','',#1402);
#1402 = PRODUCT_DEFINITION('design','',#1403,#1406);
#1403 = PRODUCT_DEFINITION_FORMATION('','',#1404);
#1404 = PRODUCT('LinkGroup001','LinkGroup001','',(#1405));
#1405 = PRODUCT_CONTEXT('',#2,'mechanical');
#1406 = PRODUCT_DEFINITION_CONTEXT('part definition',#2,'design');
#1407 = SHAPE_REPRESENTATION('',(#11,#1408),#1412);
#1408 = AXIS2_PLACEMENT_3D('',#1409,#1410,#1411);
#1409 = CARTESIAN_POINT('',(2.54,0.,0.));
#1410 = DIRECTION('',(0.,0.,1.));
#1411 = DIRECTION('',(1.,0.,0.));
#1412 = ( GEOMETRIC_REPRESENTATION_CONTEXT(3) 
GLOBAL_UNCERTAINTY_ASSIGNED_CONTEXT((#1416)) 
GLOBAL_UNIT_ASSIGNED_CONTEXT((#1413,#1414,#1415)) REPRESENTATION_CONTEXT
('Context #1','3D Context with UNIT and UNCERTAINTY') );
#1413 = ( LENGTH_UNIT() NAMED_UNIT(*) SI_UNIT(.MILLI.,.METRE.) );
#1414 = ( NAMED_UNIT(*) PLANE_ANGLE_UNIT() SI_UNIT($,.RADIAN.) );
#1415 = ( NAMED_UNIT(*) SI_UNIT($,.STERADIAN.) SOLID_ANGLE_UNIT() );
#1416 = UNCERTAINTY_MEASURE_WITH_UNIT(LENGTH_MEASURE(5.E-07),#1413,
  'distance_accuracy_value','confusion accuracy');
#1417 = CONTEXT_DEPENDENT_SHAPE_REPRESENTATION(#1418,#1420);
#1418 = ( REPRESENTATION_RELATIONSHIP('','',#1407,#10) 
REPRESENTATION_RELATIONSHIP_WITH_TRANSFORMATION(#1419) 
SHAPE_REPRESENTATION_RELATIONSHIP() );
#1419 = ITEM_DEFINED_TRANSFORMATION('','',#11,#35);
#1420 = PRODUCT_DEFINITION_SHAPE('Placement','Placement of an item',
  #1421);
#1421 = NEXT_ASSEMBLY_USAGE_OCCURRENCE('11','LinkGroup001','',#5,#1402,$
  );
#1422 = PRODUCT_RELATED_PRODUCT_CATEGORY('part',$,(#1404));
#1423 = CONTEXT_DEPENDENT_SHAPE_REPRESENTATION(#1424,#1426);
#1424 = ( REPRESENTATION_RELATIONSHIP('','',#1352,#1407) 
REPRESENTATION_RELATIONSHIP_WITH_TRANSFORMATION(#1425) 
SHAPE_REPRESENTATION_RELATIONSHIP() );
#1425 = ITEM_DEFINED_TRANSFORMATION('','',#11,#1408);
#1426 = PRODUCT_DEFINITION_SHAPE('Placement','Placement of an item',
  #1427);
#1427 = NEXT_ASSEMBLY_USAGE_OCCURRENCE('10','LinkGroup002','',#1402,
  #1347,$);
#1428 = SHAPE_DEFINITION_REPRESENTATION(#1429,#1435);
#1429 = PRODUCT_DEFINITION_SHAPE('','',#1430);
#1430 = PRODUCT_DEFINITION('design','',#1431,#1434);
#1431 = PRODUCT_DEFINITION_FORMATION('','',#1432);
#1432 = PRODUCT('LinkGroup003','LinkGroup003','',(#1433));
#1433 = PRODUCT_CONTEXT('',#2,'mechanical');
#1434 = PRODUCT_DEFINITION_CONTEXT('part definition',#2,'design');
#1435 = SHAPE_REPRESENTATION('',(#11,#1436),#1440);
#1436 = AXIS2_PLACEMENT_3D('',#1437,#1438,#1439);
#1437 = CARTESIAN_POINT('',(2.54,0.,0.));
#1438 = DIRECTION('',(0.,0.,1.));
#1439 = DIRECTION('',(1.,0.,0.));
#1440 = ( GEOMETRIC_REPRESENTATION_CONTEXT(3) 
GLOBAL_UNCERTAINTY_ASSIGNED_CONTEXT((#1444)) 
GLOBAL_UNIT_ASSIGNED_CONTEXT((#1441,#1442,#1443)) REPRESENTATION_CONTEXT
('Context #1','3D Context with UNIT and UNCERTAINTY') );
#1441 = ( LENGTH_UNIT() NAMED_UNIT(*) SI_UNIT(.MILLI.,.METRE.) );
#1442 = ( NAMED_UNIT(*) PLANE_ANGLE_UNIT() SI_UNIT($,.RADIAN.) );
#1443 = ( NAMED_UNIT(*) SI_UNIT($,.STERADIAN.) SOLID_ANGLE_UNIT() );
#1444 = UNCERTAINTY_MEASURE_WITH_UNIT(LENGTH_MEASURE(5.E-07),#1441,
  'distance_accuracy_value','confusion accuracy');
#1445 = CONTEXT_DEPENDENT_SHAPE_REPRESENTATION(#1446,#1448);
#1446 = ( REPRESENTATION_RELATIONSHIP('','',#1435,#10) 
REPRESENTATION_RELATIONSHIP_WITH_TRANSFORMATION(#1447) 
SHAPE_REPRESENTATION_RELATIONSHIP() );
#1447 = ITEM_DEFINED_TRANSFORMATION('','',#11,#39);
#1448 = PRODUCT_DEFINITION_SHAPE('Placement','Placement of an item',
  #1449);
#1449 = NEXT_ASSEMBLY_USAGE_OCCURRENCE('13','LinkGroup003','',#5,#1430,$
  );
#1450 = PRODUCT_RELATED_PRODUCT_CATEGORY('part',$,(#1432));
#1451 = CONTEXT_DEPENDENT_SHAPE_REPRESENTATION(#1452,#1454);
#1452 = ( REPRESENTATION_RELATIONSHIP('','',#1407,#1435) 
REPRESENTATION_RELATIONSHIP_WITH_TRANSFORMATION(#1453) 
SHAPE_REPRESENTATION_RELATIONSHIP() );
#1453 = ITEM_DEFINED_TRANSFORMATION('','',#11,#1436);
#1454 = PRODUCT_DEFINITION_SHAPE('Placement','Placement of an item',
  #1455);
#1455 = NEXT_ASSEMBLY_USAGE_OCCURRENCE('12','LinkGroup004','',#1430,
  #1402,$);
#1456 = SHAPE_DEFINITION_REPRESENTATION(#1457,#1463);
#1457 = PRODUCT_DEFINITION_SHAPE('','',#1458);
#1458 = PRODUCT_DEFINITION('design','',#1459,#1462);
#1459 = PRODUCT_DEFINITION_FORMATION('','',#1460);
#1460 = PRODUCT('LinkGroup005','LinkGroup005','',(#1461));
#1461 = PRODUCT_CONTEXT('',#2,'mechanical');
#1462 = PRODUCT_DEFINITION_CONTEXT('part definition',#2,'design');
#1463 = SHAPE_REPRESENTATION('',(#11,#1464),#1468);
#1464 = AXIS2_PLACEMENT_3D('',#1465,#1466,#1467);
#1465 = CARTESIAN_POINT('',(2.54,0.,0.));
#1466 = DIRECTION('',(0.,0.,1.));
#1467 = DIRECTION('',(1.,0.,0.));
#1468 = ( GEOMETRIC_REPRESENTATION_CONTEXT(3) 
GLOBAL_UNCERTAINTY_ASSIGNED_CONTEXT((#1472)) 
GLOBAL_UNIT_ASSIGNED_CONTEXT((#1469,#1470,#1471)) REPRESENTATION_CONTEXT
('Context #1','3D Context with UNIT and UNCERTAINTY') );
#1469 = ( LENGTH_UNIT() NAMED_UNIT(*) SI_UNIT(.MILLI.,.METRE.) );
#1470 = ( NAMED_UNIT(*) PLANE_ANGLE_UNIT() SI_UNIT($,.RADIAN.) );
#1471 = ( NAMED_UNIT(*) SI_UNIT($,.STERADIAN.) SOLID_ANGLE_UNIT() );
#1472 = UNCERTAINTY_MEASURE_WITH_UNIT(LENGTH_MEASURE(5.E-07),#1469,
  'distance_accuracy_value','confusion accuracy');
#1473 = CONTEXT_DEPENDENT_SHAPE_REPRESENTATION(#1474,#1476);
#1474 = ( REPRESENTATION_RELATIONSHIP('','',#1463,#10) 
REPRESENTATION_RELATIONSHIP_WITH_TRANSFORMATION(#1475) 
SHAPE_REPRESENTATION_RELATIONSHIP() );
#1475 = ITEM_DEFINED_TRANSFORMATION('','',#11,#43);
#1476 = PRODUCT_DEFINITION_SHAPE('Placement','Placement of an item',
  #1477);
#1477 = NEXT_ASSEMBLY_USAGE_OCCURRENCE('15','LinkGroup005','',#5,#1458,$
  );
#1478 = PRODUCT_RELATED_PRODUCT_CATEGORY('part',$,(#1460));
#1479 = CONTEXT_DEPENDENT_SHAPE_REPRESENTATION(#1480,#1482);
#1480 = ( REPRESENTATION_RELATIONSHIP('','',#1435,#1463) 
REPRESENTATION_RELATIONSHIP_WITH_TRANSFORMATION(#1481) 
SHAPE_REPRESENTATION_RELATIONSHIP() );
#1481 = ITEM_DEFINED_TRANSFORMATION('','',#11,#1464);
#1482 = PRODUCT_DEFINITION_SHAPE('Placement','Placement of an item',
  #1483);
#1483 = NEXT_ASSEMBLY_USAGE_OCCURRENCE('14','LinkGroup006','',#1458,
  #1430,$);
#1484 = SHAPE_DEFINITION_REPRESENTATION(#1485,#1491);
#1485 = PRODUCT_DEFINITION_SHAPE('','',#1486);
#1486 = PRODUCT_DEFINITION('design','',#1487,#1490);
#1487 = PRODUCT_DEFINITION_FORMATION('','',#1488);
#1488 = PRODUCT('LinkGroup007','LinkGroup007','',(#1489));
#1489 = PRODUCT_CONTEXT('',#2,'mechanical');
#1490 = PRODUCT_DEFINITION_CONTEXT('part definition',#2,'design');
#1491 = SHAPE_REPRESENTATION('',(#11,#1492),#1496);
#1492 = AXIS2_PLACEMENT_3D('',#1493,#1494,#1495);
#1493 = CARTESIAN_POINT('',(2.54,0.,0.));
#1494 = DIRECTION('',(0.,0.,1.));
#1495 = DIRECTION('',(1.,0.,0.));
#1496 = ( GEOMETRIC_REPRESENTATION_CONTEXT(3) 
GLOBAL_UNCERTAINTY_ASSIGNED_CONTEXT((#1500)) 
GLOBAL_UNIT_ASSIGNED_CONTEXT((#1497,#1498,#1499)) REPRESENTATION_CONTEXT
('Context #1','3D Context with UNIT and UNCERTAINTY') );
#1497 = ( LENGTH_UNIT() NAMED_UNIT(*) SI_UNIT(.MILLI.,.METRE.) );
#1498 = ( NAMED_UNIT(*) PLANE_ANGLE_UNIT() SI_UNIT($,.RADIAN.) );
#1499 = ( NAMED_UNIT(*) SI_UNIT($,.STERADIAN.) SOLID_ANGLE_UNIT() );
#1500 = UNCERTAINTY_MEASURE_WITH_UNIT(LENGTH_MEASURE(5.E-07),#1497,
  'distance_accuracy_value','confusion accuracy');
#1501 = CONTEXT_DEPENDENT_SHAPE_REPRESENTATION(#1502,#1504);
#1502 = ( REPRESENTATION_RELATIONSHIP('','',#1491,#10) 
REPRESENTATION_RELATIONSHIP_WITH_TRANSFORMATION(#1503) 
SHAPE_REPRESENTATION_RELATIONSHIP() );
#1503 = ITEM_DEFINED_TRANSFORMATION('','',#11,#47);
#1504 = PRODUCT_DEFINITION_SHAPE('Placement','Placement of an item',
  #1505);
#1505 = NEXT_ASSEMBLY_USAGE_OCCURRENCE('17','LinkGroup007','',#5,#1486,$
  );
#1506 = PRODUCT_RELATED_PRODUCT_CATEGORY('part',$,(#1488));
#1507 = CONTEXT_DEPENDENT_SHAPE_REPRESENTATION(#1508,#1510);
#1508 = ( REPRESENTATION_RELATIONSHIP('','',#1463,#1491) 
REPRESENTATION_RELATIONSHIP_WITH_TRANSFORMATION(#1509) 
SHAPE_REPRESENTATION_RELATIONSHIP() );
#1509 = ITEM_DEFINED_TRANSFORMATION('','',#11,#1492);
#1510 = PRODUCT_DEFINITION_SHAPE('Placement','Placement of an item',
  #1511);
#1511 = NEXT_ASSEMBLY_USAGE_OCCURRENCE('16','LinkGroup008','',#1486,
  #1458,$);
#1512 = SHAPE_DEFINITION_REPRESENTATION(#1513,#1519);
#1513 = PRODUCT_DEFINITION_SHAPE('','',#1514);
#1514 = PRODUCT_DEFINITION('design','',#1515,#1518);
#1515 = PRODUCT_DEFINITION_FORMATION('','',#1516);
#1516 = PRODUCT('LinkGroup009','LinkGroup009','',(#1517));
#1517 = PRODUCT_CONTEXT('',#2,'mechanical');
#1518 = PRODUCT_DEFINITION_CONTEXT('part definition',#2,'design');
#1519 = SHAPE_REPRESENTATION('',(#11,#1520),#1524);
#1520 = AXIS2_PLACEMENT_3D('',#1521,#1522,#1523);
#1521 = CARTESIAN_POINT('',(2.54,0.,0.));
#1522 = DIRECTION('',(0.,0.,1.));
#1523 = DIRECTION('',(1.,0.,0.));
#1524 = ( GEOMETRIC_REPRESENTATION_CONTEXT(3) 
GLOBAL_UNCERTAINTY_ASSIGNED_CONTEXT((#1528)) 
GLOBAL_UNIT_ASSIGNED_CONTEXT((#1525,#1526,#1527)) REPRESENTATION_CONTEXT
('Context #1','3D Context with UNIT and UNCERTAINTY') );
#1525 = ( LENGTH_UNIT() NAMED_UNIT(*) SI_UNIT(.MILLI.,.METRE.) );
#1526 = ( NAMED_UNIT(*) PLANE_ANGLE_UNIT() SI_UNIT($,.RADIAN.) );
#1527 = ( NAMED_UNIT(*) SI_UNIT($,.STERADIAN.) SOLID_ANGLE_UNIT() );
#1528 = UNCERTAINTY_MEASURE_WITH_UNIT(LENGTH_MEASURE(5.E-07),#1525,
  'distance_accuracy_value','confusion accuracy');
#1529 = CONTEXT_DEPENDENT_SHAPE_REPRESENTATION(#1530,#1532);
#1530 = ( REPRESENTATION_RELATIONSHIP('','',#1519,#10) 
REPRESENTATION_RELATIONSHIP_WITH_TRANSFORMATION(#1531) 
SHAPE_REPRESENTATION_RELATIONSHIP() );
#1531 = ITEM_DEFINED_TRANSFORMATION('','',#11,#51);
#1532 = PRODUCT_DEFINITION_SHAPE('Placement','Placement of an item',
  #1533);
#1533 = NEXT_ASSEMBLY_USAGE_OCCURRENCE('19','LinkGroup009','',#5,#1514,$
  );
#1534 = PRODUCT_RELATED_PRODUCT_CATEGORY('part',$,(#1516));
#1535 = CONTEXT_DEPENDENT_SHAPE_REPRESENTATION(#1536,#1538);
#1536 = ( REPRESENTATION_RELATIONSHIP('','',#1491,#1519) 
REPRESENTATION_RELATIONSHIP_WITH_TRANSFORMATION(#1537) 
SHAPE_REPRESENTATION_RELATIONSHIP() );
#1537 = ITEM_DEFINED_TRANSFORMATION('','',#11,#1520);
#1538 = PRODUCT_DEFINITION_SHAPE('Placement','Placement of an item',
  #1539);
#1539 = NEXT_ASSEMBLY_USAGE_OCCURRENCE('18','LinkGroup010','',#1514,
  #1486,$);
#1540 = SHAPE_DEFINITION_REPRESENTATION(#1541,#1547);
#1541 = PRODUCT_DEFINITION_SHAPE('','',#1542);
#1542 = PRODUCT_DEFINITION('design','',#1543,#1546);
#1543 = PRODUCT_DEFINITION_FORMATION('','',#1544);
#1544 = PRODUCT('LinkGroup011','LinkGroup011','',(#1545));
#1545 = PRODUCT_CONTEXT('',#2,'mechanical');
#1546 = PRODUCT_DEFINITION_CONTEXT('part definition',#2,'design');
#1547 = SHAPE_REPRESENTATION('',(#11,#1548),#1552);
#1548 = AXIS2_PLACEMENT_3D('',#1549,#1550,#1551);
#1549 = CARTESIAN_POINT('',(2.54,0.,0.));
#1550 = DIRECTION('',(0.,0.,1.));
#1551 = DIRECTION('',(1.,0.,0.));
#1552 = ( GEOMETRIC_REPRESENTATION_CONTEXT(3) 
GLOBAL_UNCERTAINTY_ASSIGNED_CONTEXT((#1556)) 
GLOBAL_UNIT_ASSIGNED_CONTEXT((#1553,#1554,#1555)) REPRESENTATION_CONTEXT
('Context #1','3D Context with UNIT and UNCERTAINTY') );
#1553 = ( LENGTH_UNIT() NAMED_UNIT(*) SI_UNIT(.MILLI.,.METRE.) );
#1554 = ( NAMED_UNIT(*) PLANE_ANGLE_UNIT() SI_UNIT($,.RADIAN.) );
#1555 = ( NAMED_UNIT(*) SI_UNIT($,.STERADIAN.) SOLID_ANGLE_UNIT() );
#1556 = UNCERTAINTY_MEASURE_WITH_UNIT(LENGTH_MEASURE(5.E-07),#1553,
  'distance_accuracy_value','confusion accuracy');
#1557 = CONTEXT_DEPENDENT_SHAPE_REPRESENTATION(#1558,#1560);
#1558 = ( REPRESENTATION_RELATIONSHIP('','',#1547,#10) 
REPRESENTATION_RELATIONSHIP_WITH_TRANSFORMATION(#1559) 
SHAPE_REPRESENTATION_RELATIONSHIP() );
#1559 = ITEM_DEFINED_TRANSFORMATION('','',#11,#55);
#1560 = PRODUCT_DEFINITION_SHAPE('Placement','Placement of an item',
  #1561);
#1561 = NEXT_ASSEMBLY_USAGE_OCCURRENCE('21','LinkGroup011','',#5,#1542,$
  );
#1562 = PRODUCT_RELATED_PRODUCT_CATEGORY('part',$,(#1544));
#1563 = CONTEXT_DEPENDENT_SHAPE_REPRESENTATION(#1564,#1566);
#1564 = ( REPRESENTATION_RELATIONSHIP('','',#1519,#1547) 
REPRESENTATION_RELATIONSHIP_WITH_TRANSFORMATION(#1565) 
SHAPE_REPRESENTATION_RELATIONSHIP() );
#1565 = ITEM_DEFINED_TRANSFORMATION('','',#11,#1548);
#1566 = PRODUCT_DEFINITION_SHAPE('Placement','Placement of an item',
  #1567);
#1567 = NEXT_ASSEMBLY_USAGE_OCCURRENCE('20','LinkGroup012','',#1542,
  #1514,$);
#1568 = MECHANICAL_DESIGN_GEOMETRIC_PRESENTATION_REPRESENTATION('',(
    #1569),#1334);
#1569 = STYLED_ITEM('color',(#1570),#952);
#1570 = PRESENTATION_STYLE_ASSIGNMENT((#1571,#1577));
#1571 = SURFACE_STYLE_USAGE(.BOTH.,#1572);
#1572 = SURFACE_SIDE_STYLE('',(#1573));
#1573 = SURFACE_STYLE_FILL_AREA(#1574);
#1574 = FILL_AREA_STYLE('',(#1575));
#1575 = FILL_AREA_STYLE_COLOUR('',#1576);
#1576 = DRAUGHTING_PRE_DEFINED_COLOUR('black');
#1577 = CURVE_STYLE('',#1578,POSITIVE_LENGTH_MEASURE(0.1),#1579);
#1578 = DRAUGHTING_PRE_DEFINED_CURVE_FONT('continuous');
#1579 = COLOUR_RGB('',9.803921802644E-02,9.803921802644E-02,
  9.803921802644E-02);
#1580 = MECHANICAL_DESIGN_GEOMETRIC_PRESENTATION_REPRESENTATION('',(
    #1581),#933);
#1581 = STYLED_ITEM('color',(#1582),#713);
#1582 = PRESENTATION_STYLE_ASSIGNMENT((#1583,#1589));
#1583 = SURFACE_STYLE_USAGE(.BOTH.,#1584);
#1584 = SURFACE_SIDE_STYLE('',(#1585));
#1585 = SURFACE_STYLE_FILL_AREA(#1586);
#1586 = FILL_AREA_STYLE('',(#1587));
#1587 = FILL_AREA_STYLE_COLOUR('',#1588);
#1588 = COLOUR_RGB('',0.890196087049,0.862745115625,1.960784362163E-02);
#1589 = CURVE_STYLE('',#1590,POSITIVE_LENGTH_MEASURE(0.1),#1579);
#1590 = DRAUGHTING_PRE_DEFINED_CURVE_FONT('continuous');
#1591 = MECHANICAL_DESIGN_GEOMETRIC_PRESENTATION_REPRESENTATION('',(
    #1592),#293);
#1592 = STYLED_ITEM('color',(#1593),#73);
#1593 = PRESENTATION_STYLE_ASSIGNMENT((#1594,#1599));
#1594 = SURFACE_STYLE_USAGE(.BOTH.,#1595);
#1595 = SURFACE_SIDE_STYLE('',(#1596));
#1596 = SURFACE_STYLE_FILL_AREA(#1597);
#1597 = FILL_AREA_STYLE('',(#1598));
#1598 = FILL_AREA_STYLE_COLOUR('',#1588);
#1599 = CURVE_STYLE('',#1600,POSITIVE_LENGTH_MEASURE(0.1),#1579);
#1600 = DRAUGHTING_PRE_DEFINED_CURVE_FONT('continuous');
#1601 = MECHANICAL_DESIGN_GEOMETRIC_PRESENTATION_REPRESENTATION('',(
    #1602),#694);
#1602 = STYLED_ITEM('color',(#1603),#312);
#1603 = PRESENTATION_STYLE_ASSIGNMENT((#1604,#1609));
#1604 = SURFACE_STYLE_USAGE(.BOTH.,#1605);
#1605 = SURFACE_SIDE_STYLE('',(#1606));
#1606 = SURFACE_STYLE_FILL_AREA(#1607);
#1607 = FILL_AREA_STYLE('',(#1608));
#1608 = FILL_AREA_STYLE_COLOUR('',#1576);
#1609 = CURVE_STYLE('',#1610,POSITIVE_LENGTH_MEASURE(0.1),#1579);
#1610 = DRAUGHTING_PRE_DEFINED_CURVE_FONT('continuous');
ENDSEC;
END-ISO-10303-21;
