ISO-10303-21;
HEADER;
FILE_DESCRIPTION(('FreeCAD Model'),'2;1');
FILE_NAME('Open CASCADE Shape Model','2026-06-04T12:08:14',(''),(''),
  'Open CASCADE STEP processor 7.8','FreeCAD','Unknown');
FILE_SCHEMA(('AUTOMOTIVE_DESIGN { 1 0 10303 214 1 1 1 1 }'));
ENDSEC;
DATA;
#1 = APPLICATION_PROTOCOL_DEFINITION('international standard',
  'automotive_design',2000,#2);
#2 = APPLICATION_CONTEXT(
  'core data for automotive mechanical design processes');
#3 = SHAPE_DEFINITION_REPRESENTATION(#4,#10);
#4 = PRODUCT_DEFINITION_SHAPE('','',#5);
#5 = PRODUCT_DEFINITION('design','',#6,#9);
#6 = PRODUCT_DEFINITION_FORMATION('','',#7);
#7 = PRODUCT('LEDRD254W50D500H530-3_FLT_FD_LL2000',
  'LEDRD254W50D500H530-3_FLT_FD_LL2000','',(#8));
#8 = PRODUCT_CONTEXT('',#2,'mechanical');
#9 = PRODUCT_DEFINITION_CONTEXT('part definition',#2,'design');
#10 = ADVANCED_BREP_SHAPE_REPRESENTATION('',(#11,#15),#1021);
#11 = AXIS2_PLACEMENT_3D('',#12,#13,#14);
#12 = CARTESIAN_POINT('',(0.,0.,0.));
#13 = DIRECTION('',(0.,0.,1.));
#14 = DIRECTION('',(1.,0.,-0.));
#15 = MANIFOLD_SOLID_BREP('',#16);
#16 = CLOSED_SHELL('',(#17,#61,#102,#144,#177,#302,#342,#382,#407,#441,
    #459,#475,#495,#507,#538,#569,#591,#603,#615,#646,#668,#703,#738,
    #769,#800,#822,#867,#912,#934,#946,#968,#985,#997,#1009));
#17 = ADVANCED_FACE('',(#18),#56,.T.);
#18 = FACE_BOUND('',#19,.T.);
#19 = EDGE_LOOP('',(#20,#31,#40,#49));
#20 = ORIENTED_EDGE('',*,*,#21,.F.);
#21 = EDGE_CURVE('',#22,#24,#26,.T.);
#22 = VERTEX_POINT('',#23);
#23 = CARTESIAN_POINT('',(0.,5.1,-2.5));
#24 = VERTEX_POINT('',#25);
#25 = CARTESIAN_POINT('',(3.061616997868E-16,5.1,2.5));
#26 = CIRCLE('',#27,2.5);
#27 = AXIS2_PLACEMENT_3D('',#28,#29,#30);
#28 = CARTESIAN_POINT('',(0.,5.1,0.));
#29 = DIRECTION('',(0.,-1.,0.));
#30 = DIRECTION('',(0.,0.,1.));
#31 = ORIENTED_EDGE('',*,*,#32,.T.);
#32 = EDGE_CURVE('',#22,#33,#35,.T.);
#33 = VERTEX_POINT('',#34);
#34 = CARTESIAN_POINT('',(2.939152317954E-16,5.3,-2.3));
#35 = CIRCLE('',#36,0.2);
#36 = AXIS2_PLACEMENT_3D('',#37,#38,#39);
#37 = CARTESIAN_POINT('',(2.816687638039E-16,5.1,-2.3));
#38 = DIRECTION('',(1.,-0.,1.224646799147E-16));
#39 = DIRECTION('',(1.224646799147E-16,0.,-1.));
#40 = ORIENTED_EDGE('',*,*,#41,.F.);
#41 = EDGE_CURVE('',#42,#33,#44,.T.);
#42 = VERTEX_POINT('',#43);
#43 = CARTESIAN_POINT('',(0.,5.3,2.3));
#44 = CIRCLE('',#45,2.3);
#45 = AXIS2_PLACEMENT_3D('',#46,#47,#48);
#46 = CARTESIAN_POINT('',(0.,5.3,0.));
#47 = DIRECTION('',(0.,1.,0.));
#48 = DIRECTION('',(0.,-0.,1.));
#49 = ORIENTED_EDGE('',*,*,#50,.F.);
#50 = EDGE_CURVE('',#24,#42,#51,.T.);
#51 = CIRCLE('',#52,0.2);
#52 = AXIS2_PLACEMENT_3D('',#53,#54,#55);
#53 = CARTESIAN_POINT('',(0.,5.1,2.3));
#54 = DIRECTION('',(-1.,0.,0.));
#55 = DIRECTION('',(0.,0.,1.));
#56 = TOROIDAL_SURFACE('',#57,2.3,0.2);
#57 = AXIS2_PLACEMENT_3D('',#58,#59,#60);
#58 = CARTESIAN_POINT('',(0.,5.1,0.));
#59 = DIRECTION('',(0.,1.,0.));
#60 = DIRECTION('',(0.,-0.,1.));
#61 = ADVANCED_FACE('',(#62),#97,.T.);
#62 = FACE_BOUND('',#63,.T.);
#63 = EDGE_LOOP('',(#64,#65,#73,#82,#91));
#64 = ORIENTED_EDGE('',*,*,#21,.T.);
#65 = ORIENTED_EDGE('',*,*,#66,.T.);
#66 = EDGE_CURVE('',#24,#67,#69,.T.);
#67 = VERTEX_POINT('',#68);
#68 = CARTESIAN_POINT('',(3.061616997868E-16,1.,2.5));
#69 = LINE('',#70,#71);
#70 = CARTESIAN_POINT('',(3.061616997868E-16,5.3,2.5));
#71 = VECTOR('',#72,1.);
#72 = DIRECTION('',(-0.,-1.,-0.));
#73 = ORIENTED_EDGE('',*,*,#74,.T.);
#74 = EDGE_CURVE('',#67,#75,#77,.T.);
#75 = VERTEX_POINT('',#76);
#76 = CARTESIAN_POINT('',(2.5,1.,0.));
#77 = CIRCLE('',#78,2.5);
#78 = AXIS2_PLACEMENT_3D('',#79,#80,#81);
#79 = CARTESIAN_POINT('',(0.,1.,0.));
#80 = DIRECTION('',(0.,1.,0.));
#81 = DIRECTION('',(0.,-0.,1.));
#82 = ORIENTED_EDGE('',*,*,#83,.T.);
#83 = EDGE_CURVE('',#75,#84,#86,.T.);
#84 = VERTEX_POINT('',#85);
#85 = CARTESIAN_POINT('',(0.,1.,-2.5));
#86 = CIRCLE('',#87,2.5);
#87 = AXIS2_PLACEMENT_3D('',#88,#89,#90);
#88 = CARTESIAN_POINT('',(0.,1.,0.));
#89 = DIRECTION('',(0.,1.,0.));
#90 = DIRECTION('',(0.,-0.,1.));
#91 = ORIENTED_EDGE('',*,*,#92,.F.);
#92 = EDGE_CURVE('',#22,#84,#93,.T.);
#93 = LINE('',#94,#95);
#94 = CARTESIAN_POINT('',(0.,5.3,-2.5));
#95 = VECTOR('',#96,1.);
#96 = DIRECTION('',(-0.,-1.,-0.));
#97 = CYLINDRICAL_SURFACE('',#98,2.5);
#98 = AXIS2_PLACEMENT_3D('',#99,#100,#101);
#99 = CARTESIAN_POINT('',(0.,5.3,0.));
#100 = DIRECTION('',(-0.,-1.,-0.));
#101 = DIRECTION('',(0.,0.,-1.));
#102 = ADVANCED_FACE('',(#103),#139,.T.);
#103 = FACE_BOUND('',#104,.T.);
#104 = EDGE_LOOP('',(#105,#116,#124,#133));
#105 = ORIENTED_EDGE('',*,*,#106,.F.);
#106 = EDGE_CURVE('',#107,#109,#111,.T.);
#107 = VERTEX_POINT('',#108);
#108 = CARTESIAN_POINT('',(3.551475717527E-16,1.,2.9));
#109 = VERTEX_POINT('',#110);
#110 = CARTESIAN_POINT('',(2.5,1.,1.46969384567));
#111 = CIRCLE('',#112,2.9);
#112 = AXIS2_PLACEMENT_3D('',#113,#114,#115);
#113 = CARTESIAN_POINT('',(0.,1.,0.));
#114 = DIRECTION('',(0.,1.,0.));
#115 = DIRECTION('',(0.,-0.,1.));
#116 = ORIENTED_EDGE('',*,*,#117,.T.);
#117 = EDGE_CURVE('',#107,#118,#120,.T.);
#118 = VERTEX_POINT('',#119);
#119 = CARTESIAN_POINT('',(3.551475717527E-16,0.,2.9));
#120 = LINE('',#121,#122);
#121 = CARTESIAN_POINT('',(3.551475717527E-16,1.,2.9));
#122 = VECTOR('',#123,1.);
#123 = DIRECTION('',(-0.,-1.,-0.));
#124 = ORIENTED_EDGE('',*,*,#125,.T.);
#125 = EDGE_CURVE('',#118,#126,#128,.T.);
#126 = VERTEX_POINT('',#127);
#127 = CARTESIAN_POINT('',(2.5,0.,1.46969384567));
#128 = CIRCLE('',#129,2.9);
#129 = AXIS2_PLACEMENT_3D('',#130,#131,#132);
#130 = CARTESIAN_POINT('',(0.,0.,0.));
#131 = DIRECTION('',(0.,1.,0.));
#132 = DIRECTION('',(0.,-0.,1.));
#133 = ORIENTED_EDGE('',*,*,#134,.T.);
#134 = EDGE_CURVE('',#126,#109,#135,.T.);
#135 = LINE('',#136,#137);
#136 = CARTESIAN_POINT('',(2.5,-9.999999999999E-04,1.46969384567));
#137 = VECTOR('',#138,1.);
#138 = DIRECTION('',(-0.,1.,-0.));
#139 = CYLINDRICAL_SURFACE('',#140,2.9);
#140 = AXIS2_PLACEMENT_3D('',#141,#142,#143);
#141 = CARTESIAN_POINT('',(0.,1.,0.));
#142 = DIRECTION('',(-0.,-1.,-0.));
#143 = DIRECTION('',(0.,0.,-1.));
#144 = ADVANCED_FACE('',(#145),#172,.T.);
#145 = FACE_BOUND('',#146,.T.);
#146 = EDGE_LOOP('',(#147,#148,#157,#165));
#147 = ORIENTED_EDGE('',*,*,#117,.F.);
#148 = ORIENTED_EDGE('',*,*,#149,.F.);
#149 = EDGE_CURVE('',#150,#107,#152,.T.);
#150 = VERTEX_POINT('',#151);
#151 = CARTESIAN_POINT('',(0.,1.,-2.9));
#152 = CIRCLE('',#153,2.9);
#153 = AXIS2_PLACEMENT_3D('',#154,#155,#156);
#154 = CARTESIAN_POINT('',(0.,1.,0.));
#155 = DIRECTION('',(0.,1.,0.));
#156 = DIRECTION('',(0.,-0.,1.));
#157 = ORIENTED_EDGE('',*,*,#158,.T.);
#158 = EDGE_CURVE('',#150,#159,#161,.T.);
#159 = VERTEX_POINT('',#160);
#160 = CARTESIAN_POINT('',(0.,0.,-2.9));
#161 = LINE('',#162,#163);
#162 = CARTESIAN_POINT('',(0.,1.,-2.9));
#163 = VECTOR('',#164,1.);
#164 = DIRECTION('',(-0.,-1.,-0.));
#165 = ORIENTED_EDGE('',*,*,#166,.T.);
#166 = EDGE_CURVE('',#159,#118,#167,.T.);
#167 = CIRCLE('',#168,2.9);
#168 = AXIS2_PLACEMENT_3D('',#169,#170,#171);
#169 = CARTESIAN_POINT('',(0.,0.,0.));
#170 = DIRECTION('',(0.,1.,0.));
#171 = DIRECTION('',(0.,-0.,1.));
#172 = CYLINDRICAL_SURFACE('',#173,2.9);
#173 = AXIS2_PLACEMENT_3D('',#174,#175,#176);
#174 = CARTESIAN_POINT('',(0.,1.,0.));
#175 = DIRECTION('',(-0.,-1.,-0.));
#176 = DIRECTION('',(0.,0.,-1.));
#177 = ADVANCED_FACE('',(#178,#212,#246),#297,.F.);
#178 = FACE_BOUND('',#179,.T.);
#179 = EDGE_LOOP('',(#180,#190,#198,#206));
#180 = ORIENTED_EDGE('',*,*,#181,.T.);
#181 = EDGE_CURVE('',#182,#184,#186,.T.);
#182 = VERTEX_POINT('',#183);
#183 = CARTESIAN_POINT('',(-0.25,-3.061616997868E-17,0.25));
#184 = VERTEX_POINT('',#185);
#185 = CARTESIAN_POINT('',(0.25,3.061616997868E-17,0.25));
#186 = LINE('',#187,#188);
#187 = CARTESIAN_POINT('',(-0.25,-3.061616997868E-17,0.25));
#188 = VECTOR('',#189,1.);
#189 = DIRECTION('',(1.,1.224646799147E-16,0.));
#190 = ORIENTED_EDGE('',*,*,#191,.T.);
#191 = EDGE_CURVE('',#184,#192,#194,.T.);
#192 = VERTEX_POINT('',#193);
#193 = CARTESIAN_POINT('',(0.25,3.061616997868E-17,-0.25));
#194 = LINE('',#195,#196);
#195 = CARTESIAN_POINT('',(0.25,3.061616997868E-17,0.25));
#196 = VECTOR('',#197,1.);
#197 = DIRECTION('',(-0.,-0.,-1.));
#198 = ORIENTED_EDGE('',*,*,#199,.F.);
#199 = EDGE_CURVE('',#200,#192,#202,.T.);
#200 = VERTEX_POINT('',#201);
#201 = CARTESIAN_POINT('',(-0.25,0.,-0.25));
#202 = LINE('',#203,#204);
#203 = CARTESIAN_POINT('',(-0.25,-3.061616997868E-17,-0.25));
#204 = VECTOR('',#205,1.);
#205 = DIRECTION('',(1.,1.224646799147E-16,0.));
#206 = ORIENTED_EDGE('',*,*,#207,.F.);
#207 = EDGE_CURVE('',#182,#200,#208,.T.);
#208 = LINE('',#209,#210);
#209 = CARTESIAN_POINT('',(-0.25,-3.061616997868E-17,0.25));
#210 = VECTOR('',#211,1.);
#211 = DIRECTION('',(-0.,-0.,-1.));
#212 = FACE_BOUND('',#213,.T.);
#213 = EDGE_LOOP('',(#214,#224,#232,#240));
#214 = ORIENTED_EDGE('',*,*,#215,.T.);
#215 = EDGE_CURVE('',#216,#218,#220,.T.);
#216 = VERTEX_POINT('',#217);
#217 = CARTESIAN_POINT('',(-2.79,-2.644395542648E-17,0.25));
#218 = VERTEX_POINT('',#219);
#219 = CARTESIAN_POINT('',(-1.29,0.,0.25));
#220 = LINE('',#221,#222);
#221 = CARTESIAN_POINT('',(-2.79,-2.644395542648E-17,0.25));
#222 = VECTOR('',#223,1.);
#223 = DIRECTION('',(1.,1.057758217059E-16,0.));
#224 = ORIENTED_EDGE('',*,*,#225,.T.);
#225 = EDGE_CURVE('',#218,#226,#228,.T.);
#226 = VERTEX_POINT('',#227);
#227 = CARTESIAN_POINT('',(-1.29,0.,-0.25));
#228 = LINE('',#229,#230);
#229 = CARTESIAN_POINT('',(-1.29,0.,0.25));
#230 = VECTOR('',#231,1.);
#231 = DIRECTION('',(-0.,-0.,-1.));
#232 = ORIENTED_EDGE('',*,*,#233,.F.);
#233 = EDGE_CURVE('',#234,#226,#236,.T.);
#234 = VERTEX_POINT('',#235);
#235 = CARTESIAN_POINT('',(-2.79,0.,-0.25));
#236 = LINE('',#237,#238);
#237 = CARTESIAN_POINT('',(-2.79,-2.644395542648E-17,-0.25));
#238 = VECTOR('',#239,1.);
#239 = DIRECTION('',(1.,1.057758217059E-16,0.));
#240 = ORIENTED_EDGE('',*,*,#241,.F.);
#241 = EDGE_CURVE('',#216,#234,#242,.T.);
#242 = LINE('',#243,#244);
#243 = CARTESIAN_POINT('',(-2.79,-2.644395542648E-17,0.25));
#244 = VECTOR('',#245,1.);
#245 = DIRECTION('',(-0.,-0.,-1.));
#246 = FACE_BOUND('',#247,.T.);
#247 = EDGE_LOOP('',(#248,#258,#266,#272,#273,#274,#283,#291));
#248 = ORIENTED_EDGE('',*,*,#249,.F.);
#249 = EDGE_CURVE('',#250,#252,#254,.T.);
#250 = VERTEX_POINT('',#251);
#251 = CARTESIAN_POINT('',(0.99,0.,0.25));
#252 = VERTEX_POINT('',#253);
#253 = CARTESIAN_POINT('',(0.99,0.,-0.25));
#254 = LINE('',#255,#256);
#255 = CARTESIAN_POINT('',(0.99,-2.204364238465E-16,0.25));
#256 = VECTOR('',#257,1.);
#257 = DIRECTION('',(-0.,-0.,-1.));
#258 = ORIENTED_EDGE('',*,*,#259,.T.);
#259 = EDGE_CURVE('',#250,#260,#262,.T.);
#260 = VERTEX_POINT('',#261);
#261 = CARTESIAN_POINT('',(2.5,-3.771137991254E-18,0.25));
#262 = LINE('',#263,#264);
#263 = CARTESIAN_POINT('',(2.29,-2.356961244534E-17,0.25));
#264 = VECTOR('',#265,1.);
#265 = DIRECTION('',(1.,9.427844978135E-17,0.));
#266 = ORIENTED_EDGE('',*,*,#267,.F.);
#267 = EDGE_CURVE('',#126,#260,#268,.T.);
#268 = LINE('',#269,#270);
#269 = CARTESIAN_POINT('',(2.5,0.,0.));
#270 = VECTOR('',#271,1.);
#271 = DIRECTION('',(0.,0.,-1.));
#272 = ORIENTED_EDGE('',*,*,#125,.F.);
#273 = ORIENTED_EDGE('',*,*,#166,.F.);
#274 = ORIENTED_EDGE('',*,*,#275,.F.);
#275 = EDGE_CURVE('',#276,#159,#278,.T.);
#276 = VERTEX_POINT('',#277);
#277 = CARTESIAN_POINT('',(2.5,0.,-1.46969384567));
#278 = CIRCLE('',#279,2.9);
#279 = AXIS2_PLACEMENT_3D('',#280,#281,#282);
#280 = CARTESIAN_POINT('',(0.,0.,0.));
#281 = DIRECTION('',(0.,1.,0.));
#282 = DIRECTION('',(0.,-0.,1.));
#283 = ORIENTED_EDGE('',*,*,#284,.F.);
#284 = EDGE_CURVE('',#285,#276,#287,.T.);
#285 = VERTEX_POINT('',#286);
#286 = CARTESIAN_POINT('',(2.5,0.,-0.25));
#287 = LINE('',#288,#289);
#288 = CARTESIAN_POINT('',(2.5,0.,0.));
#289 = VECTOR('',#290,1.);
#290 = DIRECTION('',(0.,0.,-1.));
#291 = ORIENTED_EDGE('',*,*,#292,.F.);
#292 = EDGE_CURVE('',#252,#285,#293,.T.);
#293 = LINE('',#294,#295);
#294 = CARTESIAN_POINT('',(2.29,-2.356961244534E-17,-0.25));
#295 = VECTOR('',#296,1.);
#296 = DIRECTION('',(1.,9.427844978135E-17,0.));
#297 = PLANE('',#298);
#298 = AXIS2_PLACEMENT_3D('',#299,#300,#301);
#299 = CARTESIAN_POINT('',(0.,0.,0.));
#300 = DIRECTION('',(0.,1.,0.));
#301 = DIRECTION('',(0.,-0.,1.));
#302 = ADVANCED_FACE('',(#303),#337,.F.);
#303 = FACE_BOUND('',#304,.T.);
#304 = EDGE_LOOP('',(#305,#315,#323,#331));
#305 = ORIENTED_EDGE('',*,*,#306,.F.);
#306 = EDGE_CURVE('',#307,#309,#311,.T.);
#307 = VERTEX_POINT('',#308);
#308 = CARTESIAN_POINT('',(2.29,-0.8,0.25));
#309 = VERTEX_POINT('',#310);
#310 = CARTESIAN_POINT('',(2.29,-23.,0.25));
#311 = LINE('',#312,#313);
#312 = CARTESIAN_POINT('',(2.29,-2.356961244534E-17,0.25));
#313 = VECTOR('',#314,1.);
#314 = DIRECTION('',(9.427844978135E-17,-1.,0.));
#315 = ORIENTED_EDGE('',*,*,#316,.T.);
#316 = EDGE_CURVE('',#307,#317,#319,.T.);
#317 = VERTEX_POINT('',#318);
#318 = CARTESIAN_POINT('',(2.29,-0.8,-0.25));
#319 = LINE('',#320,#321);
#320 = CARTESIAN_POINT('',(2.29,-0.8,-0.25));
#321 = VECTOR('',#322,1.);
#322 = DIRECTION('',(-0.,-0.,-1.));
#323 = ORIENTED_EDGE('',*,*,#324,.T.);
#324 = EDGE_CURVE('',#317,#325,#327,.T.);
#325 = VERTEX_POINT('',#326);
#326 = CARTESIAN_POINT('',(2.29,-23.,-0.25));
#327 = LINE('',#328,#329);
#328 = CARTESIAN_POINT('',(2.29,-2.356961244534E-17,-0.25));
#329 = VECTOR('',#330,1.);
#330 = DIRECTION('',(9.427844978135E-17,-1.,0.));
#331 = ORIENTED_EDGE('',*,*,#332,.F.);
#332 = EDGE_CURVE('',#309,#325,#333,.T.);
#333 = LINE('',#334,#335);
#334 = CARTESIAN_POINT('',(2.29,-23.,0.25));
#335 = VECTOR('',#336,1.);
#336 = DIRECTION('',(-0.,-0.,-1.));
#337 = PLANE('',#338);
#338 = AXIS2_PLACEMENT_3D('',#339,#340,#341);
#339 = CARTESIAN_POINT('',(2.29,-2.356961244534E-17,0.25));
#340 = DIRECTION('',(1.,9.427844978135E-17,-0.));
#341 = DIRECTION('',(-9.427844978135E-17,1.,0.));
#342 = ADVANCED_FACE('',(#343),#377,.T.);
#343 = FACE_BOUND('',#344,.T.);
#344 = EDGE_LOOP('',(#345,#355,#363,#371));
#345 = ORIENTED_EDGE('',*,*,#346,.F.);
#346 = EDGE_CURVE('',#347,#349,#351,.T.);
#347 = VERTEX_POINT('',#348);
#348 = CARTESIAN_POINT('',(-2.29,-0.8,-0.25));
#349 = VERTEX_POINT('',#350);
#350 = CARTESIAN_POINT('',(-2.29,-20.5,-0.25));
#351 = LINE('',#352,#353);
#352 = CARTESIAN_POINT('',(-2.29,2.644395542648E-17,-0.25));
#353 = VECTOR('',#354,1.);
#354 = DIRECTION('',(1.057758217059E-16,-1.,0.));
#355 = ORIENTED_EDGE('',*,*,#356,.T.);
#356 = EDGE_CURVE('',#347,#357,#359,.T.);
#357 = VERTEX_POINT('',#358);
#358 = CARTESIAN_POINT('',(-2.29,-0.8,0.25));
#359 = LINE('',#360,#361);
#360 = CARTESIAN_POINT('',(-2.29,-0.8,0.25));
#361 = VECTOR('',#362,1.);
#362 = DIRECTION('',(0.,0.,1.));
#363 = ORIENTED_EDGE('',*,*,#364,.T.);
#364 = EDGE_CURVE('',#357,#365,#367,.T.);
#365 = VERTEX_POINT('',#366);
#366 = CARTESIAN_POINT('',(-2.29,-20.5,0.25));
#367 = LINE('',#368,#369);
#368 = CARTESIAN_POINT('',(-2.29,2.644395542648E-17,0.25));
#369 = VECTOR('',#370,1.);
#370 = DIRECTION('',(1.057758217059E-16,-1.,0.));
#371 = ORIENTED_EDGE('',*,*,#372,.T.);
#372 = EDGE_CURVE('',#365,#349,#373,.T.);
#373 = LINE('',#374,#375);
#374 = CARTESIAN_POINT('',(-2.29,-20.5,0.25));
#375 = VECTOR('',#376,1.);
#376 = DIRECTION('',(-0.,-0.,-1.));
#377 = PLANE('',#378);
#378 = AXIS2_PLACEMENT_3D('',#379,#380,#381);
#379 = CARTESIAN_POINT('',(-2.29,2.644395542648E-17,0.25));
#380 = DIRECTION('',(1.,1.057758217059E-16,-0.));
#381 = DIRECTION('',(-1.057758217059E-16,1.,0.));
#382 = ADVANCED_FACE('',(#383),#402,.T.);
#383 = FACE_BOUND('',#384,.T.);
#384 = EDGE_LOOP('',(#385,#386,#395,#401));
#385 = ORIENTED_EDGE('',*,*,#158,.F.);
#386 = ORIENTED_EDGE('',*,*,#387,.F.);
#387 = EDGE_CURVE('',#388,#150,#390,.T.);
#388 = VERTEX_POINT('',#389);
#389 = CARTESIAN_POINT('',(2.5,1.,-1.46969384567));
#390 = CIRCLE('',#391,2.9);
#391 = AXIS2_PLACEMENT_3D('',#392,#393,#394);
#392 = CARTESIAN_POINT('',(0.,1.,0.));
#393 = DIRECTION('',(0.,1.,0.));
#394 = DIRECTION('',(0.,-0.,1.));
#395 = ORIENTED_EDGE('',*,*,#396,.F.);
#396 = EDGE_CURVE('',#276,#388,#397,.T.);
#397 = LINE('',#398,#399);
#398 = CARTESIAN_POINT('',(2.5,-9.999999999999E-04,-1.46969384567));
#399 = VECTOR('',#400,1.);
#400 = DIRECTION('',(-0.,1.,-0.));
#401 = ORIENTED_EDGE('',*,*,#275,.T.);
#402 = CYLINDRICAL_SURFACE('',#403,2.9);
#403 = AXIS2_PLACEMENT_3D('',#404,#405,#406);
#404 = CARTESIAN_POINT('',(0.,1.,0.));
#405 = DIRECTION('',(-0.,-1.,-0.));
#406 = DIRECTION('',(0.,0.,-1.));
#407 = ADVANCED_FACE('',(#408,#425),#436,.T.);
#408 = FACE_BOUND('',#409,.T.);
#409 = EDGE_LOOP('',(#410,#416,#417,#418,#419));
#410 = ORIENTED_EDGE('',*,*,#411,.F.);
#411 = EDGE_CURVE('',#388,#75,#412,.T.);
#412 = LINE('',#413,#414);
#413 = CARTESIAN_POINT('',(2.5,1.,-0.));
#414 = VECTOR('',#415,1.);
#415 = DIRECTION('',(0.,0.,1.));
#416 = ORIENTED_EDGE('',*,*,#387,.T.);
#417 = ORIENTED_EDGE('',*,*,#149,.T.);
#418 = ORIENTED_EDGE('',*,*,#106,.T.);
#419 = ORIENTED_EDGE('',*,*,#420,.F.);
#420 = EDGE_CURVE('',#75,#109,#421,.T.);
#421 = LINE('',#422,#423);
#422 = CARTESIAN_POINT('',(2.5,1.,-0.));
#423 = VECTOR('',#424,1.);
#424 = DIRECTION('',(0.,0.,1.));
#425 = FACE_BOUND('',#426,.T.);
#426 = EDGE_LOOP('',(#427,#428,#435));
#427 = ORIENTED_EDGE('',*,*,#74,.F.);
#428 = ORIENTED_EDGE('',*,*,#429,.F.);
#429 = EDGE_CURVE('',#84,#67,#430,.T.);
#430 = CIRCLE('',#431,2.5);
#431 = AXIS2_PLACEMENT_3D('',#432,#433,#434);
#432 = CARTESIAN_POINT('',(0.,1.,0.));
#433 = DIRECTION('',(0.,1.,0.));
#434 = DIRECTION('',(0.,-0.,1.));
#435 = ORIENTED_EDGE('',*,*,#83,.F.);
#436 = PLANE('',#437);
#437 = AXIS2_PLACEMENT_3D('',#438,#439,#440);
#438 = CARTESIAN_POINT('',(0.,1.,0.));
#439 = DIRECTION('',(0.,1.,0.));
#440 = DIRECTION('',(0.,-0.,1.));
#441 = ADVANCED_FACE('',(#442),#454,.T.);
#442 = FACE_BOUND('',#443,.T.);
#443 = EDGE_LOOP('',(#444,#445,#452,#453));
#444 = ORIENTED_EDGE('',*,*,#66,.F.);
#445 = ORIENTED_EDGE('',*,*,#446,.T.);
#446 = EDGE_CURVE('',#24,#22,#447,.T.);
#447 = CIRCLE('',#448,2.5);
#448 = AXIS2_PLACEMENT_3D('',#449,#450,#451);
#449 = CARTESIAN_POINT('',(0.,5.1,0.));
#450 = DIRECTION('',(0.,-1.,0.));
#451 = DIRECTION('',(0.,0.,1.));
#452 = ORIENTED_EDGE('',*,*,#92,.T.);
#453 = ORIENTED_EDGE('',*,*,#429,.T.);
#454 = CYLINDRICAL_SURFACE('',#455,2.5);
#455 = AXIS2_PLACEMENT_3D('',#456,#457,#458);
#456 = CARTESIAN_POINT('',(0.,5.3,0.));
#457 = DIRECTION('',(-0.,-1.,-0.));
#458 = DIRECTION('',(0.,0.,-1.));
#459 = ADVANCED_FACE('',(#460),#470,.T.);
#460 = FACE_BOUND('',#461,.T.);
#461 = EDGE_LOOP('',(#462,#463));
#462 = ORIENTED_EDGE('',*,*,#41,.T.);
#463 = ORIENTED_EDGE('',*,*,#464,.T.);
#464 = EDGE_CURVE('',#33,#42,#465,.T.);
#465 = CIRCLE('',#466,2.3);
#466 = AXIS2_PLACEMENT_3D('',#467,#468,#469);
#467 = CARTESIAN_POINT('',(0.,5.3,0.));
#468 = DIRECTION('',(0.,1.,0.));
#469 = DIRECTION('',(0.,-0.,1.));
#470 = PLANE('',#471);
#471 = AXIS2_PLACEMENT_3D('',#472,#473,#474);
#472 = CARTESIAN_POINT('',(0.,5.3,0.));
#473 = DIRECTION('',(0.,1.,0.));
#474 = DIRECTION('',(0.,-0.,1.));
#475 = ADVANCED_FACE('',(#476),#490,.F.);
#476 = FACE_BOUND('',#477,.T.);
#477 = EDGE_LOOP('',(#478,#479,#485,#486,#487,#488,#489));
#478 = ORIENTED_EDGE('',*,*,#267,.T.);
#479 = ORIENTED_EDGE('',*,*,#480,.T.);
#480 = EDGE_CURVE('',#260,#285,#481,.T.);
#481 = LINE('',#482,#483);
#482 = CARTESIAN_POINT('',(2.5,0.,0.));
#483 = VECTOR('',#484,1.);
#484 = DIRECTION('',(0.,0.,-1.));
#485 = ORIENTED_EDGE('',*,*,#284,.T.);
#486 = ORIENTED_EDGE('',*,*,#396,.T.);
#487 = ORIENTED_EDGE('',*,*,#411,.T.);
#488 = ORIENTED_EDGE('',*,*,#420,.T.);
#489 = ORIENTED_EDGE('',*,*,#134,.F.);
#490 = PLANE('',#491);
#491 = AXIS2_PLACEMENT_3D('',#492,#493,#494);
#492 = CARTESIAN_POINT('',(2.5,-9.999999999999E-04,0.));
#493 = DIRECTION('',(-1.,0.,0.));
#494 = DIRECTION('',(0.,0.,1.));
#495 = ADVANCED_FACE('',(#496),#502,.T.);
#496 = FACE_BOUND('',#497,.T.);
#497 = EDGE_LOOP('',(#498,#499,#500,#501));
#498 = ORIENTED_EDGE('',*,*,#32,.F.);
#499 = ORIENTED_EDGE('',*,*,#446,.F.);
#500 = ORIENTED_EDGE('',*,*,#50,.T.);
#501 = ORIENTED_EDGE('',*,*,#464,.F.);
#502 = TOROIDAL_SURFACE('',#503,2.3,0.2);
#503 = AXIS2_PLACEMENT_3D('',#504,#505,#506);
#504 = CARTESIAN_POINT('',(0.,5.1,0.));
#505 = DIRECTION('',(0.,1.,0.));
#506 = DIRECTION('',(0.,-0.,1.));
#507 = ADVANCED_FACE('',(#508),#533,.F.);
#508 = FACE_BOUND('',#509,.T.);
#509 = EDGE_LOOP('',(#510,#518,#526,#532));
#510 = ORIENTED_EDGE('',*,*,#511,.T.);
#511 = EDGE_CURVE('',#200,#512,#514,.T.);
#512 = VERTEX_POINT('',#513);
#513 = CARTESIAN_POINT('',(-0.25,-24.5,-0.25));
#514 = LINE('',#515,#516);
#515 = CARTESIAN_POINT('',(-0.25,-3.061616997868E-17,-0.25));
#516 = VECTOR('',#517,1.);
#517 = DIRECTION('',(1.224646799147E-16,-1.,0.));
#518 = ORIENTED_EDGE('',*,*,#519,.F.);
#519 = EDGE_CURVE('',#520,#512,#522,.T.);
#520 = VERTEX_POINT('',#521);
#521 = CARTESIAN_POINT('',(-0.25,-24.5,0.25));
#522 = LINE('',#523,#524);
#523 = CARTESIAN_POINT('',(-0.25,-24.5,0.25));
#524 = VECTOR('',#525,1.);
#525 = DIRECTION('',(-0.,-0.,-1.));
#526 = ORIENTED_EDGE('',*,*,#527,.F.);
#527 = EDGE_CURVE('',#182,#520,#528,.T.);
#528 = LINE('',#529,#530);
#529 = CARTESIAN_POINT('',(-0.25,-3.061616997868E-17,0.25));
#530 = VECTOR('',#531,1.);
#531 = DIRECTION('',(1.224646799147E-16,-1.,0.));
#532 = ORIENTED_EDGE('',*,*,#207,.T.);
#533 = PLANE('',#534);
#534 = AXIS2_PLACEMENT_3D('',#535,#536,#537);
#535 = CARTESIAN_POINT('',(-0.25,-3.061616997868E-17,0.25));
#536 = DIRECTION('',(1.,1.224646799147E-16,-0.));
#537 = DIRECTION('',(-1.224646799147E-16,1.,0.));
#538 = ADVANCED_FACE('',(#539),#564,.T.);
#539 = FACE_BOUND('',#540,.T.);
#540 = EDGE_LOOP('',(#541,#549,#557,#563));
#541 = ORIENTED_EDGE('',*,*,#542,.F.);
#542 = EDGE_CURVE('',#543,#512,#545,.T.);
#543 = VERTEX_POINT('',#544);
#544 = CARTESIAN_POINT('',(0.25,-24.5,-0.25));
#545 = LINE('',#546,#547);
#546 = CARTESIAN_POINT('',(0.25,-24.5,-0.25));
#547 = VECTOR('',#548,1.);
#548 = DIRECTION('',(-1.,0.,0.));
#549 = ORIENTED_EDGE('',*,*,#550,.F.);
#550 = EDGE_CURVE('',#551,#543,#553,.T.);
#551 = VERTEX_POINT('',#552);
#552 = CARTESIAN_POINT('',(0.25,-24.5,0.25));
#553 = LINE('',#554,#555);
#554 = CARTESIAN_POINT('',(0.25,-24.5,0.25));
#555 = VECTOR('',#556,1.);
#556 = DIRECTION('',(-0.,-0.,-1.));
#557 = ORIENTED_EDGE('',*,*,#558,.T.);
#558 = EDGE_CURVE('',#551,#520,#559,.T.);
#559 = LINE('',#560,#561);
#560 = CARTESIAN_POINT('',(0.25,-24.5,0.25));
#561 = VECTOR('',#562,1.);
#562 = DIRECTION('',(-1.,0.,0.));
#563 = ORIENTED_EDGE('',*,*,#519,.T.);
#564 = PLANE('',#565);
#565 = AXIS2_PLACEMENT_3D('',#566,#567,#568);
#566 = CARTESIAN_POINT('',(0.25,-24.5,0.25));
#567 = DIRECTION('',(0.,-1.,0.));
#568 = DIRECTION('',(0.,-0.,-1.));
#569 = ADVANCED_FACE('',(#570),#586,.T.);
#570 = FACE_BOUND('',#571,.T.);
#571 = EDGE_LOOP('',(#572,#578,#579,#585));
#572 = ORIENTED_EDGE('',*,*,#573,.F.);
#573 = EDGE_CURVE('',#192,#543,#574,.T.);
#574 = LINE('',#575,#576);
#575 = CARTESIAN_POINT('',(0.25,3.061616997868E-17,-0.25));
#576 = VECTOR('',#577,1.);
#577 = DIRECTION('',(1.224646799147E-16,-1.,0.));
#578 = ORIENTED_EDGE('',*,*,#191,.F.);
#579 = ORIENTED_EDGE('',*,*,#580,.T.);
#580 = EDGE_CURVE('',#184,#551,#581,.T.);
#581 = LINE('',#582,#583);
#582 = CARTESIAN_POINT('',(0.25,3.061616997868E-17,0.25));
#583 = VECTOR('',#584,1.);
#584 = DIRECTION('',(1.224646799147E-16,-1.,0.));
#585 = ORIENTED_EDGE('',*,*,#550,.T.);
#586 = PLANE('',#587);
#587 = AXIS2_PLACEMENT_3D('',#588,#589,#590);
#588 = CARTESIAN_POINT('',(0.25,3.061616997868E-17,0.25));
#589 = DIRECTION('',(1.,1.224646799147E-16,-0.));
#590 = DIRECTION('',(-1.224646799147E-16,1.,0.));
#591 = ADVANCED_FACE('',(#592),#598,.F.);
#592 = FACE_BOUND('',#593,.T.);
#593 = EDGE_LOOP('',(#594,#595,#596,#597));
#594 = ORIENTED_EDGE('',*,*,#527,.T.);
#595 = ORIENTED_EDGE('',*,*,#558,.F.);
#596 = ORIENTED_EDGE('',*,*,#580,.F.);
#597 = ORIENTED_EDGE('',*,*,#181,.F.);
#598 = PLANE('',#599);
#599 = AXIS2_PLACEMENT_3D('',#600,#601,#602);
#600 = CARTESIAN_POINT('',(0.,0.,0.25));
#601 = DIRECTION('',(-0.,0.,-1.));
#602 = DIRECTION('',(-1.,0.,0.));
#603 = ADVANCED_FACE('',(#604),#610,.T.);
#604 = FACE_BOUND('',#605,.T.);
#605 = EDGE_LOOP('',(#606,#607,#608,#609));
#606 = ORIENTED_EDGE('',*,*,#511,.F.);
#607 = ORIENTED_EDGE('',*,*,#199,.T.);
#608 = ORIENTED_EDGE('',*,*,#573,.T.);
#609 = ORIENTED_EDGE('',*,*,#542,.T.);
#610 = PLANE('',#611);
#611 = AXIS2_PLACEMENT_3D('',#612,#613,#614);
#612 = CARTESIAN_POINT('',(0.,0.,-0.25));
#613 = DIRECTION('',(-0.,0.,-1.));
#614 = DIRECTION('',(-1.,0.,0.));
#615 = ADVANCED_FACE('',(#616),#641,.F.);
#616 = FACE_BOUND('',#617,.T.);
#617 = EDGE_LOOP('',(#618,#626,#634,#640));
#618 = ORIENTED_EDGE('',*,*,#619,.T.);
#619 = EDGE_CURVE('',#234,#620,#622,.T.);
#620 = VERTEX_POINT('',#621);
#621 = CARTESIAN_POINT('',(-2.79,-20.5,-0.25));
#622 = LINE('',#623,#624);
#623 = CARTESIAN_POINT('',(-2.79,-2.644395542648E-17,-0.25));
#624 = VECTOR('',#625,1.);
#625 = DIRECTION('',(1.057758217059E-16,-1.,0.));
#626 = ORIENTED_EDGE('',*,*,#627,.F.);
#627 = EDGE_CURVE('',#628,#620,#630,.T.);
#628 = VERTEX_POINT('',#629);
#629 = CARTESIAN_POINT('',(-2.79,-20.5,0.25));
#630 = LINE('',#631,#632);
#631 = CARTESIAN_POINT('',(-2.79,-20.5,0.25));
#632 = VECTOR('',#633,1.);
#633 = DIRECTION('',(-0.,-0.,-1.));
#634 = ORIENTED_EDGE('',*,*,#635,.F.);
#635 = EDGE_CURVE('',#216,#628,#636,.T.);
#636 = LINE('',#637,#638);
#637 = CARTESIAN_POINT('',(-2.79,-2.644395542648E-17,0.25));
#638 = VECTOR('',#639,1.);
#639 = DIRECTION('',(1.057758217059E-16,-1.,0.));
#640 = ORIENTED_EDGE('',*,*,#241,.T.);
#641 = PLANE('',#642);
#642 = AXIS2_PLACEMENT_3D('',#643,#644,#645);
#643 = CARTESIAN_POINT('',(-2.79,-2.644395542648E-17,0.25));
#644 = DIRECTION('',(1.,1.057758217059E-16,-0.));
#645 = DIRECTION('',(-1.057758217059E-16,1.,0.));
#646 = ADVANCED_FACE('',(#647),#663,.T.);
#647 = FACE_BOUND('',#648,.T.);
#648 = EDGE_LOOP('',(#649,#655,#656,#662));
#649 = ORIENTED_EDGE('',*,*,#650,.F.);
#650 = EDGE_CURVE('',#349,#620,#651,.T.);
#651 = LINE('',#652,#653);
#652 = CARTESIAN_POINT('',(-2.29,-20.5,-0.25));
#653 = VECTOR('',#654,1.);
#654 = DIRECTION('',(-1.,0.,0.));
#655 = ORIENTED_EDGE('',*,*,#372,.F.);
#656 = ORIENTED_EDGE('',*,*,#657,.T.);
#657 = EDGE_CURVE('',#365,#628,#658,.T.);
#658 = LINE('',#659,#660);
#659 = CARTESIAN_POINT('',(-2.29,-20.5,0.25));
#660 = VECTOR('',#661,1.);
#661 = DIRECTION('',(-1.,0.,0.));
#662 = ORIENTED_EDGE('',*,*,#627,.T.);
#663 = PLANE('',#664);
#664 = AXIS2_PLACEMENT_3D('',#665,#666,#667);
#665 = CARTESIAN_POINT('',(-2.29,-20.5,0.25));
#666 = DIRECTION('',(0.,-1.,0.));
#667 = DIRECTION('',(0.,-0.,-1.));
#668 = ADVANCED_FACE('',(#669),#698,.F.);
#669 = FACE_BOUND('',#670,.T.);
#670 = EDGE_LOOP('',(#671,#672,#673,#674,#683,#691,#697));
#671 = ORIENTED_EDGE('',*,*,#635,.T.);
#672 = ORIENTED_EDGE('',*,*,#657,.F.);
#673 = ORIENTED_EDGE('',*,*,#364,.F.);
#674 = ORIENTED_EDGE('',*,*,#675,.T.);
#675 = EDGE_CURVE('',#357,#676,#678,.T.);
#676 = VERTEX_POINT('',#677);
#677 = CARTESIAN_POINT('',(-1.99,-0.5,0.25));
#678 = CIRCLE('',#679,0.3);
#679 = AXIS2_PLACEMENT_3D('',#680,#681,#682);
#680 = CARTESIAN_POINT('',(-1.99,-0.8,0.25));
#681 = DIRECTION('',(-0.,0.,-1.));
#682 = DIRECTION('',(-1.,0.,0.));
#683 = ORIENTED_EDGE('',*,*,#684,.T.);
#684 = EDGE_CURVE('',#676,#685,#687,.T.);
#685 = VERTEX_POINT('',#686);
#686 = CARTESIAN_POINT('',(-1.29,-0.5,0.25));
#687 = LINE('',#688,#689);
#688 = CARTESIAN_POINT('',(-2.79,-0.5,0.25));
#689 = VECTOR('',#690,1.);
#690 = DIRECTION('',(1.,0.,0.));
#691 = ORIENTED_EDGE('',*,*,#692,.T.);
#692 = EDGE_CURVE('',#685,#218,#693,.T.);
#693 = LINE('',#694,#695);
#694 = CARTESIAN_POINT('',(-1.29,0.,0.25));
#695 = VECTOR('',#696,1.);
#696 = DIRECTION('',(-0.,1.,-0.));
#697 = ORIENTED_EDGE('',*,*,#215,.F.);
#698 = PLANE('',#699);
#699 = AXIS2_PLACEMENT_3D('',#700,#701,#702);
#700 = CARTESIAN_POINT('',(0.,0.,0.25));
#701 = DIRECTION('',(-0.,0.,-1.));
#702 = DIRECTION('',(-1.,0.,0.));
#703 = ADVANCED_FACE('',(#704),#733,.T.);
#704 = FACE_BOUND('',#705,.T.);
#705 = EDGE_LOOP('',(#706,#707,#715,#723,#730,#731,#732));
#706 = ORIENTED_EDGE('',*,*,#233,.T.);
#707 = ORIENTED_EDGE('',*,*,#708,.F.);
#708 = EDGE_CURVE('',#709,#226,#711,.T.);
#709 = VERTEX_POINT('',#710);
#710 = CARTESIAN_POINT('',(-1.29,-0.5,-0.25));
#711 = LINE('',#712,#713);
#712 = CARTESIAN_POINT('',(-1.29,0.,-0.25));
#713 = VECTOR('',#714,1.);
#714 = DIRECTION('',(-0.,1.,-0.));
#715 = ORIENTED_EDGE('',*,*,#716,.F.);
#716 = EDGE_CURVE('',#717,#709,#719,.T.);
#717 = VERTEX_POINT('',#718);
#718 = CARTESIAN_POINT('',(-1.99,-0.5,-0.25));
#719 = LINE('',#720,#721);
#720 = CARTESIAN_POINT('',(-2.79,-0.5,-0.25));
#721 = VECTOR('',#722,1.);
#722 = DIRECTION('',(1.,0.,0.));
#723 = ORIENTED_EDGE('',*,*,#724,.T.);
#724 = EDGE_CURVE('',#717,#347,#725,.T.);
#725 = CIRCLE('',#726,0.3);
#726 = AXIS2_PLACEMENT_3D('',#727,#728,#729);
#727 = CARTESIAN_POINT('',(-1.99,-0.8,-0.25));
#728 = DIRECTION('',(0.,0.,1.));
#729 = DIRECTION('',(-1.,0.,0.));
#730 = ORIENTED_EDGE('',*,*,#346,.T.);
#731 = ORIENTED_EDGE('',*,*,#650,.T.);
#732 = ORIENTED_EDGE('',*,*,#619,.F.);
#733 = PLANE('',#734);
#734 = AXIS2_PLACEMENT_3D('',#735,#736,#737);
#735 = CARTESIAN_POINT('',(0.,0.,-0.25));
#736 = DIRECTION('',(-0.,0.,-1.));
#737 = DIRECTION('',(-1.,0.,0.));
#738 = ADVANCED_FACE('',(#739),#764,.T.);
#739 = FACE_BOUND('',#740,.T.);
#740 = EDGE_LOOP('',(#741,#742,#750,#758));
#741 = ORIENTED_EDGE('',*,*,#480,.F.);
#742 = ORIENTED_EDGE('',*,*,#743,.T.);
#743 = EDGE_CURVE('',#260,#744,#746,.T.);
#744 = VERTEX_POINT('',#745);
#745 = CARTESIAN_POINT('',(2.79,2.356961244534E-17,0.25));
#746 = LINE('',#747,#748);
#747 = CARTESIAN_POINT('',(2.29,-2.356961244534E-17,0.25));
#748 = VECTOR('',#749,1.);
#749 = DIRECTION('',(1.,9.427844978135E-17,0.));
#750 = ORIENTED_EDGE('',*,*,#751,.T.);
#751 = EDGE_CURVE('',#744,#752,#754,.T.);
#752 = VERTEX_POINT('',#753);
#753 = CARTESIAN_POINT('',(2.79,2.356961244534E-17,-0.25));
#754 = LINE('',#755,#756);
#755 = CARTESIAN_POINT('',(2.79,2.356961244534E-17,0.25));
#756 = VECTOR('',#757,1.);
#757 = DIRECTION('',(-0.,-0.,-1.));
#758 = ORIENTED_EDGE('',*,*,#759,.F.);
#759 = EDGE_CURVE('',#285,#752,#760,.T.);
#760 = LINE('',#761,#762);
#761 = CARTESIAN_POINT('',(2.29,-2.356961244534E-17,-0.25));
#762 = VECTOR('',#763,1.);
#763 = DIRECTION('',(1.,9.427844978135E-17,0.));
#764 = PLANE('',#765);
#765 = AXIS2_PLACEMENT_3D('',#766,#767,#768);
#766 = CARTESIAN_POINT('',(2.29,-2.356961244534E-17,0.25));
#767 = DIRECTION('',(-9.427844978135E-17,1.,0.));
#768 = DIRECTION('',(-1.,-9.427844978135E-17,0.));
#769 = ADVANCED_FACE('',(#770),#795,.T.);
#770 = FACE_BOUND('',#771,.T.);
#771 = EDGE_LOOP('',(#772,#780,#788,#794));
#772 = ORIENTED_EDGE('',*,*,#773,.F.);
#773 = EDGE_CURVE('',#774,#325,#776,.T.);
#774 = VERTEX_POINT('',#775);
#775 = CARTESIAN_POINT('',(2.79,-23.,-0.25));
#776 = LINE('',#777,#778);
#777 = CARTESIAN_POINT('',(2.79,-23.,-0.25));
#778 = VECTOR('',#779,1.);
#779 = DIRECTION('',(-1.,0.,0.));
#780 = ORIENTED_EDGE('',*,*,#781,.F.);
#781 = EDGE_CURVE('',#782,#774,#784,.T.);
#782 = VERTEX_POINT('',#783);
#783 = CARTESIAN_POINT('',(2.79,-23.,0.25));
#784 = LINE('',#785,#786);
#785 = CARTESIAN_POINT('',(2.79,-23.,0.25));
#786 = VECTOR('',#787,1.);
#787 = DIRECTION('',(-0.,-0.,-1.));
#788 = ORIENTED_EDGE('',*,*,#789,.T.);
#789 = EDGE_CURVE('',#782,#309,#790,.T.);
#790 = LINE('',#791,#792);
#791 = CARTESIAN_POINT('',(2.79,-23.,0.25));
#792 = VECTOR('',#793,1.);
#793 = DIRECTION('',(-1.,0.,0.));
#794 = ORIENTED_EDGE('',*,*,#332,.T.);
#795 = PLANE('',#796);
#796 = AXIS2_PLACEMENT_3D('',#797,#798,#799);
#797 = CARTESIAN_POINT('',(2.79,-23.,0.25));
#798 = DIRECTION('',(0.,-1.,0.));
#799 = DIRECTION('',(0.,-0.,-1.));
#800 = ADVANCED_FACE('',(#801),#817,.T.);
#801 = FACE_BOUND('',#802,.T.);
#802 = EDGE_LOOP('',(#803,#809,#810,#816));
#803 = ORIENTED_EDGE('',*,*,#804,.T.);
#804 = EDGE_CURVE('',#744,#782,#805,.T.);
#805 = LINE('',#806,#807);
#806 = CARTESIAN_POINT('',(2.79,2.356961244534E-17,0.25));
#807 = VECTOR('',#808,1.);
#808 = DIRECTION('',(9.427844978135E-17,-1.,0.));
#809 = ORIENTED_EDGE('',*,*,#781,.T.);
#810 = ORIENTED_EDGE('',*,*,#811,.F.);
#811 = EDGE_CURVE('',#752,#774,#812,.T.);
#812 = LINE('',#813,#814);
#813 = CARTESIAN_POINT('',(2.79,2.356961244534E-17,-0.25));
#814 = VECTOR('',#815,1.);
#815 = DIRECTION('',(9.427844978135E-17,-1.,0.));
#816 = ORIENTED_EDGE('',*,*,#751,.F.);
#817 = PLANE('',#818);
#818 = AXIS2_PLACEMENT_3D('',#819,#820,#821);
#819 = CARTESIAN_POINT('',(2.79,2.356961244534E-17,0.25));
#820 = DIRECTION('',(1.,9.427844978135E-17,-0.));
#821 = DIRECTION('',(-9.427844978135E-17,1.,0.));
#822 = ADVANCED_FACE('',(#823),#862,.F.);
#823 = FACE_BOUND('',#824,.T.);
#824 = EDGE_LOOP('',(#825,#833,#842,#850,#857,#858,#859,#860,#861));
#825 = ORIENTED_EDGE('',*,*,#826,.T.);
#826 = EDGE_CURVE('',#250,#827,#829,.T.);
#827 = VERTEX_POINT('',#828);
#828 = CARTESIAN_POINT('',(0.99,-0.2,0.25));
#829 = LINE('',#830,#831);
#830 = CARTESIAN_POINT('',(0.99,-2.204364238465E-16,0.25));
#831 = VECTOR('',#832,1.);
#832 = DIRECTION('',(0.,-1.,0.));
#833 = ORIENTED_EDGE('',*,*,#834,.T.);
#834 = EDGE_CURVE('',#827,#835,#837,.T.);
#835 = VERTEX_POINT('',#836);
#836 = CARTESIAN_POINT('',(1.29,-0.5,0.25));
#837 = CIRCLE('',#838,0.3);
#838 = AXIS2_PLACEMENT_3D('',#839,#840,#841);
#839 = CARTESIAN_POINT('',(1.29,-0.2,0.25));
#840 = DIRECTION('',(0.,0.,1.));
#841 = DIRECTION('',(-1.,0.,0.));
#842 = ORIENTED_EDGE('',*,*,#843,.T.);
#843 = EDGE_CURVE('',#835,#844,#846,.T.);
#844 = VERTEX_POINT('',#845);
#845 = CARTESIAN_POINT('',(1.99,-0.5,0.25));
#846 = LINE('',#847,#848);
#847 = CARTESIAN_POINT('',(2.79,-0.5,0.25));
#848 = VECTOR('',#849,1.);
#849 = DIRECTION('',(1.,1.204669080539E-16,-0.));
#850 = ORIENTED_EDGE('',*,*,#851,.T.);
#851 = EDGE_CURVE('',#844,#307,#852,.T.);
#852 = CIRCLE('',#853,0.3);
#853 = AXIS2_PLACEMENT_3D('',#854,#855,#856);
#854 = CARTESIAN_POINT('',(1.99,-0.8,0.25));
#855 = DIRECTION('',(-0.,0.,-1.));
#856 = DIRECTION('',(-1.,0.,0.));
#857 = ORIENTED_EDGE('',*,*,#306,.T.);
#858 = ORIENTED_EDGE('',*,*,#789,.F.);
#859 = ORIENTED_EDGE('',*,*,#804,.F.);
#860 = ORIENTED_EDGE('',*,*,#743,.F.);
#861 = ORIENTED_EDGE('',*,*,#259,.F.);
#862 = PLANE('',#863);
#863 = AXIS2_PLACEMENT_3D('',#864,#865,#866);
#864 = CARTESIAN_POINT('',(0.,0.,0.25));
#865 = DIRECTION('',(-0.,0.,-1.));
#866 = DIRECTION('',(-1.,0.,0.));
#867 = ADVANCED_FACE('',(#868),#907,.T.);
#868 = FACE_BOUND('',#869,.T.);
#869 = EDGE_LOOP('',(#870,#880,#889,#895,#896,#897,#898,#899,#900));
#870 = ORIENTED_EDGE('',*,*,#871,.F.);
#871 = EDGE_CURVE('',#872,#874,#876,.T.);
#872 = VERTEX_POINT('',#873);
#873 = CARTESIAN_POINT('',(1.29,-0.5,-0.25));
#874 = VERTEX_POINT('',#875);
#875 = CARTESIAN_POINT('',(1.99,-0.5,-0.25));
#876 = LINE('',#877,#878);
#877 = CARTESIAN_POINT('',(2.79,-0.5,-0.25));
#878 = VECTOR('',#879,1.);
#879 = DIRECTION('',(1.,1.204669080539E-16,-0.));
#880 = ORIENTED_EDGE('',*,*,#881,.T.);
#881 = EDGE_CURVE('',#872,#882,#884,.T.);
#882 = VERTEX_POINT('',#883);
#883 = CARTESIAN_POINT('',(0.99,-0.2,-0.25));
#884 = CIRCLE('',#885,0.3);
#885 = AXIS2_PLACEMENT_3D('',#886,#887,#888);
#886 = CARTESIAN_POINT('',(1.29,-0.2,-0.25));
#887 = DIRECTION('',(-0.,0.,-1.));
#888 = DIRECTION('',(-1.,0.,0.));
#889 = ORIENTED_EDGE('',*,*,#890,.F.);
#890 = EDGE_CURVE('',#252,#882,#891,.T.);
#891 = LINE('',#892,#893);
#892 = CARTESIAN_POINT('',(0.99,-2.204364238465E-16,-0.25));
#893 = VECTOR('',#894,1.);
#894 = DIRECTION('',(0.,-1.,0.));
#895 = ORIENTED_EDGE('',*,*,#292,.T.);
#896 = ORIENTED_EDGE('',*,*,#759,.T.);
#897 = ORIENTED_EDGE('',*,*,#811,.T.);
#898 = ORIENTED_EDGE('',*,*,#773,.T.);
#899 = ORIENTED_EDGE('',*,*,#324,.F.);
#900 = ORIENTED_EDGE('',*,*,#901,.T.);
#901 = EDGE_CURVE('',#317,#874,#902,.T.);
#902 = CIRCLE('',#903,0.3);
#903 = AXIS2_PLACEMENT_3D('',#904,#905,#906);
#904 = CARTESIAN_POINT('',(1.99,-0.8,-0.25));
#905 = DIRECTION('',(0.,0.,1.));
#906 = DIRECTION('',(-1.,0.,0.));
#907 = PLANE('',#908);
#908 = AXIS2_PLACEMENT_3D('',#909,#910,#911);
#909 = CARTESIAN_POINT('',(0.,0.,-0.25));
#910 = DIRECTION('',(-0.,0.,-1.));
#911 = DIRECTION('',(-1.,0.,0.));
#912 = ADVANCED_FACE('',(#913),#929,.F.);
#913 = FACE_BOUND('',#914,.T.);
#914 = EDGE_LOOP('',(#915,#916,#922,#923));
#915 = ORIENTED_EDGE('',*,*,#684,.F.);
#916 = ORIENTED_EDGE('',*,*,#917,.T.);
#917 = EDGE_CURVE('',#676,#717,#918,.T.);
#918 = LINE('',#919,#920);
#919 = CARTESIAN_POINT('',(-1.99,-0.5,0.25));
#920 = VECTOR('',#921,1.);
#921 = DIRECTION('',(-0.,0.,-1.));
#922 = ORIENTED_EDGE('',*,*,#716,.T.);
#923 = ORIENTED_EDGE('',*,*,#924,.F.);
#924 = EDGE_CURVE('',#685,#709,#925,.T.);
#925 = LINE('',#926,#927);
#926 = CARTESIAN_POINT('',(-1.29,-0.5,0.25));
#927 = VECTOR('',#928,1.);
#928 = DIRECTION('',(-0.,-0.,-1.));
#929 = PLANE('',#930);
#930 = AXIS2_PLACEMENT_3D('',#931,#932,#933);
#931 = CARTESIAN_POINT('',(-2.79,-0.5,0.25));
#932 = DIRECTION('',(0.,1.,0.));
#933 = DIRECTION('',(0.,-0.,1.));
#934 = ADVANCED_FACE('',(#935),#941,.F.);
#935 = FACE_BOUND('',#936,.T.);
#936 = EDGE_LOOP('',(#937,#938,#939,#940));
#937 = ORIENTED_EDGE('',*,*,#708,.T.);
#938 = ORIENTED_EDGE('',*,*,#225,.F.);
#939 = ORIENTED_EDGE('',*,*,#692,.F.);
#940 = ORIENTED_EDGE('',*,*,#924,.T.);
#941 = PLANE('',#942);
#942 = AXIS2_PLACEMENT_3D('',#943,#944,#945);
#943 = CARTESIAN_POINT('',(-1.29,0.,0.25));
#944 = DIRECTION('',(-1.,0.,0.));
#945 = DIRECTION('',(0.,0.,1.));
#946 = ADVANCED_FACE('',(#947),#963,.F.);
#947 = FACE_BOUND('',#948,.T.);
#948 = EDGE_LOOP('',(#949,#950,#956,#957));
#949 = ORIENTED_EDGE('',*,*,#843,.F.);
#950 = ORIENTED_EDGE('',*,*,#951,.T.);
#951 = EDGE_CURVE('',#835,#872,#952,.T.);
#952 = LINE('',#953,#954);
#953 = CARTESIAN_POINT('',(1.29,-0.5,0.25));
#954 = VECTOR('',#955,1.);
#955 = DIRECTION('',(0.,0.,-1.));
#956 = ORIENTED_EDGE('',*,*,#871,.T.);
#957 = ORIENTED_EDGE('',*,*,#958,.T.);
#958 = EDGE_CURVE('',#874,#844,#959,.T.);
#959 = LINE('',#960,#961);
#960 = CARTESIAN_POINT('',(1.99,-0.5,0.25));
#961 = VECTOR('',#962,1.);
#962 = DIRECTION('',(0.,-0.,1.));
#963 = PLANE('',#964);
#964 = AXIS2_PLACEMENT_3D('',#965,#966,#967);
#965 = CARTESIAN_POINT('',(2.79,-0.5,0.25));
#966 = DIRECTION('',(-1.204669080539E-16,1.,0.));
#967 = DIRECTION('',(-1.,-1.204669080539E-16,0.));
#968 = ADVANCED_FACE('',(#969),#980,.F.);
#969 = FACE_BOUND('',#970,.T.);
#970 = EDGE_LOOP('',(#971,#972,#978,#979));
#971 = ORIENTED_EDGE('',*,*,#890,.T.);
#972 = ORIENTED_EDGE('',*,*,#973,.T.);
#973 = EDGE_CURVE('',#882,#827,#974,.T.);
#974 = LINE('',#975,#976);
#975 = CARTESIAN_POINT('',(0.99,-0.2,0.25));
#976 = VECTOR('',#977,1.);
#977 = DIRECTION('',(-0.,-0.,1.));
#978 = ORIENTED_EDGE('',*,*,#826,.F.);
#979 = ORIENTED_EDGE('',*,*,#249,.T.);
#980 = PLANE('',#981);
#981 = AXIS2_PLACEMENT_3D('',#982,#983,#984);
#982 = CARTESIAN_POINT('',(0.99,-2.204364238465E-16,0.25));
#983 = DIRECTION('',(1.,0.,-0.));
#984 = DIRECTION('',(-0.,0.,-1.));
#985 = ADVANCED_FACE('',(#986),#992,.T.);
#986 = FACE_BOUND('',#987,.T.);
#987 = EDGE_LOOP('',(#988,#989,#990,#991));
#988 = ORIENTED_EDGE('',*,*,#834,.F.);
#989 = ORIENTED_EDGE('',*,*,#973,.F.);
#990 = ORIENTED_EDGE('',*,*,#881,.F.);
#991 = ORIENTED_EDGE('',*,*,#951,.F.);
#992 = CYLINDRICAL_SURFACE('',#993,0.3);
#993 = AXIS2_PLACEMENT_3D('',#994,#995,#996);
#994 = CARTESIAN_POINT('',(1.29,-0.2,0.25));
#995 = DIRECTION('',(0.,0.,-1.));
#996 = DIRECTION('',(-1.,0.,0.));
#997 = ADVANCED_FACE('',(#998),#1004,.F.);
#998 = FACE_BOUND('',#999,.F.);
#999 = EDGE_LOOP('',(#1000,#1001,#1002,#1003));
#1000 = ORIENTED_EDGE('',*,*,#958,.T.);
#1001 = ORIENTED_EDGE('',*,*,#851,.T.);
#1002 = ORIENTED_EDGE('',*,*,#316,.T.);
#1003 = ORIENTED_EDGE('',*,*,#901,.T.);
#1004 = CYLINDRICAL_SURFACE('',#1005,0.3);
#1005 = AXIS2_PLACEMENT_3D('',#1006,#1007,#1008);
#1006 = CARTESIAN_POINT('',(1.99,-0.8,0.25));
#1007 = DIRECTION('',(0.,0.,-1.));
#1008 = DIRECTION('',(-1.,0.,0.));
#1009 = ADVANCED_FACE('',(#1010),#1016,.F.);
#1010 = FACE_BOUND('',#1011,.F.);
#1011 = EDGE_LOOP('',(#1012,#1013,#1014,#1015));
#1012 = ORIENTED_EDGE('',*,*,#356,.T.);
#1013 = ORIENTED_EDGE('',*,*,#675,.T.);
#1014 = ORIENTED_EDGE('',*,*,#917,.T.);
#1015 = ORIENTED_EDGE('',*,*,#724,.T.);
#1016 = CYLINDRICAL_SURFACE('',#1017,0.3);
#1017 = AXIS2_PLACEMENT_3D('',#1018,#1019,#1020);
#1018 = CARTESIAN_POINT('',(-1.99,-0.8,0.25));
#1019 = DIRECTION('',(0.,-0.,1.));
#1020 = DIRECTION('',(1.,0.,0.));
#1021 = ( GEOMETRIC_REPRESENTATION_CONTEXT(3) 
GLOBAL_UNCERTAINTY_ASSIGNED_CONTEXT((#1025)) 
GLOBAL_UNIT_ASSIGNED_CONTEXT((#1022,#1023,#1024)) REPRESENTATION_CONTEXT
('Context #1','3D Context with UNIT and UNCERTAINTY') );
#1022 = ( LENGTH_UNIT() NAMED_UNIT(*) SI_UNIT(.MILLI.,.METRE.) );
#1023 = ( NAMED_UNIT(*) PLANE_ANGLE_UNIT() SI_UNIT($,.RADIAN.) );
#1024 = ( NAMED_UNIT(*) SI_UNIT($,.STERADIAN.) SOLID_ANGLE_UNIT() );
#1025 = UNCERTAINTY_MEASURE_WITH_UNIT(LENGTH_MEASURE(1.E-07),#1022,
  'distance_accuracy_value','confusion accuracy');
#1026 = PRODUCT_RELATED_PRODUCT_CATEGORY('part',$,(#7));
#1027 = MECHANICAL_DESIGN_GEOMETRIC_PRESENTATION_REPRESENTATION('',(
    #1028,#1039,#1047,#1054,#1061,#1068,#1075,#1082,#1089,#1096,#1103,
    #1110,#1117,#1124,#1131,#1138,#1145,#1152,#1159,#1166,#1173,#1180,
    #1187,#1194),#1021);
#1028 = STYLED_ITEM('color',(#1029),#15);
#1029 = PRESENTATION_STYLE_ASSIGNMENT((#1030,#1036));
#1030 = SURFACE_STYLE_USAGE(.BOTH.,#1031);
#1031 = SURFACE_SIDE_STYLE('',(#1032));
#1032 = SURFACE_STYLE_FILL_AREA(#1033);
#1033 = FILL_AREA_STYLE('',(#1034));
#1034 = FILL_AREA_STYLE_COLOUR('',#1035);
#1035 = DRAUGHTING_PRE_DEFINED_COLOUR('white');
#1036 = CURVE_STYLE('',#1037,POSITIVE_LENGTH_MEASURE(0.1),#1038);
#1037 = DRAUGHTING_PRE_DEFINED_CURVE_FONT('continuous');
#1038 = COLOUR_RGB('',9.803921802644E-02,9.803921802644E-02,
  9.803921802644E-02);
#1039 = OVER_RIDING_STYLED_ITEM('overriding color',(#1040),#302,#1028);
#1040 = PRESENTATION_STYLE_ASSIGNMENT((#1041));
#1041 = SURFACE_STYLE_USAGE(.BOTH.,#1042);
#1042 = SURFACE_SIDE_STYLE('',(#1043));
#1043 = SURFACE_STYLE_FILL_AREA(#1044);
#1044 = FILL_AREA_STYLE('',(#1045));
#1045 = FILL_AREA_STYLE_COLOUR('',#1046);
#1046 = COLOUR_RGB('',0.752941202324,0.752941202324,0.752941202324);
#1047 = OVER_RIDING_STYLED_ITEM('overriding color',(#1048),#342,#1028);
#1048 = PRESENTATION_STYLE_ASSIGNMENT((#1049));
#1049 = SURFACE_STYLE_USAGE(.BOTH.,#1050);
#1050 = SURFACE_SIDE_STYLE('',(#1051));
#1051 = SURFACE_STYLE_FILL_AREA(#1052);
#1052 = FILL_AREA_STYLE('',(#1053));
#1053 = FILL_AREA_STYLE_COLOUR('',#1046);
#1054 = OVER_RIDING_STYLED_ITEM('overriding color',(#1055),#507,#1028);
#1055 = PRESENTATION_STYLE_ASSIGNMENT((#1056));
#1056 = SURFACE_STYLE_USAGE(.BOTH.,#1057);
#1057 = SURFACE_SIDE_STYLE('',(#1058));
#1058 = SURFACE_STYLE_FILL_AREA(#1059);
#1059 = FILL_AREA_STYLE('',(#1060));
#1060 = FILL_AREA_STYLE_COLOUR('',#1046);
#1061 = OVER_RIDING_STYLED_ITEM('overriding color',(#1062),#538,#1028);
#1062 = PRESENTATION_STYLE_ASSIGNMENT((#1063));
#1063 = SURFACE_STYLE_USAGE(.BOTH.,#1064);
#1064 = SURFACE_SIDE_STYLE('',(#1065));
#1065 = SURFACE_STYLE_FILL_AREA(#1066);
#1066 = FILL_AREA_STYLE('',(#1067));
#1067 = FILL_AREA_STYLE_COLOUR('',#1046);
#1068 = OVER_RIDING_STYLED_ITEM('overriding color',(#1069),#569,#1028);
#1069 = PRESENTATION_STYLE_ASSIGNMENT((#1070));
#1070 = SURFACE_STYLE_USAGE(.BOTH.,#1071);
#1071 = SURFACE_SIDE_STYLE('',(#1072));
#1072 = SURFACE_STYLE_FILL_AREA(#1073);
#1073 = FILL_AREA_STYLE('',(#1074));
#1074 = FILL_AREA_STYLE_COLOUR('',#1046);
#1075 = OVER_RIDING_STYLED_ITEM('overriding color',(#1076),#591,#1028);
#1076 = PRESENTATION_STYLE_ASSIGNMENT((#1077));
#1077 = SURFACE_STYLE_USAGE(.BOTH.,#1078);
#1078 = SURFACE_SIDE_STYLE('',(#1079));
#1079 = SURFACE_STYLE_FILL_AREA(#1080);
#1080 = FILL_AREA_STYLE('',(#1081));
#1081 = FILL_AREA_STYLE_COLOUR('',#1046);
#1082 = OVER_RIDING_STYLED_ITEM('overriding color',(#1083),#603,#1028);
#1083 = PRESENTATION_STYLE_ASSIGNMENT((#1084));
#1084 = SURFACE_STYLE_USAGE(.BOTH.,#1085);
#1085 = SURFACE_SIDE_STYLE('',(#1086));
#1086 = SURFACE_STYLE_FILL_AREA(#1087);
#1087 = FILL_AREA_STYLE('',(#1088));
#1088 = FILL_AREA_STYLE_COLOUR('',#1046);
#1089 = OVER_RIDING_STYLED_ITEM('overriding color',(#1090),#615,#1028);
#1090 = PRESENTATION_STYLE_ASSIGNMENT((#1091));
#1091 = SURFACE_STYLE_USAGE(.BOTH.,#1092);
#1092 = SURFACE_SIDE_STYLE('',(#1093));
#1093 = SURFACE_STYLE_FILL_AREA(#1094);
#1094 = FILL_AREA_STYLE('',(#1095));
#1095 = FILL_AREA_STYLE_COLOUR('',#1046);
#1096 = OVER_RIDING_STYLED_ITEM('overriding color',(#1097),#646,#1028);
#1097 = PRESENTATION_STYLE_ASSIGNMENT((#1098));
#1098 = SURFACE_STYLE_USAGE(.BOTH.,#1099);
#1099 = SURFACE_SIDE_STYLE('',(#1100));
#1100 = SURFACE_STYLE_FILL_AREA(#1101);
#1101 = FILL_AREA_STYLE('',(#1102));
#1102 = FILL_AREA_STYLE_COLOUR('',#1046);
#1103 = OVER_RIDING_STYLED_ITEM('overriding color',(#1104),#668,#1028);
#1104 = PRESENTATION_STYLE_ASSIGNMENT((#1105));
#1105 = SURFACE_STYLE_USAGE(.BOTH.,#1106);
#1106 = SURFACE_SIDE_STYLE('',(#1107));
#1107 = SURFACE_STYLE_FILL_AREA(#1108);
#1108 = FILL_AREA_STYLE('',(#1109));
#1109 = FILL_AREA_STYLE_COLOUR('',#1046);
#1110 = OVER_RIDING_STYLED_ITEM('overriding color',(#1111),#703,#1028);
#1111 = PRESENTATION_STYLE_ASSIGNMENT((#1112));
#1112 = SURFACE_STYLE_USAGE(.BOTH.,#1113);
#1113 = SURFACE_SIDE_STYLE('',(#1114));
#1114 = SURFACE_STYLE_FILL_AREA(#1115);
#1115 = FILL_AREA_STYLE('',(#1116));
#1116 = FILL_AREA_STYLE_COLOUR('',#1046);
#1117 = OVER_RIDING_STYLED_ITEM('overriding color',(#1118),#738,#1028);
#1118 = PRESENTATION_STYLE_ASSIGNMENT((#1119));
#1119 = SURFACE_STYLE_USAGE(.BOTH.,#1120);
#1120 = SURFACE_SIDE_STYLE('',(#1121));
#1121 = SURFACE_STYLE_FILL_AREA(#1122);
#1122 = FILL_AREA_STYLE('',(#1123));
#1123 = FILL_AREA_STYLE_COLOUR('',#1046);
#1124 = OVER_RIDING_STYLED_ITEM('overriding color',(#1125),#769,#1028);
#1125 = PRESENTATION_STYLE_ASSIGNMENT((#1126));
#1126 = SURFACE_STYLE_USAGE(.BOTH.,#1127);
#1127 = SURFACE_SIDE_STYLE('',(#1128));
#1128 = SURFACE_STYLE_FILL_AREA(#1129);
#1129 = FILL_AREA_STYLE('',(#1130));
#1130 = FILL_AREA_STYLE_COLOUR('',#1046);
#1131 = OVER_RIDING_STYLED_ITEM('overriding color',(#1132),#800,#1028);
#1132 = PRESENTATION_STYLE_ASSIGNMENT((#1133));
#1133 = SURFACE_STYLE_USAGE(.BOTH.,#1134);
#1134 = SURFACE_SIDE_STYLE('',(#1135));
#1135 = SURFACE_STYLE_FILL_AREA(#1136);
#1136 = FILL_AREA_STYLE('',(#1137));
#1137 = FILL_AREA_STYLE_COLOUR('',#1046);
#1138 = OVER_RIDING_STYLED_ITEM('overriding color',(#1139),#822,#1028);
#1139 = PRESENTATION_STYLE_ASSIGNMENT((#1140));
#1140 = SURFACE_STYLE_USAGE(.BOTH.,#1141);
#1141 = SURFACE_SIDE_STYLE('',(#1142));
#1142 = SURFACE_STYLE_FILL_AREA(#1143);
#1143 = FILL_AREA_STYLE('',(#1144));
#1144 = FILL_AREA_STYLE_COLOUR('',#1046);
#1145 = OVER_RIDING_STYLED_ITEM('overriding color',(#1146),#867,#1028);
#1146 = PRESENTATION_STYLE_ASSIGNMENT((#1147));
#1147 = SURFACE_STYLE_USAGE(.BOTH.,#1148);
#1148 = SURFACE_SIDE_STYLE('',(#1149));
#1149 = SURFACE_STYLE_FILL_AREA(#1150);
#1150 = FILL_AREA_STYLE('',(#1151));
#1151 = FILL_AREA_STYLE_COLOUR('',#1046);
#1152 = OVER_RIDING_STYLED_ITEM('overriding color',(#1153),#912,#1028);
#1153 = PRESENTATION_STYLE_ASSIGNMENT((#1154));
#1154 = SURFACE_STYLE_USAGE(.BOTH.,#1155);
#1155 = SURFACE_SIDE_STYLE('',(#1156));
#1156 = SURFACE_STYLE_FILL_AREA(#1157);
#1157 = FILL_AREA_STYLE('',(#1158));
#1158 = FILL_AREA_STYLE_COLOUR('',#1046);
#1159 = OVER_RIDING_STYLED_ITEM('overriding color',(#1160),#934,#1028);
#1160 = PRESENTATION_STYLE_ASSIGNMENT((#1161));
#1161 = SURFACE_STYLE_USAGE(.BOTH.,#1162);
#1162 = SURFACE_SIDE_STYLE('',(#1163));
#1163 = SURFACE_STYLE_FILL_AREA(#1164);
#1164 = FILL_AREA_STYLE('',(#1165));
#1165 = FILL_AREA_STYLE_COLOUR('',#1046);
#1166 = OVER_RIDING_STYLED_ITEM('overriding color',(#1167),#946,#1028);
#1167 = PRESENTATION_STYLE_ASSIGNMENT((#1168));
#1168 = SURFACE_STYLE_USAGE(.BOTH.,#1169);
#1169 = SURFACE_SIDE_STYLE('',(#1170));
#1170 = SURFACE_STYLE_FILL_AREA(#1171);
#1171 = FILL_AREA_STYLE('',(#1172));
#1172 = FILL_AREA_STYLE_COLOUR('',#1046);
#1173 = OVER_RIDING_STYLED_ITEM('overriding color',(#1174),#968,#1028);
#1174 = PRESENTATION_STYLE_ASSIGNMENT((#1175));
#1175 = SURFACE_STYLE_USAGE(.BOTH.,#1176);
#1176 = SURFACE_SIDE_STYLE('',(#1177));
#1177 = SURFACE_STYLE_FILL_AREA(#1178);
#1178 = FILL_AREA_STYLE('',(#1179));
#1179 = FILL_AREA_STYLE_COLOUR('',#1046);
#1180 = OVER_RIDING_STYLED_ITEM('overriding color',(#1181),#985,#1028);
#1181 = PRESENTATION_STYLE_ASSIGNMENT((#1182));
#1182 = SURFACE_STYLE_USAGE(.BOTH.,#1183);
#1183 = SURFACE_SIDE_STYLE('',(#1184));
#1184 = SURFACE_STYLE_FILL_AREA(#1185);
#1185 = FILL_AREA_STYLE('',(#1186));
#1186 = FILL_AREA_STYLE_COLOUR('',#1046);
#1187 = OVER_RIDING_STYLED_ITEM('overriding color',(#1188),#997,#1028);
#1188 = PRESENTATION_STYLE_ASSIGNMENT((#1189));
#1189 = SURFACE_STYLE_USAGE(.BOTH.,#1190);
#1190 = SURFACE_SIDE_STYLE('',(#1191));
#1191 = SURFACE_STYLE_FILL_AREA(#1192);
#1192 = FILL_AREA_STYLE('',(#1193));
#1193 = FILL_AREA_STYLE_COLOUR('',#1046);
#1194 = OVER_RIDING_STYLED_ITEM('overriding color',(#1195),#1009,#1028);
#1195 = PRESENTATION_STYLE_ASSIGNMENT((#1196));
#1196 = SURFACE_STYLE_USAGE(.BOTH.,#1197);
#1197 = SURFACE_SIDE_STYLE('',(#1198));
#1198 = SURFACE_STYLE_FILL_AREA(#1199);
#1199 = FILL_AREA_STYLE('',(#1200));
#1200 = FILL_AREA_STYLE_COLOUR('',#1046);
ENDSEC;
END-ISO-10303-21;
