ISO-10303-21;
HEADER;
FILE_DESCRIPTION(('FreeCAD Model'),'2;1');
FILE_NAME('Open CASCADE Shape Model','2026-05-29T09:23:23',(''),(''),
  'Open CASCADE STEP processor 7.8','FreeCAD','Unknown');
FILE_SCHEMA(('AUTOMOTIVE_DESIGN { 1 0 10303 214 1 1 1 1 }'));
ENDSEC;
DATA;
#1 = APPLICATION_PROTOCOL_DEFINITION('international standard',
  'automotive_design',2000,#2);
#2 = APPLICATION_CONTEXT(
  'core data for automotive mechanical design processes');
#3 = SHAPE_DEFINITION_REPRESENTATION(#4,#10);
#4 = PRODUCT_DEFINITION_SHAPE('','',#5);
#5 = PRODUCT_DEFINITION('design','',#6,#9);
#6 = PRODUCT_DEFINITION_FORMATION('','',#7);
#7 = PRODUCT('Unnamed','Unnamed','',(#8));
#8 = PRODUCT_CONTEXT('',#2,'mechanical');
#9 = PRODUCT_DEFINITION_CONTEXT('part definition',#2,'design');
#10 = SHAPE_REPRESENTATION('',(#11,#15,#19),#23);
#11 = AXIS2_PLACEMENT_3D('',#12,#13,#14);
#12 = CARTESIAN_POINT('',(0.,0.,0.));
#13 = DIRECTION('',(0.,0.,1.));
#14 = DIRECTION('',(1.,0.,-0.));
#15 = AXIS2_PLACEMENT_3D('',#16,#17,#18);
#16 = CARTESIAN_POINT('',(0.,0.,0.));
#17 = DIRECTION('',(0.,0.,1.));
#18 = DIRECTION('',(1.,0.,0.));
#19 = AXIS2_PLACEMENT_3D('',#20,#21,#22);
#20 = CARTESIAN_POINT('',(0.,0.,1.1));
#21 = DIRECTION('',(0.,0.,1.));
#22 = DIRECTION('',(1.,0.,0.));
#23 = ( GEOMETRIC_REPRESENTATION_CONTEXT(3) 
GLOBAL_UNCERTAINTY_ASSIGNED_CONTEXT((#27)) GLOBAL_UNIT_ASSIGNED_CONTEXT(
(#24,#25,#26)) REPRESENTATION_CONTEXT('Context #1',
  '3D Context with UNIT and UNCERTAINTY') );
#24 = ( LENGTH_UNIT() NAMED_UNIT(*) SI_UNIT(.MILLI.,.METRE.) );
#25 = ( NAMED_UNIT(*) PLANE_ANGLE_UNIT() SI_UNIT($,.RADIAN.) );
#26 = ( NAMED_UNIT(*) SI_UNIT($,.STERADIAN.) SOLID_ANGLE_UNIT() );
#27 = UNCERTAINTY_MEASURE_WITH_UNIT(LENGTH_MEASURE(1.E-07),#24,
  'distance_accuracy_value','confusion accuracy');
#28 = PRODUCT_RELATED_PRODUCT_CATEGORY('part',$,(#7));
#29 = SHAPE_DEFINITION_REPRESENTATION(#30,#36);
#30 = PRODUCT_DEFINITION_SHAPE('','',#31);
#31 = PRODUCT_DEFINITION('design','',#32,#35);
#32 = PRODUCT_DEFINITION_FORMATION('','',#33);
#33 = PRODUCT('Pins','Pins','',(#34));
#34 = PRODUCT_CONTEXT('',#2,'mechanical');
#35 = PRODUCT_DEFINITION_CONTEXT('part definition',#2,'design');
#36 = SHAPE_REPRESENTATION('',(#11,#37),#41);
#37 = AXIS2_PLACEMENT_3D('',#38,#39,#40);
#38 = CARTESIAN_POINT('',(-1.2650226515,0.,0.));
#39 = DIRECTION('',(0.,0.,1.));
#40 = DIRECTION('',(1.,0.,0.));
#41 = ( GEOMETRIC_REPRESENTATION_CONTEXT(3) 
GLOBAL_UNCERTAINTY_ASSIGNED_CONTEXT((#45)) GLOBAL_UNIT_ASSIGNED_CONTEXT(
(#42,#43,#44)) REPRESENTATION_CONTEXT('Context #1',
  '3D Context with UNIT and UNCERTAINTY') );
#42 = ( LENGTH_UNIT() NAMED_UNIT(*) SI_UNIT(.MILLI.,.METRE.) );
#43 = ( NAMED_UNIT(*) PLANE_ANGLE_UNIT() SI_UNIT($,.RADIAN.) );
#44 = ( NAMED_UNIT(*) SI_UNIT($,.STERADIAN.) SOLID_ANGLE_UNIT() );
#45 = UNCERTAINTY_MEASURE_WITH_UNIT(LENGTH_MEASURE(1.E-07),#42,
  'distance_accuracy_value','confusion accuracy');
#46 = CONTEXT_DEPENDENT_SHAPE_REPRESENTATION(#47,#49);
#47 = ( REPRESENTATION_RELATIONSHIP('','',#36,#10) 
REPRESENTATION_RELATIONSHIP_WITH_TRANSFORMATION(#48) 
SHAPE_REPRESENTATION_RELATIONSHIP() );
#48 = ITEM_DEFINED_TRANSFORMATION('','',#11,#15);
#49 = PRODUCT_DEFINITION_SHAPE('Placement','Placement of an item',#50);
#50 = NEXT_ASSEMBLY_USAGE_OCCURRENCE('47','Pins','',#5,#31,$);
#51 = PRODUCT_RELATED_PRODUCT_CATEGORY('part',$,(#33));
#52 = SHAPE_DEFINITION_REPRESENTATION(#53,#59);
#53 = PRODUCT_DEFINITION_SHAPE('','',#54);
#54 = PRODUCT_DEFINITION('design','',#55,#58);
#55 = PRODUCT_DEFINITION_FORMATION('','',#56);
#56 = PRODUCT('LED 3mm-PinLength2.8','LED 3mm-PinLength2.8','',(#57));
#57 = PRODUCT_CONTEXT('',#2,'mechanical');
#58 = PRODUCT_DEFINITION_CONTEXT('part definition',#2,'design');
#59 = SHAPE_REPRESENTATION('',(#11,#60),#64);
#60 = AXIS2_PLACEMENT_3D('',#61,#62,#63);
#61 = CARTESIAN_POINT('',(0.,0.,0.));
#62 = DIRECTION('',(0.,0.,1.));
#63 = DIRECTION('',(1.,0.,0.));
#64 = ( GEOMETRIC_REPRESENTATION_CONTEXT(3) 
GLOBAL_UNCERTAINTY_ASSIGNED_CONTEXT((#68)) GLOBAL_UNIT_ASSIGNED_CONTEXT(
(#65,#66,#67)) REPRESENTATION_CONTEXT('Context #1',
  '3D Context with UNIT and UNCERTAINTY') );
#65 = ( LENGTH_UNIT() NAMED_UNIT(*) SI_UNIT(.MILLI.,.METRE.) );
#66 = ( NAMED_UNIT(*) PLANE_ANGLE_UNIT() SI_UNIT($,.RADIAN.) );
#67 = ( NAMED_UNIT(*) SI_UNIT($,.STERADIAN.) SOLID_ANGLE_UNIT() );
#68 = UNCERTAINTY_MEASURE_WITH_UNIT(LENGTH_MEASURE(1.E-07),#65,
  'distance_accuracy_value','confusion accuracy');
#69 = CONTEXT_DEPENDENT_SHAPE_REPRESENTATION(#70,#72);
#70 = ( REPRESENTATION_RELATIONSHIP('','',#59,#36) 
REPRESENTATION_RELATIONSHIP_WITH_TRANSFORMATION(#71) 
SHAPE_REPRESENTATION_RELATIONSHIP() );
#71 = ITEM_DEFINED_TRANSFORMATION('','',#11,#37);
#72 = PRODUCT_DEFINITION_SHAPE('Placement','Placement of an item',#73);
#73 = NEXT_ASSEMBLY_USAGE_OCCURRENCE('46','LED 3mm-PinLength2.8','',#31,
  #54,$);
#74 = PRODUCT_RELATED_PRODUCT_CATEGORY('part',$,(#56));
#75 = SHAPE_DEFINITION_REPRESENTATION(#76,#82);
#76 = PRODUCT_DEFINITION_SHAPE('','',#77);
#77 = PRODUCT_DEFINITION('design','',#78,#81);
#78 = PRODUCT_DEFINITION_FORMATION('','',#79);
#79 = PRODUCT('User Library-LED_d3-Pins002',
  'User Library-LED_d3-Pins002','',(#80));
#80 = PRODUCT_CONTEXT('',#2,'mechanical');
#81 = PRODUCT_DEFINITION_CONTEXT('part definition',#2,'design');
#82 = SHAPE_REPRESENTATION('',(#11,#83,#87),#91);
#83 = AXIS2_PLACEMENT_3D('',#84,#85,#86);
#84 = CARTESIAN_POINT('',(-5.E-02,0.,0.));
#85 = DIRECTION('',(0.,0.,1.));
#86 = DIRECTION('',(1.,0.,0.));
#87 = AXIS2_PLACEMENT_3D('',#88,#89,#90);
#88 = CARTESIAN_POINT('',(5.E-02,0.,0.));
#89 = DIRECTION('',(0.,0.,1.));
#90 = DIRECTION('',(1.,0.,0.));
#91 = ( GEOMETRIC_REPRESENTATION_CONTEXT(3) 
GLOBAL_UNCERTAINTY_ASSIGNED_CONTEXT((#95)) GLOBAL_UNIT_ASSIGNED_CONTEXT(
(#92,#93,#94)) REPRESENTATION_CONTEXT('Context #1',
  '3D Context with UNIT and UNCERTAINTY') );
#92 = ( LENGTH_UNIT() NAMED_UNIT(*) SI_UNIT(.MILLI.,.METRE.) );
#93 = ( NAMED_UNIT(*) PLANE_ANGLE_UNIT() SI_UNIT($,.RADIAN.) );
#94 = ( NAMED_UNIT(*) SI_UNIT($,.STERADIAN.) SOLID_ANGLE_UNIT() );
#95 = UNCERTAINTY_MEASURE_WITH_UNIT(LENGTH_MEASURE(1.E-07),#92,
  'distance_accuracy_value','confusion accuracy');
#96 = CONTEXT_DEPENDENT_SHAPE_REPRESENTATION(#97,#99);
#97 = ( REPRESENTATION_RELATIONSHIP('','',#82,#59) 
REPRESENTATION_RELATIONSHIP_WITH_TRANSFORMATION(#98) 
SHAPE_REPRESENTATION_RELATIONSHIP() );
#98 = ITEM_DEFINED_TRANSFORMATION('','',#11,#60);
#99 = PRODUCT_DEFINITION_SHAPE('Placement','Placement of an item',#100);
#100 = NEXT_ASSEMBLY_USAGE_OCCURRENCE('45','User Library-LED_d3-Pins002'
  ,'',#54,#77,$);
#101 = PRODUCT_RELATED_PRODUCT_CATEGORY('part',$,(#79));
#102 = SHAPE_DEFINITION_REPRESENTATION(#103,#109);
#103 = PRODUCT_DEFINITION_SHAPE('','',#104);
#104 = PRODUCT_DEFINITION('design','',#105,#108);
#105 = PRODUCT_DEFINITION_FORMATION('','',#106);
#106 = PRODUCT('User Library-LED_d3-Pins','User Library-LED_d3-Pins','',
  (#107));
#107 = PRODUCT_CONTEXT('',#2,'mechanical');
#108 = PRODUCT_DEFINITION_CONTEXT('part definition',#2,'design');
#109 = ADVANCED_BREP_SHAPE_REPRESENTATION('',(#11,#110),#326);
#110 = MANIFOLD_SOLID_BREP('',#111);
#111 = CLOSED_SHELL('',(#112,#168,#199,#223,#247,#271,#295,#312));
#112 = ADVANCED_FACE('',(#113),#163,.T.);
#113 = FACE_BOUND('',#114,.T.);
#114 = EDGE_LOOP('',(#115,#125,#133,#141,#149,#157));
#115 = ORIENTED_EDGE('',*,*,#116,.T.);
#116 = EDGE_CURVE('',#117,#119,#121,.T.);
#117 = VERTEX_POINT('',#118);
#118 = CARTESIAN_POINT('',(1.7526,-0.254,1.10000034));
#119 = VERTEX_POINT('',#120);
#120 = CARTESIAN_POINT('',(1.7526,-0.254,0.2999994));
#121 = LINE('',#122,#123);
#122 = CARTESIAN_POINT('',(1.7526,-0.254,-2.50000008));
#123 = VECTOR('',#124,1.);
#124 = DIRECTION('',(0.,-0.,-1.));
#125 = ORIENTED_EDGE('',*,*,#126,.T.);
#126 = EDGE_CURVE('',#119,#127,#129,.T.);
#127 = VERTEX_POINT('',#128);
#128 = CARTESIAN_POINT('',(2.286,-0.254,0.2999994));
#129 = LINE('',#130,#131);
#130 = CARTESIAN_POINT('',(2.8194,-0.254,0.2999994));
#131 = VECTOR('',#132,1.);
#132 = DIRECTION('',(1.,0.,0.));
#133 = ORIENTED_EDGE('',*,*,#134,.T.);
#134 = EDGE_CURVE('',#127,#135,#137,.T.);
#135 = VERTEX_POINT('',#136);
#136 = CARTESIAN_POINT('',(2.286,-0.254,-2.50000008));
#137 = LINE('',#138,#139);
#138 = CARTESIAN_POINT('',(2.286,-0.254,-2.50000008));
#139 = VECTOR('',#140,1.);
#140 = DIRECTION('',(0.,-0.,-1.));
#141 = ORIENTED_EDGE('',*,*,#142,.T.);
#142 = EDGE_CURVE('',#135,#143,#145,.T.);
#143 = VERTEX_POINT('',#144);
#144 = CARTESIAN_POINT('',(2.8194,-0.254,-2.50000008));
#145 = LINE('',#146,#147);
#146 = CARTESIAN_POINT('',(2.8194,-0.254,-2.50000008));
#147 = VECTOR('',#148,1.);
#148 = DIRECTION('',(1.,0.,0.));
#149 = ORIENTED_EDGE('',*,*,#150,.T.);
#150 = EDGE_CURVE('',#143,#151,#153,.T.);
#151 = VERTEX_POINT('',#152);
#152 = CARTESIAN_POINT('',(2.8194,-0.254,1.10000034));
#153 = LINE('',#154,#155);
#154 = CARTESIAN_POINT('',(2.8194,-0.254,-2.50000008));
#155 = VECTOR('',#156,1.);
#156 = DIRECTION('',(-0.,0.,1.));
#157 = ORIENTED_EDGE('',*,*,#158,.T.);
#158 = EDGE_CURVE('',#151,#117,#159,.T.);
#159 = LINE('',#160,#161);
#160 = CARTESIAN_POINT('',(2.8194,-0.254,1.10000034));
#161 = VECTOR('',#162,1.);
#162 = DIRECTION('',(-1.,-0.,-0.));
#163 = PLANE('',#164);
#164 = AXIS2_PLACEMENT_3D('',#165,#166,#167);
#165 = CARTESIAN_POINT('',(2.8194,-0.254,-2.50000008));
#166 = DIRECTION('',(0.,-1.,0.));
#167 = DIRECTION('',(0.,-0.,-1.));
#168 = ADVANCED_FACE('',(#169),#194,.F.);
#169 = FACE_BOUND('',#170,.T.);
#170 = EDGE_LOOP('',(#171,#179,#180,#188));
#171 = ORIENTED_EDGE('',*,*,#172,.F.);
#172 = EDGE_CURVE('',#127,#173,#175,.T.);
#173 = VERTEX_POINT('',#174);
#174 = CARTESIAN_POINT('',(2.286,0.2794,0.2999994));
#175 = LINE('',#176,#177);
#176 = CARTESIAN_POINT('',(2.286,-0.254,0.2999994));
#177 = VECTOR('',#178,1.);
#178 = DIRECTION('',(-0.,1.,0.));
#179 = ORIENTED_EDGE('',*,*,#126,.F.);
#180 = ORIENTED_EDGE('',*,*,#181,.F.);
#181 = EDGE_CURVE('',#182,#119,#184,.T.);
#182 = VERTEX_POINT('',#183);
#183 = CARTESIAN_POINT('',(1.7526,0.2794,0.2999994));
#184 = LINE('',#185,#186);
#185 = CARTESIAN_POINT('',(1.7526,-0.254,0.2999994));
#186 = VECTOR('',#187,1.);
#187 = DIRECTION('',(0.,-1.,-0.));
#188 = ORIENTED_EDGE('',*,*,#189,.F.);
#189 = EDGE_CURVE('',#173,#182,#190,.T.);
#190 = LINE('',#191,#192);
#191 = CARTESIAN_POINT('',(2.286,0.2794,0.2999994));
#192 = VECTOR('',#193,1.);
#193 = DIRECTION('',(-1.,-0.,-0.));
#194 = PLANE('',#195);
#195 = AXIS2_PLACEMENT_3D('',#196,#197,#198);
#196 = CARTESIAN_POINT('',(2.8194,-0.254,0.2999994));
#197 = DIRECTION('',(0.,0.,1.));
#198 = DIRECTION('',(1.,0.,-0.));
#199 = ADVANCED_FACE('',(#200),#218,.T.);
#200 = FACE_BOUND('',#201,.T.);
#201 = EDGE_LOOP('',(#202,#203,#211,#217));
#202 = ORIENTED_EDGE('',*,*,#116,.F.);
#203 = ORIENTED_EDGE('',*,*,#204,.T.);
#204 = EDGE_CURVE('',#117,#205,#207,.T.);
#205 = VERTEX_POINT('',#206);
#206 = CARTESIAN_POINT('',(1.7526,0.2794,1.10000034));
#207 = LINE('',#208,#209);
#208 = CARTESIAN_POINT('',(1.7526,-0.254,1.10000034));
#209 = VECTOR('',#210,1.);
#210 = DIRECTION('',(0.,1.,-0.));
#211 = ORIENTED_EDGE('',*,*,#212,.F.);
#212 = EDGE_CURVE('',#182,#205,#213,.T.);
#213 = LINE('',#214,#215);
#214 = CARTESIAN_POINT('',(1.7526,0.2794,-2.50000008));
#215 = VECTOR('',#216,1.);
#216 = DIRECTION('',(0.,-0.,1.));
#217 = ORIENTED_EDGE('',*,*,#181,.T.);
#218 = PLANE('',#219);
#219 = AXIS2_PLACEMENT_3D('',#220,#221,#222);
#220 = CARTESIAN_POINT('',(1.7526,-0.254,0.2999994));
#221 = DIRECTION('',(-1.,0.,0.));
#222 = DIRECTION('',(0.,0.,1.));
#223 = ADVANCED_FACE('',(#224),#242,.T.);
#224 = FACE_BOUND('',#225,.T.);
#225 = EDGE_LOOP('',(#226,#234,#240,#241));
#226 = ORIENTED_EDGE('',*,*,#227,.T.);
#227 = EDGE_CURVE('',#151,#228,#230,.T.);
#228 = VERTEX_POINT('',#229);
#229 = CARTESIAN_POINT('',(2.8194,0.2794,1.10000034));
#230 = LINE('',#231,#232);
#231 = CARTESIAN_POINT('',(2.8194,-0.254,1.10000034));
#232 = VECTOR('',#233,1.);
#233 = DIRECTION('',(-0.,1.,0.));
#234 = ORIENTED_EDGE('',*,*,#235,.F.);
#235 = EDGE_CURVE('',#205,#228,#236,.T.);
#236 = LINE('',#237,#238);
#237 = CARTESIAN_POINT('',(2.286,0.2794,1.10000034));
#238 = VECTOR('',#239,1.);
#239 = DIRECTION('',(1.,0.,0.));
#240 = ORIENTED_EDGE('',*,*,#204,.F.);
#241 = ORIENTED_EDGE('',*,*,#158,.F.);
#242 = PLANE('',#243);
#243 = AXIS2_PLACEMENT_3D('',#244,#245,#246);
#244 = CARTESIAN_POINT('',(2.8194,-0.254,1.10000034));
#245 = DIRECTION('',(0.,0.,1.));
#246 = DIRECTION('',(1.,0.,-0.));
#247 = ADVANCED_FACE('',(#248),#266,.T.);
#248 = FACE_BOUND('',#249,.T.);
#249 = EDGE_LOOP('',(#250,#258,#259,#260));
#250 = ORIENTED_EDGE('',*,*,#251,.T.);
#251 = EDGE_CURVE('',#252,#228,#254,.T.);
#252 = VERTEX_POINT('',#253);
#253 = CARTESIAN_POINT('',(2.8194,0.2794,-2.50000008));
#254 = LINE('',#255,#256);
#255 = CARTESIAN_POINT('',(2.8194,0.2794,-2.50000008));
#256 = VECTOR('',#257,1.);
#257 = DIRECTION('',(-0.,-0.,1.));
#258 = ORIENTED_EDGE('',*,*,#227,.F.);
#259 = ORIENTED_EDGE('',*,*,#150,.F.);
#260 = ORIENTED_EDGE('',*,*,#261,.T.);
#261 = EDGE_CURVE('',#143,#252,#262,.T.);
#262 = LINE('',#263,#264);
#263 = CARTESIAN_POINT('',(2.8194,0.2794,-2.50000008));
#264 = VECTOR('',#265,1.);
#265 = DIRECTION('',(-0.,1.,0.));
#266 = PLANE('',#267);
#267 = AXIS2_PLACEMENT_3D('',#268,#269,#270);
#268 = CARTESIAN_POINT('',(2.8194,0.2794,-2.50000008));
#269 = DIRECTION('',(1.,0.,0.));
#270 = DIRECTION('',(0.,0.,-1.));
#271 = ADVANCED_FACE('',(#272),#290,.F.);
#272 = FACE_BOUND('',#273,.T.);
#273 = EDGE_LOOP('',(#274,#282,#283,#284));
#274 = ORIENTED_EDGE('',*,*,#275,.F.);
#275 = EDGE_CURVE('',#252,#276,#278,.T.);
#276 = VERTEX_POINT('',#277);
#277 = CARTESIAN_POINT('',(2.286,0.2794,-2.50000008));
#278 = LINE('',#279,#280);
#279 = CARTESIAN_POINT('',(2.8194,0.2794,-2.50000008));
#280 = VECTOR('',#281,1.);
#281 = DIRECTION('',(-1.,-0.,0.));
#282 = ORIENTED_EDGE('',*,*,#261,.F.);
#283 = ORIENTED_EDGE('',*,*,#142,.F.);
#284 = ORIENTED_EDGE('',*,*,#285,.F.);
#285 = EDGE_CURVE('',#276,#135,#286,.T.);
#286 = LINE('',#287,#288);
#287 = CARTESIAN_POINT('',(2.286,-0.254,-2.50000008));
#288 = VECTOR('',#289,1.);
#289 = DIRECTION('',(0.,-1.,-0.));
#290 = PLANE('',#291);
#291 = AXIS2_PLACEMENT_3D('',#292,#293,#294);
#292 = CARTESIAN_POINT('',(2.8194,-0.254,-2.50000008));
#293 = DIRECTION('',(0.,0.,1.));
#294 = DIRECTION('',(1.,0.,-0.));
#295 = ADVANCED_FACE('',(#296),#307,.T.);
#296 = FACE_BOUND('',#297,.T.);
#297 = EDGE_LOOP('',(#298,#299,#300,#306));
#298 = ORIENTED_EDGE('',*,*,#134,.F.);
#299 = ORIENTED_EDGE('',*,*,#172,.T.);
#300 = ORIENTED_EDGE('',*,*,#301,.T.);
#301 = EDGE_CURVE('',#173,#276,#302,.T.);
#302 = LINE('',#303,#304);
#303 = CARTESIAN_POINT('',(2.286,0.2794,-2.50000008));
#304 = VECTOR('',#305,1.);
#305 = DIRECTION('',(-0.,-0.,-1.));
#306 = ORIENTED_EDGE('',*,*,#285,.T.);
#307 = PLANE('',#308);
#308 = AXIS2_PLACEMENT_3D('',#309,#310,#311);
#309 = CARTESIAN_POINT('',(2.286,-0.254,-2.50000008));
#310 = DIRECTION('',(-1.,0.,0.));
#311 = DIRECTION('',(0.,0.,1.));
#312 = ADVANCED_FACE('',(#313),#321,.T.);
#313 = FACE_BOUND('',#314,.T.);
#314 = EDGE_LOOP('',(#315,#316,#317,#318,#319,#320));
#315 = ORIENTED_EDGE('',*,*,#212,.T.);
#316 = ORIENTED_EDGE('',*,*,#235,.T.);
#317 = ORIENTED_EDGE('',*,*,#251,.F.);
#318 = ORIENTED_EDGE('',*,*,#275,.T.);
#319 = ORIENTED_EDGE('',*,*,#301,.F.);
#320 = ORIENTED_EDGE('',*,*,#189,.T.);
#321 = PLANE('',#322);
#322 = AXIS2_PLACEMENT_3D('',#323,#324,#325);
#323 = CARTESIAN_POINT('',(2.286,0.2794,-2.50000008));
#324 = DIRECTION('',(-0.,1.,0.));
#325 = DIRECTION('',(0.,0.,1.));
#326 = ( GEOMETRIC_REPRESENTATION_CONTEXT(3) 
GLOBAL_UNCERTAINTY_ASSIGNED_CONTEXT((#330)) GLOBAL_UNIT_ASSIGNED_CONTEXT
((#327,#328,#329)) REPRESENTATION_CONTEXT('Context #1',
  '3D Context with UNIT and UNCERTAINTY') );
#327 = ( LENGTH_UNIT() NAMED_UNIT(*) SI_UNIT(.MILLI.,.METRE.) );
#328 = ( NAMED_UNIT(*) PLANE_ANGLE_UNIT() SI_UNIT($,.RADIAN.) );
#329 = ( NAMED_UNIT(*) SI_UNIT($,.STERADIAN.) SOLID_ANGLE_UNIT() );
#330 = UNCERTAINTY_MEASURE_WITH_UNIT(LENGTH_MEASURE(1.E-07),#327,
  'distance_accuracy_value','confusion accuracy');
#331 = CONTEXT_DEPENDENT_SHAPE_REPRESENTATION(#332,#334);
#332 = ( REPRESENTATION_RELATIONSHIP('','',#109,#82) 
REPRESENTATION_RELATIONSHIP_WITH_TRANSFORMATION(#333) 
SHAPE_REPRESENTATION_RELATIONSHIP() );
#333 = ITEM_DEFINED_TRANSFORMATION('','',#11,#83);
#334 = PRODUCT_DEFINITION_SHAPE('Placement','Placement of an item',#335
  );
#335 = NEXT_ASSEMBLY_USAGE_OCCURRENCE('43','User Library-LED_d3-Pins',''
  ,#77,#104,$);
#336 = PRODUCT_RELATED_PRODUCT_CATEGORY('part',$,(#106));
#337 = SHAPE_DEFINITION_REPRESENTATION(#338,#344);
#338 = PRODUCT_DEFINITION_SHAPE('','',#339);
#339 = PRODUCT_DEFINITION('design','',#340,#343);
#340 = PRODUCT_DEFINITION_FORMATION('','',#341);
#341 = PRODUCT('User Library-LED_d3-Pins001',
  'User Library-LED_d3-Pins001','',(#342));
#342 = PRODUCT_CONTEXT('',#2,'mechanical');
#343 = PRODUCT_DEFINITION_CONTEXT('part definition',#2,'design');
#344 = ADVANCED_BREP_SHAPE_REPRESENTATION('',(#11,#345),#561);
#345 = MANIFOLD_SOLID_BREP('',#346);
#346 = CLOSED_SHELL('',(#347,#403,#434,#458,#482,#506,#530,#547));
#347 = ADVANCED_FACE('',(#348),#398,.T.);
#348 = FACE_BOUND('',#349,.T.);
#349 = EDGE_LOOP('',(#350,#360,#368,#376,#384,#392));
#350 = ORIENTED_EDGE('',*,*,#351,.T.);
#351 = EDGE_CURVE('',#352,#354,#356,.T.);
#352 = VERTEX_POINT('',#353);
#353 = CARTESIAN_POINT('',(0.7874,-0.254,0.2999994));
#354 = VERTEX_POINT('',#355);
#355 = CARTESIAN_POINT('',(0.7874,-0.254,1.10000034));
#356 = LINE('',#357,#358);
#357 = CARTESIAN_POINT('',(0.7874,-0.254,-2.50000008));
#358 = VECTOR('',#359,1.);
#359 = DIRECTION('',(-0.,0.,1.));
#360 = ORIENTED_EDGE('',*,*,#361,.T.);
#361 = EDGE_CURVE('',#354,#362,#364,.T.);
#362 = VERTEX_POINT('',#363);
#363 = CARTESIAN_POINT('',(-0.2794,-0.254,1.10000034));
#364 = LINE('',#365,#366);
#365 = CARTESIAN_POINT('',(0.254,-0.254,1.10000034));
#366 = VECTOR('',#367,1.);
#367 = DIRECTION('',(-1.,-0.,-0.));
#368 = ORIENTED_EDGE('',*,*,#369,.T.);
#369 = EDGE_CURVE('',#362,#370,#372,.T.);
#370 = VERTEX_POINT('',#371);
#371 = CARTESIAN_POINT('',(-0.2794,-0.254,-2.50000008));
#372 = LINE('',#373,#374);
#373 = CARTESIAN_POINT('',(-0.2794,-0.254,-2.50000008));
#374 = VECTOR('',#375,1.);
#375 = DIRECTION('',(0.,-0.,-1.));
#376 = ORIENTED_EDGE('',*,*,#377,.T.);
#377 = EDGE_CURVE('',#370,#378,#380,.T.);
#378 = VERTEX_POINT('',#379);
#379 = CARTESIAN_POINT('',(0.254,-0.254,-2.50000008));
#380 = LINE('',#381,#382);
#381 = CARTESIAN_POINT('',(0.254,-0.254,-2.50000008));
#382 = VECTOR('',#383,1.);
#383 = DIRECTION('',(1.,0.,0.));
#384 = ORIENTED_EDGE('',*,*,#385,.T.);
#385 = EDGE_CURVE('',#378,#386,#388,.T.);
#386 = VERTEX_POINT('',#387);
#387 = CARTESIAN_POINT('',(0.254,-0.254,0.2999994));
#388 = LINE('',#389,#390);
#389 = CARTESIAN_POINT('',(0.254,-0.254,-2.50000008));
#390 = VECTOR('',#391,1.);
#391 = DIRECTION('',(-0.,0.,1.));
#392 = ORIENTED_EDGE('',*,*,#393,.T.);
#393 = EDGE_CURVE('',#386,#352,#394,.T.);
#394 = LINE('',#395,#396);
#395 = CARTESIAN_POINT('',(0.254,-0.254,0.2999994));
#396 = VECTOR('',#397,1.);
#397 = DIRECTION('',(1.,0.,0.));
#398 = PLANE('',#399);
#399 = AXIS2_PLACEMENT_3D('',#400,#401,#402);
#400 = CARTESIAN_POINT('',(0.254,-0.254,-2.50000008));
#401 = DIRECTION('',(0.,-1.,0.));
#402 = DIRECTION('',(0.,-0.,-1.));
#403 = ADVANCED_FACE('',(#404),#429,.T.);
#404 = FACE_BOUND('',#405,.T.);
#405 = EDGE_LOOP('',(#406,#414,#422,#428));
#406 = ORIENTED_EDGE('',*,*,#407,.T.);
#407 = EDGE_CURVE('',#354,#408,#410,.T.);
#408 = VERTEX_POINT('',#409);
#409 = CARTESIAN_POINT('',(0.7874,0.2794,1.10000034));
#410 = LINE('',#411,#412);
#411 = CARTESIAN_POINT('',(0.7874,-0.254,1.10000034));
#412 = VECTOR('',#413,1.);
#413 = DIRECTION('',(-0.,1.,0.));
#414 = ORIENTED_EDGE('',*,*,#415,.F.);
#415 = EDGE_CURVE('',#416,#408,#418,.T.);
#416 = VERTEX_POINT('',#417);
#417 = CARTESIAN_POINT('',(-0.2794,0.2794,1.10000034));
#418 = LINE('',#419,#420);
#419 = CARTESIAN_POINT('',(-0.2794,0.2794,1.10000034));
#420 = VECTOR('',#421,1.);
#421 = DIRECTION('',(1.,0.,0.));
#422 = ORIENTED_EDGE('',*,*,#423,.T.);
#423 = EDGE_CURVE('',#416,#362,#424,.T.);
#424 = LINE('',#425,#426);
#425 = CARTESIAN_POINT('',(-0.2794,-0.254,1.10000034));
#426 = VECTOR('',#427,1.);
#427 = DIRECTION('',(0.,-1.,-0.));
#428 = ORIENTED_EDGE('',*,*,#361,.F.);
#429 = PLANE('',#430);
#430 = AXIS2_PLACEMENT_3D('',#431,#432,#433);
#431 = CARTESIAN_POINT('',(0.7874,-0.254,1.10000034));
#432 = DIRECTION('',(0.,0.,1.));
#433 = DIRECTION('',(1.,0.,-0.));
#434 = ADVANCED_FACE('',(#435),#453,.T.);
#435 = FACE_BOUND('',#436,.T.);
#436 = EDGE_LOOP('',(#437,#445,#446,#447));
#437 = ORIENTED_EDGE('',*,*,#438,.F.);
#438 = EDGE_CURVE('',#408,#439,#441,.T.);
#439 = VERTEX_POINT('',#440);
#440 = CARTESIAN_POINT('',(0.7874,0.2794,0.2999994));
#441 = LINE('',#442,#443);
#442 = CARTESIAN_POINT('',(0.7874,0.2794,-2.50000008));
#443 = VECTOR('',#444,1.);
#444 = DIRECTION('',(-0.,0.,-1.));
#445 = ORIENTED_EDGE('',*,*,#407,.F.);
#446 = ORIENTED_EDGE('',*,*,#351,.F.);
#447 = ORIENTED_EDGE('',*,*,#448,.T.);
#448 = EDGE_CURVE('',#352,#439,#449,.T.);
#449 = LINE('',#450,#451);
#450 = CARTESIAN_POINT('',(0.7874,0.2794,0.2999994));
#451 = VECTOR('',#452,1.);
#452 = DIRECTION('',(-0.,1.,0.));
#453 = PLANE('',#454);
#454 = AXIS2_PLACEMENT_3D('',#455,#456,#457);
#455 = CARTESIAN_POINT('',(0.7874,0.2794,0.2999994));
#456 = DIRECTION('',(1.,0.,0.));
#457 = DIRECTION('',(0.,0.,-1.));
#458 = ADVANCED_FACE('',(#459),#477,.F.);
#459 = FACE_BOUND('',#460,.T.);
#460 = EDGE_LOOP('',(#461,#462,#463,#471));
#461 = ORIENTED_EDGE('',*,*,#448,.F.);
#462 = ORIENTED_EDGE('',*,*,#393,.F.);
#463 = ORIENTED_EDGE('',*,*,#464,.F.);
#464 = EDGE_CURVE('',#465,#386,#467,.T.);
#465 = VERTEX_POINT('',#466);
#466 = CARTESIAN_POINT('',(0.254,0.2794,0.2999994));
#467 = LINE('',#468,#469);
#468 = CARTESIAN_POINT('',(0.254,-0.254,0.2999994));
#469 = VECTOR('',#470,1.);
#470 = DIRECTION('',(0.,-1.,-0.));
#471 = ORIENTED_EDGE('',*,*,#472,.F.);
#472 = EDGE_CURVE('',#439,#465,#473,.T.);
#473 = LINE('',#474,#475);
#474 = CARTESIAN_POINT('',(-0.2794,0.2794,0.2999994));
#475 = VECTOR('',#476,1.);
#476 = DIRECTION('',(-1.,-0.,-0.));
#477 = PLANE('',#478);
#478 = AXIS2_PLACEMENT_3D('',#479,#480,#481);
#479 = CARTESIAN_POINT('',(0.7874,-0.254,0.2999994));
#480 = DIRECTION('',(0.,0.,1.));
#481 = DIRECTION('',(1.,0.,-0.));
#482 = ADVANCED_FACE('',(#483),#501,.T.);
#483 = FACE_BOUND('',#484,.T.);
#484 = EDGE_LOOP('',(#485,#493,#494,#495));
#485 = ORIENTED_EDGE('',*,*,#486,.T.);
#486 = EDGE_CURVE('',#487,#465,#489,.T.);
#487 = VERTEX_POINT('',#488);
#488 = CARTESIAN_POINT('',(0.254,0.2794,-2.50000008));
#489 = LINE('',#490,#491);
#490 = CARTESIAN_POINT('',(0.254,0.2794,-2.50000008));
#491 = VECTOR('',#492,1.);
#492 = DIRECTION('',(-0.,-0.,1.));
#493 = ORIENTED_EDGE('',*,*,#464,.T.);
#494 = ORIENTED_EDGE('',*,*,#385,.F.);
#495 = ORIENTED_EDGE('',*,*,#496,.T.);
#496 = EDGE_CURVE('',#378,#487,#497,.T.);
#497 = LINE('',#498,#499);
#498 = CARTESIAN_POINT('',(0.254,0.2794,-2.50000008));
#499 = VECTOR('',#500,1.);
#500 = DIRECTION('',(-0.,1.,0.));
#501 = PLANE('',#502);
#502 = AXIS2_PLACEMENT_3D('',#503,#504,#505);
#503 = CARTESIAN_POINT('',(0.254,0.2794,-2.50000008));
#504 = DIRECTION('',(1.,0.,0.));
#505 = DIRECTION('',(0.,0.,-1.));
#506 = ADVANCED_FACE('',(#507),#525,.F.);
#507 = FACE_BOUND('',#508,.T.);
#508 = EDGE_LOOP('',(#509,#517,#518,#519));
#509 = ORIENTED_EDGE('',*,*,#510,.F.);
#510 = EDGE_CURVE('',#487,#511,#513,.T.);
#511 = VERTEX_POINT('',#512);
#512 = CARTESIAN_POINT('',(-0.2794,0.2794,-2.50000008));
#513 = LINE('',#514,#515);
#514 = CARTESIAN_POINT('',(0.254,0.2794,-2.50000008));
#515 = VECTOR('',#516,1.);
#516 = DIRECTION('',(-1.,-0.,0.));
#517 = ORIENTED_EDGE('',*,*,#496,.F.);
#518 = ORIENTED_EDGE('',*,*,#377,.F.);
#519 = ORIENTED_EDGE('',*,*,#520,.F.);
#520 = EDGE_CURVE('',#511,#370,#521,.T.);
#521 = LINE('',#522,#523);
#522 = CARTESIAN_POINT('',(-0.2794,-0.254,-2.50000008));
#523 = VECTOR('',#524,1.);
#524 = DIRECTION('',(0.,-1.,-0.));
#525 = PLANE('',#526);
#526 = AXIS2_PLACEMENT_3D('',#527,#528,#529);
#527 = CARTESIAN_POINT('',(0.254,-0.254,-2.50000008));
#528 = DIRECTION('',(0.,0.,1.));
#529 = DIRECTION('',(1.,0.,-0.));
#530 = ADVANCED_FACE('',(#531),#542,.T.);
#531 = FACE_BOUND('',#532,.T.);
#532 = EDGE_LOOP('',(#533,#534,#535,#541));
#533 = ORIENTED_EDGE('',*,*,#369,.F.);
#534 = ORIENTED_EDGE('',*,*,#423,.F.);
#535 = ORIENTED_EDGE('',*,*,#536,.T.);
#536 = EDGE_CURVE('',#416,#511,#537,.T.);
#537 = LINE('',#538,#539);
#538 = CARTESIAN_POINT('',(-0.2794,0.2794,-2.50000008));
#539 = VECTOR('',#540,1.);
#540 = DIRECTION('',(-0.,-0.,-1.));
#541 = ORIENTED_EDGE('',*,*,#520,.T.);
#542 = PLANE('',#543);
#543 = AXIS2_PLACEMENT_3D('',#544,#545,#546);
#544 = CARTESIAN_POINT('',(-0.2794,-0.254,-2.50000008));
#545 = DIRECTION('',(-1.,0.,0.));
#546 = DIRECTION('',(0.,0.,1.));
#547 = ADVANCED_FACE('',(#548),#556,.T.);
#548 = FACE_BOUND('',#549,.T.);
#549 = EDGE_LOOP('',(#550,#551,#552,#553,#554,#555));
#550 = ORIENTED_EDGE('',*,*,#438,.T.);
#551 = ORIENTED_EDGE('',*,*,#472,.T.);
#552 = ORIENTED_EDGE('',*,*,#486,.F.);
#553 = ORIENTED_EDGE('',*,*,#510,.T.);
#554 = ORIENTED_EDGE('',*,*,#536,.F.);
#555 = ORIENTED_EDGE('',*,*,#415,.T.);
#556 = PLANE('',#557);
#557 = AXIS2_PLACEMENT_3D('',#558,#559,#560);
#558 = CARTESIAN_POINT('',(-0.2794,0.2794,-2.50000008));
#559 = DIRECTION('',(-0.,1.,0.));
#560 = DIRECTION('',(0.,0.,1.));
#561 = ( GEOMETRIC_REPRESENTATION_CONTEXT(3) 
GLOBAL_UNCERTAINTY_ASSIGNED_CONTEXT((#565)) GLOBAL_UNIT_ASSIGNED_CONTEXT
((#562,#563,#564)) REPRESENTATION_CONTEXT('Context #1',
  '3D Context with UNIT and UNCERTAINTY') );
#562 = ( LENGTH_UNIT() NAMED_UNIT(*) SI_UNIT(.MILLI.,.METRE.) );
#563 = ( NAMED_UNIT(*) PLANE_ANGLE_UNIT() SI_UNIT($,.RADIAN.) );
#564 = ( NAMED_UNIT(*) SI_UNIT($,.STERADIAN.) SOLID_ANGLE_UNIT() );
#565 = UNCERTAINTY_MEASURE_WITH_UNIT(LENGTH_MEASURE(1.E-07),#562,
  'distance_accuracy_value','confusion accuracy');
#566 = CONTEXT_DEPENDENT_SHAPE_REPRESENTATION(#567,#569);
#567 = ( REPRESENTATION_RELATIONSHIP('','',#344,#82) 
REPRESENTATION_RELATIONSHIP_WITH_TRANSFORMATION(#568) 
SHAPE_REPRESENTATION_RELATIONSHIP() );
#568 = ITEM_DEFINED_TRANSFORMATION('','',#11,#87);
#569 = PRODUCT_DEFINITION_SHAPE('Placement','Placement of an item',#570
  );
#570 = NEXT_ASSEMBLY_USAGE_OCCURRENCE('44','User Library-LED_d3-Pins001'
  ,'',#77,#339,$);
#571 = PRODUCT_RELATED_PRODUCT_CATEGORY('part',$,(#341));
#572 = SHAPE_DEFINITION_REPRESENTATION(#573,#579);
#573 = PRODUCT_DEFINITION_SHAPE('','',#574);
#574 = PRODUCT_DEFINITION('design','',#575,#578);
#575 = PRODUCT_DEFINITION_FORMATION('','',#576);
#576 = PRODUCT('Lens','Lens','',(#577));
#577 = PRODUCT_CONTEXT('',#2,'mechanical');
#578 = PRODUCT_DEFINITION_CONTEXT('part definition',#2,'design');
#579 = ADVANCED_BREP_SHAPE_REPRESENTATION('',(#11,#580),#678);
#580 = MANIFOLD_SOLID_BREP('',#581);
#581 = CLOSED_SHELL('',(#582,#615,#635,#660,#669));
#582 = ADVANCED_FACE('',(#583),#610,.T.);
#583 = FACE_BOUND('',#584,.F.);
#584 = EDGE_LOOP('',(#585,#595,#602,#603));
#585 = ORIENTED_EDGE('',*,*,#586,.T.);
#586 = EDGE_CURVE('',#587,#589,#591,.T.);
#587 = VERTEX_POINT('',#588);
#588 = CARTESIAN_POINT('',(1.7,0.,0.));
#589 = VERTEX_POINT('',#590);
#590 = CARTESIAN_POINT('',(1.7,0.,1.2));
#591 = LINE('',#592,#593);
#592 = CARTESIAN_POINT('',(1.7,0.,0.));
#593 = VECTOR('',#594,1.);
#594 = DIRECTION('',(0.,0.,1.));
#595 = ORIENTED_EDGE('',*,*,#596,.T.);
#596 = EDGE_CURVE('',#589,#589,#597,.T.);
#597 = CIRCLE('',#598,1.7);
#598 = AXIS2_PLACEMENT_3D('',#599,#600,#601);
#599 = CARTESIAN_POINT('',(0.,0.,1.2));
#600 = DIRECTION('',(0.,0.,1.));
#601 = DIRECTION('',(1.,0.,0.));
#602 = ORIENTED_EDGE('',*,*,#586,.F.);
#603 = ORIENTED_EDGE('',*,*,#604,.F.);
#604 = EDGE_CURVE('',#587,#587,#605,.T.);
#605 = CIRCLE('',#606,1.7);
#606 = AXIS2_PLACEMENT_3D('',#607,#608,#609);
#607 = CARTESIAN_POINT('',(0.,0.,0.));
#608 = DIRECTION('',(0.,0.,1.));
#609 = DIRECTION('',(1.,0.,0.));
#610 = CYLINDRICAL_SURFACE('',#611,1.7);
#611 = AXIS2_PLACEMENT_3D('',#612,#613,#614);
#612 = CARTESIAN_POINT('',(0.,0.,0.));
#613 = DIRECTION('',(-0.,-0.,-1.));
#614 = DIRECTION('',(1.,0.,0.));
#615 = ADVANCED_FACE('',(#616,#619),#630,.T.);
#616 = FACE_BOUND('',#617,.T.);
#617 = EDGE_LOOP('',(#618));
#618 = ORIENTED_EDGE('',*,*,#596,.T.);
#619 = FACE_BOUND('',#620,.T.);
#620 = EDGE_LOOP('',(#621));
#621 = ORIENTED_EDGE('',*,*,#622,.T.);
#622 = EDGE_CURVE('',#623,#623,#625,.T.);
#623 = VERTEX_POINT('',#624);
#624 = CARTESIAN_POINT('',(1.5,0.,1.2));
#625 = CIRCLE('',#626,1.5);
#626 = AXIS2_PLACEMENT_3D('',#627,#628,#629);
#627 = CARTESIAN_POINT('',(0.,0.,1.2));
#628 = DIRECTION('',(0.,0.,-1.));
#629 = DIRECTION('',(1.,0.,0.));
#630 = PLANE('',#631);
#631 = AXIS2_PLACEMENT_3D('',#632,#633,#634);
#632 = CARTESIAN_POINT('',(-5.027353428454E-17,3.115041661739E-17,1.2));
#633 = DIRECTION('',(0.,0.,1.));
#634 = DIRECTION('',(1.,0.,0.));
#635 = ADVANCED_FACE('',(#636),#655,.T.);
#636 = FACE_BOUND('',#637,.F.);
#637 = EDGE_LOOP('',(#638,#639,#647,#654));
#638 = ORIENTED_EDGE('',*,*,#622,.T.);
#639 = ORIENTED_EDGE('',*,*,#640,.T.);
#640 = EDGE_CURVE('',#623,#641,#643,.T.);
#641 = VERTEX_POINT('',#642);
#642 = CARTESIAN_POINT('',(1.5,0.,6.));
#643 = LINE('',#644,#645);
#644 = CARTESIAN_POINT('',(1.5,0.,0.));
#645 = VECTOR('',#646,1.);
#646 = DIRECTION('',(0.,0.,1.));
#647 = ORIENTED_EDGE('',*,*,#648,.T.);
#648 = EDGE_CURVE('',#641,#641,#649,.T.);
#649 = CIRCLE('',#650,1.5);
#650 = AXIS2_PLACEMENT_3D('',#651,#652,#653);
#651 = CARTESIAN_POINT('',(0.,0.,6.));
#652 = DIRECTION('',(0.,0.,1.));
#653 = DIRECTION('',(1.,0.,0.));
#654 = ORIENTED_EDGE('',*,*,#640,.F.);
#655 = CYLINDRICAL_SURFACE('',#656,1.5);
#656 = AXIS2_PLACEMENT_3D('',#657,#658,#659);
#657 = CARTESIAN_POINT('',(0.,0.,0.));
#658 = DIRECTION('',(-0.,-0.,-1.));
#659 = DIRECTION('',(1.,0.,0.));
#660 = ADVANCED_FACE('',(#661),#664,.T.);
#661 = FACE_BOUND('',#662,.T.);
#662 = EDGE_LOOP('',(#663));
#663 = ORIENTED_EDGE('',*,*,#648,.T.);
#664 = PLANE('',#665);
#665 = AXIS2_PLACEMENT_3D('',#666,#667,#668);
#666 = CARTESIAN_POINT('',(-1.139533443783E-16,-4.255667768225E-18,6.));
#667 = DIRECTION('',(0.,0.,1.));
#668 = DIRECTION('',(1.,0.,0.));
#669 = ADVANCED_FACE('',(#670),#673,.T.);
#670 = FACE_BOUND('',#671,.T.);
#671 = EDGE_LOOP('',(#672));
#672 = ORIENTED_EDGE('',*,*,#604,.F.);
#673 = PLANE('',#674);
#674 = AXIS2_PLACEMENT_3D('',#675,#676,#677);
#675 = CARTESIAN_POINT('',(-5.027353428454E-17,3.115041661739E-17,0.));
#676 = DIRECTION('',(-0.,-0.,-1.));
#677 = DIRECTION('',(-1.,0.,0.));
#678 = ( GEOMETRIC_REPRESENTATION_CONTEXT(3) 
GLOBAL_UNCERTAINTY_ASSIGNED_CONTEXT((#682)) GLOBAL_UNIT_ASSIGNED_CONTEXT
((#679,#680,#681)) REPRESENTATION_CONTEXT('Context #1',
  '3D Context with UNIT and UNCERTAINTY') );
#679 = ( LENGTH_UNIT() NAMED_UNIT(*) SI_UNIT(.MILLI.,.METRE.) );
#680 = ( NAMED_UNIT(*) PLANE_ANGLE_UNIT() SI_UNIT($,.RADIAN.) );
#681 = ( NAMED_UNIT(*) SI_UNIT($,.STERADIAN.) SOLID_ANGLE_UNIT() );
#682 = UNCERTAINTY_MEASURE_WITH_UNIT(LENGTH_MEASURE(1.E-07),#679,
  'distance_accuracy_value','confusion accuracy');
#683 = CONTEXT_DEPENDENT_SHAPE_REPRESENTATION(#684,#686);
#684 = ( REPRESENTATION_RELATIONSHIP('','',#579,#10) 
REPRESENTATION_RELATIONSHIP_WITH_TRANSFORMATION(#685) 
SHAPE_REPRESENTATION_RELATIONSHIP() );
#685 = ITEM_DEFINED_TRANSFORMATION('','',#11,#19);
#686 = PRODUCT_DEFINITION_SHAPE('Placement','Placement of an item',#687
  );
#687 = NEXT_ASSEMBLY_USAGE_OCCURRENCE('48','Lens','',#5,#574,$);
#688 = PRODUCT_RELATED_PRODUCT_CATEGORY('part',$,(#576));
#689 = MECHANICAL_DESIGN_GEOMETRIC_PRESENTATION_REPRESENTATION('',(#690)
  ,#326);
#690 = STYLED_ITEM('color',(#691),#110);
#691 = PRESENTATION_STYLE_ASSIGNMENT((#692,#698));
#692 = SURFACE_STYLE_USAGE(.BOTH.,#693);
#693 = SURFACE_SIDE_STYLE('',(#694));
#694 = SURFACE_STYLE_FILL_AREA(#695);
#695 = FILL_AREA_STYLE('',(#696));
#696 = FILL_AREA_STYLE_COLOUR('',#697);
#697 = COLOUR_RGB('',0.800000010877,0.800000010877,0.800000010877);
#698 = CURVE_STYLE('',#699,POSITIVE_LENGTH_MEASURE(0.1),#700);
#699 = DRAUGHTING_PRE_DEFINED_CURVE_FONT('continuous');
#700 = COLOUR_RGB('',9.803921802644E-02,9.803921802644E-02,
  9.803921802644E-02);
#701 = MECHANICAL_DESIGN_GEOMETRIC_PRESENTATION_REPRESENTATION('',(#702)
  ,#561);
#702 = STYLED_ITEM('color',(#703),#345);
#703 = PRESENTATION_STYLE_ASSIGNMENT((#704,#709));
#704 = SURFACE_STYLE_USAGE(.BOTH.,#705);
#705 = SURFACE_SIDE_STYLE('',(#706));
#706 = SURFACE_STYLE_FILL_AREA(#707);
#707 = FILL_AREA_STYLE('',(#708));
#708 = FILL_AREA_STYLE_COLOUR('',#697);
#709 = CURVE_STYLE('',#710,POSITIVE_LENGTH_MEASURE(0.1),#700);
#710 = DRAUGHTING_PRE_DEFINED_CURVE_FONT('continuous');
#711 = MECHANICAL_DESIGN_GEOMETRIC_PRESENTATION_REPRESENTATION('',(#712)
  ,#678);
#712 = STYLED_ITEM('color',(#713),#580);
#713 = PRESENTATION_STYLE_ASSIGNMENT((#714,#722));
#714 = SURFACE_STYLE_USAGE(.BOTH.,#715);
#715 = SURFACE_SIDE_STYLE('',(#716,#720));
#716 = SURFACE_STYLE_FILL_AREA(#717);
#717 = FILL_AREA_STYLE('',(#718));
#718 = FILL_AREA_STYLE_COLOUR('',#719);
#719 = DRAUGHTING_PRE_DEFINED_COLOUR('red');
#720 = SURFACE_STYLE_RENDERING_WITH_PROPERTIES(.NORMAL_SHADING.,#719,(
    #721));
#721 = SURFACE_STYLE_TRANSPARENT(5.000001192093E-02);
#722 = CURVE_STYLE('',#723,POSITIVE_LENGTH_MEASURE(0.1),#719);
#723 = DRAUGHTING_PRE_DEFINED_CURVE_FONT('continuous');
ENDSEC;
END-ISO-10303-21;
