ISO-10303-21;
HEADER;
FILE_DESCRIPTION(('FreeCAD Model'),'2;1');
FILE_NAME('Open CASCADE Shape Model','2026-06-10T11:58:49',(''),(''),
  'Open CASCADE STEP processor 7.8','FreeCAD','Unknown');
FILE_SCHEMA(('AUTOMOTIVE_DESIGN { 1 0 10303 214 1 1 1 1 }'));
ENDSEC;
DATA;
#1 = APPLICATION_PROTOCOL_DEFINITION('international standard',
  'automotive_design',2000,#2);
#2 = APPLICATION_CONTEXT(
  'core data for automotive mechanical design processes');
#3 = SHAPE_DEFINITION_REPRESENTATION(#4,#10);
#4 = PRODUCT_DEFINITION_SHAPE('','',#5);
#5 = PRODUCT_DEFINITION('design','',#6,#9);
#6 = PRODUCT_DEFINITION_FORMATION('','',#7);
#7 = PRODUCT('LED','LED','',(#8));
#8 = PRODUCT_CONTEXT('',#2,'mechanical');
#9 = PRODUCT_DEFINITION_CONTEXT('part definition',#2,'design');
#10 = SHAPE_REPRESENTATION('',(#11,#15,#19),#23);
#11 = AXIS2_PLACEMENT_3D('',#12,#13,#14);
#12 = CARTESIAN_POINT('',(0.,0.,0.));
#13 = DIRECTION('',(0.,0.,1.));
#14 = DIRECTION('',(1.,0.,-0.));
#15 = AXIS2_PLACEMENT_3D('',#16,#17,#18);
#16 = CARTESIAN_POINT('',(0.,0.,0.));
#17 = DIRECTION('',(0.,0.,1.));
#18 = DIRECTION('',(1.,0.,0.));
#19 = AXIS2_PLACEMENT_3D('',#20,#21,#22);
#20 = CARTESIAN_POINT('',(0.,0.,0.));
#21 = DIRECTION('',(0.,0.,1.));
#22 = DIRECTION('',(1.,0.,0.));
#23 = ( GEOMETRIC_REPRESENTATION_CONTEXT(3) 
GLOBAL_UNCERTAINTY_ASSIGNED_CONTEXT((#27)) GLOBAL_UNIT_ASSIGNED_CONTEXT(
(#24,#25,#26)) REPRESENTATION_CONTEXT('Context #1',
  '3D Context with UNIT and UNCERTAINTY') );
#24 = ( LENGTH_UNIT() NAMED_UNIT(*) SI_UNIT(.MILLI.,.METRE.) );
#25 = ( NAMED_UNIT(*) PLANE_ANGLE_UNIT() SI_UNIT($,.RADIAN.) );
#26 = ( NAMED_UNIT(*) SI_UNIT($,.STERADIAN.) SOLID_ANGLE_UNIT() );
#27 = UNCERTAINTY_MEASURE_WITH_UNIT(LENGTH_MEASURE(1.E-07),#24,
  'distance_accuracy_value','confusion accuracy');
#28 = PRODUCT_RELATED_PRODUCT_CATEGORY('part',$,(#7));
#29 = SHAPE_DEFINITION_REPRESENTATION(#30,#36);
#30 = PRODUCT_DEFINITION_SHAPE('','',#31);
#31 = PRODUCT_DEFINITION('design','',#32,#35);
#32 = PRODUCT_DEFINITION_FORMATION('','',#33);
#33 = PRODUCT('LensGroup','LensGroup','',(#34));
#34 = PRODUCT_CONTEXT('',#2,'mechanical');
#35 = PRODUCT_DEFINITION_CONTEXT('part definition',#2,'design');
#36 = SHAPE_REPRESENTATION('',(#11,#37,#41),#45);
#37 = AXIS2_PLACEMENT_3D('',#38,#39,#40);
#38 = CARTESIAN_POINT('',(0.,0.,0.));
#39 = DIRECTION('',(0.,0.,1.));
#40 = DIRECTION('',(1.,0.,0.));
#41 = AXIS2_PLACEMENT_3D('',#42,#43,#44);
#42 = CARTESIAN_POINT('',(0.,0.,0.15));
#43 = DIRECTION('',(0.,0.,1.));
#44 = DIRECTION('',(1.,0.,0.));
#45 = ( GEOMETRIC_REPRESENTATION_CONTEXT(3) 
GLOBAL_UNCERTAINTY_ASSIGNED_CONTEXT((#49)) GLOBAL_UNIT_ASSIGNED_CONTEXT(
(#46,#47,#48)) REPRESENTATION_CONTEXT('Context #1',
  '3D Context with UNIT and UNCERTAINTY') );
#46 = ( LENGTH_UNIT() NAMED_UNIT(*) SI_UNIT(.MILLI.,.METRE.) );
#47 = ( NAMED_UNIT(*) PLANE_ANGLE_UNIT() SI_UNIT($,.RADIAN.) );
#48 = ( NAMED_UNIT(*) SI_UNIT($,.STERADIAN.) SOLID_ANGLE_UNIT() );
#49 = UNCERTAINTY_MEASURE_WITH_UNIT(LENGTH_MEASURE(1.E-07),#46,
  'distance_accuracy_value','confusion accuracy');
#50 = CONTEXT_DEPENDENT_SHAPE_REPRESENTATION(#51,#53);
#51 = ( REPRESENTATION_RELATIONSHIP('','',#36,#10) 
REPRESENTATION_RELATIONSHIP_WITH_TRANSFORMATION(#52) 
SHAPE_REPRESENTATION_RELATIONSHIP() );
#52 = ITEM_DEFINED_TRANSFORMATION('','',#11,#15);
#53 = PRODUCT_DEFINITION_SHAPE('Placement','Placement of an item',#54);
#54 = NEXT_ASSEMBLY_USAGE_OCCURRENCE('5','LensGroup','',#5,#31,$);
#55 = PRODUCT_RELATED_PRODUCT_CATEGORY('part',$,(#33));
#56 = SHAPE_DEFINITION_REPRESENTATION(#57,#63);
#57 = PRODUCT_DEFINITION_SHAPE('','',#58);
#58 = PRODUCT_DEFINITION('design','',#59,#62);
#59 = PRODUCT_DEFINITION_FORMATION('','',#60);
#60 = PRODUCT('Lens','Lens','',(#61));
#61 = PRODUCT_CONTEXT('',#2,'mechanical');
#62 = PRODUCT_DEFINITION_CONTEXT('part definition',#2,'design');
#63 = ADVANCED_BREP_SHAPE_REPRESENTATION('',(#11,#64),#127);
#64 = MANIFOLD_SOLID_BREP('',#65);
#65 = CLOSED_SHELL('',(#66,#99,#118));
#66 = ADVANCED_FACE('',(#67),#94,.T.);
#67 = FACE_BOUND('',#68,.F.);
#68 = EDGE_LOOP('',(#69,#79,#86,#87));
#69 = ORIENTED_EDGE('',*,*,#70,.T.);
#70 = EDGE_CURVE('',#71,#73,#75,.T.);
#71 = VERTEX_POINT('',#72);
#72 = CARTESIAN_POINT('',(1.5,0.,0.15));
#73 = VERTEX_POINT('',#74);
#74 = CARTESIAN_POINT('',(1.5,0.,3.95));
#75 = LINE('',#76,#77);
#76 = CARTESIAN_POINT('',(1.5,0.,0.15));
#77 = VECTOR('',#78,1.);
#78 = DIRECTION('',(0.,0.,1.));
#79 = ORIENTED_EDGE('',*,*,#80,.T.);
#80 = EDGE_CURVE('',#73,#73,#81,.T.);
#81 = CIRCLE('',#82,1.5);
#82 = AXIS2_PLACEMENT_3D('',#83,#84,#85);
#83 = CARTESIAN_POINT('',(0.,0.,3.95));
#84 = DIRECTION('',(0.,0.,1.));
#85 = DIRECTION('',(1.,0.,0.));
#86 = ORIENTED_EDGE('',*,*,#70,.F.);
#87 = ORIENTED_EDGE('',*,*,#88,.F.);
#88 = EDGE_CURVE('',#71,#71,#89,.T.);
#89 = CIRCLE('',#90,1.5);
#90 = AXIS2_PLACEMENT_3D('',#91,#92,#93);
#91 = CARTESIAN_POINT('',(0.,0.,0.15));
#92 = DIRECTION('',(0.,0.,1.));
#93 = DIRECTION('',(1.,0.,0.));
#94 = CYLINDRICAL_SURFACE('',#95,1.5);
#95 = AXIS2_PLACEMENT_3D('',#96,#97,#98);
#96 = CARTESIAN_POINT('',(0.,0.,0.15));
#97 = DIRECTION('',(-0.,-0.,-1.));
#98 = DIRECTION('',(1.,0.,0.));
#99 = ADVANCED_FACE('',(#100),#113,.T.);
#100 = FACE_BOUND('',#101,.T.);
#101 = EDGE_LOOP('',(#102,#111,#112));
#102 = ORIENTED_EDGE('',*,*,#103,.F.);
#103 = EDGE_CURVE('',#73,#104,#106,.T.);
#104 = VERTEX_POINT('',#105);
#105 = CARTESIAN_POINT('',(9.184850993605E-17,0.,5.45));
#106 = CIRCLE('',#107,1.5);
#107 = AXIS2_PLACEMENT_3D('',#108,#109,#110);
#108 = CARTESIAN_POINT('',(0.,0.,3.95));
#109 = DIRECTION('',(0.,-1.,0.));
#110 = DIRECTION('',(1.,0.,0.));
#111 = ORIENTED_EDGE('',*,*,#80,.T.);
#112 = ORIENTED_EDGE('',*,*,#103,.T.);
#113 = SPHERICAL_SURFACE('',#114,1.5);
#114 = AXIS2_PLACEMENT_3D('',#115,#116,#117);
#115 = CARTESIAN_POINT('',(0.,0.,3.95));
#116 = DIRECTION('',(0.,0.,1.));
#117 = DIRECTION('',(1.,0.,0.));
#118 = ADVANCED_FACE('',(#119),#122,.F.);
#119 = FACE_BOUND('',#120,.F.);
#120 = EDGE_LOOP('',(#121));
#121 = ORIENTED_EDGE('',*,*,#88,.T.);
#122 = PLANE('',#123);
#123 = AXIS2_PLACEMENT_3D('',#124,#125,#126);
#124 = CARTESIAN_POINT('',(-1.139533443783E-16,-4.255667768225E-18,0.15)
  );
#125 = DIRECTION('',(0.,0.,1.));
#126 = DIRECTION('',(1.,0.,0.));
#127 = ( GEOMETRIC_REPRESENTATION_CONTEXT(3) 
GLOBAL_UNCERTAINTY_ASSIGNED_CONTEXT((#131)) GLOBAL_UNIT_ASSIGNED_CONTEXT
((#128,#129,#130)) REPRESENTATION_CONTEXT('Context #1',
  '3D Context with UNIT and UNCERTAINTY') );
#128 = ( LENGTH_UNIT() NAMED_UNIT(*) SI_UNIT(.MILLI.,.METRE.) );
#129 = ( NAMED_UNIT(*) PLANE_ANGLE_UNIT() SI_UNIT($,.RADIAN.) );
#130 = ( NAMED_UNIT(*) SI_UNIT($,.STERADIAN.) SOLID_ANGLE_UNIT() );
#131 = UNCERTAINTY_MEASURE_WITH_UNIT(LENGTH_MEASURE(1.E-07),#128,
  'distance_accuracy_value','confusion accuracy');
#132 = CONTEXT_DEPENDENT_SHAPE_REPRESENTATION(#133,#135);
#133 = ( REPRESENTATION_RELATIONSHIP('','',#63,#36) 
REPRESENTATION_RELATIONSHIP_WITH_TRANSFORMATION(#134) 
SHAPE_REPRESENTATION_RELATIONSHIP() );
#134 = ITEM_DEFINED_TRANSFORMATION('','',#11,#37);
#135 = PRODUCT_DEFINITION_SHAPE('Placement','Placement of an item',#136
  );
#136 = NEXT_ASSEMBLY_USAGE_OCCURRENCE('3','Lens','',#31,#58,$);
#137 = PRODUCT_RELATED_PRODUCT_CATEGORY('part',$,(#60));
#138 = SHAPE_DEFINITION_REPRESENTATION(#139,#145);
#139 = PRODUCT_DEFINITION_SHAPE('','',#140);
#140 = PRODUCT_DEFINITION('design','',#141,#144);
#141 = PRODUCT_DEFINITION_FORMATION('','',#142);
#142 = PRODUCT('Mark','Mark','',(#143));
#143 = PRODUCT_CONTEXT('',#2,'mechanical');
#144 = PRODUCT_DEFINITION_CONTEXT('part definition',#2,'design');
#145 = ADVANCED_BREP_SHAPE_REPRESENTATION('',(#11,#146),#232);
#146 = MANIFOLD_SOLID_BREP('',#147);
#147 = CLOSED_SHELL('',(#148,#190,#212,#222));
#148 = ADVANCED_FACE('',(#149),#185,.T.);
#149 = FACE_BOUND('',#150,.F.);
#150 = EDGE_LOOP('',(#151,#161,#170,#178));
#151 = ORIENTED_EDGE('',*,*,#152,.T.);
#152 = EDGE_CURVE('',#153,#155,#157,.T.);
#153 = VERTEX_POINT('',#154);
#154 = CARTESIAN_POINT('',(1.4933583404,1.21470402451,0.));
#155 = VERTEX_POINT('',#156);
#156 = CARTESIAN_POINT('',(1.4933583404,1.21470402451,1.));
#157 = LINE('',#158,#159);
#158 = CARTESIAN_POINT('',(1.4933583404,1.21470402451,0.));
#159 = VECTOR('',#160,1.);
#160 = DIRECTION('',(0.,0.,1.));
#161 = ORIENTED_EDGE('',*,*,#162,.T.);
#162 = EDGE_CURVE('',#155,#163,#165,.T.);
#163 = VERTEX_POINT('',#164);
#164 = CARTESIAN_POINT('',(1.4933583404,-1.21470402451,1.));
#165 = CIRCLE('',#166,1.925);
#166 = AXIS2_PLACEMENT_3D('',#167,#168,#169);
#167 = CARTESIAN_POINT('',(0.,-1.481193987607E-32,1.));
#168 = DIRECTION('',(0.,0.,1.));
#169 = DIRECTION('',(1.,0.,0.));
#170 = ORIENTED_EDGE('',*,*,#171,.F.);
#171 = EDGE_CURVE('',#172,#163,#174,.T.);
#172 = VERTEX_POINT('',#173);
#173 = CARTESIAN_POINT('',(1.4933583404,-1.21470402451,0.));
#174 = LINE('',#175,#176);
#175 = CARTESIAN_POINT('',(1.4933583404,-1.21470402451,0.));
#176 = VECTOR('',#177,1.);
#177 = DIRECTION('',(0.,0.,1.));
#178 = ORIENTED_EDGE('',*,*,#179,.F.);
#179 = EDGE_CURVE('',#153,#172,#180,.T.);
#180 = CIRCLE('',#181,1.925);
#181 = AXIS2_PLACEMENT_3D('',#182,#183,#184);
#182 = CARTESIAN_POINT('',(0.,-1.481193987607E-32,0.));
#183 = DIRECTION('',(0.,0.,1.));
#184 = DIRECTION('',(1.,0.,0.));
#185 = CYLINDRICAL_SURFACE('',#186,1.925);
#186 = AXIS2_PLACEMENT_3D('',#187,#188,#189);
#187 = CARTESIAN_POINT('',(0.,-1.481193987607E-32,0.));
#188 = DIRECTION('',(-0.,-0.,-1.));
#189 = DIRECTION('',(1.,0.,0.));
#190 = ADVANCED_FACE('',(#191),#207,.F.);
#191 = FACE_BOUND('',#192,.F.);
#192 = EDGE_LOOP('',(#193,#194,#200,#201));
#193 = ORIENTED_EDGE('',*,*,#171,.T.);
#194 = ORIENTED_EDGE('',*,*,#195,.T.);
#195 = EDGE_CURVE('',#163,#155,#196,.T.);
#196 = LINE('',#197,#198);
#197 = CARTESIAN_POINT('',(1.4933583404,-1.21470402451,1.));
#198 = VECTOR('',#199,1.);
#199 = DIRECTION('',(0.,1.,0.));
#200 = ORIENTED_EDGE('',*,*,#152,.F.);
#201 = ORIENTED_EDGE('',*,*,#202,.F.);
#202 = EDGE_CURVE('',#172,#153,#203,.T.);
#203 = LINE('',#204,#205);
#204 = CARTESIAN_POINT('',(1.4933583404,-1.21470402451,0.));
#205 = VECTOR('',#206,1.);
#206 = DIRECTION('',(0.,1.,0.));
#207 = PLANE('',#208);
#208 = AXIS2_PLACEMENT_3D('',#209,#210,#211);
#209 = CARTESIAN_POINT('',(1.4933583404,-1.21470402451,0.));
#210 = DIRECTION('',(-1.,0.,0.));
#211 = DIRECTION('',(0.,1.,0.));
#212 = ADVANCED_FACE('',(#213),#217,.F.);
#213 = FACE_BOUND('',#214,.F.);
#214 = EDGE_LOOP('',(#215,#216));
#215 = ORIENTED_EDGE('',*,*,#179,.T.);
#216 = ORIENTED_EDGE('',*,*,#202,.T.);
#217 = PLANE('',#218);
#218 = AXIS2_PLACEMENT_3D('',#219,#220,#221);
#219 = CARTESIAN_POINT('',(4.011187619267E-02,-1.225545839372E-16,0.));
#220 = DIRECTION('',(0.,0.,1.));
#221 = DIRECTION('',(1.,0.,0.));
#222 = ADVANCED_FACE('',(#223),#227,.T.);
#223 = FACE_BOUND('',#224,.T.);
#224 = EDGE_LOOP('',(#225,#226));
#225 = ORIENTED_EDGE('',*,*,#162,.T.);
#226 = ORIENTED_EDGE('',*,*,#195,.T.);
#227 = PLANE('',#228);
#228 = AXIS2_PLACEMENT_3D('',#229,#230,#231);
#229 = CARTESIAN_POINT('',(4.011187619267E-02,-1.225545839372E-16,1.));
#230 = DIRECTION('',(0.,0.,1.));
#231 = DIRECTION('',(1.,0.,0.));
#232 = ( GEOMETRIC_REPRESENTATION_CONTEXT(3) 
GLOBAL_UNCERTAINTY_ASSIGNED_CONTEXT((#236)) GLOBAL_UNIT_ASSIGNED_CONTEXT
((#233,#234,#235)) REPRESENTATION_CONTEXT('Context #1',
  '3D Context with UNIT and UNCERTAINTY') );
#233 = ( LENGTH_UNIT() NAMED_UNIT(*) SI_UNIT(.MILLI.,.METRE.) );
#234 = ( NAMED_UNIT(*) PLANE_ANGLE_UNIT() SI_UNIT($,.RADIAN.) );
#235 = ( NAMED_UNIT(*) SI_UNIT($,.STERADIAN.) SOLID_ANGLE_UNIT() );
#236 = UNCERTAINTY_MEASURE_WITH_UNIT(LENGTH_MEASURE(1.E-07),#233,
  'distance_accuracy_value','confusion accuracy');
#237 = CONTEXT_DEPENDENT_SHAPE_REPRESENTATION(#238,#240);
#238 = ( REPRESENTATION_RELATIONSHIP('','',#145,#36) 
REPRESENTATION_RELATIONSHIP_WITH_TRANSFORMATION(#239) 
SHAPE_REPRESENTATION_RELATIONSHIP() );
#239 = ITEM_DEFINED_TRANSFORMATION('','',#11,#41);
#240 = PRODUCT_DEFINITION_SHAPE('Placement','Placement of an item',#241
  );
#241 = NEXT_ASSEMBLY_USAGE_OCCURRENCE('4','Mark','',#31,#140,$);
#242 = PRODUCT_RELATED_PRODUCT_CATEGORY('part',$,(#142));
#243 = SHAPE_DEFINITION_REPRESENTATION(#244,#250);
#244 = PRODUCT_DEFINITION_SHAPE('','',#245);
#245 = PRODUCT_DEFINITION('design','',#246,#249);
#246 = PRODUCT_DEFINITION_FORMATION('','',#247);
#247 = PRODUCT('PinsGroup','PinsGroup','',(#248));
#248 = PRODUCT_CONTEXT('',#2,'mechanical');
#249 = PRODUCT_DEFINITION_CONTEXT('part definition',#2,'design');
#250 = SHAPE_REPRESENTATION('',(#11,#251,#255,#259),#263);
#251 = AXIS2_PLACEMENT_3D('',#252,#253,#254);
#252 = CARTESIAN_POINT('',(0.,0.,0.));
#253 = DIRECTION('',(0.,0.,1.));
#254 = DIRECTION('',(1.,0.,0.));
#255 = AXIS2_PLACEMENT_3D('',#256,#257,#258);
#256 = CARTESIAN_POINT('',(0.,0.,0.));
#257 = DIRECTION('',(0.,0.,1.));
#258 = DIRECTION('',(1.,0.,0.));
#259 = AXIS2_PLACEMENT_3D('',#260,#261,#262);
#260 = CARTESIAN_POINT('',(0.,0.,0.));
#261 = DIRECTION('',(0.,0.,1.));
#262 = DIRECTION('',(1.,0.,0.));
#263 = ( GEOMETRIC_REPRESENTATION_CONTEXT(3) 
GLOBAL_UNCERTAINTY_ASSIGNED_CONTEXT((#267)) GLOBAL_UNIT_ASSIGNED_CONTEXT
((#264,#265,#266)) REPRESENTATION_CONTEXT('Context #1',
  '3D Context with UNIT and UNCERTAINTY') );
#264 = ( LENGTH_UNIT() NAMED_UNIT(*) SI_UNIT(.MILLI.,.METRE.) );
#265 = ( NAMED_UNIT(*) PLANE_ANGLE_UNIT() SI_UNIT($,.RADIAN.) );
#266 = ( NAMED_UNIT(*) SI_UNIT($,.STERADIAN.) SOLID_ANGLE_UNIT() );
#267 = UNCERTAINTY_MEASURE_WITH_UNIT(LENGTH_MEASURE(1.E-07),#264,
  'distance_accuracy_value','confusion accuracy');
#268 = CONTEXT_DEPENDENT_SHAPE_REPRESENTATION(#269,#271);
#269 = ( REPRESENTATION_RELATIONSHIP('','',#250,#10) 
REPRESENTATION_RELATIONSHIP_WITH_TRANSFORMATION(#270) 
SHAPE_REPRESENTATION_RELATIONSHIP() );
#270 = ITEM_DEFINED_TRANSFORMATION('','',#11,#19);
#271 = PRODUCT_DEFINITION_SHAPE('Placement','Placement of an item',#272
  );
#272 = NEXT_ASSEMBLY_USAGE_OCCURRENCE('9','PinsGroup','',#5,#245,$);
#273 = PRODUCT_RELATED_PRODUCT_CATEGORY('part',$,(#247));
#274 = SHAPE_DEFINITION_REPRESENTATION(#275,#281);
#275 = PRODUCT_DEFINITION_SHAPE('','',#276);
#276 = PRODUCT_DEFINITION('design','',#277,#280);
#277 = PRODUCT_DEFINITION_FORMATION('','',#278);
#278 = PRODUCT('PinA','PinA','',(#279));
#279 = PRODUCT_CONTEXT('',#2,'mechanical');
#280 = PRODUCT_DEFINITION_CONTEXT('part definition',#2,'design');
#281 = ADVANCED_BREP_SHAPE_REPRESENTATION('',(#11,#282),#432);
#282 = MANIFOLD_SOLID_BREP('',#283);
#283 = CLOSED_SHELL('',(#284,#324,#355,#386,#408,#420));
#284 = ADVANCED_FACE('',(#285),#319,.T.);
#285 = FACE_BOUND('',#286,.T.);
#286 = EDGE_LOOP('',(#287,#297,#305,#313));
#287 = ORIENTED_EDGE('',*,*,#288,.T.);
#288 = EDGE_CURVE('',#289,#291,#293,.T.);
#289 = VERTEX_POINT('',#290);
#290 = CARTESIAN_POINT('',(-1.52,-0.25,0.));
#291 = VERTEX_POINT('',#292);
#292 = CARTESIAN_POINT('',(-1.52,-0.25,-5.));
#293 = LINE('',#294,#295);
#294 = CARTESIAN_POINT('',(-1.52,-0.25,0.));
#295 = VECTOR('',#296,1.);
#296 = DIRECTION('',(-0.,-0.,-1.));
#297 = ORIENTED_EDGE('',*,*,#298,.T.);
#298 = EDGE_CURVE('',#291,#299,#301,.T.);
#299 = VERTEX_POINT('',#300);
#300 = CARTESIAN_POINT('',(-1.02,-0.25,-5.));
#301 = LINE('',#302,#303);
#302 = CARTESIAN_POINT('',(-1.52,-0.25,-5.));
#303 = VECTOR('',#304,1.);
#304 = DIRECTION('',(1.,0.,0.));
#305 = ORIENTED_EDGE('',*,*,#306,.F.);
#306 = EDGE_CURVE('',#307,#299,#309,.T.);
#307 = VERTEX_POINT('',#308);
#308 = CARTESIAN_POINT('',(-1.02,-0.25,0.));
#309 = LINE('',#310,#311);
#310 = CARTESIAN_POINT('',(-1.02,-0.25,0.));
#311 = VECTOR('',#312,1.);
#312 = DIRECTION('',(-0.,-0.,-1.));
#313 = ORIENTED_EDGE('',*,*,#314,.F.);
#314 = EDGE_CURVE('',#289,#307,#315,.T.);
#315 = LINE('',#316,#317);
#316 = CARTESIAN_POINT('',(-1.52,-0.25,0.));
#317 = VECTOR('',#318,1.);
#318 = DIRECTION('',(1.,0.,0.));
#319 = PLANE('',#320);
#320 = AXIS2_PLACEMENT_3D('',#321,#322,#323);
#321 = CARTESIAN_POINT('',(-1.52,-0.25,0.));
#322 = DIRECTION('',(0.,-1.,0.));
#323 = DIRECTION('',(1.,0.,0.));
#324 = ADVANCED_FACE('',(#325),#350,.T.);
#325 = FACE_BOUND('',#326,.T.);
#326 = EDGE_LOOP('',(#327,#328,#336,#344));
#327 = ORIENTED_EDGE('',*,*,#306,.T.);
#328 = ORIENTED_EDGE('',*,*,#329,.T.);
#329 = EDGE_CURVE('',#299,#330,#332,.T.);
#330 = VERTEX_POINT('',#331);
#331 = CARTESIAN_POINT('',(-1.02,0.25,-5.));
#332 = LINE('',#333,#334);
#333 = CARTESIAN_POINT('',(-1.02,-0.25,-5.));
#334 = VECTOR('',#335,1.);
#335 = DIRECTION('',(0.,1.,0.));
#336 = ORIENTED_EDGE('',*,*,#337,.F.);
#337 = EDGE_CURVE('',#338,#330,#340,.T.);
#338 = VERTEX_POINT('',#339);
#339 = CARTESIAN_POINT('',(-1.02,0.25,0.));
#340 = LINE('',#341,#342);
#341 = CARTESIAN_POINT('',(-1.02,0.25,0.));
#342 = VECTOR('',#343,1.);
#343 = DIRECTION('',(-0.,-0.,-1.));
#344 = ORIENTED_EDGE('',*,*,#345,.F.);
#345 = EDGE_CURVE('',#307,#338,#346,.T.);
#346 = LINE('',#347,#348);
#347 = CARTESIAN_POINT('',(-1.02,-0.25,0.));
#348 = VECTOR('',#349,1.);
#349 = DIRECTION('',(0.,1.,0.));
#350 = PLANE('',#351);
#351 = AXIS2_PLACEMENT_3D('',#352,#353,#354);
#352 = CARTESIAN_POINT('',(-1.02,-0.25,0.));
#353 = DIRECTION('',(1.,0.,0.));
#354 = DIRECTION('',(-0.,1.,0.));
#355 = ADVANCED_FACE('',(#356),#381,.T.);
#356 = FACE_BOUND('',#357,.T.);
#357 = EDGE_LOOP('',(#358,#359,#367,#375));
#358 = ORIENTED_EDGE('',*,*,#337,.T.);
#359 = ORIENTED_EDGE('',*,*,#360,.T.);
#360 = EDGE_CURVE('',#330,#361,#363,.T.);
#361 = VERTEX_POINT('',#362);
#362 = CARTESIAN_POINT('',(-1.52,0.25,-5.));
#363 = LINE('',#364,#365);
#364 = CARTESIAN_POINT('',(-1.02,0.25,-5.));
#365 = VECTOR('',#366,1.);
#366 = DIRECTION('',(-1.,0.,0.));
#367 = ORIENTED_EDGE('',*,*,#368,.F.);
#368 = EDGE_CURVE('',#369,#361,#371,.T.);
#369 = VERTEX_POINT('',#370);
#370 = CARTESIAN_POINT('',(-1.52,0.25,0.));
#371 = LINE('',#372,#373);
#372 = CARTESIAN_POINT('',(-1.52,0.25,0.));
#373 = VECTOR('',#374,1.);
#374 = DIRECTION('',(-0.,-0.,-1.));
#375 = ORIENTED_EDGE('',*,*,#376,.F.);
#376 = EDGE_CURVE('',#338,#369,#377,.T.);
#377 = LINE('',#378,#379);
#378 = CARTESIAN_POINT('',(-1.02,0.25,0.));
#379 = VECTOR('',#380,1.);
#380 = DIRECTION('',(-1.,0.,0.));
#381 = PLANE('',#382);
#382 = AXIS2_PLACEMENT_3D('',#383,#384,#385);
#383 = CARTESIAN_POINT('',(-1.02,0.25,0.));
#384 = DIRECTION('',(0.,1.,0.));
#385 = DIRECTION('',(-1.,0.,0.));
#386 = ADVANCED_FACE('',(#387),#403,.T.);
#387 = FACE_BOUND('',#388,.T.);
#388 = EDGE_LOOP('',(#389,#390,#396,#397));
#389 = ORIENTED_EDGE('',*,*,#368,.T.);
#390 = ORIENTED_EDGE('',*,*,#391,.T.);
#391 = EDGE_CURVE('',#361,#291,#392,.T.);
#392 = LINE('',#393,#394);
#393 = CARTESIAN_POINT('',(-1.52,0.25,-5.));
#394 = VECTOR('',#395,1.);
#395 = DIRECTION('',(0.,-1.,0.));
#396 = ORIENTED_EDGE('',*,*,#288,.F.);
#397 = ORIENTED_EDGE('',*,*,#398,.F.);
#398 = EDGE_CURVE('',#369,#289,#399,.T.);
#399 = LINE('',#400,#401);
#400 = CARTESIAN_POINT('',(-1.52,0.25,0.));
#401 = VECTOR('',#402,1.);
#402 = DIRECTION('',(0.,-1.,0.));
#403 = PLANE('',#404);
#404 = AXIS2_PLACEMENT_3D('',#405,#406,#407);
#405 = CARTESIAN_POINT('',(-1.52,0.25,0.));
#406 = DIRECTION('',(-1.,0.,0.));
#407 = DIRECTION('',(0.,-1.,0.));
#408 = ADVANCED_FACE('',(#409),#415,.T.);
#409 = FACE_BOUND('',#410,.T.);
#410 = EDGE_LOOP('',(#411,#412,#413,#414));
#411 = ORIENTED_EDGE('',*,*,#314,.T.);
#412 = ORIENTED_EDGE('',*,*,#345,.T.);
#413 = ORIENTED_EDGE('',*,*,#376,.T.);
#414 = ORIENTED_EDGE('',*,*,#398,.T.);
#415 = PLANE('',#416);
#416 = AXIS2_PLACEMENT_3D('',#417,#418,#419);
#417 = CARTESIAN_POINT('',(-1.27,0.,0.));
#418 = DIRECTION('',(0.,0.,1.));
#419 = DIRECTION('',(1.,0.,0.));
#420 = ADVANCED_FACE('',(#421),#427,.F.);
#421 = FACE_BOUND('',#422,.F.);
#422 = EDGE_LOOP('',(#423,#424,#425,#426));
#423 = ORIENTED_EDGE('',*,*,#298,.T.);
#424 = ORIENTED_EDGE('',*,*,#329,.T.);
#425 = ORIENTED_EDGE('',*,*,#360,.T.);
#426 = ORIENTED_EDGE('',*,*,#391,.T.);
#427 = PLANE('',#428);
#428 = AXIS2_PLACEMENT_3D('',#429,#430,#431);
#429 = CARTESIAN_POINT('',(-1.27,0.,-5.));
#430 = DIRECTION('',(0.,0.,1.));
#431 = DIRECTION('',(1.,0.,0.));
#432 = ( GEOMETRIC_REPRESENTATION_CONTEXT(3) 
GLOBAL_UNCERTAINTY_ASSIGNED_CONTEXT((#436)) GLOBAL_UNIT_ASSIGNED_CONTEXT
((#433,#434,#435)) REPRESENTATION_CONTEXT('Context #1',
  '3D Context with UNIT and UNCERTAINTY') );
#433 = ( LENGTH_UNIT() NAMED_UNIT(*) SI_UNIT(.MILLI.,.METRE.) );
#434 = ( NAMED_UNIT(*) PLANE_ANGLE_UNIT() SI_UNIT($,.RADIAN.) );
#435 = ( NAMED_UNIT(*) SI_UNIT($,.STERADIAN.) SOLID_ANGLE_UNIT() );
#436 = UNCERTAINTY_MEASURE_WITH_UNIT(LENGTH_MEASURE(1.E-07),#433,
  'distance_accuracy_value','confusion accuracy');
#437 = CONTEXT_DEPENDENT_SHAPE_REPRESENTATION(#438,#440);
#438 = ( REPRESENTATION_RELATIONSHIP('','',#281,#250) 
REPRESENTATION_RELATIONSHIP_WITH_TRANSFORMATION(#439) 
SHAPE_REPRESENTATION_RELATIONSHIP() );
#439 = ITEM_DEFINED_TRANSFORMATION('','',#11,#251);
#440 = PRODUCT_DEFINITION_SHAPE('Placement','Placement of an item',#441
  );
#441 = NEXT_ASSEMBLY_USAGE_OCCURRENCE('6','PinA','',#245,#276,$);
#442 = PRODUCT_RELATED_PRODUCT_CATEGORY('part',$,(#278));
#443 = SHAPE_DEFINITION_REPRESENTATION(#444,#450);
#444 = PRODUCT_DEFINITION_SHAPE('','',#445);
#445 = PRODUCT_DEFINITION('design','',#446,#449);
#446 = PRODUCT_DEFINITION_FORMATION('','',#447);
#447 = PRODUCT('PinB','PinB','',(#448));
#448 = PRODUCT_CONTEXT('',#2,'mechanical');
#449 = PRODUCT_DEFINITION_CONTEXT('part definition',#2,'design');
#450 = ADVANCED_BREP_SHAPE_REPRESENTATION('',(#11,#451),#601);
#451 = MANIFOLD_SOLID_BREP('',#452);
#452 = CLOSED_SHELL('',(#453,#493,#524,#555,#577,#589));
#453 = ADVANCED_FACE('',(#454),#488,.T.);
#454 = FACE_BOUND('',#455,.T.);
#455 = EDGE_LOOP('',(#456,#466,#474,#482));
#456 = ORIENTED_EDGE('',*,*,#457,.T.);
#457 = EDGE_CURVE('',#458,#460,#462,.T.);
#458 = VERTEX_POINT('',#459);
#459 = CARTESIAN_POINT('',(1.02,-0.25,0.));
#460 = VERTEX_POINT('',#461);
#461 = CARTESIAN_POINT('',(1.02,-0.25,-5.));
#462 = LINE('',#463,#464);
#463 = CARTESIAN_POINT('',(1.02,-0.25,0.));
#464 = VECTOR('',#465,1.);
#465 = DIRECTION('',(-0.,-0.,-1.));
#466 = ORIENTED_EDGE('',*,*,#467,.T.);
#467 = EDGE_CURVE('',#460,#468,#470,.T.);
#468 = VERTEX_POINT('',#469);
#469 = CARTESIAN_POINT('',(1.52,-0.25,-5.));
#470 = LINE('',#471,#472);
#471 = CARTESIAN_POINT('',(1.02,-0.25,-5.));
#472 = VECTOR('',#473,1.);
#473 = DIRECTION('',(1.,0.,0.));
#474 = ORIENTED_EDGE('',*,*,#475,.F.);
#475 = EDGE_CURVE('',#476,#468,#478,.T.);
#476 = VERTEX_POINT('',#477);
#477 = CARTESIAN_POINT('',(1.52,-0.25,0.));
#478 = LINE('',#479,#480);
#479 = CARTESIAN_POINT('',(1.52,-0.25,0.));
#480 = VECTOR('',#481,1.);
#481 = DIRECTION('',(-0.,-0.,-1.));
#482 = ORIENTED_EDGE('',*,*,#483,.F.);
#483 = EDGE_CURVE('',#458,#476,#484,.T.);
#484 = LINE('',#485,#486);
#485 = CARTESIAN_POINT('',(1.02,-0.25,0.));
#486 = VECTOR('',#487,1.);
#487 = DIRECTION('',(1.,0.,0.));
#488 = PLANE('',#489);
#489 = AXIS2_PLACEMENT_3D('',#490,#491,#492);
#490 = CARTESIAN_POINT('',(1.02,-0.25,0.));
#491 = DIRECTION('',(0.,-1.,0.));
#492 = DIRECTION('',(1.,0.,0.));
#493 = ADVANCED_FACE('',(#494),#519,.T.);
#494 = FACE_BOUND('',#495,.T.);
#495 = EDGE_LOOP('',(#496,#497,#505,#513));
#496 = ORIENTED_EDGE('',*,*,#475,.T.);
#497 = ORIENTED_EDGE('',*,*,#498,.T.);
#498 = EDGE_CURVE('',#468,#499,#501,.T.);
#499 = VERTEX_POINT('',#500);
#500 = CARTESIAN_POINT('',(1.52,0.25,-5.));
#501 = LINE('',#502,#503);
#502 = CARTESIAN_POINT('',(1.52,-0.25,-5.));
#503 = VECTOR('',#504,1.);
#504 = DIRECTION('',(0.,1.,0.));
#505 = ORIENTED_EDGE('',*,*,#506,.F.);
#506 = EDGE_CURVE('',#507,#499,#509,.T.);
#507 = VERTEX_POINT('',#508);
#508 = CARTESIAN_POINT('',(1.52,0.25,0.));
#509 = LINE('',#510,#511);
#510 = CARTESIAN_POINT('',(1.52,0.25,0.));
#511 = VECTOR('',#512,1.);
#512 = DIRECTION('',(-0.,-0.,-1.));
#513 = ORIENTED_EDGE('',*,*,#514,.F.);
#514 = EDGE_CURVE('',#476,#507,#515,.T.);
#515 = LINE('',#516,#517);
#516 = CARTESIAN_POINT('',(1.52,-0.25,0.));
#517 = VECTOR('',#518,1.);
#518 = DIRECTION('',(0.,1.,0.));
#519 = PLANE('',#520);
#520 = AXIS2_PLACEMENT_3D('',#521,#522,#523);
#521 = CARTESIAN_POINT('',(1.52,-0.25,0.));
#522 = DIRECTION('',(1.,0.,0.));
#523 = DIRECTION('',(-0.,1.,0.));
#524 = ADVANCED_FACE('',(#525),#550,.T.);
#525 = FACE_BOUND('',#526,.T.);
#526 = EDGE_LOOP('',(#527,#528,#536,#544));
#527 = ORIENTED_EDGE('',*,*,#506,.T.);
#528 = ORIENTED_EDGE('',*,*,#529,.T.);
#529 = EDGE_CURVE('',#499,#530,#532,.T.);
#530 = VERTEX_POINT('',#531);
#531 = CARTESIAN_POINT('',(1.02,0.25,-5.));
#532 = LINE('',#533,#534);
#533 = CARTESIAN_POINT('',(1.52,0.25,-5.));
#534 = VECTOR('',#535,1.);
#535 = DIRECTION('',(-1.,0.,0.));
#536 = ORIENTED_EDGE('',*,*,#537,.F.);
#537 = EDGE_CURVE('',#538,#530,#540,.T.);
#538 = VERTEX_POINT('',#539);
#539 = CARTESIAN_POINT('',(1.02,0.25,0.));
#540 = LINE('',#541,#542);
#541 = CARTESIAN_POINT('',(1.02,0.25,0.));
#542 = VECTOR('',#543,1.);
#543 = DIRECTION('',(-0.,-0.,-1.));
#544 = ORIENTED_EDGE('',*,*,#545,.F.);
#545 = EDGE_CURVE('',#507,#538,#546,.T.);
#546 = LINE('',#547,#548);
#547 = CARTESIAN_POINT('',(1.52,0.25,0.));
#548 = VECTOR('',#549,1.);
#549 = DIRECTION('',(-1.,0.,0.));
#550 = PLANE('',#551);
#551 = AXIS2_PLACEMENT_3D('',#552,#553,#554);
#552 = CARTESIAN_POINT('',(1.52,0.25,0.));
#553 = DIRECTION('',(0.,1.,0.));
#554 = DIRECTION('',(-1.,0.,0.));
#555 = ADVANCED_FACE('',(#556),#572,.T.);
#556 = FACE_BOUND('',#557,.T.);
#557 = EDGE_LOOP('',(#558,#559,#565,#566));
#558 = ORIENTED_EDGE('',*,*,#537,.T.);
#559 = ORIENTED_EDGE('',*,*,#560,.T.);
#560 = EDGE_CURVE('',#530,#460,#561,.T.);
#561 = LINE('',#562,#563);
#562 = CARTESIAN_POINT('',(1.02,0.25,-5.));
#563 = VECTOR('',#564,1.);
#564 = DIRECTION('',(0.,-1.,0.));
#565 = ORIENTED_EDGE('',*,*,#457,.F.);
#566 = ORIENTED_EDGE('',*,*,#567,.F.);
#567 = EDGE_CURVE('',#538,#458,#568,.T.);
#568 = LINE('',#569,#570);
#569 = CARTESIAN_POINT('',(1.02,0.25,0.));
#570 = VECTOR('',#571,1.);
#571 = DIRECTION('',(0.,-1.,0.));
#572 = PLANE('',#573);
#573 = AXIS2_PLACEMENT_3D('',#574,#575,#576);
#574 = CARTESIAN_POINT('',(1.02,0.25,0.));
#575 = DIRECTION('',(-1.,0.,0.));
#576 = DIRECTION('',(0.,-1.,0.));
#577 = ADVANCED_FACE('',(#578),#584,.T.);
#578 = FACE_BOUND('',#579,.T.);
#579 = EDGE_LOOP('',(#580,#581,#582,#583));
#580 = ORIENTED_EDGE('',*,*,#483,.T.);
#581 = ORIENTED_EDGE('',*,*,#514,.T.);
#582 = ORIENTED_EDGE('',*,*,#545,.T.);
#583 = ORIENTED_EDGE('',*,*,#567,.T.);
#584 = PLANE('',#585);
#585 = AXIS2_PLACEMENT_3D('',#586,#587,#588);
#586 = CARTESIAN_POINT('',(1.27,0.,0.));
#587 = DIRECTION('',(0.,0.,1.));
#588 = DIRECTION('',(1.,0.,0.));
#589 = ADVANCED_FACE('',(#590),#596,.F.);
#590 = FACE_BOUND('',#591,.F.);
#591 = EDGE_LOOP('',(#592,#593,#594,#595));
#592 = ORIENTED_EDGE('',*,*,#467,.T.);
#593 = ORIENTED_EDGE('',*,*,#498,.T.);
#594 = ORIENTED_EDGE('',*,*,#529,.T.);
#595 = ORIENTED_EDGE('',*,*,#560,.T.);
#596 = PLANE('',#597);
#597 = AXIS2_PLACEMENT_3D('',#598,#599,#600);
#598 = CARTESIAN_POINT('',(1.27,0.,-5.));
#599 = DIRECTION('',(0.,0.,1.));
#600 = DIRECTION('',(1.,0.,0.));
#601 = ( GEOMETRIC_REPRESENTATION_CONTEXT(3) 
GLOBAL_UNCERTAINTY_ASSIGNED_CONTEXT((#605)) GLOBAL_UNIT_ASSIGNED_CONTEXT
((#602,#603,#604)) REPRESENTATION_CONTEXT('Context #1',
  '3D Context with UNIT and UNCERTAINTY') );
#602 = ( LENGTH_UNIT() NAMED_UNIT(*) SI_UNIT(.MILLI.,.METRE.) );
#603 = ( NAMED_UNIT(*) PLANE_ANGLE_UNIT() SI_UNIT($,.RADIAN.) );
#604 = ( NAMED_UNIT(*) SI_UNIT($,.STERADIAN.) SOLID_ANGLE_UNIT() );
#605 = UNCERTAINTY_MEASURE_WITH_UNIT(LENGTH_MEASURE(1.E-07),#602,
  'distance_accuracy_value','confusion accuracy');
#606 = CONTEXT_DEPENDENT_SHAPE_REPRESENTATION(#607,#609);
#607 = ( REPRESENTATION_RELATIONSHIP('','',#450,#250) 
REPRESENTATION_RELATIONSHIP_WITH_TRANSFORMATION(#608) 
SHAPE_REPRESENTATION_RELATIONSHIP() );
#608 = ITEM_DEFINED_TRANSFORMATION('','',#11,#255);
#609 = PRODUCT_DEFINITION_SHAPE('Placement','Placement of an item',#610
  );
#610 = NEXT_ASSEMBLY_USAGE_OCCURRENCE('7','PinB','',#245,#445,$);
#611 = PRODUCT_RELATED_PRODUCT_CATEGORY('part',$,(#447));
#612 = SHAPE_DEFINITION_REPRESENTATION(#613,#619);
#613 = PRODUCT_DEFINITION_SHAPE('','',#614);
#614 = PRODUCT_DEFINITION('design','',#615,#618);
#615 = PRODUCT_DEFINITION_FORMATION('','',#616);
#616 = PRODUCT('StandOff','StandOff','',(#617));
#617 = PRODUCT_CONTEXT('',#2,'mechanical');
#618 = PRODUCT_DEFINITION_CONTEXT('part definition',#2,'design');
#619 = SHAPE_REPRESENTATION('',(#11,#620,#770),#920);
#620 = MANIFOLD_SOLID_BREP('',#621);
#621 = CLOSED_SHELL('',(#622,#662,#693,#724,#746,#758));
#622 = ADVANCED_FACE('',(#623),#657,.F.);
#623 = FACE_BOUND('',#624,.F.);
#624 = EDGE_LOOP('',(#625,#635,#643,#651));
#625 = ORIENTED_EDGE('',*,*,#626,.T.);
#626 = EDGE_CURVE('',#627,#629,#631,.T.);
#627 = VERTEX_POINT('',#628);
#628 = CARTESIAN_POINT('',(0.52,0.25,0.));
#629 = VERTEX_POINT('',#630);
#630 = CARTESIAN_POINT('',(0.52,0.25,0.15));
#631 = LINE('',#632,#633);
#632 = CARTESIAN_POINT('',(0.52,0.25,0.));
#633 = VECTOR('',#634,1.);
#634 = DIRECTION('',(0.,0.,1.));
#635 = ORIENTED_EDGE('',*,*,#636,.T.);
#636 = EDGE_CURVE('',#629,#637,#639,.T.);
#637 = VERTEX_POINT('',#638);
#638 = CARTESIAN_POINT('',(0.52,-0.25,0.15));
#639 = LINE('',#640,#641);
#640 = CARTESIAN_POINT('',(0.52,0.25,0.15));
#641 = VECTOR('',#642,1.);
#642 = DIRECTION('',(0.,-1.,0.));
#643 = ORIENTED_EDGE('',*,*,#644,.F.);
#644 = EDGE_CURVE('',#645,#637,#647,.T.);
#645 = VERTEX_POINT('',#646);
#646 = CARTESIAN_POINT('',(0.52,-0.25,0.));
#647 = LINE('',#648,#649);
#648 = CARTESIAN_POINT('',(0.52,-0.25,0.));
#649 = VECTOR('',#650,1.);
#650 = DIRECTION('',(0.,0.,1.));
#651 = ORIENTED_EDGE('',*,*,#652,.F.);
#652 = EDGE_CURVE('',#627,#645,#653,.T.);
#653 = LINE('',#654,#655);
#654 = CARTESIAN_POINT('',(0.52,0.25,0.));
#655 = VECTOR('',#656,1.);
#656 = DIRECTION('',(0.,-1.,0.));
#657 = PLANE('',#658);
#658 = AXIS2_PLACEMENT_3D('',#659,#660,#661);
#659 = CARTESIAN_POINT('',(0.52,0.25,0.));
#660 = DIRECTION('',(1.,0.,-0.));
#661 = DIRECTION('',(0.,-1.,0.));
#662 = ADVANCED_FACE('',(#663),#688,.F.);
#663 = FACE_BOUND('',#664,.F.);
#664 = EDGE_LOOP('',(#665,#666,#674,#682));
#665 = ORIENTED_EDGE('',*,*,#644,.T.);
#666 = ORIENTED_EDGE('',*,*,#667,.T.);
#667 = EDGE_CURVE('',#637,#668,#670,.T.);
#668 = VERTEX_POINT('',#669);
#669 = CARTESIAN_POINT('',(1.52,-0.25,0.15));
#670 = LINE('',#671,#672);
#671 = CARTESIAN_POINT('',(0.52,-0.25,0.15));
#672 = VECTOR('',#673,1.);
#673 = DIRECTION('',(1.,0.,0.));
#674 = ORIENTED_EDGE('',*,*,#675,.F.);
#675 = EDGE_CURVE('',#676,#668,#678,.T.);
#676 = VERTEX_POINT('',#677);
#677 = CARTESIAN_POINT('',(1.52,-0.25,0.));
#678 = LINE('',#679,#680);
#679 = CARTESIAN_POINT('',(1.52,-0.25,0.));
#680 = VECTOR('',#681,1.);
#681 = DIRECTION('',(0.,0.,1.));
#682 = ORIENTED_EDGE('',*,*,#683,.F.);
#683 = EDGE_CURVE('',#645,#676,#684,.T.);
#684 = LINE('',#685,#686);
#685 = CARTESIAN_POINT('',(0.52,-0.25,0.));
#686 = VECTOR('',#687,1.);
#687 = DIRECTION('',(1.,0.,0.));
#688 = PLANE('',#689);
#689 = AXIS2_PLACEMENT_3D('',#690,#691,#692);
#690 = CARTESIAN_POINT('',(0.52,-0.25,0.));
#691 = DIRECTION('',(0.,1.,0.));
#692 = DIRECTION('',(1.,0.,0.));
#693 = ADVANCED_FACE('',(#694),#719,.F.);
#694 = FACE_BOUND('',#695,.F.);
#695 = EDGE_LOOP('',(#696,#697,#705,#713));
#696 = ORIENTED_EDGE('',*,*,#675,.T.);
#697 = ORIENTED_EDGE('',*,*,#698,.T.);
#698 = EDGE_CURVE('',#668,#699,#701,.T.);
#699 = VERTEX_POINT('',#700);
#700 = CARTESIAN_POINT('',(1.52,0.25,0.15));
#701 = LINE('',#702,#703);
#702 = CARTESIAN_POINT('',(1.52,-0.25,0.15));
#703 = VECTOR('',#704,1.);
#704 = DIRECTION('',(0.,1.,0.));
#705 = ORIENTED_EDGE('',*,*,#706,.F.);
#706 = EDGE_CURVE('',#707,#699,#709,.T.);
#707 = VERTEX_POINT('',#708);
#708 = CARTESIAN_POINT('',(1.52,0.25,0.));
#709 = LINE('',#710,#711);
#710 = CARTESIAN_POINT('',(1.52,0.25,0.));
#711 = VECTOR('',#712,1.);
#712 = DIRECTION('',(0.,0.,1.));
#713 = ORIENTED_EDGE('',*,*,#714,.F.);
#714 = EDGE_CURVE('',#676,#707,#715,.T.);
#715 = LINE('',#716,#717);
#716 = CARTESIAN_POINT('',(1.52,-0.25,0.));
#717 = VECTOR('',#718,1.);
#718 = DIRECTION('',(0.,1.,0.));
#719 = PLANE('',#720);
#720 = AXIS2_PLACEMENT_3D('',#721,#722,#723);
#721 = CARTESIAN_POINT('',(1.52,-0.25,0.));
#722 = DIRECTION('',(-1.,0.,0.));
#723 = DIRECTION('',(0.,1.,0.));
#724 = ADVANCED_FACE('',(#725),#741,.F.);
#725 = FACE_BOUND('',#726,.F.);
#726 = EDGE_LOOP('',(#727,#728,#734,#735));
#727 = ORIENTED_EDGE('',*,*,#706,.T.);
#728 = ORIENTED_EDGE('',*,*,#729,.T.);
#729 = EDGE_CURVE('',#699,#629,#730,.T.);
#730 = LINE('',#731,#732);
#731 = CARTESIAN_POINT('',(1.52,0.25,0.15));
#732 = VECTOR('',#733,1.);
#733 = DIRECTION('',(-1.,0.,0.));
#734 = ORIENTED_EDGE('',*,*,#626,.F.);
#735 = ORIENTED_EDGE('',*,*,#736,.F.);
#736 = EDGE_CURVE('',#707,#627,#737,.T.);
#737 = LINE('',#738,#739);
#738 = CARTESIAN_POINT('',(1.52,0.25,0.));
#739 = VECTOR('',#740,1.);
#740 = DIRECTION('',(-1.,0.,0.));
#741 = PLANE('',#742);
#742 = AXIS2_PLACEMENT_3D('',#743,#744,#745);
#743 = CARTESIAN_POINT('',(1.52,0.25,0.));
#744 = DIRECTION('',(0.,-1.,0.));
#745 = DIRECTION('',(-1.,0.,0.));
#746 = ADVANCED_FACE('',(#747),#753,.F.);
#747 = FACE_BOUND('',#748,.F.);
#748 = EDGE_LOOP('',(#749,#750,#751,#752));
#749 = ORIENTED_EDGE('',*,*,#652,.T.);
#750 = ORIENTED_EDGE('',*,*,#683,.T.);
#751 = ORIENTED_EDGE('',*,*,#714,.T.);
#752 = ORIENTED_EDGE('',*,*,#736,.T.);
#753 = PLANE('',#754);
#754 = AXIS2_PLACEMENT_3D('',#755,#756,#757);
#755 = CARTESIAN_POINT('',(0.,0.,0.));
#756 = DIRECTION('',(0.,0.,1.));
#757 = DIRECTION('',(1.,0.,-0.));
#758 = ADVANCED_FACE('',(#759),#765,.T.);
#759 = FACE_BOUND('',#760,.T.);
#760 = EDGE_LOOP('',(#761,#762,#763,#764));
#761 = ORIENTED_EDGE('',*,*,#636,.T.);
#762 = ORIENTED_EDGE('',*,*,#667,.T.);
#763 = ORIENTED_EDGE('',*,*,#698,.T.);
#764 = ORIENTED_EDGE('',*,*,#729,.T.);
#765 = PLANE('',#766);
#766 = AXIS2_PLACEMENT_3D('',#767,#768,#769);
#767 = CARTESIAN_POINT('',(0.,0.,0.15));
#768 = DIRECTION('',(0.,0.,1.));
#769 = DIRECTION('',(1.,0.,0.));
#770 = MANIFOLD_SOLID_BREP('',#771);
#771 = CLOSED_SHELL('',(#772,#812,#843,#874,#896,#908));
#772 = ADVANCED_FACE('',(#773),#807,.F.);
#773 = FACE_BOUND('',#774,.F.);
#774 = EDGE_LOOP('',(#775,#785,#793,#801));
#775 = ORIENTED_EDGE('',*,*,#776,.T.);
#776 = EDGE_CURVE('',#777,#779,#781,.T.);
#777 = VERTEX_POINT('',#778);
#778 = CARTESIAN_POINT('',(-1.52,0.25,0.));
#779 = VERTEX_POINT('',#780);
#780 = CARTESIAN_POINT('',(-1.52,0.25,0.15));
#781 = LINE('',#782,#783);
#782 = CARTESIAN_POINT('',(-1.52,0.25,0.));
#783 = VECTOR('',#784,1.);
#784 = DIRECTION('',(0.,0.,1.));
#785 = ORIENTED_EDGE('',*,*,#786,.T.);
#786 = EDGE_CURVE('',#779,#787,#789,.T.);
#787 = VERTEX_POINT('',#788);
#788 = CARTESIAN_POINT('',(-1.52,-0.25,0.15));
#789 = LINE('',#790,#791);
#790 = CARTESIAN_POINT('',(-1.52,0.25,0.15));
#791 = VECTOR('',#792,1.);
#792 = DIRECTION('',(0.,-1.,0.));
#793 = ORIENTED_EDGE('',*,*,#794,.F.);
#794 = EDGE_CURVE('',#795,#787,#797,.T.);
#795 = VERTEX_POINT('',#796);
#796 = CARTESIAN_POINT('',(-1.52,-0.25,0.));
#797 = LINE('',#798,#799);
#798 = CARTESIAN_POINT('',(-1.52,-0.25,0.));
#799 = VECTOR('',#800,1.);
#800 = DIRECTION('',(0.,0.,1.));
#801 = ORIENTED_EDGE('',*,*,#802,.F.);
#802 = EDGE_CURVE('',#777,#795,#803,.T.);
#803 = LINE('',#804,#805);
#804 = CARTESIAN_POINT('',(-1.52,0.25,0.));
#805 = VECTOR('',#806,1.);
#806 = DIRECTION('',(0.,-1.,0.));
#807 = PLANE('',#808);
#808 = AXIS2_PLACEMENT_3D('',#809,#810,#811);
#809 = CARTESIAN_POINT('',(-1.52,0.25,0.));
#810 = DIRECTION('',(1.,0.,-0.));
#811 = DIRECTION('',(0.,-1.,0.));
#812 = ADVANCED_FACE('',(#813),#838,.F.);
#813 = FACE_BOUND('',#814,.F.);
#814 = EDGE_LOOP('',(#815,#816,#824,#832));
#815 = ORIENTED_EDGE('',*,*,#794,.T.);
#816 = ORIENTED_EDGE('',*,*,#817,.T.);
#817 = EDGE_CURVE('',#787,#818,#820,.T.);
#818 = VERTEX_POINT('',#819);
#819 = CARTESIAN_POINT('',(-0.52,-0.25,0.15));
#820 = LINE('',#821,#822);
#821 = CARTESIAN_POINT('',(-1.52,-0.25,0.15));
#822 = VECTOR('',#823,1.);
#823 = DIRECTION('',(1.,0.,0.));
#824 = ORIENTED_EDGE('',*,*,#825,.F.);
#825 = EDGE_CURVE('',#826,#818,#828,.T.);
#826 = VERTEX_POINT('',#827);
#827 = CARTESIAN_POINT('',(-0.52,-0.25,0.));
#828 = LINE('',#829,#830);
#829 = CARTESIAN_POINT('',(-0.52,-0.25,0.));
#830 = VECTOR('',#831,1.);
#831 = DIRECTION('',(0.,0.,1.));
#832 = ORIENTED_EDGE('',*,*,#833,.F.);
#833 = EDGE_CURVE('',#795,#826,#834,.T.);
#834 = LINE('',#835,#836);
#835 = CARTESIAN_POINT('',(-1.52,-0.25,0.));
#836 = VECTOR('',#837,1.);
#837 = DIRECTION('',(1.,0.,0.));
#838 = PLANE('',#839);
#839 = AXIS2_PLACEMENT_3D('',#840,#841,#842);
#840 = CARTESIAN_POINT('',(-1.52,-0.25,0.));
#841 = DIRECTION('',(0.,1.,0.));
#842 = DIRECTION('',(1.,0.,0.));
#843 = ADVANCED_FACE('',(#844),#869,.F.);
#844 = FACE_BOUND('',#845,.F.);
#845 = EDGE_LOOP('',(#846,#847,#855,#863));
#846 = ORIENTED_EDGE('',*,*,#825,.T.);
#847 = ORIENTED_EDGE('',*,*,#848,.T.);
#848 = EDGE_CURVE('',#818,#849,#851,.T.);
#849 = VERTEX_POINT('',#850);
#850 = CARTESIAN_POINT('',(-0.52,0.25,0.15));
#851 = LINE('',#852,#853);
#852 = CARTESIAN_POINT('',(-0.52,-0.25,0.15));
#853 = VECTOR('',#854,1.);
#854 = DIRECTION('',(0.,1.,0.));
#855 = ORIENTED_EDGE('',*,*,#856,.F.);
#856 = EDGE_CURVE('',#857,#849,#859,.T.);
#857 = VERTEX_POINT('',#858);
#858 = CARTESIAN_POINT('',(-0.52,0.25,0.));
#859 = LINE('',#860,#861);
#860 = CARTESIAN_POINT('',(-0.52,0.25,0.));
#861 = VECTOR('',#862,1.);
#862 = DIRECTION('',(0.,0.,1.));
#863 = ORIENTED_EDGE('',*,*,#864,.F.);
#864 = EDGE_CURVE('',#826,#857,#865,.T.);
#865 = LINE('',#866,#867);
#866 = CARTESIAN_POINT('',(-0.52,-0.25,0.));
#867 = VECTOR('',#868,1.);
#868 = DIRECTION('',(0.,1.,0.));
#869 = PLANE('',#870);
#870 = AXIS2_PLACEMENT_3D('',#871,#872,#873);
#871 = CARTESIAN_POINT('',(-0.52,-0.25,0.));
#872 = DIRECTION('',(-1.,0.,0.));
#873 = DIRECTION('',(0.,1.,0.));
#874 = ADVANCED_FACE('',(#875),#891,.F.);
#875 = FACE_BOUND('',#876,.F.);
#876 = EDGE_LOOP('',(#877,#878,#884,#885));
#877 = ORIENTED_EDGE('',*,*,#856,.T.);
#878 = ORIENTED_EDGE('',*,*,#879,.T.);
#879 = EDGE_CURVE('',#849,#779,#880,.T.);
#880 = LINE('',#881,#882);
#881 = CARTESIAN_POINT('',(-0.52,0.25,0.15));
#882 = VECTOR('',#883,1.);
#883 = DIRECTION('',(-1.,0.,0.));
#884 = ORIENTED_EDGE('',*,*,#776,.F.);
#885 = ORIENTED_EDGE('',*,*,#886,.F.);
#886 = EDGE_CURVE('',#857,#777,#887,.T.);
#887 = LINE('',#888,#889);
#888 = CARTESIAN_POINT('',(-0.52,0.25,0.));
#889 = VECTOR('',#890,1.);
#890 = DIRECTION('',(-1.,0.,0.));
#891 = PLANE('',#892);
#892 = AXIS2_PLACEMENT_3D('',#893,#894,#895);
#893 = CARTESIAN_POINT('',(-0.52,0.25,0.));
#894 = DIRECTION('',(0.,-1.,0.));
#895 = DIRECTION('',(-1.,0.,0.));
#896 = ADVANCED_FACE('',(#897),#903,.F.);
#897 = FACE_BOUND('',#898,.F.);
#898 = EDGE_LOOP('',(#899,#900,#901,#902));
#899 = ORIENTED_EDGE('',*,*,#802,.T.);
#900 = ORIENTED_EDGE('',*,*,#833,.T.);
#901 = ORIENTED_EDGE('',*,*,#864,.T.);
#902 = ORIENTED_EDGE('',*,*,#886,.T.);
#903 = PLANE('',#904);
#904 = AXIS2_PLACEMENT_3D('',#905,#906,#907);
#905 = CARTESIAN_POINT('',(0.,0.,0.));
#906 = DIRECTION('',(0.,0.,1.));
#907 = DIRECTION('',(1.,0.,-0.));
#908 = ADVANCED_FACE('',(#909),#915,.T.);
#909 = FACE_BOUND('',#910,.T.);
#910 = EDGE_LOOP('',(#911,#912,#913,#914));
#911 = ORIENTED_EDGE('',*,*,#786,.T.);
#912 = ORIENTED_EDGE('',*,*,#817,.T.);
#913 = ORIENTED_EDGE('',*,*,#848,.T.);
#914 = ORIENTED_EDGE('',*,*,#879,.T.);
#915 = PLANE('',#916);
#916 = AXIS2_PLACEMENT_3D('',#917,#918,#919);
#917 = CARTESIAN_POINT('',(0.,0.,0.15));
#918 = DIRECTION('',(0.,0.,1.));
#919 = DIRECTION('',(1.,0.,0.));
#920 = ( GEOMETRIC_REPRESENTATION_CONTEXT(3) 
GLOBAL_UNCERTAINTY_ASSIGNED_CONTEXT((#924)) GLOBAL_UNIT_ASSIGNED_CONTEXT
((#921,#922,#923)) REPRESENTATION_CONTEXT('Context #1',
  '3D Context with UNIT and UNCERTAINTY') );
#921 = ( LENGTH_UNIT() NAMED_UNIT(*) SI_UNIT(.MILLI.,.METRE.) );
#922 = ( NAMED_UNIT(*) PLANE_ANGLE_UNIT() SI_UNIT($,.RADIAN.) );
#923 = ( NAMED_UNIT(*) SI_UNIT($,.STERADIAN.) SOLID_ANGLE_UNIT() );
#924 = UNCERTAINTY_MEASURE_WITH_UNIT(LENGTH_MEASURE(1.E-07),#921,
  'distance_accuracy_value','confusion accuracy');
#925 = CONTEXT_DEPENDENT_SHAPE_REPRESENTATION(#926,#928);
#926 = ( REPRESENTATION_RELATIONSHIP('','',#619,#250) 
REPRESENTATION_RELATIONSHIP_WITH_TRANSFORMATION(#927) 
SHAPE_REPRESENTATION_RELATIONSHIP() );
#927 = ITEM_DEFINED_TRANSFORMATION('','',#11,#259);
#928 = PRODUCT_DEFINITION_SHAPE('Placement','Placement of an item',#929
  );
#929 = NEXT_ASSEMBLY_USAGE_OCCURRENCE('8','StandOff','',#245,#614,$);
#930 = PRODUCT_RELATED_PRODUCT_CATEGORY('part',$,(#616));
#931 = MECHANICAL_DESIGN_GEOMETRIC_PRESENTATION_REPRESENTATION('',(#932)
  ,#601);
#932 = STYLED_ITEM('color',(#933),#451);
#933 = PRESENTATION_STYLE_ASSIGNMENT((#934,#940));
#934 = SURFACE_STYLE_USAGE(.BOTH.,#935);
#935 = SURFACE_SIDE_STYLE('',(#936));
#936 = SURFACE_STYLE_FILL_AREA(#937);
#937 = FILL_AREA_STYLE('',(#938));
#938 = FILL_AREA_STYLE_COLOUR('',#939);
#939 = COLOUR_RGB('',0.800000010877,0.800000010877,0.901960800373);
#940 = CURVE_STYLE('',#941,POSITIVE_LENGTH_MEASURE(0.1),#942);
#941 = DRAUGHTING_PRE_DEFINED_CURVE_FONT('continuous');
#942 = COLOUR_RGB('',9.803921802644E-02,9.803921802644E-02,
  9.803921802644E-02);
#943 = MECHANICAL_DESIGN_GEOMETRIC_PRESENTATION_REPRESENTATION('',(#944)
  ,#232);
#944 = STYLED_ITEM('color',(#945),#146);
#945 = PRESENTATION_STYLE_ASSIGNMENT((#946,#952));
#946 = SURFACE_STYLE_USAGE(.BOTH.,#947);
#947 = SURFACE_SIDE_STYLE('',(#948));
#948 = SURFACE_STYLE_FILL_AREA(#949);
#949 = FILL_AREA_STYLE('',(#950));
#950 = FILL_AREA_STYLE_COLOUR('',#951);
#951 = DRAUGHTING_PRE_DEFINED_COLOUR('white');
#952 = CURVE_STYLE('',#953,POSITIVE_LENGTH_MEASURE(0.1),#942);
#953 = DRAUGHTING_PRE_DEFINED_CURVE_FONT('continuous');
#954 = MECHANICAL_DESIGN_GEOMETRIC_PRESENTATION_REPRESENTATION('',(#955)
  ,#127);
#955 = STYLED_ITEM('color',(#956),#64);
#956 = PRESENTATION_STYLE_ASSIGNMENT((#957,#962));
#957 = SURFACE_STYLE_USAGE(.BOTH.,#958);
#958 = SURFACE_SIDE_STYLE('',(#959));
#959 = SURFACE_STYLE_FILL_AREA(#960);
#960 = FILL_AREA_STYLE('',(#961));
#961 = FILL_AREA_STYLE_COLOUR('',#951);
#962 = CURVE_STYLE('',#963,POSITIVE_LENGTH_MEASURE(0.1),#942);
#963 = DRAUGHTING_PRE_DEFINED_CURVE_FONT('continuous');
#964 = MECHANICAL_DESIGN_GEOMETRIC_PRESENTATION_REPRESENTATION('',(#965)
  ,#432);
#965 = STYLED_ITEM('color',(#966),#282);
#966 = PRESENTATION_STYLE_ASSIGNMENT((#967,#972));
#967 = SURFACE_STYLE_USAGE(.BOTH.,#968);
#968 = SURFACE_SIDE_STYLE('',(#969));
#969 = SURFACE_STYLE_FILL_AREA(#970);
#970 = FILL_AREA_STYLE('',(#971));
#971 = FILL_AREA_STYLE_COLOUR('',#939);
#972 = CURVE_STYLE('',#973,POSITIVE_LENGTH_MEASURE(0.1),#942);
#973 = DRAUGHTING_PRE_DEFINED_CURVE_FONT('continuous');
#974 = MECHANICAL_DESIGN_GEOMETRIC_PRESENTATION_REPRESENTATION('',(#975,
    #985),#920);
#975 = STYLED_ITEM('color',(#976),#620);
#976 = PRESENTATION_STYLE_ASSIGNMENT((#977,#982));
#977 = SURFACE_STYLE_USAGE(.BOTH.,#978);
#978 = SURFACE_SIDE_STYLE('',(#979));
#979 = SURFACE_STYLE_FILL_AREA(#980);
#980 = FILL_AREA_STYLE('',(#981));
#981 = FILL_AREA_STYLE_COLOUR('',#939);
#982 = CURVE_STYLE('',#983,POSITIVE_LENGTH_MEASURE(0.1),#984);
#983 = DRAUGHTING_PRE_DEFINED_CURVE_FONT('continuous');
#984 = DRAUGHTING_PRE_DEFINED_COLOUR('black');
#985 = STYLED_ITEM('color',(#986),#770);
#986 = PRESENTATION_STYLE_ASSIGNMENT((#987,#992));
#987 = SURFACE_STYLE_USAGE(.BOTH.,#988);
#988 = SURFACE_SIDE_STYLE('',(#989));
#989 = SURFACE_STYLE_FILL_AREA(#990);
#990 = FILL_AREA_STYLE('',(#991));
#991 = FILL_AREA_STYLE_COLOUR('',#939);
#992 = CURVE_STYLE('',#993,POSITIVE_LENGTH_MEASURE(0.1),#984);
#993 = DRAUGHTING_PRE_DEFINED_CURVE_FONT('continuous');
ENDSEC;
END-ISO-10303-21;
