ISO-10303-21;
HEADER;
FILE_DESCRIPTION(('FreeCAD Model'),'2;1');
FILE_NAME('Open CASCADE Shape Model','2026-05-28T14:34:57',(''),(''),
  'Open CASCADE STEP processor 7.8','FreeCAD','Unknown');
FILE_SCHEMA(('AUTOMOTIVE_DESIGN { 1 0 10303 214 1 1 1 1 }'));
ENDSEC;
DATA;
#1 = APPLICATION_PROTOCOL_DEFINITION('international standard',
  'automotive_design',2000,#2);
#2 = APPLICATION_CONTEXT(
  'core data for automotive mechanical design processes');
#3 = SHAPE_DEFINITION_REPRESENTATION(#4,#10);
#4 = PRODUCT_DEFINITION_SHAPE('','',#5);
#5 = PRODUCT_DEFINITION('design','',#6,#9);
#6 = PRODUCT_DEFINITION_FORMATION('','',#7);
#7 = PRODUCT('Unnamed','Unnamed','',(#8));
#8 = PRODUCT_CONTEXT('',#2,'mechanical');
#9 = PRODUCT_DEFINITION_CONTEXT('part definition',#2,'design');
#10 = SHAPE_REPRESENTATION('',(#11,#15,#19),#23);
#11 = AXIS2_PLACEMENT_3D('',#12,#13,#14);
#12 = CARTESIAN_POINT('',(0.,0.,0.));
#13 = DIRECTION('',(0.,0.,1.));
#14 = DIRECTION('',(1.,0.,-0.));
#15 = AXIS2_PLACEMENT_3D('',#16,#17,#18);
#16 = CARTESIAN_POINT('',(-1.25,0.,2.28));
#17 = DIRECTION('',(0.,0.,1.));
#18 = DIRECTION('',(1.,0.,0.));
#19 = AXIS2_PLACEMENT_3D('',#20,#21,#22);
#20 = CARTESIAN_POINT('',(-1.2650226515,0.,0.));
#21 = DIRECTION('',(0.,0.,1.));
#22 = DIRECTION('',(1.,0.,0.));
#23 = ( GEOMETRIC_REPRESENTATION_CONTEXT(3) 
GLOBAL_UNCERTAINTY_ASSIGNED_CONTEXT((#27)) GLOBAL_UNIT_ASSIGNED_CONTEXT(
(#24,#25,#26)) REPRESENTATION_CONTEXT('Context #1',
  '3D Context with UNIT and UNCERTAINTY') );
#24 = ( LENGTH_UNIT() NAMED_UNIT(*) SI_UNIT(.MILLI.,.METRE.) );
#25 = ( NAMED_UNIT(*) PLANE_ANGLE_UNIT() SI_UNIT($,.RADIAN.) );
#26 = ( NAMED_UNIT(*) SI_UNIT($,.STERADIAN.) SOLID_ANGLE_UNIT() );
#27 = UNCERTAINTY_MEASURE_WITH_UNIT(LENGTH_MEASURE(1.E-07),#24,
  'distance_accuracy_value','confusion accuracy');
#28 = PRODUCT_RELATED_PRODUCT_CATEGORY('part',$,(#7));
#29 = SHAPE_DEFINITION_REPRESENTATION(#30,#36);
#30 = PRODUCT_DEFINITION_SHAPE('','',#31);
#31 = PRODUCT_DEFINITION('design','',#32,#35);
#32 = PRODUCT_DEFINITION_FORMATION('','',#33);
#33 = PRODUCT('Extrusion','Extrusion','',(#34));
#34 = PRODUCT_CONTEXT('',#2,'mechanical');
#35 = PRODUCT_DEFINITION_CONTEXT('part definition',#2,'design');
#36 = ADVANCED_BREP_SHAPE_REPRESENTATION('',(#11,#37),#125);
#37 = MANIFOLD_SOLID_BREP('',#38);
#38 = CLOSED_SHELL('',(#39,#81,#105,#115));
#39 = ADVANCED_FACE('',(#40),#76,.T.);
#40 = FACE_BOUND('',#41,.T.);
#41 = EDGE_LOOP('',(#42,#53,#61,#70));
#42 = ORIENTED_EDGE('',*,*,#43,.T.);
#43 = EDGE_CURVE('',#44,#46,#48,.T.);
#44 = VERTEX_POINT('',#45);
#45 = CARTESIAN_POINT('',(-0.21081746,1.109980000003E-03,3.4249993));
#46 = VERTEX_POINT('',#47);
#47 = CARTESIAN_POINT('',(2.73918426,1.109980000003E-03,3.4249993));
#48 = CIRCLE('',#49,1.47500086);
#49 = AXIS2_PLACEMENT_3D('',#50,#51,#52);
#50 = CARTESIAN_POINT('',(1.2641834,1.109980000003E-03,3.4249993));
#51 = DIRECTION('',(0.,0.,-1.));
#52 = DIRECTION('',(-1.,0.,0.));
#53 = ORIENTED_EDGE('',*,*,#54,.T.);
#54 = EDGE_CURVE('',#46,#55,#57,.T.);
#55 = VERTEX_POINT('',#56);
#56 = CARTESIAN_POINT('',(2.73918426,1.109980000003E-03,-1.1750007));
#57 = LINE('',#58,#59);
#58 = CARTESIAN_POINT('',(2.73918426,1.109980000003E-03,3.4249993));
#59 = VECTOR('',#60,1.);
#60 = DIRECTION('',(0.,0.,-1.));
#61 = ORIENTED_EDGE('',*,*,#62,.F.);
#62 = EDGE_CURVE('',#63,#55,#65,.T.);
#63 = VERTEX_POINT('',#64);
#64 = CARTESIAN_POINT('',(-0.21081746,1.109980000003E-03,-1.1750007));
#65 = CIRCLE('',#66,1.47500086);
#66 = AXIS2_PLACEMENT_3D('',#67,#68,#69);
#67 = CARTESIAN_POINT('',(1.2641834,1.109980000003E-03,-1.1750007));
#68 = DIRECTION('',(0.,0.,-1.));
#69 = DIRECTION('',(-1.,0.,0.));
#70 = ORIENTED_EDGE('',*,*,#71,.F.);
#71 = EDGE_CURVE('',#44,#63,#72,.T.);
#72 = LINE('',#73,#74);
#73 = CARTESIAN_POINT('',(-0.21081746,1.109980000003E-03,3.4249993));
#74 = VECTOR('',#75,1.);
#75 = DIRECTION('',(0.,0.,-1.));
#76 = CYLINDRICAL_SURFACE('',#77,1.47500086);
#77 = AXIS2_PLACEMENT_3D('',#78,#79,#80);
#78 = CARTESIAN_POINT('',(1.2641834,1.109980000003E-03,3.4249993));
#79 = DIRECTION('',(-0.,-0.,1.));
#80 = DIRECTION('',(-1.,0.,0.));
#81 = ADVANCED_FACE('',(#82),#100,.T.);
#82 = FACE_BOUND('',#83,.T.);
#83 = EDGE_LOOP('',(#84,#91,#92,#99));
#84 = ORIENTED_EDGE('',*,*,#85,.T.);
#85 = EDGE_CURVE('',#46,#44,#86,.T.);
#86 = CIRCLE('',#87,1.47500086);
#87 = AXIS2_PLACEMENT_3D('',#88,#89,#90);
#88 = CARTESIAN_POINT('',(1.2641834,1.109980000003E-03,3.4249993));
#89 = DIRECTION('',(0.,0.,-1.));
#90 = DIRECTION('',(-1.,0.,0.));
#91 = ORIENTED_EDGE('',*,*,#71,.T.);
#92 = ORIENTED_EDGE('',*,*,#93,.F.);
#93 = EDGE_CURVE('',#55,#63,#94,.T.);
#94 = CIRCLE('',#95,1.47500086);
#95 = AXIS2_PLACEMENT_3D('',#96,#97,#98);
#96 = CARTESIAN_POINT('',(1.2641834,1.109980000003E-03,-1.1750007));
#97 = DIRECTION('',(0.,0.,-1.));
#98 = DIRECTION('',(-1.,0.,0.));
#99 = ORIENTED_EDGE('',*,*,#54,.F.);
#100 = CYLINDRICAL_SURFACE('',#101,1.47500086);
#101 = AXIS2_PLACEMENT_3D('',#102,#103,#104);
#102 = CARTESIAN_POINT('',(1.2641834,1.109980000003E-03,3.4249993));
#103 = DIRECTION('',(-0.,-0.,1.));
#104 = DIRECTION('',(-1.,0.,0.));
#105 = ADVANCED_FACE('',(#106),#110,.F.);
#106 = FACE_BOUND('',#107,.T.);
#107 = EDGE_LOOP('',(#108,#109));
#108 = ORIENTED_EDGE('',*,*,#43,.F.);
#109 = ORIENTED_EDGE('',*,*,#85,.F.);
#110 = PLANE('',#111);
#111 = AXIS2_PLACEMENT_3D('',#112,#113,#114);
#112 = CARTESIAN_POINT('',(2.73918426,1.109980000003E-03,3.4249993));
#113 = DIRECTION('',(0.,0.,-1.));
#114 = DIRECTION('',(-1.,0.,0.));
#115 = ADVANCED_FACE('',(#116),#120,.T.);
#116 = FACE_BOUND('',#117,.F.);
#117 = EDGE_LOOP('',(#118,#119));
#118 = ORIENTED_EDGE('',*,*,#62,.F.);
#119 = ORIENTED_EDGE('',*,*,#93,.F.);
#120 = PLANE('',#121);
#121 = AXIS2_PLACEMENT_3D('',#122,#123,#124);
#122 = CARTESIAN_POINT('',(2.73918426,1.109980000003E-03,-1.1750007));
#123 = DIRECTION('',(0.,0.,-1.));
#124 = DIRECTION('',(-1.,0.,0.));
#125 = ( GEOMETRIC_REPRESENTATION_CONTEXT(3) 
GLOBAL_UNCERTAINTY_ASSIGNED_CONTEXT((#129)) GLOBAL_UNIT_ASSIGNED_CONTEXT
((#126,#127,#128)) REPRESENTATION_CONTEXT('Context #1',
  '3D Context with UNIT and UNCERTAINTY') );
#126 = ( LENGTH_UNIT() NAMED_UNIT(*) SI_UNIT(.MILLI.,.METRE.) );
#127 = ( NAMED_UNIT(*) PLANE_ANGLE_UNIT() SI_UNIT($,.RADIAN.) );
#128 = ( NAMED_UNIT(*) SI_UNIT($,.STERADIAN.) SOLID_ANGLE_UNIT() );
#129 = UNCERTAINTY_MEASURE_WITH_UNIT(LENGTH_MEASURE(1.E-07),#126,
  'distance_accuracy_value','confusion accuracy');
#130 = CONTEXT_DEPENDENT_SHAPE_REPRESENTATION(#131,#133);
#131 = ( REPRESENTATION_RELATIONSHIP('','',#36,#10) 
REPRESENTATION_RELATIONSHIP_WITH_TRANSFORMATION(#132) 
SHAPE_REPRESENTATION_RELATIONSHIP() );
#132 = ITEM_DEFINED_TRANSFORMATION('','',#11,#15);
#133 = PRODUCT_DEFINITION_SHAPE('Placement','Placement of an item',#134
  );
#134 = NEXT_ASSEMBLY_USAGE_OCCURRENCE('26','Extrusion','',#5,#31,$);
#135 = PRODUCT_RELATED_PRODUCT_CATEGORY('part',$,(#33));
#136 = SHAPE_DEFINITION_REPRESENTATION(#137,#143);
#137 = PRODUCT_DEFINITION_SHAPE('','',#138);
#138 = PRODUCT_DEFINITION('design','',#139,#142);
#139 = PRODUCT_DEFINITION_FORMATION('','',#140);
#140 = PRODUCT('LED 3mm-PinLength2.8','LED 3mm-PinLength2.8','',(#141));
#141 = PRODUCT_CONTEXT('',#2,'mechanical');
#142 = PRODUCT_DEFINITION_CONTEXT('part definition',#2,'design');
#143 = SHAPE_REPRESENTATION('',(#11,#144),#148);
#144 = AXIS2_PLACEMENT_3D('',#145,#146,#147);
#145 = CARTESIAN_POINT('',(0.,0.,0.));
#146 = DIRECTION('',(0.,0.,1.));
#147 = DIRECTION('',(1.,0.,0.));
#148 = ( GEOMETRIC_REPRESENTATION_CONTEXT(3) 
GLOBAL_UNCERTAINTY_ASSIGNED_CONTEXT((#152)) GLOBAL_UNIT_ASSIGNED_CONTEXT
((#149,#150,#151)) REPRESENTATION_CONTEXT('Context #1',
  '3D Context with UNIT and UNCERTAINTY') );
#149 = ( LENGTH_UNIT() NAMED_UNIT(*) SI_UNIT(.MILLI.,.METRE.) );
#150 = ( NAMED_UNIT(*) PLANE_ANGLE_UNIT() SI_UNIT($,.RADIAN.) );
#151 = ( NAMED_UNIT(*) SI_UNIT($,.STERADIAN.) SOLID_ANGLE_UNIT() );
#152 = UNCERTAINTY_MEASURE_WITH_UNIT(LENGTH_MEASURE(1.E-07),#149,
  'distance_accuracy_value','confusion accuracy');
#153 = CONTEXT_DEPENDENT_SHAPE_REPRESENTATION(#154,#156);
#154 = ( REPRESENTATION_RELATIONSHIP('','',#143,#10) 
REPRESENTATION_RELATIONSHIP_WITH_TRANSFORMATION(#155) 
SHAPE_REPRESENTATION_RELATIONSHIP() );
#155 = ITEM_DEFINED_TRANSFORMATION('','',#11,#19);
#156 = PRODUCT_DEFINITION_SHAPE('Placement','Placement of an item',#157
  );
#157 = NEXT_ASSEMBLY_USAGE_OCCURRENCE('30','LED 3mm-PinLength2.8','',#5,
  #138,$);
#158 = PRODUCT_RELATED_PRODUCT_CATEGORY('part',$,(#140));
#159 = SHAPE_DEFINITION_REPRESENTATION(#160,#166);
#160 = PRODUCT_DEFINITION_SHAPE('','',#161);
#161 = PRODUCT_DEFINITION('design','',#162,#165);
#162 = PRODUCT_DEFINITION_FORMATION('','',#163);
#163 = PRODUCT('User Library-LED_d3-Pins002',
  'User Library-LED_d3-Pins002','',(#164));
#164 = PRODUCT_CONTEXT('',#2,'mechanical');
#165 = PRODUCT_DEFINITION_CONTEXT('part definition',#2,'design');
#166 = SHAPE_REPRESENTATION('',(#11,#167,#171),#175);
#167 = AXIS2_PLACEMENT_3D('',#168,#169,#170);
#168 = CARTESIAN_POINT('',(-5.E-02,0.,0.));
#169 = DIRECTION('',(0.,0.,1.));
#170 = DIRECTION('',(1.,0.,0.));
#171 = AXIS2_PLACEMENT_3D('',#172,#173,#174);
#172 = CARTESIAN_POINT('',(5.E-02,0.,0.));
#173 = DIRECTION('',(0.,0.,1.));
#174 = DIRECTION('',(1.,0.,0.));
#175 = ( GEOMETRIC_REPRESENTATION_CONTEXT(3) 
GLOBAL_UNCERTAINTY_ASSIGNED_CONTEXT((#179)) GLOBAL_UNIT_ASSIGNED_CONTEXT
((#176,#177,#178)) REPRESENTATION_CONTEXT('Context #1',
  '3D Context with UNIT and UNCERTAINTY') );
#176 = ( LENGTH_UNIT() NAMED_UNIT(*) SI_UNIT(.MILLI.,.METRE.) );
#177 = ( NAMED_UNIT(*) PLANE_ANGLE_UNIT() SI_UNIT($,.RADIAN.) );
#178 = ( NAMED_UNIT(*) SI_UNIT($,.STERADIAN.) SOLID_ANGLE_UNIT() );
#179 = UNCERTAINTY_MEASURE_WITH_UNIT(LENGTH_MEASURE(1.E-07),#176,
  'distance_accuracy_value','confusion accuracy');
#180 = CONTEXT_DEPENDENT_SHAPE_REPRESENTATION(#181,#183);
#181 = ( REPRESENTATION_RELATIONSHIP('','',#166,#143) 
REPRESENTATION_RELATIONSHIP_WITH_TRANSFORMATION(#182) 
SHAPE_REPRESENTATION_RELATIONSHIP() );
#182 = ITEM_DEFINED_TRANSFORMATION('','',#11,#144);
#183 = PRODUCT_DEFINITION_SHAPE('Placement','Placement of an item',#184
  );
#184 = NEXT_ASSEMBLY_USAGE_OCCURRENCE('29','User Library-LED_d3-Pins002'
  ,'',#138,#161,$);
#185 = PRODUCT_RELATED_PRODUCT_CATEGORY('part',$,(#163));
#186 = SHAPE_DEFINITION_REPRESENTATION(#187,#193);
#187 = PRODUCT_DEFINITION_SHAPE('','',#188);
#188 = PRODUCT_DEFINITION('design','',#189,#192);
#189 = PRODUCT_DEFINITION_FORMATION('','',#190);
#190 = PRODUCT('User Library-LED_d3-Pins','User Library-LED_d3-Pins','',
  (#191));
#191 = PRODUCT_CONTEXT('',#2,'mechanical');
#192 = PRODUCT_DEFINITION_CONTEXT('part definition',#2,'design');
#193 = ADVANCED_BREP_SHAPE_REPRESENTATION('',(#11,#194),#410);
#194 = MANIFOLD_SOLID_BREP('',#195);
#195 = CLOSED_SHELL('',(#196,#252,#283,#307,#331,#355,#379,#396));
#196 = ADVANCED_FACE('',(#197),#247,.T.);
#197 = FACE_BOUND('',#198,.T.);
#198 = EDGE_LOOP('',(#199,#209,#217,#225,#233,#241));
#199 = ORIENTED_EDGE('',*,*,#200,.T.);
#200 = EDGE_CURVE('',#201,#203,#205,.T.);
#201 = VERTEX_POINT('',#202);
#202 = CARTESIAN_POINT('',(1.7526,-0.254,1.10000034));
#203 = VERTEX_POINT('',#204);
#204 = CARTESIAN_POINT('',(1.7526,-0.254,0.2999994));
#205 = LINE('',#206,#207);
#206 = CARTESIAN_POINT('',(1.7526,-0.254,-2.50000008));
#207 = VECTOR('',#208,1.);
#208 = DIRECTION('',(0.,-0.,-1.));
#209 = ORIENTED_EDGE('',*,*,#210,.T.);
#210 = EDGE_CURVE('',#203,#211,#213,.T.);
#211 = VERTEX_POINT('',#212);
#212 = CARTESIAN_POINT('',(2.286,-0.254,0.2999994));
#213 = LINE('',#214,#215);
#214 = CARTESIAN_POINT('',(2.8194,-0.254,0.2999994));
#215 = VECTOR('',#216,1.);
#216 = DIRECTION('',(1.,0.,0.));
#217 = ORIENTED_EDGE('',*,*,#218,.T.);
#218 = EDGE_CURVE('',#211,#219,#221,.T.);
#219 = VERTEX_POINT('',#220);
#220 = CARTESIAN_POINT('',(2.286,-0.254,-2.50000008));
#221 = LINE('',#222,#223);
#222 = CARTESIAN_POINT('',(2.286,-0.254,-2.50000008));
#223 = VECTOR('',#224,1.);
#224 = DIRECTION('',(0.,-0.,-1.));
#225 = ORIENTED_EDGE('',*,*,#226,.T.);
#226 = EDGE_CURVE('',#219,#227,#229,.T.);
#227 = VERTEX_POINT('',#228);
#228 = CARTESIAN_POINT('',(2.8194,-0.254,-2.50000008));
#229 = LINE('',#230,#231);
#230 = CARTESIAN_POINT('',(2.8194,-0.254,-2.50000008));
#231 = VECTOR('',#232,1.);
#232 = DIRECTION('',(1.,0.,0.));
#233 = ORIENTED_EDGE('',*,*,#234,.T.);
#234 = EDGE_CURVE('',#227,#235,#237,.T.);
#235 = VERTEX_POINT('',#236);
#236 = CARTESIAN_POINT('',(2.8194,-0.254,1.10000034));
#237 = LINE('',#238,#239);
#238 = CARTESIAN_POINT('',(2.8194,-0.254,-2.50000008));
#239 = VECTOR('',#240,1.);
#240 = DIRECTION('',(-0.,0.,1.));
#241 = ORIENTED_EDGE('',*,*,#242,.T.);
#242 = EDGE_CURVE('',#235,#201,#243,.T.);
#243 = LINE('',#244,#245);
#244 = CARTESIAN_POINT('',(2.8194,-0.254,1.10000034));
#245 = VECTOR('',#246,1.);
#246 = DIRECTION('',(-1.,-0.,-0.));
#247 = PLANE('',#248);
#248 = AXIS2_PLACEMENT_3D('',#249,#250,#251);
#249 = CARTESIAN_POINT('',(2.8194,-0.254,-2.50000008));
#250 = DIRECTION('',(0.,-1.,0.));
#251 = DIRECTION('',(0.,-0.,-1.));
#252 = ADVANCED_FACE('',(#253),#278,.F.);
#253 = FACE_BOUND('',#254,.T.);
#254 = EDGE_LOOP('',(#255,#263,#264,#272));
#255 = ORIENTED_EDGE('',*,*,#256,.F.);
#256 = EDGE_CURVE('',#211,#257,#259,.T.);
#257 = VERTEX_POINT('',#258);
#258 = CARTESIAN_POINT('',(2.286,0.2794,0.2999994));
#259 = LINE('',#260,#261);
#260 = CARTESIAN_POINT('',(2.286,-0.254,0.2999994));
#261 = VECTOR('',#262,1.);
#262 = DIRECTION('',(-0.,1.,0.));
#263 = ORIENTED_EDGE('',*,*,#210,.F.);
#264 = ORIENTED_EDGE('',*,*,#265,.F.);
#265 = EDGE_CURVE('',#266,#203,#268,.T.);
#266 = VERTEX_POINT('',#267);
#267 = CARTESIAN_POINT('',(1.7526,0.2794,0.2999994));
#268 = LINE('',#269,#270);
#269 = CARTESIAN_POINT('',(1.7526,-0.254,0.2999994));
#270 = VECTOR('',#271,1.);
#271 = DIRECTION('',(0.,-1.,-0.));
#272 = ORIENTED_EDGE('',*,*,#273,.F.);
#273 = EDGE_CURVE('',#257,#266,#274,.T.);
#274 = LINE('',#275,#276);
#275 = CARTESIAN_POINT('',(2.286,0.2794,0.2999994));
#276 = VECTOR('',#277,1.);
#277 = DIRECTION('',(-1.,-0.,-0.));
#278 = PLANE('',#279);
#279 = AXIS2_PLACEMENT_3D('',#280,#281,#282);
#280 = CARTESIAN_POINT('',(2.8194,-0.254,0.2999994));
#281 = DIRECTION('',(0.,0.,1.));
#282 = DIRECTION('',(1.,0.,-0.));
#283 = ADVANCED_FACE('',(#284),#302,.T.);
#284 = FACE_BOUND('',#285,.T.);
#285 = EDGE_LOOP('',(#286,#287,#295,#301));
#286 = ORIENTED_EDGE('',*,*,#200,.F.);
#287 = ORIENTED_EDGE('',*,*,#288,.T.);
#288 = EDGE_CURVE('',#201,#289,#291,.T.);
#289 = VERTEX_POINT('',#290);
#290 = CARTESIAN_POINT('',(1.7526,0.2794,1.10000034));
#291 = LINE('',#292,#293);
#292 = CARTESIAN_POINT('',(1.7526,-0.254,1.10000034));
#293 = VECTOR('',#294,1.);
#294 = DIRECTION('',(0.,1.,-0.));
#295 = ORIENTED_EDGE('',*,*,#296,.F.);
#296 = EDGE_CURVE('',#266,#289,#297,.T.);
#297 = LINE('',#298,#299);
#298 = CARTESIAN_POINT('',(1.7526,0.2794,-2.50000008));
#299 = VECTOR('',#300,1.);
#300 = DIRECTION('',(0.,-0.,1.));
#301 = ORIENTED_EDGE('',*,*,#265,.T.);
#302 = PLANE('',#303);
#303 = AXIS2_PLACEMENT_3D('',#304,#305,#306);
#304 = CARTESIAN_POINT('',(1.7526,-0.254,0.2999994));
#305 = DIRECTION('',(-1.,0.,0.));
#306 = DIRECTION('',(0.,0.,1.));
#307 = ADVANCED_FACE('',(#308),#326,.T.);
#308 = FACE_BOUND('',#309,.T.);
#309 = EDGE_LOOP('',(#310,#318,#324,#325));
#310 = ORIENTED_EDGE('',*,*,#311,.T.);
#311 = EDGE_CURVE('',#235,#312,#314,.T.);
#312 = VERTEX_POINT('',#313);
#313 = CARTESIAN_POINT('',(2.8194,0.2794,1.10000034));
#314 = LINE('',#315,#316);
#315 = CARTESIAN_POINT('',(2.8194,-0.254,1.10000034));
#316 = VECTOR('',#317,1.);
#317 = DIRECTION('',(-0.,1.,0.));
#318 = ORIENTED_EDGE('',*,*,#319,.F.);
#319 = EDGE_CURVE('',#289,#312,#320,.T.);
#320 = LINE('',#321,#322);
#321 = CARTESIAN_POINT('',(2.286,0.2794,1.10000034));
#322 = VECTOR('',#323,1.);
#323 = DIRECTION('',(1.,0.,0.));
#324 = ORIENTED_EDGE('',*,*,#288,.F.);
#325 = ORIENTED_EDGE('',*,*,#242,.F.);
#326 = PLANE('',#327);
#327 = AXIS2_PLACEMENT_3D('',#328,#329,#330);
#328 = CARTESIAN_POINT('',(2.8194,-0.254,1.10000034));
#329 = DIRECTION('',(0.,0.,1.));
#330 = DIRECTION('',(1.,0.,-0.));
#331 = ADVANCED_FACE('',(#332),#350,.T.);
#332 = FACE_BOUND('',#333,.T.);
#333 = EDGE_LOOP('',(#334,#342,#343,#344));
#334 = ORIENTED_EDGE('',*,*,#335,.T.);
#335 = EDGE_CURVE('',#336,#312,#338,.T.);
#336 = VERTEX_POINT('',#337);
#337 = CARTESIAN_POINT('',(2.8194,0.2794,-2.50000008));
#338 = LINE('',#339,#340);
#339 = CARTESIAN_POINT('',(2.8194,0.2794,-2.50000008));
#340 = VECTOR('',#341,1.);
#341 = DIRECTION('',(-0.,-0.,1.));
#342 = ORIENTED_EDGE('',*,*,#311,.F.);
#343 = ORIENTED_EDGE('',*,*,#234,.F.);
#344 = ORIENTED_EDGE('',*,*,#345,.T.);
#345 = EDGE_CURVE('',#227,#336,#346,.T.);
#346 = LINE('',#347,#348);
#347 = CARTESIAN_POINT('',(2.8194,0.2794,-2.50000008));
#348 = VECTOR('',#349,1.);
#349 = DIRECTION('',(-0.,1.,0.));
#350 = PLANE('',#351);
#351 = AXIS2_PLACEMENT_3D('',#352,#353,#354);
#352 = CARTESIAN_POINT('',(2.8194,0.2794,-2.50000008));
#353 = DIRECTION('',(1.,0.,0.));
#354 = DIRECTION('',(0.,0.,-1.));
#355 = ADVANCED_FACE('',(#356),#374,.F.);
#356 = FACE_BOUND('',#357,.T.);
#357 = EDGE_LOOP('',(#358,#366,#367,#368));
#358 = ORIENTED_EDGE('',*,*,#359,.F.);
#359 = EDGE_CURVE('',#336,#360,#362,.T.);
#360 = VERTEX_POINT('',#361);
#361 = CARTESIAN_POINT('',(2.286,0.2794,-2.50000008));
#362 = LINE('',#363,#364);
#363 = CARTESIAN_POINT('',(2.8194,0.2794,-2.50000008));
#364 = VECTOR('',#365,1.);
#365 = DIRECTION('',(-1.,-0.,0.));
#366 = ORIENTED_EDGE('',*,*,#345,.F.);
#367 = ORIENTED_EDGE('',*,*,#226,.F.);
#368 = ORIENTED_EDGE('',*,*,#369,.F.);
#369 = EDGE_CURVE('',#360,#219,#370,.T.);
#370 = LINE('',#371,#372);
#371 = CARTESIAN_POINT('',(2.286,-0.254,-2.50000008));
#372 = VECTOR('',#373,1.);
#373 = DIRECTION('',(0.,-1.,-0.));
#374 = PLANE('',#375);
#375 = AXIS2_PLACEMENT_3D('',#376,#377,#378);
#376 = CARTESIAN_POINT('',(2.8194,-0.254,-2.50000008));
#377 = DIRECTION('',(0.,0.,1.));
#378 = DIRECTION('',(1.,0.,-0.));
#379 = ADVANCED_FACE('',(#380),#391,.T.);
#380 = FACE_BOUND('',#381,.T.);
#381 = EDGE_LOOP('',(#382,#383,#384,#390));
#382 = ORIENTED_EDGE('',*,*,#218,.F.);
#383 = ORIENTED_EDGE('',*,*,#256,.T.);
#384 = ORIENTED_EDGE('',*,*,#385,.T.);
#385 = EDGE_CURVE('',#257,#360,#386,.T.);
#386 = LINE('',#387,#388);
#387 = CARTESIAN_POINT('',(2.286,0.2794,-2.50000008));
#388 = VECTOR('',#389,1.);
#389 = DIRECTION('',(-0.,-0.,-1.));
#390 = ORIENTED_EDGE('',*,*,#369,.T.);
#391 = PLANE('',#392);
#392 = AXIS2_PLACEMENT_3D('',#393,#394,#395);
#393 = CARTESIAN_POINT('',(2.286,-0.254,-2.50000008));
#394 = DIRECTION('',(-1.,0.,0.));
#395 = DIRECTION('',(0.,0.,1.));
#396 = ADVANCED_FACE('',(#397),#405,.T.);
#397 = FACE_BOUND('',#398,.T.);
#398 = EDGE_LOOP('',(#399,#400,#401,#402,#403,#404));
#399 = ORIENTED_EDGE('',*,*,#296,.T.);
#400 = ORIENTED_EDGE('',*,*,#319,.T.);
#401 = ORIENTED_EDGE('',*,*,#335,.F.);
#402 = ORIENTED_EDGE('',*,*,#359,.T.);
#403 = ORIENTED_EDGE('',*,*,#385,.F.);
#404 = ORIENTED_EDGE('',*,*,#273,.T.);
#405 = PLANE('',#406);
#406 = AXIS2_PLACEMENT_3D('',#407,#408,#409);
#407 = CARTESIAN_POINT('',(2.286,0.2794,-2.50000008));
#408 = DIRECTION('',(-0.,1.,0.));
#409 = DIRECTION('',(0.,0.,1.));
#410 = ( GEOMETRIC_REPRESENTATION_CONTEXT(3) 
GLOBAL_UNCERTAINTY_ASSIGNED_CONTEXT((#414)) GLOBAL_UNIT_ASSIGNED_CONTEXT
((#411,#412,#413)) REPRESENTATION_CONTEXT('Context #1',
  '3D Context with UNIT and UNCERTAINTY') );
#411 = ( LENGTH_UNIT() NAMED_UNIT(*) SI_UNIT(.MILLI.,.METRE.) );
#412 = ( NAMED_UNIT(*) PLANE_ANGLE_UNIT() SI_UNIT($,.RADIAN.) );
#413 = ( NAMED_UNIT(*) SI_UNIT($,.STERADIAN.) SOLID_ANGLE_UNIT() );
#414 = UNCERTAINTY_MEASURE_WITH_UNIT(LENGTH_MEASURE(1.E-07),#411,
  'distance_accuracy_value','confusion accuracy');
#415 = CONTEXT_DEPENDENT_SHAPE_REPRESENTATION(#416,#418);
#416 = ( REPRESENTATION_RELATIONSHIP('','',#193,#166) 
REPRESENTATION_RELATIONSHIP_WITH_TRANSFORMATION(#417) 
SHAPE_REPRESENTATION_RELATIONSHIP() );
#417 = ITEM_DEFINED_TRANSFORMATION('','',#11,#167);
#418 = PRODUCT_DEFINITION_SHAPE('Placement','Placement of an item',#419
  );
#419 = NEXT_ASSEMBLY_USAGE_OCCURRENCE('27','User Library-LED_d3-Pins',''
  ,#161,#188,$);
#420 = PRODUCT_RELATED_PRODUCT_CATEGORY('part',$,(#190));
#421 = SHAPE_DEFINITION_REPRESENTATION(#422,#428);
#422 = PRODUCT_DEFINITION_SHAPE('','',#423);
#423 = PRODUCT_DEFINITION('design','',#424,#427);
#424 = PRODUCT_DEFINITION_FORMATION('','',#425);
#425 = PRODUCT('User Library-LED_d3-Pins001',
  'User Library-LED_d3-Pins001','',(#426));
#426 = PRODUCT_CONTEXT('',#2,'mechanical');
#427 = PRODUCT_DEFINITION_CONTEXT('part definition',#2,'design');
#428 = ADVANCED_BREP_SHAPE_REPRESENTATION('',(#11,#429),#645);
#429 = MANIFOLD_SOLID_BREP('',#430);
#430 = CLOSED_SHELL('',(#431,#487,#518,#542,#566,#590,#614,#631));
#431 = ADVANCED_FACE('',(#432),#482,.T.);
#432 = FACE_BOUND('',#433,.T.);
#433 = EDGE_LOOP('',(#434,#444,#452,#460,#468,#476));
#434 = ORIENTED_EDGE('',*,*,#435,.T.);
#435 = EDGE_CURVE('',#436,#438,#440,.T.);
#436 = VERTEX_POINT('',#437);
#437 = CARTESIAN_POINT('',(0.7874,-0.254,0.2999994));
#438 = VERTEX_POINT('',#439);
#439 = CARTESIAN_POINT('',(0.7874,-0.254,1.10000034));
#440 = LINE('',#441,#442);
#441 = CARTESIAN_POINT('',(0.7874,-0.254,-2.50000008));
#442 = VECTOR('',#443,1.);
#443 = DIRECTION('',(-0.,0.,1.));
#444 = ORIENTED_EDGE('',*,*,#445,.T.);
#445 = EDGE_CURVE('',#438,#446,#448,.T.);
#446 = VERTEX_POINT('',#447);
#447 = CARTESIAN_POINT('',(-0.2794,-0.254,1.10000034));
#448 = LINE('',#449,#450);
#449 = CARTESIAN_POINT('',(0.254,-0.254,1.10000034));
#450 = VECTOR('',#451,1.);
#451 = DIRECTION('',(-1.,-0.,-0.));
#452 = ORIENTED_EDGE('',*,*,#453,.T.);
#453 = EDGE_CURVE('',#446,#454,#456,.T.);
#454 = VERTEX_POINT('',#455);
#455 = CARTESIAN_POINT('',(-0.2794,-0.254,-2.50000008));
#456 = LINE('',#457,#458);
#457 = CARTESIAN_POINT('',(-0.2794,-0.254,-2.50000008));
#458 = VECTOR('',#459,1.);
#459 = DIRECTION('',(0.,-0.,-1.));
#460 = ORIENTED_EDGE('',*,*,#461,.T.);
#461 = EDGE_CURVE('',#454,#462,#464,.T.);
#462 = VERTEX_POINT('',#463);
#463 = CARTESIAN_POINT('',(0.254,-0.254,-2.50000008));
#464 = LINE('',#465,#466);
#465 = CARTESIAN_POINT('',(0.254,-0.254,-2.50000008));
#466 = VECTOR('',#467,1.);
#467 = DIRECTION('',(1.,0.,0.));
#468 = ORIENTED_EDGE('',*,*,#469,.T.);
#469 = EDGE_CURVE('',#462,#470,#472,.T.);
#470 = VERTEX_POINT('',#471);
#471 = CARTESIAN_POINT('',(0.254,-0.254,0.2999994));
#472 = LINE('',#473,#474);
#473 = CARTESIAN_POINT('',(0.254,-0.254,-2.50000008));
#474 = VECTOR('',#475,1.);
#475 = DIRECTION('',(-0.,0.,1.));
#476 = ORIENTED_EDGE('',*,*,#477,.T.);
#477 = EDGE_CURVE('',#470,#436,#478,.T.);
#478 = LINE('',#479,#480);
#479 = CARTESIAN_POINT('',(0.254,-0.254,0.2999994));
#480 = VECTOR('',#481,1.);
#481 = DIRECTION('',(1.,0.,0.));
#482 = PLANE('',#483);
#483 = AXIS2_PLACEMENT_3D('',#484,#485,#486);
#484 = CARTESIAN_POINT('',(0.254,-0.254,-2.50000008));
#485 = DIRECTION('',(0.,-1.,0.));
#486 = DIRECTION('',(0.,-0.,-1.));
#487 = ADVANCED_FACE('',(#488),#513,.T.);
#488 = FACE_BOUND('',#489,.T.);
#489 = EDGE_LOOP('',(#490,#498,#506,#512));
#490 = ORIENTED_EDGE('',*,*,#491,.T.);
#491 = EDGE_CURVE('',#438,#492,#494,.T.);
#492 = VERTEX_POINT('',#493);
#493 = CARTESIAN_POINT('',(0.7874,0.2794,1.10000034));
#494 = LINE('',#495,#496);
#495 = CARTESIAN_POINT('',(0.7874,-0.254,1.10000034));
#496 = VECTOR('',#497,1.);
#497 = DIRECTION('',(-0.,1.,0.));
#498 = ORIENTED_EDGE('',*,*,#499,.F.);
#499 = EDGE_CURVE('',#500,#492,#502,.T.);
#500 = VERTEX_POINT('',#501);
#501 = CARTESIAN_POINT('',(-0.2794,0.2794,1.10000034));
#502 = LINE('',#503,#504);
#503 = CARTESIAN_POINT('',(-0.2794,0.2794,1.10000034));
#504 = VECTOR('',#505,1.);
#505 = DIRECTION('',(1.,0.,0.));
#506 = ORIENTED_EDGE('',*,*,#507,.T.);
#507 = EDGE_CURVE('',#500,#446,#508,.T.);
#508 = LINE('',#509,#510);
#509 = CARTESIAN_POINT('',(-0.2794,-0.254,1.10000034));
#510 = VECTOR('',#511,1.);
#511 = DIRECTION('',(0.,-1.,-0.));
#512 = ORIENTED_EDGE('',*,*,#445,.F.);
#513 = PLANE('',#514);
#514 = AXIS2_PLACEMENT_3D('',#515,#516,#517);
#515 = CARTESIAN_POINT('',(0.7874,-0.254,1.10000034));
#516 = DIRECTION('',(0.,0.,1.));
#517 = DIRECTION('',(1.,0.,-0.));
#518 = ADVANCED_FACE('',(#519),#537,.T.);
#519 = FACE_BOUND('',#520,.T.);
#520 = EDGE_LOOP('',(#521,#529,#530,#531));
#521 = ORIENTED_EDGE('',*,*,#522,.F.);
#522 = EDGE_CURVE('',#492,#523,#525,.T.);
#523 = VERTEX_POINT('',#524);
#524 = CARTESIAN_POINT('',(0.7874,0.2794,0.2999994));
#525 = LINE('',#526,#527);
#526 = CARTESIAN_POINT('',(0.7874,0.2794,-2.50000008));
#527 = VECTOR('',#528,1.);
#528 = DIRECTION('',(-0.,0.,-1.));
#529 = ORIENTED_EDGE('',*,*,#491,.F.);
#530 = ORIENTED_EDGE('',*,*,#435,.F.);
#531 = ORIENTED_EDGE('',*,*,#532,.T.);
#532 = EDGE_CURVE('',#436,#523,#533,.T.);
#533 = LINE('',#534,#535);
#534 = CARTESIAN_POINT('',(0.7874,0.2794,0.2999994));
#535 = VECTOR('',#536,1.);
#536 = DIRECTION('',(-0.,1.,0.));
#537 = PLANE('',#538);
#538 = AXIS2_PLACEMENT_3D('',#539,#540,#541);
#539 = CARTESIAN_POINT('',(0.7874,0.2794,0.2999994));
#540 = DIRECTION('',(1.,0.,0.));
#541 = DIRECTION('',(0.,0.,-1.));
#542 = ADVANCED_FACE('',(#543),#561,.F.);
#543 = FACE_BOUND('',#544,.T.);
#544 = EDGE_LOOP('',(#545,#546,#547,#555));
#545 = ORIENTED_EDGE('',*,*,#532,.F.);
#546 = ORIENTED_EDGE('',*,*,#477,.F.);
#547 = ORIENTED_EDGE('',*,*,#548,.F.);
#548 = EDGE_CURVE('',#549,#470,#551,.T.);
#549 = VERTEX_POINT('',#550);
#550 = CARTESIAN_POINT('',(0.254,0.2794,0.2999994));
#551 = LINE('',#552,#553);
#552 = CARTESIAN_POINT('',(0.254,-0.254,0.2999994));
#553 = VECTOR('',#554,1.);
#554 = DIRECTION('',(0.,-1.,-0.));
#555 = ORIENTED_EDGE('',*,*,#556,.F.);
#556 = EDGE_CURVE('',#523,#549,#557,.T.);
#557 = LINE('',#558,#559);
#558 = CARTESIAN_POINT('',(-0.2794,0.2794,0.2999994));
#559 = VECTOR('',#560,1.);
#560 = DIRECTION('',(-1.,-0.,-0.));
#561 = PLANE('',#562);
#562 = AXIS2_PLACEMENT_3D('',#563,#564,#565);
#563 = CARTESIAN_POINT('',(0.7874,-0.254,0.2999994));
#564 = DIRECTION('',(0.,0.,1.));
#565 = DIRECTION('',(1.,0.,-0.));
#566 = ADVANCED_FACE('',(#567),#585,.T.);
#567 = FACE_BOUND('',#568,.T.);
#568 = EDGE_LOOP('',(#569,#577,#578,#579));
#569 = ORIENTED_EDGE('',*,*,#570,.T.);
#570 = EDGE_CURVE('',#571,#549,#573,.T.);
#571 = VERTEX_POINT('',#572);
#572 = CARTESIAN_POINT('',(0.254,0.2794,-2.50000008));
#573 = LINE('',#574,#575);
#574 = CARTESIAN_POINT('',(0.254,0.2794,-2.50000008));
#575 = VECTOR('',#576,1.);
#576 = DIRECTION('',(-0.,-0.,1.));
#577 = ORIENTED_EDGE('',*,*,#548,.T.);
#578 = ORIENTED_EDGE('',*,*,#469,.F.);
#579 = ORIENTED_EDGE('',*,*,#580,.T.);
#580 = EDGE_CURVE('',#462,#571,#581,.T.);
#581 = LINE('',#582,#583);
#582 = CARTESIAN_POINT('',(0.254,0.2794,-2.50000008));
#583 = VECTOR('',#584,1.);
#584 = DIRECTION('',(-0.,1.,0.));
#585 = PLANE('',#586);
#586 = AXIS2_PLACEMENT_3D('',#587,#588,#589);
#587 = CARTESIAN_POINT('',(0.254,0.2794,-2.50000008));
#588 = DIRECTION('',(1.,0.,0.));
#589 = DIRECTION('',(0.,0.,-1.));
#590 = ADVANCED_FACE('',(#591),#609,.F.);
#591 = FACE_BOUND('',#592,.T.);
#592 = EDGE_LOOP('',(#593,#601,#602,#603));
#593 = ORIENTED_EDGE('',*,*,#594,.F.);
#594 = EDGE_CURVE('',#571,#595,#597,.T.);
#595 = VERTEX_POINT('',#596);
#596 = CARTESIAN_POINT('',(-0.2794,0.2794,-2.50000008));
#597 = LINE('',#598,#599);
#598 = CARTESIAN_POINT('',(0.254,0.2794,-2.50000008));
#599 = VECTOR('',#600,1.);
#600 = DIRECTION('',(-1.,-0.,0.));
#601 = ORIENTED_EDGE('',*,*,#580,.F.);
#602 = ORIENTED_EDGE('',*,*,#461,.F.);
#603 = ORIENTED_EDGE('',*,*,#604,.F.);
#604 = EDGE_CURVE('',#595,#454,#605,.T.);
#605 = LINE('',#606,#607);
#606 = CARTESIAN_POINT('',(-0.2794,-0.254,-2.50000008));
#607 = VECTOR('',#608,1.);
#608 = DIRECTION('',(0.,-1.,-0.));
#609 = PLANE('',#610);
#610 = AXIS2_PLACEMENT_3D('',#611,#612,#613);
#611 = CARTESIAN_POINT('',(0.254,-0.254,-2.50000008));
#612 = DIRECTION('',(0.,0.,1.));
#613 = DIRECTION('',(1.,0.,-0.));
#614 = ADVANCED_FACE('',(#615),#626,.T.);
#615 = FACE_BOUND('',#616,.T.);
#616 = EDGE_LOOP('',(#617,#618,#619,#625));
#617 = ORIENTED_EDGE('',*,*,#453,.F.);
#618 = ORIENTED_EDGE('',*,*,#507,.F.);
#619 = ORIENTED_EDGE('',*,*,#620,.T.);
#620 = EDGE_CURVE('',#500,#595,#621,.T.);
#621 = LINE('',#622,#623);
#622 = CARTESIAN_POINT('',(-0.2794,0.2794,-2.50000008));
#623 = VECTOR('',#624,1.);
#624 = DIRECTION('',(-0.,-0.,-1.));
#625 = ORIENTED_EDGE('',*,*,#604,.T.);
#626 = PLANE('',#627);
#627 = AXIS2_PLACEMENT_3D('',#628,#629,#630);
#628 = CARTESIAN_POINT('',(-0.2794,-0.254,-2.50000008));
#629 = DIRECTION('',(-1.,0.,0.));
#630 = DIRECTION('',(0.,0.,1.));
#631 = ADVANCED_FACE('',(#632),#640,.T.);
#632 = FACE_BOUND('',#633,.T.);
#633 = EDGE_LOOP('',(#634,#635,#636,#637,#638,#639));
#634 = ORIENTED_EDGE('',*,*,#522,.T.);
#635 = ORIENTED_EDGE('',*,*,#556,.T.);
#636 = ORIENTED_EDGE('',*,*,#570,.F.);
#637 = ORIENTED_EDGE('',*,*,#594,.T.);
#638 = ORIENTED_EDGE('',*,*,#620,.F.);
#639 = ORIENTED_EDGE('',*,*,#499,.T.);
#640 = PLANE('',#641);
#641 = AXIS2_PLACEMENT_3D('',#642,#643,#644);
#642 = CARTESIAN_POINT('',(-0.2794,0.2794,-2.50000008));
#643 = DIRECTION('',(-0.,1.,0.));
#644 = DIRECTION('',(0.,0.,1.));
#645 = ( GEOMETRIC_REPRESENTATION_CONTEXT(3) 
GLOBAL_UNCERTAINTY_ASSIGNED_CONTEXT((#649)) GLOBAL_UNIT_ASSIGNED_CONTEXT
((#646,#647,#648)) REPRESENTATION_CONTEXT('Context #1',
  '3D Context with UNIT and UNCERTAINTY') );
#646 = ( LENGTH_UNIT() NAMED_UNIT(*) SI_UNIT(.MILLI.,.METRE.) );
#647 = ( NAMED_UNIT(*) PLANE_ANGLE_UNIT() SI_UNIT($,.RADIAN.) );
#648 = ( NAMED_UNIT(*) SI_UNIT($,.STERADIAN.) SOLID_ANGLE_UNIT() );
#649 = UNCERTAINTY_MEASURE_WITH_UNIT(LENGTH_MEASURE(1.E-07),#646,
  'distance_accuracy_value','confusion accuracy');
#650 = CONTEXT_DEPENDENT_SHAPE_REPRESENTATION(#651,#653);
#651 = ( REPRESENTATION_RELATIONSHIP('','',#428,#166) 
REPRESENTATION_RELATIONSHIP_WITH_TRANSFORMATION(#652) 
SHAPE_REPRESENTATION_RELATIONSHIP() );
#652 = ITEM_DEFINED_TRANSFORMATION('','',#11,#171);
#653 = PRODUCT_DEFINITION_SHAPE('Placement','Placement of an item',#654
  );
#654 = NEXT_ASSEMBLY_USAGE_OCCURRENCE('28','User Library-LED_d3-Pins001'
  ,'',#161,#423,$);
#655 = PRODUCT_RELATED_PRODUCT_CATEGORY('part',$,(#425));
#656 = MECHANICAL_DESIGN_GEOMETRIC_PRESENTATION_REPRESENTATION('',(#657)
  ,#645);
#657 = STYLED_ITEM('color',(#658),#429);
#658 = PRESENTATION_STYLE_ASSIGNMENT((#659,#665));
#659 = SURFACE_STYLE_USAGE(.BOTH.,#660);
#660 = SURFACE_SIDE_STYLE('',(#661));
#661 = SURFACE_STYLE_FILL_AREA(#662);
#662 = FILL_AREA_STYLE('',(#663));
#663 = FILL_AREA_STYLE_COLOUR('',#664);
#664 = COLOUR_RGB('',0.800000010877,0.800000010877,0.800000010877);
#665 = CURVE_STYLE('',#666,POSITIVE_LENGTH_MEASURE(0.1),#667);
#666 = DRAUGHTING_PRE_DEFINED_CURVE_FONT('continuous');
#667 = COLOUR_RGB('',9.803921802644E-02,9.803921802644E-02,
  9.803921802644E-02);
#668 = MECHANICAL_DESIGN_GEOMETRIC_PRESENTATION_REPRESENTATION('',(#669)
  ,#125);
#669 = STYLED_ITEM('color',(#670),#37);
#670 = PRESENTATION_STYLE_ASSIGNMENT((#671,#679));
#671 = SURFACE_STYLE_USAGE(.BOTH.,#672);
#672 = SURFACE_SIDE_STYLE('',(#673,#677));
#673 = SURFACE_STYLE_FILL_AREA(#674);
#674 = FILL_AREA_STYLE('',(#675));
#675 = FILL_AREA_STYLE_COLOUR('',#676);
#676 = COLOUR_RGB('',0.666666687201,0.333333345507,1.);
#677 = SURFACE_STYLE_RENDERING_WITH_PROPERTIES(.NORMAL_SHADING.,#676,(
    #678));
#678 = SURFACE_STYLE_TRANSPARENT(5.000001192093E-02);
#679 = CURVE_STYLE('',#680,POSITIVE_LENGTH_MEASURE(0.1),#676);
#680 = DRAUGHTING_PRE_DEFINED_CURVE_FONT('continuous');
#681 = MECHANICAL_DESIGN_GEOMETRIC_PRESENTATION_REPRESENTATION('',(#682)
  ,#410);
#682 = STYLED_ITEM('color',(#683),#194);
#683 = PRESENTATION_STYLE_ASSIGNMENT((#684,#689));
#684 = SURFACE_STYLE_USAGE(.BOTH.,#685);
#685 = SURFACE_SIDE_STYLE('',(#686));
#686 = SURFACE_STYLE_FILL_AREA(#687);
#687 = FILL_AREA_STYLE('',(#688));
#688 = FILL_AREA_STYLE_COLOUR('',#664);
#689 = CURVE_STYLE('',#690,POSITIVE_LENGTH_MEASURE(0.1),#667);
#690 = DRAUGHTING_PRE_DEFINED_CURVE_FONT('continuous');
ENDSEC;
END-ISO-10303-21;
