ISO-10303-21;
HEADER;
FILE_DESCRIPTION(('FreeCAD Model'),'2;1');
FILE_NAME('Open CASCADE Shape Model','2026-06-10T08:29:34',(''),(''),
  'Open CASCADE STEP processor 7.8','FreeCAD','Unknown');
FILE_SCHEMA(('AUTOMOTIVE_DESIGN { 1 0 10303 214 1 1 1 1 }'));
ENDSEC;
DATA;
#1 = APPLICATION_PROTOCOL_DEFINITION('international standard',
  'automotive_design',2000,#2);
#2 = APPLICATION_CONTEXT(
  'core data for automotive mechanical design processes');
#3 = SHAPE_DEFINITION_REPRESENTATION(#4,#10);
#4 = PRODUCT_DEFINITION_SHAPE('','',#5);
#5 = PRODUCT_DEFINITION('design','',#6,#9);
#6 = PRODUCT_DEFINITION_FORMATION('','',#7);
#7 = PRODUCT('LED','LED','',(#8));
#8 = PRODUCT_CONTEXT('',#2,'mechanical');
#9 = PRODUCT_DEFINITION_CONTEXT('part definition',#2,'design');
#10 = SHAPE_REPRESENTATION('',(#11,#15,#19,#23,#27),#31);
#11 = AXIS2_PLACEMENT_3D('',#12,#13,#14);
#12 = CARTESIAN_POINT('',(0.,0.,0.));
#13 = DIRECTION('',(0.,0.,1.));
#14 = DIRECTION('',(1.,0.,-0.));
#15 = AXIS2_PLACEMENT_3D('',#16,#17,#18);
#16 = CARTESIAN_POINT('',(0.,0.,0.));
#17 = DIRECTION('',(0.,0.,1.));
#18 = DIRECTION('',(1.,0.,0.));
#19 = AXIS2_PLACEMENT_3D('',#20,#21,#22);
#20 = CARTESIAN_POINT('',(0.,0.,0.));
#21 = DIRECTION('',(0.,0.,1.));
#22 = DIRECTION('',(1.,0.,0.));
#23 = AXIS2_PLACEMENT_3D('',#24,#25,#26);
#24 = CARTESIAN_POINT('',(0.,0.,0.));
#25 = DIRECTION('',(0.,0.,1.));
#26 = DIRECTION('',(1.,0.,0.));
#27 = AXIS2_PLACEMENT_3D('',#28,#29,#30);
#28 = CARTESIAN_POINT('',(0.,0.,0.));
#29 = DIRECTION('',(0.,0.,1.));
#30 = DIRECTION('',(1.,0.,0.));
#31 = ( GEOMETRIC_REPRESENTATION_CONTEXT(3) 
GLOBAL_UNCERTAINTY_ASSIGNED_CONTEXT((#35)) GLOBAL_UNIT_ASSIGNED_CONTEXT(
(#32,#33,#34)) REPRESENTATION_CONTEXT('Context #1',
  '3D Context with UNIT and UNCERTAINTY') );
#32 = ( LENGTH_UNIT() NAMED_UNIT(*) SI_UNIT(.MILLI.,.METRE.) );
#33 = ( NAMED_UNIT(*) PLANE_ANGLE_UNIT() SI_UNIT($,.RADIAN.) );
#34 = ( NAMED_UNIT(*) SI_UNIT($,.STERADIAN.) SOLID_ANGLE_UNIT() );
#35 = UNCERTAINTY_MEASURE_WITH_UNIT(LENGTH_MEASURE(1.E-07),#32,
  'distance_accuracy_value','confusion accuracy');
#36 = PRODUCT_RELATED_PRODUCT_CATEGORY('part',$,(#7));
#37 = SHAPE_DEFINITION_REPRESENTATION(#38,#44);
#38 = PRODUCT_DEFINITION_SHAPE('','',#39);
#39 = PRODUCT_DEFINITION('design','',#40,#43);
#40 = PRODUCT_DEFINITION_FORMATION('','',#41);
#41 = PRODUCT('PinA','PinA','',(#42));
#42 = PRODUCT_CONTEXT('',#2,'mechanical');
#43 = PRODUCT_DEFINITION_CONTEXT('part definition',#2,'design');
#44 = ADVANCED_BREP_SHAPE_REPRESENTATION('',(#11,#45),#195);
#45 = MANIFOLD_SOLID_BREP('',#46);
#46 = CLOSED_SHELL('',(#47,#87,#118,#149,#171,#183));
#47 = ADVANCED_FACE('',(#48),#82,.T.);
#48 = FACE_BOUND('',#49,.T.);
#49 = EDGE_LOOP('',(#50,#60,#68,#76));
#50 = ORIENTED_EDGE('',*,*,#51,.T.);
#51 = EDGE_CURVE('',#52,#54,#56,.T.);
#52 = VERTEX_POINT('',#53);
#53 = CARTESIAN_POINT('',(-1.52,-0.25,0.));
#54 = VERTEX_POINT('',#55);
#55 = CARTESIAN_POINT('',(-1.52,-0.25,-5.));
#56 = LINE('',#57,#58);
#57 = CARTESIAN_POINT('',(-1.52,-0.25,0.));
#58 = VECTOR('',#59,1.);
#59 = DIRECTION('',(-0.,-0.,-1.));
#60 = ORIENTED_EDGE('',*,*,#61,.T.);
#61 = EDGE_CURVE('',#54,#62,#64,.T.);
#62 = VERTEX_POINT('',#63);
#63 = CARTESIAN_POINT('',(-1.02,-0.25,-5.));
#64 = LINE('',#65,#66);
#65 = CARTESIAN_POINT('',(-1.52,-0.25,-5.));
#66 = VECTOR('',#67,1.);
#67 = DIRECTION('',(1.,0.,0.));
#68 = ORIENTED_EDGE('',*,*,#69,.F.);
#69 = EDGE_CURVE('',#70,#62,#72,.T.);
#70 = VERTEX_POINT('',#71);
#71 = CARTESIAN_POINT('',(-1.02,-0.25,0.));
#72 = LINE('',#73,#74);
#73 = CARTESIAN_POINT('',(-1.02,-0.25,0.));
#74 = VECTOR('',#75,1.);
#75 = DIRECTION('',(-0.,-0.,-1.));
#76 = ORIENTED_EDGE('',*,*,#77,.F.);
#77 = EDGE_CURVE('',#52,#70,#78,.T.);
#78 = LINE('',#79,#80);
#79 = CARTESIAN_POINT('',(-1.52,-0.25,0.));
#80 = VECTOR('',#81,1.);
#81 = DIRECTION('',(1.,0.,0.));
#82 = PLANE('',#83);
#83 = AXIS2_PLACEMENT_3D('',#84,#85,#86);
#84 = CARTESIAN_POINT('',(-1.52,-0.25,0.));
#85 = DIRECTION('',(0.,-1.,0.));
#86 = DIRECTION('',(1.,0.,0.));
#87 = ADVANCED_FACE('',(#88),#113,.T.);
#88 = FACE_BOUND('',#89,.T.);
#89 = EDGE_LOOP('',(#90,#91,#99,#107));
#90 = ORIENTED_EDGE('',*,*,#69,.T.);
#91 = ORIENTED_EDGE('',*,*,#92,.T.);
#92 = EDGE_CURVE('',#62,#93,#95,.T.);
#93 = VERTEX_POINT('',#94);
#94 = CARTESIAN_POINT('',(-1.02,0.25,-5.));
#95 = LINE('',#96,#97);
#96 = CARTESIAN_POINT('',(-1.02,-0.25,-5.));
#97 = VECTOR('',#98,1.);
#98 = DIRECTION('',(0.,1.,0.));
#99 = ORIENTED_EDGE('',*,*,#100,.F.);
#100 = EDGE_CURVE('',#101,#93,#103,.T.);
#101 = VERTEX_POINT('',#102);
#102 = CARTESIAN_POINT('',(-1.02,0.25,0.));
#103 = LINE('',#104,#105);
#104 = CARTESIAN_POINT('',(-1.02,0.25,0.));
#105 = VECTOR('',#106,1.);
#106 = DIRECTION('',(-0.,-0.,-1.));
#107 = ORIENTED_EDGE('',*,*,#108,.F.);
#108 = EDGE_CURVE('',#70,#101,#109,.T.);
#109 = LINE('',#110,#111);
#110 = CARTESIAN_POINT('',(-1.02,-0.25,0.));
#111 = VECTOR('',#112,1.);
#112 = DIRECTION('',(0.,1.,0.));
#113 = PLANE('',#114);
#114 = AXIS2_PLACEMENT_3D('',#115,#116,#117);
#115 = CARTESIAN_POINT('',(-1.02,-0.25,0.));
#116 = DIRECTION('',(1.,0.,0.));
#117 = DIRECTION('',(-0.,1.,0.));
#118 = ADVANCED_FACE('',(#119),#144,.T.);
#119 = FACE_BOUND('',#120,.T.);
#120 = EDGE_LOOP('',(#121,#122,#130,#138));
#121 = ORIENTED_EDGE('',*,*,#100,.T.);
#122 = ORIENTED_EDGE('',*,*,#123,.T.);
#123 = EDGE_CURVE('',#93,#124,#126,.T.);
#124 = VERTEX_POINT('',#125);
#125 = CARTESIAN_POINT('',(-1.52,0.25,-5.));
#126 = LINE('',#127,#128);
#127 = CARTESIAN_POINT('',(-1.02,0.25,-5.));
#128 = VECTOR('',#129,1.);
#129 = DIRECTION('',(-1.,0.,0.));
#130 = ORIENTED_EDGE('',*,*,#131,.F.);
#131 = EDGE_CURVE('',#132,#124,#134,.T.);
#132 = VERTEX_POINT('',#133);
#133 = CARTESIAN_POINT('',(-1.52,0.25,0.));
#134 = LINE('',#135,#136);
#135 = CARTESIAN_POINT('',(-1.52,0.25,0.));
#136 = VECTOR('',#137,1.);
#137 = DIRECTION('',(-0.,-0.,-1.));
#138 = ORIENTED_EDGE('',*,*,#139,.F.);
#139 = EDGE_CURVE('',#101,#132,#140,.T.);
#140 = LINE('',#141,#142);
#141 = CARTESIAN_POINT('',(-1.02,0.25,0.));
#142 = VECTOR('',#143,1.);
#143 = DIRECTION('',(-1.,0.,0.));
#144 = PLANE('',#145);
#145 = AXIS2_PLACEMENT_3D('',#146,#147,#148);
#146 = CARTESIAN_POINT('',(-1.02,0.25,0.));
#147 = DIRECTION('',(0.,1.,0.));
#148 = DIRECTION('',(-1.,0.,0.));
#149 = ADVANCED_FACE('',(#150),#166,.T.);
#150 = FACE_BOUND('',#151,.T.);
#151 = EDGE_LOOP('',(#152,#153,#159,#160));
#152 = ORIENTED_EDGE('',*,*,#131,.T.);
#153 = ORIENTED_EDGE('',*,*,#154,.T.);
#154 = EDGE_CURVE('',#124,#54,#155,.T.);
#155 = LINE('',#156,#157);
#156 = CARTESIAN_POINT('',(-1.52,0.25,-5.));
#157 = VECTOR('',#158,1.);
#158 = DIRECTION('',(0.,-1.,0.));
#159 = ORIENTED_EDGE('',*,*,#51,.F.);
#160 = ORIENTED_EDGE('',*,*,#161,.F.);
#161 = EDGE_CURVE('',#132,#52,#162,.T.);
#162 = LINE('',#163,#164);
#163 = CARTESIAN_POINT('',(-1.52,0.25,0.));
#164 = VECTOR('',#165,1.);
#165 = DIRECTION('',(0.,-1.,0.));
#166 = PLANE('',#167);
#167 = AXIS2_PLACEMENT_3D('',#168,#169,#170);
#168 = CARTESIAN_POINT('',(-1.52,0.25,0.));
#169 = DIRECTION('',(-1.,0.,0.));
#170 = DIRECTION('',(0.,-1.,0.));
#171 = ADVANCED_FACE('',(#172),#178,.T.);
#172 = FACE_BOUND('',#173,.T.);
#173 = EDGE_LOOP('',(#174,#175,#176,#177));
#174 = ORIENTED_EDGE('',*,*,#77,.T.);
#175 = ORIENTED_EDGE('',*,*,#108,.T.);
#176 = ORIENTED_EDGE('',*,*,#139,.T.);
#177 = ORIENTED_EDGE('',*,*,#161,.T.);
#178 = PLANE('',#179);
#179 = AXIS2_PLACEMENT_3D('',#180,#181,#182);
#180 = CARTESIAN_POINT('',(-1.27,0.,0.));
#181 = DIRECTION('',(0.,0.,1.));
#182 = DIRECTION('',(1.,0.,0.));
#183 = ADVANCED_FACE('',(#184),#190,.F.);
#184 = FACE_BOUND('',#185,.F.);
#185 = EDGE_LOOP('',(#186,#187,#188,#189));
#186 = ORIENTED_EDGE('',*,*,#61,.T.);
#187 = ORIENTED_EDGE('',*,*,#92,.T.);
#188 = ORIENTED_EDGE('',*,*,#123,.T.);
#189 = ORIENTED_EDGE('',*,*,#154,.T.);
#190 = PLANE('',#191);
#191 = AXIS2_PLACEMENT_3D('',#192,#193,#194);
#192 = CARTESIAN_POINT('',(-1.27,0.,-5.));
#193 = DIRECTION('',(0.,0.,1.));
#194 = DIRECTION('',(1.,0.,0.));
#195 = ( GEOMETRIC_REPRESENTATION_CONTEXT(3) 
GLOBAL_UNCERTAINTY_ASSIGNED_CONTEXT((#199)) GLOBAL_UNIT_ASSIGNED_CONTEXT
((#196,#197,#198)) REPRESENTATION_CONTEXT('Context #1',
  '3D Context with UNIT and UNCERTAINTY') );
#196 = ( LENGTH_UNIT() NAMED_UNIT(*) SI_UNIT(.MILLI.,.METRE.) );
#197 = ( NAMED_UNIT(*) PLANE_ANGLE_UNIT() SI_UNIT($,.RADIAN.) );
#198 = ( NAMED_UNIT(*) SI_UNIT($,.STERADIAN.) SOLID_ANGLE_UNIT() );
#199 = UNCERTAINTY_MEASURE_WITH_UNIT(LENGTH_MEASURE(1.E-07),#196,
  'distance_accuracy_value','confusion accuracy');
#200 = CONTEXT_DEPENDENT_SHAPE_REPRESENTATION(#201,#203);
#201 = ( REPRESENTATION_RELATIONSHIP('','',#44,#10) 
REPRESENTATION_RELATIONSHIP_WITH_TRANSFORMATION(#202) 
SHAPE_REPRESENTATION_RELATIONSHIP() );
#202 = ITEM_DEFINED_TRANSFORMATION('','',#11,#15);
#203 = PRODUCT_DEFINITION_SHAPE('Placement','Placement of an item',#204
  );
#204 = NEXT_ASSEMBLY_USAGE_OCCURRENCE('21','PinA','',#5,#39,$);
#205 = PRODUCT_RELATED_PRODUCT_CATEGORY('part',$,(#41));
#206 = SHAPE_DEFINITION_REPRESENTATION(#207,#213);
#207 = PRODUCT_DEFINITION_SHAPE('','',#208);
#208 = PRODUCT_DEFINITION('design','',#209,#212);
#209 = PRODUCT_DEFINITION_FORMATION('','',#210);
#210 = PRODUCT('PinB','PinB','',(#211));
#211 = PRODUCT_CONTEXT('',#2,'mechanical');
#212 = PRODUCT_DEFINITION_CONTEXT('part definition',#2,'design');
#213 = ADVANCED_BREP_SHAPE_REPRESENTATION('',(#11,#214),#364);
#214 = MANIFOLD_SOLID_BREP('',#215);
#215 = CLOSED_SHELL('',(#216,#256,#287,#318,#340,#352));
#216 = ADVANCED_FACE('',(#217),#251,.T.);
#217 = FACE_BOUND('',#218,.T.);
#218 = EDGE_LOOP('',(#219,#229,#237,#245));
#219 = ORIENTED_EDGE('',*,*,#220,.T.);
#220 = EDGE_CURVE('',#221,#223,#225,.T.);
#221 = VERTEX_POINT('',#222);
#222 = CARTESIAN_POINT('',(1.02,-0.25,0.));
#223 = VERTEX_POINT('',#224);
#224 = CARTESIAN_POINT('',(1.02,-0.25,-5.));
#225 = LINE('',#226,#227);
#226 = CARTESIAN_POINT('',(1.02,-0.25,0.));
#227 = VECTOR('',#228,1.);
#228 = DIRECTION('',(-0.,-0.,-1.));
#229 = ORIENTED_EDGE('',*,*,#230,.T.);
#230 = EDGE_CURVE('',#223,#231,#233,.T.);
#231 = VERTEX_POINT('',#232);
#232 = CARTESIAN_POINT('',(1.52,-0.25,-5.));
#233 = LINE('',#234,#235);
#234 = CARTESIAN_POINT('',(1.02,-0.25,-5.));
#235 = VECTOR('',#236,1.);
#236 = DIRECTION('',(1.,0.,0.));
#237 = ORIENTED_EDGE('',*,*,#238,.F.);
#238 = EDGE_CURVE('',#239,#231,#241,.T.);
#239 = VERTEX_POINT('',#240);
#240 = CARTESIAN_POINT('',(1.52,-0.25,0.));
#241 = LINE('',#242,#243);
#242 = CARTESIAN_POINT('',(1.52,-0.25,0.));
#243 = VECTOR('',#244,1.);
#244 = DIRECTION('',(-0.,-0.,-1.));
#245 = ORIENTED_EDGE('',*,*,#246,.F.);
#246 = EDGE_CURVE('',#221,#239,#247,.T.);
#247 = LINE('',#248,#249);
#248 = CARTESIAN_POINT('',(1.02,-0.25,0.));
#249 = VECTOR('',#250,1.);
#250 = DIRECTION('',(1.,0.,0.));
#251 = PLANE('',#252);
#252 = AXIS2_PLACEMENT_3D('',#253,#254,#255);
#253 = CARTESIAN_POINT('',(1.02,-0.25,0.));
#254 = DIRECTION('',(0.,-1.,0.));
#255 = DIRECTION('',(1.,0.,0.));
#256 = ADVANCED_FACE('',(#257),#282,.T.);
#257 = FACE_BOUND('',#258,.T.);
#258 = EDGE_LOOP('',(#259,#260,#268,#276));
#259 = ORIENTED_EDGE('',*,*,#238,.T.);
#260 = ORIENTED_EDGE('',*,*,#261,.T.);
#261 = EDGE_CURVE('',#231,#262,#264,.T.);
#262 = VERTEX_POINT('',#263);
#263 = CARTESIAN_POINT('',(1.52,0.25,-5.));
#264 = LINE('',#265,#266);
#265 = CARTESIAN_POINT('',(1.52,-0.25,-5.));
#266 = VECTOR('',#267,1.);
#267 = DIRECTION('',(0.,1.,0.));
#268 = ORIENTED_EDGE('',*,*,#269,.F.);
#269 = EDGE_CURVE('',#270,#262,#272,.T.);
#270 = VERTEX_POINT('',#271);
#271 = CARTESIAN_POINT('',(1.52,0.25,0.));
#272 = LINE('',#273,#274);
#273 = CARTESIAN_POINT('',(1.52,0.25,0.));
#274 = VECTOR('',#275,1.);
#275 = DIRECTION('',(-0.,-0.,-1.));
#276 = ORIENTED_EDGE('',*,*,#277,.F.);
#277 = EDGE_CURVE('',#239,#270,#278,.T.);
#278 = LINE('',#279,#280);
#279 = CARTESIAN_POINT('',(1.52,-0.25,0.));
#280 = VECTOR('',#281,1.);
#281 = DIRECTION('',(0.,1.,0.));
#282 = PLANE('',#283);
#283 = AXIS2_PLACEMENT_3D('',#284,#285,#286);
#284 = CARTESIAN_POINT('',(1.52,-0.25,0.));
#285 = DIRECTION('',(1.,0.,0.));
#286 = DIRECTION('',(-0.,1.,0.));
#287 = ADVANCED_FACE('',(#288),#313,.T.);
#288 = FACE_BOUND('',#289,.T.);
#289 = EDGE_LOOP('',(#290,#291,#299,#307));
#290 = ORIENTED_EDGE('',*,*,#269,.T.);
#291 = ORIENTED_EDGE('',*,*,#292,.T.);
#292 = EDGE_CURVE('',#262,#293,#295,.T.);
#293 = VERTEX_POINT('',#294);
#294 = CARTESIAN_POINT('',(1.02,0.25,-5.));
#295 = LINE('',#296,#297);
#296 = CARTESIAN_POINT('',(1.52,0.25,-5.));
#297 = VECTOR('',#298,1.);
#298 = DIRECTION('',(-1.,0.,0.));
#299 = ORIENTED_EDGE('',*,*,#300,.F.);
#300 = EDGE_CURVE('',#301,#293,#303,.T.);
#301 = VERTEX_POINT('',#302);
#302 = CARTESIAN_POINT('',(1.02,0.25,0.));
#303 = LINE('',#304,#305);
#304 = CARTESIAN_POINT('',(1.02,0.25,0.));
#305 = VECTOR('',#306,1.);
#306 = DIRECTION('',(-0.,-0.,-1.));
#307 = ORIENTED_EDGE('',*,*,#308,.F.);
#308 = EDGE_CURVE('',#270,#301,#309,.T.);
#309 = LINE('',#310,#311);
#310 = CARTESIAN_POINT('',(1.52,0.25,0.));
#311 = VECTOR('',#312,1.);
#312 = DIRECTION('',(-1.,0.,0.));
#313 = PLANE('',#314);
#314 = AXIS2_PLACEMENT_3D('',#315,#316,#317);
#315 = CARTESIAN_POINT('',(1.52,0.25,0.));
#316 = DIRECTION('',(0.,1.,0.));
#317 = DIRECTION('',(-1.,0.,0.));
#318 = ADVANCED_FACE('',(#319),#335,.T.);
#319 = FACE_BOUND('',#320,.T.);
#320 = EDGE_LOOP('',(#321,#322,#328,#329));
#321 = ORIENTED_EDGE('',*,*,#300,.T.);
#322 = ORIENTED_EDGE('',*,*,#323,.T.);
#323 = EDGE_CURVE('',#293,#223,#324,.T.);
#324 = LINE('',#325,#326);
#325 = CARTESIAN_POINT('',(1.02,0.25,-5.));
#326 = VECTOR('',#327,1.);
#327 = DIRECTION('',(0.,-1.,0.));
#328 = ORIENTED_EDGE('',*,*,#220,.F.);
#329 = ORIENTED_EDGE('',*,*,#330,.F.);
#330 = EDGE_CURVE('',#301,#221,#331,.T.);
#331 = LINE('',#332,#333);
#332 = CARTESIAN_POINT('',(1.02,0.25,0.));
#333 = VECTOR('',#334,1.);
#334 = DIRECTION('',(0.,-1.,0.));
#335 = PLANE('',#336);
#336 = AXIS2_PLACEMENT_3D('',#337,#338,#339);
#337 = CARTESIAN_POINT('',(1.02,0.25,0.));
#338 = DIRECTION('',(-1.,0.,0.));
#339 = DIRECTION('',(0.,-1.,0.));
#340 = ADVANCED_FACE('',(#341),#347,.T.);
#341 = FACE_BOUND('',#342,.T.);
#342 = EDGE_LOOP('',(#343,#344,#345,#346));
#343 = ORIENTED_EDGE('',*,*,#246,.T.);
#344 = ORIENTED_EDGE('',*,*,#277,.T.);
#345 = ORIENTED_EDGE('',*,*,#308,.T.);
#346 = ORIENTED_EDGE('',*,*,#330,.T.);
#347 = PLANE('',#348);
#348 = AXIS2_PLACEMENT_3D('',#349,#350,#351);
#349 = CARTESIAN_POINT('',(1.27,0.,0.));
#350 = DIRECTION('',(0.,0.,1.));
#351 = DIRECTION('',(1.,0.,0.));
#352 = ADVANCED_FACE('',(#353),#359,.F.);
#353 = FACE_BOUND('',#354,.F.);
#354 = EDGE_LOOP('',(#355,#356,#357,#358));
#355 = ORIENTED_EDGE('',*,*,#230,.T.);
#356 = ORIENTED_EDGE('',*,*,#261,.T.);
#357 = ORIENTED_EDGE('',*,*,#292,.T.);
#358 = ORIENTED_EDGE('',*,*,#323,.T.);
#359 = PLANE('',#360);
#360 = AXIS2_PLACEMENT_3D('',#361,#362,#363);
#361 = CARTESIAN_POINT('',(1.27,0.,-5.));
#362 = DIRECTION('',(0.,0.,1.));
#363 = DIRECTION('',(1.,0.,0.));
#364 = ( GEOMETRIC_REPRESENTATION_CONTEXT(3) 
GLOBAL_UNCERTAINTY_ASSIGNED_CONTEXT((#368)) GLOBAL_UNIT_ASSIGNED_CONTEXT
((#365,#366,#367)) REPRESENTATION_CONTEXT('Context #1',
  '3D Context with UNIT and UNCERTAINTY') );
#365 = ( LENGTH_UNIT() NAMED_UNIT(*) SI_UNIT(.MILLI.,.METRE.) );
#366 = ( NAMED_UNIT(*) PLANE_ANGLE_UNIT() SI_UNIT($,.RADIAN.) );
#367 = ( NAMED_UNIT(*) SI_UNIT($,.STERADIAN.) SOLID_ANGLE_UNIT() );
#368 = UNCERTAINTY_MEASURE_WITH_UNIT(LENGTH_MEASURE(1.E-07),#365,
  'distance_accuracy_value','confusion accuracy');
#369 = CONTEXT_DEPENDENT_SHAPE_REPRESENTATION(#370,#372);
#370 = ( REPRESENTATION_RELATIONSHIP('','',#213,#10) 
REPRESENTATION_RELATIONSHIP_WITH_TRANSFORMATION(#371) 
SHAPE_REPRESENTATION_RELATIONSHIP() );
#371 = ITEM_DEFINED_TRANSFORMATION('','',#11,#19);
#372 = PRODUCT_DEFINITION_SHAPE('Placement','Placement of an item',#373
  );
#373 = NEXT_ASSEMBLY_USAGE_OCCURRENCE('22','PinB','',#5,#208,$);
#374 = PRODUCT_RELATED_PRODUCT_CATEGORY('part',$,(#210));
#375 = SHAPE_DEFINITION_REPRESENTATION(#376,#382);
#376 = PRODUCT_DEFINITION_SHAPE('','',#377);
#377 = PRODUCT_DEFINITION('design','',#378,#381);
#378 = PRODUCT_DEFINITION_FORMATION('','',#379);
#379 = PRODUCT('LensGroup','LensGroup','',(#380));
#380 = PRODUCT_CONTEXT('',#2,'mechanical');
#381 = PRODUCT_DEFINITION_CONTEXT('part definition',#2,'design');
#382 = SHAPE_REPRESENTATION('',(#11,#383,#387),#391);
#383 = AXIS2_PLACEMENT_3D('',#384,#385,#386);
#384 = CARTESIAN_POINT('',(0.,0.,0.));
#385 = DIRECTION('',(0.,0.,1.));
#386 = DIRECTION('',(1.,0.,0.));
#387 = AXIS2_PLACEMENT_3D('',#388,#389,#390);
#388 = CARTESIAN_POINT('',(0.,0.,0.2));
#389 = DIRECTION('',(0.,0.,1.));
#390 = DIRECTION('',(1.,0.,0.));
#391 = ( GEOMETRIC_REPRESENTATION_CONTEXT(3) 
GLOBAL_UNCERTAINTY_ASSIGNED_CONTEXT((#395)) GLOBAL_UNIT_ASSIGNED_CONTEXT
((#392,#393,#394)) REPRESENTATION_CONTEXT('Context #1',
  '3D Context with UNIT and UNCERTAINTY') );
#392 = ( LENGTH_UNIT() NAMED_UNIT(*) SI_UNIT(.MILLI.,.METRE.) );
#393 = ( NAMED_UNIT(*) PLANE_ANGLE_UNIT() SI_UNIT($,.RADIAN.) );
#394 = ( NAMED_UNIT(*) SI_UNIT($,.STERADIAN.) SOLID_ANGLE_UNIT() );
#395 = UNCERTAINTY_MEASURE_WITH_UNIT(LENGTH_MEASURE(1.E-07),#392,
  'distance_accuracy_value','confusion accuracy');
#396 = CONTEXT_DEPENDENT_SHAPE_REPRESENTATION(#397,#399);
#397 = ( REPRESENTATION_RELATIONSHIP('','',#382,#10) 
REPRESENTATION_RELATIONSHIP_WITH_TRANSFORMATION(#398) 
SHAPE_REPRESENTATION_RELATIONSHIP() );
#398 = ITEM_DEFINED_TRANSFORMATION('','',#11,#23);
#399 = PRODUCT_DEFINITION_SHAPE('Placement','Placement of an item',#400
  );
#400 = NEXT_ASSEMBLY_USAGE_OCCURRENCE('25','LensGroup','',#5,#377,$);
#401 = PRODUCT_RELATED_PRODUCT_CATEGORY('part',$,(#379));
#402 = SHAPE_DEFINITION_REPRESENTATION(#403,#409);
#403 = PRODUCT_DEFINITION_SHAPE('','',#404);
#404 = PRODUCT_DEFINITION('design','',#405,#408);
#405 = PRODUCT_DEFINITION_FORMATION('','',#406);
#406 = PRODUCT('Lens','Lens','',(#407));
#407 = PRODUCT_CONTEXT('',#2,'mechanical');
#408 = PRODUCT_DEFINITION_CONTEXT('part definition',#2,'design');
#409 = ADVANCED_BREP_SHAPE_REPRESENTATION('',(#11,#410),#463);
#410 = MANIFOLD_SOLID_BREP('',#411);
#411 = CLOSED_SHELL('',(#412,#445,#454));
#412 = ADVANCED_FACE('',(#413),#440,.T.);
#413 = FACE_BOUND('',#414,.F.);
#414 = EDGE_LOOP('',(#415,#425,#432,#433));
#415 = ORIENTED_EDGE('',*,*,#416,.T.);
#416 = EDGE_CURVE('',#417,#419,#421,.T.);
#417 = VERTEX_POINT('',#418);
#418 = CARTESIAN_POINT('',(1.5,0.,0.2));
#419 = VERTEX_POINT('',#420);
#420 = CARTESIAN_POINT('',(1.5,0.,4.05));
#421 = LINE('',#422,#423);
#422 = CARTESIAN_POINT('',(1.5,0.,0.2));
#423 = VECTOR('',#424,1.);
#424 = DIRECTION('',(0.,0.,1.));
#425 = ORIENTED_EDGE('',*,*,#426,.T.);
#426 = EDGE_CURVE('',#419,#419,#427,.T.);
#427 = CIRCLE('',#428,1.5);
#428 = AXIS2_PLACEMENT_3D('',#429,#430,#431);
#429 = CARTESIAN_POINT('',(0.,0.,4.05));
#430 = DIRECTION('',(0.,0.,1.));
#431 = DIRECTION('',(1.,0.,0.));
#432 = ORIENTED_EDGE('',*,*,#416,.F.);
#433 = ORIENTED_EDGE('',*,*,#434,.F.);
#434 = EDGE_CURVE('',#417,#417,#435,.T.);
#435 = CIRCLE('',#436,1.5);
#436 = AXIS2_PLACEMENT_3D('',#437,#438,#439);
#437 = CARTESIAN_POINT('',(0.,0.,0.2));
#438 = DIRECTION('',(0.,0.,1.));
#439 = DIRECTION('',(1.,0.,0.));
#440 = CYLINDRICAL_SURFACE('',#441,1.5);
#441 = AXIS2_PLACEMENT_3D('',#442,#443,#444);
#442 = CARTESIAN_POINT('',(0.,0.,0.2));
#443 = DIRECTION('',(-0.,-0.,-1.));
#444 = DIRECTION('',(1.,0.,0.));
#445 = ADVANCED_FACE('',(#446),#449,.F.);
#446 = FACE_BOUND('',#447,.F.);
#447 = EDGE_LOOP('',(#448));
#448 = ORIENTED_EDGE('',*,*,#434,.T.);
#449 = PLANE('',#450);
#450 = AXIS2_PLACEMENT_3D('',#451,#452,#453);
#451 = CARTESIAN_POINT('',(-1.139533443783E-16,-4.255667768225E-18,0.2)
  );
#452 = DIRECTION('',(0.,0.,1.));
#453 = DIRECTION('',(1.,0.,0.));
#454 = ADVANCED_FACE('',(#455),#458,.T.);
#455 = FACE_BOUND('',#456,.T.);
#456 = EDGE_LOOP('',(#457));
#457 = ORIENTED_EDGE('',*,*,#426,.T.);
#458 = PLANE('',#459);
#459 = AXIS2_PLACEMENT_3D('',#460,#461,#462);
#460 = CARTESIAN_POINT('',(-1.139533443783E-16,-4.255667768225E-18,4.05)
  );
#461 = DIRECTION('',(0.,0.,1.));
#462 = DIRECTION('',(1.,0.,0.));
#463 = ( GEOMETRIC_REPRESENTATION_CONTEXT(3) 
GLOBAL_UNCERTAINTY_ASSIGNED_CONTEXT((#467)) GLOBAL_UNIT_ASSIGNED_CONTEXT
((#464,#465,#466)) REPRESENTATION_CONTEXT('Context #1',
  '3D Context with UNIT and UNCERTAINTY') );
#464 = ( LENGTH_UNIT() NAMED_UNIT(*) SI_UNIT(.MILLI.,.METRE.) );
#465 = ( NAMED_UNIT(*) PLANE_ANGLE_UNIT() SI_UNIT($,.RADIAN.) );
#466 = ( NAMED_UNIT(*) SI_UNIT($,.STERADIAN.) SOLID_ANGLE_UNIT() );
#467 = UNCERTAINTY_MEASURE_WITH_UNIT(LENGTH_MEASURE(1.E-07),#464,
  'distance_accuracy_value','confusion accuracy');
#468 = CONTEXT_DEPENDENT_SHAPE_REPRESENTATION(#469,#471);
#469 = ( REPRESENTATION_RELATIONSHIP('','',#409,#382) 
REPRESENTATION_RELATIONSHIP_WITH_TRANSFORMATION(#470) 
SHAPE_REPRESENTATION_RELATIONSHIP() );
#470 = ITEM_DEFINED_TRANSFORMATION('','',#11,#383);
#471 = PRODUCT_DEFINITION_SHAPE('Placement','Placement of an item',#472
  );
#472 = NEXT_ASSEMBLY_USAGE_OCCURRENCE('23','Lens','',#377,#404,$);
#473 = PRODUCT_RELATED_PRODUCT_CATEGORY('part',$,(#406));
#474 = SHAPE_DEFINITION_REPRESENTATION(#475,#481);
#475 = PRODUCT_DEFINITION_SHAPE('','',#476);
#476 = PRODUCT_DEFINITION('design','',#477,#480);
#477 = PRODUCT_DEFINITION_FORMATION('','',#478);
#478 = PRODUCT('Mark','Mark','',(#479));
#479 = PRODUCT_CONTEXT('',#2,'mechanical');
#480 = PRODUCT_DEFINITION_CONTEXT('part definition',#2,'design');
#481 = ADVANCED_BREP_SHAPE_REPRESENTATION('',(#11,#482),#568);
#482 = MANIFOLD_SOLID_BREP('',#483);
#483 = CLOSED_SHELL('',(#484,#526,#548,#558));
#484 = ADVANCED_FACE('',(#485),#521,.T.);
#485 = FACE_BOUND('',#486,.F.);
#486 = EDGE_LOOP('',(#487,#497,#506,#514));
#487 = ORIENTED_EDGE('',*,*,#488,.T.);
#488 = EDGE_CURVE('',#489,#491,#493,.T.);
#489 = VERTEX_POINT('',#490);
#490 = CARTESIAN_POINT('',(1.601435022984,1.21470402451,0.));
#491 = VERTEX_POINT('',#492);
#492 = CARTESIAN_POINT('',(1.601435022984,1.21470402451,0.75));
#493 = LINE('',#494,#495);
#494 = CARTESIAN_POINT('',(1.601435022984,1.21470402451,0.));
#495 = VECTOR('',#496,1.);
#496 = DIRECTION('',(0.,0.,1.));
#497 = ORIENTED_EDGE('',*,*,#498,.T.);
#498 = EDGE_CURVE('',#491,#499,#501,.T.);
#499 = VERTEX_POINT('',#500);
#500 = CARTESIAN_POINT('',(1.601435022984,-1.21470402451,0.75));
#501 = CIRCLE('',#502,2.01);
#502 = AXIS2_PLACEMENT_3D('',#503,#504,#505);
#503 = CARTESIAN_POINT('',(0.,-5.255035177059E-33,0.75));
#504 = DIRECTION('',(0.,0.,1.));
#505 = DIRECTION('',(1.,0.,0.));
#506 = ORIENTED_EDGE('',*,*,#507,.F.);
#507 = EDGE_CURVE('',#508,#499,#510,.T.);
#508 = VERTEX_POINT('',#509);
#509 = CARTESIAN_POINT('',(1.601435022984,-1.21470402451,0.));
#510 = LINE('',#511,#512);
#511 = CARTESIAN_POINT('',(1.601435022984,-1.21470402451,0.));
#512 = VECTOR('',#513,1.);
#513 = DIRECTION('',(0.,0.,1.));
#514 = ORIENTED_EDGE('',*,*,#515,.F.);
#515 = EDGE_CURVE('',#489,#508,#516,.T.);
#516 = CIRCLE('',#517,2.01);
#517 = AXIS2_PLACEMENT_3D('',#518,#519,#520);
#518 = CARTESIAN_POINT('',(0.,-5.255035177059E-33,0.));
#519 = DIRECTION('',(0.,0.,1.));
#520 = DIRECTION('',(1.,0.,0.));
#521 = CYLINDRICAL_SURFACE('',#522,2.01);
#522 = AXIS2_PLACEMENT_3D('',#523,#524,#525);
#523 = CARTESIAN_POINT('',(0.,-5.255035177059E-33,0.));
#524 = DIRECTION('',(-0.,-0.,-1.));
#525 = DIRECTION('',(1.,0.,0.));
#526 = ADVANCED_FACE('',(#527),#543,.F.);
#527 = FACE_BOUND('',#528,.F.);
#528 = EDGE_LOOP('',(#529,#530,#536,#537));
#529 = ORIENTED_EDGE('',*,*,#507,.T.);
#530 = ORIENTED_EDGE('',*,*,#531,.T.);
#531 = EDGE_CURVE('',#499,#491,#532,.T.);
#532 = LINE('',#533,#534);
#533 = CARTESIAN_POINT('',(1.601435022984,-1.21470402451,0.75));
#534 = VECTOR('',#535,1.);
#535 = DIRECTION('',(0.,1.,0.));
#536 = ORIENTED_EDGE('',*,*,#488,.F.);
#537 = ORIENTED_EDGE('',*,*,#538,.F.);
#538 = EDGE_CURVE('',#508,#489,#539,.T.);
#539 = LINE('',#540,#541);
#540 = CARTESIAN_POINT('',(1.601435022984,-1.21470402451,0.));
#541 = VECTOR('',#542,1.);
#542 = DIRECTION('',(0.,1.,0.));
#543 = PLANE('',#544);
#544 = AXIS2_PLACEMENT_3D('',#545,#546,#547);
#545 = CARTESIAN_POINT('',(1.601435022984,-1.21470402451,0.));
#546 = DIRECTION('',(-1.,0.,0.));
#547 = DIRECTION('',(0.,1.,0.));
#548 = ADVANCED_FACE('',(#549),#553,.F.);
#549 = FACE_BOUND('',#550,.F.);
#550 = EDGE_LOOP('',(#551,#552));
#551 = ORIENTED_EDGE('',*,*,#515,.T.);
#552 = ORIENTED_EDGE('',*,*,#538,.T.);
#553 = PLANE('',#554);
#554 = AXIS2_PLACEMENT_3D('',#555,#556,#557);
#555 = CARTESIAN_POINT('',(5.277406974115E-02,1.958739995267E-17,0.));
#556 = DIRECTION('',(0.,0.,1.));
#557 = DIRECTION('',(1.,0.,0.));
#558 = ADVANCED_FACE('',(#559),#563,.T.);
#559 = FACE_BOUND('',#560,.T.);
#560 = EDGE_LOOP('',(#561,#562));
#561 = ORIENTED_EDGE('',*,*,#498,.T.);
#562 = ORIENTED_EDGE('',*,*,#531,.T.);
#563 = PLANE('',#564);
#564 = AXIS2_PLACEMENT_3D('',#565,#566,#567);
#565 = CARTESIAN_POINT('',(5.277406974115E-02,1.958739995267E-17,0.75));
#566 = DIRECTION('',(0.,0.,1.));
#567 = DIRECTION('',(1.,0.,0.));
#568 = ( GEOMETRIC_REPRESENTATION_CONTEXT(3) 
GLOBAL_UNCERTAINTY_ASSIGNED_CONTEXT((#572)) GLOBAL_UNIT_ASSIGNED_CONTEXT
((#569,#570,#571)) REPRESENTATION_CONTEXT('Context #1',
  '3D Context with UNIT and UNCERTAINTY') );
#569 = ( LENGTH_UNIT() NAMED_UNIT(*) SI_UNIT(.MILLI.,.METRE.) );
#570 = ( NAMED_UNIT(*) PLANE_ANGLE_UNIT() SI_UNIT($,.RADIAN.) );
#571 = ( NAMED_UNIT(*) SI_UNIT($,.STERADIAN.) SOLID_ANGLE_UNIT() );
#572 = UNCERTAINTY_MEASURE_WITH_UNIT(LENGTH_MEASURE(1.E-07),#569,
  'distance_accuracy_value','confusion accuracy');
#573 = CONTEXT_DEPENDENT_SHAPE_REPRESENTATION(#574,#576);
#574 = ( REPRESENTATION_RELATIONSHIP('','',#481,#382) 
REPRESENTATION_RELATIONSHIP_WITH_TRANSFORMATION(#575) 
SHAPE_REPRESENTATION_RELATIONSHIP() );
#575 = ITEM_DEFINED_TRANSFORMATION('','',#11,#387);
#576 = PRODUCT_DEFINITION_SHAPE('Placement','Placement of an item',#577
  );
#577 = NEXT_ASSEMBLY_USAGE_OCCURRENCE('24','Mark','',#377,#476,$);
#578 = PRODUCT_RELATED_PRODUCT_CATEGORY('part',$,(#478));
#579 = SHAPE_DEFINITION_REPRESENTATION(#580,#586);
#580 = PRODUCT_DEFINITION_SHAPE('','',#581);
#581 = PRODUCT_DEFINITION('design','',#582,#585);
#582 = PRODUCT_DEFINITION_FORMATION('','',#583);
#583 = PRODUCT('StandOff','StandOff','',(#584));
#584 = PRODUCT_CONTEXT('',#2,'mechanical');
#585 = PRODUCT_DEFINITION_CONTEXT('part definition',#2,'design');
#586 = SHAPE_REPRESENTATION('',(#11,#587,#737),#887);
#587 = MANIFOLD_SOLID_BREP('',#588);
#588 = CLOSED_SHELL('',(#589,#629,#660,#691,#713,#725));
#589 = ADVANCED_FACE('',(#590),#624,.F.);
#590 = FACE_BOUND('',#591,.F.);
#591 = EDGE_LOOP('',(#592,#602,#610,#618));
#592 = ORIENTED_EDGE('',*,*,#593,.T.);
#593 = EDGE_CURVE('',#594,#596,#598,.T.);
#594 = VERTEX_POINT('',#595);
#595 = CARTESIAN_POINT('',(0.52,0.25,0.));
#596 = VERTEX_POINT('',#597);
#597 = CARTESIAN_POINT('',(0.52,0.25,0.2));
#598 = LINE('',#599,#600);
#599 = CARTESIAN_POINT('',(0.52,0.25,0.));
#600 = VECTOR('',#601,1.);
#601 = DIRECTION('',(0.,0.,1.));
#602 = ORIENTED_EDGE('',*,*,#603,.T.);
#603 = EDGE_CURVE('',#596,#604,#606,.T.);
#604 = VERTEX_POINT('',#605);
#605 = CARTESIAN_POINT('',(0.52,-0.25,0.2));
#606 = LINE('',#607,#608);
#607 = CARTESIAN_POINT('',(0.52,0.25,0.2));
#608 = VECTOR('',#609,1.);
#609 = DIRECTION('',(0.,-1.,0.));
#610 = ORIENTED_EDGE('',*,*,#611,.F.);
#611 = EDGE_CURVE('',#612,#604,#614,.T.);
#612 = VERTEX_POINT('',#613);
#613 = CARTESIAN_POINT('',(0.52,-0.25,0.));
#614 = LINE('',#615,#616);
#615 = CARTESIAN_POINT('',(0.52,-0.25,0.));
#616 = VECTOR('',#617,1.);
#617 = DIRECTION('',(0.,0.,1.));
#618 = ORIENTED_EDGE('',*,*,#619,.F.);
#619 = EDGE_CURVE('',#594,#612,#620,.T.);
#620 = LINE('',#621,#622);
#621 = CARTESIAN_POINT('',(0.52,0.25,0.));
#622 = VECTOR('',#623,1.);
#623 = DIRECTION('',(0.,-1.,0.));
#624 = PLANE('',#625);
#625 = AXIS2_PLACEMENT_3D('',#626,#627,#628);
#626 = CARTESIAN_POINT('',(0.52,0.25,0.));
#627 = DIRECTION('',(1.,0.,-0.));
#628 = DIRECTION('',(0.,-1.,0.));
#629 = ADVANCED_FACE('',(#630),#655,.F.);
#630 = FACE_BOUND('',#631,.F.);
#631 = EDGE_LOOP('',(#632,#633,#641,#649));
#632 = ORIENTED_EDGE('',*,*,#611,.T.);
#633 = ORIENTED_EDGE('',*,*,#634,.T.);
#634 = EDGE_CURVE('',#604,#635,#637,.T.);
#635 = VERTEX_POINT('',#636);
#636 = CARTESIAN_POINT('',(1.52,-0.25,0.2));
#637 = LINE('',#638,#639);
#638 = CARTESIAN_POINT('',(0.52,-0.25,0.2));
#639 = VECTOR('',#640,1.);
#640 = DIRECTION('',(1.,0.,0.));
#641 = ORIENTED_EDGE('',*,*,#642,.F.);
#642 = EDGE_CURVE('',#643,#635,#645,.T.);
#643 = VERTEX_POINT('',#644);
#644 = CARTESIAN_POINT('',(1.52,-0.25,0.));
#645 = LINE('',#646,#647);
#646 = CARTESIAN_POINT('',(1.52,-0.25,0.));
#647 = VECTOR('',#648,1.);
#648 = DIRECTION('',(0.,0.,1.));
#649 = ORIENTED_EDGE('',*,*,#650,.F.);
#650 = EDGE_CURVE('',#612,#643,#651,.T.);
#651 = LINE('',#652,#653);
#652 = CARTESIAN_POINT('',(0.52,-0.25,0.));
#653 = VECTOR('',#654,1.);
#654 = DIRECTION('',(1.,0.,0.));
#655 = PLANE('',#656);
#656 = AXIS2_PLACEMENT_3D('',#657,#658,#659);
#657 = CARTESIAN_POINT('',(0.52,-0.25,0.));
#658 = DIRECTION('',(0.,1.,0.));
#659 = DIRECTION('',(1.,0.,0.));
#660 = ADVANCED_FACE('',(#661),#686,.F.);
#661 = FACE_BOUND('',#662,.F.);
#662 = EDGE_LOOP('',(#663,#664,#672,#680));
#663 = ORIENTED_EDGE('',*,*,#642,.T.);
#664 = ORIENTED_EDGE('',*,*,#665,.T.);
#665 = EDGE_CURVE('',#635,#666,#668,.T.);
#666 = VERTEX_POINT('',#667);
#667 = CARTESIAN_POINT('',(1.52,0.25,0.2));
#668 = LINE('',#669,#670);
#669 = CARTESIAN_POINT('',(1.52,-0.25,0.2));
#670 = VECTOR('',#671,1.);
#671 = DIRECTION('',(0.,1.,0.));
#672 = ORIENTED_EDGE('',*,*,#673,.F.);
#673 = EDGE_CURVE('',#674,#666,#676,.T.);
#674 = VERTEX_POINT('',#675);
#675 = CARTESIAN_POINT('',(1.52,0.25,0.));
#676 = LINE('',#677,#678);
#677 = CARTESIAN_POINT('',(1.52,0.25,0.));
#678 = VECTOR('',#679,1.);
#679 = DIRECTION('',(0.,0.,1.));
#680 = ORIENTED_EDGE('',*,*,#681,.F.);
#681 = EDGE_CURVE('',#643,#674,#682,.T.);
#682 = LINE('',#683,#684);
#683 = CARTESIAN_POINT('',(1.52,-0.25,0.));
#684 = VECTOR('',#685,1.);
#685 = DIRECTION('',(0.,1.,0.));
#686 = PLANE('',#687);
#687 = AXIS2_PLACEMENT_3D('',#688,#689,#690);
#688 = CARTESIAN_POINT('',(1.52,-0.25,0.));
#689 = DIRECTION('',(-1.,0.,0.));
#690 = DIRECTION('',(0.,1.,0.));
#691 = ADVANCED_FACE('',(#692),#708,.F.);
#692 = FACE_BOUND('',#693,.F.);
#693 = EDGE_LOOP('',(#694,#695,#701,#702));
#694 = ORIENTED_EDGE('',*,*,#673,.T.);
#695 = ORIENTED_EDGE('',*,*,#696,.T.);
#696 = EDGE_CURVE('',#666,#596,#697,.T.);
#697 = LINE('',#698,#699);
#698 = CARTESIAN_POINT('',(1.52,0.25,0.2));
#699 = VECTOR('',#700,1.);
#700 = DIRECTION('',(-1.,0.,0.));
#701 = ORIENTED_EDGE('',*,*,#593,.F.);
#702 = ORIENTED_EDGE('',*,*,#703,.F.);
#703 = EDGE_CURVE('',#674,#594,#704,.T.);
#704 = LINE('',#705,#706);
#705 = CARTESIAN_POINT('',(1.52,0.25,0.));
#706 = VECTOR('',#707,1.);
#707 = DIRECTION('',(-1.,0.,0.));
#708 = PLANE('',#709);
#709 = AXIS2_PLACEMENT_3D('',#710,#711,#712);
#710 = CARTESIAN_POINT('',(1.52,0.25,0.));
#711 = DIRECTION('',(0.,-1.,0.));
#712 = DIRECTION('',(-1.,0.,0.));
#713 = ADVANCED_FACE('',(#714),#720,.F.);
#714 = FACE_BOUND('',#715,.F.);
#715 = EDGE_LOOP('',(#716,#717,#718,#719));
#716 = ORIENTED_EDGE('',*,*,#619,.T.);
#717 = ORIENTED_EDGE('',*,*,#650,.T.);
#718 = ORIENTED_EDGE('',*,*,#681,.T.);
#719 = ORIENTED_EDGE('',*,*,#703,.T.);
#720 = PLANE('',#721);
#721 = AXIS2_PLACEMENT_3D('',#722,#723,#724);
#722 = CARTESIAN_POINT('',(0.,0.,0.));
#723 = DIRECTION('',(0.,0.,1.));
#724 = DIRECTION('',(1.,0.,-0.));
#725 = ADVANCED_FACE('',(#726),#732,.T.);
#726 = FACE_BOUND('',#727,.T.);
#727 = EDGE_LOOP('',(#728,#729,#730,#731));
#728 = ORIENTED_EDGE('',*,*,#603,.T.);
#729 = ORIENTED_EDGE('',*,*,#634,.T.);
#730 = ORIENTED_EDGE('',*,*,#665,.T.);
#731 = ORIENTED_EDGE('',*,*,#696,.T.);
#732 = PLANE('',#733);
#733 = AXIS2_PLACEMENT_3D('',#734,#735,#736);
#734 = CARTESIAN_POINT('',(0.,0.,0.2));
#735 = DIRECTION('',(0.,0.,1.));
#736 = DIRECTION('',(1.,0.,-0.));
#737 = MANIFOLD_SOLID_BREP('',#738);
#738 = CLOSED_SHELL('',(#739,#779,#810,#841,#863,#875));
#739 = ADVANCED_FACE('',(#740),#774,.F.);
#740 = FACE_BOUND('',#741,.F.);
#741 = EDGE_LOOP('',(#742,#752,#760,#768));
#742 = ORIENTED_EDGE('',*,*,#743,.T.);
#743 = EDGE_CURVE('',#744,#746,#748,.T.);
#744 = VERTEX_POINT('',#745);
#745 = CARTESIAN_POINT('',(-1.52,0.25,0.));
#746 = VERTEX_POINT('',#747);
#747 = CARTESIAN_POINT('',(-1.52,0.25,0.2));
#748 = LINE('',#749,#750);
#749 = CARTESIAN_POINT('',(-1.52,0.25,0.));
#750 = VECTOR('',#751,1.);
#751 = DIRECTION('',(0.,0.,1.));
#752 = ORIENTED_EDGE('',*,*,#753,.T.);
#753 = EDGE_CURVE('',#746,#754,#756,.T.);
#754 = VERTEX_POINT('',#755);
#755 = CARTESIAN_POINT('',(-1.52,-0.25,0.2));
#756 = LINE('',#757,#758);
#757 = CARTESIAN_POINT('',(-1.52,0.25,0.2));
#758 = VECTOR('',#759,1.);
#759 = DIRECTION('',(0.,-1.,0.));
#760 = ORIENTED_EDGE('',*,*,#761,.F.);
#761 = EDGE_CURVE('',#762,#754,#764,.T.);
#762 = VERTEX_POINT('',#763);
#763 = CARTESIAN_POINT('',(-1.52,-0.25,0.));
#764 = LINE('',#765,#766);
#765 = CARTESIAN_POINT('',(-1.52,-0.25,0.));
#766 = VECTOR('',#767,1.);
#767 = DIRECTION('',(0.,0.,1.));
#768 = ORIENTED_EDGE('',*,*,#769,.F.);
#769 = EDGE_CURVE('',#744,#762,#770,.T.);
#770 = LINE('',#771,#772);
#771 = CARTESIAN_POINT('',(-1.52,0.25,0.));
#772 = VECTOR('',#773,1.);
#773 = DIRECTION('',(0.,-1.,0.));
#774 = PLANE('',#775);
#775 = AXIS2_PLACEMENT_3D('',#776,#777,#778);
#776 = CARTESIAN_POINT('',(-1.52,0.25,0.));
#777 = DIRECTION('',(1.,0.,-0.));
#778 = DIRECTION('',(0.,-1.,0.));
#779 = ADVANCED_FACE('',(#780),#805,.F.);
#780 = FACE_BOUND('',#781,.F.);
#781 = EDGE_LOOP('',(#782,#783,#791,#799));
#782 = ORIENTED_EDGE('',*,*,#761,.T.);
#783 = ORIENTED_EDGE('',*,*,#784,.T.);
#784 = EDGE_CURVE('',#754,#785,#787,.T.);
#785 = VERTEX_POINT('',#786);
#786 = CARTESIAN_POINT('',(-0.52,-0.25,0.2));
#787 = LINE('',#788,#789);
#788 = CARTESIAN_POINT('',(-1.52,-0.25,0.2));
#789 = VECTOR('',#790,1.);
#790 = DIRECTION('',(1.,0.,0.));
#791 = ORIENTED_EDGE('',*,*,#792,.F.);
#792 = EDGE_CURVE('',#793,#785,#795,.T.);
#793 = VERTEX_POINT('',#794);
#794 = CARTESIAN_POINT('',(-0.52,-0.25,0.));
#795 = LINE('',#796,#797);
#796 = CARTESIAN_POINT('',(-0.52,-0.25,0.));
#797 = VECTOR('',#798,1.);
#798 = DIRECTION('',(0.,0.,1.));
#799 = ORIENTED_EDGE('',*,*,#800,.F.);
#800 = EDGE_CURVE('',#762,#793,#801,.T.);
#801 = LINE('',#802,#803);
#802 = CARTESIAN_POINT('',(-1.52,-0.25,0.));
#803 = VECTOR('',#804,1.);
#804 = DIRECTION('',(1.,0.,0.));
#805 = PLANE('',#806);
#806 = AXIS2_PLACEMENT_3D('',#807,#808,#809);
#807 = CARTESIAN_POINT('',(-1.52,-0.25,0.));
#808 = DIRECTION('',(0.,1.,0.));
#809 = DIRECTION('',(1.,0.,0.));
#810 = ADVANCED_FACE('',(#811),#836,.F.);
#811 = FACE_BOUND('',#812,.F.);
#812 = EDGE_LOOP('',(#813,#814,#822,#830));
#813 = ORIENTED_EDGE('',*,*,#792,.T.);
#814 = ORIENTED_EDGE('',*,*,#815,.T.);
#815 = EDGE_CURVE('',#785,#816,#818,.T.);
#816 = VERTEX_POINT('',#817);
#817 = CARTESIAN_POINT('',(-0.52,0.25,0.2));
#818 = LINE('',#819,#820);
#819 = CARTESIAN_POINT('',(-0.52,-0.25,0.2));
#820 = VECTOR('',#821,1.);
#821 = DIRECTION('',(0.,1.,0.));
#822 = ORIENTED_EDGE('',*,*,#823,.F.);
#823 = EDGE_CURVE('',#824,#816,#826,.T.);
#824 = VERTEX_POINT('',#825);
#825 = CARTESIAN_POINT('',(-0.52,0.25,0.));
#826 = LINE('',#827,#828);
#827 = CARTESIAN_POINT('',(-0.52,0.25,0.));
#828 = VECTOR('',#829,1.);
#829 = DIRECTION('',(0.,0.,1.));
#830 = ORIENTED_EDGE('',*,*,#831,.F.);
#831 = EDGE_CURVE('',#793,#824,#832,.T.);
#832 = LINE('',#833,#834);
#833 = CARTESIAN_POINT('',(-0.52,-0.25,0.));
#834 = VECTOR('',#835,1.);
#835 = DIRECTION('',(0.,1.,0.));
#836 = PLANE('',#837);
#837 = AXIS2_PLACEMENT_3D('',#838,#839,#840);
#838 = CARTESIAN_POINT('',(-0.52,-0.25,0.));
#839 = DIRECTION('',(-1.,0.,0.));
#840 = DIRECTION('',(0.,1.,0.));
#841 = ADVANCED_FACE('',(#842),#858,.F.);
#842 = FACE_BOUND('',#843,.F.);
#843 = EDGE_LOOP('',(#844,#845,#851,#852));
#844 = ORIENTED_EDGE('',*,*,#823,.T.);
#845 = ORIENTED_EDGE('',*,*,#846,.T.);
#846 = EDGE_CURVE('',#816,#746,#847,.T.);
#847 = LINE('',#848,#849);
#848 = CARTESIAN_POINT('',(-0.52,0.25,0.2));
#849 = VECTOR('',#850,1.);
#850 = DIRECTION('',(-1.,0.,0.));
#851 = ORIENTED_EDGE('',*,*,#743,.F.);
#852 = ORIENTED_EDGE('',*,*,#853,.F.);
#853 = EDGE_CURVE('',#824,#744,#854,.T.);
#854 = LINE('',#855,#856);
#855 = CARTESIAN_POINT('',(-0.52,0.25,0.));
#856 = VECTOR('',#857,1.);
#857 = DIRECTION('',(-1.,0.,0.));
#858 = PLANE('',#859);
#859 = AXIS2_PLACEMENT_3D('',#860,#861,#862);
#860 = CARTESIAN_POINT('',(-0.52,0.25,0.));
#861 = DIRECTION('',(0.,-1.,0.));
#862 = DIRECTION('',(-1.,0.,0.));
#863 = ADVANCED_FACE('',(#864),#870,.F.);
#864 = FACE_BOUND('',#865,.F.);
#865 = EDGE_LOOP('',(#866,#867,#868,#869));
#866 = ORIENTED_EDGE('',*,*,#769,.T.);
#867 = ORIENTED_EDGE('',*,*,#800,.T.);
#868 = ORIENTED_EDGE('',*,*,#831,.T.);
#869 = ORIENTED_EDGE('',*,*,#853,.T.);
#870 = PLANE('',#871);
#871 = AXIS2_PLACEMENT_3D('',#872,#873,#874);
#872 = CARTESIAN_POINT('',(0.,0.,0.));
#873 = DIRECTION('',(0.,0.,1.));
#874 = DIRECTION('',(1.,0.,-0.));
#875 = ADVANCED_FACE('',(#876),#882,.T.);
#876 = FACE_BOUND('',#877,.T.);
#877 = EDGE_LOOP('',(#878,#879,#880,#881));
#878 = ORIENTED_EDGE('',*,*,#753,.T.);
#879 = ORIENTED_EDGE('',*,*,#784,.T.);
#880 = ORIENTED_EDGE('',*,*,#815,.T.);
#881 = ORIENTED_EDGE('',*,*,#846,.T.);
#882 = PLANE('',#883);
#883 = AXIS2_PLACEMENT_3D('',#884,#885,#886);
#884 = CARTESIAN_POINT('',(0.,0.,0.2));
#885 = DIRECTION('',(0.,0.,1.));
#886 = DIRECTION('',(1.,0.,-0.));
#887 = ( GEOMETRIC_REPRESENTATION_CONTEXT(3) 
GLOBAL_UNCERTAINTY_ASSIGNED_CONTEXT((#891)) GLOBAL_UNIT_ASSIGNED_CONTEXT
((#888,#889,#890)) REPRESENTATION_CONTEXT('Context #1',
  '3D Context with UNIT and UNCERTAINTY') );
#888 = ( LENGTH_UNIT() NAMED_UNIT(*) SI_UNIT(.MILLI.,.METRE.) );
#889 = ( NAMED_UNIT(*) PLANE_ANGLE_UNIT() SI_UNIT($,.RADIAN.) );
#890 = ( NAMED_UNIT(*) SI_UNIT($,.STERADIAN.) SOLID_ANGLE_UNIT() );
#891 = UNCERTAINTY_MEASURE_WITH_UNIT(LENGTH_MEASURE(1.E-07),#888,
  'distance_accuracy_value','confusion accuracy');
#892 = CONTEXT_DEPENDENT_SHAPE_REPRESENTATION(#893,#895);
#893 = ( REPRESENTATION_RELATIONSHIP('','',#586,#10) 
REPRESENTATION_RELATIONSHIP_WITH_TRANSFORMATION(#894) 
SHAPE_REPRESENTATION_RELATIONSHIP() );
#894 = ITEM_DEFINED_TRANSFORMATION('','',#11,#27);
#895 = PRODUCT_DEFINITION_SHAPE('Placement','Placement of an item',#896
  );
#896 = NEXT_ASSEMBLY_USAGE_OCCURRENCE('26','StandOff','',#5,#581,$);
#897 = PRODUCT_RELATED_PRODUCT_CATEGORY('part',$,(#583));
#898 = MECHANICAL_DESIGN_GEOMETRIC_PRESENTATION_REPRESENTATION('',(#899)
  ,#568);
#899 = STYLED_ITEM('color',(#900),#482);
#900 = PRESENTATION_STYLE_ASSIGNMENT((#901,#907));
#901 = SURFACE_STYLE_USAGE(.BOTH.,#902);
#902 = SURFACE_SIDE_STYLE('',(#903));
#903 = SURFACE_STYLE_FILL_AREA(#904);
#904 = FILL_AREA_STYLE('',(#905));
#905 = FILL_AREA_STYLE_COLOUR('',#906);
#906 = COLOUR_RGB('',0.,0.666666687201,0.);
#907 = CURVE_STYLE('',#908,POSITIVE_LENGTH_MEASURE(0.1),#909);
#908 = DRAUGHTING_PRE_DEFINED_CURVE_FONT('continuous');
#909 = COLOUR_RGB('',9.803921802644E-02,9.803921802644E-02,
  9.803921802644E-02);
#910 = MECHANICAL_DESIGN_GEOMETRIC_PRESENTATION_REPRESENTATION('',(#911)
  ,#463);
#911 = STYLED_ITEM('color',(#912),#410);
#912 = PRESENTATION_STYLE_ASSIGNMENT((#913,#918));
#913 = SURFACE_STYLE_USAGE(.BOTH.,#914);
#914 = SURFACE_SIDE_STYLE('',(#915));
#915 = SURFACE_STYLE_FILL_AREA(#916);
#916 = FILL_AREA_STYLE('',(#917));
#917 = FILL_AREA_STYLE_COLOUR('',#906);
#918 = CURVE_STYLE('',#919,POSITIVE_LENGTH_MEASURE(0.1),#909);
#919 = DRAUGHTING_PRE_DEFINED_CURVE_FONT('continuous');
#920 = MECHANICAL_DESIGN_GEOMETRIC_PRESENTATION_REPRESENTATION('',(#921)
  ,#364);
#921 = STYLED_ITEM('color',(#922),#214);
#922 = PRESENTATION_STYLE_ASSIGNMENT((#923,#929));
#923 = SURFACE_STYLE_USAGE(.BOTH.,#924);
#924 = SURFACE_SIDE_STYLE('',(#925));
#925 = SURFACE_STYLE_FILL_AREA(#926);
#926 = FILL_AREA_STYLE('',(#927));
#927 = FILL_AREA_STYLE_COLOUR('',#928);
#928 = COLOUR_RGB('',0.800000010877,0.800000010877,0.901960800373);
#929 = CURVE_STYLE('',#930,POSITIVE_LENGTH_MEASURE(0.1),#909);
#930 = DRAUGHTING_PRE_DEFINED_CURVE_FONT('continuous');
#931 = MECHANICAL_DESIGN_GEOMETRIC_PRESENTATION_REPRESENTATION('',(#932)
  ,#195);
#932 = STYLED_ITEM('color',(#933),#45);
#933 = PRESENTATION_STYLE_ASSIGNMENT((#934,#939));
#934 = SURFACE_STYLE_USAGE(.BOTH.,#935);
#935 = SURFACE_SIDE_STYLE('',(#936));
#936 = SURFACE_STYLE_FILL_AREA(#937);
#937 = FILL_AREA_STYLE('',(#938));
#938 = FILL_AREA_STYLE_COLOUR('',#928);
#939 = CURVE_STYLE('',#940,POSITIVE_LENGTH_MEASURE(0.1),#909);
#940 = DRAUGHTING_PRE_DEFINED_CURVE_FONT('continuous');
#941 = MECHANICAL_DESIGN_GEOMETRIC_PRESENTATION_REPRESENTATION('',(#942,
    #952),#887);
#942 = STYLED_ITEM('color',(#943),#587);
#943 = PRESENTATION_STYLE_ASSIGNMENT((#944,#949));
#944 = SURFACE_STYLE_USAGE(.BOTH.,#945);
#945 = SURFACE_SIDE_STYLE('',(#946));
#946 = SURFACE_STYLE_FILL_AREA(#947);
#947 = FILL_AREA_STYLE('',(#948));
#948 = FILL_AREA_STYLE_COLOUR('',#928);
#949 = CURVE_STYLE('',#950,POSITIVE_LENGTH_MEASURE(0.1),#951);
#950 = DRAUGHTING_PRE_DEFINED_CURVE_FONT('continuous');
#951 = DRAUGHTING_PRE_DEFINED_COLOUR('black');
#952 = STYLED_ITEM('color',(#953),#737);
#953 = PRESENTATION_STYLE_ASSIGNMENT((#954,#959));
#954 = SURFACE_STYLE_USAGE(.BOTH.,#955);
#955 = SURFACE_SIDE_STYLE('',(#956));
#956 = SURFACE_STYLE_FILL_AREA(#957);
#957 = FILL_AREA_STYLE('',(#958));
#958 = FILL_AREA_STYLE_COLOUR('',#928);
#959 = CURVE_STYLE('',#960,POSITIVE_LENGTH_MEASURE(0.1),#951);
#960 = DRAUGHTING_PRE_DEFINED_CURVE_FONT('continuous');
ENDSEC;
END-ISO-10303-21;
