ISO-10303-21;
HEADER;
FILE_DESCRIPTION(('FreeCAD Model'),'2;1');
FILE_NAME('Open CASCADE Shape Model','2026-06-09T15:46:36',(''),(''),
  'Open CASCADE STEP processor 7.8','FreeCAD','Unknown');
FILE_SCHEMA(('AUTOMOTIVE_DESIGN { 1 0 10303 214 1 1 1 1 }'));
ENDSEC;
DATA;
#1 = APPLICATION_PROTOCOL_DEFINITION('international standard',
  'automotive_design',2000,#2);
#2 = APPLICATION_CONTEXT(
  'core data for automotive mechanical design processes');
#3 = SHAPE_DEFINITION_REPRESENTATION(#4,#10);
#4 = PRODUCT_DEFINITION_SHAPE('','',#5);
#5 = PRODUCT_DEFINITION('design','',#6,#9);
#6 = PRODUCT_DEFINITION_FORMATION('','',#7);
#7 = PRODUCT('LED','LED','',(#8));
#8 = PRODUCT_CONTEXT('',#2,'mechanical');
#9 = PRODUCT_DEFINITION_CONTEXT('part definition',#2,'design');
#10 = SHAPE_REPRESENTATION('',(#11,#15,#19,#23,#27),#31);
#11 = AXIS2_PLACEMENT_3D('',#12,#13,#14);
#12 = CARTESIAN_POINT('',(0.,0.,0.));
#13 = DIRECTION('',(0.,0.,1.));
#14 = DIRECTION('',(1.,0.,-0.));
#15 = AXIS2_PLACEMENT_3D('',#16,#17,#18);
#16 = CARTESIAN_POINT('',(0.,0.,0.));
#17 = DIRECTION('',(0.,0.,1.));
#18 = DIRECTION('',(1.,0.,0.));
#19 = AXIS2_PLACEMENT_3D('',#20,#21,#22);
#20 = CARTESIAN_POINT('',(0.,0.,0.));
#21 = DIRECTION('',(0.,0.,1.));
#22 = DIRECTION('',(1.,0.,0.));
#23 = AXIS2_PLACEMENT_3D('',#24,#25,#26);
#24 = CARTESIAN_POINT('',(0.,0.,0.));
#25 = DIRECTION('',(0.,0.,1.));
#26 = DIRECTION('',(1.,0.,0.));
#27 = AXIS2_PLACEMENT_3D('',#28,#29,#30);
#28 = CARTESIAN_POINT('',(0.,0.,0.));
#29 = DIRECTION('',(0.,0.,1.));
#30 = DIRECTION('',(1.,0.,0.));
#31 = ( GEOMETRIC_REPRESENTATION_CONTEXT(3) 
GLOBAL_UNCERTAINTY_ASSIGNED_CONTEXT((#35)) GLOBAL_UNIT_ASSIGNED_CONTEXT(
(#32,#33,#34)) REPRESENTATION_CONTEXT('Context #1',
  '3D Context with UNIT and UNCERTAINTY') );
#32 = ( LENGTH_UNIT() NAMED_UNIT(*) SI_UNIT(.MILLI.,.METRE.) );
#33 = ( NAMED_UNIT(*) PLANE_ANGLE_UNIT() SI_UNIT($,.RADIAN.) );
#34 = ( NAMED_UNIT(*) SI_UNIT($,.STERADIAN.) SOLID_ANGLE_UNIT() );
#35 = UNCERTAINTY_MEASURE_WITH_UNIT(LENGTH_MEASURE(1.E-07),#32,
  'distance_accuracy_value','confusion accuracy');
#36 = PRODUCT_RELATED_PRODUCT_CATEGORY('part',$,(#7));
#37 = SHAPE_DEFINITION_REPRESENTATION(#38,#44);
#38 = PRODUCT_DEFINITION_SHAPE('','',#39);
#39 = PRODUCT_DEFINITION('design','',#40,#43);
#40 = PRODUCT_DEFINITION_FORMATION('','',#41);
#41 = PRODUCT('LensGroup','LensGroup','',(#42));
#42 = PRODUCT_CONTEXT('',#2,'mechanical');
#43 = PRODUCT_DEFINITION_CONTEXT('part definition',#2,'design');
#44 = SHAPE_REPRESENTATION('',(#11,#45,#49),#53);
#45 = AXIS2_PLACEMENT_3D('',#46,#47,#48);
#46 = CARTESIAN_POINT('',(0.,0.,1.1));
#47 = DIRECTION('',(0.,0.,1.));
#48 = DIRECTION('',(1.,0.,0.));
#49 = AXIS2_PLACEMENT_3D('',#50,#51,#52);
#50 = CARTESIAN_POINT('',(0.,0.,1.1));
#51 = DIRECTION('',(0.,0.,1.));
#52 = DIRECTION('',(1.,0.,0.));
#53 = ( GEOMETRIC_REPRESENTATION_CONTEXT(3) 
GLOBAL_UNCERTAINTY_ASSIGNED_CONTEXT((#57)) GLOBAL_UNIT_ASSIGNED_CONTEXT(
(#54,#55,#56)) REPRESENTATION_CONTEXT('Context #1',
  '3D Context with UNIT and UNCERTAINTY') );
#54 = ( LENGTH_UNIT() NAMED_UNIT(*) SI_UNIT(.MILLI.,.METRE.) );
#55 = ( NAMED_UNIT(*) PLANE_ANGLE_UNIT() SI_UNIT($,.RADIAN.) );
#56 = ( NAMED_UNIT(*) SI_UNIT($,.STERADIAN.) SOLID_ANGLE_UNIT() );
#57 = UNCERTAINTY_MEASURE_WITH_UNIT(LENGTH_MEASURE(1.E-07),#54,
  'distance_accuracy_value','confusion accuracy');
#58 = CONTEXT_DEPENDENT_SHAPE_REPRESENTATION(#59,#61);
#59 = ( REPRESENTATION_RELATIONSHIP('','',#44,#10) 
REPRESENTATION_RELATIONSHIP_WITH_TRANSFORMATION(#60) 
SHAPE_REPRESENTATION_RELATIONSHIP() );
#60 = ITEM_DEFINED_TRANSFORMATION('','',#11,#15);
#61 = PRODUCT_DEFINITION_SHAPE('Placement','Placement of an item',#62);
#62 = NEXT_ASSEMBLY_USAGE_OCCURRENCE('58','LensGroup','',#5,#39,$);
#63 = PRODUCT_RELATED_PRODUCT_CATEGORY('part',$,(#41));
#64 = SHAPE_DEFINITION_REPRESENTATION(#65,#71);
#65 = PRODUCT_DEFINITION_SHAPE('','',#66);
#66 = PRODUCT_DEFINITION('design','',#67,#70);
#67 = PRODUCT_DEFINITION_FORMATION('','',#68);
#68 = PRODUCT('Lens','Lens','',(#69));
#69 = PRODUCT_CONTEXT('',#2,'mechanical');
#70 = PRODUCT_DEFINITION_CONTEXT('part definition',#2,'design');
#71 = ADVANCED_BREP_SHAPE_REPRESENTATION('',(#11,#72),#135);
#72 = MANIFOLD_SOLID_BREP('',#73);
#73 = CLOSED_SHELL('',(#74,#107,#126));
#74 = ADVANCED_FACE('',(#75),#102,.T.);
#75 = FACE_BOUND('',#76,.F.);
#76 = EDGE_LOOP('',(#77,#87,#94,#95));
#77 = ORIENTED_EDGE('',*,*,#78,.T.);
#78 = EDGE_CURVE('',#79,#81,#83,.T.);
#79 = VERTEX_POINT('',#80);
#80 = CARTESIAN_POINT('',(1.5,0.,0.));
#81 = VERTEX_POINT('',#82);
#82 = CARTESIAN_POINT('',(1.5,0.,3.95));
#83 = LINE('',#84,#85);
#84 = CARTESIAN_POINT('',(1.5,0.,0.));
#85 = VECTOR('',#86,1.);
#86 = DIRECTION('',(0.,0.,1.));
#87 = ORIENTED_EDGE('',*,*,#88,.T.);
#88 = EDGE_CURVE('',#81,#81,#89,.T.);
#89 = CIRCLE('',#90,1.5);
#90 = AXIS2_PLACEMENT_3D('',#91,#92,#93);
#91 = CARTESIAN_POINT('',(0.,0.,3.95));
#92 = DIRECTION('',(0.,0.,1.));
#93 = DIRECTION('',(1.,0.,0.));
#94 = ORIENTED_EDGE('',*,*,#78,.F.);
#95 = ORIENTED_EDGE('',*,*,#96,.F.);
#96 = EDGE_CURVE('',#79,#79,#97,.T.);
#97 = CIRCLE('',#98,1.5);
#98 = AXIS2_PLACEMENT_3D('',#99,#100,#101);
#99 = CARTESIAN_POINT('',(0.,0.,0.));
#100 = DIRECTION('',(0.,0.,1.));
#101 = DIRECTION('',(1.,0.,0.));
#102 = CYLINDRICAL_SURFACE('',#103,1.5);
#103 = AXIS2_PLACEMENT_3D('',#104,#105,#106);
#104 = CARTESIAN_POINT('',(0.,0.,0.));
#105 = DIRECTION('',(-0.,-0.,-1.));
#106 = DIRECTION('',(1.,0.,0.));
#107 = ADVANCED_FACE('',(#108),#121,.T.);
#108 = FACE_BOUND('',#109,.T.);
#109 = EDGE_LOOP('',(#110,#119,#120));
#110 = ORIENTED_EDGE('',*,*,#111,.F.);
#111 = EDGE_CURVE('',#81,#112,#114,.T.);
#112 = VERTEX_POINT('',#113);
#113 = CARTESIAN_POINT('',(9.184850993605E-17,0.,5.45));
#114 = CIRCLE('',#115,1.5);
#115 = AXIS2_PLACEMENT_3D('',#116,#117,#118);
#116 = CARTESIAN_POINT('',(0.,0.,3.95));
#117 = DIRECTION('',(0.,-1.,0.));
#118 = DIRECTION('',(1.,0.,0.));
#119 = ORIENTED_EDGE('',*,*,#88,.T.);
#120 = ORIENTED_EDGE('',*,*,#111,.T.);
#121 = SPHERICAL_SURFACE('',#122,1.5);
#122 = AXIS2_PLACEMENT_3D('',#123,#124,#125);
#123 = CARTESIAN_POINT('',(0.,0.,3.95));
#124 = DIRECTION('',(0.,0.,1.));
#125 = DIRECTION('',(1.,0.,0.));
#126 = ADVANCED_FACE('',(#127),#130,.F.);
#127 = FACE_BOUND('',#128,.F.);
#128 = EDGE_LOOP('',(#129));
#129 = ORIENTED_EDGE('',*,*,#96,.T.);
#130 = PLANE('',#131);
#131 = AXIS2_PLACEMENT_3D('',#132,#133,#134);
#132 = CARTESIAN_POINT('',(-1.139533443783E-16,-4.255667768225E-18,0.));
#133 = DIRECTION('',(0.,0.,1.));
#134 = DIRECTION('',(1.,0.,0.));
#135 = ( GEOMETRIC_REPRESENTATION_CONTEXT(3) 
GLOBAL_UNCERTAINTY_ASSIGNED_CONTEXT((#139)) GLOBAL_UNIT_ASSIGNED_CONTEXT
((#136,#137,#138)) REPRESENTATION_CONTEXT('Context #1',
  '3D Context with UNIT and UNCERTAINTY') );
#136 = ( LENGTH_UNIT() NAMED_UNIT(*) SI_UNIT(.MILLI.,.METRE.) );
#137 = ( NAMED_UNIT(*) PLANE_ANGLE_UNIT() SI_UNIT($,.RADIAN.) );
#138 = ( NAMED_UNIT(*) SI_UNIT($,.STERADIAN.) SOLID_ANGLE_UNIT() );
#139 = UNCERTAINTY_MEASURE_WITH_UNIT(LENGTH_MEASURE(1.E-07),#136,
  'distance_accuracy_value','confusion accuracy');
#140 = CONTEXT_DEPENDENT_SHAPE_REPRESENTATION(#141,#143);
#141 = ( REPRESENTATION_RELATIONSHIP('','',#71,#44) 
REPRESENTATION_RELATIONSHIP_WITH_TRANSFORMATION(#142) 
SHAPE_REPRESENTATION_RELATIONSHIP() );
#142 = ITEM_DEFINED_TRANSFORMATION('','',#11,#45);
#143 = PRODUCT_DEFINITION_SHAPE('Placement','Placement of an item',#144
  );
#144 = NEXT_ASSEMBLY_USAGE_OCCURRENCE('56','Lens','',#39,#66,$);
#145 = PRODUCT_RELATED_PRODUCT_CATEGORY('part',$,(#68));
#146 = SHAPE_DEFINITION_REPRESENTATION(#147,#153);
#147 = PRODUCT_DEFINITION_SHAPE('','',#148);
#148 = PRODUCT_DEFINITION('design','',#149,#152);
#149 = PRODUCT_DEFINITION_FORMATION('','',#150);
#150 = PRODUCT('Mark','Mark','',(#151));
#151 = PRODUCT_CONTEXT('',#2,'mechanical');
#152 = PRODUCT_DEFINITION_CONTEXT('part definition',#2,'design');
#153 = ADVANCED_BREP_SHAPE_REPRESENTATION('',(#11,#154),#207);
#154 = MANIFOLD_SOLID_BREP('',#155);
#155 = CLOSED_SHELL('',(#156,#189,#198));
#156 = ADVANCED_FACE('',(#157),#184,.T.);
#157 = FACE_BOUND('',#158,.F.);
#158 = EDGE_LOOP('',(#159,#169,#176,#177));
#159 = ORIENTED_EDGE('',*,*,#160,.T.);
#160 = EDGE_CURVE('',#161,#163,#165,.T.);
#161 = VERTEX_POINT('',#162);
#162 = CARTESIAN_POINT('',(1.6,0.,0.));
#163 = VERTEX_POINT('',#164);
#164 = CARTESIAN_POINT('',(1.6,0.,1.));
#165 = LINE('',#166,#167);
#166 = CARTESIAN_POINT('',(1.6,0.,0.));
#167 = VECTOR('',#168,1.);
#168 = DIRECTION('',(0.,0.,1.));
#169 = ORIENTED_EDGE('',*,*,#170,.T.);
#170 = EDGE_CURVE('',#163,#163,#171,.T.);
#171 = CIRCLE('',#172,1.6);
#172 = AXIS2_PLACEMENT_3D('',#173,#174,#175);
#173 = CARTESIAN_POINT('',(0.,0.,1.));
#174 = DIRECTION('',(0.,0.,1.));
#175 = DIRECTION('',(1.,0.,0.));
#176 = ORIENTED_EDGE('',*,*,#160,.F.);
#177 = ORIENTED_EDGE('',*,*,#178,.F.);
#178 = EDGE_CURVE('',#161,#161,#179,.T.);
#179 = CIRCLE('',#180,1.6);
#180 = AXIS2_PLACEMENT_3D('',#181,#182,#183);
#181 = CARTESIAN_POINT('',(0.,0.,0.));
#182 = DIRECTION('',(0.,0.,1.));
#183 = DIRECTION('',(1.,0.,0.));
#184 = CYLINDRICAL_SURFACE('',#185,1.6);
#185 = AXIS2_PLACEMENT_3D('',#186,#187,#188);
#186 = CARTESIAN_POINT('',(0.,0.,0.));
#187 = DIRECTION('',(-0.,-0.,-1.));
#188 = DIRECTION('',(1.,0.,0.));
#189 = ADVANCED_FACE('',(#190),#193,.F.);
#190 = FACE_BOUND('',#191,.F.);
#191 = EDGE_LOOP('',(#192));
#192 = ORIENTED_EDGE('',*,*,#178,.T.);
#193 = PLANE('',#194);
#194 = AXIS2_PLACEMENT_3D('',#195,#196,#197);
#195 = CARTESIAN_POINT('',(-5.341563017732E-17,9.493239457744E-17,0.));
#196 = DIRECTION('',(0.,0.,1.));
#197 = DIRECTION('',(1.,0.,0.));
#198 = ADVANCED_FACE('',(#199),#202,.T.);
#199 = FACE_BOUND('',#200,.T.);
#200 = EDGE_LOOP('',(#201));
#201 = ORIENTED_EDGE('',*,*,#170,.T.);
#202 = PLANE('',#203);
#203 = AXIS2_PLACEMENT_3D('',#204,#205,#206);
#204 = CARTESIAN_POINT('',(-5.341563017732E-17,9.493239457744E-17,1.));
#205 = DIRECTION('',(0.,0.,1.));
#206 = DIRECTION('',(1.,0.,0.));
#207 = ( GEOMETRIC_REPRESENTATION_CONTEXT(3) 
GLOBAL_UNCERTAINTY_ASSIGNED_CONTEXT((#211)) GLOBAL_UNIT_ASSIGNED_CONTEXT
((#208,#209,#210)) REPRESENTATION_CONTEXT('Context #1',
  '3D Context with UNIT and UNCERTAINTY') );
#208 = ( LENGTH_UNIT() NAMED_UNIT(*) SI_UNIT(.MILLI.,.METRE.) );
#209 = ( NAMED_UNIT(*) PLANE_ANGLE_UNIT() SI_UNIT($,.RADIAN.) );
#210 = ( NAMED_UNIT(*) SI_UNIT($,.STERADIAN.) SOLID_ANGLE_UNIT() );
#211 = UNCERTAINTY_MEASURE_WITH_UNIT(LENGTH_MEASURE(1.E-07),#208,
  'distance_accuracy_value','confusion accuracy');
#212 = CONTEXT_DEPENDENT_SHAPE_REPRESENTATION(#213,#215);
#213 = ( REPRESENTATION_RELATIONSHIP('','',#153,#44) 
REPRESENTATION_RELATIONSHIP_WITH_TRANSFORMATION(#214) 
SHAPE_REPRESENTATION_RELATIONSHIP() );
#214 = ITEM_DEFINED_TRANSFORMATION('','',#11,#49);
#215 = PRODUCT_DEFINITION_SHAPE('Placement','Placement of an item',#216
  );
#216 = NEXT_ASSEMBLY_USAGE_OCCURRENCE('57','Mark','',#39,#148,$);
#217 = PRODUCT_RELATED_PRODUCT_CATEGORY('part',$,(#150));
#218 = SHAPE_DEFINITION_REPRESENTATION(#219,#225);
#219 = PRODUCT_DEFINITION_SHAPE('','',#220);
#220 = PRODUCT_DEFINITION('design','',#221,#224);
#221 = PRODUCT_DEFINITION_FORMATION('','',#222);
#222 = PRODUCT('PinA','PinA','',(#223));
#223 = PRODUCT_CONTEXT('',#2,'mechanical');
#224 = PRODUCT_DEFINITION_CONTEXT('part definition',#2,'design');
#225 = ADVANCED_BREP_SHAPE_REPRESENTATION('',(#11,#226),#376);
#226 = MANIFOLD_SOLID_BREP('',#227);
#227 = CLOSED_SHELL('',(#228,#268,#299,#330,#352,#364));
#228 = ADVANCED_FACE('',(#229),#263,.T.);
#229 = FACE_BOUND('',#230,.T.);
#230 = EDGE_LOOP('',(#231,#241,#249,#257));
#231 = ORIENTED_EDGE('',*,*,#232,.T.);
#232 = EDGE_CURVE('',#233,#235,#237,.T.);
#233 = VERTEX_POINT('',#234);
#234 = CARTESIAN_POINT('',(-1.52,-0.25,0.));
#235 = VERTEX_POINT('',#236);
#236 = CARTESIAN_POINT('',(-1.52,-0.25,-5.));
#237 = LINE('',#238,#239);
#238 = CARTESIAN_POINT('',(-1.52,-0.25,0.));
#239 = VECTOR('',#240,1.);
#240 = DIRECTION('',(-0.,-0.,-1.));
#241 = ORIENTED_EDGE('',*,*,#242,.T.);
#242 = EDGE_CURVE('',#235,#243,#245,.T.);
#243 = VERTEX_POINT('',#244);
#244 = CARTESIAN_POINT('',(-1.02,-0.25,-5.));
#245 = LINE('',#246,#247);
#246 = CARTESIAN_POINT('',(-1.52,-0.25,-5.));
#247 = VECTOR('',#248,1.);
#248 = DIRECTION('',(1.,0.,0.));
#249 = ORIENTED_EDGE('',*,*,#250,.F.);
#250 = EDGE_CURVE('',#251,#243,#253,.T.);
#251 = VERTEX_POINT('',#252);
#252 = CARTESIAN_POINT('',(-1.02,-0.25,0.));
#253 = LINE('',#254,#255);
#254 = CARTESIAN_POINT('',(-1.02,-0.25,0.));
#255 = VECTOR('',#256,1.);
#256 = DIRECTION('',(-0.,-0.,-1.));
#257 = ORIENTED_EDGE('',*,*,#258,.F.);
#258 = EDGE_CURVE('',#233,#251,#259,.T.);
#259 = LINE('',#260,#261);
#260 = CARTESIAN_POINT('',(-1.52,-0.25,0.));
#261 = VECTOR('',#262,1.);
#262 = DIRECTION('',(1.,0.,0.));
#263 = PLANE('',#264);
#264 = AXIS2_PLACEMENT_3D('',#265,#266,#267);
#265 = CARTESIAN_POINT('',(-1.52,-0.25,0.));
#266 = DIRECTION('',(0.,-1.,0.));
#267 = DIRECTION('',(1.,0.,0.));
#268 = ADVANCED_FACE('',(#269),#294,.T.);
#269 = FACE_BOUND('',#270,.T.);
#270 = EDGE_LOOP('',(#271,#272,#280,#288));
#271 = ORIENTED_EDGE('',*,*,#250,.T.);
#272 = ORIENTED_EDGE('',*,*,#273,.T.);
#273 = EDGE_CURVE('',#243,#274,#276,.T.);
#274 = VERTEX_POINT('',#275);
#275 = CARTESIAN_POINT('',(-1.02,0.25,-5.));
#276 = LINE('',#277,#278);
#277 = CARTESIAN_POINT('',(-1.02,-0.25,-5.));
#278 = VECTOR('',#279,1.);
#279 = DIRECTION('',(0.,1.,0.));
#280 = ORIENTED_EDGE('',*,*,#281,.F.);
#281 = EDGE_CURVE('',#282,#274,#284,.T.);
#282 = VERTEX_POINT('',#283);
#283 = CARTESIAN_POINT('',(-1.02,0.25,0.));
#284 = LINE('',#285,#286);
#285 = CARTESIAN_POINT('',(-1.02,0.25,0.));
#286 = VECTOR('',#287,1.);
#287 = DIRECTION('',(-0.,-0.,-1.));
#288 = ORIENTED_EDGE('',*,*,#289,.F.);
#289 = EDGE_CURVE('',#251,#282,#290,.T.);
#290 = LINE('',#291,#292);
#291 = CARTESIAN_POINT('',(-1.02,-0.25,0.));
#292 = VECTOR('',#293,1.);
#293 = DIRECTION('',(0.,1.,0.));
#294 = PLANE('',#295);
#295 = AXIS2_PLACEMENT_3D('',#296,#297,#298);
#296 = CARTESIAN_POINT('',(-1.02,-0.25,0.));
#297 = DIRECTION('',(1.,0.,0.));
#298 = DIRECTION('',(0.,1.,0.));
#299 = ADVANCED_FACE('',(#300),#325,.T.);
#300 = FACE_BOUND('',#301,.T.);
#301 = EDGE_LOOP('',(#302,#303,#311,#319));
#302 = ORIENTED_EDGE('',*,*,#281,.T.);
#303 = ORIENTED_EDGE('',*,*,#304,.T.);
#304 = EDGE_CURVE('',#274,#305,#307,.T.);
#305 = VERTEX_POINT('',#306);
#306 = CARTESIAN_POINT('',(-1.52,0.25,-5.));
#307 = LINE('',#308,#309);
#308 = CARTESIAN_POINT('',(-1.02,0.25,-5.));
#309 = VECTOR('',#310,1.);
#310 = DIRECTION('',(-1.,0.,0.));
#311 = ORIENTED_EDGE('',*,*,#312,.F.);
#312 = EDGE_CURVE('',#313,#305,#315,.T.);
#313 = VERTEX_POINT('',#314);
#314 = CARTESIAN_POINT('',(-1.52,0.25,0.));
#315 = LINE('',#316,#317);
#316 = CARTESIAN_POINT('',(-1.52,0.25,0.));
#317 = VECTOR('',#318,1.);
#318 = DIRECTION('',(-0.,-0.,-1.));
#319 = ORIENTED_EDGE('',*,*,#320,.F.);
#320 = EDGE_CURVE('',#282,#313,#321,.T.);
#321 = LINE('',#322,#323);
#322 = CARTESIAN_POINT('',(-1.02,0.25,0.));
#323 = VECTOR('',#324,1.);
#324 = DIRECTION('',(-1.,0.,0.));
#325 = PLANE('',#326);
#326 = AXIS2_PLACEMENT_3D('',#327,#328,#329);
#327 = CARTESIAN_POINT('',(-1.02,0.25,0.));
#328 = DIRECTION('',(0.,1.,0.));
#329 = DIRECTION('',(-1.,0.,0.));
#330 = ADVANCED_FACE('',(#331),#347,.T.);
#331 = FACE_BOUND('',#332,.T.);
#332 = EDGE_LOOP('',(#333,#334,#340,#341));
#333 = ORIENTED_EDGE('',*,*,#312,.T.);
#334 = ORIENTED_EDGE('',*,*,#335,.T.);
#335 = EDGE_CURVE('',#305,#235,#336,.T.);
#336 = LINE('',#337,#338);
#337 = CARTESIAN_POINT('',(-1.52,0.25,-5.));
#338 = VECTOR('',#339,1.);
#339 = DIRECTION('',(0.,-1.,0.));
#340 = ORIENTED_EDGE('',*,*,#232,.F.);
#341 = ORIENTED_EDGE('',*,*,#342,.F.);
#342 = EDGE_CURVE('',#313,#233,#343,.T.);
#343 = LINE('',#344,#345);
#344 = CARTESIAN_POINT('',(-1.52,0.25,0.));
#345 = VECTOR('',#346,1.);
#346 = DIRECTION('',(0.,-1.,0.));
#347 = PLANE('',#348);
#348 = AXIS2_PLACEMENT_3D('',#349,#350,#351);
#349 = CARTESIAN_POINT('',(-1.52,0.25,0.));
#350 = DIRECTION('',(-1.,0.,0.));
#351 = DIRECTION('',(0.,-1.,0.));
#352 = ADVANCED_FACE('',(#353),#359,.T.);
#353 = FACE_BOUND('',#354,.T.);
#354 = EDGE_LOOP('',(#355,#356,#357,#358));
#355 = ORIENTED_EDGE('',*,*,#258,.T.);
#356 = ORIENTED_EDGE('',*,*,#289,.T.);
#357 = ORIENTED_EDGE('',*,*,#320,.T.);
#358 = ORIENTED_EDGE('',*,*,#342,.T.);
#359 = PLANE('',#360);
#360 = AXIS2_PLACEMENT_3D('',#361,#362,#363);
#361 = CARTESIAN_POINT('',(-1.27,0.,0.));
#362 = DIRECTION('',(0.,0.,1.));
#363 = DIRECTION('',(1.,0.,0.));
#364 = ADVANCED_FACE('',(#365),#371,.F.);
#365 = FACE_BOUND('',#366,.F.);
#366 = EDGE_LOOP('',(#367,#368,#369,#370));
#367 = ORIENTED_EDGE('',*,*,#242,.T.);
#368 = ORIENTED_EDGE('',*,*,#273,.T.);
#369 = ORIENTED_EDGE('',*,*,#304,.T.);
#370 = ORIENTED_EDGE('',*,*,#335,.T.);
#371 = PLANE('',#372);
#372 = AXIS2_PLACEMENT_3D('',#373,#374,#375);
#373 = CARTESIAN_POINT('',(-1.27,0.,-5.));
#374 = DIRECTION('',(0.,0.,1.));
#375 = DIRECTION('',(1.,0.,0.));
#376 = ( GEOMETRIC_REPRESENTATION_CONTEXT(3) 
GLOBAL_UNCERTAINTY_ASSIGNED_CONTEXT((#380)) GLOBAL_UNIT_ASSIGNED_CONTEXT
((#377,#378,#379)) REPRESENTATION_CONTEXT('Context #1',
  '3D Context with UNIT and UNCERTAINTY') );
#377 = ( LENGTH_UNIT() NAMED_UNIT(*) SI_UNIT(.MILLI.,.METRE.) );
#378 = ( NAMED_UNIT(*) PLANE_ANGLE_UNIT() SI_UNIT($,.RADIAN.) );
#379 = ( NAMED_UNIT(*) SI_UNIT($,.STERADIAN.) SOLID_ANGLE_UNIT() );
#380 = UNCERTAINTY_MEASURE_WITH_UNIT(LENGTH_MEASURE(1.E-07),#377,
  'distance_accuracy_value','confusion accuracy');
#381 = CONTEXT_DEPENDENT_SHAPE_REPRESENTATION(#382,#384);
#382 = ( REPRESENTATION_RELATIONSHIP('','',#225,#10) 
REPRESENTATION_RELATIONSHIP_WITH_TRANSFORMATION(#383) 
SHAPE_REPRESENTATION_RELATIONSHIP() );
#383 = ITEM_DEFINED_TRANSFORMATION('','',#11,#19);
#384 = PRODUCT_DEFINITION_SHAPE('Placement','Placement of an item',#385
  );
#385 = NEXT_ASSEMBLY_USAGE_OCCURRENCE('59','PinA','',#5,#220,$);
#386 = PRODUCT_RELATED_PRODUCT_CATEGORY('part',$,(#222));
#387 = SHAPE_DEFINITION_REPRESENTATION(#388,#394);
#388 = PRODUCT_DEFINITION_SHAPE('','',#389);
#389 = PRODUCT_DEFINITION('design','',#390,#393);
#390 = PRODUCT_DEFINITION_FORMATION('','',#391);
#391 = PRODUCT('PinB','PinB','',(#392));
#392 = PRODUCT_CONTEXT('',#2,'mechanical');
#393 = PRODUCT_DEFINITION_CONTEXT('part definition',#2,'design');
#394 = ADVANCED_BREP_SHAPE_REPRESENTATION('',(#11,#395),#545);
#395 = MANIFOLD_SOLID_BREP('',#396);
#396 = CLOSED_SHELL('',(#397,#437,#468,#499,#521,#533));
#397 = ADVANCED_FACE('',(#398),#432,.T.);
#398 = FACE_BOUND('',#399,.T.);
#399 = EDGE_LOOP('',(#400,#410,#418,#426));
#400 = ORIENTED_EDGE('',*,*,#401,.T.);
#401 = EDGE_CURVE('',#402,#404,#406,.T.);
#402 = VERTEX_POINT('',#403);
#403 = CARTESIAN_POINT('',(1.02,-0.25,0.));
#404 = VERTEX_POINT('',#405);
#405 = CARTESIAN_POINT('',(1.02,-0.25,-5.));
#406 = LINE('',#407,#408);
#407 = CARTESIAN_POINT('',(1.02,-0.25,0.));
#408 = VECTOR('',#409,1.);
#409 = DIRECTION('',(-0.,-0.,-1.));
#410 = ORIENTED_EDGE('',*,*,#411,.T.);
#411 = EDGE_CURVE('',#404,#412,#414,.T.);
#412 = VERTEX_POINT('',#413);
#413 = CARTESIAN_POINT('',(1.52,-0.25,-5.));
#414 = LINE('',#415,#416);
#415 = CARTESIAN_POINT('',(1.02,-0.25,-5.));
#416 = VECTOR('',#417,1.);
#417 = DIRECTION('',(1.,0.,0.));
#418 = ORIENTED_EDGE('',*,*,#419,.F.);
#419 = EDGE_CURVE('',#420,#412,#422,.T.);
#420 = VERTEX_POINT('',#421);
#421 = CARTESIAN_POINT('',(1.52,-0.25,0.));
#422 = LINE('',#423,#424);
#423 = CARTESIAN_POINT('',(1.52,-0.25,0.));
#424 = VECTOR('',#425,1.);
#425 = DIRECTION('',(-0.,-0.,-1.));
#426 = ORIENTED_EDGE('',*,*,#427,.F.);
#427 = EDGE_CURVE('',#402,#420,#428,.T.);
#428 = LINE('',#429,#430);
#429 = CARTESIAN_POINT('',(1.02,-0.25,0.));
#430 = VECTOR('',#431,1.);
#431 = DIRECTION('',(1.,0.,0.));
#432 = PLANE('',#433);
#433 = AXIS2_PLACEMENT_3D('',#434,#435,#436);
#434 = CARTESIAN_POINT('',(1.02,-0.25,0.));
#435 = DIRECTION('',(0.,-1.,0.));
#436 = DIRECTION('',(1.,0.,0.));
#437 = ADVANCED_FACE('',(#438),#463,.T.);
#438 = FACE_BOUND('',#439,.T.);
#439 = EDGE_LOOP('',(#440,#441,#449,#457));
#440 = ORIENTED_EDGE('',*,*,#419,.T.);
#441 = ORIENTED_EDGE('',*,*,#442,.T.);
#442 = EDGE_CURVE('',#412,#443,#445,.T.);
#443 = VERTEX_POINT('',#444);
#444 = CARTESIAN_POINT('',(1.52,0.25,-5.));
#445 = LINE('',#446,#447);
#446 = CARTESIAN_POINT('',(1.52,-0.25,-5.));
#447 = VECTOR('',#448,1.);
#448 = DIRECTION('',(0.,1.,0.));
#449 = ORIENTED_EDGE('',*,*,#450,.F.);
#450 = EDGE_CURVE('',#451,#443,#453,.T.);
#451 = VERTEX_POINT('',#452);
#452 = CARTESIAN_POINT('',(1.52,0.25,0.));
#453 = LINE('',#454,#455);
#454 = CARTESIAN_POINT('',(1.52,0.25,0.));
#455 = VECTOR('',#456,1.);
#456 = DIRECTION('',(-0.,-0.,-1.));
#457 = ORIENTED_EDGE('',*,*,#458,.F.);
#458 = EDGE_CURVE('',#420,#451,#459,.T.);
#459 = LINE('',#460,#461);
#460 = CARTESIAN_POINT('',(1.52,-0.25,0.));
#461 = VECTOR('',#462,1.);
#462 = DIRECTION('',(0.,1.,0.));
#463 = PLANE('',#464);
#464 = AXIS2_PLACEMENT_3D('',#465,#466,#467);
#465 = CARTESIAN_POINT('',(1.52,-0.25,0.));
#466 = DIRECTION('',(1.,0.,0.));
#467 = DIRECTION('',(0.,1.,0.));
#468 = ADVANCED_FACE('',(#469),#494,.T.);
#469 = FACE_BOUND('',#470,.T.);
#470 = EDGE_LOOP('',(#471,#472,#480,#488));
#471 = ORIENTED_EDGE('',*,*,#450,.T.);
#472 = ORIENTED_EDGE('',*,*,#473,.T.);
#473 = EDGE_CURVE('',#443,#474,#476,.T.);
#474 = VERTEX_POINT('',#475);
#475 = CARTESIAN_POINT('',(1.02,0.25,-5.));
#476 = LINE('',#477,#478);
#477 = CARTESIAN_POINT('',(1.52,0.25,-5.));
#478 = VECTOR('',#479,1.);
#479 = DIRECTION('',(-1.,0.,0.));
#480 = ORIENTED_EDGE('',*,*,#481,.F.);
#481 = EDGE_CURVE('',#482,#474,#484,.T.);
#482 = VERTEX_POINT('',#483);
#483 = CARTESIAN_POINT('',(1.02,0.25,0.));
#484 = LINE('',#485,#486);
#485 = CARTESIAN_POINT('',(1.02,0.25,0.));
#486 = VECTOR('',#487,1.);
#487 = DIRECTION('',(-0.,-0.,-1.));
#488 = ORIENTED_EDGE('',*,*,#489,.F.);
#489 = EDGE_CURVE('',#451,#482,#490,.T.);
#490 = LINE('',#491,#492);
#491 = CARTESIAN_POINT('',(1.52,0.25,0.));
#492 = VECTOR('',#493,1.);
#493 = DIRECTION('',(-1.,0.,0.));
#494 = PLANE('',#495);
#495 = AXIS2_PLACEMENT_3D('',#496,#497,#498);
#496 = CARTESIAN_POINT('',(1.52,0.25,0.));
#497 = DIRECTION('',(0.,1.,0.));
#498 = DIRECTION('',(-1.,0.,0.));
#499 = ADVANCED_FACE('',(#500),#516,.T.);
#500 = FACE_BOUND('',#501,.T.);
#501 = EDGE_LOOP('',(#502,#503,#509,#510));
#502 = ORIENTED_EDGE('',*,*,#481,.T.);
#503 = ORIENTED_EDGE('',*,*,#504,.T.);
#504 = EDGE_CURVE('',#474,#404,#505,.T.);
#505 = LINE('',#506,#507);
#506 = CARTESIAN_POINT('',(1.02,0.25,-5.));
#507 = VECTOR('',#508,1.);
#508 = DIRECTION('',(0.,-1.,0.));
#509 = ORIENTED_EDGE('',*,*,#401,.F.);
#510 = ORIENTED_EDGE('',*,*,#511,.F.);
#511 = EDGE_CURVE('',#482,#402,#512,.T.);
#512 = LINE('',#513,#514);
#513 = CARTESIAN_POINT('',(1.02,0.25,0.));
#514 = VECTOR('',#515,1.);
#515 = DIRECTION('',(0.,-1.,0.));
#516 = PLANE('',#517);
#517 = AXIS2_PLACEMENT_3D('',#518,#519,#520);
#518 = CARTESIAN_POINT('',(1.02,0.25,0.));
#519 = DIRECTION('',(-1.,0.,0.));
#520 = DIRECTION('',(0.,-1.,0.));
#521 = ADVANCED_FACE('',(#522),#528,.T.);
#522 = FACE_BOUND('',#523,.T.);
#523 = EDGE_LOOP('',(#524,#525,#526,#527));
#524 = ORIENTED_EDGE('',*,*,#427,.T.);
#525 = ORIENTED_EDGE('',*,*,#458,.T.);
#526 = ORIENTED_EDGE('',*,*,#489,.T.);
#527 = ORIENTED_EDGE('',*,*,#511,.T.);
#528 = PLANE('',#529);
#529 = AXIS2_PLACEMENT_3D('',#530,#531,#532);
#530 = CARTESIAN_POINT('',(1.27,0.,0.));
#531 = DIRECTION('',(0.,0.,1.));
#532 = DIRECTION('',(1.,0.,0.));
#533 = ADVANCED_FACE('',(#534),#540,.F.);
#534 = FACE_BOUND('',#535,.F.);
#535 = EDGE_LOOP('',(#536,#537,#538,#539));
#536 = ORIENTED_EDGE('',*,*,#411,.T.);
#537 = ORIENTED_EDGE('',*,*,#442,.T.);
#538 = ORIENTED_EDGE('',*,*,#473,.T.);
#539 = ORIENTED_EDGE('',*,*,#504,.T.);
#540 = PLANE('',#541);
#541 = AXIS2_PLACEMENT_3D('',#542,#543,#544);
#542 = CARTESIAN_POINT('',(1.27,0.,-5.));
#543 = DIRECTION('',(0.,0.,1.));
#544 = DIRECTION('',(1.,0.,0.));
#545 = ( GEOMETRIC_REPRESENTATION_CONTEXT(3) 
GLOBAL_UNCERTAINTY_ASSIGNED_CONTEXT((#549)) GLOBAL_UNIT_ASSIGNED_CONTEXT
((#546,#547,#548)) REPRESENTATION_CONTEXT('Context #1',
  '3D Context with UNIT and UNCERTAINTY') );
#546 = ( LENGTH_UNIT() NAMED_UNIT(*) SI_UNIT(.MILLI.,.METRE.) );
#547 = ( NAMED_UNIT(*) PLANE_ANGLE_UNIT() SI_UNIT($,.RADIAN.) );
#548 = ( NAMED_UNIT(*) SI_UNIT($,.STERADIAN.) SOLID_ANGLE_UNIT() );
#549 = UNCERTAINTY_MEASURE_WITH_UNIT(LENGTH_MEASURE(1.E-07),#546,
  'distance_accuracy_value','confusion accuracy');
#550 = CONTEXT_DEPENDENT_SHAPE_REPRESENTATION(#551,#553);
#551 = ( REPRESENTATION_RELATIONSHIP('','',#394,#10) 
REPRESENTATION_RELATIONSHIP_WITH_TRANSFORMATION(#552) 
SHAPE_REPRESENTATION_RELATIONSHIP() );
#552 = ITEM_DEFINED_TRANSFORMATION('','',#11,#23);
#553 = PRODUCT_DEFINITION_SHAPE('Placement','Placement of an item',#554
  );
#554 = NEXT_ASSEMBLY_USAGE_OCCURRENCE('60','PinB','',#5,#389,$);
#555 = PRODUCT_RELATED_PRODUCT_CATEGORY('part',$,(#391));
#556 = SHAPE_DEFINITION_REPRESENTATION(#557,#563);
#557 = PRODUCT_DEFINITION_SHAPE('','',#558);
#558 = PRODUCT_DEFINITION('design','',#559,#562);
#559 = PRODUCT_DEFINITION_FORMATION('','',#560);
#560 = PRODUCT('Extrude','Extrude','',(#561));
#561 = PRODUCT_CONTEXT('',#2,'mechanical');
#562 = PRODUCT_DEFINITION_CONTEXT('part definition',#2,'design');
#563 = SHAPE_REPRESENTATION('',(#11,#564,#714),#864);
#564 = MANIFOLD_SOLID_BREP('',#565);
#565 = CLOSED_SHELL('',(#566,#606,#637,#668,#690,#702));
#566 = ADVANCED_FACE('',(#567),#601,.F.);
#567 = FACE_BOUND('',#568,.F.);
#568 = EDGE_LOOP('',(#569,#579,#587,#595));
#569 = ORIENTED_EDGE('',*,*,#570,.T.);
#570 = EDGE_CURVE('',#571,#573,#575,.T.);
#571 = VERTEX_POINT('',#572);
#572 = CARTESIAN_POINT('',(0.52,0.25,0.));
#573 = VERTEX_POINT('',#574);
#574 = CARTESIAN_POINT('',(0.52,0.25,1.1));
#575 = LINE('',#576,#577);
#576 = CARTESIAN_POINT('',(0.52,0.25,0.));
#577 = VECTOR('',#578,1.);
#578 = DIRECTION('',(0.,0.,1.));
#579 = ORIENTED_EDGE('',*,*,#580,.T.);
#580 = EDGE_CURVE('',#573,#581,#583,.T.);
#581 = VERTEX_POINT('',#582);
#582 = CARTESIAN_POINT('',(0.52,-0.25,1.1));
#583 = LINE('',#584,#585);
#584 = CARTESIAN_POINT('',(0.52,0.25,1.1));
#585 = VECTOR('',#586,1.);
#586 = DIRECTION('',(0.,-1.,0.));
#587 = ORIENTED_EDGE('',*,*,#588,.F.);
#588 = EDGE_CURVE('',#589,#581,#591,.T.);
#589 = VERTEX_POINT('',#590);
#590 = CARTESIAN_POINT('',(0.52,-0.25,0.));
#591 = LINE('',#592,#593);
#592 = CARTESIAN_POINT('',(0.52,-0.25,0.));
#593 = VECTOR('',#594,1.);
#594 = DIRECTION('',(0.,0.,1.));
#595 = ORIENTED_EDGE('',*,*,#596,.F.);
#596 = EDGE_CURVE('',#571,#589,#597,.T.);
#597 = LINE('',#598,#599);
#598 = CARTESIAN_POINT('',(0.52,0.25,0.));
#599 = VECTOR('',#600,1.);
#600 = DIRECTION('',(0.,-1.,0.));
#601 = PLANE('',#602);
#602 = AXIS2_PLACEMENT_3D('',#603,#604,#605);
#603 = CARTESIAN_POINT('',(0.52,0.25,0.));
#604 = DIRECTION('',(1.,0.,-0.));
#605 = DIRECTION('',(0.,-1.,0.));
#606 = ADVANCED_FACE('',(#607),#632,.F.);
#607 = FACE_BOUND('',#608,.F.);
#608 = EDGE_LOOP('',(#609,#610,#618,#626));
#609 = ORIENTED_EDGE('',*,*,#588,.T.);
#610 = ORIENTED_EDGE('',*,*,#611,.T.);
#611 = EDGE_CURVE('',#581,#612,#614,.T.);
#612 = VERTEX_POINT('',#613);
#613 = CARTESIAN_POINT('',(1.52,-0.25,1.1));
#614 = LINE('',#615,#616);
#615 = CARTESIAN_POINT('',(0.52,-0.25,1.1));
#616 = VECTOR('',#617,1.);
#617 = DIRECTION('',(1.,0.,0.));
#618 = ORIENTED_EDGE('',*,*,#619,.F.);
#619 = EDGE_CURVE('',#620,#612,#622,.T.);
#620 = VERTEX_POINT('',#621);
#621 = CARTESIAN_POINT('',(1.52,-0.25,0.));
#622 = LINE('',#623,#624);
#623 = CARTESIAN_POINT('',(1.52,-0.25,0.));
#624 = VECTOR('',#625,1.);
#625 = DIRECTION('',(0.,0.,1.));
#626 = ORIENTED_EDGE('',*,*,#627,.F.);
#627 = EDGE_CURVE('',#589,#620,#628,.T.);
#628 = LINE('',#629,#630);
#629 = CARTESIAN_POINT('',(0.52,-0.25,0.));
#630 = VECTOR('',#631,1.);
#631 = DIRECTION('',(1.,0.,0.));
#632 = PLANE('',#633);
#633 = AXIS2_PLACEMENT_3D('',#634,#635,#636);
#634 = CARTESIAN_POINT('',(0.52,-0.25,0.));
#635 = DIRECTION('',(0.,1.,0.));
#636 = DIRECTION('',(1.,0.,0.));
#637 = ADVANCED_FACE('',(#638),#663,.F.);
#638 = FACE_BOUND('',#639,.F.);
#639 = EDGE_LOOP('',(#640,#641,#649,#657));
#640 = ORIENTED_EDGE('',*,*,#619,.T.);
#641 = ORIENTED_EDGE('',*,*,#642,.T.);
#642 = EDGE_CURVE('',#612,#643,#645,.T.);
#643 = VERTEX_POINT('',#644);
#644 = CARTESIAN_POINT('',(1.52,0.25,1.1));
#645 = LINE('',#646,#647);
#646 = CARTESIAN_POINT('',(1.52,-0.25,1.1));
#647 = VECTOR('',#648,1.);
#648 = DIRECTION('',(0.,1.,0.));
#649 = ORIENTED_EDGE('',*,*,#650,.F.);
#650 = EDGE_CURVE('',#651,#643,#653,.T.);
#651 = VERTEX_POINT('',#652);
#652 = CARTESIAN_POINT('',(1.52,0.25,0.));
#653 = LINE('',#654,#655);
#654 = CARTESIAN_POINT('',(1.52,0.25,0.));
#655 = VECTOR('',#656,1.);
#656 = DIRECTION('',(0.,0.,1.));
#657 = ORIENTED_EDGE('',*,*,#658,.F.);
#658 = EDGE_CURVE('',#620,#651,#659,.T.);
#659 = LINE('',#660,#661);
#660 = CARTESIAN_POINT('',(1.52,-0.25,0.));
#661 = VECTOR('',#662,1.);
#662 = DIRECTION('',(0.,1.,0.));
#663 = PLANE('',#664);
#664 = AXIS2_PLACEMENT_3D('',#665,#666,#667);
#665 = CARTESIAN_POINT('',(1.52,-0.25,0.));
#666 = DIRECTION('',(-1.,0.,0.));
#667 = DIRECTION('',(0.,1.,0.));
#668 = ADVANCED_FACE('',(#669),#685,.F.);
#669 = FACE_BOUND('',#670,.F.);
#670 = EDGE_LOOP('',(#671,#672,#678,#679));
#671 = ORIENTED_EDGE('',*,*,#650,.T.);
#672 = ORIENTED_EDGE('',*,*,#673,.T.);
#673 = EDGE_CURVE('',#643,#573,#674,.T.);
#674 = LINE('',#675,#676);
#675 = CARTESIAN_POINT('',(1.52,0.25,1.1));
#676 = VECTOR('',#677,1.);
#677 = DIRECTION('',(-1.,0.,0.));
#678 = ORIENTED_EDGE('',*,*,#570,.F.);
#679 = ORIENTED_EDGE('',*,*,#680,.F.);
#680 = EDGE_CURVE('',#651,#571,#681,.T.);
#681 = LINE('',#682,#683);
#682 = CARTESIAN_POINT('',(1.52,0.25,0.));
#683 = VECTOR('',#684,1.);
#684 = DIRECTION('',(-1.,0.,0.));
#685 = PLANE('',#686);
#686 = AXIS2_PLACEMENT_3D('',#687,#688,#689);
#687 = CARTESIAN_POINT('',(1.52,0.25,0.));
#688 = DIRECTION('',(0.,-1.,0.));
#689 = DIRECTION('',(-1.,0.,0.));
#690 = ADVANCED_FACE('',(#691),#697,.F.);
#691 = FACE_BOUND('',#692,.F.);
#692 = EDGE_LOOP('',(#693,#694,#695,#696));
#693 = ORIENTED_EDGE('',*,*,#596,.T.);
#694 = ORIENTED_EDGE('',*,*,#627,.T.);
#695 = ORIENTED_EDGE('',*,*,#658,.T.);
#696 = ORIENTED_EDGE('',*,*,#680,.T.);
#697 = PLANE('',#698);
#698 = AXIS2_PLACEMENT_3D('',#699,#700,#701);
#699 = CARTESIAN_POINT('',(0.,0.,0.));
#700 = DIRECTION('',(0.,0.,1.));
#701 = DIRECTION('',(1.,0.,-0.));
#702 = ADVANCED_FACE('',(#703),#709,.T.);
#703 = FACE_BOUND('',#704,.T.);
#704 = EDGE_LOOP('',(#705,#706,#707,#708));
#705 = ORIENTED_EDGE('',*,*,#580,.T.);
#706 = ORIENTED_EDGE('',*,*,#611,.T.);
#707 = ORIENTED_EDGE('',*,*,#642,.T.);
#708 = ORIENTED_EDGE('',*,*,#673,.T.);
#709 = PLANE('',#710);
#710 = AXIS2_PLACEMENT_3D('',#711,#712,#713);
#711 = CARTESIAN_POINT('',(0.,0.,1.1));
#712 = DIRECTION('',(0.,0.,1.));
#713 = DIRECTION('',(1.,0.,-0.));
#714 = MANIFOLD_SOLID_BREP('',#715);
#715 = CLOSED_SHELL('',(#716,#756,#787,#818,#840,#852));
#716 = ADVANCED_FACE('',(#717),#751,.F.);
#717 = FACE_BOUND('',#718,.F.);
#718 = EDGE_LOOP('',(#719,#729,#737,#745));
#719 = ORIENTED_EDGE('',*,*,#720,.T.);
#720 = EDGE_CURVE('',#721,#723,#725,.T.);
#721 = VERTEX_POINT('',#722);
#722 = CARTESIAN_POINT('',(-1.52,0.25,0.));
#723 = VERTEX_POINT('',#724);
#724 = CARTESIAN_POINT('',(-1.52,0.25,1.1));
#725 = LINE('',#726,#727);
#726 = CARTESIAN_POINT('',(-1.52,0.25,0.));
#727 = VECTOR('',#728,1.);
#728 = DIRECTION('',(0.,0.,1.));
#729 = ORIENTED_EDGE('',*,*,#730,.T.);
#730 = EDGE_CURVE('',#723,#731,#733,.T.);
#731 = VERTEX_POINT('',#732);
#732 = CARTESIAN_POINT('',(-1.52,-0.25,1.1));
#733 = LINE('',#734,#735);
#734 = CARTESIAN_POINT('',(-1.52,0.25,1.1));
#735 = VECTOR('',#736,1.);
#736 = DIRECTION('',(0.,-1.,0.));
#737 = ORIENTED_EDGE('',*,*,#738,.F.);
#738 = EDGE_CURVE('',#739,#731,#741,.T.);
#739 = VERTEX_POINT('',#740);
#740 = CARTESIAN_POINT('',(-1.52,-0.25,0.));
#741 = LINE('',#742,#743);
#742 = CARTESIAN_POINT('',(-1.52,-0.25,0.));
#743 = VECTOR('',#744,1.);
#744 = DIRECTION('',(0.,0.,1.));
#745 = ORIENTED_EDGE('',*,*,#746,.F.);
#746 = EDGE_CURVE('',#721,#739,#747,.T.);
#747 = LINE('',#748,#749);
#748 = CARTESIAN_POINT('',(-1.52,0.25,0.));
#749 = VECTOR('',#750,1.);
#750 = DIRECTION('',(0.,-1.,0.));
#751 = PLANE('',#752);
#752 = AXIS2_PLACEMENT_3D('',#753,#754,#755);
#753 = CARTESIAN_POINT('',(-1.52,0.25,0.));
#754 = DIRECTION('',(1.,0.,-0.));
#755 = DIRECTION('',(0.,-1.,0.));
#756 = ADVANCED_FACE('',(#757),#782,.F.);
#757 = FACE_BOUND('',#758,.F.);
#758 = EDGE_LOOP('',(#759,#760,#768,#776));
#759 = ORIENTED_EDGE('',*,*,#738,.T.);
#760 = ORIENTED_EDGE('',*,*,#761,.T.);
#761 = EDGE_CURVE('',#731,#762,#764,.T.);
#762 = VERTEX_POINT('',#763);
#763 = CARTESIAN_POINT('',(-0.52,-0.25,1.1));
#764 = LINE('',#765,#766);
#765 = CARTESIAN_POINT('',(-1.52,-0.25,1.1));
#766 = VECTOR('',#767,1.);
#767 = DIRECTION('',(1.,0.,0.));
#768 = ORIENTED_EDGE('',*,*,#769,.F.);
#769 = EDGE_CURVE('',#770,#762,#772,.T.);
#770 = VERTEX_POINT('',#771);
#771 = CARTESIAN_POINT('',(-0.52,-0.25,0.));
#772 = LINE('',#773,#774);
#773 = CARTESIAN_POINT('',(-0.52,-0.25,0.));
#774 = VECTOR('',#775,1.);
#775 = DIRECTION('',(0.,0.,1.));
#776 = ORIENTED_EDGE('',*,*,#777,.F.);
#777 = EDGE_CURVE('',#739,#770,#778,.T.);
#778 = LINE('',#779,#780);
#779 = CARTESIAN_POINT('',(-1.52,-0.25,0.));
#780 = VECTOR('',#781,1.);
#781 = DIRECTION('',(1.,0.,0.));
#782 = PLANE('',#783);
#783 = AXIS2_PLACEMENT_3D('',#784,#785,#786);
#784 = CARTESIAN_POINT('',(-1.52,-0.25,0.));
#785 = DIRECTION('',(0.,1.,0.));
#786 = DIRECTION('',(1.,0.,0.));
#787 = ADVANCED_FACE('',(#788),#813,.F.);
#788 = FACE_BOUND('',#789,.F.);
#789 = EDGE_LOOP('',(#790,#791,#799,#807));
#790 = ORIENTED_EDGE('',*,*,#769,.T.);
#791 = ORIENTED_EDGE('',*,*,#792,.T.);
#792 = EDGE_CURVE('',#762,#793,#795,.T.);
#793 = VERTEX_POINT('',#794);
#794 = CARTESIAN_POINT('',(-0.52,0.25,1.1));
#795 = LINE('',#796,#797);
#796 = CARTESIAN_POINT('',(-0.52,-0.25,1.1));
#797 = VECTOR('',#798,1.);
#798 = DIRECTION('',(0.,1.,0.));
#799 = ORIENTED_EDGE('',*,*,#800,.F.);
#800 = EDGE_CURVE('',#801,#793,#803,.T.);
#801 = VERTEX_POINT('',#802);
#802 = CARTESIAN_POINT('',(-0.52,0.25,0.));
#803 = LINE('',#804,#805);
#804 = CARTESIAN_POINT('',(-0.52,0.25,0.));
#805 = VECTOR('',#806,1.);
#806 = DIRECTION('',(0.,0.,1.));
#807 = ORIENTED_EDGE('',*,*,#808,.F.);
#808 = EDGE_CURVE('',#770,#801,#809,.T.);
#809 = LINE('',#810,#811);
#810 = CARTESIAN_POINT('',(-0.52,-0.25,0.));
#811 = VECTOR('',#812,1.);
#812 = DIRECTION('',(0.,1.,0.));
#813 = PLANE('',#814);
#814 = AXIS2_PLACEMENT_3D('',#815,#816,#817);
#815 = CARTESIAN_POINT('',(-0.52,-0.25,0.));
#816 = DIRECTION('',(-1.,0.,0.));
#817 = DIRECTION('',(0.,1.,0.));
#818 = ADVANCED_FACE('',(#819),#835,.F.);
#819 = FACE_BOUND('',#820,.F.);
#820 = EDGE_LOOP('',(#821,#822,#828,#829));
#821 = ORIENTED_EDGE('',*,*,#800,.T.);
#822 = ORIENTED_EDGE('',*,*,#823,.T.);
#823 = EDGE_CURVE('',#793,#723,#824,.T.);
#824 = LINE('',#825,#826);
#825 = CARTESIAN_POINT('',(-0.52,0.25,1.1));
#826 = VECTOR('',#827,1.);
#827 = DIRECTION('',(-1.,0.,0.));
#828 = ORIENTED_EDGE('',*,*,#720,.F.);
#829 = ORIENTED_EDGE('',*,*,#830,.F.);
#830 = EDGE_CURVE('',#801,#721,#831,.T.);
#831 = LINE('',#832,#833);
#832 = CARTESIAN_POINT('',(-0.52,0.25,0.));
#833 = VECTOR('',#834,1.);
#834 = DIRECTION('',(-1.,0.,0.));
#835 = PLANE('',#836);
#836 = AXIS2_PLACEMENT_3D('',#837,#838,#839);
#837 = CARTESIAN_POINT('',(-0.52,0.25,0.));
#838 = DIRECTION('',(0.,-1.,0.));
#839 = DIRECTION('',(-1.,0.,0.));
#840 = ADVANCED_FACE('',(#841),#847,.F.);
#841 = FACE_BOUND('',#842,.F.);
#842 = EDGE_LOOP('',(#843,#844,#845,#846));
#843 = ORIENTED_EDGE('',*,*,#746,.T.);
#844 = ORIENTED_EDGE('',*,*,#777,.T.);
#845 = ORIENTED_EDGE('',*,*,#808,.T.);
#846 = ORIENTED_EDGE('',*,*,#830,.T.);
#847 = PLANE('',#848);
#848 = AXIS2_PLACEMENT_3D('',#849,#850,#851);
#849 = CARTESIAN_POINT('',(0.,0.,0.));
#850 = DIRECTION('',(0.,0.,1.));
#851 = DIRECTION('',(1.,0.,-0.));
#852 = ADVANCED_FACE('',(#853),#859,.T.);
#853 = FACE_BOUND('',#854,.T.);
#854 = EDGE_LOOP('',(#855,#856,#857,#858));
#855 = ORIENTED_EDGE('',*,*,#730,.T.);
#856 = ORIENTED_EDGE('',*,*,#761,.T.);
#857 = ORIENTED_EDGE('',*,*,#792,.T.);
#858 = ORIENTED_EDGE('',*,*,#823,.T.);
#859 = PLANE('',#860);
#860 = AXIS2_PLACEMENT_3D('',#861,#862,#863);
#861 = CARTESIAN_POINT('',(0.,0.,1.1));
#862 = DIRECTION('',(0.,0.,1.));
#863 = DIRECTION('',(1.,0.,-0.));
#864 = ( GEOMETRIC_REPRESENTATION_CONTEXT(3) 
GLOBAL_UNCERTAINTY_ASSIGNED_CONTEXT((#868)) GLOBAL_UNIT_ASSIGNED_CONTEXT
((#865,#866,#867)) REPRESENTATION_CONTEXT('Context #1',
  '3D Context with UNIT and UNCERTAINTY') );
#865 = ( LENGTH_UNIT() NAMED_UNIT(*) SI_UNIT(.MILLI.,.METRE.) );
#866 = ( NAMED_UNIT(*) PLANE_ANGLE_UNIT() SI_UNIT($,.RADIAN.) );
#867 = ( NAMED_UNIT(*) SI_UNIT($,.STERADIAN.) SOLID_ANGLE_UNIT() );
#868 = UNCERTAINTY_MEASURE_WITH_UNIT(LENGTH_MEASURE(1.E-07),#865,
  'distance_accuracy_value','confusion accuracy');
#869 = CONTEXT_DEPENDENT_SHAPE_REPRESENTATION(#870,#872);
#870 = ( REPRESENTATION_RELATIONSHIP('','',#563,#10) 
REPRESENTATION_RELATIONSHIP_WITH_TRANSFORMATION(#871) 
SHAPE_REPRESENTATION_RELATIONSHIP() );
#871 = ITEM_DEFINED_TRANSFORMATION('','',#11,#27);
#872 = PRODUCT_DEFINITION_SHAPE('Placement','Placement of an item',#873
  );
#873 = NEXT_ASSEMBLY_USAGE_OCCURRENCE('61','Extrude','',#5,#558,$);
#874 = PRODUCT_RELATED_PRODUCT_CATEGORY('part',$,(#560));
#875 = MECHANICAL_DESIGN_GEOMETRIC_PRESENTATION_REPRESENTATION('',(#876)
  ,#545);
#876 = STYLED_ITEM('color',(#877),#395);
#877 = PRESENTATION_STYLE_ASSIGNMENT((#878,#884));
#878 = SURFACE_STYLE_USAGE(.BOTH.,#879);
#879 = SURFACE_SIDE_STYLE('',(#880));
#880 = SURFACE_STYLE_FILL_AREA(#881);
#881 = FILL_AREA_STYLE('',(#882));
#882 = FILL_AREA_STYLE_COLOUR('',#883);
#883 = COLOUR_RGB('',0.800000010877,0.800000010877,0.901960800373);
#884 = CURVE_STYLE('',#885,POSITIVE_LENGTH_MEASURE(0.1),#886);
#885 = DRAUGHTING_PRE_DEFINED_CURVE_FONT('continuous');
#886 = COLOUR_RGB('',9.803921802644E-02,9.803921802644E-02,
  9.803921802644E-02);
#887 = MECHANICAL_DESIGN_GEOMETRIC_PRESENTATION_REPRESENTATION('',(#888)
  ,#376);
#888 = STYLED_ITEM('color',(#889),#226);
#889 = PRESENTATION_STYLE_ASSIGNMENT((#890,#895));
#890 = SURFACE_STYLE_USAGE(.BOTH.,#891);
#891 = SURFACE_SIDE_STYLE('',(#892));
#892 = SURFACE_STYLE_FILL_AREA(#893);
#893 = FILL_AREA_STYLE('',(#894));
#894 = FILL_AREA_STYLE_COLOUR('',#883);
#895 = CURVE_STYLE('',#896,POSITIVE_LENGTH_MEASURE(0.1),#886);
#896 = DRAUGHTING_PRE_DEFINED_CURVE_FONT('continuous');
#897 = MECHANICAL_DESIGN_GEOMETRIC_PRESENTATION_REPRESENTATION('',(#898)
  ,#207);
#898 = STYLED_ITEM('color',(#899),#154);
#899 = PRESENTATION_STYLE_ASSIGNMENT((#900,#906));
#900 = SURFACE_STYLE_USAGE(.BOTH.,#901);
#901 = SURFACE_SIDE_STYLE('',(#902));
#902 = SURFACE_STYLE_FILL_AREA(#903);
#903 = FILL_AREA_STYLE('',(#904));
#904 = FILL_AREA_STYLE_COLOUR('',#905);
#905 = DRAUGHTING_PRE_DEFINED_COLOUR('red');
#906 = CURVE_STYLE('',#907,POSITIVE_LENGTH_MEASURE(0.1),#886);
#907 = DRAUGHTING_PRE_DEFINED_CURVE_FONT('continuous');
#908 = MECHANICAL_DESIGN_GEOMETRIC_PRESENTATION_REPRESENTATION('',(#909,
    #919),#864);
#909 = STYLED_ITEM('color',(#910),#564);
#910 = PRESENTATION_STYLE_ASSIGNMENT((#911,#916));
#911 = SURFACE_STYLE_USAGE(.BOTH.,#912);
#912 = SURFACE_SIDE_STYLE('',(#913));
#913 = SURFACE_STYLE_FILL_AREA(#914);
#914 = FILL_AREA_STYLE('',(#915));
#915 = FILL_AREA_STYLE_COLOUR('',#883);
#916 = CURVE_STYLE('',#917,POSITIVE_LENGTH_MEASURE(0.1),#918);
#917 = DRAUGHTING_PRE_DEFINED_CURVE_FONT('continuous');
#918 = DRAUGHTING_PRE_DEFINED_COLOUR('black');
#919 = STYLED_ITEM('color',(#920),#714);
#920 = PRESENTATION_STYLE_ASSIGNMENT((#921,#926));
#921 = SURFACE_STYLE_USAGE(.BOTH.,#922);
#922 = SURFACE_SIDE_STYLE('',(#923));
#923 = SURFACE_STYLE_FILL_AREA(#924);
#924 = FILL_AREA_STYLE('',(#925));
#925 = FILL_AREA_STYLE_COLOUR('',#883);
#926 = CURVE_STYLE('',#927,POSITIVE_LENGTH_MEASURE(0.1),#918);
#927 = DRAUGHTING_PRE_DEFINED_CURVE_FONT('continuous');
#928 = MECHANICAL_DESIGN_GEOMETRIC_PRESENTATION_REPRESENTATION('',(#929)
  ,#135);
#929 = STYLED_ITEM('color',(#930),#72);
#930 = PRESENTATION_STYLE_ASSIGNMENT((#931,#936));
#931 = SURFACE_STYLE_USAGE(.BOTH.,#932);
#932 = SURFACE_SIDE_STYLE('',(#933));
#933 = SURFACE_STYLE_FILL_AREA(#934);
#934 = FILL_AREA_STYLE('',(#935));
#935 = FILL_AREA_STYLE_COLOUR('',#905);
#936 = CURVE_STYLE('',#937,POSITIVE_LENGTH_MEASURE(0.1),#886);
#937 = DRAUGHTING_PRE_DEFINED_CURVE_FONT('continuous');
ENDSEC;
END-ISO-10303-21;
