ISO-10303-21;
HEADER;
FILE_DESCRIPTION(('FreeCAD Model'),'2;1');
FILE_NAME('Open CASCADE Shape Model','2026-06-01T13:46:57',(''),(''),
  'Open CASCADE STEP processor 7.8','FreeCAD','Unknown');
FILE_SCHEMA(('AUTOMOTIVE_DESIGN { 1 0 10303 214 1 1 1 1 }'));
ENDSEC;
DATA;
#1 = APPLICATION_PROTOCOL_DEFINITION('international standard',
  'automotive_design',2000,#2);
#2 = APPLICATION_CONTEXT(
  'core data for automotive mechanical design processes');
#3 = SHAPE_DEFINITION_REPRESENTATION(#4,#10);
#4 = PRODUCT_DEFINITION_SHAPE('','',#5);
#5 = PRODUCT_DEFINITION('design','',#6,#9);
#6 = PRODUCT_DEFINITION_FORMATION('','',#7);
#7 = PRODUCT('6.544-5264.1','6.544-5264.1','',(#8));
#8 = PRODUCT_CONTEXT('',#2,'mechanical');
#9 = PRODUCT_DEFINITION_CONTEXT('part definition',#2,'design');
#10 = ADVANCED_BREP_SHAPE_REPRESENTATION('',(#11,#15),#1247);
#11 = AXIS2_PLACEMENT_3D('',#12,#13,#14);
#12 = CARTESIAN_POINT('',(0.,0.,0.));
#13 = DIRECTION('',(0.,0.,1.));
#14 = DIRECTION('',(1.,0.,-0.));
#15 = MANIFOLD_SOLID_BREP('',#16);
#16 = CLOSED_SHELL('',(#17,#75,#129,#178,#223,#254,#337,#400,#449,#503,
    #543,#574,#657,#682,#714,#731,#763,#787,#819,#843,#868,#885,#917,
    #934,#958,#975,#999,#1016,#1035,#1059,#1083,#1100,#1119,#1155,#1181,
    #1210,#1235));
#17 = ADVANCED_FACE('',(#18),#54,.F.);
#18 = FACE_BOUND('',#19,.F.);
#19 = EDGE_LOOP('',(#20,#30,#38,#46));
#20 = ORIENTED_EDGE('',*,*,#21,.T.);
#21 = EDGE_CURVE('',#22,#24,#26,.T.);
#22 = VERTEX_POINT('',#23);
#23 = CARTESIAN_POINT('',(0.387652476223,-0.249878019022,-0.5));
#24 = VERTEX_POINT('',#25);
#25 = CARTESIAN_POINT('',(0.45,-0.2,-1.1));
#26 = LINE('',#27,#28);
#27 = CARTESIAN_POINT('',(0.387652476223,-0.249878019022,-0.5));
#28 = VECTOR('',#29,1.);
#29 = DIRECTION('',(0.103004518356,8.240361468509E-02,-0.991261677603));
#30 = ORIENTED_EDGE('',*,*,#31,.T.);
#31 = EDGE_CURVE('',#24,#32,#34,.T.);
#32 = VERTEX_POINT('',#33);
#33 = CARTESIAN_POINT('',(0.45,0.2,-1.1));
#34 = LINE('',#35,#36);
#35 = CARTESIAN_POINT('',(0.45,-5.389729321979E-33,-1.1));
#36 = VECTOR('',#37,1.);
#37 = DIRECTION('',(-1.780893330285E-48,1.,-1.79657644066E-32));
#38 = ORIENTED_EDGE('',*,*,#39,.F.);
#39 = EDGE_CURVE('',#40,#32,#42,.T.);
#40 = VERTEX_POINT('',#41);
#41 = CARTESIAN_POINT('',(0.387652476223,0.249878019022,-0.5));
#42 = LINE('',#43,#44);
#43 = CARTESIAN_POINT('',(0.387652476223,0.249878019022,-0.5));
#44 = VECTOR('',#45,1.);
#45 = DIRECTION('',(0.103004518356,-8.240361468509E-02,-0.991261677603)
  );
#46 = ORIENTED_EDGE('',*,*,#47,.T.);
#47 = EDGE_CURVE('',#40,#22,#48,.T.);
#48 = B_SPLINE_CURVE_WITH_KNOTS('',3,(#49,#50,#51,#52,#53),
  .UNSPECIFIED.,.F.,.F.,(4,1,4),(0.,0.5,1.),.QUASI_UNIFORM_KNOTS.);
#49 = CARTESIAN_POINT('',(0.387652476223,0.249878019022,-0.5));
#50 = CARTESIAN_POINT('',(0.331451499558,0.17962679819,-0.5));
#51 = CARTESIAN_POINT('',(0.268405574555,2.044235023497E-16,-0.5));
#52 = CARTESIAN_POINT('',(0.331451499558,-0.17962679819,-0.5));
#53 = CARTESIAN_POINT('',(0.387652476223,-0.249878019022,-0.5));
#54 = B_SPLINE_SURFACE_WITH_KNOTS('',3,3,(
    (#55,#56,#57,#58)
    ,(#59,#60,#61,#62)
    ,(#63,#64,#65,#66)
    ,(#67,#68,#69,#70)
    ,(#71,#72,#73,#74
    )),.UNSPECIFIED.,.F.,.F.,.F.,(4,1,4),(4,4),(0.,0.5,1.),(0.,1.),
  .UNSPECIFIED.);
#55 = CARTESIAN_POINT('',(0.387652476223,0.249878019022,-0.5));
#56 = CARTESIAN_POINT('',(0.408434984149,0.233252012681,-0.7));
#57 = CARTESIAN_POINT('',(0.429217492074,0.216626006341,-0.9));
#58 = CARTESIAN_POINT('',(0.45,0.2,-1.1));
#59 = CARTESIAN_POINT('',(0.331451499558,0.17962679819,-0.5));
#60 = CARTESIAN_POINT('',(0.371100241326,0.164121711111,-0.7));
#61 = CARTESIAN_POINT('',(0.410351258231,0.148838420412,-0.9));
#62 = CARTESIAN_POINT('',(0.45,0.133333333333,-1.1));
#63 = CARTESIAN_POINT('',(0.268405574555,2.044235023497E-16,-0.5));
#64 = CARTESIAN_POINT('',(0.328780821175,1.719942779763E-16,-0.7));
#65 = CARTESIAN_POINT('',(0.38962475338,5.714614855514E-17,-0.9));
#66 = CARTESIAN_POINT('',(0.45,2.471692418169E-17,-1.1));
#67 = CARTESIAN_POINT('',(0.331451499558,-0.17962679819,-0.5));
#68 = CARTESIAN_POINT('',(0.371100241326,-0.164121711111,-0.7));
#69 = CARTESIAN_POINT('',(0.410351258231,-0.148838420412,-0.9));
#70 = CARTESIAN_POINT('',(0.45,-0.133333333333,-1.1));
#71 = CARTESIAN_POINT('',(0.387652476223,-0.249878019022,-0.5));
#72 = CARTESIAN_POINT('',(0.408434984149,-0.233252012681,-0.7));
#73 = CARTESIAN_POINT('',(0.429217492074,-0.216626006341,-0.9));
#74 = CARTESIAN_POINT('',(0.45,-0.2,-1.1));
#75 = ADVANCED_FACE('',(#76),#104,.F.);
#76 = FACE_BOUND('',#77,.F.);
#77 = EDGE_LOOP('',(#78,#88,#94,#95));
#78 = ORIENTED_EDGE('',*,*,#79,.T.);
#79 = EDGE_CURVE('',#80,#82,#84,.T.);
#80 = VERTEX_POINT('',#81);
#81 = CARTESIAN_POINT('',(1.012347523777,-0.249878019022,-0.5));
#82 = VERTEX_POINT('',#83);
#83 = CARTESIAN_POINT('',(0.95,-0.2,-1.1));
#84 = LINE('',#85,#86);
#85 = CARTESIAN_POINT('',(1.012347523777,-0.249878019022,-0.5));
#86 = VECTOR('',#87,1.);
#87 = DIRECTION('',(-0.103004518356,8.240361468509E-02,-0.991261677603)
  );
#88 = ORIENTED_EDGE('',*,*,#89,.T.);
#89 = EDGE_CURVE('',#82,#24,#90,.T.);
#90 = LINE('',#91,#92);
#91 = CARTESIAN_POINT('',(0.968277815353,-0.2,-1.1));
#92 = VECTOR('',#93,1.);
#93 = DIRECTION('',(-1.,0.,2.702050966752E-31));
#94 = ORIENTED_EDGE('',*,*,#21,.F.);
#95 = ORIENTED_EDGE('',*,*,#96,.T.);
#96 = EDGE_CURVE('',#22,#80,#97,.T.);
#97 = B_SPLINE_CURVE_WITH_KNOTS('',3,(#98,#99,#100,#101,#102,#103),
  .UNSPECIFIED.,.F.,.F.,(4,1,1,4),(0.,0.285714285714,0.571428571429,1.),
  .UNSPECIFIED.);
#98 = CARTESIAN_POINT('',(0.387652476223,-0.249878019022,-0.5));
#99 = CARTESIAN_POINT('',(0.430300960876,-0.303188624839,-0.5));
#100 = CARTESIAN_POINT('',(0.543289239455,-0.387252561395,-0.5));
#101 = CARTESIAN_POINT('',(0.788630326264,-0.419408196035,-0.5));
#102 = CARTESIAN_POINT('',(0.948374796797,-0.329843927747,-0.5));
#103 = CARTESIAN_POINT('',(1.012347523777,-0.249878019022,-0.5));
#104 = B_SPLINE_SURFACE_WITH_KNOTS('',3,3,(
    (#105,#106,#107,#108)
    ,(#109,#110,#111,#112)
    ,(#113,#114,#115,#116)
    ,(#117,#118,#119,#120)
    ,(#121,#122,#123,#124)
    ,(#125,#126,#127,#128
    )),.UNSPECIFIED.,.F.,.F.,.F.,(4,1,1,4),(4,4),(0.,0.285714285714,
    0.571428571429,1.),(0.,1.),.UNSPECIFIED.);
#105 = CARTESIAN_POINT('',(0.387652476223,-0.249878019022,-0.5));
#106 = CARTESIAN_POINT('',(0.408434984149,-0.233252012681,-0.7));
#107 = CARTESIAN_POINT('',(0.429217492074,-0.216626006341,-0.9));
#108 = CARTESIAN_POINT('',(0.45,-0.2,-1.1));
#109 = CARTESIAN_POINT('',(0.430300960876,-0.303188624839,-0.5));
#110 = CARTESIAN_POINT('',(0.452757207679,-0.268760291721,-0.7));
#111 = CARTESIAN_POINT('',(0.475162800817,-0.234428333118,-0.9));
#112 = CARTESIAN_POINT('',(0.497619047619,-0.2,-1.1));
#113 = CARTESIAN_POINT('',(0.543289239455,-0.387252561395,-0.5));
#114 = CARTESIAN_POINT('',(0.559777043453,-0.324798383526,-0.7));
#115 = CARTESIAN_POINT('',(0.576369338858,-0.262454177869,-0.9));
#116 = CARTESIAN_POINT('',(0.592857142857,-0.2,-1.1));
#117 = CARTESIAN_POINT('',(0.788630326264,-0.419408196035,-0.5));
#118 = CARTESIAN_POINT('',(0.778996565747,-0.346359192517,-0.7));
#119 = CARTESIAN_POINT('',(0.769157570041,-0.273049003518,-0.9));
#120 = CARTESIAN_POINT('',(0.759523809524,-0.2,-1.1));
#121 = CARTESIAN_POINT('',(0.948374796797,-0.329843927747,-0.5));
#122 = CARTESIAN_POINT('',(0.924957412937,-0.286348711778,-0.7));
#123 = CARTESIAN_POINT('',(0.901988812432,-0.243495215969,-0.9));
#124 = CARTESIAN_POINT('',(0.878571428571,-0.2,-1.1));
#125 = CARTESIAN_POINT('',(1.012347523777,-0.249878019022,-0.5));
#126 = CARTESIAN_POINT('',(0.991565015851,-0.233252012681,-0.7));
#127 = CARTESIAN_POINT('',(0.970782507926,-0.216626006341,-0.9));
#128 = CARTESIAN_POINT('',(0.95,-0.2,-1.1));
#129 = ADVANCED_FACE('',(#130),#157,.F.);
#130 = FACE_BOUND('',#131,.F.);
#131 = EDGE_LOOP('',(#132,#142,#148,#149));
#132 = ORIENTED_EDGE('',*,*,#133,.T.);
#133 = EDGE_CURVE('',#134,#136,#138,.T.);
#134 = VERTEX_POINT('',#135);
#135 = CARTESIAN_POINT('',(1.012347523777,0.249878019022,-0.5));
#136 = VERTEX_POINT('',#137);
#137 = CARTESIAN_POINT('',(0.95,0.2,-1.1));
#138 = LINE('',#139,#140);
#139 = CARTESIAN_POINT('',(1.012347523777,0.249878019022,-0.5));
#140 = VECTOR('',#141,1.);
#141 = DIRECTION('',(-0.103004518356,-8.240361468509E-02,-0.991261677603
    ));
#142 = ORIENTED_EDGE('',*,*,#143,.T.);
#143 = EDGE_CURVE('',#136,#82,#144,.T.);
#144 = LINE('',#145,#146);
#145 = CARTESIAN_POINT('',(0.95,3.593152881319E-33,-1.1));
#146 = VECTOR('',#147,1.);
#147 = DIRECTION('',(0.,-1.,1.79657644066E-32));
#148 = ORIENTED_EDGE('',*,*,#79,.F.);
#149 = ORIENTED_EDGE('',*,*,#150,.T.);
#150 = EDGE_CURVE('',#80,#134,#151,.T.);
#151 = B_SPLINE_CURVE_WITH_KNOTS('',3,(#152,#153,#154,#155,#156),
  .UNSPECIFIED.,.F.,.F.,(4,1,4),(0.,0.5,1.),.QUASI_UNIFORM_KNOTS.);
#152 = CARTESIAN_POINT('',(1.012347523777,-0.249878019022,-0.5));
#153 = CARTESIAN_POINT('',(1.068548500442,-0.17962679819,-0.5));
#154 = CARTESIAN_POINT('',(1.131583892149,1.510490524325E-16,-0.5));
#155 = CARTESIAN_POINT('',(1.068548500442,0.17962679819,-0.5));
#156 = CARTESIAN_POINT('',(1.012347523777,0.249878019022,-0.5));
#157 = B_SPLINE_SURFACE_WITH_KNOTS('',3,3,(
    (#158,#159,#160,#161)
    ,(#162,#163,#164,#165)
    ,(#166,#167,#168,#169)
    ,(#170,#171,#172,#173)
    ,(#174,#175,#176,#177
    )),.UNSPECIFIED.,.F.,.F.,.F.,(4,1,4),(4,4),(0.,0.5,1.),(0.,1.),
  .UNSPECIFIED.);
#158 = CARTESIAN_POINT('',(1.012347523777,-0.249878019022,-0.5));
#159 = CARTESIAN_POINT('',(0.991565015851,-0.233252012681,-0.7));
#160 = CARTESIAN_POINT('',(0.970782507926,-0.216626006341,-0.9));
#161 = CARTESIAN_POINT('',(0.95,-0.2,-1.1));
#162 = CARTESIAN_POINT('',(1.068548500442,-0.17962679819,-0.5));
#163 = CARTESIAN_POINT('',(1.028899758674,-0.164121711111,-0.7));
#164 = CARTESIAN_POINT('',(0.989648741769,-0.148838420412,-0.9));
#165 = CARTESIAN_POINT('',(0.95,-0.133333333333,-1.1));
#166 = CARTESIAN_POINT('',(1.131583892149,1.510490524325E-16,-0.5));
#167 = CARTESIAN_POINT('',(1.071208645529,5.888178316056E-17,-0.7));
#168 = CARTESIAN_POINT('',(1.01037524662,8.251375840218E-17,-0.9));
#169 = CARTESIAN_POINT('',(0.95,-9.653510869745E-18,-1.1));
#170 = CARTESIAN_POINT('',(1.068548500442,0.17962679819,-0.5));
#171 = CARTESIAN_POINT('',(1.028899758674,0.164121711111,-0.7));
#172 = CARTESIAN_POINT('',(0.989648741769,0.148838420412,-0.9));
#173 = CARTESIAN_POINT('',(0.95,0.133333333333,-1.1));
#174 = CARTESIAN_POINT('',(1.012347523777,0.249878019022,-0.5));
#175 = CARTESIAN_POINT('',(0.991565015851,0.233252012681,-0.7));
#176 = CARTESIAN_POINT('',(0.970782507926,0.216626006341,-0.9));
#177 = CARTESIAN_POINT('',(0.95,0.2,-1.1));
#178 = ADVANCED_FACE('',(#179),#198,.F.);
#179 = FACE_BOUND('',#180,.F.);
#180 = EDGE_LOOP('',(#181,#182,#188,#189));
#181 = ORIENTED_EDGE('',*,*,#39,.T.);
#182 = ORIENTED_EDGE('',*,*,#183,.T.);
#183 = EDGE_CURVE('',#32,#136,#184,.T.);
#184 = LINE('',#185,#186);
#185 = CARTESIAN_POINT('',(0.968277815353,0.2,-1.1));
#186 = VECTOR('',#187,1.);
#187 = DIRECTION('',(1.,0.,-2.702050966752E-31));
#188 = ORIENTED_EDGE('',*,*,#133,.F.);
#189 = ORIENTED_EDGE('',*,*,#190,.T.);
#190 = EDGE_CURVE('',#134,#40,#191,.T.);
#191 = B_SPLINE_CURVE_WITH_KNOTS('',3,(#192,#193,#194,#195,#196,#197),
  .UNSPECIFIED.,.F.,.F.,(4,1,1,4),(0.,0.285714285714,0.571428571429,1.),
  .UNSPECIFIED.);
#192 = CARTESIAN_POINT('',(1.012347523777,0.249878019022,-0.5));
#193 = CARTESIAN_POINT('',(0.969699039124,0.303188624839,-0.5));
#194 = CARTESIAN_POINT('',(0.856710760545,0.387252561395,-0.5));
#195 = CARTESIAN_POINT('',(0.611369673736,0.419408196035,-0.5));
#196 = CARTESIAN_POINT('',(0.451625203203,0.329843927747,-0.5));
#197 = CARTESIAN_POINT('',(0.387652476223,0.249878019022,-0.5));
#198 = B_SPLINE_SURFACE_WITH_KNOTS('',3,3,(
    (#199,#200,#201,#202)
    ,(#203,#204,#205,#206)
    ,(#207,#208,#209,#210)
    ,(#211,#212,#213,#214)
    ,(#215,#216,#217,#218)
    ,(#219,#220,#221,#222
    )),.UNSPECIFIED.,.F.,.F.,.F.,(4,1,1,4),(4,4),(0.,0.285714285714,
    0.571428571429,1.),(0.,1.),.UNSPECIFIED.);
#199 = CARTESIAN_POINT('',(1.012347523777,0.249878019022,-0.5));
#200 = CARTESIAN_POINT('',(0.991565015851,0.233252012681,-0.7));
#201 = CARTESIAN_POINT('',(0.970782507926,0.216626006341,-0.9));
#202 = CARTESIAN_POINT('',(0.95,0.2,-1.1));
#203 = CARTESIAN_POINT('',(0.969699039124,0.303188624839,-0.5));
#204 = CARTESIAN_POINT('',(0.947242792321,0.268760291721,-0.7));
#205 = CARTESIAN_POINT('',(0.924837199183,0.234428333118,-0.9));
#206 = CARTESIAN_POINT('',(0.902380952381,0.2,-1.1));
#207 = CARTESIAN_POINT('',(0.856710760545,0.387252561395,-0.5));
#208 = CARTESIAN_POINT('',(0.840222956547,0.324798383526,-0.7));
#209 = CARTESIAN_POINT('',(0.823630661142,0.262454177869,-0.9));
#210 = CARTESIAN_POINT('',(0.807142857143,0.2,-1.1));
#211 = CARTESIAN_POINT('',(0.611369673736,0.419408196035,-0.5));
#212 = CARTESIAN_POINT('',(0.621003434253,0.346359192517,-0.7));
#213 = CARTESIAN_POINT('',(0.630842429959,0.273049003518,-0.9));
#214 = CARTESIAN_POINT('',(0.640476190476,0.2,-1.1));
#215 = CARTESIAN_POINT('',(0.451625203203,0.329843927747,-0.5));
#216 = CARTESIAN_POINT('',(0.475042587063,0.286348711778,-0.7));
#217 = CARTESIAN_POINT('',(0.498011187568,0.243495215969,-0.9));
#218 = CARTESIAN_POINT('',(0.521428571429,0.2,-1.1));
#219 = CARTESIAN_POINT('',(0.387652476223,0.249878019022,-0.5));
#220 = CARTESIAN_POINT('',(0.408434984149,0.233252012681,-0.7));
#221 = CARTESIAN_POINT('',(0.429217492074,0.216626006341,-0.9));
#222 = CARTESIAN_POINT('',(0.45,0.2,-1.1));
#223 = ADVANCED_FACE('',(#224),#249,.T.);
#224 = FACE_BOUND('',#225,.T.);
#225 = EDGE_LOOP('',(#226,#227,#235,#243));
#226 = ORIENTED_EDGE('',*,*,#143,.T.);
#227 = ORIENTED_EDGE('',*,*,#228,.T.);
#228 = EDGE_CURVE('',#82,#229,#231,.T.);
#229 = VERTEX_POINT('',#230);
#230 = CARTESIAN_POINT('',(0.95,-0.2,-1.25));
#231 = LINE('',#232,#233);
#232 = CARTESIAN_POINT('',(0.95,-0.2,-1.5));
#233 = VECTOR('',#234,1.);
#234 = DIRECTION('',(0.,0.,-1.));
#235 = ORIENTED_EDGE('',*,*,#236,.F.);
#236 = EDGE_CURVE('',#237,#229,#239,.T.);
#237 = VERTEX_POINT('',#238);
#238 = CARTESIAN_POINT('',(0.95,0.2,-1.25));
#239 = LINE('',#240,#241);
#240 = CARTESIAN_POINT('',(0.95,0.,-1.25));
#241 = VECTOR('',#242,1.);
#242 = DIRECTION('',(0.,-1.,0.));
#243 = ORIENTED_EDGE('',*,*,#244,.T.);
#244 = EDGE_CURVE('',#237,#136,#245,.T.);
#245 = LINE('',#246,#247);
#246 = CARTESIAN_POINT('',(0.95,0.2,-1.5));
#247 = VECTOR('',#248,1.);
#248 = DIRECTION('',(0.,0.,1.));
#249 = PLANE('',#250);
#250 = AXIS2_PLACEMENT_3D('',#251,#252,#253);
#251 = CARTESIAN_POINT('',(0.95,0.,-1.5));
#252 = DIRECTION('',(1.,0.,0.));
#253 = DIRECTION('',(0.,0.,-1.));
#254 = ADVANCED_FACE('',(#255),#332,.F.);
#255 = FACE_BOUND('',#256,.T.);
#256 = EDGE_LOOP('',(#257,#258,#266,#275,#283,#292,#300,#308,#316,#324,
    #331));
#257 = ORIENTED_EDGE('',*,*,#89,.T.);
#258 = ORIENTED_EDGE('',*,*,#259,.F.);
#259 = EDGE_CURVE('',#260,#24,#262,.T.);
#260 = VERTEX_POINT('',#261);
#261 = CARTESIAN_POINT('',(0.45,-0.2,-1.72));
#262 = LINE('',#263,#264);
#263 = CARTESIAN_POINT('',(0.45,-0.2,-0.5));
#264 = VECTOR('',#265,1.);
#265 = DIRECTION('',(9.91270557701E-17,0.,1.));
#266 = ORIENTED_EDGE('',*,*,#267,.F.);
#267 = EDGE_CURVE('',#268,#260,#270,.T.);
#268 = VERTEX_POINT('',#269);
#269 = CARTESIAN_POINT('',(0.63,-0.2,-1.9));
#270 = CIRCLE('',#271,0.18);
#271 = AXIS2_PLACEMENT_3D('',#272,#273,#274);
#272 = CARTESIAN_POINT('',(0.63,-0.2,-1.72));
#273 = DIRECTION('',(0.,1.,0.));
#274 = DIRECTION('',(-0.707106781187,0.,-0.707106781187));
#275 = ORIENTED_EDGE('',*,*,#276,.F.);
#276 = EDGE_CURVE('',#277,#268,#279,.T.);
#277 = VERTEX_POINT('',#278);
#278 = CARTESIAN_POINT('',(0.84,-0.2,-1.9));
#279 = LINE('',#280,#281);
#280 = CARTESIAN_POINT('',(0.45,-0.2,-1.9));
#281 = VECTOR('',#282,1.);
#282 = DIRECTION('',(-1.,0.,0.));
#283 = ORIENTED_EDGE('',*,*,#284,.F.);
#284 = EDGE_CURVE('',#285,#277,#287,.T.);
#285 = VERTEX_POINT('',#286);
#286 = CARTESIAN_POINT('',(1.02,-0.2,-2.08));
#287 = CIRCLE('',#288,0.18);
#288 = AXIS2_PLACEMENT_3D('',#289,#290,#291);
#289 = CARTESIAN_POINT('',(0.84,-0.2,-2.08));
#290 = DIRECTION('',(0.,-1.,0.));
#291 = DIRECTION('',(0.707106781187,0.,0.707106781187));
#292 = ORIENTED_EDGE('',*,*,#293,.F.);
#293 = EDGE_CURVE('',#294,#285,#296,.T.);
#294 = VERTEX_POINT('',#295);
#295 = CARTESIAN_POINT('',(1.02,-0.2,-29.));
#296 = LINE('',#297,#298);
#297 = CARTESIAN_POINT('',(1.02,-0.2,-1.9));
#298 = VECTOR('',#299,1.);
#299 = DIRECTION('',(1.229029178552E-16,0.,1.));
#300 = ORIENTED_EDGE('',*,*,#301,.F.);
#301 = EDGE_CURVE('',#302,#294,#304,.T.);
#302 = VERTEX_POINT('',#303);
#303 = CARTESIAN_POINT('',(1.52,-0.2,-29.));
#304 = LINE('',#305,#306);
#305 = CARTESIAN_POINT('',(1.02,-0.2,-29.));
#306 = VECTOR('',#307,1.);
#307 = DIRECTION('',(-1.,0.,0.));
#308 = ORIENTED_EDGE('',*,*,#309,.F.);
#309 = EDGE_CURVE('',#310,#302,#312,.T.);
#310 = VERTEX_POINT('',#311);
#311 = CARTESIAN_POINT('',(1.52,-0.2,-1.5));
#312 = LINE('',#313,#314);
#313 = CARTESIAN_POINT('',(1.52,-0.2,-29.));
#314 = VECTOR('',#315,1.);
#315 = DIRECTION('',(0.,0.,-1.));
#316 = ORIENTED_EDGE('',*,*,#317,.F.);
#317 = EDGE_CURVE('',#318,#310,#320,.T.);
#318 = VERTEX_POINT('',#319);
#319 = CARTESIAN_POINT('',(1.2,-0.2,-1.5));
#320 = LINE('',#321,#322);
#321 = CARTESIAN_POINT('',(1.52,-0.2,-1.5));
#322 = VECTOR('',#323,1.);
#323 = DIRECTION('',(1.,0.,0.));
#324 = ORIENTED_EDGE('',*,*,#325,.F.);
#325 = EDGE_CURVE('',#229,#318,#326,.T.);
#326 = CIRCLE('',#327,0.25);
#327 = AXIS2_PLACEMENT_3D('',#328,#329,#330);
#328 = CARTESIAN_POINT('',(1.2,-0.2,-1.25));
#329 = DIRECTION('',(0.,-1.,0.));
#330 = DIRECTION('',(-0.707106781187,-0.,-0.707106781187));
#331 = ORIENTED_EDGE('',*,*,#228,.F.);
#332 = PLANE('',#333);
#333 = AXIS2_PLACEMENT_3D('',#334,#335,#336);
#334 = CARTESIAN_POINT('',(1.236555630707,-0.2,-14.49844436929));
#335 = DIRECTION('',(0.,1.,0.));
#336 = DIRECTION('',(0.,-0.,1.));
#337 = ADVANCED_FACE('',(#338),#375,.F.);
#338 = FACE_BOUND('',#339,.F.);
#339 = EDGE_LOOP('',(#340,#350,#358,#366));
#340 = ORIENTED_EDGE('',*,*,#341,.T.);
#341 = EDGE_CURVE('',#342,#344,#346,.T.);
#342 = VERTEX_POINT('',#343);
#343 = CARTESIAN_POINT('',(-1.012347523777,0.249878019022,-0.5));
#344 = VERTEX_POINT('',#345);
#345 = CARTESIAN_POINT('',(-0.95,0.2,-1.1));
#346 = LINE('',#347,#348);
#347 = CARTESIAN_POINT('',(-1.012347523777,0.249878019022,-0.5));
#348 = VECTOR('',#349,1.);
#349 = DIRECTION('',(0.103004518356,-8.240361468508E-02,-0.991261677603)
  );
#350 = ORIENTED_EDGE('',*,*,#351,.T.);
#351 = EDGE_CURVE('',#344,#352,#354,.T.);
#352 = VERTEX_POINT('',#353);
#353 = CARTESIAN_POINT('',(-0.45,0.2,-1.1));
#354 = LINE('',#355,#356);
#355 = CARTESIAN_POINT('',(-0.968697841132,0.2,-1.1));
#356 = VECTOR('',#357,1.);
#357 = DIRECTION('',(1.,0.,1.52924586629E-30));
#358 = ORIENTED_EDGE('',*,*,#359,.F.);
#359 = EDGE_CURVE('',#360,#352,#362,.T.);
#360 = VERTEX_POINT('',#361);
#361 = CARTESIAN_POINT('',(-0.387652476223,0.249878019022,-0.5));
#362 = LINE('',#363,#364);
#363 = CARTESIAN_POINT('',(-0.387652476223,0.249878019022,-0.5));
#364 = VECTOR('',#365,1.);
#365 = DIRECTION('',(-0.103004518356,-8.240361468509E-02,-0.991261677603
    ));
#366 = ORIENTED_EDGE('',*,*,#367,.T.);
#367 = EDGE_CURVE('',#360,#342,#368,.T.);
#368 = B_SPLINE_CURVE_WITH_KNOTS('',3,(#369,#370,#371,#372,#373,#374),
  .UNSPECIFIED.,.F.,.F.,(4,1,1,4),(0.,0.285714285714,0.571428571429,1.),
  .UNSPECIFIED.);
#369 = CARTESIAN_POINT('',(-0.387652476223,0.249878019022,-0.5));
#370 = CARTESIAN_POINT('',(-0.430300960876,0.303188624839,-0.5));
#371 = CARTESIAN_POINT('',(-0.543289239455,0.387252561395,-0.5));
#372 = CARTESIAN_POINT('',(-0.788630326264,0.419408196035,-0.5));
#373 = CARTESIAN_POINT('',(-0.948374796797,0.329843927747,-0.5));
#374 = CARTESIAN_POINT('',(-1.012347523777,0.249878019022,-0.5));
#375 = B_SPLINE_SURFACE_WITH_KNOTS('',3,3,(
    (#376,#377,#378,#379)
    ,(#380,#381,#382,#383)
    ,(#384,#385,#386,#387)
    ,(#388,#389,#390,#391)
    ,(#392,#393,#394,#395)
    ,(#396,#397,#398,#399
    )),.UNSPECIFIED.,.F.,.F.,.F.,(4,1,1,4),(4,4),(0.,0.285714285714,
    0.571428571429,1.),(0.,1.),.UNSPECIFIED.);
#376 = CARTESIAN_POINT('',(-0.387652476223,0.249878019022,-0.5));
#377 = CARTESIAN_POINT('',(-0.408434984149,0.233252012681,-0.7));
#378 = CARTESIAN_POINT('',(-0.429217492074,0.216626006341,-0.9));
#379 = CARTESIAN_POINT('',(-0.45,0.2,-1.1));
#380 = CARTESIAN_POINT('',(-0.430300960876,0.303188624839,-0.5));
#381 = CARTESIAN_POINT('',(-0.452757207679,0.268760291721,-0.7));
#382 = CARTESIAN_POINT('',(-0.475162800817,0.234428333118,-0.9));
#383 = CARTESIAN_POINT('',(-0.497619047619,0.2,-1.1));
#384 = CARTESIAN_POINT('',(-0.543289239455,0.387252561395,-0.5));
#385 = CARTESIAN_POINT('',(-0.559777043453,0.324798383526,-0.7));
#386 = CARTESIAN_POINT('',(-0.576369338858,0.262454177869,-0.9));
#387 = CARTESIAN_POINT('',(-0.592857142857,0.2,-1.1));
#388 = CARTESIAN_POINT('',(-0.788630326264,0.419408196035,-0.5));
#389 = CARTESIAN_POINT('',(-0.778996565747,0.346359192517,-0.7));
#390 = CARTESIAN_POINT('',(-0.769157570041,0.273049003518,-0.9));
#391 = CARTESIAN_POINT('',(-0.759523809524,0.2,-1.1));
#392 = CARTESIAN_POINT('',(-0.948374796797,0.329843927747,-0.5));
#393 = CARTESIAN_POINT('',(-0.924957412937,0.286348711778,-0.7));
#394 = CARTESIAN_POINT('',(-0.901988812432,0.243495215969,-0.9));
#395 = CARTESIAN_POINT('',(-0.878571428571,0.2,-1.1));
#396 = CARTESIAN_POINT('',(-1.012347523777,0.249878019022,-0.5));
#397 = CARTESIAN_POINT('',(-0.991565015851,0.233252012681,-0.7));
#398 = CARTESIAN_POINT('',(-0.970782507926,0.216626006341,-0.9));
#399 = CARTESIAN_POINT('',(-0.95,0.2,-1.1));
#400 = ADVANCED_FACE('',(#401),#428,.F.);
#401 = FACE_BOUND('',#402,.F.);
#402 = EDGE_LOOP('',(#403,#413,#419,#420));
#403 = ORIENTED_EDGE('',*,*,#404,.T.);
#404 = EDGE_CURVE('',#405,#407,#409,.T.);
#405 = VERTEX_POINT('',#406);
#406 = CARTESIAN_POINT('',(-1.012347523777,-0.249878019022,-0.5));
#407 = VERTEX_POINT('',#408);
#408 = CARTESIAN_POINT('',(-0.95,-0.2,-1.1));
#409 = LINE('',#410,#411);
#410 = CARTESIAN_POINT('',(-1.012347523777,-0.249878019022,-0.5));
#411 = VECTOR('',#412,1.);
#412 = DIRECTION('',(0.103004518356,8.240361468508E-02,-0.991261677603)
  );
#413 = ORIENTED_EDGE('',*,*,#414,.T.);
#414 = EDGE_CURVE('',#407,#344,#415,.T.);
#415 = LINE('',#416,#417);
#416 = CARTESIAN_POINT('',(-0.95,1.401796748264E-18,-1.1));
#417 = VECTOR('',#418,1.);
#418 = DIRECTION('',(0.,1.,4.491441101649E-33));
#419 = ORIENTED_EDGE('',*,*,#341,.F.);
#420 = ORIENTED_EDGE('',*,*,#421,.T.);
#421 = EDGE_CURVE('',#342,#405,#422,.T.);
#422 = B_SPLINE_CURVE_WITH_KNOTS('',3,(#423,#424,#425,#426,#427),
  .UNSPECIFIED.,.F.,.F.,(4,1,4),(0.,0.5,1.),.QUASI_UNIFORM_KNOTS.);
#423 = CARTESIAN_POINT('',(-1.012347523777,0.249878019022,-0.5));
#424 = CARTESIAN_POINT('',(-1.068548500442,0.17962679819,-0.5));
#425 = CARTESIAN_POINT('',(-1.131583892149,1.987487532006E-17,-0.5));
#426 = CARTESIAN_POINT('',(-1.068548500442,-0.17962679819,-0.5));
#427 = CARTESIAN_POINT('',(-1.012347523777,-0.249878019022,-0.5));
#428 = B_SPLINE_SURFACE_WITH_KNOTS('',3,3,(
    (#429,#430,#431,#432)
    ,(#433,#434,#435,#436)
    ,(#437,#438,#439,#440)
    ,(#441,#442,#443,#444)
    ,(#445,#446,#447,#448
    )),.UNSPECIFIED.,.F.,.F.,.F.,(4,1,4),(4,4),(0.,0.5,1.),(0.,1.),
  .UNSPECIFIED.);
#429 = CARTESIAN_POINT('',(-1.012347523777,0.249878019022,-0.5));
#430 = CARTESIAN_POINT('',(-0.991565015851,0.233252012681,-0.7));
#431 = CARTESIAN_POINT('',(-0.970782507926,0.216626006341,-0.9));
#432 = CARTESIAN_POINT('',(-0.95,0.2,-1.1));
#433 = CARTESIAN_POINT('',(-1.068548500442,0.17962679819,-0.5));
#434 = CARTESIAN_POINT('',(-1.028899758674,0.164121711111,-0.7));
#435 = CARTESIAN_POINT('',(-0.989648741769,0.148838420412,-0.9));
#436 = CARTESIAN_POINT('',(-0.95,0.133333333333,-1.1));
#437 = CARTESIAN_POINT('',(-1.131583892149,1.987487532006E-17,-0.5));
#438 = CARTESIAN_POINT('',(-1.071208645529,-3.132916316434E-17,-0.7));
#439 = CARTESIAN_POINT('',(-1.01037524662,6.085754935415E-17,-0.9));
#440 = CARTESIAN_POINT('',(-0.95,9.653510869745E-18,-1.1));
#441 = CARTESIAN_POINT('',(-1.068548500442,-0.17962679819,-0.5));
#442 = CARTESIAN_POINT('',(-1.028899758674,-0.164121711111,-0.7));
#443 = CARTESIAN_POINT('',(-0.989648741769,-0.148838420412,-0.9));
#444 = CARTESIAN_POINT('',(-0.95,-0.133333333333,-1.1));
#445 = CARTESIAN_POINT('',(-1.012347523777,-0.249878019022,-0.5));
#446 = CARTESIAN_POINT('',(-0.991565015851,-0.233252012681,-0.7));
#447 = CARTESIAN_POINT('',(-0.970782507926,-0.216626006341,-0.9));
#448 = CARTESIAN_POINT('',(-0.95,-0.2,-1.1));
#449 = ADVANCED_FACE('',(#450),#478,.F.);
#450 = FACE_BOUND('',#451,.F.);
#451 = EDGE_LOOP('',(#452,#462,#468,#469));
#452 = ORIENTED_EDGE('',*,*,#453,.T.);
#453 = EDGE_CURVE('',#454,#456,#458,.T.);
#454 = VERTEX_POINT('',#455);
#455 = CARTESIAN_POINT('',(-0.387652476223,-0.249878019022,-0.5));
#456 = VERTEX_POINT('',#457);
#457 = CARTESIAN_POINT('',(-0.45,-0.2,-1.1));
#458 = LINE('',#459,#460);
#459 = CARTESIAN_POINT('',(-0.387652476223,-0.249878019022,-0.5));
#460 = VECTOR('',#461,1.);
#461 = DIRECTION('',(-0.103004518356,8.240361468509E-02,-0.991261677603)
  );
#462 = ORIENTED_EDGE('',*,*,#463,.T.);
#463 = EDGE_CURVE('',#456,#407,#464,.T.);
#464 = LINE('',#465,#466);
#465 = CARTESIAN_POINT('',(-0.968697841132,-0.2,-1.1));
#466 = VECTOR('',#467,1.);
#467 = DIRECTION('',(-1.,0.,-1.52924586629E-30));
#468 = ORIENTED_EDGE('',*,*,#404,.F.);
#469 = ORIENTED_EDGE('',*,*,#470,.T.);
#470 = EDGE_CURVE('',#405,#454,#471,.T.);
#471 = B_SPLINE_CURVE_WITH_KNOTS('',3,(#472,#473,#474,#475,#476,#477),
  .UNSPECIFIED.,.F.,.F.,(4,1,1,4),(0.,0.285714285714,0.571428571429,1.),
  .UNSPECIFIED.);
#472 = CARTESIAN_POINT('',(-1.012347523777,-0.249878019022,-0.5));
#473 = CARTESIAN_POINT('',(-0.969699039124,-0.303188624839,-0.5));
#474 = CARTESIAN_POINT('',(-0.856710760545,-0.387252561395,-0.5));
#475 = CARTESIAN_POINT('',(-0.611369673736,-0.419408196035,-0.5));
#476 = CARTESIAN_POINT('',(-0.451625203203,-0.329843927747,-0.5));
#477 = CARTESIAN_POINT('',(-0.387652476223,-0.249878019022,-0.5));
#478 = B_SPLINE_SURFACE_WITH_KNOTS('',3,3,(
    (#479,#480,#481,#482)
    ,(#483,#484,#485,#486)
    ,(#487,#488,#489,#490)
    ,(#491,#492,#493,#494)
    ,(#495,#496,#497,#498)
    ,(#499,#500,#501,#502
    )),.UNSPECIFIED.,.F.,.F.,.F.,(4,1,1,4),(4,4),(0.,0.285714285714,
    0.571428571429,1.),(0.,1.),.UNSPECIFIED.);
#479 = CARTESIAN_POINT('',(-1.012347523777,-0.249878019022,-0.5));
#480 = CARTESIAN_POINT('',(-0.991565015851,-0.233252012681,-0.7));
#481 = CARTESIAN_POINT('',(-0.970782507926,-0.216626006341,-0.9));
#482 = CARTESIAN_POINT('',(-0.95,-0.2,-1.1));
#483 = CARTESIAN_POINT('',(-0.969699039124,-0.303188624839,-0.5));
#484 = CARTESIAN_POINT('',(-0.947242792321,-0.268760291721,-0.7));
#485 = CARTESIAN_POINT('',(-0.924837199183,-0.234428333118,-0.9));
#486 = CARTESIAN_POINT('',(-0.902380952381,-0.2,-1.1));
#487 = CARTESIAN_POINT('',(-0.856710760545,-0.387252561395,-0.5));
#488 = CARTESIAN_POINT('',(-0.840222956547,-0.324798383526,-0.7));
#489 = CARTESIAN_POINT('',(-0.823630661142,-0.262454177869,-0.9));
#490 = CARTESIAN_POINT('',(-0.807142857143,-0.2,-1.1));
#491 = CARTESIAN_POINT('',(-0.611369673736,-0.419408196035,-0.5));
#492 = CARTESIAN_POINT('',(-0.621003434253,-0.346359192517,-0.7));
#493 = CARTESIAN_POINT('',(-0.630842429959,-0.273049003518,-0.9));
#494 = CARTESIAN_POINT('',(-0.640476190476,-0.2,-1.1));
#495 = CARTESIAN_POINT('',(-0.451625203203,-0.329843927747,-0.5));
#496 = CARTESIAN_POINT('',(-0.475042587063,-0.286348711778,-0.7));
#497 = CARTESIAN_POINT('',(-0.498011187568,-0.243495215969,-0.9));
#498 = CARTESIAN_POINT('',(-0.521428571429,-0.2,-1.1));
#499 = CARTESIAN_POINT('',(-0.387652476223,-0.249878019022,-0.5));
#500 = CARTESIAN_POINT('',(-0.408434984149,-0.233252012681,-0.7));
#501 = CARTESIAN_POINT('',(-0.429217492074,-0.216626006341,-0.9));
#502 = CARTESIAN_POINT('',(-0.45,-0.2,-1.1));
#503 = ADVANCED_FACE('',(#504),#522,.F.);
#504 = FACE_BOUND('',#505,.F.);
#505 = EDGE_LOOP('',(#506,#507,#513,#514));
#506 = ORIENTED_EDGE('',*,*,#359,.T.);
#507 = ORIENTED_EDGE('',*,*,#508,.T.);
#508 = EDGE_CURVE('',#352,#456,#509,.T.);
#509 = LINE('',#510,#511);
#510 = CARTESIAN_POINT('',(-0.45,1.401796748264E-18,-1.1));
#511 = VECTOR('',#512,1.);
#512 = DIRECTION('',(4.452233325713E-49,-1.,-4.491441101649E-33));
#513 = ORIENTED_EDGE('',*,*,#453,.F.);
#514 = ORIENTED_EDGE('',*,*,#515,.T.);
#515 = EDGE_CURVE('',#454,#360,#516,.T.);
#516 = B_SPLINE_CURVE_WITH_KNOTS('',3,(#517,#518,#519,#520,#521),
  .UNSPECIFIED.,.F.,.F.,(4,1,4),(0.,0.5,1.),.QUASI_UNIFORM_KNOTS.);
#517 = CARTESIAN_POINT('',(-0.387652476223,-0.249878019022,-0.5));
#518 = CARTESIAN_POINT('',(-0.331451499558,-0.17962679819,-0.5));
#519 = CARTESIAN_POINT('',(-0.268405574555,-1.456844590003E-16,-0.5));
#520 = CARTESIAN_POINT('',(-0.331451499558,0.17962679819,-0.5));
#521 = CARTESIAN_POINT('',(-0.387652476223,0.249878019022,-0.5));
#522 = B_SPLINE_SURFACE_WITH_KNOTS('',3,3,(
    (#523,#524,#525,#526)
    ,(#527,#528,#529,#530)
    ,(#531,#532,#533,#534)
    ,(#535,#536,#537,#538)
    ,(#539,#540,#541,#542
    )),.UNSPECIFIED.,.F.,.F.,.F.,(4,1,4),(4,4),(0.,0.5,1.),(0.,1.),
  .UNSPECIFIED.);
#523 = CARTESIAN_POINT('',(-0.387652476223,-0.249878019022,-0.5));
#524 = CARTESIAN_POINT('',(-0.408434984149,-0.233252012681,-0.7));
#525 = CARTESIAN_POINT('',(-0.429217492074,-0.216626006341,-0.9));
#526 = CARTESIAN_POINT('',(-0.45,-0.2,-1.1));
#527 = CARTESIAN_POINT('',(-0.331451499558,-0.17962679819,-0.5));
#528 = CARTESIAN_POINT('',(-0.371100241326,-0.164121711111,-0.7));
#529 = CARTESIAN_POINT('',(-0.410351258231,-0.148838420412,-0.9));
#530 = CARTESIAN_POINT('',(-0.45,-0.133333333333,-1.1));
#531 = CARTESIAN_POINT('',(-0.268405574555,-1.456844590003E-16,-0.5));
#532 = CARTESIAN_POINT('',(-0.328780821175,-1.337368500206E-16,-0.7));
#533 = CARTESIAN_POINT('',(-0.38962475338,-3.666453316138E-17,-0.9));
#534 = CARTESIAN_POINT('',(-0.45,-2.471692418169E-17,-1.1));
#535 = CARTESIAN_POINT('',(-0.331451499558,0.17962679819,-0.5));
#536 = CARTESIAN_POINT('',(-0.371100241326,0.164121711111,-0.7));
#537 = CARTESIAN_POINT('',(-0.410351258231,0.148838420412,-0.9));
#538 = CARTESIAN_POINT('',(-0.45,0.133333333333,-1.1));
#539 = CARTESIAN_POINT('',(-0.387652476223,0.249878019022,-0.5));
#540 = CARTESIAN_POINT('',(-0.408434984149,0.233252012681,-0.7));
#541 = CARTESIAN_POINT('',(-0.429217492074,0.216626006341,-0.9));
#542 = CARTESIAN_POINT('',(-0.45,0.2,-1.1));
#543 = ADVANCED_FACE('',(#544),#569,.T.);
#544 = FACE_BOUND('',#545,.T.);
#545 = EDGE_LOOP('',(#546,#547,#555,#563));
#546 = ORIENTED_EDGE('',*,*,#508,.T.);
#547 = ORIENTED_EDGE('',*,*,#548,.T.);
#548 = EDGE_CURVE('',#456,#549,#551,.T.);
#549 = VERTEX_POINT('',#550);
#550 = CARTESIAN_POINT('',(-0.45,-0.2,-1.72));
#551 = LINE('',#552,#553);
#552 = CARTESIAN_POINT('',(-0.45,-0.2,-0.5));
#553 = VECTOR('',#554,1.);
#554 = DIRECTION('',(9.91270557701E-17,0.,-1.));
#555 = ORIENTED_EDGE('',*,*,#556,.F.);
#556 = EDGE_CURVE('',#557,#549,#559,.T.);
#557 = VERTEX_POINT('',#558);
#558 = CARTESIAN_POINT('',(-0.45,0.2,-1.72));
#559 = LINE('',#560,#561);
#560 = CARTESIAN_POINT('',(-0.45,0.,-1.72));
#561 = VECTOR('',#562,1.);
#562 = DIRECTION('',(0.,-1.,0.));
#563 = ORIENTED_EDGE('',*,*,#564,.T.);
#564 = EDGE_CURVE('',#557,#352,#565,.T.);
#565 = LINE('',#566,#567);
#566 = CARTESIAN_POINT('',(-0.45,0.2,-0.5));
#567 = VECTOR('',#568,1.);
#568 = DIRECTION('',(-9.91270557701E-17,0.,1.));
#569 = PLANE('',#570);
#570 = AXIS2_PLACEMENT_3D('',#571,#572,#573);
#571 = CARTESIAN_POINT('',(-0.45,0.,-1.9));
#572 = DIRECTION('',(1.,0.,9.91270557701E-17));
#573 = DIRECTION('',(9.91270557701E-17,0.,-1.));
#574 = ADVANCED_FACE('',(#575),#652,.F.);
#575 = FACE_BOUND('',#576,.T.);
#576 = EDGE_LOOP('',(#577,#578,#586,#595,#603,#611,#619,#627,#636,#644,
    #651));
#577 = ORIENTED_EDGE('',*,*,#463,.T.);
#578 = ORIENTED_EDGE('',*,*,#579,.F.);
#579 = EDGE_CURVE('',#580,#407,#582,.T.);
#580 = VERTEX_POINT('',#581);
#581 = CARTESIAN_POINT('',(-0.95,-0.2,-1.276572779265));
#582 = LINE('',#583,#584);
#583 = CARTESIAN_POINT('',(-0.95,-0.2,-1.420910346562));
#584 = VECTOR('',#585,1.);
#585 = DIRECTION('',(0.,0.,1.));
#586 = ORIENTED_EDGE('',*,*,#587,.F.);
#587 = EDGE_CURVE('',#588,#580,#590,.T.);
#588 = VERTEX_POINT('',#589);
#589 = CARTESIAN_POINT('',(-1.075,-0.2,-1.493079130211));
#590 = CIRCLE('',#591,0.25);
#591 = AXIS2_PLACEMENT_3D('',#592,#593,#594);
#592 = CARTESIAN_POINT('',(-1.2,-0.2,-1.276572779265));
#593 = DIRECTION('',(0.,-1.,0.));
#594 = DIRECTION('',(0.866025403784,0.,-0.5));
#595 = ORIENTED_EDGE('',*,*,#596,.F.);
#596 = EDGE_CURVE('',#597,#588,#599,.T.);
#597 = VERTEX_POINT('',#598);
#598 = CARTESIAN_POINT('',(-1.52,-0.2,-1.75));
#599 = LINE('',#600,#601);
#600 = CARTESIAN_POINT('',(-1.52,-0.2,-1.75));
#601 = VECTOR('',#602,1.);
#602 = DIRECTION('',(0.866025403784,0.,0.5));
#603 = ORIENTED_EDGE('',*,*,#604,.F.);
#604 = EDGE_CURVE('',#605,#597,#607,.T.);
#605 = VERTEX_POINT('',#606);
#606 = CARTESIAN_POINT('',(-1.52,-0.2,-30.5));
#607 = LINE('',#608,#609);
#608 = CARTESIAN_POINT('',(-1.52,-0.2,-30.5));
#609 = VECTOR('',#610,1.);
#610 = DIRECTION('',(0.,0.,1.));
#611 = ORIENTED_EDGE('',*,*,#612,.F.);
#612 = EDGE_CURVE('',#613,#605,#615,.T.);
#613 = VERTEX_POINT('',#614);
#614 = CARTESIAN_POINT('',(-1.02,-0.2,-30.5));
#615 = LINE('',#616,#617);
#616 = CARTESIAN_POINT('',(-1.02,-0.2,-30.5));
#617 = VECTOR('',#618,1.);
#618 = DIRECTION('',(-1.,0.,0.));
#619 = ORIENTED_EDGE('',*,*,#620,.F.);
#620 = EDGE_CURVE('',#621,#613,#623,.T.);
#621 = VERTEX_POINT('',#622);
#622 = CARTESIAN_POINT('',(-1.02,-0.2,-2.08));
#623 = LINE('',#624,#625);
#624 = CARTESIAN_POINT('',(-1.02,-0.2,-1.9));
#625 = VECTOR('',#626,1.);
#626 = DIRECTION('',(-1.94094934375E-17,0.,-1.));
#627 = ORIENTED_EDGE('',*,*,#628,.F.);
#628 = EDGE_CURVE('',#629,#621,#631,.T.);
#629 = VERTEX_POINT('',#630);
#630 = CARTESIAN_POINT('',(-0.84,-0.2,-1.9));
#631 = CIRCLE('',#632,0.18);
#632 = AXIS2_PLACEMENT_3D('',#633,#634,#635);
#633 = CARTESIAN_POINT('',(-0.84,-0.2,-2.08));
#634 = DIRECTION('',(0.,-1.,0.));
#635 = DIRECTION('',(-0.707106781187,0.,0.707106781187));
#636 = ORIENTED_EDGE('',*,*,#637,.F.);
#637 = EDGE_CURVE('',#638,#629,#640,.T.);
#638 = VERTEX_POINT('',#639);
#639 = CARTESIAN_POINT('',(-0.63,-0.2,-1.9));
#640 = LINE('',#641,#642);
#641 = CARTESIAN_POINT('',(-0.45,-0.2,-1.9));
#642 = VECTOR('',#643,1.);
#643 = DIRECTION('',(-1.,0.,0.));
#644 = ORIENTED_EDGE('',*,*,#645,.F.);
#645 = EDGE_CURVE('',#549,#638,#646,.T.);
#646 = CIRCLE('',#647,0.18);
#647 = AXIS2_PLACEMENT_3D('',#648,#649,#650);
#648 = CARTESIAN_POINT('',(-0.63,-0.2,-1.72));
#649 = DIRECTION('',(0.,1.,0.));
#650 = DIRECTION('',(0.707106781187,0.,-0.707106781187));
#651 = ORIENTED_EDGE('',*,*,#548,.F.);
#652 = PLANE('',#653);
#653 = AXIS2_PLACEMENT_3D('',#654,#655,#656);
#654 = CARTESIAN_POINT('',(-1.237395682264,-0.2,-15.30078652523));
#655 = DIRECTION('',(0.,1.,0.));
#656 = DIRECTION('',(0.,-0.,1.));
#657 = ADVANCED_FACE('',(#658),#677,.F.);
#658 = FACE_BOUND('',#659,.F.);
#659 = EDGE_LOOP('',(#660,#668,#669,#670));
#660 = ORIENTED_EDGE('',*,*,#661,.F.);
#661 = EDGE_CURVE('',#318,#662,#664,.T.);
#662 = VERTEX_POINT('',#663);
#663 = CARTESIAN_POINT('',(1.2,0.2,-1.5));
#664 = LINE('',#665,#666);
#665 = CARTESIAN_POINT('',(1.2,0.,-1.5));
#666 = VECTOR('',#667,1.);
#667 = DIRECTION('',(0.,1.,0.));
#668 = ORIENTED_EDGE('',*,*,#325,.F.);
#669 = ORIENTED_EDGE('',*,*,#236,.F.);
#670 = ORIENTED_EDGE('',*,*,#671,.F.);
#671 = EDGE_CURVE('',#662,#237,#672,.T.);
#672 = CIRCLE('',#673,0.25);
#673 = AXIS2_PLACEMENT_3D('',#674,#675,#676);
#674 = CARTESIAN_POINT('',(1.2,0.2,-1.25));
#675 = DIRECTION('',(0.,1.,0.));
#676 = DIRECTION('',(-0.707106781187,0.,-0.707106781187));
#677 = CYLINDRICAL_SURFACE('',#678,0.25);
#678 = AXIS2_PLACEMENT_3D('',#679,#680,#681);
#679 = CARTESIAN_POINT('',(1.2,0.,-1.25));
#680 = DIRECTION('',(0.,-1.,0.));
#681 = DIRECTION('',(-0.707106781187,-0.,-0.707106781187));
#682 = ADVANCED_FACE('',(#683),#709,.F.);
#683 = FACE_BOUND('',#684,.F.);
#684 = EDGE_LOOP('',(#685,#693,#702,#708));
#685 = ORIENTED_EDGE('',*,*,#686,.F.);
#686 = EDGE_CURVE('',#687,#588,#689,.T.);
#687 = VERTEX_POINT('',#688);
#688 = CARTESIAN_POINT('',(-1.075,0.2,-1.493079130211));
#689 = LINE('',#690,#691);
#690 = CARTESIAN_POINT('',(-1.075,0.,-1.493079130211));
#691 = VECTOR('',#692,1.);
#692 = DIRECTION('',(0.,-1.,0.));
#693 = ORIENTED_EDGE('',*,*,#694,.F.);
#694 = EDGE_CURVE('',#695,#687,#697,.T.);
#695 = VERTEX_POINT('',#696);
#696 = CARTESIAN_POINT('',(-0.95,0.2,-1.276572779265));
#697 = CIRCLE('',#698,0.25);
#698 = AXIS2_PLACEMENT_3D('',#699,#700,#701);
#699 = CARTESIAN_POINT('',(-1.2,0.2,-1.276572779265));
#700 = DIRECTION('',(0.,1.,0.));
#701 = DIRECTION('',(0.866025403784,0.,-0.5));
#702 = ORIENTED_EDGE('',*,*,#703,.F.);
#703 = EDGE_CURVE('',#580,#695,#704,.T.);
#704 = LINE('',#705,#706);
#705 = CARTESIAN_POINT('',(-0.95,0.,-1.276572779265));
#706 = VECTOR('',#707,1.);
#707 = DIRECTION('',(0.,1.,0.));
#708 = ORIENTED_EDGE('',*,*,#587,.F.);
#709 = CYLINDRICAL_SURFACE('',#710,0.25);
#710 = AXIS2_PLACEMENT_3D('',#711,#712,#713);
#711 = CARTESIAN_POINT('',(-1.2,0.,-1.276572779265));
#712 = DIRECTION('',(0.,1.,0.));
#713 = DIRECTION('',(0.866025403784,0.,-0.5));
#714 = ADVANCED_FACE('',(#715),#726,.T.);
#715 = FACE_BOUND('',#716,.T.);
#716 = EDGE_LOOP('',(#717,#718,#724,#725));
#717 = ORIENTED_EDGE('',*,*,#414,.T.);
#718 = ORIENTED_EDGE('',*,*,#719,.T.);
#719 = EDGE_CURVE('',#344,#695,#720,.T.);
#720 = LINE('',#721,#722);
#721 = CARTESIAN_POINT('',(-0.95,0.2,-1.420910346562));
#722 = VECTOR('',#723,1.);
#723 = DIRECTION('',(0.,0.,-1.));
#724 = ORIENTED_EDGE('',*,*,#703,.F.);
#725 = ORIENTED_EDGE('',*,*,#579,.T.);
#726 = PLANE('',#727);
#727 = AXIS2_PLACEMENT_3D('',#728,#729,#730);
#728 = CARTESIAN_POINT('',(-0.95,0.,-0.5));
#729 = DIRECTION('',(-1.,0.,0.));
#730 = DIRECTION('',(0.,0.,1.));
#731 = ADVANCED_FACE('',(#732),#758,.F.);
#732 = FACE_BOUND('',#733,.F.);
#733 = EDGE_LOOP('',(#734,#742,#751,#757));
#734 = ORIENTED_EDGE('',*,*,#735,.F.);
#735 = EDGE_CURVE('',#736,#629,#738,.T.);
#736 = VERTEX_POINT('',#737);
#737 = CARTESIAN_POINT('',(-0.84,0.2,-1.9));
#738 = LINE('',#739,#740);
#739 = CARTESIAN_POINT('',(-0.84,0.,-1.9));
#740 = VECTOR('',#741,1.);
#741 = DIRECTION('',(0.,-1.,0.));
#742 = ORIENTED_EDGE('',*,*,#743,.F.);
#743 = EDGE_CURVE('',#744,#736,#746,.T.);
#744 = VERTEX_POINT('',#745);
#745 = CARTESIAN_POINT('',(-1.02,0.2,-2.08));
#746 = CIRCLE('',#747,0.18);
#747 = AXIS2_PLACEMENT_3D('',#748,#749,#750);
#748 = CARTESIAN_POINT('',(-0.84,0.2,-2.08));
#749 = DIRECTION('',(0.,1.,0.));
#750 = DIRECTION('',(-0.707106781187,0.,0.707106781187));
#751 = ORIENTED_EDGE('',*,*,#752,.F.);
#752 = EDGE_CURVE('',#621,#744,#753,.T.);
#753 = LINE('',#754,#755);
#754 = CARTESIAN_POINT('',(-1.02,0.,-2.08));
#755 = VECTOR('',#756,1.);
#756 = DIRECTION('',(0.,1.,0.));
#757 = ORIENTED_EDGE('',*,*,#628,.F.);
#758 = CYLINDRICAL_SURFACE('',#759,0.18);
#759 = AXIS2_PLACEMENT_3D('',#760,#761,#762);
#760 = CARTESIAN_POINT('',(-0.84,0.,-2.08));
#761 = DIRECTION('',(0.,1.,0.));
#762 = DIRECTION('',(-0.707106781187,0.,0.707106781187));
#763 = ADVANCED_FACE('',(#764),#782,.T.);
#764 = FACE_BOUND('',#765,.T.);
#765 = EDGE_LOOP('',(#766,#767,#768,#776));
#766 = ORIENTED_EDGE('',*,*,#752,.F.);
#767 = ORIENTED_EDGE('',*,*,#620,.T.);
#768 = ORIENTED_EDGE('',*,*,#769,.T.);
#769 = EDGE_CURVE('',#613,#770,#772,.T.);
#770 = VERTEX_POINT('',#771);
#771 = CARTESIAN_POINT('',(-1.02,0.2,-30.5));
#772 = LINE('',#773,#774);
#773 = CARTESIAN_POINT('',(-1.02,0.,-30.5));
#774 = VECTOR('',#775,1.);
#775 = DIRECTION('',(0.,1.,0.));
#776 = ORIENTED_EDGE('',*,*,#777,.T.);
#777 = EDGE_CURVE('',#770,#744,#778,.T.);
#778 = LINE('',#779,#780);
#779 = CARTESIAN_POINT('',(-1.02,0.2,-1.9));
#780 = VECTOR('',#781,1.);
#781 = DIRECTION('',(1.94094934375E-17,0.,1.));
#782 = PLANE('',#783);
#783 = AXIS2_PLACEMENT_3D('',#784,#785,#786);
#784 = CARTESIAN_POINT('',(-1.02,0.,-30.5));
#785 = DIRECTION('',(1.,0.,-1.94094934375E-17));
#786 = DIRECTION('',(-1.94094934375E-17,0.,-1.));
#787 = ADVANCED_FACE('',(#788),#814,.F.);
#788 = FACE_BOUND('',#789,.F.);
#789 = EDGE_LOOP('',(#790,#798,#799,#807));
#790 = ORIENTED_EDGE('',*,*,#791,.F.);
#791 = EDGE_CURVE('',#277,#792,#794,.T.);
#792 = VERTEX_POINT('',#793);
#793 = CARTESIAN_POINT('',(0.84,0.2,-1.9));
#794 = LINE('',#795,#796);
#795 = CARTESIAN_POINT('',(0.84,0.,-1.9));
#796 = VECTOR('',#797,1.);
#797 = DIRECTION('',(0.,1.,0.));
#798 = ORIENTED_EDGE('',*,*,#284,.F.);
#799 = ORIENTED_EDGE('',*,*,#800,.F.);
#800 = EDGE_CURVE('',#801,#285,#803,.T.);
#801 = VERTEX_POINT('',#802);
#802 = CARTESIAN_POINT('',(1.02,0.2,-2.08));
#803 = LINE('',#804,#805);
#804 = CARTESIAN_POINT('',(1.02,0.,-2.08));
#805 = VECTOR('',#806,1.);
#806 = DIRECTION('',(0.,-1.,0.));
#807 = ORIENTED_EDGE('',*,*,#808,.F.);
#808 = EDGE_CURVE('',#792,#801,#809,.T.);
#809 = CIRCLE('',#810,0.18);
#810 = AXIS2_PLACEMENT_3D('',#811,#812,#813);
#811 = CARTESIAN_POINT('',(0.84,0.2,-2.08));
#812 = DIRECTION('',(0.,1.,0.));
#813 = DIRECTION('',(0.707106781187,-0.,0.707106781187));
#814 = CYLINDRICAL_SURFACE('',#815,0.18);
#815 = AXIS2_PLACEMENT_3D('',#816,#817,#818);
#816 = CARTESIAN_POINT('',(0.84,0.,-2.08));
#817 = DIRECTION('',(0.,-1.,0.));
#818 = DIRECTION('',(0.707106781187,0.,0.707106781187));
#819 = ADVANCED_FACE('',(#820),#838,.T.);
#820 = FACE_BOUND('',#821,.T.);
#821 = EDGE_LOOP('',(#822,#823,#831,#837));
#822 = ORIENTED_EDGE('',*,*,#800,.F.);
#823 = ORIENTED_EDGE('',*,*,#824,.T.);
#824 = EDGE_CURVE('',#801,#825,#827,.T.);
#825 = VERTEX_POINT('',#826);
#826 = CARTESIAN_POINT('',(1.02,0.2,-29.));
#827 = LINE('',#828,#829);
#828 = CARTESIAN_POINT('',(1.02,0.2,-1.9));
#829 = VECTOR('',#830,1.);
#830 = DIRECTION('',(-1.229029178552E-16,0.,-1.));
#831 = ORIENTED_EDGE('',*,*,#832,.T.);
#832 = EDGE_CURVE('',#825,#294,#833,.T.);
#833 = LINE('',#834,#835);
#834 = CARTESIAN_POINT('',(1.02,0.,-29.));
#835 = VECTOR('',#836,1.);
#836 = DIRECTION('',(0.,-1.,0.));
#837 = ORIENTED_EDGE('',*,*,#293,.T.);
#838 = PLANE('',#839);
#839 = AXIS2_PLACEMENT_3D('',#840,#841,#842);
#840 = CARTESIAN_POINT('',(1.02,0.,-1.9));
#841 = DIRECTION('',(-1.,0.,1.229029178552E-16));
#842 = DIRECTION('',(1.229029178552E-16,0.,1.));
#843 = ADVANCED_FACE('',(#844),#863,.T.);
#844 = FACE_BOUND('',#845,.T.);
#845 = EDGE_LOOP('',(#846,#855,#856,#857));
#846 = ORIENTED_EDGE('',*,*,#847,.T.);
#847 = EDGE_CURVE('',#848,#557,#850,.T.);
#848 = VERTEX_POINT('',#849);
#849 = CARTESIAN_POINT('',(-0.63,0.2,-1.9));
#850 = CIRCLE('',#851,0.18);
#851 = AXIS2_PLACEMENT_3D('',#852,#853,#854);
#852 = CARTESIAN_POINT('',(-0.63,0.2,-1.72));
#853 = DIRECTION('',(0.,-1.,0.));
#854 = DIRECTION('',(0.707106781187,0.,-0.707106781187));
#855 = ORIENTED_EDGE('',*,*,#556,.T.);
#856 = ORIENTED_EDGE('',*,*,#645,.T.);
#857 = ORIENTED_EDGE('',*,*,#858,.T.);
#858 = EDGE_CURVE('',#638,#848,#859,.T.);
#859 = LINE('',#860,#861);
#860 = CARTESIAN_POINT('',(-0.63,0.,-1.9));
#861 = VECTOR('',#862,1.);
#862 = DIRECTION('',(0.,1.,0.));
#863 = CYLINDRICAL_SURFACE('',#864,0.18);
#864 = AXIS2_PLACEMENT_3D('',#865,#866,#867);
#865 = CARTESIAN_POINT('',(-0.63,0.,-1.72));
#866 = DIRECTION('',(0.,1.,0.));
#867 = DIRECTION('',(0.707106781187,0.,-0.707106781187));
#868 = ADVANCED_FACE('',(#869),#880,.T.);
#869 = FACE_BOUND('',#870,.T.);
#870 = EDGE_LOOP('',(#871,#872,#878,#879));
#871 = ORIENTED_EDGE('',*,*,#735,.F.);
#872 = ORIENTED_EDGE('',*,*,#873,.T.);
#873 = EDGE_CURVE('',#736,#848,#874,.T.);
#874 = LINE('',#875,#876);
#875 = CARTESIAN_POINT('',(-0.45,0.2,-1.9));
#876 = VECTOR('',#877,1.);
#877 = DIRECTION('',(1.,0.,0.));
#878 = ORIENTED_EDGE('',*,*,#858,.F.);
#879 = ORIENTED_EDGE('',*,*,#637,.T.);
#880 = PLANE('',#881);
#881 = AXIS2_PLACEMENT_3D('',#882,#883,#884);
#882 = CARTESIAN_POINT('',(-1.02,0.,-1.9));
#883 = DIRECTION('',(0.,0.,-1.));
#884 = DIRECTION('',(-1.,0.,0.));
#885 = ADVANCED_FACE('',(#886),#912,.T.);
#886 = FACE_BOUND('',#887,.T.);
#887 = EDGE_LOOP('',(#888,#889,#897,#906));
#888 = ORIENTED_EDGE('',*,*,#267,.T.);
#889 = ORIENTED_EDGE('',*,*,#890,.T.);
#890 = EDGE_CURVE('',#260,#891,#893,.T.);
#891 = VERTEX_POINT('',#892);
#892 = CARTESIAN_POINT('',(0.45,0.2,-1.72));
#893 = LINE('',#894,#895);
#894 = CARTESIAN_POINT('',(0.45,0.,-1.72));
#895 = VECTOR('',#896,1.);
#896 = DIRECTION('',(0.,1.,0.));
#897 = ORIENTED_EDGE('',*,*,#898,.T.);
#898 = EDGE_CURVE('',#891,#899,#901,.T.);
#899 = VERTEX_POINT('',#900);
#900 = CARTESIAN_POINT('',(0.63,0.2,-1.9));
#901 = CIRCLE('',#902,0.18);
#902 = AXIS2_PLACEMENT_3D('',#903,#904,#905);
#903 = CARTESIAN_POINT('',(0.63,0.2,-1.72));
#904 = DIRECTION('',(0.,-1.,0.));
#905 = DIRECTION('',(-0.707106781187,-0.,-0.707106781187));
#906 = ORIENTED_EDGE('',*,*,#907,.T.);
#907 = EDGE_CURVE('',#899,#268,#908,.T.);
#908 = LINE('',#909,#910);
#909 = CARTESIAN_POINT('',(0.63,0.,-1.9));
#910 = VECTOR('',#911,1.);
#911 = DIRECTION('',(0.,-1.,0.));
#912 = CYLINDRICAL_SURFACE('',#913,0.18);
#913 = AXIS2_PLACEMENT_3D('',#914,#915,#916);
#914 = CARTESIAN_POINT('',(0.63,0.,-1.72));
#915 = DIRECTION('',(0.,-1.,0.));
#916 = DIRECTION('',(-0.707106781187,-0.,-0.707106781187));
#917 = ADVANCED_FACE('',(#918),#929,.T.);
#918 = FACE_BOUND('',#919,.T.);
#919 = EDGE_LOOP('',(#920,#921,#927,#928));
#920 = ORIENTED_EDGE('',*,*,#31,.T.);
#921 = ORIENTED_EDGE('',*,*,#922,.T.);
#922 = EDGE_CURVE('',#32,#891,#923,.T.);
#923 = LINE('',#924,#925);
#924 = CARTESIAN_POINT('',(0.45,0.2,-0.5));
#925 = VECTOR('',#926,1.);
#926 = DIRECTION('',(-9.91270557701E-17,0.,-1.));
#927 = ORIENTED_EDGE('',*,*,#890,.F.);
#928 = ORIENTED_EDGE('',*,*,#259,.T.);
#929 = PLANE('',#930);
#930 = AXIS2_PLACEMENT_3D('',#931,#932,#933);
#931 = CARTESIAN_POINT('',(0.45,0.,-0.5));
#932 = DIRECTION('',(-1.,0.,9.91270557701E-17));
#933 = DIRECTION('',(9.91270557701E-17,0.,1.));
#934 = ADVANCED_FACE('',(#935),#953,.T.);
#935 = FACE_BOUND('',#936,.T.);
#936 = EDGE_LOOP('',(#937,#938,#939,#947));
#937 = ORIENTED_EDGE('',*,*,#661,.F.);
#938 = ORIENTED_EDGE('',*,*,#317,.T.);
#939 = ORIENTED_EDGE('',*,*,#940,.F.);
#940 = EDGE_CURVE('',#941,#310,#943,.T.);
#941 = VERTEX_POINT('',#942);
#942 = CARTESIAN_POINT('',(1.52,0.2,-1.5));
#943 = LINE('',#944,#945);
#944 = CARTESIAN_POINT('',(1.52,0.,-1.5));
#945 = VECTOR('',#946,1.);
#946 = DIRECTION('',(0.,-1.,0.));
#947 = ORIENTED_EDGE('',*,*,#948,.T.);
#948 = EDGE_CURVE('',#941,#662,#949,.T.);
#949 = LINE('',#950,#951);
#950 = CARTESIAN_POINT('',(1.52,0.2,-1.5));
#951 = VECTOR('',#952,1.);
#952 = DIRECTION('',(-1.,0.,0.));
#953 = PLANE('',#954);
#954 = AXIS2_PLACEMENT_3D('',#955,#956,#957);
#955 = CARTESIAN_POINT('',(1.52,0.,-1.5));
#956 = DIRECTION('',(0.,0.,1.));
#957 = DIRECTION('',(1.,0.,-0.));
#958 = ADVANCED_FACE('',(#959),#970,.T.);
#959 = FACE_BOUND('',#960,.T.);
#960 = EDGE_LOOP('',(#961,#962,#963,#964));
#961 = ORIENTED_EDGE('',*,*,#791,.F.);
#962 = ORIENTED_EDGE('',*,*,#276,.T.);
#963 = ORIENTED_EDGE('',*,*,#907,.F.);
#964 = ORIENTED_EDGE('',*,*,#965,.T.);
#965 = EDGE_CURVE('',#899,#792,#966,.T.);
#966 = LINE('',#967,#968);
#967 = CARTESIAN_POINT('',(0.45,0.2,-1.9));
#968 = VECTOR('',#969,1.);
#969 = DIRECTION('',(1.,0.,0.));
#970 = PLANE('',#971);
#971 = AXIS2_PLACEMENT_3D('',#972,#973,#974);
#972 = CARTESIAN_POINT('',(0.45,0.,-1.9));
#973 = DIRECTION('',(0.,0.,-1.));
#974 = DIRECTION('',(-1.,0.,0.));
#975 = ADVANCED_FACE('',(#976),#994,.T.);
#976 = FACE_BOUND('',#977,.T.);
#977 = EDGE_LOOP('',(#978,#986,#992,#993));
#978 = ORIENTED_EDGE('',*,*,#979,.T.);
#979 = EDGE_CURVE('',#825,#980,#982,.T.);
#980 = VERTEX_POINT('',#981);
#981 = CARTESIAN_POINT('',(1.52,0.2,-29.));
#982 = LINE('',#983,#984);
#983 = CARTESIAN_POINT('',(1.02,0.2,-29.));
#984 = VECTOR('',#985,1.);
#985 = DIRECTION('',(1.,0.,0.));
#986 = ORIENTED_EDGE('',*,*,#987,.F.);
#987 = EDGE_CURVE('',#302,#980,#988,.T.);
#988 = LINE('',#989,#990);
#989 = CARTESIAN_POINT('',(1.52,0.,-29.));
#990 = VECTOR('',#991,1.);
#991 = DIRECTION('',(0.,1.,0.));
#992 = ORIENTED_EDGE('',*,*,#301,.T.);
#993 = ORIENTED_EDGE('',*,*,#832,.F.);
#994 = PLANE('',#995);
#995 = AXIS2_PLACEMENT_3D('',#996,#997,#998);
#996 = CARTESIAN_POINT('',(1.02,0.,-29.));
#997 = DIRECTION('',(0.,0.,-1.));
#998 = DIRECTION('',(-1.,0.,0.));
#999 = ADVANCED_FACE('',(#1000),#1011,.T.);
#1000 = FACE_BOUND('',#1001,.T.);
#1001 = EDGE_LOOP('',(#1002,#1008,#1009,#1010));
#1002 = ORIENTED_EDGE('',*,*,#1003,.T.);
#1003 = EDGE_CURVE('',#980,#941,#1004,.T.);
#1004 = LINE('',#1005,#1006);
#1005 = CARTESIAN_POINT('',(1.52,0.2,-29.));
#1006 = VECTOR('',#1007,1.);
#1007 = DIRECTION('',(0.,0.,1.));
#1008 = ORIENTED_EDGE('',*,*,#940,.T.);
#1009 = ORIENTED_EDGE('',*,*,#309,.T.);
#1010 = ORIENTED_EDGE('',*,*,#987,.T.);
#1011 = PLANE('',#1012);
#1012 = AXIS2_PLACEMENT_3D('',#1013,#1014,#1015);
#1013 = CARTESIAN_POINT('',(1.52,0.,-29.));
#1014 = DIRECTION('',(1.,0.,0.));
#1015 = DIRECTION('',(0.,0.,-1.));
#1016 = ADVANCED_FACE('',(#1017),#1030,.T.);
#1017 = FACE_BOUND('',#1018,.T.);
#1018 = EDGE_LOOP('',(#1019,#1020,#1021,#1022,#1023,#1024,#1025,#1026,
    #1027,#1028,#1029));
#1019 = ORIENTED_EDGE('',*,*,#183,.T.);
#1020 = ORIENTED_EDGE('',*,*,#244,.F.);
#1021 = ORIENTED_EDGE('',*,*,#671,.F.);
#1022 = ORIENTED_EDGE('',*,*,#948,.F.);
#1023 = ORIENTED_EDGE('',*,*,#1003,.F.);
#1024 = ORIENTED_EDGE('',*,*,#979,.F.);
#1025 = ORIENTED_EDGE('',*,*,#824,.F.);
#1026 = ORIENTED_EDGE('',*,*,#808,.F.);
#1027 = ORIENTED_EDGE('',*,*,#965,.F.);
#1028 = ORIENTED_EDGE('',*,*,#898,.F.);
#1029 = ORIENTED_EDGE('',*,*,#922,.F.);
#1030 = PLANE('',#1031);
#1031 = AXIS2_PLACEMENT_3D('',#1032,#1033,#1034);
#1032 = CARTESIAN_POINT('',(1.236555630707,0.2,-14.49844436929));
#1033 = DIRECTION('',(0.,1.,0.));
#1034 = DIRECTION('',(0.,-0.,1.));
#1035 = ADVANCED_FACE('',(#1036),#1054,.T.);
#1036 = FACE_BOUND('',#1037,.T.);
#1037 = EDGE_LOOP('',(#1038,#1046,#1047,#1048));
#1038 = ORIENTED_EDGE('',*,*,#1039,.T.);
#1039 = EDGE_CURVE('',#1040,#770,#1042,.T.);
#1040 = VERTEX_POINT('',#1041);
#1041 = CARTESIAN_POINT('',(-1.52,0.2,-30.5));
#1042 = LINE('',#1043,#1044);
#1043 = CARTESIAN_POINT('',(-1.02,0.2,-30.5));
#1044 = VECTOR('',#1045,1.);
#1045 = DIRECTION('',(1.,0.,0.));
#1046 = ORIENTED_EDGE('',*,*,#769,.F.);
#1047 = ORIENTED_EDGE('',*,*,#612,.T.);
#1048 = ORIENTED_EDGE('',*,*,#1049,.F.);
#1049 = EDGE_CURVE('',#1040,#605,#1050,.T.);
#1050 = LINE('',#1051,#1052);
#1051 = CARTESIAN_POINT('',(-1.52,0.,-30.5));
#1052 = VECTOR('',#1053,1.);
#1053 = DIRECTION('',(0.,-1.,0.));
#1054 = PLANE('',#1055);
#1055 = AXIS2_PLACEMENT_3D('',#1056,#1057,#1058);
#1056 = CARTESIAN_POINT('',(-1.52,0.,-30.5));
#1057 = DIRECTION('',(0.,0.,-1.));
#1058 = DIRECTION('',(-1.,0.,0.));
#1059 = ADVANCED_FACE('',(#1060),#1078,.T.);
#1060 = FACE_BOUND('',#1061,.T.);
#1061 = EDGE_LOOP('',(#1062,#1063,#1071,#1077));
#1062 = ORIENTED_EDGE('',*,*,#686,.F.);
#1063 = ORIENTED_EDGE('',*,*,#1064,.T.);
#1064 = EDGE_CURVE('',#687,#1065,#1067,.T.);
#1065 = VERTEX_POINT('',#1066);
#1066 = CARTESIAN_POINT('',(-1.52,0.2,-1.75));
#1067 = LINE('',#1068,#1069);
#1068 = CARTESIAN_POINT('',(-1.52,0.2,-1.75));
#1069 = VECTOR('',#1070,1.);
#1070 = DIRECTION('',(-0.866025403784,0.,-0.5));
#1071 = ORIENTED_EDGE('',*,*,#1072,.F.);
#1072 = EDGE_CURVE('',#597,#1065,#1073,.T.);
#1073 = LINE('',#1074,#1075);
#1074 = CARTESIAN_POINT('',(-1.52,0.,-1.75));
#1075 = VECTOR('',#1076,1.);
#1076 = DIRECTION('',(0.,1.,0.));
#1077 = ORIENTED_EDGE('',*,*,#596,.T.);
#1078 = PLANE('',#1079);
#1079 = AXIS2_PLACEMENT_3D('',#1080,#1081,#1082);
#1080 = CARTESIAN_POINT('',(-0.95,0.,-1.420910346562));
#1081 = DIRECTION('',(-0.5,0.,0.866025403784));
#1082 = DIRECTION('',(0.866025403784,0.,0.5));
#1083 = ADVANCED_FACE('',(#1084),#1095,.T.);
#1084 = FACE_BOUND('',#1085,.T.);
#1085 = EDGE_LOOP('',(#1086,#1092,#1093,#1094));
#1086 = ORIENTED_EDGE('',*,*,#1087,.T.);
#1087 = EDGE_CURVE('',#1065,#1040,#1088,.T.);
#1088 = LINE('',#1089,#1090);
#1089 = CARTESIAN_POINT('',(-1.52,0.2,-30.5));
#1090 = VECTOR('',#1091,1.);
#1091 = DIRECTION('',(0.,0.,-1.));
#1092 = ORIENTED_EDGE('',*,*,#1049,.T.);
#1093 = ORIENTED_EDGE('',*,*,#604,.T.);
#1094 = ORIENTED_EDGE('',*,*,#1072,.T.);
#1095 = PLANE('',#1096);
#1096 = AXIS2_PLACEMENT_3D('',#1097,#1098,#1099);
#1097 = CARTESIAN_POINT('',(-1.52,0.,-1.75));
#1098 = DIRECTION('',(-1.,0.,0.));
#1099 = DIRECTION('',(0.,0.,1.));
#1100 = ADVANCED_FACE('',(#1101),#1114,.T.);
#1101 = FACE_BOUND('',#1102,.T.);
#1102 = EDGE_LOOP('',(#1103,#1104,#1105,#1106,#1107,#1108,#1109,#1110,
    #1111,#1112,#1113));
#1103 = ORIENTED_EDGE('',*,*,#351,.T.);
#1104 = ORIENTED_EDGE('',*,*,#564,.F.);
#1105 = ORIENTED_EDGE('',*,*,#847,.F.);
#1106 = ORIENTED_EDGE('',*,*,#873,.F.);
#1107 = ORIENTED_EDGE('',*,*,#743,.F.);
#1108 = ORIENTED_EDGE('',*,*,#777,.F.);
#1109 = ORIENTED_EDGE('',*,*,#1039,.F.);
#1110 = ORIENTED_EDGE('',*,*,#1087,.F.);
#1111 = ORIENTED_EDGE('',*,*,#1064,.F.);
#1112 = ORIENTED_EDGE('',*,*,#694,.F.);
#1113 = ORIENTED_EDGE('',*,*,#719,.F.);
#1114 = PLANE('',#1115);
#1115 = AXIS2_PLACEMENT_3D('',#1116,#1117,#1118);
#1116 = CARTESIAN_POINT('',(-1.237395682264,0.2,-15.30078652523));
#1117 = DIRECTION('',(0.,1.,0.));
#1118 = DIRECTION('',(0.,-0.,1.));
#1119 = ADVANCED_FACE('',(#1120),#1150,.T.);
#1120 = FACE_BOUND('',#1121,.T.);
#1121 = EDGE_LOOP('',(#1122,#1133,#1142,#1149));
#1122 = ORIENTED_EDGE('',*,*,#1123,.T.);
#1123 = EDGE_CURVE('',#1124,#1126,#1128,.T.);
#1124 = VERTEX_POINT('',#1125);
#1125 = CARTESIAN_POINT('',(4.163336342344E-16,0.,3.9));
#1126 = VERTEX_POINT('',#1127);
#1127 = CARTESIAN_POINT('',(-1.370110118832,0.,2.787746871877));
#1128 = CIRCLE('',#1129,1.4);
#1129 = AXIS2_PLACEMENT_3D('',#1130,#1131,#1132);
#1130 = CARTESIAN_POINT('',(3.061616997868E-16,0.,2.5));
#1131 = DIRECTION('',(1.224646799147E-16,-1.,0.));
#1132 = DIRECTION('',(-1.,-1.224646799147E-16,0.));
#1133 = ORIENTED_EDGE('',*,*,#1134,.F.);
#1134 = EDGE_CURVE('',#1135,#1126,#1137,.T.);
#1135 = VERTEX_POINT('',#1136);
#1136 = CARTESIAN_POINT('',(1.370110118832,-1.677900971507E-16,
    2.787746871877));
#1137 = CIRCLE('',#1138,1.370110118832);
#1138 = AXIS2_PLACEMENT_3D('',#1139,#1140,#1141);
#1139 = CARTESIAN_POINT('',(3.709347727619E-16,0.,2.787746871877));
#1140 = DIRECTION('',(-4.081702296416E-17,0.,-1.));
#1141 = DIRECTION('',(-1.,0.,4.081702296416E-17));
#1142 = ORIENTED_EDGE('',*,*,#1143,.F.);
#1143 = EDGE_CURVE('',#1126,#1135,#1144,.T.);
#1144 = CIRCLE('',#1145,1.370110118832);
#1145 = AXIS2_PLACEMENT_3D('',#1146,#1147,#1148);
#1146 = CARTESIAN_POINT('',(3.709347727619E-16,0.,2.787746871877));
#1147 = DIRECTION('',(-4.081702296416E-17,0.,-1.));
#1148 = DIRECTION('',(-1.,0.,4.081702296416E-17));
#1149 = ORIENTED_EDGE('',*,*,#1123,.F.);
#1150 = SPHERICAL_SURFACE('',#1151,1.4);
#1151 = AXIS2_PLACEMENT_3D('',#1152,#1153,#1154);
#1152 = CARTESIAN_POINT('',(3.061616997868E-16,0.,2.5));
#1153 = DIRECTION('',(6.123233995737E-17,0.,1.));
#1154 = DIRECTION('',(1.,0.,-6.123233995737E-17));
#1155 = ADVANCED_FACE('',(#1156),#1176,.T.);
#1156 = FACE_BOUND('',#1157,.T.);
#1157 = EDGE_LOOP('',(#1158,#1167,#1173,#1174,#1175));
#1158 = ORIENTED_EDGE('',*,*,#1159,.F.);
#1159 = EDGE_CURVE('',#1160,#1160,#1162,.T.);
#1160 = VERTEX_POINT('',#1161);
#1161 = CARTESIAN_POINT('',(1.45,-1.775737858764E-16,0.5));
#1162 = CIRCLE('',#1163,1.45);
#1163 = AXIS2_PLACEMENT_3D('',#1164,#1165,#1166);
#1164 = CARTESIAN_POINT('',(2.775557561563E-16,0.,0.5));
#1165 = DIRECTION('',(0.,0.,-1.));
#1166 = DIRECTION('',(-1.,0.,0.));
#1167 = ORIENTED_EDGE('',*,*,#1168,.T.);
#1168 = EDGE_CURVE('',#1160,#1135,#1169,.T.);
#1169 = LINE('',#1170,#1171);
#1170 = CARTESIAN_POINT('',(1.410055059416,-1.726819415135E-16,
    1.643873435938));
#1171 = VECTOR('',#1172,1.);
#1172 = DIRECTION('',(-3.48994967025E-02,4.273955692857E-18,
    0.999390827019));
#1173 = ORIENTED_EDGE('',*,*,#1134,.T.);
#1174 = ORIENTED_EDGE('',*,*,#1143,.T.);
#1175 = ORIENTED_EDGE('',*,*,#1168,.F.);
#1176 = CONICAL_SURFACE('',#1177,1.410055059416,3.490658503989E-02);
#1177 = AXIS2_PLACEMENT_3D('',#1178,#1179,#1180);
#1178 = CARTESIAN_POINT('',(3.242452644591E-16,0.,1.643873435938));
#1179 = DIRECTION('',(-4.081702296416E-17,0.,-1.));
#1180 = DIRECTION('',(-1.,0.,4.081702296416E-17));
#1181 = ADVANCED_FACE('',(#1182,#1193,#1199),#1205,.T.);
#1182 = FACE_BOUND('',#1183,.T.);
#1183 = EDGE_LOOP('',(#1184));
#1184 = ORIENTED_EDGE('',*,*,#1185,.F.);
#1185 = EDGE_CURVE('',#1186,#1186,#1188,.T.);
#1186 = VERTEX_POINT('',#1187);
#1187 = CARTESIAN_POINT('',(1.6,1.959434878636E-16,-0.5));
#1188 = CIRCLE('',#1189,1.6);
#1189 = AXIS2_PLACEMENT_3D('',#1190,#1191,#1192);
#1190 = CARTESIAN_POINT('',(0.,0.,-0.5));
#1191 = DIRECTION('',(0.,0.,1.));
#1192 = DIRECTION('',(-1.,0.,0.));
#1193 = FACE_BOUND('',#1194,.T.);
#1194 = EDGE_LOOP('',(#1195,#1196,#1197,#1198));
#1195 = ORIENTED_EDGE('',*,*,#47,.T.);
#1196 = ORIENTED_EDGE('',*,*,#96,.T.);
#1197 = ORIENTED_EDGE('',*,*,#150,.T.);
#1198 = ORIENTED_EDGE('',*,*,#190,.T.);
#1199 = FACE_BOUND('',#1200,.T.);
#1200 = EDGE_LOOP('',(#1201,#1202,#1203,#1204));
#1201 = ORIENTED_EDGE('',*,*,#367,.T.);
#1202 = ORIENTED_EDGE('',*,*,#421,.T.);
#1203 = ORIENTED_EDGE('',*,*,#470,.T.);
#1204 = ORIENTED_EDGE('',*,*,#515,.T.);
#1205 = PLANE('',#1206);
#1206 = AXIS2_PLACEMENT_3D('',#1207,#1208,#1209);
#1207 = CARTESIAN_POINT('',(0.,0.,-0.5));
#1208 = DIRECTION('',(0.,0.,-1.));
#1209 = DIRECTION('',(-1.,0.,0.));
#1210 = ADVANCED_FACE('',(#1211),#1230,.T.);
#1211 = FACE_BOUND('',#1212,.T.);
#1212 = EDGE_LOOP('',(#1213,#1222,#1228,#1229));
#1213 = ORIENTED_EDGE('',*,*,#1214,.T.);
#1214 = EDGE_CURVE('',#1215,#1215,#1217,.T.);
#1215 = VERTEX_POINT('',#1216);
#1216 = CARTESIAN_POINT('',(1.6,1.959434878636E-16,0.5));
#1217 = CIRCLE('',#1218,1.6);
#1218 = AXIS2_PLACEMENT_3D('',#1219,#1220,#1221);
#1219 = CARTESIAN_POINT('',(0.,0.,0.5));
#1220 = DIRECTION('',(0.,0.,-1.));
#1221 = DIRECTION('',(-1.,0.,0.));
#1222 = ORIENTED_EDGE('',*,*,#1223,.T.);
#1223 = EDGE_CURVE('',#1215,#1186,#1224,.T.);
#1224 = LINE('',#1225,#1226);
#1225 = CARTESIAN_POINT('',(1.6,1.959434878636E-16,0.));
#1226 = VECTOR('',#1227,1.);
#1227 = DIRECTION('',(0.,0.,-1.));
#1228 = ORIENTED_EDGE('',*,*,#1185,.T.);
#1229 = ORIENTED_EDGE('',*,*,#1223,.F.);
#1230 = CYLINDRICAL_SURFACE('',#1231,1.6);
#1231 = AXIS2_PLACEMENT_3D('',#1232,#1233,#1234);
#1232 = CARTESIAN_POINT('',(0.,0.,0.));
#1233 = DIRECTION('',(0.,0.,1.));
#1234 = DIRECTION('',(-1.,0.,0.));
#1235 = ADVANCED_FACE('',(#1236,#1239),#1242,.F.);
#1236 = FACE_BOUND('',#1237,.T.);
#1237 = EDGE_LOOP('',(#1238));
#1238 = ORIENTED_EDGE('',*,*,#1214,.F.);
#1239 = FACE_BOUND('',#1240,.T.);
#1240 = EDGE_LOOP('',(#1241));
#1241 = ORIENTED_EDGE('',*,*,#1159,.T.);
#1242 = PLANE('',#1243);
#1243 = AXIS2_PLACEMENT_3D('',#1244,#1245,#1246);
#1244 = CARTESIAN_POINT('',(0.,0.,0.5));
#1245 = DIRECTION('',(0.,0.,-1.));
#1246 = DIRECTION('',(-1.,0.,0.));
#1247 = ( GEOMETRIC_REPRESENTATION_CONTEXT(3) 
GLOBAL_UNCERTAINTY_ASSIGNED_CONTEXT((#1251)) 
GLOBAL_UNIT_ASSIGNED_CONTEXT((#1248,#1249,#1250)) REPRESENTATION_CONTEXT
('Context #1','3D Context with UNIT and UNCERTAINTY') );
#1248 = ( LENGTH_UNIT() NAMED_UNIT(*) SI_UNIT(.MILLI.,.METRE.) );
#1249 = ( NAMED_UNIT(*) PLANE_ANGLE_UNIT() SI_UNIT($,.RADIAN.) );
#1250 = ( NAMED_UNIT(*) SI_UNIT($,.STERADIAN.) SOLID_ANGLE_UNIT() );
#1251 = UNCERTAINTY_MEASURE_WITH_UNIT(LENGTH_MEASURE(1.E-07),#1248,
  'distance_accuracy_value','confusion accuracy');
#1252 = PRODUCT_RELATED_PRODUCT_CATEGORY('part',$,(#7));
#1253 = MECHANICAL_DESIGN_GEOMETRIC_PRESENTATION_REPRESENTATION('',(
    #1254),#1247);
#1254 = STYLED_ITEM('color',(#1255),#15);
#1255 = PRESENTATION_STYLE_ASSIGNMENT((#1256,#1262));
#1256 = SURFACE_STYLE_USAGE(.BOTH.,#1257);
#1257 = SURFACE_SIDE_STYLE('',(#1258));
#1258 = SURFACE_STYLE_FILL_AREA(#1259);
#1259 = FILL_AREA_STYLE('',(#1260));
#1260 = FILL_AREA_STYLE_COLOUR('',#1261);
#1261 = DRAUGHTING_PRE_DEFINED_COLOUR('yellow');
#1262 = CURVE_STYLE('',#1263,POSITIVE_LENGTH_MEASURE(0.1),#1264);
#1263 = DRAUGHTING_PRE_DEFINED_CURVE_FONT('continuous');
#1264 = COLOUR_RGB('',9.803921802644E-02,9.803921802644E-02,
  9.803921802644E-02);
ENDSEC;
END-ISO-10303-21;
