ISO-10303-21;
HEADER;
FILE_DESCRIPTION(('FreeCAD Model'),'2;1');
FILE_NAME('Open CASCADE Shape Model','2026-06-23T10:59:53',(''),(''),
  'Open CASCADE STEP processor 7.8','FreeCAD','Unknown');
FILE_SCHEMA(('AUTOMOTIVE_DESIGN { 1 0 10303 214 1 1 1 1 }'));
ENDSEC;
DATA;
#1 = APPLICATION_PROTOCOL_DEFINITION('international standard',
  'automotive_design',2000,#2);
#2 = APPLICATION_CONTEXT(
  'core data for automotive mechanical design processes');
#3 = SHAPE_DEFINITION_REPRESENTATION(#4,#10);
#4 = PRODUCT_DEFINITION_SHAPE('','',#5);
#5 = PRODUCT_DEFINITION('design','',#6,#9);
#6 = PRODUCT_DEFINITION_FORMATION('','',#7);
#7 = PRODUCT('LED','LED','',(#8));
#8 = PRODUCT_CONTEXT('',#2,'mechanical');
#9 = PRODUCT_DEFINITION_CONTEXT('part definition',#2,'design');
#10 = SHAPE_REPRESENTATION('',(#11,#15,#19),#23);
#11 = AXIS2_PLACEMENT_3D('',#12,#13,#14);
#12 = CARTESIAN_POINT('',(0.,0.,0.));
#13 = DIRECTION('',(0.,0.,1.));
#14 = DIRECTION('',(1.,0.,-0.));
#15 = AXIS2_PLACEMENT_3D('',#16,#17,#18);
#16 = CARTESIAN_POINT('',(0.,0.,0.));
#17 = DIRECTION('',(0.,0.,1.));
#18 = DIRECTION('',(1.,0.,0.));
#19 = AXIS2_PLACEMENT_3D('',#20,#21,#22);
#20 = CARTESIAN_POINT('',(0.,0.,0.));
#21 = DIRECTION('',(0.,0.,1.));
#22 = DIRECTION('',(1.,0.,0.));
#23 = ( GEOMETRIC_REPRESENTATION_CONTEXT(3) 
GLOBAL_UNCERTAINTY_ASSIGNED_CONTEXT((#27)) GLOBAL_UNIT_ASSIGNED_CONTEXT(
(#24,#25,#26)) REPRESENTATION_CONTEXT('Context #1',
  '3D Context with UNIT and UNCERTAINTY') );
#24 = ( LENGTH_UNIT() NAMED_UNIT(*) SI_UNIT(.MILLI.,.METRE.) );
#25 = ( NAMED_UNIT(*) PLANE_ANGLE_UNIT() SI_UNIT($,.RADIAN.) );
#26 = ( NAMED_UNIT(*) SI_UNIT($,.STERADIAN.) SOLID_ANGLE_UNIT() );
#27 = UNCERTAINTY_MEASURE_WITH_UNIT(LENGTH_MEASURE(1.E-07),#24,
  'distance_accuracy_value','confusion accuracy');
#28 = PRODUCT_RELATED_PRODUCT_CATEGORY('part',$,(#7));
#29 = SHAPE_DEFINITION_REPRESENTATION(#30,#36);
#30 = PRODUCT_DEFINITION_SHAPE('','',#31);
#31 = PRODUCT_DEFINITION('design','',#32,#35);
#32 = PRODUCT_DEFINITION_FORMATION('','',#33);
#33 = PRODUCT('LensGroup','LensGroup','',(#34));
#34 = PRODUCT_CONTEXT('',#2,'mechanical');
#35 = PRODUCT_DEFINITION_CONTEXT('part definition',#2,'design');
#36 = SHAPE_REPRESENTATION('',(#11,#37,#41),#45);
#37 = AXIS2_PLACEMENT_3D('',#38,#39,#40);
#38 = CARTESIAN_POINT('',(0.,0.,0.));
#39 = DIRECTION('',(0.,0.,1.));
#40 = DIRECTION('',(1.,0.,0.));
#41 = AXIS2_PLACEMENT_3D('',#42,#43,#44);
#42 = CARTESIAN_POINT('',(0.,0.,1.55));
#43 = DIRECTION('',(0.,0.,1.));
#44 = DIRECTION('',(1.,0.,0.));
#45 = ( GEOMETRIC_REPRESENTATION_CONTEXT(3) 
GLOBAL_UNCERTAINTY_ASSIGNED_CONTEXT((#49)) GLOBAL_UNIT_ASSIGNED_CONTEXT(
(#46,#47,#48)) REPRESENTATION_CONTEXT('Context #1',
  '3D Context with UNIT and UNCERTAINTY') );
#46 = ( LENGTH_UNIT() NAMED_UNIT(*) SI_UNIT(.MILLI.,.METRE.) );
#47 = ( NAMED_UNIT(*) PLANE_ANGLE_UNIT() SI_UNIT($,.RADIAN.) );
#48 = ( NAMED_UNIT(*) SI_UNIT($,.STERADIAN.) SOLID_ANGLE_UNIT() );
#49 = UNCERTAINTY_MEASURE_WITH_UNIT(LENGTH_MEASURE(1.E-07),#46,
  'distance_accuracy_value','confusion accuracy');
#50 = CONTEXT_DEPENDENT_SHAPE_REPRESENTATION(#51,#53);
#51 = ( REPRESENTATION_RELATIONSHIP('','',#36,#10) 
REPRESENTATION_RELATIONSHIP_WITH_TRANSFORMATION(#52) 
SHAPE_REPRESENTATION_RELATIONSHIP() );
#52 = ITEM_DEFINED_TRANSFORMATION('','',#11,#15);
#53 = PRODUCT_DEFINITION_SHAPE('Placement','Placement of an item',#54);
#54 = NEXT_ASSEMBLY_USAGE_OCCURRENCE('36','LensGroup','',#5,#31,$);
#55 = PRODUCT_RELATED_PRODUCT_CATEGORY('part',$,(#33));
#56 = SHAPE_DEFINITION_REPRESENTATION(#57,#63);
#57 = PRODUCT_DEFINITION_SHAPE('','',#58);
#58 = PRODUCT_DEFINITION('design','',#59,#62);
#59 = PRODUCT_DEFINITION_FORMATION('','',#60);
#60 = PRODUCT('Lens','Lens','',(#61));
#61 = PRODUCT_CONTEXT('',#2,'mechanical');
#62 = PRODUCT_DEFINITION_CONTEXT('part definition',#2,'design');
#63 = ADVANCED_BREP_SHAPE_REPRESENTATION('',(#11,#64),#127);
#64 = MANIFOLD_SOLID_BREP('',#65);
#65 = CLOSED_SHELL('',(#66,#99,#118));
#66 = ADVANCED_FACE('',(#67),#94,.T.);
#67 = FACE_BOUND('',#68,.F.);
#68 = EDGE_LOOP('',(#69,#79,#86,#87));
#69 = ORIENTED_EDGE('',*,*,#70,.T.);
#70 = EDGE_CURVE('',#71,#73,#75,.T.);
#71 = VERTEX_POINT('',#72);
#72 = CARTESIAN_POINT('',(1.5,0.,1.55));
#73 = VERTEX_POINT('',#74);
#74 = CARTESIAN_POINT('',(1.5,0.,5.2));
#75 = LINE('',#76,#77);
#76 = CARTESIAN_POINT('',(1.5,0.,1.55));
#77 = VECTOR('',#78,1.);
#78 = DIRECTION('',(0.,0.,1.));
#79 = ORIENTED_EDGE('',*,*,#80,.T.);
#80 = EDGE_CURVE('',#73,#73,#81,.T.);
#81 = CIRCLE('',#82,1.5);
#82 = AXIS2_PLACEMENT_3D('',#83,#84,#85);
#83 = CARTESIAN_POINT('',(0.,0.,5.2));
#84 = DIRECTION('',(0.,0.,1.));
#85 = DIRECTION('',(1.,0.,0.));
#86 = ORIENTED_EDGE('',*,*,#70,.F.);
#87 = ORIENTED_EDGE('',*,*,#88,.F.);
#88 = EDGE_CURVE('',#71,#71,#89,.T.);
#89 = CIRCLE('',#90,1.5);
#90 = AXIS2_PLACEMENT_3D('',#91,#92,#93);
#91 = CARTESIAN_POINT('',(0.,0.,1.55));
#92 = DIRECTION('',(0.,0.,1.));
#93 = DIRECTION('',(1.,0.,0.));
#94 = CYLINDRICAL_SURFACE('',#95,1.5);
#95 = AXIS2_PLACEMENT_3D('',#96,#97,#98);
#96 = CARTESIAN_POINT('',(0.,0.,1.55));
#97 = DIRECTION('',(-0.,-0.,-1.));
#98 = DIRECTION('',(1.,0.,0.));
#99 = ADVANCED_FACE('',(#100),#113,.T.);
#100 = FACE_BOUND('',#101,.T.);
#101 = EDGE_LOOP('',(#102,#111,#112));
#102 = ORIENTED_EDGE('',*,*,#103,.F.);
#103 = EDGE_CURVE('',#73,#104,#106,.T.);
#104 = VERTEX_POINT('',#105);
#105 = CARTESIAN_POINT('',(9.184850993605E-17,0.,6.7));
#106 = CIRCLE('',#107,1.5);
#107 = AXIS2_PLACEMENT_3D('',#108,#109,#110);
#108 = CARTESIAN_POINT('',(0.,0.,5.2));
#109 = DIRECTION('',(0.,-1.,0.));
#110 = DIRECTION('',(1.,0.,0.));
#111 = ORIENTED_EDGE('',*,*,#80,.T.);
#112 = ORIENTED_EDGE('',*,*,#103,.T.);
#113 = SPHERICAL_SURFACE('',#114,1.5);
#114 = AXIS2_PLACEMENT_3D('',#115,#116,#117);
#115 = CARTESIAN_POINT('',(0.,0.,5.2));
#116 = DIRECTION('',(0.,0.,1.));
#117 = DIRECTION('',(1.,0.,0.));
#118 = ADVANCED_FACE('',(#119),#122,.F.);
#119 = FACE_BOUND('',#120,.F.);
#120 = EDGE_LOOP('',(#121));
#121 = ORIENTED_EDGE('',*,*,#88,.T.);
#122 = PLANE('',#123);
#123 = AXIS2_PLACEMENT_3D('',#124,#125,#126);
#124 = CARTESIAN_POINT('',(-1.139533443783E-16,-4.255667768225E-18,1.55)
  );
#125 = DIRECTION('',(0.,0.,1.));
#126 = DIRECTION('',(1.,0.,0.));
#127 = ( GEOMETRIC_REPRESENTATION_CONTEXT(3) 
GLOBAL_UNCERTAINTY_ASSIGNED_CONTEXT((#131)) GLOBAL_UNIT_ASSIGNED_CONTEXT
((#128,#129,#130)) REPRESENTATION_CONTEXT('Context #1',
  '3D Context with UNIT and UNCERTAINTY') );
#128 = ( LENGTH_UNIT() NAMED_UNIT(*) SI_UNIT(.MILLI.,.METRE.) );
#129 = ( NAMED_UNIT(*) PLANE_ANGLE_UNIT() SI_UNIT($,.RADIAN.) );
#130 = ( NAMED_UNIT(*) SI_UNIT($,.STERADIAN.) SOLID_ANGLE_UNIT() );
#131 = UNCERTAINTY_MEASURE_WITH_UNIT(LENGTH_MEASURE(1.E-07),#128,
  'distance_accuracy_value','confusion accuracy');
#132 = CONTEXT_DEPENDENT_SHAPE_REPRESENTATION(#133,#135);
#133 = ( REPRESENTATION_RELATIONSHIP('','',#63,#36) 
REPRESENTATION_RELATIONSHIP_WITH_TRANSFORMATION(#134) 
SHAPE_REPRESENTATION_RELATIONSHIP() );
#134 = ITEM_DEFINED_TRANSFORMATION('','',#11,#37);
#135 = PRODUCT_DEFINITION_SHAPE('Placement','Placement of an item',#136
  );
#136 = NEXT_ASSEMBLY_USAGE_OCCURRENCE('34','Lens','',#31,#58,$);
#137 = PRODUCT_RELATED_PRODUCT_CATEGORY('part',$,(#60));
#138 = SHAPE_DEFINITION_REPRESENTATION(#139,#145);
#139 = PRODUCT_DEFINITION_SHAPE('','',#140);
#140 = PRODUCT_DEFINITION('design','',#141,#144);
#141 = PRODUCT_DEFINITION_FORMATION('','',#142);
#142 = PRODUCT('Mark','Mark','',(#143));
#143 = PRODUCT_CONTEXT('',#2,'mechanical');
#144 = PRODUCT_DEFINITION_CONTEXT('part definition',#2,'design');
#145 = ADVANCED_BREP_SHAPE_REPRESENTATION('',(#11,#146),#232);
#146 = MANIFOLD_SOLID_BREP('',#147);
#147 = CLOSED_SHELL('',(#148,#190,#212,#222));
#148 = ADVANCED_FACE('',(#149),#185,.T.);
#149 = FACE_BOUND('',#150,.F.);
#150 = EDGE_LOOP('',(#151,#161,#170,#178));
#151 = ORIENTED_EDGE('',*,*,#152,.T.);
#152 = EDGE_CURVE('',#153,#155,#157,.T.);
#153 = VERTEX_POINT('',#154);
#154 = CARTESIAN_POINT('',(1.604246214118,1.235726136524,0.));
#155 = VERTEX_POINT('',#156);
#156 = CARTESIAN_POINT('',(1.604246214118,1.235726136524,1.));
#157 = LINE('',#158,#159);
#158 = CARTESIAN_POINT('',(1.604246214118,1.235726136524,0.));
#159 = VECTOR('',#160,1.);
#160 = DIRECTION('',(0.,0.,1.));
#161 = ORIENTED_EDGE('',*,*,#162,.T.);
#162 = EDGE_CURVE('',#155,#163,#165,.T.);
#163 = VERTEX_POINT('',#164);
#164 = CARTESIAN_POINT('',(1.604246214118,-1.235726136524,1.));
#165 = CIRCLE('',#166,2.025);
#166 = AXIS2_PLACEMENT_3D('',#167,#168,#169);
#167 = CARTESIAN_POINT('',(0.,-2.00035754748E-32,1.));
#168 = DIRECTION('',(0.,0.,1.));
#169 = DIRECTION('',(1.,0.,0.));
#170 = ORIENTED_EDGE('',*,*,#171,.F.);
#171 = EDGE_CURVE('',#172,#163,#174,.T.);
#172 = VERTEX_POINT('',#173);
#173 = CARTESIAN_POINT('',(1.604246214118,-1.235726136524,0.));
#174 = LINE('',#175,#176);
#175 = CARTESIAN_POINT('',(1.604246214118,-1.235726136524,0.));
#176 = VECTOR('',#177,1.);
#177 = DIRECTION('',(0.,0.,1.));
#178 = ORIENTED_EDGE('',*,*,#179,.F.);
#179 = EDGE_CURVE('',#153,#172,#180,.T.);
#180 = CIRCLE('',#181,2.025);
#181 = AXIS2_PLACEMENT_3D('',#182,#183,#184);
#182 = CARTESIAN_POINT('',(0.,-2.00035754748E-32,0.));
#183 = DIRECTION('',(0.,0.,1.));
#184 = DIRECTION('',(1.,0.,0.));
#185 = CYLINDRICAL_SURFACE('',#186,2.025);
#186 = AXIS2_PLACEMENT_3D('',#187,#188,#189);
#187 = CARTESIAN_POINT('',(0.,-2.00035754748E-32,0.));
#188 = DIRECTION('',(-0.,-0.,-1.));
#189 = DIRECTION('',(1.,0.,0.));
#190 = ADVANCED_FACE('',(#191),#207,.F.);
#191 = FACE_BOUND('',#192,.F.);
#192 = EDGE_LOOP('',(#193,#194,#200,#201));
#193 = ORIENTED_EDGE('',*,*,#171,.T.);
#194 = ORIENTED_EDGE('',*,*,#195,.T.);
#195 = EDGE_CURVE('',#163,#155,#196,.T.);
#196 = LINE('',#197,#198);
#197 = CARTESIAN_POINT('',(1.604246214118,-1.235726136524,1.));
#198 = VECTOR('',#199,1.);
#199 = DIRECTION('',(0.,1.,0.));
#200 = ORIENTED_EDGE('',*,*,#152,.F.);
#201 = ORIENTED_EDGE('',*,*,#202,.F.);
#202 = EDGE_CURVE('',#172,#153,#203,.T.);
#203 = LINE('',#204,#205);
#204 = CARTESIAN_POINT('',(1.604246214118,-1.235726136524,0.));
#205 = VECTOR('',#206,1.);
#206 = DIRECTION('',(0.,1.,0.));
#207 = PLANE('',#208);
#208 = AXIS2_PLACEMENT_3D('',#209,#210,#211);
#209 = CARTESIAN_POINT('',(1.604246214118,-1.235726136524,0.));
#210 = DIRECTION('',(-1.,0.,0.));
#211 = DIRECTION('',(0.,1.,0.));
#212 = ADVANCED_FACE('',(#213),#217,.F.);
#213 = FACE_BOUND('',#214,.F.);
#214 = EDGE_LOOP('',(#215,#216));
#215 = ORIENTED_EDGE('',*,*,#179,.T.);
#216 = ORIENTED_EDGE('',*,*,#202,.T.);
#217 = PLANE('',#218);
#218 = AXIS2_PLACEMENT_3D('',#219,#220,#221);
#219 = CARTESIAN_POINT('',(5.089265420542E-02,-5.830858312893E-17,0.));
#220 = DIRECTION('',(0.,0.,1.));
#221 = DIRECTION('',(1.,0.,0.));
#222 = ADVANCED_FACE('',(#223),#227,.T.);
#223 = FACE_BOUND('',#224,.T.);
#224 = EDGE_LOOP('',(#225,#226));
#225 = ORIENTED_EDGE('',*,*,#162,.T.);
#226 = ORIENTED_EDGE('',*,*,#195,.T.);
#227 = PLANE('',#228);
#228 = AXIS2_PLACEMENT_3D('',#229,#230,#231);
#229 = CARTESIAN_POINT('',(5.089265420542E-02,-5.830858312893E-17,1.));
#230 = DIRECTION('',(0.,0.,1.));
#231 = DIRECTION('',(1.,0.,0.));
#232 = ( GEOMETRIC_REPRESENTATION_CONTEXT(3) 
GLOBAL_UNCERTAINTY_ASSIGNED_CONTEXT((#236)) GLOBAL_UNIT_ASSIGNED_CONTEXT
((#233,#234,#235)) REPRESENTATION_CONTEXT('Context #1',
  '3D Context with UNIT and UNCERTAINTY') );
#233 = ( LENGTH_UNIT() NAMED_UNIT(*) SI_UNIT(.MILLI.,.METRE.) );
#234 = ( NAMED_UNIT(*) PLANE_ANGLE_UNIT() SI_UNIT($,.RADIAN.) );
#235 = ( NAMED_UNIT(*) SI_UNIT($,.STERADIAN.) SOLID_ANGLE_UNIT() );
#236 = UNCERTAINTY_MEASURE_WITH_UNIT(LENGTH_MEASURE(1.E-07),#233,
  'distance_accuracy_value','confusion accuracy');
#237 = CONTEXT_DEPENDENT_SHAPE_REPRESENTATION(#238,#240);
#238 = ( REPRESENTATION_RELATIONSHIP('','',#145,#36) 
REPRESENTATION_RELATIONSHIP_WITH_TRANSFORMATION(#239) 
SHAPE_REPRESENTATION_RELATIONSHIP() );
#239 = ITEM_DEFINED_TRANSFORMATION('','',#11,#41);
#240 = PRODUCT_DEFINITION_SHAPE('Placement','Placement of an item',#241
  );
#241 = NEXT_ASSEMBLY_USAGE_OCCURRENCE('35','Mark','',#31,#140,$);
#242 = PRODUCT_RELATED_PRODUCT_CATEGORY('part',$,(#142));
#243 = SHAPE_DEFINITION_REPRESENTATION(#244,#250);
#244 = PRODUCT_DEFINITION_SHAPE('','',#245);
#245 = PRODUCT_DEFINITION('design','',#246,#249);
#246 = PRODUCT_DEFINITION_FORMATION('','',#247);
#247 = PRODUCT('PinsGroup','PinsGroup','',(#248));
#248 = PRODUCT_CONTEXT('',#2,'mechanical');
#249 = PRODUCT_DEFINITION_CONTEXT('part definition',#2,'design');
#250 = SHAPE_REPRESENTATION('',(#11,#251,#255,#259,#263,#267),#271);
#251 = AXIS2_PLACEMENT_3D('',#252,#253,#254);
#252 = CARTESIAN_POINT('',(0.,0.,0.));
#253 = DIRECTION('',(0.,0.,1.));
#254 = DIRECTION('',(1.,0.,0.));
#255 = AXIS2_PLACEMENT_3D('',#256,#257,#258);
#256 = CARTESIAN_POINT('',(0.,0.,0.));
#257 = DIRECTION('',(0.,0.,1.));
#258 = DIRECTION('',(1.,0.,0.));
#259 = AXIS2_PLACEMENT_3D('',#260,#261,#262);
#260 = CARTESIAN_POINT('',(0.,0.,0.));
#261 = DIRECTION('',(0.,0.,1.));
#262 = DIRECTION('',(1.,0.,0.));
#263 = AXIS2_PLACEMENT_3D('',#264,#265,#266);
#264 = CARTESIAN_POINT('',(0.,0.,0.));
#265 = DIRECTION('',(0.,0.,1.));
#266 = DIRECTION('',(1.,0.,0.));
#267 = AXIS2_PLACEMENT_3D('',#268,#269,#270);
#268 = CARTESIAN_POINT('',(0.,0.,0.));
#269 = DIRECTION('',(0.,0.,1.));
#270 = DIRECTION('',(1.,0.,0.));
#271 = ( GEOMETRIC_REPRESENTATION_CONTEXT(3) 
GLOBAL_UNCERTAINTY_ASSIGNED_CONTEXT((#275)) GLOBAL_UNIT_ASSIGNED_CONTEXT
((#272,#273,#274)) REPRESENTATION_CONTEXT('Context #1',
  '3D Context with UNIT and UNCERTAINTY') );
#272 = ( LENGTH_UNIT() NAMED_UNIT(*) SI_UNIT(.MILLI.,.METRE.) );
#273 = ( NAMED_UNIT(*) PLANE_ANGLE_UNIT() SI_UNIT($,.RADIAN.) );
#274 = ( NAMED_UNIT(*) SI_UNIT($,.STERADIAN.) SOLID_ANGLE_UNIT() );
#275 = UNCERTAINTY_MEASURE_WITH_UNIT(LENGTH_MEASURE(1.E-07),#272,
  'distance_accuracy_value','confusion accuracy');
#276 = CONTEXT_DEPENDENT_SHAPE_REPRESENTATION(#277,#279);
#277 = ( REPRESENTATION_RELATIONSHIP('','',#250,#10) 
REPRESENTATION_RELATIONSHIP_WITH_TRANSFORMATION(#278) 
SHAPE_REPRESENTATION_RELATIONSHIP() );
#278 = ITEM_DEFINED_TRANSFORMATION('','',#11,#19);
#279 = PRODUCT_DEFINITION_SHAPE('Placement','Placement of an item',#280
  );
#280 = NEXT_ASSEMBLY_USAGE_OCCURRENCE('42','PinsGroup','',#5,#245,$);
#281 = PRODUCT_RELATED_PRODUCT_CATEGORY('part',$,(#247));
#282 = SHAPE_DEFINITION_REPRESENTATION(#283,#289);
#283 = PRODUCT_DEFINITION_SHAPE('','',#284);
#284 = PRODUCT_DEFINITION('design','',#285,#288);
#285 = PRODUCT_DEFINITION_FORMATION('','',#286);
#286 = PRODUCT('PinA','PinA','',(#287));
#287 = PRODUCT_CONTEXT('',#2,'mechanical');
#288 = PRODUCT_DEFINITION_CONTEXT('part definition',#2,'design');
#289 = ADVANCED_BREP_SHAPE_REPRESENTATION('',(#11,#290),#440);
#290 = MANIFOLD_SOLID_BREP('',#291);
#291 = CLOSED_SHELL('',(#292,#332,#363,#394,#416,#428));
#292 = ADVANCED_FACE('',(#293),#327,.T.);
#293 = FACE_BOUND('',#294,.T.);
#294 = EDGE_LOOP('',(#295,#305,#313,#321));
#295 = ORIENTED_EDGE('',*,*,#296,.T.);
#296 = EDGE_CURVE('',#297,#299,#301,.T.);
#297 = VERTEX_POINT('',#298);
#298 = CARTESIAN_POINT('',(-2.79,-0.25,0.));
#299 = VERTEX_POINT('',#300);
#300 = CARTESIAN_POINT('',(-2.79,-0.25,-5.));
#301 = LINE('',#302,#303);
#302 = CARTESIAN_POINT('',(-2.79,-0.25,0.));
#303 = VECTOR('',#304,1.);
#304 = DIRECTION('',(-0.,-0.,-1.));
#305 = ORIENTED_EDGE('',*,*,#306,.T.);
#306 = EDGE_CURVE('',#299,#307,#309,.T.);
#307 = VERTEX_POINT('',#308);
#308 = CARTESIAN_POINT('',(-2.29,-0.25,-5.));
#309 = LINE('',#310,#311);
#310 = CARTESIAN_POINT('',(-2.79,-0.25,-5.));
#311 = VECTOR('',#312,1.);
#312 = DIRECTION('',(1.,0.,0.));
#313 = ORIENTED_EDGE('',*,*,#314,.F.);
#314 = EDGE_CURVE('',#315,#307,#317,.T.);
#315 = VERTEX_POINT('',#316);
#316 = CARTESIAN_POINT('',(-2.29,-0.25,0.));
#317 = LINE('',#318,#319);
#318 = CARTESIAN_POINT('',(-2.29,-0.25,0.));
#319 = VECTOR('',#320,1.);
#320 = DIRECTION('',(-0.,-0.,-1.));
#321 = ORIENTED_EDGE('',*,*,#322,.F.);
#322 = EDGE_CURVE('',#297,#315,#323,.T.);
#323 = LINE('',#324,#325);
#324 = CARTESIAN_POINT('',(-2.79,-0.25,0.));
#325 = VECTOR('',#326,1.);
#326 = DIRECTION('',(1.,0.,0.));
#327 = PLANE('',#328);
#328 = AXIS2_PLACEMENT_3D('',#329,#330,#331);
#329 = CARTESIAN_POINT('',(-2.79,-0.25,0.));
#330 = DIRECTION('',(0.,-1.,0.));
#331 = DIRECTION('',(1.,0.,0.));
#332 = ADVANCED_FACE('',(#333),#358,.T.);
#333 = FACE_BOUND('',#334,.T.);
#334 = EDGE_LOOP('',(#335,#336,#344,#352));
#335 = ORIENTED_EDGE('',*,*,#314,.T.);
#336 = ORIENTED_EDGE('',*,*,#337,.T.);
#337 = EDGE_CURVE('',#307,#338,#340,.T.);
#338 = VERTEX_POINT('',#339);
#339 = CARTESIAN_POINT('',(-2.29,0.25,-5.));
#340 = LINE('',#341,#342);
#341 = CARTESIAN_POINT('',(-2.29,-0.25,-5.));
#342 = VECTOR('',#343,1.);
#343 = DIRECTION('',(0.,1.,0.));
#344 = ORIENTED_EDGE('',*,*,#345,.F.);
#345 = EDGE_CURVE('',#346,#338,#348,.T.);
#346 = VERTEX_POINT('',#347);
#347 = CARTESIAN_POINT('',(-2.29,0.25,0.));
#348 = LINE('',#349,#350);
#349 = CARTESIAN_POINT('',(-2.29,0.25,0.));
#350 = VECTOR('',#351,1.);
#351 = DIRECTION('',(-0.,-0.,-1.));
#352 = ORIENTED_EDGE('',*,*,#353,.F.);
#353 = EDGE_CURVE('',#315,#346,#354,.T.);
#354 = LINE('',#355,#356);
#355 = CARTESIAN_POINT('',(-2.29,-0.25,0.));
#356 = VECTOR('',#357,1.);
#357 = DIRECTION('',(0.,1.,0.));
#358 = PLANE('',#359);
#359 = AXIS2_PLACEMENT_3D('',#360,#361,#362);
#360 = CARTESIAN_POINT('',(-2.29,-0.25,0.));
#361 = DIRECTION('',(1.,0.,0.));
#362 = DIRECTION('',(-0.,1.,0.));
#363 = ADVANCED_FACE('',(#364),#389,.T.);
#364 = FACE_BOUND('',#365,.T.);
#365 = EDGE_LOOP('',(#366,#367,#375,#383));
#366 = ORIENTED_EDGE('',*,*,#345,.T.);
#367 = ORIENTED_EDGE('',*,*,#368,.T.);
#368 = EDGE_CURVE('',#338,#369,#371,.T.);
#369 = VERTEX_POINT('',#370);
#370 = CARTESIAN_POINT('',(-2.79,0.25,-5.));
#371 = LINE('',#372,#373);
#372 = CARTESIAN_POINT('',(-2.29,0.25,-5.));
#373 = VECTOR('',#374,1.);
#374 = DIRECTION('',(-1.,0.,0.));
#375 = ORIENTED_EDGE('',*,*,#376,.F.);
#376 = EDGE_CURVE('',#377,#369,#379,.T.);
#377 = VERTEX_POINT('',#378);
#378 = CARTESIAN_POINT('',(-2.79,0.25,0.));
#379 = LINE('',#380,#381);
#380 = CARTESIAN_POINT('',(-2.79,0.25,0.));
#381 = VECTOR('',#382,1.);
#382 = DIRECTION('',(-0.,-0.,-1.));
#383 = ORIENTED_EDGE('',*,*,#384,.F.);
#384 = EDGE_CURVE('',#346,#377,#385,.T.);
#385 = LINE('',#386,#387);
#386 = CARTESIAN_POINT('',(-2.29,0.25,0.));
#387 = VECTOR('',#388,1.);
#388 = DIRECTION('',(-1.,0.,0.));
#389 = PLANE('',#390);
#390 = AXIS2_PLACEMENT_3D('',#391,#392,#393);
#391 = CARTESIAN_POINT('',(-2.29,0.25,0.));
#392 = DIRECTION('',(0.,1.,0.));
#393 = DIRECTION('',(-1.,0.,0.));
#394 = ADVANCED_FACE('',(#395),#411,.T.);
#395 = FACE_BOUND('',#396,.T.);
#396 = EDGE_LOOP('',(#397,#398,#404,#405));
#397 = ORIENTED_EDGE('',*,*,#376,.T.);
#398 = ORIENTED_EDGE('',*,*,#399,.T.);
#399 = EDGE_CURVE('',#369,#299,#400,.T.);
#400 = LINE('',#401,#402);
#401 = CARTESIAN_POINT('',(-2.79,0.25,-5.));
#402 = VECTOR('',#403,1.);
#403 = DIRECTION('',(0.,-1.,0.));
#404 = ORIENTED_EDGE('',*,*,#296,.F.);
#405 = ORIENTED_EDGE('',*,*,#406,.F.);
#406 = EDGE_CURVE('',#377,#297,#407,.T.);
#407 = LINE('',#408,#409);
#408 = CARTESIAN_POINT('',(-2.79,0.25,0.));
#409 = VECTOR('',#410,1.);
#410 = DIRECTION('',(0.,-1.,0.));
#411 = PLANE('',#412);
#412 = AXIS2_PLACEMENT_3D('',#413,#414,#415);
#413 = CARTESIAN_POINT('',(-2.79,0.25,0.));
#414 = DIRECTION('',(-1.,0.,0.));
#415 = DIRECTION('',(0.,-1.,0.));
#416 = ADVANCED_FACE('',(#417),#423,.T.);
#417 = FACE_BOUND('',#418,.T.);
#418 = EDGE_LOOP('',(#419,#420,#421,#422));
#419 = ORIENTED_EDGE('',*,*,#322,.T.);
#420 = ORIENTED_EDGE('',*,*,#353,.T.);
#421 = ORIENTED_EDGE('',*,*,#384,.T.);
#422 = ORIENTED_EDGE('',*,*,#406,.T.);
#423 = PLANE('',#424);
#424 = AXIS2_PLACEMENT_3D('',#425,#426,#427);
#425 = CARTESIAN_POINT('',(-2.54,0.,0.));
#426 = DIRECTION('',(0.,0.,1.));
#427 = DIRECTION('',(1.,0.,0.));
#428 = ADVANCED_FACE('',(#429),#435,.F.);
#429 = FACE_BOUND('',#430,.F.);
#430 = EDGE_LOOP('',(#431,#432,#433,#434));
#431 = ORIENTED_EDGE('',*,*,#306,.T.);
#432 = ORIENTED_EDGE('',*,*,#337,.T.);
#433 = ORIENTED_EDGE('',*,*,#368,.T.);
#434 = ORIENTED_EDGE('',*,*,#399,.T.);
#435 = PLANE('',#436);
#436 = AXIS2_PLACEMENT_3D('',#437,#438,#439);
#437 = CARTESIAN_POINT('',(-2.54,0.,-5.));
#438 = DIRECTION('',(0.,0.,1.));
#439 = DIRECTION('',(1.,0.,0.));
#440 = ( GEOMETRIC_REPRESENTATION_CONTEXT(3) 
GLOBAL_UNCERTAINTY_ASSIGNED_CONTEXT((#444)) GLOBAL_UNIT_ASSIGNED_CONTEXT
((#441,#442,#443)) REPRESENTATION_CONTEXT('Context #1',
  '3D Context with UNIT and UNCERTAINTY') );
#441 = ( LENGTH_UNIT() NAMED_UNIT(*) SI_UNIT(.MILLI.,.METRE.) );
#442 = ( NAMED_UNIT(*) PLANE_ANGLE_UNIT() SI_UNIT($,.RADIAN.) );
#443 = ( NAMED_UNIT(*) SI_UNIT($,.STERADIAN.) SOLID_ANGLE_UNIT() );
#444 = UNCERTAINTY_MEASURE_WITH_UNIT(LENGTH_MEASURE(1.E-07),#441,
  'distance_accuracy_value','confusion accuracy');
#445 = CONTEXT_DEPENDENT_SHAPE_REPRESENTATION(#446,#448);
#446 = ( REPRESENTATION_RELATIONSHIP('','',#289,#250) 
REPRESENTATION_RELATIONSHIP_WITH_TRANSFORMATION(#447) 
SHAPE_REPRESENTATION_RELATIONSHIP() );
#447 = ITEM_DEFINED_TRANSFORMATION('','',#11,#251);
#448 = PRODUCT_DEFINITION_SHAPE('Placement','Placement of an item',#449
  );
#449 = NEXT_ASSEMBLY_USAGE_OCCURRENCE('37','PinA','',#245,#284,$);
#450 = PRODUCT_RELATED_PRODUCT_CATEGORY('part',$,(#286));
#451 = SHAPE_DEFINITION_REPRESENTATION(#452,#458);
#452 = PRODUCT_DEFINITION_SHAPE('','',#453);
#453 = PRODUCT_DEFINITION('design','',#454,#457);
#454 = PRODUCT_DEFINITION_FORMATION('','',#455);
#455 = PRODUCT('PinB','PinB','',(#456));
#456 = PRODUCT_CONTEXT('',#2,'mechanical');
#457 = PRODUCT_DEFINITION_CONTEXT('part definition',#2,'design');
#458 = ADVANCED_BREP_SHAPE_REPRESENTATION('',(#11,#459),#609);
#459 = MANIFOLD_SOLID_BREP('',#460);
#460 = CLOSED_SHELL('',(#461,#501,#532,#563,#585,#597));
#461 = ADVANCED_FACE('',(#462),#496,.T.);
#462 = FACE_BOUND('',#463,.T.);
#463 = EDGE_LOOP('',(#464,#474,#482,#490));
#464 = ORIENTED_EDGE('',*,*,#465,.T.);
#465 = EDGE_CURVE('',#466,#468,#470,.T.);
#466 = VERTEX_POINT('',#467);
#467 = CARTESIAN_POINT('',(2.29,-0.25,0.));
#468 = VERTEX_POINT('',#469);
#469 = CARTESIAN_POINT('',(2.29,-0.25,-6.));
#470 = LINE('',#471,#472);
#471 = CARTESIAN_POINT('',(2.29,-0.25,0.));
#472 = VECTOR('',#473,1.);
#473 = DIRECTION('',(-0.,-0.,-1.));
#474 = ORIENTED_EDGE('',*,*,#475,.T.);
#475 = EDGE_CURVE('',#468,#476,#478,.T.);
#476 = VERTEX_POINT('',#477);
#477 = CARTESIAN_POINT('',(2.79,-0.25,-6.));
#478 = LINE('',#479,#480);
#479 = CARTESIAN_POINT('',(2.29,-0.25,-6.));
#480 = VECTOR('',#481,1.);
#481 = DIRECTION('',(1.,0.,0.));
#482 = ORIENTED_EDGE('',*,*,#483,.F.);
#483 = EDGE_CURVE('',#484,#476,#486,.T.);
#484 = VERTEX_POINT('',#485);
#485 = CARTESIAN_POINT('',(2.79,-0.25,0.));
#486 = LINE('',#487,#488);
#487 = CARTESIAN_POINT('',(2.79,-0.25,0.));
#488 = VECTOR('',#489,1.);
#489 = DIRECTION('',(-0.,-0.,-1.));
#490 = ORIENTED_EDGE('',*,*,#491,.F.);
#491 = EDGE_CURVE('',#466,#484,#492,.T.);
#492 = LINE('',#493,#494);
#493 = CARTESIAN_POINT('',(2.29,-0.25,0.));
#494 = VECTOR('',#495,1.);
#495 = DIRECTION('',(1.,0.,0.));
#496 = PLANE('',#497);
#497 = AXIS2_PLACEMENT_3D('',#498,#499,#500);
#498 = CARTESIAN_POINT('',(2.29,-0.25,0.));
#499 = DIRECTION('',(0.,-1.,0.));
#500 = DIRECTION('',(1.,0.,0.));
#501 = ADVANCED_FACE('',(#502),#527,.T.);
#502 = FACE_BOUND('',#503,.T.);
#503 = EDGE_LOOP('',(#504,#505,#513,#521));
#504 = ORIENTED_EDGE('',*,*,#483,.T.);
#505 = ORIENTED_EDGE('',*,*,#506,.T.);
#506 = EDGE_CURVE('',#476,#507,#509,.T.);
#507 = VERTEX_POINT('',#508);
#508 = CARTESIAN_POINT('',(2.79,0.25,-6.));
#509 = LINE('',#510,#511);
#510 = CARTESIAN_POINT('',(2.79,-0.25,-6.));
#511 = VECTOR('',#512,1.);
#512 = DIRECTION('',(0.,1.,0.));
#513 = ORIENTED_EDGE('',*,*,#514,.F.);
#514 = EDGE_CURVE('',#515,#507,#517,.T.);
#515 = VERTEX_POINT('',#516);
#516 = CARTESIAN_POINT('',(2.79,0.25,0.));
#517 = LINE('',#518,#519);
#518 = CARTESIAN_POINT('',(2.79,0.25,0.));
#519 = VECTOR('',#520,1.);
#520 = DIRECTION('',(-0.,-0.,-1.));
#521 = ORIENTED_EDGE('',*,*,#522,.F.);
#522 = EDGE_CURVE('',#484,#515,#523,.T.);
#523 = LINE('',#524,#525);
#524 = CARTESIAN_POINT('',(2.79,-0.25,0.));
#525 = VECTOR('',#526,1.);
#526 = DIRECTION('',(0.,1.,0.));
#527 = PLANE('',#528);
#528 = AXIS2_PLACEMENT_3D('',#529,#530,#531);
#529 = CARTESIAN_POINT('',(2.79,-0.25,0.));
#530 = DIRECTION('',(1.,0.,0.));
#531 = DIRECTION('',(-0.,1.,0.));
#532 = ADVANCED_FACE('',(#533),#558,.T.);
#533 = FACE_BOUND('',#534,.T.);
#534 = EDGE_LOOP('',(#535,#536,#544,#552));
#535 = ORIENTED_EDGE('',*,*,#514,.T.);
#536 = ORIENTED_EDGE('',*,*,#537,.T.);
#537 = EDGE_CURVE('',#507,#538,#540,.T.);
#538 = VERTEX_POINT('',#539);
#539 = CARTESIAN_POINT('',(2.29,0.25,-6.));
#540 = LINE('',#541,#542);
#541 = CARTESIAN_POINT('',(2.79,0.25,-6.));
#542 = VECTOR('',#543,1.);
#543 = DIRECTION('',(-1.,0.,0.));
#544 = ORIENTED_EDGE('',*,*,#545,.F.);
#545 = EDGE_CURVE('',#546,#538,#548,.T.);
#546 = VERTEX_POINT('',#547);
#547 = CARTESIAN_POINT('',(2.29,0.25,0.));
#548 = LINE('',#549,#550);
#549 = CARTESIAN_POINT('',(2.29,0.25,0.));
#550 = VECTOR('',#551,1.);
#551 = DIRECTION('',(-0.,-0.,-1.));
#552 = ORIENTED_EDGE('',*,*,#553,.F.);
#553 = EDGE_CURVE('',#515,#546,#554,.T.);
#554 = LINE('',#555,#556);
#555 = CARTESIAN_POINT('',(2.79,0.25,0.));
#556 = VECTOR('',#557,1.);
#557 = DIRECTION('',(-1.,0.,0.));
#558 = PLANE('',#559);
#559 = AXIS2_PLACEMENT_3D('',#560,#561,#562);
#560 = CARTESIAN_POINT('',(2.79,0.25,0.));
#561 = DIRECTION('',(0.,1.,0.));
#562 = DIRECTION('',(-1.,0.,0.));
#563 = ADVANCED_FACE('',(#564),#580,.T.);
#564 = FACE_BOUND('',#565,.T.);
#565 = EDGE_LOOP('',(#566,#567,#573,#574));
#566 = ORIENTED_EDGE('',*,*,#545,.T.);
#567 = ORIENTED_EDGE('',*,*,#568,.T.);
#568 = EDGE_CURVE('',#538,#468,#569,.T.);
#569 = LINE('',#570,#571);
#570 = CARTESIAN_POINT('',(2.29,0.25,-6.));
#571 = VECTOR('',#572,1.);
#572 = DIRECTION('',(0.,-1.,0.));
#573 = ORIENTED_EDGE('',*,*,#465,.F.);
#574 = ORIENTED_EDGE('',*,*,#575,.F.);
#575 = EDGE_CURVE('',#546,#466,#576,.T.);
#576 = LINE('',#577,#578);
#577 = CARTESIAN_POINT('',(2.29,0.25,0.));
#578 = VECTOR('',#579,1.);
#579 = DIRECTION('',(0.,-1.,0.));
#580 = PLANE('',#581);
#581 = AXIS2_PLACEMENT_3D('',#582,#583,#584);
#582 = CARTESIAN_POINT('',(2.29,0.25,0.));
#583 = DIRECTION('',(-1.,0.,0.));
#584 = DIRECTION('',(0.,-1.,0.));
#585 = ADVANCED_FACE('',(#586),#592,.T.);
#586 = FACE_BOUND('',#587,.T.);
#587 = EDGE_LOOP('',(#588,#589,#590,#591));
#588 = ORIENTED_EDGE('',*,*,#491,.T.);
#589 = ORIENTED_EDGE('',*,*,#522,.T.);
#590 = ORIENTED_EDGE('',*,*,#553,.T.);
#591 = ORIENTED_EDGE('',*,*,#575,.T.);
#592 = PLANE('',#593);
#593 = AXIS2_PLACEMENT_3D('',#594,#595,#596);
#594 = CARTESIAN_POINT('',(2.54,3.E-17,0.));
#595 = DIRECTION('',(0.,0.,1.));
#596 = DIRECTION('',(1.,0.,0.));
#597 = ADVANCED_FACE('',(#598),#604,.F.);
#598 = FACE_BOUND('',#599,.F.);
#599 = EDGE_LOOP('',(#600,#601,#602,#603));
#600 = ORIENTED_EDGE('',*,*,#475,.T.);
#601 = ORIENTED_EDGE('',*,*,#506,.T.);
#602 = ORIENTED_EDGE('',*,*,#537,.T.);
#603 = ORIENTED_EDGE('',*,*,#568,.T.);
#604 = PLANE('',#605);
#605 = AXIS2_PLACEMENT_3D('',#606,#607,#608);
#606 = CARTESIAN_POINT('',(2.54,3.E-17,-6.));
#607 = DIRECTION('',(0.,0.,1.));
#608 = DIRECTION('',(1.,0.,0.));
#609 = ( GEOMETRIC_REPRESENTATION_CONTEXT(3) 
GLOBAL_UNCERTAINTY_ASSIGNED_CONTEXT((#613)) GLOBAL_UNIT_ASSIGNED_CONTEXT
((#610,#611,#612)) REPRESENTATION_CONTEXT('Context #1',
  '3D Context with UNIT and UNCERTAINTY') );
#610 = ( LENGTH_UNIT() NAMED_UNIT(*) SI_UNIT(.MILLI.,.METRE.) );
#611 = ( NAMED_UNIT(*) PLANE_ANGLE_UNIT() SI_UNIT($,.RADIAN.) );
#612 = ( NAMED_UNIT(*) SI_UNIT($,.STERADIAN.) SOLID_ANGLE_UNIT() );
#613 = UNCERTAINTY_MEASURE_WITH_UNIT(LENGTH_MEASURE(1.E-07),#610,
  'distance_accuracy_value','confusion accuracy');
#614 = CONTEXT_DEPENDENT_SHAPE_REPRESENTATION(#615,#617);
#615 = ( REPRESENTATION_RELATIONSHIP('','',#458,#250) 
REPRESENTATION_RELATIONSHIP_WITH_TRANSFORMATION(#616) 
SHAPE_REPRESENTATION_RELATIONSHIP() );
#616 = ITEM_DEFINED_TRANSFORMATION('','',#11,#255);
#617 = PRODUCT_DEFINITION_SHAPE('Placement','Placement of an item',#618
  );
#618 = NEXT_ASSEMBLY_USAGE_OCCURRENCE('38','PinB','',#245,#453,$);
#619 = PRODUCT_RELATED_PRODUCT_CATEGORY('part',$,(#455));
#620 = SHAPE_DEFINITION_REPRESENTATION(#621,#627);
#621 = PRODUCT_DEFINITION_SHAPE('','',#622);
#622 = PRODUCT_DEFINITION('design','',#623,#626);
#623 = PRODUCT_DEFINITION_FORMATION('','',#624);
#624 = PRODUCT('StandOff','StandOff','',(#625));
#625 = PRODUCT_CONTEXT('',#2,'mechanical');
#626 = PRODUCT_DEFINITION_CONTEXT('part definition',#2,'design');
#627 = SHAPE_REPRESENTATION('',(#11,#628,#778,#928),#1078);
#628 = MANIFOLD_SOLID_BREP('',#629);
#629 = CLOSED_SHELL('',(#630,#670,#701,#732,#754,#766));
#630 = ADVANCED_FACE('',(#631),#665,.F.);
#631 = FACE_BOUND('',#632,.F.);
#632 = EDGE_LOOP('',(#633,#643,#651,#659));
#633 = ORIENTED_EDGE('',*,*,#634,.T.);
#634 = EDGE_CURVE('',#635,#637,#639,.T.);
#635 = VERTEX_POINT('',#636);
#636 = CARTESIAN_POINT('',(0.79,0.25,0.));
#637 = VERTEX_POINT('',#638);
#638 = CARTESIAN_POINT('',(0.79,0.25,1.55));
#639 = LINE('',#640,#641);
#640 = CARTESIAN_POINT('',(0.79,0.25,0.));
#641 = VECTOR('',#642,1.);
#642 = DIRECTION('',(0.,0.,1.));
#643 = ORIENTED_EDGE('',*,*,#644,.T.);
#644 = EDGE_CURVE('',#637,#645,#647,.T.);
#645 = VERTEX_POINT('',#646);
#646 = CARTESIAN_POINT('',(0.79,-0.25,1.55));
#647 = LINE('',#648,#649);
#648 = CARTESIAN_POINT('',(0.79,0.25,1.55));
#649 = VECTOR('',#650,1.);
#650 = DIRECTION('',(0.,-1.,0.));
#651 = ORIENTED_EDGE('',*,*,#652,.F.);
#652 = EDGE_CURVE('',#653,#645,#655,.T.);
#653 = VERTEX_POINT('',#654);
#654 = CARTESIAN_POINT('',(0.79,-0.25,0.));
#655 = LINE('',#656,#657);
#656 = CARTESIAN_POINT('',(0.79,-0.25,0.));
#657 = VECTOR('',#658,1.);
#658 = DIRECTION('',(0.,0.,1.));
#659 = ORIENTED_EDGE('',*,*,#660,.F.);
#660 = EDGE_CURVE('',#635,#653,#661,.T.);
#661 = LINE('',#662,#663);
#662 = CARTESIAN_POINT('',(0.79,0.25,0.));
#663 = VECTOR('',#664,1.);
#664 = DIRECTION('',(0.,-1.,0.));
#665 = PLANE('',#666);
#666 = AXIS2_PLACEMENT_3D('',#667,#668,#669);
#667 = CARTESIAN_POINT('',(0.79,0.25,0.));
#668 = DIRECTION('',(1.,0.,-0.));
#669 = DIRECTION('',(0.,-1.,0.));
#670 = ADVANCED_FACE('',(#671),#696,.F.);
#671 = FACE_BOUND('',#672,.F.);
#672 = EDGE_LOOP('',(#673,#674,#682,#690));
#673 = ORIENTED_EDGE('',*,*,#652,.T.);
#674 = ORIENTED_EDGE('',*,*,#675,.T.);
#675 = EDGE_CURVE('',#645,#676,#678,.T.);
#676 = VERTEX_POINT('',#677);
#677 = CARTESIAN_POINT('',(2.79,-0.25,1.55));
#678 = LINE('',#679,#680);
#679 = CARTESIAN_POINT('',(0.79,-0.25,1.55));
#680 = VECTOR('',#681,1.);
#681 = DIRECTION('',(1.,0.,0.));
#682 = ORIENTED_EDGE('',*,*,#683,.F.);
#683 = EDGE_CURVE('',#684,#676,#686,.T.);
#684 = VERTEX_POINT('',#685);
#685 = CARTESIAN_POINT('',(2.79,-0.25,0.));
#686 = LINE('',#687,#688);
#687 = CARTESIAN_POINT('',(2.79,-0.25,0.));
#688 = VECTOR('',#689,1.);
#689 = DIRECTION('',(0.,0.,1.));
#690 = ORIENTED_EDGE('',*,*,#691,.F.);
#691 = EDGE_CURVE('',#653,#684,#692,.T.);
#692 = LINE('',#693,#694);
#693 = CARTESIAN_POINT('',(0.79,-0.25,0.));
#694 = VECTOR('',#695,1.);
#695 = DIRECTION('',(1.,0.,0.));
#696 = PLANE('',#697);
#697 = AXIS2_PLACEMENT_3D('',#698,#699,#700);
#698 = CARTESIAN_POINT('',(0.79,-0.25,0.));
#699 = DIRECTION('',(0.,1.,0.));
#700 = DIRECTION('',(1.,0.,0.));
#701 = ADVANCED_FACE('',(#702),#727,.F.);
#702 = FACE_BOUND('',#703,.F.);
#703 = EDGE_LOOP('',(#704,#705,#713,#721));
#704 = ORIENTED_EDGE('',*,*,#683,.T.);
#705 = ORIENTED_EDGE('',*,*,#706,.T.);
#706 = EDGE_CURVE('',#676,#707,#709,.T.);
#707 = VERTEX_POINT('',#708);
#708 = CARTESIAN_POINT('',(2.79,0.25,1.55));
#709 = LINE('',#710,#711);
#710 = CARTESIAN_POINT('',(2.79,-0.25,1.55));
#711 = VECTOR('',#712,1.);
#712 = DIRECTION('',(0.,1.,0.));
#713 = ORIENTED_EDGE('',*,*,#714,.F.);
#714 = EDGE_CURVE('',#715,#707,#717,.T.);
#715 = VERTEX_POINT('',#716);
#716 = CARTESIAN_POINT('',(2.79,0.25,0.));
#717 = LINE('',#718,#719);
#718 = CARTESIAN_POINT('',(2.79,0.25,0.));
#719 = VECTOR('',#720,1.);
#720 = DIRECTION('',(0.,0.,1.));
#721 = ORIENTED_EDGE('',*,*,#722,.F.);
#722 = EDGE_CURVE('',#684,#715,#723,.T.);
#723 = LINE('',#724,#725);
#724 = CARTESIAN_POINT('',(2.79,-0.25,0.));
#725 = VECTOR('',#726,1.);
#726 = DIRECTION('',(0.,1.,0.));
#727 = PLANE('',#728);
#728 = AXIS2_PLACEMENT_3D('',#729,#730,#731);
#729 = CARTESIAN_POINT('',(2.79,-0.25,0.));
#730 = DIRECTION('',(-1.,0.,0.));
#731 = DIRECTION('',(0.,1.,0.));
#732 = ADVANCED_FACE('',(#733),#749,.F.);
#733 = FACE_BOUND('',#734,.F.);
#734 = EDGE_LOOP('',(#735,#736,#742,#743));
#735 = ORIENTED_EDGE('',*,*,#714,.T.);
#736 = ORIENTED_EDGE('',*,*,#737,.T.);
#737 = EDGE_CURVE('',#707,#637,#738,.T.);
#738 = LINE('',#739,#740);
#739 = CARTESIAN_POINT('',(2.79,0.25,1.55));
#740 = VECTOR('',#741,1.);
#741 = DIRECTION('',(-1.,0.,0.));
#742 = ORIENTED_EDGE('',*,*,#634,.F.);
#743 = ORIENTED_EDGE('',*,*,#744,.F.);
#744 = EDGE_CURVE('',#715,#635,#745,.T.);
#745 = LINE('',#746,#747);
#746 = CARTESIAN_POINT('',(2.79,0.25,0.));
#747 = VECTOR('',#748,1.);
#748 = DIRECTION('',(-1.,0.,0.));
#749 = PLANE('',#750);
#750 = AXIS2_PLACEMENT_3D('',#751,#752,#753);
#751 = CARTESIAN_POINT('',(2.79,0.25,0.));
#752 = DIRECTION('',(0.,-1.,0.));
#753 = DIRECTION('',(-1.,0.,0.));
#754 = ADVANCED_FACE('',(#755),#761,.F.);
#755 = FACE_BOUND('',#756,.F.);
#756 = EDGE_LOOP('',(#757,#758,#759,#760));
#757 = ORIENTED_EDGE('',*,*,#660,.T.);
#758 = ORIENTED_EDGE('',*,*,#691,.T.);
#759 = ORIENTED_EDGE('',*,*,#722,.T.);
#760 = ORIENTED_EDGE('',*,*,#744,.T.);
#761 = PLANE('',#762);
#762 = AXIS2_PLACEMENT_3D('',#763,#764,#765);
#763 = CARTESIAN_POINT('',(0.,0.,0.));
#764 = DIRECTION('',(0.,0.,1.));
#765 = DIRECTION('',(1.,0.,-0.));
#766 = ADVANCED_FACE('',(#767),#773,.T.);
#767 = FACE_BOUND('',#768,.T.);
#768 = EDGE_LOOP('',(#769,#770,#771,#772));
#769 = ORIENTED_EDGE('',*,*,#644,.T.);
#770 = ORIENTED_EDGE('',*,*,#675,.T.);
#771 = ORIENTED_EDGE('',*,*,#706,.T.);
#772 = ORIENTED_EDGE('',*,*,#737,.T.);
#773 = PLANE('',#774);
#774 = AXIS2_PLACEMENT_3D('',#775,#776,#777);
#775 = CARTESIAN_POINT('',(0.,0.,1.55));
#776 = DIRECTION('',(0.,0.,1.));
#777 = DIRECTION('',(1.,0.,-0.));
#778 = MANIFOLD_SOLID_BREP('',#779);
#779 = CLOSED_SHELL('',(#780,#820,#851,#882,#904,#916));
#780 = ADVANCED_FACE('',(#781),#815,.F.);
#781 = FACE_BOUND('',#782,.F.);
#782 = EDGE_LOOP('',(#783,#793,#801,#809));
#783 = ORIENTED_EDGE('',*,*,#784,.T.);
#784 = EDGE_CURVE('',#785,#787,#789,.T.);
#785 = VERTEX_POINT('',#786);
#786 = CARTESIAN_POINT('',(-2.79,0.25,0.));
#787 = VERTEX_POINT('',#788);
#788 = CARTESIAN_POINT('',(-2.79,0.25,1.55));
#789 = LINE('',#790,#791);
#790 = CARTESIAN_POINT('',(-2.79,0.25,0.));
#791 = VECTOR('',#792,1.);
#792 = DIRECTION('',(0.,0.,1.));
#793 = ORIENTED_EDGE('',*,*,#794,.T.);
#794 = EDGE_CURVE('',#787,#795,#797,.T.);
#795 = VERTEX_POINT('',#796);
#796 = CARTESIAN_POINT('',(-2.79,-0.25,1.55));
#797 = LINE('',#798,#799);
#798 = CARTESIAN_POINT('',(-2.79,0.25,1.55));
#799 = VECTOR('',#800,1.);
#800 = DIRECTION('',(0.,-1.,0.));
#801 = ORIENTED_EDGE('',*,*,#802,.F.);
#802 = EDGE_CURVE('',#803,#795,#805,.T.);
#803 = VERTEX_POINT('',#804);
#804 = CARTESIAN_POINT('',(-2.79,-0.25,0.));
#805 = LINE('',#806,#807);
#806 = CARTESIAN_POINT('',(-2.79,-0.25,0.));
#807 = VECTOR('',#808,1.);
#808 = DIRECTION('',(0.,0.,1.));
#809 = ORIENTED_EDGE('',*,*,#810,.F.);
#810 = EDGE_CURVE('',#785,#803,#811,.T.);
#811 = LINE('',#812,#813);
#812 = CARTESIAN_POINT('',(-2.79,0.25,0.));
#813 = VECTOR('',#814,1.);
#814 = DIRECTION('',(0.,-1.,0.));
#815 = PLANE('',#816);
#816 = AXIS2_PLACEMENT_3D('',#817,#818,#819);
#817 = CARTESIAN_POINT('',(-2.79,0.25,0.));
#818 = DIRECTION('',(1.,0.,-0.));
#819 = DIRECTION('',(0.,-1.,0.));
#820 = ADVANCED_FACE('',(#821),#846,.F.);
#821 = FACE_BOUND('',#822,.F.);
#822 = EDGE_LOOP('',(#823,#824,#832,#840));
#823 = ORIENTED_EDGE('',*,*,#802,.T.);
#824 = ORIENTED_EDGE('',*,*,#825,.T.);
#825 = EDGE_CURVE('',#795,#826,#828,.T.);
#826 = VERTEX_POINT('',#827);
#827 = CARTESIAN_POINT('',(-0.79,-0.25,1.55));
#828 = LINE('',#829,#830);
#829 = CARTESIAN_POINT('',(-2.79,-0.25,1.55));
#830 = VECTOR('',#831,1.);
#831 = DIRECTION('',(1.,0.,0.));
#832 = ORIENTED_EDGE('',*,*,#833,.F.);
#833 = EDGE_CURVE('',#834,#826,#836,.T.);
#834 = VERTEX_POINT('',#835);
#835 = CARTESIAN_POINT('',(-0.79,-0.25,0.));
#836 = LINE('',#837,#838);
#837 = CARTESIAN_POINT('',(-0.79,-0.25,0.));
#838 = VECTOR('',#839,1.);
#839 = DIRECTION('',(0.,0.,1.));
#840 = ORIENTED_EDGE('',*,*,#841,.F.);
#841 = EDGE_CURVE('',#803,#834,#842,.T.);
#842 = LINE('',#843,#844);
#843 = CARTESIAN_POINT('',(-2.79,-0.25,0.));
#844 = VECTOR('',#845,1.);
#845 = DIRECTION('',(1.,0.,0.));
#846 = PLANE('',#847);
#847 = AXIS2_PLACEMENT_3D('',#848,#849,#850);
#848 = CARTESIAN_POINT('',(-2.79,-0.25,0.));
#849 = DIRECTION('',(0.,1.,0.));
#850 = DIRECTION('',(1.,0.,0.));
#851 = ADVANCED_FACE('',(#852),#877,.F.);
#852 = FACE_BOUND('',#853,.F.);
#853 = EDGE_LOOP('',(#854,#855,#863,#871));
#854 = ORIENTED_EDGE('',*,*,#833,.T.);
#855 = ORIENTED_EDGE('',*,*,#856,.T.);
#856 = EDGE_CURVE('',#826,#857,#859,.T.);
#857 = VERTEX_POINT('',#858);
#858 = CARTESIAN_POINT('',(-0.79,0.25,1.55));
#859 = LINE('',#860,#861);
#860 = CARTESIAN_POINT('',(-0.79,-0.25,1.55));
#861 = VECTOR('',#862,1.);
#862 = DIRECTION('',(0.,1.,0.));
#863 = ORIENTED_EDGE('',*,*,#864,.F.);
#864 = EDGE_CURVE('',#865,#857,#867,.T.);
#865 = VERTEX_POINT('',#866);
#866 = CARTESIAN_POINT('',(-0.79,0.25,0.));
#867 = LINE('',#868,#869);
#868 = CARTESIAN_POINT('',(-0.79,0.25,0.));
#869 = VECTOR('',#870,1.);
#870 = DIRECTION('',(0.,0.,1.));
#871 = ORIENTED_EDGE('',*,*,#872,.F.);
#872 = EDGE_CURVE('',#834,#865,#873,.T.);
#873 = LINE('',#874,#875);
#874 = CARTESIAN_POINT('',(-0.79,-0.25,0.));
#875 = VECTOR('',#876,1.);
#876 = DIRECTION('',(0.,1.,0.));
#877 = PLANE('',#878);
#878 = AXIS2_PLACEMENT_3D('',#879,#880,#881);
#879 = CARTESIAN_POINT('',(-0.79,-0.25,0.));
#880 = DIRECTION('',(-1.,0.,0.));
#881 = DIRECTION('',(0.,1.,0.));
#882 = ADVANCED_FACE('',(#883),#899,.F.);
#883 = FACE_BOUND('',#884,.F.);
#884 = EDGE_LOOP('',(#885,#886,#892,#893));
#885 = ORIENTED_EDGE('',*,*,#864,.T.);
#886 = ORIENTED_EDGE('',*,*,#887,.T.);
#887 = EDGE_CURVE('',#857,#787,#888,.T.);
#888 = LINE('',#889,#890);
#889 = CARTESIAN_POINT('',(-0.79,0.25,1.55));
#890 = VECTOR('',#891,1.);
#891 = DIRECTION('',(-1.,0.,0.));
#892 = ORIENTED_EDGE('',*,*,#784,.F.);
#893 = ORIENTED_EDGE('',*,*,#894,.F.);
#894 = EDGE_CURVE('',#865,#785,#895,.T.);
#895 = LINE('',#896,#897);
#896 = CARTESIAN_POINT('',(-0.79,0.25,0.));
#897 = VECTOR('',#898,1.);
#898 = DIRECTION('',(-1.,0.,0.));
#899 = PLANE('',#900);
#900 = AXIS2_PLACEMENT_3D('',#901,#902,#903);
#901 = CARTESIAN_POINT('',(-0.79,0.25,0.));
#902 = DIRECTION('',(0.,-1.,0.));
#903 = DIRECTION('',(-1.,0.,0.));
#904 = ADVANCED_FACE('',(#905),#911,.F.);
#905 = FACE_BOUND('',#906,.F.);
#906 = EDGE_LOOP('',(#907,#908,#909,#910));
#907 = ORIENTED_EDGE('',*,*,#810,.T.);
#908 = ORIENTED_EDGE('',*,*,#841,.T.);
#909 = ORIENTED_EDGE('',*,*,#872,.T.);
#910 = ORIENTED_EDGE('',*,*,#894,.T.);
#911 = PLANE('',#912);
#912 = AXIS2_PLACEMENT_3D('',#913,#914,#915);
#913 = CARTESIAN_POINT('',(0.,0.,0.));
#914 = DIRECTION('',(0.,0.,1.));
#915 = DIRECTION('',(1.,0.,-0.));
#916 = ADVANCED_FACE('',(#917),#923,.T.);
#917 = FACE_BOUND('',#918,.T.);
#918 = EDGE_LOOP('',(#919,#920,#921,#922));
#919 = ORIENTED_EDGE('',*,*,#794,.T.);
#920 = ORIENTED_EDGE('',*,*,#825,.T.);
#921 = ORIENTED_EDGE('',*,*,#856,.T.);
#922 = ORIENTED_EDGE('',*,*,#887,.T.);
#923 = PLANE('',#924);
#924 = AXIS2_PLACEMENT_3D('',#925,#926,#927);
#925 = CARTESIAN_POINT('',(0.,0.,1.55));
#926 = DIRECTION('',(0.,0.,1.));
#927 = DIRECTION('',(1.,0.,-0.));
#928 = MANIFOLD_SOLID_BREP('',#929);
#929 = CLOSED_SHELL('',(#930,#970,#1001,#1032,#1054,#1066));
#930 = ADVANCED_FACE('',(#931),#965,.F.);
#931 = FACE_BOUND('',#932,.F.);
#932 = EDGE_LOOP('',(#933,#943,#951,#959));
#933 = ORIENTED_EDGE('',*,*,#934,.T.);
#934 = EDGE_CURVE('',#935,#937,#939,.T.);
#935 = VERTEX_POINT('',#936);
#936 = CARTESIAN_POINT('',(-0.25,0.25,0.));
#937 = VERTEX_POINT('',#938);
#938 = CARTESIAN_POINT('',(-0.25,0.25,1.55));
#939 = LINE('',#940,#941);
#940 = CARTESIAN_POINT('',(-0.25,0.25,0.));
#941 = VECTOR('',#942,1.);
#942 = DIRECTION('',(0.,0.,1.));
#943 = ORIENTED_EDGE('',*,*,#944,.T.);
#944 = EDGE_CURVE('',#937,#945,#947,.T.);
#945 = VERTEX_POINT('',#946);
#946 = CARTESIAN_POINT('',(-0.25,-0.25,1.55));
#947 = LINE('',#948,#949);
#948 = CARTESIAN_POINT('',(-0.25,0.25,1.55));
#949 = VECTOR('',#950,1.);
#950 = DIRECTION('',(0.,-1.,0.));
#951 = ORIENTED_EDGE('',*,*,#952,.F.);
#952 = EDGE_CURVE('',#953,#945,#955,.T.);
#953 = VERTEX_POINT('',#954);
#954 = CARTESIAN_POINT('',(-0.25,-0.25,0.));
#955 = LINE('',#956,#957);
#956 = CARTESIAN_POINT('',(-0.25,-0.25,0.));
#957 = VECTOR('',#958,1.);
#958 = DIRECTION('',(0.,0.,1.));
#959 = ORIENTED_EDGE('',*,*,#960,.F.);
#960 = EDGE_CURVE('',#935,#953,#961,.T.);
#961 = LINE('',#962,#963);
#962 = CARTESIAN_POINT('',(-0.25,0.25,0.));
#963 = VECTOR('',#964,1.);
#964 = DIRECTION('',(0.,-1.,0.));
#965 = PLANE('',#966);
#966 = AXIS2_PLACEMENT_3D('',#967,#968,#969);
#967 = CARTESIAN_POINT('',(-0.25,0.25,0.));
#968 = DIRECTION('',(1.,0.,-0.));
#969 = DIRECTION('',(0.,-1.,0.));
#970 = ADVANCED_FACE('',(#971),#996,.F.);
#971 = FACE_BOUND('',#972,.F.);
#972 = EDGE_LOOP('',(#973,#974,#982,#990));
#973 = ORIENTED_EDGE('',*,*,#952,.T.);
#974 = ORIENTED_EDGE('',*,*,#975,.T.);
#975 = EDGE_CURVE('',#945,#976,#978,.T.);
#976 = VERTEX_POINT('',#977);
#977 = CARTESIAN_POINT('',(0.25,-0.25,1.55));
#978 = LINE('',#979,#980);
#979 = CARTESIAN_POINT('',(-0.25,-0.25,1.55));
#980 = VECTOR('',#981,1.);
#981 = DIRECTION('',(1.,0.,0.));
#982 = ORIENTED_EDGE('',*,*,#983,.F.);
#983 = EDGE_CURVE('',#984,#976,#986,.T.);
#984 = VERTEX_POINT('',#985);
#985 = CARTESIAN_POINT('',(0.25,-0.25,0.));
#986 = LINE('',#987,#988);
#987 = CARTESIAN_POINT('',(0.25,-0.25,0.));
#988 = VECTOR('',#989,1.);
#989 = DIRECTION('',(0.,0.,1.));
#990 = ORIENTED_EDGE('',*,*,#991,.F.);
#991 = EDGE_CURVE('',#953,#984,#992,.T.);
#992 = LINE('',#993,#994);
#993 = CARTESIAN_POINT('',(-0.25,-0.25,0.));
#994 = VECTOR('',#995,1.);
#995 = DIRECTION('',(1.,0.,0.));
#996 = PLANE('',#997);
#997 = AXIS2_PLACEMENT_3D('',#998,#999,#1000);
#998 = CARTESIAN_POINT('',(-0.25,-0.25,0.));
#999 = DIRECTION('',(0.,1.,0.));
#1000 = DIRECTION('',(1.,0.,0.));
#1001 = ADVANCED_FACE('',(#1002),#1027,.F.);
#1002 = FACE_BOUND('',#1003,.F.);
#1003 = EDGE_LOOP('',(#1004,#1005,#1013,#1021));
#1004 = ORIENTED_EDGE('',*,*,#983,.T.);
#1005 = ORIENTED_EDGE('',*,*,#1006,.T.);
#1006 = EDGE_CURVE('',#976,#1007,#1009,.T.);
#1007 = VERTEX_POINT('',#1008);
#1008 = CARTESIAN_POINT('',(0.25,0.25,1.55));
#1009 = LINE('',#1010,#1011);
#1010 = CARTESIAN_POINT('',(0.25,-0.25,1.55));
#1011 = VECTOR('',#1012,1.);
#1012 = DIRECTION('',(0.,1.,0.));
#1013 = ORIENTED_EDGE('',*,*,#1014,.F.);
#1014 = EDGE_CURVE('',#1015,#1007,#1017,.T.);
#1015 = VERTEX_POINT('',#1016);
#1016 = CARTESIAN_POINT('',(0.25,0.25,0.));
#1017 = LINE('',#1018,#1019);
#1018 = CARTESIAN_POINT('',(0.25,0.25,0.));
#1019 = VECTOR('',#1020,1.);
#1020 = DIRECTION('',(0.,0.,1.));
#1021 = ORIENTED_EDGE('',*,*,#1022,.F.);
#1022 = EDGE_CURVE('',#984,#1015,#1023,.T.);
#1023 = LINE('',#1024,#1025);
#1024 = CARTESIAN_POINT('',(0.25,-0.25,0.));
#1025 = VECTOR('',#1026,1.);
#1026 = DIRECTION('',(0.,1.,0.));
#1027 = PLANE('',#1028);
#1028 = AXIS2_PLACEMENT_3D('',#1029,#1030,#1031);
#1029 = CARTESIAN_POINT('',(0.25,-0.25,0.));
#1030 = DIRECTION('',(-1.,0.,0.));
#1031 = DIRECTION('',(0.,1.,0.));
#1032 = ADVANCED_FACE('',(#1033),#1049,.F.);
#1033 = FACE_BOUND('',#1034,.F.);
#1034 = EDGE_LOOP('',(#1035,#1036,#1042,#1043));
#1035 = ORIENTED_EDGE('',*,*,#1014,.T.);
#1036 = ORIENTED_EDGE('',*,*,#1037,.T.);
#1037 = EDGE_CURVE('',#1007,#937,#1038,.T.);
#1038 = LINE('',#1039,#1040);
#1039 = CARTESIAN_POINT('',(0.25,0.25,1.55));
#1040 = VECTOR('',#1041,1.);
#1041 = DIRECTION('',(-1.,0.,0.));
#1042 = ORIENTED_EDGE('',*,*,#934,.F.);
#1043 = ORIENTED_EDGE('',*,*,#1044,.F.);
#1044 = EDGE_CURVE('',#1015,#935,#1045,.T.);
#1045 = LINE('',#1046,#1047);
#1046 = CARTESIAN_POINT('',(0.25,0.25,0.));
#1047 = VECTOR('',#1048,1.);
#1048 = DIRECTION('',(-1.,0.,0.));
#1049 = PLANE('',#1050);
#1050 = AXIS2_PLACEMENT_3D('',#1051,#1052,#1053);
#1051 = CARTESIAN_POINT('',(0.25,0.25,0.));
#1052 = DIRECTION('',(0.,-1.,0.));
#1053 = DIRECTION('',(-1.,0.,0.));
#1054 = ADVANCED_FACE('',(#1055),#1061,.F.);
#1055 = FACE_BOUND('',#1056,.F.);
#1056 = EDGE_LOOP('',(#1057,#1058,#1059,#1060));
#1057 = ORIENTED_EDGE('',*,*,#960,.T.);
#1058 = ORIENTED_EDGE('',*,*,#991,.T.);
#1059 = ORIENTED_EDGE('',*,*,#1022,.T.);
#1060 = ORIENTED_EDGE('',*,*,#1044,.T.);
#1061 = PLANE('',#1062);
#1062 = AXIS2_PLACEMENT_3D('',#1063,#1064,#1065);
#1063 = CARTESIAN_POINT('',(0.,0.,0.));
#1064 = DIRECTION('',(0.,0.,1.));
#1065 = DIRECTION('',(1.,0.,-0.));
#1066 = ADVANCED_FACE('',(#1067),#1073,.T.);
#1067 = FACE_BOUND('',#1068,.T.);
#1068 = EDGE_LOOP('',(#1069,#1070,#1071,#1072));
#1069 = ORIENTED_EDGE('',*,*,#944,.T.);
#1070 = ORIENTED_EDGE('',*,*,#975,.T.);
#1071 = ORIENTED_EDGE('',*,*,#1006,.T.);
#1072 = ORIENTED_EDGE('',*,*,#1037,.T.);
#1073 = PLANE('',#1074);
#1074 = AXIS2_PLACEMENT_3D('',#1075,#1076,#1077);
#1075 = CARTESIAN_POINT('',(0.,0.,1.55));
#1076 = DIRECTION('',(0.,0.,1.));
#1077 = DIRECTION('',(1.,0.,-0.));
#1078 = ( GEOMETRIC_REPRESENTATION_CONTEXT(3) 
GLOBAL_UNCERTAINTY_ASSIGNED_CONTEXT((#1082)) 
GLOBAL_UNIT_ASSIGNED_CONTEXT((#1079,#1080,#1081)) REPRESENTATION_CONTEXT
('Context #1','3D Context with UNIT and UNCERTAINTY') );
#1079 = ( LENGTH_UNIT() NAMED_UNIT(*) SI_UNIT(.MILLI.,.METRE.) );
#1080 = ( NAMED_UNIT(*) PLANE_ANGLE_UNIT() SI_UNIT($,.RADIAN.) );
#1081 = ( NAMED_UNIT(*) SI_UNIT($,.STERADIAN.) SOLID_ANGLE_UNIT() );
#1082 = UNCERTAINTY_MEASURE_WITH_UNIT(LENGTH_MEASURE(1.E-07),#1079,
  'distance_accuracy_value','confusion accuracy');
#1083 = CONTEXT_DEPENDENT_SHAPE_REPRESENTATION(#1084,#1086);
#1084 = ( REPRESENTATION_RELATIONSHIP('','',#627,#250) 
REPRESENTATION_RELATIONSHIP_WITH_TRANSFORMATION(#1085) 
SHAPE_REPRESENTATION_RELATIONSHIP() );
#1085 = ITEM_DEFINED_TRANSFORMATION('','',#11,#259);
#1086 = PRODUCT_DEFINITION_SHAPE('Placement','Placement of an item',
  #1087);
#1087 = NEXT_ASSEMBLY_USAGE_OCCURRENCE('39','StandOff','',#245,#622,$);
#1088 = PRODUCT_RELATED_PRODUCT_CATEGORY('part',$,(#624));
#1089 = SHAPE_DEFINITION_REPRESENTATION(#1090,#1096);
#1090 = PRODUCT_DEFINITION_SHAPE('','',#1091);
#1091 = PRODUCT_DEFINITION('design','',#1092,#1095);
#1092 = PRODUCT_DEFINITION_FORMATION('','',#1093);
#1093 = PRODUCT('PinC','PinC','',(#1094));
#1094 = PRODUCT_CONTEXT('',#2,'mechanical');
#1095 = PRODUCT_DEFINITION_CONTEXT('part definition',#2,'design');
#1096 = ADVANCED_BREP_SHAPE_REPRESENTATION('',(#11,#1097),#1247);
#1097 = MANIFOLD_SOLID_BREP('',#1098);
#1098 = CLOSED_SHELL('',(#1099,#1139,#1170,#1201,#1223,#1235));
#1099 = ADVANCED_FACE('',(#1100),#1134,.T.);
#1100 = FACE_BOUND('',#1101,.T.);
#1101 = EDGE_LOOP('',(#1102,#1112,#1120,#1128));
#1102 = ORIENTED_EDGE('',*,*,#1103,.T.);
#1103 = EDGE_CURVE('',#1104,#1106,#1108,.T.);
#1104 = VERTEX_POINT('',#1105);
#1105 = CARTESIAN_POINT('',(-0.25,-0.25,0.));
#1106 = VERTEX_POINT('',#1107);
#1107 = CARTESIAN_POINT('',(-0.25,-0.25,-7.));
#1108 = LINE('',#1109,#1110);
#1109 = CARTESIAN_POINT('',(-0.25,-0.25,0.));
#1110 = VECTOR('',#1111,1.);
#1111 = DIRECTION('',(-0.,-0.,-1.));
#1112 = ORIENTED_EDGE('',*,*,#1113,.T.);
#1113 = EDGE_CURVE('',#1106,#1114,#1116,.T.);
#1114 = VERTEX_POINT('',#1115);
#1115 = CARTESIAN_POINT('',(0.25,-0.25,-7.));
#1116 = LINE('',#1117,#1118);
#1117 = CARTESIAN_POINT('',(-0.25,-0.25,-7.));
#1118 = VECTOR('',#1119,1.);
#1119 = DIRECTION('',(1.,0.,0.));
#1120 = ORIENTED_EDGE('',*,*,#1121,.F.);
#1121 = EDGE_CURVE('',#1122,#1114,#1124,.T.);
#1122 = VERTEX_POINT('',#1123);
#1123 = CARTESIAN_POINT('',(0.25,-0.25,0.));
#1124 = LINE('',#1125,#1126);
#1125 = CARTESIAN_POINT('',(0.25,-0.25,0.));
#1126 = VECTOR('',#1127,1.);
#1127 = DIRECTION('',(-0.,-0.,-1.));
#1128 = ORIENTED_EDGE('',*,*,#1129,.F.);
#1129 = EDGE_CURVE('',#1104,#1122,#1130,.T.);
#1130 = LINE('',#1131,#1132);
#1131 = CARTESIAN_POINT('',(-0.25,-0.25,0.));
#1132 = VECTOR('',#1133,1.);
#1133 = DIRECTION('',(1.,0.,0.));
#1134 = PLANE('',#1135);
#1135 = AXIS2_PLACEMENT_3D('',#1136,#1137,#1138);
#1136 = CARTESIAN_POINT('',(-0.25,-0.25,0.));
#1137 = DIRECTION('',(0.,-1.,0.));
#1138 = DIRECTION('',(1.,0.,0.));
#1139 = ADVANCED_FACE('',(#1140),#1165,.T.);
#1140 = FACE_BOUND('',#1141,.T.);
#1141 = EDGE_LOOP('',(#1142,#1143,#1151,#1159));
#1142 = ORIENTED_EDGE('',*,*,#1121,.T.);
#1143 = ORIENTED_EDGE('',*,*,#1144,.T.);
#1144 = EDGE_CURVE('',#1114,#1145,#1147,.T.);
#1145 = VERTEX_POINT('',#1146);
#1146 = CARTESIAN_POINT('',(0.25,0.25,-7.));
#1147 = LINE('',#1148,#1149);
#1148 = CARTESIAN_POINT('',(0.25,-0.25,-7.));
#1149 = VECTOR('',#1150,1.);
#1150 = DIRECTION('',(0.,1.,0.));
#1151 = ORIENTED_EDGE('',*,*,#1152,.F.);
#1152 = EDGE_CURVE('',#1153,#1145,#1155,.T.);
#1153 = VERTEX_POINT('',#1154);
#1154 = CARTESIAN_POINT('',(0.25,0.25,0.));
#1155 = LINE('',#1156,#1157);
#1156 = CARTESIAN_POINT('',(0.25,0.25,0.));
#1157 = VECTOR('',#1158,1.);
#1158 = DIRECTION('',(-0.,-0.,-1.));
#1159 = ORIENTED_EDGE('',*,*,#1160,.F.);
#1160 = EDGE_CURVE('',#1122,#1153,#1161,.T.);
#1161 = LINE('',#1162,#1163);
#1162 = CARTESIAN_POINT('',(0.25,-0.25,0.));
#1163 = VECTOR('',#1164,1.);
#1164 = DIRECTION('',(0.,1.,0.));
#1165 = PLANE('',#1166);
#1166 = AXIS2_PLACEMENT_3D('',#1167,#1168,#1169);
#1167 = CARTESIAN_POINT('',(0.25,-0.25,0.));
#1168 = DIRECTION('',(1.,0.,0.));
#1169 = DIRECTION('',(-0.,1.,0.));
#1170 = ADVANCED_FACE('',(#1171),#1196,.T.);
#1171 = FACE_BOUND('',#1172,.T.);
#1172 = EDGE_LOOP('',(#1173,#1174,#1182,#1190));
#1173 = ORIENTED_EDGE('',*,*,#1152,.T.);
#1174 = ORIENTED_EDGE('',*,*,#1175,.T.);
#1175 = EDGE_CURVE('',#1145,#1176,#1178,.T.);
#1176 = VERTEX_POINT('',#1177);
#1177 = CARTESIAN_POINT('',(-0.25,0.25,-7.));
#1178 = LINE('',#1179,#1180);
#1179 = CARTESIAN_POINT('',(0.25,0.25,-7.));
#1180 = VECTOR('',#1181,1.);
#1181 = DIRECTION('',(-1.,0.,0.));
#1182 = ORIENTED_EDGE('',*,*,#1183,.F.);
#1183 = EDGE_CURVE('',#1184,#1176,#1186,.T.);
#1184 = VERTEX_POINT('',#1185);
#1185 = CARTESIAN_POINT('',(-0.25,0.25,0.));
#1186 = LINE('',#1187,#1188);
#1187 = CARTESIAN_POINT('',(-0.25,0.25,0.));
#1188 = VECTOR('',#1189,1.);
#1189 = DIRECTION('',(-0.,-0.,-1.));
#1190 = ORIENTED_EDGE('',*,*,#1191,.F.);
#1191 = EDGE_CURVE('',#1153,#1184,#1192,.T.);
#1192 = LINE('',#1193,#1194);
#1193 = CARTESIAN_POINT('',(0.25,0.25,0.));
#1194 = VECTOR('',#1195,1.);
#1195 = DIRECTION('',(-1.,0.,0.));
#1196 = PLANE('',#1197);
#1197 = AXIS2_PLACEMENT_3D('',#1198,#1199,#1200);
#1198 = CARTESIAN_POINT('',(0.25,0.25,0.));
#1199 = DIRECTION('',(0.,1.,0.));
#1200 = DIRECTION('',(-1.,0.,0.));
#1201 = ADVANCED_FACE('',(#1202),#1218,.T.);
#1202 = FACE_BOUND('',#1203,.T.);
#1203 = EDGE_LOOP('',(#1204,#1205,#1211,#1212));
#1204 = ORIENTED_EDGE('',*,*,#1183,.T.);
#1205 = ORIENTED_EDGE('',*,*,#1206,.T.);
#1206 = EDGE_CURVE('',#1176,#1106,#1207,.T.);
#1207 = LINE('',#1208,#1209);
#1208 = CARTESIAN_POINT('',(-0.25,0.25,-7.));
#1209 = VECTOR('',#1210,1.);
#1210 = DIRECTION('',(0.,-1.,0.));
#1211 = ORIENTED_EDGE('',*,*,#1103,.F.);
#1212 = ORIENTED_EDGE('',*,*,#1213,.F.);
#1213 = EDGE_CURVE('',#1184,#1104,#1214,.T.);
#1214 = LINE('',#1215,#1216);
#1215 = CARTESIAN_POINT('',(-0.25,0.25,0.));
#1216 = VECTOR('',#1217,1.);
#1217 = DIRECTION('',(0.,-1.,0.));
#1218 = PLANE('',#1219);
#1219 = AXIS2_PLACEMENT_3D('',#1220,#1221,#1222);
#1220 = CARTESIAN_POINT('',(-0.25,0.25,0.));
#1221 = DIRECTION('',(-1.,0.,0.));
#1222 = DIRECTION('',(0.,-1.,0.));
#1223 = ADVANCED_FACE('',(#1224),#1230,.T.);
#1224 = FACE_BOUND('',#1225,.T.);
#1225 = EDGE_LOOP('',(#1226,#1227,#1228,#1229));
#1226 = ORIENTED_EDGE('',*,*,#1129,.T.);
#1227 = ORIENTED_EDGE('',*,*,#1160,.T.);
#1228 = ORIENTED_EDGE('',*,*,#1191,.T.);
#1229 = ORIENTED_EDGE('',*,*,#1213,.T.);
#1230 = PLANE('',#1231);
#1231 = AXIS2_PLACEMENT_3D('',#1232,#1233,#1234);
#1232 = CARTESIAN_POINT('',(0.,0.,0.));
#1233 = DIRECTION('',(0.,0.,1.));
#1234 = DIRECTION('',(1.,0.,0.));
#1235 = ADVANCED_FACE('',(#1236),#1242,.F.);
#1236 = FACE_BOUND('',#1237,.F.);
#1237 = EDGE_LOOP('',(#1238,#1239,#1240,#1241));
#1238 = ORIENTED_EDGE('',*,*,#1113,.T.);
#1239 = ORIENTED_EDGE('',*,*,#1144,.T.);
#1240 = ORIENTED_EDGE('',*,*,#1175,.T.);
#1241 = ORIENTED_EDGE('',*,*,#1206,.T.);
#1242 = PLANE('',#1243);
#1243 = AXIS2_PLACEMENT_3D('',#1244,#1245,#1246);
#1244 = CARTESIAN_POINT('',(0.,0.,-7.));
#1245 = DIRECTION('',(0.,0.,1.));
#1246 = DIRECTION('',(1.,0.,0.));
#1247 = ( GEOMETRIC_REPRESENTATION_CONTEXT(3) 
GLOBAL_UNCERTAINTY_ASSIGNED_CONTEXT((#1251)) 
GLOBAL_UNIT_ASSIGNED_CONTEXT((#1248,#1249,#1250)) REPRESENTATION_CONTEXT
('Context #1','3D Context with UNIT and UNCERTAINTY') );
#1248 = ( LENGTH_UNIT() NAMED_UNIT(*) SI_UNIT(.MILLI.,.METRE.) );
#1249 = ( NAMED_UNIT(*) PLANE_ANGLE_UNIT() SI_UNIT($,.RADIAN.) );
#1250 = ( NAMED_UNIT(*) SI_UNIT($,.STERADIAN.) SOLID_ANGLE_UNIT() );
#1251 = UNCERTAINTY_MEASURE_WITH_UNIT(LENGTH_MEASURE(1.E-07),#1248,
  'distance_accuracy_value','confusion accuracy');
#1252 = CONTEXT_DEPENDENT_SHAPE_REPRESENTATION(#1253,#1255);
#1253 = ( REPRESENTATION_RELATIONSHIP('','',#1096,#250) 
REPRESENTATION_RELATIONSHIP_WITH_TRANSFORMATION(#1254) 
SHAPE_REPRESENTATION_RELATIONSHIP() );
#1254 = ITEM_DEFINED_TRANSFORMATION('','',#11,#263);
#1255 = PRODUCT_DEFINITION_SHAPE('Placement','Placement of an item',
  #1256);
#1256 = NEXT_ASSEMBLY_USAGE_OCCURRENCE('40','PinC','',#245,#1091,$);
#1257 = PRODUCT_RELATED_PRODUCT_CATEGORY('part',$,(#1093));
#1258 = SHAPE_DEFINITION_REPRESENTATION(#1259,#1265);
#1259 = PRODUCT_DEFINITION_SHAPE('','',#1260);
#1260 = PRODUCT_DEFINITION('design','',#1261,#1264);
#1261 = PRODUCT_DEFINITION_FORMATION('','',#1262);
#1262 = PRODUCT('XY-plane006','XY-plane006','',(#1263));
#1263 = PRODUCT_CONTEXT('',#2,'mechanical');
#1264 = PRODUCT_DEFINITION_CONTEXT('part definition',#2,'design');
#1265 = MANIFOLD_SURFACE_SHAPE_REPRESENTATION('',(#11),#1266);
#1266 = ( GEOMETRIC_REPRESENTATION_CONTEXT(3) 
GLOBAL_UNCERTAINTY_ASSIGNED_CONTEXT((#1270)) 
GLOBAL_UNIT_ASSIGNED_CONTEXT((#1267,#1268,#1269)) REPRESENTATION_CONTEXT
('Context #1','3D Context with UNIT and UNCERTAINTY') );
#1267 = ( LENGTH_UNIT() NAMED_UNIT(*) SI_UNIT(.MILLI.,.METRE.) );
#1268 = ( NAMED_UNIT(*) PLANE_ANGLE_UNIT() SI_UNIT($,.RADIAN.) );
#1269 = ( NAMED_UNIT(*) SI_UNIT($,.STERADIAN.) SOLID_ANGLE_UNIT() );
#1270 = UNCERTAINTY_MEASURE_WITH_UNIT(LENGTH_MEASURE(1.E-07),#1267,
  'distance_accuracy_value','confusion accuracy');
#1271 = CONTEXT_DEPENDENT_SHAPE_REPRESENTATION(#1272,#1274);
#1272 = ( REPRESENTATION_RELATIONSHIP('','',#1265,#250) 
REPRESENTATION_RELATIONSHIP_WITH_TRANSFORMATION(#1273) 
SHAPE_REPRESENTATION_RELATIONSHIP() );
#1273 = ITEM_DEFINED_TRANSFORMATION('','',#11,#267);
#1274 = PRODUCT_DEFINITION_SHAPE('Placement','Placement of an item',
  #1275);
#1275 = NEXT_ASSEMBLY_USAGE_OCCURRENCE('41','XY-plane006','',#245,#1260,
  $);
#1276 = PRODUCT_RELATED_PRODUCT_CATEGORY('part',$,(#1262));
#1277 = MECHANICAL_DESIGN_GEOMETRIC_PRESENTATION_REPRESENTATION('',(
    #1278),#232);
#1278 = STYLED_ITEM('color',(#1279),#146);
#1279 = PRESENTATION_STYLE_ASSIGNMENT((#1280,#1286));
#1280 = SURFACE_STYLE_USAGE(.BOTH.,#1281);
#1281 = SURFACE_SIDE_STYLE('',(#1282));
#1282 = SURFACE_STYLE_FILL_AREA(#1283);
#1283 = FILL_AREA_STYLE('',(#1284));
#1284 = FILL_AREA_STYLE_COLOUR('',#1285);
#1285 = DRAUGHTING_PRE_DEFINED_COLOUR('red');
#1286 = CURVE_STYLE('',#1287,POSITIVE_LENGTH_MEASURE(0.1),#1288);
#1287 = DRAUGHTING_PRE_DEFINED_CURVE_FONT('continuous');
#1288 = COLOUR_RGB('',9.803921802644E-02,9.803921802644E-02,
  9.803921802644E-02);
#1289 = MECHANICAL_DESIGN_GEOMETRIC_PRESENTATION_REPRESENTATION('',(
    #1290),#127);
#1290 = STYLED_ITEM('color',(#1291),#64);
#1291 = PRESENTATION_STYLE_ASSIGNMENT((#1292,#1297));
#1292 = SURFACE_STYLE_USAGE(.BOTH.,#1293);
#1293 = SURFACE_SIDE_STYLE('',(#1294));
#1294 = SURFACE_STYLE_FILL_AREA(#1295);
#1295 = FILL_AREA_STYLE('',(#1296));
#1296 = FILL_AREA_STYLE_COLOUR('',#1285);
#1297 = CURVE_STYLE('',#1298,POSITIVE_LENGTH_MEASURE(0.1),#1288);
#1298 = DRAUGHTING_PRE_DEFINED_CURVE_FONT('continuous');
#1299 = MECHANICAL_DESIGN_GEOMETRIC_PRESENTATION_REPRESENTATION('',(
    #1300),#440);
#1300 = STYLED_ITEM('color',(#1301),#290);
#1301 = PRESENTATION_STYLE_ASSIGNMENT((#1302,#1308));
#1302 = SURFACE_STYLE_USAGE(.BOTH.,#1303);
#1303 = SURFACE_SIDE_STYLE('',(#1304));
#1304 = SURFACE_STYLE_FILL_AREA(#1305);
#1305 = FILL_AREA_STYLE('',(#1306));
#1306 = FILL_AREA_STYLE_COLOUR('',#1307);
#1307 = COLOUR_RGB('',0.800000010877,0.800000010877,0.901960800373);
#1308 = CURVE_STYLE('',#1309,POSITIVE_LENGTH_MEASURE(0.1),#1288);
#1309 = DRAUGHTING_PRE_DEFINED_CURVE_FONT('continuous');
#1310 = MECHANICAL_DESIGN_GEOMETRIC_PRESENTATION_REPRESENTATION('',(
    #1311),#1247);
#1311 = STYLED_ITEM('color',(#1312),#1097);
#1312 = PRESENTATION_STYLE_ASSIGNMENT((#1313,#1318));
#1313 = SURFACE_STYLE_USAGE(.BOTH.,#1314);
#1314 = SURFACE_SIDE_STYLE('',(#1315));
#1315 = SURFACE_STYLE_FILL_AREA(#1316);
#1316 = FILL_AREA_STYLE('',(#1317));
#1317 = FILL_AREA_STYLE_COLOUR('',#1307);
#1318 = CURVE_STYLE('',#1319,POSITIVE_LENGTH_MEASURE(0.1),#1288);
#1319 = DRAUGHTING_PRE_DEFINED_CURVE_FONT('continuous');
#1320 = MECHANICAL_DESIGN_GEOMETRIC_PRESENTATION_REPRESENTATION('',(
    #1321,#1331,#1340),#1078);
#1321 = STYLED_ITEM('color',(#1322),#628);
#1322 = PRESENTATION_STYLE_ASSIGNMENT((#1323,#1328));
#1323 = SURFACE_STYLE_USAGE(.BOTH.,#1324);
#1324 = SURFACE_SIDE_STYLE('',(#1325));
#1325 = SURFACE_STYLE_FILL_AREA(#1326);
#1326 = FILL_AREA_STYLE('',(#1327));
#1327 = FILL_AREA_STYLE_COLOUR('',#1307);
#1328 = CURVE_STYLE('',#1329,POSITIVE_LENGTH_MEASURE(0.1),#1330);
#1329 = DRAUGHTING_PRE_DEFINED_CURVE_FONT('continuous');
#1330 = DRAUGHTING_PRE_DEFINED_COLOUR('black');
#1331 = STYLED_ITEM('color',(#1332),#778);
#1332 = PRESENTATION_STYLE_ASSIGNMENT((#1333,#1338));
#1333 = SURFACE_STYLE_USAGE(.BOTH.,#1334);
#1334 = SURFACE_SIDE_STYLE('',(#1335));
#1335 = SURFACE_STYLE_FILL_AREA(#1336);
#1336 = FILL_AREA_STYLE('',(#1337));
#1337 = FILL_AREA_STYLE_COLOUR('',#1307);
#1338 = CURVE_STYLE('',#1339,POSITIVE_LENGTH_MEASURE(0.1),#1330);
#1339 = DRAUGHTING_PRE_DEFINED_CURVE_FONT('continuous');
#1340 = STYLED_ITEM('color',(#1341),#928);
#1341 = PRESENTATION_STYLE_ASSIGNMENT((#1342,#1347));
#1342 = SURFACE_STYLE_USAGE(.BOTH.,#1343);
#1343 = SURFACE_SIDE_STYLE('',(#1344));
#1344 = SURFACE_STYLE_FILL_AREA(#1345);
#1345 = FILL_AREA_STYLE('',(#1346));
#1346 = FILL_AREA_STYLE_COLOUR('',#1307);
#1347 = CURVE_STYLE('',#1348,POSITIVE_LENGTH_MEASURE(0.1),#1330);
#1348 = DRAUGHTING_PRE_DEFINED_CURVE_FONT('continuous');
#1349 = MECHANICAL_DESIGN_GEOMETRIC_PRESENTATION_REPRESENTATION('',(
    #1350),#609);
#1350 = STYLED_ITEM('color',(#1351),#459);
#1351 = PRESENTATION_STYLE_ASSIGNMENT((#1352,#1357));
#1352 = SURFACE_STYLE_USAGE(.BOTH.,#1353);
#1353 = SURFACE_SIDE_STYLE('',(#1354));
#1354 = SURFACE_STYLE_FILL_AREA(#1355);
#1355 = FILL_AREA_STYLE('',(#1356));
#1356 = FILL_AREA_STYLE_COLOUR('',#1307);
#1357 = CURVE_STYLE('',#1358,POSITIVE_LENGTH_MEASURE(0.1),#1288);
#1358 = DRAUGHTING_PRE_DEFINED_CURVE_FONT('continuous');
ENDSEC;
END-ISO-10303-21;
