ISO-10303-21;
HEADER;
FILE_DESCRIPTION(('FreeCAD Model'),'2;1');
FILE_NAME('Open CASCADE Shape Model','2026-06-10T16:30:17',(''),(''),
  'Open CASCADE STEP processor 7.8','FreeCAD','Unknown');
FILE_SCHEMA(('AUTOMOTIVE_DESIGN { 1 0 10303 214 1 1 1 1 }'));
ENDSEC;
DATA;
#1 = APPLICATION_PROTOCOL_DEFINITION('international standard',
  'automotive_design',2000,#2);
#2 = APPLICATION_CONTEXT(
  'core data for automotive mechanical design processes');
#3 = SHAPE_DEFINITION_REPRESENTATION(#4,#10);
#4 = PRODUCT_DEFINITION_SHAPE('','',#5);
#5 = PRODUCT_DEFINITION('design','',#6,#9);
#6 = PRODUCT_DEFINITION_FORMATION('','',#7);
#7 = PRODUCT('LED','LED','',(#8));
#8 = PRODUCT_CONTEXT('',#2,'mechanical');
#9 = PRODUCT_DEFINITION_CONTEXT('part definition',#2,'design');
#10 = SHAPE_REPRESENTATION('',(#11,#15,#19),#23);
#11 = AXIS2_PLACEMENT_3D('',#12,#13,#14);
#12 = CARTESIAN_POINT('',(0.,0.,0.));
#13 = DIRECTION('',(0.,0.,1.));
#14 = DIRECTION('',(1.,0.,-0.));
#15 = AXIS2_PLACEMENT_3D('',#16,#17,#18);
#16 = CARTESIAN_POINT('',(0.,0.,0.));
#17 = DIRECTION('',(0.,0.,1.));
#18 = DIRECTION('',(1.,0.,0.));
#19 = AXIS2_PLACEMENT_3D('',#20,#21,#22);
#20 = CARTESIAN_POINT('',(0.,0.,0.));
#21 = DIRECTION('',(0.,0.,1.));
#22 = DIRECTION('',(1.,0.,0.));
#23 = ( GEOMETRIC_REPRESENTATION_CONTEXT(3) 
GLOBAL_UNCERTAINTY_ASSIGNED_CONTEXT((#27)) GLOBAL_UNIT_ASSIGNED_CONTEXT(
(#24,#25,#26)) REPRESENTATION_CONTEXT('Context #1',
  '3D Context with UNIT and UNCERTAINTY') );
#24 = ( LENGTH_UNIT() NAMED_UNIT(*) SI_UNIT(.MILLI.,.METRE.) );
#25 = ( NAMED_UNIT(*) PLANE_ANGLE_UNIT() SI_UNIT($,.RADIAN.) );
#26 = ( NAMED_UNIT(*) SI_UNIT($,.STERADIAN.) SOLID_ANGLE_UNIT() );
#27 = UNCERTAINTY_MEASURE_WITH_UNIT(LENGTH_MEASURE(1.E-07),#24,
  'distance_accuracy_value','confusion accuracy');
#28 = PRODUCT_RELATED_PRODUCT_CATEGORY('part',$,(#7));
#29 = SHAPE_DEFINITION_REPRESENTATION(#30,#36);
#30 = PRODUCT_DEFINITION_SHAPE('','',#31);
#31 = PRODUCT_DEFINITION('design','',#32,#35);
#32 = PRODUCT_DEFINITION_FORMATION('','',#33);
#33 = PRODUCT('LensGroup','LensGroup','',(#34));
#34 = PRODUCT_CONTEXT('',#2,'mechanical');
#35 = PRODUCT_DEFINITION_CONTEXT('part definition',#2,'design');
#36 = SHAPE_REPRESENTATION('',(#11,#37,#41,#45),#49);
#37 = AXIS2_PLACEMENT_3D('',#38,#39,#40);
#38 = CARTESIAN_POINT('',(0.,0.,0.));
#39 = DIRECTION('',(0.,0.,1.));
#40 = DIRECTION('',(1.,0.,0.));
#41 = AXIS2_PLACEMENT_3D('',#42,#43,#44);
#42 = CARTESIAN_POINT('',(0.,0.,0.));
#43 = DIRECTION('',(0.,0.,1.));
#44 = DIRECTION('',(1.,0.,0.));
#45 = AXIS2_PLACEMENT_3D('',#46,#47,#48);
#46 = CARTESIAN_POINT('',(0.,0.,0.));
#47 = DIRECTION('',(0.,0.,1.));
#48 = DIRECTION('',(1.,0.,0.));
#49 = ( GEOMETRIC_REPRESENTATION_CONTEXT(3) 
GLOBAL_UNCERTAINTY_ASSIGNED_CONTEXT((#53)) GLOBAL_UNIT_ASSIGNED_CONTEXT(
(#50,#51,#52)) REPRESENTATION_CONTEXT('Context #1',
  '3D Context with UNIT and UNCERTAINTY') );
#50 = ( LENGTH_UNIT() NAMED_UNIT(*) SI_UNIT(.MILLI.,.METRE.) );
#51 = ( NAMED_UNIT(*) PLANE_ANGLE_UNIT() SI_UNIT($,.RADIAN.) );
#52 = ( NAMED_UNIT(*) SI_UNIT($,.STERADIAN.) SOLID_ANGLE_UNIT() );
#53 = UNCERTAINTY_MEASURE_WITH_UNIT(LENGTH_MEASURE(1.E-07),#50,
  'distance_accuracy_value','confusion accuracy');
#54 = CONTEXT_DEPENDENT_SHAPE_REPRESENTATION(#55,#57);
#55 = ( REPRESENTATION_RELATIONSHIP('','',#36,#10) 
REPRESENTATION_RELATIONSHIP_WITH_TRANSFORMATION(#56) 
SHAPE_REPRESENTATION_RELATIONSHIP() );
#56 = ITEM_DEFINED_TRANSFORMATION('','',#11,#15);
#57 = PRODUCT_DEFINITION_SHAPE('Placement','Placement of an item',#58);
#58 = NEXT_ASSEMBLY_USAGE_OCCURRENCE('12','LensGroup','',#5,#31,$);
#59 = PRODUCT_RELATED_PRODUCT_CATEGORY('part',$,(#33));
#60 = SHAPE_DEFINITION_REPRESENTATION(#61,#67);
#61 = PRODUCT_DEFINITION_SHAPE('','',#62);
#62 = PRODUCT_DEFINITION('design','',#63,#66);
#63 = PRODUCT_DEFINITION_FORMATION('','',#64);
#64 = PRODUCT('Lens','Lens','',(#65));
#65 = PRODUCT_CONTEXT('',#2,'mechanical');
#66 = PRODUCT_DEFINITION_CONTEXT('part definition',#2,'design');
#67 = ADVANCED_BREP_SHAPE_REPRESENTATION('',(#11,#68),#131);
#68 = MANIFOLD_SOLID_BREP('',#69);
#69 = CLOSED_SHELL('',(#70,#103,#122));
#70 = ADVANCED_FACE('',(#71),#98,.T.);
#71 = FACE_BOUND('',#72,.F.);
#72 = EDGE_LOOP('',(#73,#83,#90,#91));
#73 = ORIENTED_EDGE('',*,*,#74,.T.);
#74 = EDGE_CURVE('',#75,#77,#79,.T.);
#75 = VERTEX_POINT('',#76);
#76 = CARTESIAN_POINT('',(1.55,0.,1.));
#77 = VERTEX_POINT('',#78);
#78 = CARTESIAN_POINT('',(1.55,0.,4.65));
#79 = LINE('',#80,#81);
#80 = CARTESIAN_POINT('',(1.55,0.,1.));
#81 = VECTOR('',#82,1.);
#82 = DIRECTION('',(0.,0.,1.));
#83 = ORIENTED_EDGE('',*,*,#84,.T.);
#84 = EDGE_CURVE('',#77,#77,#85,.T.);
#85 = CIRCLE('',#86,1.55);
#86 = AXIS2_PLACEMENT_3D('',#87,#88,#89);
#87 = CARTESIAN_POINT('',(0.,0.,4.65));
#88 = DIRECTION('',(0.,0.,1.));
#89 = DIRECTION('',(1.,0.,0.));
#90 = ORIENTED_EDGE('',*,*,#74,.F.);
#91 = ORIENTED_EDGE('',*,*,#92,.F.);
#92 = EDGE_CURVE('',#75,#75,#93,.T.);
#93 = CIRCLE('',#94,1.55);
#94 = AXIS2_PLACEMENT_3D('',#95,#96,#97);
#95 = CARTESIAN_POINT('',(0.,0.,1.));
#96 = DIRECTION('',(0.,0.,1.));
#97 = DIRECTION('',(1.,0.,0.));
#98 = CYLINDRICAL_SURFACE('',#99,1.55);
#99 = AXIS2_PLACEMENT_3D('',#100,#101,#102);
#100 = CARTESIAN_POINT('',(0.,0.,1.));
#101 = DIRECTION('',(-0.,-0.,-1.));
#102 = DIRECTION('',(1.,0.,0.));
#103 = ADVANCED_FACE('',(#104),#117,.T.);
#104 = FACE_BOUND('',#105,.T.);
#105 = EDGE_LOOP('',(#106,#115,#116));
#106 = ORIENTED_EDGE('',*,*,#107,.F.);
#107 = EDGE_CURVE('',#77,#108,#110,.T.);
#108 = VERTEX_POINT('',#109);
#109 = CARTESIAN_POINT('',(9.491012693392E-17,0.,6.2));
#110 = CIRCLE('',#111,1.55);
#111 = AXIS2_PLACEMENT_3D('',#112,#113,#114);
#112 = CARTESIAN_POINT('',(0.,0.,4.65));
#113 = DIRECTION('',(0.,-1.,0.));
#114 = DIRECTION('',(1.,0.,0.));
#115 = ORIENTED_EDGE('',*,*,#84,.T.);
#116 = ORIENTED_EDGE('',*,*,#107,.T.);
#117 = SPHERICAL_SURFACE('',#118,1.55);
#118 = AXIS2_PLACEMENT_3D('',#119,#120,#121);
#119 = CARTESIAN_POINT('',(0.,0.,4.65));
#120 = DIRECTION('',(0.,0.,1.));
#121 = DIRECTION('',(1.,0.,0.));
#122 = ADVANCED_FACE('',(#123),#126,.F.);
#123 = FACE_BOUND('',#124,.F.);
#124 = EDGE_LOOP('',(#125));
#125 = ORIENTED_EDGE('',*,*,#92,.T.);
#126 = PLANE('',#127);
#127 = AXIS2_PLACEMENT_3D('',#128,#129,#130);
#128 = CARTESIAN_POINT('',(-5.513871502175E-17,-8.134702934196E-18,1.));
#129 = DIRECTION('',(0.,0.,1.));
#130 = DIRECTION('',(1.,0.,0.));
#131 = ( GEOMETRIC_REPRESENTATION_CONTEXT(3) 
GLOBAL_UNCERTAINTY_ASSIGNED_CONTEXT((#135)) GLOBAL_UNIT_ASSIGNED_CONTEXT
((#132,#133,#134)) REPRESENTATION_CONTEXT('Context #1',
  '3D Context with UNIT and UNCERTAINTY') );
#132 = ( LENGTH_UNIT() NAMED_UNIT(*) SI_UNIT(.MILLI.,.METRE.) );
#133 = ( NAMED_UNIT(*) PLANE_ANGLE_UNIT() SI_UNIT($,.RADIAN.) );
#134 = ( NAMED_UNIT(*) SI_UNIT($,.STERADIAN.) SOLID_ANGLE_UNIT() );
#135 = UNCERTAINTY_MEASURE_WITH_UNIT(LENGTH_MEASURE(1.E-07),#132,
  'distance_accuracy_value','confusion accuracy');
#136 = CONTEXT_DEPENDENT_SHAPE_REPRESENTATION(#137,#139);
#137 = ( REPRESENTATION_RELATIONSHIP('','',#67,#36) 
REPRESENTATION_RELATIONSHIP_WITH_TRANSFORMATION(#138) 
SHAPE_REPRESENTATION_RELATIONSHIP() );
#138 = ITEM_DEFINED_TRANSFORMATION('','',#11,#37);
#139 = PRODUCT_DEFINITION_SHAPE('Placement','Placement of an item',#140
  );
#140 = NEXT_ASSEMBLY_USAGE_OCCURRENCE('9','Lens','',#31,#62,$);
#141 = PRODUCT_RELATED_PRODUCT_CATEGORY('part',$,(#64));
#142 = SHAPE_DEFINITION_REPRESENTATION(#143,#149);
#143 = PRODUCT_DEFINITION_SHAPE('','',#144);
#144 = PRODUCT_DEFINITION('design','',#145,#148);
#145 = PRODUCT_DEFINITION_FORMATION('','',#146);
#146 = PRODUCT('Mark','Mark','',(#147));
#147 = PRODUCT_CONTEXT('',#2,'mechanical');
#148 = PRODUCT_DEFINITION_CONTEXT('part definition',#2,'design');
#149 = ADVANCED_BREP_SHAPE_REPRESENTATION('',(#11,#150),#203);
#150 = MANIFOLD_SOLID_BREP('',#151);
#151 = CLOSED_SHELL('',(#152,#185,#194));
#152 = ADVANCED_FACE('',(#153),#180,.T.);
#153 = FACE_BOUND('',#154,.F.);
#154 = EDGE_LOOP('',(#155,#165,#172,#173));
#155 = ORIENTED_EDGE('',*,*,#156,.T.);
#156 = EDGE_CURVE('',#157,#159,#161,.T.);
#157 = VERTEX_POINT('',#158);
#158 = CARTESIAN_POINT('',(1.9,0.,1.));
#159 = VERTEX_POINT('',#160);
#160 = CARTESIAN_POINT('',(1.9,0.,1.6));
#161 = LINE('',#162,#163);
#162 = CARTESIAN_POINT('',(1.9,0.,1.));
#163 = VECTOR('',#164,1.);
#164 = DIRECTION('',(0.,0.,1.));
#165 = ORIENTED_EDGE('',*,*,#166,.T.);
#166 = EDGE_CURVE('',#159,#159,#167,.T.);
#167 = CIRCLE('',#168,1.9);
#168 = AXIS2_PLACEMENT_3D('',#169,#170,#171);
#169 = CARTESIAN_POINT('',(0.,0.,1.6));
#170 = DIRECTION('',(0.,0.,1.));
#171 = DIRECTION('',(1.,0.,0.));
#172 = ORIENTED_EDGE('',*,*,#156,.F.);
#173 = ORIENTED_EDGE('',*,*,#174,.F.);
#174 = EDGE_CURVE('',#157,#157,#175,.T.);
#175 = CIRCLE('',#176,1.9);
#176 = AXIS2_PLACEMENT_3D('',#177,#178,#179);
#177 = CARTESIAN_POINT('',(0.,0.,1.));
#178 = DIRECTION('',(0.,0.,1.));
#179 = DIRECTION('',(1.,0.,0.));
#180 = CYLINDRICAL_SURFACE('',#181,1.9);
#181 = AXIS2_PLACEMENT_3D('',#182,#183,#184);
#182 = CARTESIAN_POINT('',(0.,0.,1.));
#183 = DIRECTION('',(-0.,-0.,-1.));
#184 = DIRECTION('',(1.,0.,0.));
#185 = ADVANCED_FACE('',(#186),#189,.F.);
#186 = FACE_BOUND('',#187,.F.);
#187 = EDGE_LOOP('',(#188));
#188 = ORIENTED_EDGE('',*,*,#174,.T.);
#189 = PLANE('',#190);
#190 = AXIS2_PLACEMENT_3D('',#191,#192,#193);
#191 = CARTESIAN_POINT('',(-1.799263332289E-16,1.240220266844E-17,1.));
#192 = DIRECTION('',(0.,0.,1.));
#193 = DIRECTION('',(1.,0.,0.));
#194 = ADVANCED_FACE('',(#195),#198,.T.);
#195 = FACE_BOUND('',#196,.T.);
#196 = EDGE_LOOP('',(#197));
#197 = ORIENTED_EDGE('',*,*,#166,.T.);
#198 = PLANE('',#199);
#199 = AXIS2_PLACEMENT_3D('',#200,#201,#202);
#200 = CARTESIAN_POINT('',(-1.799263332289E-16,1.240220266844E-17,1.6));
#201 = DIRECTION('',(0.,0.,1.));
#202 = DIRECTION('',(1.,0.,0.));
#203 = ( GEOMETRIC_REPRESENTATION_CONTEXT(3) 
GLOBAL_UNCERTAINTY_ASSIGNED_CONTEXT((#207)) GLOBAL_UNIT_ASSIGNED_CONTEXT
((#204,#205,#206)) REPRESENTATION_CONTEXT('Context #1',
  '3D Context with UNIT and UNCERTAINTY') );
#204 = ( LENGTH_UNIT() NAMED_UNIT(*) SI_UNIT(.MILLI.,.METRE.) );
#205 = ( NAMED_UNIT(*) PLANE_ANGLE_UNIT() SI_UNIT($,.RADIAN.) );
#206 = ( NAMED_UNIT(*) SI_UNIT($,.STERADIAN.) SOLID_ANGLE_UNIT() );
#207 = UNCERTAINTY_MEASURE_WITH_UNIT(LENGTH_MEASURE(1.E-07),#204,
  'distance_accuracy_value','confusion accuracy');
#208 = CONTEXT_DEPENDENT_SHAPE_REPRESENTATION(#209,#211);
#209 = ( REPRESENTATION_RELATIONSHIP('','',#149,#36) 
REPRESENTATION_RELATIONSHIP_WITH_TRANSFORMATION(#210) 
SHAPE_REPRESENTATION_RELATIONSHIP() );
#210 = ITEM_DEFINED_TRANSFORMATION('','',#11,#41);
#211 = PRODUCT_DEFINITION_SHAPE('Placement','Placement of an item',#212
  );
#212 = NEXT_ASSEMBLY_USAGE_OCCURRENCE('10','Mark','',#31,#144,$);
#213 = PRODUCT_RELATED_PRODUCT_CATEGORY('part',$,(#146));
#214 = SHAPE_DEFINITION_REPRESENTATION(#215,#221);
#215 = PRODUCT_DEFINITION_SHAPE('','',#216);
#216 = PRODUCT_DEFINITION('design','',#217,#220);
#217 = PRODUCT_DEFINITION_FORMATION('','',#218);
#218 = PRODUCT('RingAtMark','RingAtMark','',(#219));
#219 = PRODUCT_CONTEXT('',#2,'mechanical');
#220 = PRODUCT_DEFINITION_CONTEXT('part definition',#2,'design');
#221 = ADVANCED_BREP_SHAPE_REPRESENTATION('',(#11,#222),#275);
#222 = MANIFOLD_SOLID_BREP('',#223);
#223 = CLOSED_SHELL('',(#224,#257,#266));
#224 = ADVANCED_FACE('',(#225),#252,.T.);
#225 = FACE_BOUND('',#226,.F.);
#226 = EDGE_LOOP('',(#227,#237,#244,#245));
#227 = ORIENTED_EDGE('',*,*,#228,.T.);
#228 = EDGE_CURVE('',#229,#231,#233,.T.);
#229 = VERTEX_POINT('',#230);
#230 = CARTESIAN_POINT('',(1.75,0.,1.6));
#231 = VERTEX_POINT('',#232);
#232 = CARTESIAN_POINT('',(1.75,0.,2.1));
#233 = LINE('',#234,#235);
#234 = CARTESIAN_POINT('',(1.75,0.,1.6));
#235 = VECTOR('',#236,1.);
#236 = DIRECTION('',(0.,0.,1.));
#237 = ORIENTED_EDGE('',*,*,#238,.T.);
#238 = EDGE_CURVE('',#231,#231,#239,.T.);
#239 = CIRCLE('',#240,1.75);
#240 = AXIS2_PLACEMENT_3D('',#241,#242,#243);
#241 = CARTESIAN_POINT('',(0.,0.,2.1));
#242 = DIRECTION('',(0.,0.,1.));
#243 = DIRECTION('',(1.,0.,0.));
#244 = ORIENTED_EDGE('',*,*,#228,.F.);
#245 = ORIENTED_EDGE('',*,*,#246,.F.);
#246 = EDGE_CURVE('',#229,#229,#247,.T.);
#247 = CIRCLE('',#248,1.75);
#248 = AXIS2_PLACEMENT_3D('',#249,#250,#251);
#249 = CARTESIAN_POINT('',(0.,0.,1.6));
#250 = DIRECTION('',(0.,0.,1.));
#251 = DIRECTION('',(1.,0.,0.));
#252 = CYLINDRICAL_SURFACE('',#253,1.75);
#253 = AXIS2_PLACEMENT_3D('',#254,#255,#256);
#254 = CARTESIAN_POINT('',(0.,0.,1.6));
#255 = DIRECTION('',(-0.,-0.,-1.));
#256 = DIRECTION('',(1.,0.,0.));
#257 = ADVANCED_FACE('',(#258),#261,.F.);
#258 = FACE_BOUND('',#259,.F.);
#259 = EDGE_LOOP('',(#260));
#260 = ORIENTED_EDGE('',*,*,#246,.T.);
#261 = PLANE('',#262);
#262 = AXIS2_PLACEMENT_3D('',#263,#264,#265);
#263 = CARTESIAN_POINT('',(-9.767429518139E-17,-7.143772995026E-17,1.6)
  );
#264 = DIRECTION('',(0.,0.,1.));
#265 = DIRECTION('',(1.,0.,0.));
#266 = ADVANCED_FACE('',(#267),#270,.T.);
#267 = FACE_BOUND('',#268,.T.);
#268 = EDGE_LOOP('',(#269));
#269 = ORIENTED_EDGE('',*,*,#238,.T.);
#270 = PLANE('',#271);
#271 = AXIS2_PLACEMENT_3D('',#272,#273,#274);
#272 = CARTESIAN_POINT('',(-9.767429518139E-17,-7.143772995026E-17,2.1)
  );
#273 = DIRECTION('',(0.,0.,1.));
#274 = DIRECTION('',(1.,0.,0.));
#275 = ( GEOMETRIC_REPRESENTATION_CONTEXT(3) 
GLOBAL_UNCERTAINTY_ASSIGNED_CONTEXT((#279)) GLOBAL_UNIT_ASSIGNED_CONTEXT
((#276,#277,#278)) REPRESENTATION_CONTEXT('Context #1',
  '3D Context with UNIT and UNCERTAINTY') );
#276 = ( LENGTH_UNIT() NAMED_UNIT(*) SI_UNIT(.MILLI.,.METRE.) );
#277 = ( NAMED_UNIT(*) PLANE_ANGLE_UNIT() SI_UNIT($,.RADIAN.) );
#278 = ( NAMED_UNIT(*) SI_UNIT($,.STERADIAN.) SOLID_ANGLE_UNIT() );
#279 = UNCERTAINTY_MEASURE_WITH_UNIT(LENGTH_MEASURE(1.E-07),#276,
  'distance_accuracy_value','confusion accuracy');
#280 = CONTEXT_DEPENDENT_SHAPE_REPRESENTATION(#281,#283);
#281 = ( REPRESENTATION_RELATIONSHIP('','',#221,#36) 
REPRESENTATION_RELATIONSHIP_WITH_TRANSFORMATION(#282) 
SHAPE_REPRESENTATION_RELATIONSHIP() );
#282 = ITEM_DEFINED_TRANSFORMATION('','',#11,#45);
#283 = PRODUCT_DEFINITION_SHAPE('Placement','Placement of an item',#284
  );
#284 = NEXT_ASSEMBLY_USAGE_OCCURRENCE('11','RingAtMark','',#31,#216,$);
#285 = PRODUCT_RELATED_PRODUCT_CATEGORY('part',$,(#218));
#286 = SHAPE_DEFINITION_REPRESENTATION(#287,#293);
#287 = PRODUCT_DEFINITION_SHAPE('','',#288);
#288 = PRODUCT_DEFINITION('design','',#289,#292);
#289 = PRODUCT_DEFINITION_FORMATION('','',#290);
#290 = PRODUCT('PinsGroup','PinsGroup','',(#291));
#291 = PRODUCT_CONTEXT('',#2,'mechanical');
#292 = PRODUCT_DEFINITION_CONTEXT('part definition',#2,'design');
#293 = SHAPE_REPRESENTATION('',(#11,#294,#298,#302),#306);
#294 = AXIS2_PLACEMENT_3D('',#295,#296,#297);
#295 = CARTESIAN_POINT('',(0.,0.,0.));
#296 = DIRECTION('',(0.,0.,1.));
#297 = DIRECTION('',(1.,0.,0.));
#298 = AXIS2_PLACEMENT_3D('',#299,#300,#301);
#299 = CARTESIAN_POINT('',(0.,0.,0.));
#300 = DIRECTION('',(0.,0.,1.));
#301 = DIRECTION('',(1.,0.,0.));
#302 = AXIS2_PLACEMENT_3D('',#303,#304,#305);
#303 = CARTESIAN_POINT('',(0.,0.,0.));
#304 = DIRECTION('',(0.,0.,1.));
#305 = DIRECTION('',(1.,0.,0.));
#306 = ( GEOMETRIC_REPRESENTATION_CONTEXT(3) 
GLOBAL_UNCERTAINTY_ASSIGNED_CONTEXT((#310)) GLOBAL_UNIT_ASSIGNED_CONTEXT
((#307,#308,#309)) REPRESENTATION_CONTEXT('Context #1',
  '3D Context with UNIT and UNCERTAINTY') );
#307 = ( LENGTH_UNIT() NAMED_UNIT(*) SI_UNIT(.MILLI.,.METRE.) );
#308 = ( NAMED_UNIT(*) PLANE_ANGLE_UNIT() SI_UNIT($,.RADIAN.) );
#309 = ( NAMED_UNIT(*) SI_UNIT($,.STERADIAN.) SOLID_ANGLE_UNIT() );
#310 = UNCERTAINTY_MEASURE_WITH_UNIT(LENGTH_MEASURE(1.E-07),#307,
  'distance_accuracy_value','confusion accuracy');
#311 = CONTEXT_DEPENDENT_SHAPE_REPRESENTATION(#312,#314);
#312 = ( REPRESENTATION_RELATIONSHIP('','',#293,#10) 
REPRESENTATION_RELATIONSHIP_WITH_TRANSFORMATION(#313) 
SHAPE_REPRESENTATION_RELATIONSHIP() );
#313 = ITEM_DEFINED_TRANSFORMATION('','',#11,#19);
#314 = PRODUCT_DEFINITION_SHAPE('Placement','Placement of an item',#315
  );
#315 = NEXT_ASSEMBLY_USAGE_OCCURRENCE('16','PinsGroup','',#5,#288,$);
#316 = PRODUCT_RELATED_PRODUCT_CATEGORY('part',$,(#290));
#317 = SHAPE_DEFINITION_REPRESENTATION(#318,#324);
#318 = PRODUCT_DEFINITION_SHAPE('','',#319);
#319 = PRODUCT_DEFINITION('design','',#320,#323);
#320 = PRODUCT_DEFINITION_FORMATION('','',#321);
#321 = PRODUCT('PinA','PinA','',(#322));
#322 = PRODUCT_CONTEXT('',#2,'mechanical');
#323 = PRODUCT_DEFINITION_CONTEXT('part definition',#2,'design');
#324 = ADVANCED_BREP_SHAPE_REPRESENTATION('',(#11,#325),#475);
#325 = MANIFOLD_SOLID_BREP('',#326);
#326 = CLOSED_SHELL('',(#327,#367,#398,#429,#451,#463));
#327 = ADVANCED_FACE('',(#328),#362,.T.);
#328 = FACE_BOUND('',#329,.T.);
#329 = EDGE_LOOP('',(#330,#340,#348,#356));
#330 = ORIENTED_EDGE('',*,*,#331,.T.);
#331 = EDGE_CURVE('',#332,#334,#336,.T.);
#332 = VERTEX_POINT('',#333);
#333 = CARTESIAN_POINT('',(-1.52,-0.25,0.));
#334 = VERTEX_POINT('',#335);
#335 = CARTESIAN_POINT('',(-1.52,-0.25,-5.));
#336 = LINE('',#337,#338);
#337 = CARTESIAN_POINT('',(-1.52,-0.25,0.));
#338 = VECTOR('',#339,1.);
#339 = DIRECTION('',(-0.,-0.,-1.));
#340 = ORIENTED_EDGE('',*,*,#341,.T.);
#341 = EDGE_CURVE('',#334,#342,#344,.T.);
#342 = VERTEX_POINT('',#343);
#343 = CARTESIAN_POINT('',(-1.02,-0.25,-5.));
#344 = LINE('',#345,#346);
#345 = CARTESIAN_POINT('',(-1.52,-0.25,-5.));
#346 = VECTOR('',#347,1.);
#347 = DIRECTION('',(1.,0.,0.));
#348 = ORIENTED_EDGE('',*,*,#349,.F.);
#349 = EDGE_CURVE('',#350,#342,#352,.T.);
#350 = VERTEX_POINT('',#351);
#351 = CARTESIAN_POINT('',(-1.02,-0.25,0.));
#352 = LINE('',#353,#354);
#353 = CARTESIAN_POINT('',(-1.02,-0.25,0.));
#354 = VECTOR('',#355,1.);
#355 = DIRECTION('',(-0.,-0.,-1.));
#356 = ORIENTED_EDGE('',*,*,#357,.F.);
#357 = EDGE_CURVE('',#332,#350,#358,.T.);
#358 = LINE('',#359,#360);
#359 = CARTESIAN_POINT('',(-1.52,-0.25,0.));
#360 = VECTOR('',#361,1.);
#361 = DIRECTION('',(1.,0.,0.));
#362 = PLANE('',#363);
#363 = AXIS2_PLACEMENT_3D('',#364,#365,#366);
#364 = CARTESIAN_POINT('',(-1.52,-0.25,0.));
#365 = DIRECTION('',(0.,-1.,0.));
#366 = DIRECTION('',(1.,0.,0.));
#367 = ADVANCED_FACE('',(#368),#393,.T.);
#368 = FACE_BOUND('',#369,.T.);
#369 = EDGE_LOOP('',(#370,#371,#379,#387));
#370 = ORIENTED_EDGE('',*,*,#349,.T.);
#371 = ORIENTED_EDGE('',*,*,#372,.T.);
#372 = EDGE_CURVE('',#342,#373,#375,.T.);
#373 = VERTEX_POINT('',#374);
#374 = CARTESIAN_POINT('',(-1.02,0.25,-5.));
#375 = LINE('',#376,#377);
#376 = CARTESIAN_POINT('',(-1.02,-0.25,-5.));
#377 = VECTOR('',#378,1.);
#378 = DIRECTION('',(0.,1.,0.));
#379 = ORIENTED_EDGE('',*,*,#380,.F.);
#380 = EDGE_CURVE('',#381,#373,#383,.T.);
#381 = VERTEX_POINT('',#382);
#382 = CARTESIAN_POINT('',(-1.02,0.25,0.));
#383 = LINE('',#384,#385);
#384 = CARTESIAN_POINT('',(-1.02,0.25,0.));
#385 = VECTOR('',#386,1.);
#386 = DIRECTION('',(-0.,-0.,-1.));
#387 = ORIENTED_EDGE('',*,*,#388,.F.);
#388 = EDGE_CURVE('',#350,#381,#389,.T.);
#389 = LINE('',#390,#391);
#390 = CARTESIAN_POINT('',(-1.02,-0.25,0.));
#391 = VECTOR('',#392,1.);
#392 = DIRECTION('',(0.,1.,0.));
#393 = PLANE('',#394);
#394 = AXIS2_PLACEMENT_3D('',#395,#396,#397);
#395 = CARTESIAN_POINT('',(-1.02,-0.25,0.));
#396 = DIRECTION('',(1.,0.,0.));
#397 = DIRECTION('',(-0.,1.,0.));
#398 = ADVANCED_FACE('',(#399),#424,.T.);
#399 = FACE_BOUND('',#400,.T.);
#400 = EDGE_LOOP('',(#401,#402,#410,#418));
#401 = ORIENTED_EDGE('',*,*,#380,.T.);
#402 = ORIENTED_EDGE('',*,*,#403,.T.);
#403 = EDGE_CURVE('',#373,#404,#406,.T.);
#404 = VERTEX_POINT('',#405);
#405 = CARTESIAN_POINT('',(-1.52,0.25,-5.));
#406 = LINE('',#407,#408);
#407 = CARTESIAN_POINT('',(-1.02,0.25,-5.));
#408 = VECTOR('',#409,1.);
#409 = DIRECTION('',(-1.,0.,0.));
#410 = ORIENTED_EDGE('',*,*,#411,.F.);
#411 = EDGE_CURVE('',#412,#404,#414,.T.);
#412 = VERTEX_POINT('',#413);
#413 = CARTESIAN_POINT('',(-1.52,0.25,0.));
#414 = LINE('',#415,#416);
#415 = CARTESIAN_POINT('',(-1.52,0.25,0.));
#416 = VECTOR('',#417,1.);
#417 = DIRECTION('',(-0.,-0.,-1.));
#418 = ORIENTED_EDGE('',*,*,#419,.F.);
#419 = EDGE_CURVE('',#381,#412,#420,.T.);
#420 = LINE('',#421,#422);
#421 = CARTESIAN_POINT('',(-1.02,0.25,0.));
#422 = VECTOR('',#423,1.);
#423 = DIRECTION('',(-1.,0.,0.));
#424 = PLANE('',#425);
#425 = AXIS2_PLACEMENT_3D('',#426,#427,#428);
#426 = CARTESIAN_POINT('',(-1.02,0.25,0.));
#427 = DIRECTION('',(0.,1.,0.));
#428 = DIRECTION('',(-1.,0.,0.));
#429 = ADVANCED_FACE('',(#430),#446,.T.);
#430 = FACE_BOUND('',#431,.T.);
#431 = EDGE_LOOP('',(#432,#433,#439,#440));
#432 = ORIENTED_EDGE('',*,*,#411,.T.);
#433 = ORIENTED_EDGE('',*,*,#434,.T.);
#434 = EDGE_CURVE('',#404,#334,#435,.T.);
#435 = LINE('',#436,#437);
#436 = CARTESIAN_POINT('',(-1.52,0.25,-5.));
#437 = VECTOR('',#438,1.);
#438 = DIRECTION('',(0.,-1.,0.));
#439 = ORIENTED_EDGE('',*,*,#331,.F.);
#440 = ORIENTED_EDGE('',*,*,#441,.F.);
#441 = EDGE_CURVE('',#412,#332,#442,.T.);
#442 = LINE('',#443,#444);
#443 = CARTESIAN_POINT('',(-1.52,0.25,0.));
#444 = VECTOR('',#445,1.);
#445 = DIRECTION('',(0.,-1.,0.));
#446 = PLANE('',#447);
#447 = AXIS2_PLACEMENT_3D('',#448,#449,#450);
#448 = CARTESIAN_POINT('',(-1.52,0.25,0.));
#449 = DIRECTION('',(-1.,0.,0.));
#450 = DIRECTION('',(0.,-1.,0.));
#451 = ADVANCED_FACE('',(#452),#458,.T.);
#452 = FACE_BOUND('',#453,.T.);
#453 = EDGE_LOOP('',(#454,#455,#456,#457));
#454 = ORIENTED_EDGE('',*,*,#357,.T.);
#455 = ORIENTED_EDGE('',*,*,#388,.T.);
#456 = ORIENTED_EDGE('',*,*,#419,.T.);
#457 = ORIENTED_EDGE('',*,*,#441,.T.);
#458 = PLANE('',#459);
#459 = AXIS2_PLACEMENT_3D('',#460,#461,#462);
#460 = CARTESIAN_POINT('',(-1.27,0.,0.));
#461 = DIRECTION('',(0.,0.,1.));
#462 = DIRECTION('',(1.,0.,0.));
#463 = ADVANCED_FACE('',(#464),#470,.F.);
#464 = FACE_BOUND('',#465,.F.);
#465 = EDGE_LOOP('',(#466,#467,#468,#469));
#466 = ORIENTED_EDGE('',*,*,#341,.T.);
#467 = ORIENTED_EDGE('',*,*,#372,.T.);
#468 = ORIENTED_EDGE('',*,*,#403,.T.);
#469 = ORIENTED_EDGE('',*,*,#434,.T.);
#470 = PLANE('',#471);
#471 = AXIS2_PLACEMENT_3D('',#472,#473,#474);
#472 = CARTESIAN_POINT('',(-1.27,0.,-5.));
#473 = DIRECTION('',(0.,0.,1.));
#474 = DIRECTION('',(1.,0.,0.));
#475 = ( GEOMETRIC_REPRESENTATION_CONTEXT(3) 
GLOBAL_UNCERTAINTY_ASSIGNED_CONTEXT((#479)) GLOBAL_UNIT_ASSIGNED_CONTEXT
((#476,#477,#478)) REPRESENTATION_CONTEXT('Context #1',
  '3D Context with UNIT and UNCERTAINTY') );
#476 = ( LENGTH_UNIT() NAMED_UNIT(*) SI_UNIT(.MILLI.,.METRE.) );
#477 = ( NAMED_UNIT(*) PLANE_ANGLE_UNIT() SI_UNIT($,.RADIAN.) );
#478 = ( NAMED_UNIT(*) SI_UNIT($,.STERADIAN.) SOLID_ANGLE_UNIT() );
#479 = UNCERTAINTY_MEASURE_WITH_UNIT(LENGTH_MEASURE(1.E-07),#476,
  'distance_accuracy_value','confusion accuracy');
#480 = CONTEXT_DEPENDENT_SHAPE_REPRESENTATION(#481,#483);
#481 = ( REPRESENTATION_RELATIONSHIP('','',#324,#293) 
REPRESENTATION_RELATIONSHIP_WITH_TRANSFORMATION(#482) 
SHAPE_REPRESENTATION_RELATIONSHIP() );
#482 = ITEM_DEFINED_TRANSFORMATION('','',#11,#294);
#483 = PRODUCT_DEFINITION_SHAPE('Placement','Placement of an item',#484
  );
#484 = NEXT_ASSEMBLY_USAGE_OCCURRENCE('13','PinA','',#288,#319,$);
#485 = PRODUCT_RELATED_PRODUCT_CATEGORY('part',$,(#321));
#486 = SHAPE_DEFINITION_REPRESENTATION(#487,#493);
#487 = PRODUCT_DEFINITION_SHAPE('','',#488);
#488 = PRODUCT_DEFINITION('design','',#489,#492);
#489 = PRODUCT_DEFINITION_FORMATION('','',#490);
#490 = PRODUCT('PinB','PinB','',(#491));
#491 = PRODUCT_CONTEXT('',#2,'mechanical');
#492 = PRODUCT_DEFINITION_CONTEXT('part definition',#2,'design');
#493 = ADVANCED_BREP_SHAPE_REPRESENTATION('',(#11,#494),#644);
#494 = MANIFOLD_SOLID_BREP('',#495);
#495 = CLOSED_SHELL('',(#496,#536,#567,#598,#620,#632));
#496 = ADVANCED_FACE('',(#497),#531,.T.);
#497 = FACE_BOUND('',#498,.T.);
#498 = EDGE_LOOP('',(#499,#509,#517,#525));
#499 = ORIENTED_EDGE('',*,*,#500,.T.);
#500 = EDGE_CURVE('',#501,#503,#505,.T.);
#501 = VERTEX_POINT('',#502);
#502 = CARTESIAN_POINT('',(1.02,-0.25,0.));
#503 = VERTEX_POINT('',#504);
#504 = CARTESIAN_POINT('',(1.02,-0.25,-5.));
#505 = LINE('',#506,#507);
#506 = CARTESIAN_POINT('',(1.02,-0.25,0.));
#507 = VECTOR('',#508,1.);
#508 = DIRECTION('',(-0.,-0.,-1.));
#509 = ORIENTED_EDGE('',*,*,#510,.T.);
#510 = EDGE_CURVE('',#503,#511,#513,.T.);
#511 = VERTEX_POINT('',#512);
#512 = CARTESIAN_POINT('',(1.52,-0.25,-5.));
#513 = LINE('',#514,#515);
#514 = CARTESIAN_POINT('',(1.02,-0.25,-5.));
#515 = VECTOR('',#516,1.);
#516 = DIRECTION('',(1.,0.,0.));
#517 = ORIENTED_EDGE('',*,*,#518,.F.);
#518 = EDGE_CURVE('',#519,#511,#521,.T.);
#519 = VERTEX_POINT('',#520);
#520 = CARTESIAN_POINT('',(1.52,-0.25,0.));
#521 = LINE('',#522,#523);
#522 = CARTESIAN_POINT('',(1.52,-0.25,0.));
#523 = VECTOR('',#524,1.);
#524 = DIRECTION('',(-0.,-0.,-1.));
#525 = ORIENTED_EDGE('',*,*,#526,.F.);
#526 = EDGE_CURVE('',#501,#519,#527,.T.);
#527 = LINE('',#528,#529);
#528 = CARTESIAN_POINT('',(1.02,-0.25,0.));
#529 = VECTOR('',#530,1.);
#530 = DIRECTION('',(1.,0.,0.));
#531 = PLANE('',#532);
#532 = AXIS2_PLACEMENT_3D('',#533,#534,#535);
#533 = CARTESIAN_POINT('',(1.02,-0.25,0.));
#534 = DIRECTION('',(0.,-1.,0.));
#535 = DIRECTION('',(1.,0.,0.));
#536 = ADVANCED_FACE('',(#537),#562,.T.);
#537 = FACE_BOUND('',#538,.T.);
#538 = EDGE_LOOP('',(#539,#540,#548,#556));
#539 = ORIENTED_EDGE('',*,*,#518,.T.);
#540 = ORIENTED_EDGE('',*,*,#541,.T.);
#541 = EDGE_CURVE('',#511,#542,#544,.T.);
#542 = VERTEX_POINT('',#543);
#543 = CARTESIAN_POINT('',(1.52,0.25,-5.));
#544 = LINE('',#545,#546);
#545 = CARTESIAN_POINT('',(1.52,-0.25,-5.));
#546 = VECTOR('',#547,1.);
#547 = DIRECTION('',(0.,1.,0.));
#548 = ORIENTED_EDGE('',*,*,#549,.F.);
#549 = EDGE_CURVE('',#550,#542,#552,.T.);
#550 = VERTEX_POINT('',#551);
#551 = CARTESIAN_POINT('',(1.52,0.25,0.));
#552 = LINE('',#553,#554);
#553 = CARTESIAN_POINT('',(1.52,0.25,0.));
#554 = VECTOR('',#555,1.);
#555 = DIRECTION('',(-0.,-0.,-1.));
#556 = ORIENTED_EDGE('',*,*,#557,.F.);
#557 = EDGE_CURVE('',#519,#550,#558,.T.);
#558 = LINE('',#559,#560);
#559 = CARTESIAN_POINT('',(1.52,-0.25,0.));
#560 = VECTOR('',#561,1.);
#561 = DIRECTION('',(0.,1.,0.));
#562 = PLANE('',#563);
#563 = AXIS2_PLACEMENT_3D('',#564,#565,#566);
#564 = CARTESIAN_POINT('',(1.52,-0.25,0.));
#565 = DIRECTION('',(1.,0.,0.));
#566 = DIRECTION('',(0.,1.,0.));
#567 = ADVANCED_FACE('',(#568),#593,.T.);
#568 = FACE_BOUND('',#569,.T.);
#569 = EDGE_LOOP('',(#570,#571,#579,#587));
#570 = ORIENTED_EDGE('',*,*,#549,.T.);
#571 = ORIENTED_EDGE('',*,*,#572,.T.);
#572 = EDGE_CURVE('',#542,#573,#575,.T.);
#573 = VERTEX_POINT('',#574);
#574 = CARTESIAN_POINT('',(1.02,0.25,-5.));
#575 = LINE('',#576,#577);
#576 = CARTESIAN_POINT('',(1.52,0.25,-5.));
#577 = VECTOR('',#578,1.);
#578 = DIRECTION('',(-1.,0.,0.));
#579 = ORIENTED_EDGE('',*,*,#580,.F.);
#580 = EDGE_CURVE('',#581,#573,#583,.T.);
#581 = VERTEX_POINT('',#582);
#582 = CARTESIAN_POINT('',(1.02,0.25,0.));
#583 = LINE('',#584,#585);
#584 = CARTESIAN_POINT('',(1.02,0.25,0.));
#585 = VECTOR('',#586,1.);
#586 = DIRECTION('',(-0.,-0.,-1.));
#587 = ORIENTED_EDGE('',*,*,#588,.F.);
#588 = EDGE_CURVE('',#550,#581,#589,.T.);
#589 = LINE('',#590,#591);
#590 = CARTESIAN_POINT('',(1.52,0.25,0.));
#591 = VECTOR('',#592,1.);
#592 = DIRECTION('',(-1.,0.,0.));
#593 = PLANE('',#594);
#594 = AXIS2_PLACEMENT_3D('',#595,#596,#597);
#595 = CARTESIAN_POINT('',(1.52,0.25,0.));
#596 = DIRECTION('',(0.,1.,0.));
#597 = DIRECTION('',(-1.,0.,0.));
#598 = ADVANCED_FACE('',(#599),#615,.T.);
#599 = FACE_BOUND('',#600,.T.);
#600 = EDGE_LOOP('',(#601,#602,#608,#609));
#601 = ORIENTED_EDGE('',*,*,#580,.T.);
#602 = ORIENTED_EDGE('',*,*,#603,.T.);
#603 = EDGE_CURVE('',#573,#503,#604,.T.);
#604 = LINE('',#605,#606);
#605 = CARTESIAN_POINT('',(1.02,0.25,-5.));
#606 = VECTOR('',#607,1.);
#607 = DIRECTION('',(0.,-1.,0.));
#608 = ORIENTED_EDGE('',*,*,#500,.F.);
#609 = ORIENTED_EDGE('',*,*,#610,.F.);
#610 = EDGE_CURVE('',#581,#501,#611,.T.);
#611 = LINE('',#612,#613);
#612 = CARTESIAN_POINT('',(1.02,0.25,0.));
#613 = VECTOR('',#614,1.);
#614 = DIRECTION('',(0.,-1.,0.));
#615 = PLANE('',#616);
#616 = AXIS2_PLACEMENT_3D('',#617,#618,#619);
#617 = CARTESIAN_POINT('',(1.02,0.25,0.));
#618 = DIRECTION('',(-1.,0.,0.));
#619 = DIRECTION('',(0.,-1.,0.));
#620 = ADVANCED_FACE('',(#621),#627,.T.);
#621 = FACE_BOUND('',#622,.T.);
#622 = EDGE_LOOP('',(#623,#624,#625,#626));
#623 = ORIENTED_EDGE('',*,*,#526,.T.);
#624 = ORIENTED_EDGE('',*,*,#557,.T.);
#625 = ORIENTED_EDGE('',*,*,#588,.T.);
#626 = ORIENTED_EDGE('',*,*,#610,.T.);
#627 = PLANE('',#628);
#628 = AXIS2_PLACEMENT_3D('',#629,#630,#631);
#629 = CARTESIAN_POINT('',(1.27,0.,0.));
#630 = DIRECTION('',(0.,0.,1.));
#631 = DIRECTION('',(1.,0.,0.));
#632 = ADVANCED_FACE('',(#633),#639,.F.);
#633 = FACE_BOUND('',#634,.F.);
#634 = EDGE_LOOP('',(#635,#636,#637,#638));
#635 = ORIENTED_EDGE('',*,*,#510,.T.);
#636 = ORIENTED_EDGE('',*,*,#541,.T.);
#637 = ORIENTED_EDGE('',*,*,#572,.T.);
#638 = ORIENTED_EDGE('',*,*,#603,.T.);
#639 = PLANE('',#640);
#640 = AXIS2_PLACEMENT_3D('',#641,#642,#643);
#641 = CARTESIAN_POINT('',(1.27,0.,-5.));
#642 = DIRECTION('',(0.,0.,1.));
#643 = DIRECTION('',(1.,0.,0.));
#644 = ( GEOMETRIC_REPRESENTATION_CONTEXT(3) 
GLOBAL_UNCERTAINTY_ASSIGNED_CONTEXT((#648)) GLOBAL_UNIT_ASSIGNED_CONTEXT
((#645,#646,#647)) REPRESENTATION_CONTEXT('Context #1',
  '3D Context with UNIT and UNCERTAINTY') );
#645 = ( LENGTH_UNIT() NAMED_UNIT(*) SI_UNIT(.MILLI.,.METRE.) );
#646 = ( NAMED_UNIT(*) PLANE_ANGLE_UNIT() SI_UNIT($,.RADIAN.) );
#647 = ( NAMED_UNIT(*) SI_UNIT($,.STERADIAN.) SOLID_ANGLE_UNIT() );
#648 = UNCERTAINTY_MEASURE_WITH_UNIT(LENGTH_MEASURE(1.E-07),#645,
  'distance_accuracy_value','confusion accuracy');
#649 = CONTEXT_DEPENDENT_SHAPE_REPRESENTATION(#650,#652);
#650 = ( REPRESENTATION_RELATIONSHIP('','',#493,#293) 
REPRESENTATION_RELATIONSHIP_WITH_TRANSFORMATION(#651) 
SHAPE_REPRESENTATION_RELATIONSHIP() );
#651 = ITEM_DEFINED_TRANSFORMATION('','',#11,#298);
#652 = PRODUCT_DEFINITION_SHAPE('Placement','Placement of an item',#653
  );
#653 = NEXT_ASSEMBLY_USAGE_OCCURRENCE('14','PinB','',#288,#488,$);
#654 = PRODUCT_RELATED_PRODUCT_CATEGORY('part',$,(#490));
#655 = SHAPE_DEFINITION_REPRESENTATION(#656,#662);
#656 = PRODUCT_DEFINITION_SHAPE('','',#657);
#657 = PRODUCT_DEFINITION('design','',#658,#661);
#658 = PRODUCT_DEFINITION_FORMATION('','',#659);
#659 = PRODUCT('Body','Body','',(#660));
#660 = PRODUCT_CONTEXT('',#2,'mechanical');
#661 = PRODUCT_DEFINITION_CONTEXT('part definition',#2,'design');
#662 = SHAPE_REPRESENTATION('',(#11,#663,#813),#963);
#663 = MANIFOLD_SOLID_BREP('',#664);
#664 = CLOSED_SHELL('',(#665,#705,#736,#767,#789,#801));
#665 = ADVANCED_FACE('',(#666),#700,.F.);
#666 = FACE_BOUND('',#667,.F.);
#667 = EDGE_LOOP('',(#668,#678,#686,#694));
#668 = ORIENTED_EDGE('',*,*,#669,.T.);
#669 = EDGE_CURVE('',#670,#672,#674,.T.);
#670 = VERTEX_POINT('',#671);
#671 = CARTESIAN_POINT('',(0.52,0.25,0.));
#672 = VERTEX_POINT('',#673);
#673 = CARTESIAN_POINT('',(0.52,0.25,1.));
#674 = LINE('',#675,#676);
#675 = CARTESIAN_POINT('',(0.52,0.25,0.));
#676 = VECTOR('',#677,1.);
#677 = DIRECTION('',(0.,0.,1.));
#678 = ORIENTED_EDGE('',*,*,#679,.T.);
#679 = EDGE_CURVE('',#672,#680,#682,.T.);
#680 = VERTEX_POINT('',#681);
#681 = CARTESIAN_POINT('',(0.52,-0.25,1.));
#682 = LINE('',#683,#684);
#683 = CARTESIAN_POINT('',(0.52,0.25,1.));
#684 = VECTOR('',#685,1.);
#685 = DIRECTION('',(0.,-1.,0.));
#686 = ORIENTED_EDGE('',*,*,#687,.F.);
#687 = EDGE_CURVE('',#688,#680,#690,.T.);
#688 = VERTEX_POINT('',#689);
#689 = CARTESIAN_POINT('',(0.52,-0.25,0.));
#690 = LINE('',#691,#692);
#691 = CARTESIAN_POINT('',(0.52,-0.25,0.));
#692 = VECTOR('',#693,1.);
#693 = DIRECTION('',(0.,0.,1.));
#694 = ORIENTED_EDGE('',*,*,#695,.F.);
#695 = EDGE_CURVE('',#670,#688,#696,.T.);
#696 = LINE('',#697,#698);
#697 = CARTESIAN_POINT('',(0.52,0.25,0.));
#698 = VECTOR('',#699,1.);
#699 = DIRECTION('',(0.,-1.,0.));
#700 = PLANE('',#701);
#701 = AXIS2_PLACEMENT_3D('',#702,#703,#704);
#702 = CARTESIAN_POINT('',(0.52,0.25,0.));
#703 = DIRECTION('',(1.,0.,0.));
#704 = DIRECTION('',(0.,-1.,0.));
#705 = ADVANCED_FACE('',(#706),#731,.F.);
#706 = FACE_BOUND('',#707,.F.);
#707 = EDGE_LOOP('',(#708,#709,#717,#725));
#708 = ORIENTED_EDGE('',*,*,#687,.T.);
#709 = ORIENTED_EDGE('',*,*,#710,.T.);
#710 = EDGE_CURVE('',#680,#711,#713,.T.);
#711 = VERTEX_POINT('',#712);
#712 = CARTESIAN_POINT('',(1.52,-0.25,1.));
#713 = LINE('',#714,#715);
#714 = CARTESIAN_POINT('',(0.52,-0.25,1.));
#715 = VECTOR('',#716,1.);
#716 = DIRECTION('',(1.,0.,0.));
#717 = ORIENTED_EDGE('',*,*,#718,.F.);
#718 = EDGE_CURVE('',#719,#711,#721,.T.);
#719 = VERTEX_POINT('',#720);
#720 = CARTESIAN_POINT('',(1.52,-0.25,0.));
#721 = LINE('',#722,#723);
#722 = CARTESIAN_POINT('',(1.52,-0.25,0.));
#723 = VECTOR('',#724,1.);
#724 = DIRECTION('',(0.,0.,1.));
#725 = ORIENTED_EDGE('',*,*,#726,.F.);
#726 = EDGE_CURVE('',#688,#719,#727,.T.);
#727 = LINE('',#728,#729);
#728 = CARTESIAN_POINT('',(0.52,-0.25,0.));
#729 = VECTOR('',#730,1.);
#730 = DIRECTION('',(1.,0.,0.));
#731 = PLANE('',#732);
#732 = AXIS2_PLACEMENT_3D('',#733,#734,#735);
#733 = CARTESIAN_POINT('',(0.52,-0.25,0.));
#734 = DIRECTION('',(0.,1.,0.));
#735 = DIRECTION('',(1.,0.,0.));
#736 = ADVANCED_FACE('',(#737),#762,.F.);
#737 = FACE_BOUND('',#738,.F.);
#738 = EDGE_LOOP('',(#739,#740,#748,#756));
#739 = ORIENTED_EDGE('',*,*,#718,.T.);
#740 = ORIENTED_EDGE('',*,*,#741,.T.);
#741 = EDGE_CURVE('',#711,#742,#744,.T.);
#742 = VERTEX_POINT('',#743);
#743 = CARTESIAN_POINT('',(1.52,0.25,1.));
#744 = LINE('',#745,#746);
#745 = CARTESIAN_POINT('',(1.52,-0.25,1.));
#746 = VECTOR('',#747,1.);
#747 = DIRECTION('',(0.,1.,0.));
#748 = ORIENTED_EDGE('',*,*,#749,.F.);
#749 = EDGE_CURVE('',#750,#742,#752,.T.);
#750 = VERTEX_POINT('',#751);
#751 = CARTESIAN_POINT('',(1.52,0.25,0.));
#752 = LINE('',#753,#754);
#753 = CARTESIAN_POINT('',(1.52,0.25,0.));
#754 = VECTOR('',#755,1.);
#755 = DIRECTION('',(0.,0.,1.));
#756 = ORIENTED_EDGE('',*,*,#757,.F.);
#757 = EDGE_CURVE('',#719,#750,#758,.T.);
#758 = LINE('',#759,#760);
#759 = CARTESIAN_POINT('',(1.52,-0.25,0.));
#760 = VECTOR('',#761,1.);
#761 = DIRECTION('',(0.,1.,0.));
#762 = PLANE('',#763);
#763 = AXIS2_PLACEMENT_3D('',#764,#765,#766);
#764 = CARTESIAN_POINT('',(1.52,-0.25,0.));
#765 = DIRECTION('',(-1.,0.,0.));
#766 = DIRECTION('',(0.,1.,0.));
#767 = ADVANCED_FACE('',(#768),#784,.F.);
#768 = FACE_BOUND('',#769,.F.);
#769 = EDGE_LOOP('',(#770,#771,#777,#778));
#770 = ORIENTED_EDGE('',*,*,#749,.T.);
#771 = ORIENTED_EDGE('',*,*,#772,.T.);
#772 = EDGE_CURVE('',#742,#672,#773,.T.);
#773 = LINE('',#774,#775);
#774 = CARTESIAN_POINT('',(1.52,0.25,1.));
#775 = VECTOR('',#776,1.);
#776 = DIRECTION('',(-1.,0.,0.));
#777 = ORIENTED_EDGE('',*,*,#669,.F.);
#778 = ORIENTED_EDGE('',*,*,#779,.F.);
#779 = EDGE_CURVE('',#750,#670,#780,.T.);
#780 = LINE('',#781,#782);
#781 = CARTESIAN_POINT('',(1.52,0.25,0.));
#782 = VECTOR('',#783,1.);
#783 = DIRECTION('',(-1.,0.,0.));
#784 = PLANE('',#785);
#785 = AXIS2_PLACEMENT_3D('',#786,#787,#788);
#786 = CARTESIAN_POINT('',(1.52,0.25,0.));
#787 = DIRECTION('',(0.,-1.,0.));
#788 = DIRECTION('',(-1.,0.,0.));
#789 = ADVANCED_FACE('',(#790),#796,.F.);
#790 = FACE_BOUND('',#791,.F.);
#791 = EDGE_LOOP('',(#792,#793,#794,#795));
#792 = ORIENTED_EDGE('',*,*,#695,.T.);
#793 = ORIENTED_EDGE('',*,*,#726,.T.);
#794 = ORIENTED_EDGE('',*,*,#757,.T.);
#795 = ORIENTED_EDGE('',*,*,#779,.T.);
#796 = PLANE('',#797);
#797 = AXIS2_PLACEMENT_3D('',#798,#799,#800);
#798 = CARTESIAN_POINT('',(0.,0.,0.));
#799 = DIRECTION('',(0.,0.,1.));
#800 = DIRECTION('',(1.,0.,0.));
#801 = ADVANCED_FACE('',(#802),#808,.T.);
#802 = FACE_BOUND('',#803,.T.);
#803 = EDGE_LOOP('',(#804,#805,#806,#807));
#804 = ORIENTED_EDGE('',*,*,#679,.T.);
#805 = ORIENTED_EDGE('',*,*,#710,.T.);
#806 = ORIENTED_EDGE('',*,*,#741,.T.);
#807 = ORIENTED_EDGE('',*,*,#772,.T.);
#808 = PLANE('',#809);
#809 = AXIS2_PLACEMENT_3D('',#810,#811,#812);
#810 = CARTESIAN_POINT('',(0.,0.,1.));
#811 = DIRECTION('',(0.,0.,1.));
#812 = DIRECTION('',(1.,0.,0.));
#813 = MANIFOLD_SOLID_BREP('',#814);
#814 = CLOSED_SHELL('',(#815,#855,#886,#917,#939,#951));
#815 = ADVANCED_FACE('',(#816),#850,.F.);
#816 = FACE_BOUND('',#817,.F.);
#817 = EDGE_LOOP('',(#818,#828,#836,#844));
#818 = ORIENTED_EDGE('',*,*,#819,.T.);
#819 = EDGE_CURVE('',#820,#822,#824,.T.);
#820 = VERTEX_POINT('',#821);
#821 = CARTESIAN_POINT('',(-1.52,0.25,0.));
#822 = VERTEX_POINT('',#823);
#823 = CARTESIAN_POINT('',(-1.52,0.25,1.));
#824 = LINE('',#825,#826);
#825 = CARTESIAN_POINT('',(-1.52,0.25,0.));
#826 = VECTOR('',#827,1.);
#827 = DIRECTION('',(0.,0.,1.));
#828 = ORIENTED_EDGE('',*,*,#829,.T.);
#829 = EDGE_CURVE('',#822,#830,#832,.T.);
#830 = VERTEX_POINT('',#831);
#831 = CARTESIAN_POINT('',(-1.52,-0.25,1.));
#832 = LINE('',#833,#834);
#833 = CARTESIAN_POINT('',(-1.52,0.25,1.));
#834 = VECTOR('',#835,1.);
#835 = DIRECTION('',(0.,-1.,0.));
#836 = ORIENTED_EDGE('',*,*,#837,.F.);
#837 = EDGE_CURVE('',#838,#830,#840,.T.);
#838 = VERTEX_POINT('',#839);
#839 = CARTESIAN_POINT('',(-1.52,-0.25,0.));
#840 = LINE('',#841,#842);
#841 = CARTESIAN_POINT('',(-1.52,-0.25,0.));
#842 = VECTOR('',#843,1.);
#843 = DIRECTION('',(0.,0.,1.));
#844 = ORIENTED_EDGE('',*,*,#845,.F.);
#845 = EDGE_CURVE('',#820,#838,#846,.T.);
#846 = LINE('',#847,#848);
#847 = CARTESIAN_POINT('',(-1.52,0.25,0.));
#848 = VECTOR('',#849,1.);
#849 = DIRECTION('',(0.,-1.,0.));
#850 = PLANE('',#851);
#851 = AXIS2_PLACEMENT_3D('',#852,#853,#854);
#852 = CARTESIAN_POINT('',(-1.52,0.25,0.));
#853 = DIRECTION('',(1.,0.,0.));
#854 = DIRECTION('',(0.,-1.,0.));
#855 = ADVANCED_FACE('',(#856),#881,.F.);
#856 = FACE_BOUND('',#857,.F.);
#857 = EDGE_LOOP('',(#858,#859,#867,#875));
#858 = ORIENTED_EDGE('',*,*,#837,.T.);
#859 = ORIENTED_EDGE('',*,*,#860,.T.);
#860 = EDGE_CURVE('',#830,#861,#863,.T.);
#861 = VERTEX_POINT('',#862);
#862 = CARTESIAN_POINT('',(-0.52,-0.25,1.));
#863 = LINE('',#864,#865);
#864 = CARTESIAN_POINT('',(-1.52,-0.25,1.));
#865 = VECTOR('',#866,1.);
#866 = DIRECTION('',(1.,0.,0.));
#867 = ORIENTED_EDGE('',*,*,#868,.F.);
#868 = EDGE_CURVE('',#869,#861,#871,.T.);
#869 = VERTEX_POINT('',#870);
#870 = CARTESIAN_POINT('',(-0.52,-0.25,0.));
#871 = LINE('',#872,#873);
#872 = CARTESIAN_POINT('',(-0.52,-0.25,0.));
#873 = VECTOR('',#874,1.);
#874 = DIRECTION('',(0.,0.,1.));
#875 = ORIENTED_EDGE('',*,*,#876,.F.);
#876 = EDGE_CURVE('',#838,#869,#877,.T.);
#877 = LINE('',#878,#879);
#878 = CARTESIAN_POINT('',(-1.52,-0.25,0.));
#879 = VECTOR('',#880,1.);
#880 = DIRECTION('',(1.,0.,0.));
#881 = PLANE('',#882);
#882 = AXIS2_PLACEMENT_3D('',#883,#884,#885);
#883 = CARTESIAN_POINT('',(-1.52,-0.25,0.));
#884 = DIRECTION('',(0.,1.,0.));
#885 = DIRECTION('',(1.,0.,0.));
#886 = ADVANCED_FACE('',(#887),#912,.F.);
#887 = FACE_BOUND('',#888,.F.);
#888 = EDGE_LOOP('',(#889,#890,#898,#906));
#889 = ORIENTED_EDGE('',*,*,#868,.T.);
#890 = ORIENTED_EDGE('',*,*,#891,.T.);
#891 = EDGE_CURVE('',#861,#892,#894,.T.);
#892 = VERTEX_POINT('',#893);
#893 = CARTESIAN_POINT('',(-0.52,0.25,1.));
#894 = LINE('',#895,#896);
#895 = CARTESIAN_POINT('',(-0.52,-0.25,1.));
#896 = VECTOR('',#897,1.);
#897 = DIRECTION('',(0.,1.,0.));
#898 = ORIENTED_EDGE('',*,*,#899,.F.);
#899 = EDGE_CURVE('',#900,#892,#902,.T.);
#900 = VERTEX_POINT('',#901);
#901 = CARTESIAN_POINT('',(-0.52,0.25,0.));
#902 = LINE('',#903,#904);
#903 = CARTESIAN_POINT('',(-0.52,0.25,0.));
#904 = VECTOR('',#905,1.);
#905 = DIRECTION('',(0.,0.,1.));
#906 = ORIENTED_EDGE('',*,*,#907,.F.);
#907 = EDGE_CURVE('',#869,#900,#908,.T.);
#908 = LINE('',#909,#910);
#909 = CARTESIAN_POINT('',(-0.52,-0.25,0.));
#910 = VECTOR('',#911,1.);
#911 = DIRECTION('',(0.,1.,0.));
#912 = PLANE('',#913);
#913 = AXIS2_PLACEMENT_3D('',#914,#915,#916);
#914 = CARTESIAN_POINT('',(-0.52,-0.25,0.));
#915 = DIRECTION('',(-1.,0.,0.));
#916 = DIRECTION('',(0.,1.,0.));
#917 = ADVANCED_FACE('',(#918),#934,.F.);
#918 = FACE_BOUND('',#919,.F.);
#919 = EDGE_LOOP('',(#920,#921,#927,#928));
#920 = ORIENTED_EDGE('',*,*,#899,.T.);
#921 = ORIENTED_EDGE('',*,*,#922,.T.);
#922 = EDGE_CURVE('',#892,#822,#923,.T.);
#923 = LINE('',#924,#925);
#924 = CARTESIAN_POINT('',(-0.52,0.25,1.));
#925 = VECTOR('',#926,1.);
#926 = DIRECTION('',(-1.,0.,0.));
#927 = ORIENTED_EDGE('',*,*,#819,.F.);
#928 = ORIENTED_EDGE('',*,*,#929,.F.);
#929 = EDGE_CURVE('',#900,#820,#930,.T.);
#930 = LINE('',#931,#932);
#931 = CARTESIAN_POINT('',(-0.52,0.25,0.));
#932 = VECTOR('',#933,1.);
#933 = DIRECTION('',(-1.,0.,0.));
#934 = PLANE('',#935);
#935 = AXIS2_PLACEMENT_3D('',#936,#937,#938);
#936 = CARTESIAN_POINT('',(-0.52,0.25,0.));
#937 = DIRECTION('',(0.,-1.,0.));
#938 = DIRECTION('',(-1.,0.,0.));
#939 = ADVANCED_FACE('',(#940),#946,.F.);
#940 = FACE_BOUND('',#941,.F.);
#941 = EDGE_LOOP('',(#942,#943,#944,#945));
#942 = ORIENTED_EDGE('',*,*,#845,.T.);
#943 = ORIENTED_EDGE('',*,*,#876,.T.);
#944 = ORIENTED_EDGE('',*,*,#907,.T.);
#945 = ORIENTED_EDGE('',*,*,#929,.T.);
#946 = PLANE('',#947);
#947 = AXIS2_PLACEMENT_3D('',#948,#949,#950);
#948 = CARTESIAN_POINT('',(0.,0.,0.));
#949 = DIRECTION('',(0.,0.,1.));
#950 = DIRECTION('',(1.,0.,0.));
#951 = ADVANCED_FACE('',(#952),#958,.T.);
#952 = FACE_BOUND('',#953,.T.);
#953 = EDGE_LOOP('',(#954,#955,#956,#957));
#954 = ORIENTED_EDGE('',*,*,#829,.T.);
#955 = ORIENTED_EDGE('',*,*,#860,.T.);
#956 = ORIENTED_EDGE('',*,*,#891,.T.);
#957 = ORIENTED_EDGE('',*,*,#922,.T.);
#958 = PLANE('',#959);
#959 = AXIS2_PLACEMENT_3D('',#960,#961,#962);
#960 = CARTESIAN_POINT('',(0.,0.,1.));
#961 = DIRECTION('',(0.,0.,1.));
#962 = DIRECTION('',(1.,0.,0.));
#963 = ( GEOMETRIC_REPRESENTATION_CONTEXT(3) 
GLOBAL_UNCERTAINTY_ASSIGNED_CONTEXT((#967)) GLOBAL_UNIT_ASSIGNED_CONTEXT
((#964,#965,#966)) REPRESENTATION_CONTEXT('Context #1',
  '3D Context with UNIT and UNCERTAINTY') );
#964 = ( LENGTH_UNIT() NAMED_UNIT(*) SI_UNIT(.MILLI.,.METRE.) );
#965 = ( NAMED_UNIT(*) PLANE_ANGLE_UNIT() SI_UNIT($,.RADIAN.) );
#966 = ( NAMED_UNIT(*) SI_UNIT($,.STERADIAN.) SOLID_ANGLE_UNIT() );
#967 = UNCERTAINTY_MEASURE_WITH_UNIT(LENGTH_MEASURE(1.E-07),#964,
  'distance_accuracy_value','confusion accuracy');
#968 = CONTEXT_DEPENDENT_SHAPE_REPRESENTATION(#969,#971);
#969 = ( REPRESENTATION_RELATIONSHIP('','',#662,#293) 
REPRESENTATION_RELATIONSHIP_WITH_TRANSFORMATION(#970) 
SHAPE_REPRESENTATION_RELATIONSHIP() );
#970 = ITEM_DEFINED_TRANSFORMATION('','',#11,#302);
#971 = PRODUCT_DEFINITION_SHAPE('Placement','Placement of an item',#972
  );
#972 = NEXT_ASSEMBLY_USAGE_OCCURRENCE('15','Body','',#288,#657,$);
#973 = PRODUCT_RELATED_PRODUCT_CATEGORY('part',$,(#659));
#974 = MECHANICAL_DESIGN_GEOMETRIC_PRESENTATION_REPRESENTATION('',(#975)
  ,#475);
#975 = STYLED_ITEM('color',(#976),#325);
#976 = PRESENTATION_STYLE_ASSIGNMENT((#977,#983));
#977 = SURFACE_STYLE_USAGE(.BOTH.,#978);
#978 = SURFACE_SIDE_STYLE('',(#979));
#979 = SURFACE_STYLE_FILL_AREA(#980);
#980 = FILL_AREA_STYLE('',(#981));
#981 = FILL_AREA_STYLE_COLOUR('',#982);
#982 = COLOUR_RGB('',0.800000010877,0.800000010877,0.901960800373);
#983 = CURVE_STYLE('',#984,POSITIVE_LENGTH_MEASURE(0.1),#985);
#984 = DRAUGHTING_PRE_DEFINED_CURVE_FONT('continuous');
#985 = COLOUR_RGB('',9.803921802644E-02,9.803921802644E-02,
  9.803921802644E-02);
#986 = MECHANICAL_DESIGN_GEOMETRIC_PRESENTATION_REPRESENTATION('',(#987)
  ,#203);
#987 = STYLED_ITEM('color',(#988),#150);
#988 = PRESENTATION_STYLE_ASSIGNMENT((#989,#995));
#989 = SURFACE_STYLE_USAGE(.BOTH.,#990);
#990 = SURFACE_SIDE_STYLE('',(#991));
#991 = SURFACE_STYLE_FILL_AREA(#992);
#992 = FILL_AREA_STYLE('',(#993));
#993 = FILL_AREA_STYLE_COLOUR('',#994);
#994 = DRAUGHTING_PRE_DEFINED_COLOUR('white');
#995 = CURVE_STYLE('',#996,POSITIVE_LENGTH_MEASURE(0.1),#985);
#996 = DRAUGHTING_PRE_DEFINED_CURVE_FONT('continuous');
#997 = MECHANICAL_DESIGN_GEOMETRIC_PRESENTATION_REPRESENTATION('',(#998)
  ,#275);
#998 = STYLED_ITEM('color',(#999),#222);
#999 = PRESENTATION_STYLE_ASSIGNMENT((#1000,#1005));
#1000 = SURFACE_STYLE_USAGE(.BOTH.,#1001);
#1001 = SURFACE_SIDE_STYLE('',(#1002));
#1002 = SURFACE_STYLE_FILL_AREA(#1003);
#1003 = FILL_AREA_STYLE('',(#1004));
#1004 = FILL_AREA_STYLE_COLOUR('',#994);
#1005 = CURVE_STYLE('',#1006,POSITIVE_LENGTH_MEASURE(0.1),#985);
#1006 = DRAUGHTING_PRE_DEFINED_CURVE_FONT('continuous');
#1007 = MECHANICAL_DESIGN_GEOMETRIC_PRESENTATION_REPRESENTATION('',(
    #1008),#644);
#1008 = STYLED_ITEM('color',(#1009),#494);
#1009 = PRESENTATION_STYLE_ASSIGNMENT((#1010,#1015));
#1010 = SURFACE_STYLE_USAGE(.BOTH.,#1011);
#1011 = SURFACE_SIDE_STYLE('',(#1012));
#1012 = SURFACE_STYLE_FILL_AREA(#1013);
#1013 = FILL_AREA_STYLE('',(#1014));
#1014 = FILL_AREA_STYLE_COLOUR('',#982);
#1015 = CURVE_STYLE('',#1016,POSITIVE_LENGTH_MEASURE(0.1),#985);
#1016 = DRAUGHTING_PRE_DEFINED_CURVE_FONT('continuous');
#1017 = MECHANICAL_DESIGN_GEOMETRIC_PRESENTATION_REPRESENTATION('',(
    #1018,#1028),#963);
#1018 = STYLED_ITEM('color',(#1019),#663);
#1019 = PRESENTATION_STYLE_ASSIGNMENT((#1020,#1025));
#1020 = SURFACE_STYLE_USAGE(.BOTH.,#1021);
#1021 = SURFACE_SIDE_STYLE('',(#1022));
#1022 = SURFACE_STYLE_FILL_AREA(#1023);
#1023 = FILL_AREA_STYLE('',(#1024));
#1024 = FILL_AREA_STYLE_COLOUR('',#982);
#1025 = CURVE_STYLE('',#1026,POSITIVE_LENGTH_MEASURE(0.1),#1027);
#1026 = DRAUGHTING_PRE_DEFINED_CURVE_FONT('continuous');
#1027 = DRAUGHTING_PRE_DEFINED_COLOUR('black');
#1028 = STYLED_ITEM('color',(#1029),#813);
#1029 = PRESENTATION_STYLE_ASSIGNMENT((#1030,#1035));
#1030 = SURFACE_STYLE_USAGE(.BOTH.,#1031);
#1031 = SURFACE_SIDE_STYLE('',(#1032));
#1032 = SURFACE_STYLE_FILL_AREA(#1033);
#1033 = FILL_AREA_STYLE('',(#1034));
#1034 = FILL_AREA_STYLE_COLOUR('',#982);
#1035 = CURVE_STYLE('',#1036,POSITIVE_LENGTH_MEASURE(0.1),#1027);
#1036 = DRAUGHTING_PRE_DEFINED_CURVE_FONT('continuous');
#1037 = MECHANICAL_DESIGN_GEOMETRIC_PRESENTATION_REPRESENTATION('',(
    #1038),#131);
#1038 = STYLED_ITEM('color',(#1039),#68);
#1039 = PRESENTATION_STYLE_ASSIGNMENT((#1040,#1045));
#1040 = SURFACE_STYLE_USAGE(.BOTH.,#1041);
#1041 = SURFACE_SIDE_STYLE('',(#1042));
#1042 = SURFACE_STYLE_FILL_AREA(#1043);
#1043 = FILL_AREA_STYLE('',(#1044));
#1044 = FILL_AREA_STYLE_COLOUR('',#994);
#1045 = CURVE_STYLE('',#1046,POSITIVE_LENGTH_MEASURE(0.1),#985);
#1046 = DRAUGHTING_PRE_DEFINED_CURVE_FONT('continuous');
ENDSEC;
END-ISO-10303-21;
