ISO-10303-21;
HEADER;
FILE_DESCRIPTION(('FreeCAD Model'),'2;1');
FILE_NAME('Open CASCADE Shape Model','2026-06-24T10:25:57',(''),(''),
  'Open CASCADE STEP processor 7.8','FreeCAD','Unknown');
FILE_SCHEMA(('AUTOMOTIVE_DESIGN { 1 0 10303 214 1 1 1 1 }'));
ENDSEC;
DATA;
#1 = APPLICATION_PROTOCOL_DEFINITION('international standard',
  'automotive_design',2000,#2);
#2 = APPLICATION_CONTEXT(
  'core data for automotive mechanical design processes');
#3 = SHAPE_DEFINITION_REPRESENTATION(#4,#10);
#4 = PRODUCT_DEFINITION_SHAPE('','',#5);
#5 = PRODUCT_DEFINITION('design','',#6,#9);
#6 = PRODUCT_DEFINITION_FORMATION('','',#7);
#7 = PRODUCT('L_934MD_1LI1LGD','L_934MD_1LI1LGD','',(#8));
#8 = PRODUCT_CONTEXT('',#2,'mechanical');
#9 = PRODUCT_DEFINITION_CONTEXT('part definition',#2,'design');
#10 = SHAPE_REPRESENTATION('',(#11,#15,#19,#23,#27,#31,#35),#39);
#11 = AXIS2_PLACEMENT_3D('',#12,#13,#14);
#12 = CARTESIAN_POINT('',(0.,0.,0.));
#13 = DIRECTION('',(0.,0.,1.));
#14 = DIRECTION('',(1.,0.,-0.));
#15 = AXIS2_PLACEMENT_3D('',#16,#17,#18);
#16 = CARTESIAN_POINT('',(-1.27,0.,0.));
#17 = DIRECTION('',(0.,0.,1.));
#18 = DIRECTION('',(1.,0.,0.));
#19 = AXIS2_PLACEMENT_3D('',#20,#21,#22);
#20 = CARTESIAN_POINT('',(1.27,0.,0.));
#21 = DIRECTION('',(0.,0.,1.));
#22 = DIRECTION('',(1.,0.,0.));
#23 = AXIS2_PLACEMENT_3D('',#24,#25,#26);
#24 = CARTESIAN_POINT('',(-1.27,2.54,0.));
#25 = DIRECTION('',(0.,0.,1.));
#26 = DIRECTION('',(1.,0.,0.));
#27 = AXIS2_PLACEMENT_3D('',#28,#29,#30);
#28 = CARTESIAN_POINT('',(1.27,2.54,0.));
#29 = DIRECTION('',(0.,0.,1.));
#30 = DIRECTION('',(1.,0.,0.));
#31 = AXIS2_PLACEMENT_3D('',#32,#33,#34);
#32 = CARTESIAN_POINT('',(0.,0.,0.));
#33 = DIRECTION('',(0.,0.,1.));
#34 = DIRECTION('',(1.,0.,0.));
#35 = AXIS2_PLACEMENT_3D('',#36,#37,#38);
#36 = CARTESIAN_POINT('',(0.,0.,0.));
#37 = DIRECTION('',(0.,0.,1.));
#38 = DIRECTION('',(1.,0.,0.));
#39 = ( GEOMETRIC_REPRESENTATION_CONTEXT(3) 
GLOBAL_UNCERTAINTY_ASSIGNED_CONTEXT((#43)) GLOBAL_UNIT_ASSIGNED_CONTEXT(
(#40,#41,#42)) REPRESENTATION_CONTEXT('Context #1',
  '3D Context with UNIT and UNCERTAINTY') );
#40 = ( LENGTH_UNIT() NAMED_UNIT(*) SI_UNIT(.MILLI.,.METRE.) );
#41 = ( NAMED_UNIT(*) PLANE_ANGLE_UNIT() SI_UNIT($,.RADIAN.) );
#42 = ( NAMED_UNIT(*) SI_UNIT($,.STERADIAN.) SOLID_ANGLE_UNIT() );
#43 = UNCERTAINTY_MEASURE_WITH_UNIT(LENGTH_MEASURE(1.E-07),#40,
  'distance_accuracy_value','confusion accuracy');
#44 = PRODUCT_RELATED_PRODUCT_CATEGORY('part',$,(#7));
#45 = SHAPE_DEFINITION_REPRESENTATION(#46,#52);
#46 = PRODUCT_DEFINITION_SHAPE('','',#47);
#47 = PRODUCT_DEFINITION('design','',#48,#51);
#48 = PRODUCT_DEFINITION_FORMATION('','',#49);
#49 = PRODUCT('A1_Pad','A1_Pad','',(#50));
#50 = PRODUCT_CONTEXT('',#2,'mechanical');
#51 = PRODUCT_DEFINITION_CONTEXT('part definition',#2,'design');
#52 = ADVANCED_BREP_SHAPE_REPRESENTATION('',(#11,#53),#203);
#53 = MANIFOLD_SOLID_BREP('',#54);
#54 = CLOSED_SHELL('',(#55,#95,#126,#157,#179,#191));
#55 = ADVANCED_FACE('',(#56),#90,.T.);
#56 = FACE_BOUND('',#57,.T.);
#57 = EDGE_LOOP('',(#58,#68,#76,#84));
#58 = ORIENTED_EDGE('',*,*,#59,.T.);
#59 = EDGE_CURVE('',#60,#62,#64,.T.);
#60 = VERTEX_POINT('',#61);
#61 = CARTESIAN_POINT('',(-0.25,0.25,0.));
#62 = VERTEX_POINT('',#63);
#63 = CARTESIAN_POINT('',(-0.25,0.25,-3.68));
#64 = LINE('',#65,#66);
#65 = CARTESIAN_POINT('',(-0.25,0.25,0.));
#66 = VECTOR('',#67,1.);
#67 = DIRECTION('',(-0.,-0.,-1.));
#68 = ORIENTED_EDGE('',*,*,#69,.T.);
#69 = EDGE_CURVE('',#62,#70,#72,.T.);
#70 = VERTEX_POINT('',#71);
#71 = CARTESIAN_POINT('',(-0.25,-0.25,-3.68));
#72 = LINE('',#73,#74);
#73 = CARTESIAN_POINT('',(-0.25,0.25,-3.68));
#74 = VECTOR('',#75,1.);
#75 = DIRECTION('',(0.,-1.,0.));
#76 = ORIENTED_EDGE('',*,*,#77,.F.);
#77 = EDGE_CURVE('',#78,#70,#80,.T.);
#78 = VERTEX_POINT('',#79);
#79 = CARTESIAN_POINT('',(-0.25,-0.25,0.));
#80 = LINE('',#81,#82);
#81 = CARTESIAN_POINT('',(-0.25,-0.25,0.));
#82 = VECTOR('',#83,1.);
#83 = DIRECTION('',(-0.,-0.,-1.));
#84 = ORIENTED_EDGE('',*,*,#85,.F.);
#85 = EDGE_CURVE('',#60,#78,#86,.T.);
#86 = LINE('',#87,#88);
#87 = CARTESIAN_POINT('',(-0.25,0.25,0.));
#88 = VECTOR('',#89,1.);
#89 = DIRECTION('',(0.,-1.,0.));
#90 = PLANE('',#91);
#91 = AXIS2_PLACEMENT_3D('',#92,#93,#94);
#92 = CARTESIAN_POINT('',(-0.25,0.25,0.));
#93 = DIRECTION('',(-1.,0.,0.));
#94 = DIRECTION('',(0.,-1.,0.));
#95 = ADVANCED_FACE('',(#96),#121,.T.);
#96 = FACE_BOUND('',#97,.T.);
#97 = EDGE_LOOP('',(#98,#99,#107,#115));
#98 = ORIENTED_EDGE('',*,*,#77,.T.);
#99 = ORIENTED_EDGE('',*,*,#100,.T.);
#100 = EDGE_CURVE('',#70,#101,#103,.T.);
#101 = VERTEX_POINT('',#102);
#102 = CARTESIAN_POINT('',(0.25,-0.25,-3.68));
#103 = LINE('',#104,#105);
#104 = CARTESIAN_POINT('',(-0.25,-0.25,-3.68));
#105 = VECTOR('',#106,1.);
#106 = DIRECTION('',(1.,0.,0.));
#107 = ORIENTED_EDGE('',*,*,#108,.F.);
#108 = EDGE_CURVE('',#109,#101,#111,.T.);
#109 = VERTEX_POINT('',#110);
#110 = CARTESIAN_POINT('',(0.25,-0.25,0.));
#111 = LINE('',#112,#113);
#112 = CARTESIAN_POINT('',(0.25,-0.25,0.));
#113 = VECTOR('',#114,1.);
#114 = DIRECTION('',(-0.,-0.,-1.));
#115 = ORIENTED_EDGE('',*,*,#116,.F.);
#116 = EDGE_CURVE('',#78,#109,#117,.T.);
#117 = LINE('',#118,#119);
#118 = CARTESIAN_POINT('',(-0.25,-0.25,0.));
#119 = VECTOR('',#120,1.);
#120 = DIRECTION('',(1.,0.,0.));
#121 = PLANE('',#122);
#122 = AXIS2_PLACEMENT_3D('',#123,#124,#125);
#123 = CARTESIAN_POINT('',(-0.25,-0.25,0.));
#124 = DIRECTION('',(0.,-1.,0.));
#125 = DIRECTION('',(1.,0.,0.));
#126 = ADVANCED_FACE('',(#127),#152,.T.);
#127 = FACE_BOUND('',#128,.T.);
#128 = EDGE_LOOP('',(#129,#130,#138,#146));
#129 = ORIENTED_EDGE('',*,*,#108,.T.);
#130 = ORIENTED_EDGE('',*,*,#131,.T.);
#131 = EDGE_CURVE('',#101,#132,#134,.T.);
#132 = VERTEX_POINT('',#133);
#133 = CARTESIAN_POINT('',(0.25,0.25,-3.68));
#134 = LINE('',#135,#136);
#135 = CARTESIAN_POINT('',(0.25,-0.25,-3.68));
#136 = VECTOR('',#137,1.);
#137 = DIRECTION('',(0.,1.,0.));
#138 = ORIENTED_EDGE('',*,*,#139,.F.);
#139 = EDGE_CURVE('',#140,#132,#142,.T.);
#140 = VERTEX_POINT('',#141);
#141 = CARTESIAN_POINT('',(0.25,0.25,0.));
#142 = LINE('',#143,#144);
#143 = CARTESIAN_POINT('',(0.25,0.25,0.));
#144 = VECTOR('',#145,1.);
#145 = DIRECTION('',(-0.,-0.,-1.));
#146 = ORIENTED_EDGE('',*,*,#147,.F.);
#147 = EDGE_CURVE('',#109,#140,#148,.T.);
#148 = LINE('',#149,#150);
#149 = CARTESIAN_POINT('',(0.25,-0.25,0.));
#150 = VECTOR('',#151,1.);
#151 = DIRECTION('',(0.,1.,0.));
#152 = PLANE('',#153);
#153 = AXIS2_PLACEMENT_3D('',#154,#155,#156);
#154 = CARTESIAN_POINT('',(0.25,-0.25,0.));
#155 = DIRECTION('',(1.,0.,0.));
#156 = DIRECTION('',(-0.,1.,0.));
#157 = ADVANCED_FACE('',(#158),#174,.T.);
#158 = FACE_BOUND('',#159,.T.);
#159 = EDGE_LOOP('',(#160,#161,#167,#168));
#160 = ORIENTED_EDGE('',*,*,#139,.T.);
#161 = ORIENTED_EDGE('',*,*,#162,.T.);
#162 = EDGE_CURVE('',#132,#62,#163,.T.);
#163 = LINE('',#164,#165);
#164 = CARTESIAN_POINT('',(0.25,0.25,-3.68));
#165 = VECTOR('',#166,1.);
#166 = DIRECTION('',(-1.,0.,0.));
#167 = ORIENTED_EDGE('',*,*,#59,.F.);
#168 = ORIENTED_EDGE('',*,*,#169,.F.);
#169 = EDGE_CURVE('',#140,#60,#170,.T.);
#170 = LINE('',#171,#172);
#171 = CARTESIAN_POINT('',(0.25,0.25,0.));
#172 = VECTOR('',#173,1.);
#173 = DIRECTION('',(-1.,0.,0.));
#174 = PLANE('',#175);
#175 = AXIS2_PLACEMENT_3D('',#176,#177,#178);
#176 = CARTESIAN_POINT('',(0.25,0.25,0.));
#177 = DIRECTION('',(0.,1.,-0.));
#178 = DIRECTION('',(-1.,0.,0.));
#179 = ADVANCED_FACE('',(#180),#186,.T.);
#180 = FACE_BOUND('',#181,.T.);
#181 = EDGE_LOOP('',(#182,#183,#184,#185));
#182 = ORIENTED_EDGE('',*,*,#85,.T.);
#183 = ORIENTED_EDGE('',*,*,#116,.T.);
#184 = ORIENTED_EDGE('',*,*,#147,.T.);
#185 = ORIENTED_EDGE('',*,*,#169,.T.);
#186 = PLANE('',#187);
#187 = AXIS2_PLACEMENT_3D('',#188,#189,#190);
#188 = CARTESIAN_POINT('',(2.22044604925E-16,0.,0.));
#189 = DIRECTION('',(0.,0.,1.));
#190 = DIRECTION('',(1.,0.,0.));
#191 = ADVANCED_FACE('',(#192),#198,.F.);
#192 = FACE_BOUND('',#193,.F.);
#193 = EDGE_LOOP('',(#194,#195,#196,#197));
#194 = ORIENTED_EDGE('',*,*,#69,.T.);
#195 = ORIENTED_EDGE('',*,*,#100,.T.);
#196 = ORIENTED_EDGE('',*,*,#131,.T.);
#197 = ORIENTED_EDGE('',*,*,#162,.T.);
#198 = PLANE('',#199);
#199 = AXIS2_PLACEMENT_3D('',#200,#201,#202);
#200 = CARTESIAN_POINT('',(2.22044604925E-16,0.,-3.68));
#201 = DIRECTION('',(0.,0.,1.));
#202 = DIRECTION('',(1.,0.,0.));
#203 = ( GEOMETRIC_REPRESENTATION_CONTEXT(3) 
GLOBAL_UNCERTAINTY_ASSIGNED_CONTEXT((#207)) GLOBAL_UNIT_ASSIGNED_CONTEXT
((#204,#205,#206)) REPRESENTATION_CONTEXT('Context #1',
  '3D Context with UNIT and UNCERTAINTY') );
#204 = ( LENGTH_UNIT() NAMED_UNIT(*) SI_UNIT(.MILLI.,.METRE.) );
#205 = ( NAMED_UNIT(*) PLANE_ANGLE_UNIT() SI_UNIT($,.RADIAN.) );
#206 = ( NAMED_UNIT(*) SI_UNIT($,.STERADIAN.) SOLID_ANGLE_UNIT() );
#207 = UNCERTAINTY_MEASURE_WITH_UNIT(LENGTH_MEASURE(1.E-07),#204,
  'distance_accuracy_value','confusion accuracy');
#208 = CONTEXT_DEPENDENT_SHAPE_REPRESENTATION(#209,#211);
#209 = ( REPRESENTATION_RELATIONSHIP('','',#52,#10) 
REPRESENTATION_RELATIONSHIP_WITH_TRANSFORMATION(#210) 
SHAPE_REPRESENTATION_RELATIONSHIP() );
#210 = ITEM_DEFINED_TRANSFORMATION('','',#11,#15);
#211 = PRODUCT_DEFINITION_SHAPE('Placement','Placement of an item',#212
  );
#212 = NEXT_ASSEMBLY_USAGE_OCCURRENCE('15','A1_Pad','',#5,#47,$);
#213 = PRODUCT_RELATED_PRODUCT_CATEGORY('part',$,(#49));
#214 = SHAPE_DEFINITION_REPRESENTATION(#215,#221);
#215 = PRODUCT_DEFINITION_SHAPE('','',#216);
#216 = PRODUCT_DEFINITION('design','',#217,#220);
#217 = PRODUCT_DEFINITION_FORMATION('','',#218);
#218 = PRODUCT('K1_Pad','K1_Pad','',(#219));
#219 = PRODUCT_CONTEXT('',#2,'mechanical');
#220 = PRODUCT_DEFINITION_CONTEXT('part definition',#2,'design');
#221 = ADVANCED_BREP_SHAPE_REPRESENTATION('',(#11,#222),#372);
#222 = MANIFOLD_SOLID_BREP('',#223);
#223 = CLOSED_SHELL('',(#224,#264,#295,#326,#348,#360));
#224 = ADVANCED_FACE('',(#225),#259,.T.);
#225 = FACE_BOUND('',#226,.T.);
#226 = EDGE_LOOP('',(#227,#237,#245,#253));
#227 = ORIENTED_EDGE('',*,*,#228,.T.);
#228 = EDGE_CURVE('',#229,#231,#233,.T.);
#229 = VERTEX_POINT('',#230);
#230 = CARTESIAN_POINT('',(-0.25,0.25,0.));
#231 = VERTEX_POINT('',#232);
#232 = CARTESIAN_POINT('',(-0.25,0.25,-3.68));
#233 = LINE('',#234,#235);
#234 = CARTESIAN_POINT('',(-0.25,0.25,0.));
#235 = VECTOR('',#236,1.);
#236 = DIRECTION('',(-0.,-0.,-1.));
#237 = ORIENTED_EDGE('',*,*,#238,.T.);
#238 = EDGE_CURVE('',#231,#239,#241,.T.);
#239 = VERTEX_POINT('',#240);
#240 = CARTESIAN_POINT('',(-0.25,-0.25,-3.68));
#241 = LINE('',#242,#243);
#242 = CARTESIAN_POINT('',(-0.25,0.25,-3.68));
#243 = VECTOR('',#244,1.);
#244 = DIRECTION('',(0.,-1.,0.));
#245 = ORIENTED_EDGE('',*,*,#246,.F.);
#246 = EDGE_CURVE('',#247,#239,#249,.T.);
#247 = VERTEX_POINT('',#248);
#248 = CARTESIAN_POINT('',(-0.25,-0.25,0.));
#249 = LINE('',#250,#251);
#250 = CARTESIAN_POINT('',(-0.25,-0.25,0.));
#251 = VECTOR('',#252,1.);
#252 = DIRECTION('',(-0.,-0.,-1.));
#253 = ORIENTED_EDGE('',*,*,#254,.F.);
#254 = EDGE_CURVE('',#229,#247,#255,.T.);
#255 = LINE('',#256,#257);
#256 = CARTESIAN_POINT('',(-0.25,0.25,0.));
#257 = VECTOR('',#258,1.);
#258 = DIRECTION('',(0.,-1.,0.));
#259 = PLANE('',#260);
#260 = AXIS2_PLACEMENT_3D('',#261,#262,#263);
#261 = CARTESIAN_POINT('',(-0.25,0.25,0.));
#262 = DIRECTION('',(-1.,0.,0.));
#263 = DIRECTION('',(0.,-1.,0.));
#264 = ADVANCED_FACE('',(#265),#290,.T.);
#265 = FACE_BOUND('',#266,.T.);
#266 = EDGE_LOOP('',(#267,#268,#276,#284));
#267 = ORIENTED_EDGE('',*,*,#246,.T.);
#268 = ORIENTED_EDGE('',*,*,#269,.T.);
#269 = EDGE_CURVE('',#239,#270,#272,.T.);
#270 = VERTEX_POINT('',#271);
#271 = CARTESIAN_POINT('',(0.25,-0.25,-3.68));
#272 = LINE('',#273,#274);
#273 = CARTESIAN_POINT('',(-0.25,-0.25,-3.68));
#274 = VECTOR('',#275,1.);
#275 = DIRECTION('',(1.,0.,0.));
#276 = ORIENTED_EDGE('',*,*,#277,.F.);
#277 = EDGE_CURVE('',#278,#270,#280,.T.);
#278 = VERTEX_POINT('',#279);
#279 = CARTESIAN_POINT('',(0.25,-0.25,0.));
#280 = LINE('',#281,#282);
#281 = CARTESIAN_POINT('',(0.25,-0.25,0.));
#282 = VECTOR('',#283,1.);
#283 = DIRECTION('',(-0.,-0.,-1.));
#284 = ORIENTED_EDGE('',*,*,#285,.F.);
#285 = EDGE_CURVE('',#247,#278,#286,.T.);
#286 = LINE('',#287,#288);
#287 = CARTESIAN_POINT('',(-0.25,-0.25,0.));
#288 = VECTOR('',#289,1.);
#289 = DIRECTION('',(1.,0.,0.));
#290 = PLANE('',#291);
#291 = AXIS2_PLACEMENT_3D('',#292,#293,#294);
#292 = CARTESIAN_POINT('',(-0.25,-0.25,0.));
#293 = DIRECTION('',(0.,-1.,0.));
#294 = DIRECTION('',(1.,0.,0.));
#295 = ADVANCED_FACE('',(#296),#321,.T.);
#296 = FACE_BOUND('',#297,.T.);
#297 = EDGE_LOOP('',(#298,#299,#307,#315));
#298 = ORIENTED_EDGE('',*,*,#277,.T.);
#299 = ORIENTED_EDGE('',*,*,#300,.T.);
#300 = EDGE_CURVE('',#270,#301,#303,.T.);
#301 = VERTEX_POINT('',#302);
#302 = CARTESIAN_POINT('',(0.25,0.25,-3.68));
#303 = LINE('',#304,#305);
#304 = CARTESIAN_POINT('',(0.25,-0.25,-3.68));
#305 = VECTOR('',#306,1.);
#306 = DIRECTION('',(0.,1.,0.));
#307 = ORIENTED_EDGE('',*,*,#308,.F.);
#308 = EDGE_CURVE('',#309,#301,#311,.T.);
#309 = VERTEX_POINT('',#310);
#310 = CARTESIAN_POINT('',(0.25,0.25,0.));
#311 = LINE('',#312,#313);
#312 = CARTESIAN_POINT('',(0.25,0.25,0.));
#313 = VECTOR('',#314,1.);
#314 = DIRECTION('',(-0.,-0.,-1.));
#315 = ORIENTED_EDGE('',*,*,#316,.F.);
#316 = EDGE_CURVE('',#278,#309,#317,.T.);
#317 = LINE('',#318,#319);
#318 = CARTESIAN_POINT('',(0.25,-0.25,0.));
#319 = VECTOR('',#320,1.);
#320 = DIRECTION('',(0.,1.,0.));
#321 = PLANE('',#322);
#322 = AXIS2_PLACEMENT_3D('',#323,#324,#325);
#323 = CARTESIAN_POINT('',(0.25,-0.25,0.));
#324 = DIRECTION('',(1.,0.,0.));
#325 = DIRECTION('',(-0.,1.,0.));
#326 = ADVANCED_FACE('',(#327),#343,.T.);
#327 = FACE_BOUND('',#328,.T.);
#328 = EDGE_LOOP('',(#329,#330,#336,#337));
#329 = ORIENTED_EDGE('',*,*,#308,.T.);
#330 = ORIENTED_EDGE('',*,*,#331,.T.);
#331 = EDGE_CURVE('',#301,#231,#332,.T.);
#332 = LINE('',#333,#334);
#333 = CARTESIAN_POINT('',(0.25,0.25,-3.68));
#334 = VECTOR('',#335,1.);
#335 = DIRECTION('',(-1.,0.,0.));
#336 = ORIENTED_EDGE('',*,*,#228,.F.);
#337 = ORIENTED_EDGE('',*,*,#338,.F.);
#338 = EDGE_CURVE('',#309,#229,#339,.T.);
#339 = LINE('',#340,#341);
#340 = CARTESIAN_POINT('',(0.25,0.25,0.));
#341 = VECTOR('',#342,1.);
#342 = DIRECTION('',(-1.,0.,0.));
#343 = PLANE('',#344);
#344 = AXIS2_PLACEMENT_3D('',#345,#346,#347);
#345 = CARTESIAN_POINT('',(0.25,0.25,0.));
#346 = DIRECTION('',(0.,1.,-0.));
#347 = DIRECTION('',(-1.,0.,0.));
#348 = ADVANCED_FACE('',(#349),#355,.T.);
#349 = FACE_BOUND('',#350,.T.);
#350 = EDGE_LOOP('',(#351,#352,#353,#354));
#351 = ORIENTED_EDGE('',*,*,#254,.T.);
#352 = ORIENTED_EDGE('',*,*,#285,.T.);
#353 = ORIENTED_EDGE('',*,*,#316,.T.);
#354 = ORIENTED_EDGE('',*,*,#338,.T.);
#355 = PLANE('',#356);
#356 = AXIS2_PLACEMENT_3D('',#357,#358,#359);
#357 = CARTESIAN_POINT('',(-2.22044604925E-16,0.,0.));
#358 = DIRECTION('',(0.,0.,1.));
#359 = DIRECTION('',(1.,0.,0.));
#360 = ADVANCED_FACE('',(#361),#367,.F.);
#361 = FACE_BOUND('',#362,.F.);
#362 = EDGE_LOOP('',(#363,#364,#365,#366));
#363 = ORIENTED_EDGE('',*,*,#238,.T.);
#364 = ORIENTED_EDGE('',*,*,#269,.T.);
#365 = ORIENTED_EDGE('',*,*,#300,.T.);
#366 = ORIENTED_EDGE('',*,*,#331,.T.);
#367 = PLANE('',#368);
#368 = AXIS2_PLACEMENT_3D('',#369,#370,#371);
#369 = CARTESIAN_POINT('',(-2.22044604925E-16,0.,-3.68));
#370 = DIRECTION('',(0.,0.,1.));
#371 = DIRECTION('',(1.,0.,0.));
#372 = ( GEOMETRIC_REPRESENTATION_CONTEXT(3) 
GLOBAL_UNCERTAINTY_ASSIGNED_CONTEXT((#376)) GLOBAL_UNIT_ASSIGNED_CONTEXT
((#373,#374,#375)) REPRESENTATION_CONTEXT('Context #1',
  '3D Context with UNIT and UNCERTAINTY') );
#373 = ( LENGTH_UNIT() NAMED_UNIT(*) SI_UNIT(.MILLI.,.METRE.) );
#374 = ( NAMED_UNIT(*) PLANE_ANGLE_UNIT() SI_UNIT($,.RADIAN.) );
#375 = ( NAMED_UNIT(*) SI_UNIT($,.STERADIAN.) SOLID_ANGLE_UNIT() );
#376 = UNCERTAINTY_MEASURE_WITH_UNIT(LENGTH_MEASURE(1.E-07),#373,
  'distance_accuracy_value','confusion accuracy');
#377 = CONTEXT_DEPENDENT_SHAPE_REPRESENTATION(#378,#380);
#378 = ( REPRESENTATION_RELATIONSHIP('','',#221,#10) 
REPRESENTATION_RELATIONSHIP_WITH_TRANSFORMATION(#379) 
SHAPE_REPRESENTATION_RELATIONSHIP() );
#379 = ITEM_DEFINED_TRANSFORMATION('','',#11,#19);
#380 = PRODUCT_DEFINITION_SHAPE('Placement','Placement of an item',#381
  );
#381 = NEXT_ASSEMBLY_USAGE_OCCURRENCE('16','K1_Pad','',#5,#216,$);
#382 = PRODUCT_RELATED_PRODUCT_CATEGORY('part',$,(#218));
#383 = SHAPE_DEFINITION_REPRESENTATION(#384,#390);
#384 = PRODUCT_DEFINITION_SHAPE('','',#385);
#385 = PRODUCT_DEFINITION('design','',#386,#389);
#386 = PRODUCT_DEFINITION_FORMATION('','',#387);
#387 = PRODUCT('A2_Pad','A2_Pad','',(#388));
#388 = PRODUCT_CONTEXT('',#2,'mechanical');
#389 = PRODUCT_DEFINITION_CONTEXT('part definition',#2,'design');
#390 = ADVANCED_BREP_SHAPE_REPRESENTATION('',(#11,#391),#541);
#391 = MANIFOLD_SOLID_BREP('',#392);
#392 = CLOSED_SHELL('',(#393,#433,#464,#495,#517,#529));
#393 = ADVANCED_FACE('',(#394),#428,.T.);
#394 = FACE_BOUND('',#395,.T.);
#395 = EDGE_LOOP('',(#396,#406,#414,#422));
#396 = ORIENTED_EDGE('',*,*,#397,.T.);
#397 = EDGE_CURVE('',#398,#400,#402,.T.);
#398 = VERTEX_POINT('',#399);
#399 = CARTESIAN_POINT('',(-0.25,0.25,0.));
#400 = VERTEX_POINT('',#401);
#401 = CARTESIAN_POINT('',(-0.25,0.25,-3.68));
#402 = LINE('',#403,#404);
#403 = CARTESIAN_POINT('',(-0.25,0.25,0.));
#404 = VECTOR('',#405,1.);
#405 = DIRECTION('',(-0.,-0.,-1.));
#406 = ORIENTED_EDGE('',*,*,#407,.T.);
#407 = EDGE_CURVE('',#400,#408,#410,.T.);
#408 = VERTEX_POINT('',#409);
#409 = CARTESIAN_POINT('',(-0.25,-0.25,-3.68));
#410 = LINE('',#411,#412);
#411 = CARTESIAN_POINT('',(-0.25,0.25,-3.68));
#412 = VECTOR('',#413,1.);
#413 = DIRECTION('',(0.,-1.,0.));
#414 = ORIENTED_EDGE('',*,*,#415,.F.);
#415 = EDGE_CURVE('',#416,#408,#418,.T.);
#416 = VERTEX_POINT('',#417);
#417 = CARTESIAN_POINT('',(-0.25,-0.25,0.));
#418 = LINE('',#419,#420);
#419 = CARTESIAN_POINT('',(-0.25,-0.25,0.));
#420 = VECTOR('',#421,1.);
#421 = DIRECTION('',(-0.,-0.,-1.));
#422 = ORIENTED_EDGE('',*,*,#423,.F.);
#423 = EDGE_CURVE('',#398,#416,#424,.T.);
#424 = LINE('',#425,#426);
#425 = CARTESIAN_POINT('',(-0.25,0.25,0.));
#426 = VECTOR('',#427,1.);
#427 = DIRECTION('',(0.,-1.,0.));
#428 = PLANE('',#429);
#429 = AXIS2_PLACEMENT_3D('',#430,#431,#432);
#430 = CARTESIAN_POINT('',(-0.25,0.25,0.));
#431 = DIRECTION('',(-1.,0.,0.));
#432 = DIRECTION('',(0.,-1.,0.));
#433 = ADVANCED_FACE('',(#434),#459,.T.);
#434 = FACE_BOUND('',#435,.T.);
#435 = EDGE_LOOP('',(#436,#437,#445,#453));
#436 = ORIENTED_EDGE('',*,*,#415,.T.);
#437 = ORIENTED_EDGE('',*,*,#438,.T.);
#438 = EDGE_CURVE('',#408,#439,#441,.T.);
#439 = VERTEX_POINT('',#440);
#440 = CARTESIAN_POINT('',(0.25,-0.25,-3.68));
#441 = LINE('',#442,#443);
#442 = CARTESIAN_POINT('',(-0.25,-0.25,-3.68));
#443 = VECTOR('',#444,1.);
#444 = DIRECTION('',(1.,0.,0.));
#445 = ORIENTED_EDGE('',*,*,#446,.F.);
#446 = EDGE_CURVE('',#447,#439,#449,.T.);
#447 = VERTEX_POINT('',#448);
#448 = CARTESIAN_POINT('',(0.25,-0.25,0.));
#449 = LINE('',#450,#451);
#450 = CARTESIAN_POINT('',(0.25,-0.25,0.));
#451 = VECTOR('',#452,1.);
#452 = DIRECTION('',(-0.,-0.,-1.));
#453 = ORIENTED_EDGE('',*,*,#454,.F.);
#454 = EDGE_CURVE('',#416,#447,#455,.T.);
#455 = LINE('',#456,#457);
#456 = CARTESIAN_POINT('',(-0.25,-0.25,0.));
#457 = VECTOR('',#458,1.);
#458 = DIRECTION('',(1.,0.,0.));
#459 = PLANE('',#460);
#460 = AXIS2_PLACEMENT_3D('',#461,#462,#463);
#461 = CARTESIAN_POINT('',(-0.25,-0.25,0.));
#462 = DIRECTION('',(0.,-1.,0.));
#463 = DIRECTION('',(1.,0.,0.));
#464 = ADVANCED_FACE('',(#465),#490,.T.);
#465 = FACE_BOUND('',#466,.T.);
#466 = EDGE_LOOP('',(#467,#468,#476,#484));
#467 = ORIENTED_EDGE('',*,*,#446,.T.);
#468 = ORIENTED_EDGE('',*,*,#469,.T.);
#469 = EDGE_CURVE('',#439,#470,#472,.T.);
#470 = VERTEX_POINT('',#471);
#471 = CARTESIAN_POINT('',(0.25,0.25,-3.68));
#472 = LINE('',#473,#474);
#473 = CARTESIAN_POINT('',(0.25,-0.25,-3.68));
#474 = VECTOR('',#475,1.);
#475 = DIRECTION('',(0.,1.,0.));
#476 = ORIENTED_EDGE('',*,*,#477,.F.);
#477 = EDGE_CURVE('',#478,#470,#480,.T.);
#478 = VERTEX_POINT('',#479);
#479 = CARTESIAN_POINT('',(0.25,0.25,0.));
#480 = LINE('',#481,#482);
#481 = CARTESIAN_POINT('',(0.25,0.25,0.));
#482 = VECTOR('',#483,1.);
#483 = DIRECTION('',(-0.,-0.,-1.));
#484 = ORIENTED_EDGE('',*,*,#485,.F.);
#485 = EDGE_CURVE('',#447,#478,#486,.T.);
#486 = LINE('',#487,#488);
#487 = CARTESIAN_POINT('',(0.25,-0.25,0.));
#488 = VECTOR('',#489,1.);
#489 = DIRECTION('',(0.,1.,0.));
#490 = PLANE('',#491);
#491 = AXIS2_PLACEMENT_3D('',#492,#493,#494);
#492 = CARTESIAN_POINT('',(0.25,-0.25,0.));
#493 = DIRECTION('',(1.,0.,0.));
#494 = DIRECTION('',(-0.,1.,0.));
#495 = ADVANCED_FACE('',(#496),#512,.T.);
#496 = FACE_BOUND('',#497,.T.);
#497 = EDGE_LOOP('',(#498,#499,#505,#506));
#498 = ORIENTED_EDGE('',*,*,#477,.T.);
#499 = ORIENTED_EDGE('',*,*,#500,.T.);
#500 = EDGE_CURVE('',#470,#400,#501,.T.);
#501 = LINE('',#502,#503);
#502 = CARTESIAN_POINT('',(0.25,0.25,-3.68));
#503 = VECTOR('',#504,1.);
#504 = DIRECTION('',(-1.,0.,0.));
#505 = ORIENTED_EDGE('',*,*,#397,.F.);
#506 = ORIENTED_EDGE('',*,*,#507,.F.);
#507 = EDGE_CURVE('',#478,#398,#508,.T.);
#508 = LINE('',#509,#510);
#509 = CARTESIAN_POINT('',(0.25,0.25,0.));
#510 = VECTOR('',#511,1.);
#511 = DIRECTION('',(-1.,0.,0.));
#512 = PLANE('',#513);
#513 = AXIS2_PLACEMENT_3D('',#514,#515,#516);
#514 = CARTESIAN_POINT('',(0.25,0.25,0.));
#515 = DIRECTION('',(0.,1.,-0.));
#516 = DIRECTION('',(-1.,0.,0.));
#517 = ADVANCED_FACE('',(#518),#524,.T.);
#518 = FACE_BOUND('',#519,.T.);
#519 = EDGE_LOOP('',(#520,#521,#522,#523));
#520 = ORIENTED_EDGE('',*,*,#423,.T.);
#521 = ORIENTED_EDGE('',*,*,#454,.T.);
#522 = ORIENTED_EDGE('',*,*,#485,.T.);
#523 = ORIENTED_EDGE('',*,*,#507,.T.);
#524 = PLANE('',#525);
#525 = AXIS2_PLACEMENT_3D('',#526,#527,#528);
#526 = CARTESIAN_POINT('',(2.22044604925E-16,-4.440892098501E-16,0.));
#527 = DIRECTION('',(0.,0.,1.));
#528 = DIRECTION('',(1.,0.,0.));
#529 = ADVANCED_FACE('',(#530),#536,.F.);
#530 = FACE_BOUND('',#531,.F.);
#531 = EDGE_LOOP('',(#532,#533,#534,#535));
#532 = ORIENTED_EDGE('',*,*,#407,.T.);
#533 = ORIENTED_EDGE('',*,*,#438,.T.);
#534 = ORIENTED_EDGE('',*,*,#469,.T.);
#535 = ORIENTED_EDGE('',*,*,#500,.T.);
#536 = PLANE('',#537);
#537 = AXIS2_PLACEMENT_3D('',#538,#539,#540);
#538 = CARTESIAN_POINT('',(2.22044604925E-16,-4.440892098501E-16,-3.68)
  );
#539 = DIRECTION('',(0.,0.,1.));
#540 = DIRECTION('',(1.,0.,0.));
#541 = ( GEOMETRIC_REPRESENTATION_CONTEXT(3) 
GLOBAL_UNCERTAINTY_ASSIGNED_CONTEXT((#545)) GLOBAL_UNIT_ASSIGNED_CONTEXT
((#542,#543,#544)) REPRESENTATION_CONTEXT('Context #1',
  '3D Context with UNIT and UNCERTAINTY') );
#542 = ( LENGTH_UNIT() NAMED_UNIT(*) SI_UNIT(.MILLI.,.METRE.) );
#543 = ( NAMED_UNIT(*) PLANE_ANGLE_UNIT() SI_UNIT($,.RADIAN.) );
#544 = ( NAMED_UNIT(*) SI_UNIT($,.STERADIAN.) SOLID_ANGLE_UNIT() );
#545 = UNCERTAINTY_MEASURE_WITH_UNIT(LENGTH_MEASURE(1.E-07),#542,
  'distance_accuracy_value','confusion accuracy');
#546 = CONTEXT_DEPENDENT_SHAPE_REPRESENTATION(#547,#549);
#547 = ( REPRESENTATION_RELATIONSHIP('','',#390,#10) 
REPRESENTATION_RELATIONSHIP_WITH_TRANSFORMATION(#548) 
SHAPE_REPRESENTATION_RELATIONSHIP() );
#548 = ITEM_DEFINED_TRANSFORMATION('','',#11,#23);
#549 = PRODUCT_DEFINITION_SHAPE('Placement','Placement of an item',#550
  );
#550 = NEXT_ASSEMBLY_USAGE_OCCURRENCE('17','A2_Pad','',#5,#385,$);
#551 = PRODUCT_RELATED_PRODUCT_CATEGORY('part',$,(#387));
#552 = SHAPE_DEFINITION_REPRESENTATION(#553,#559);
#553 = PRODUCT_DEFINITION_SHAPE('','',#554);
#554 = PRODUCT_DEFINITION('design','',#555,#558);
#555 = PRODUCT_DEFINITION_FORMATION('','',#556);
#556 = PRODUCT('K2_Pad','K2_Pad','',(#557));
#557 = PRODUCT_CONTEXT('',#2,'mechanical');
#558 = PRODUCT_DEFINITION_CONTEXT('part definition',#2,'design');
#559 = ADVANCED_BREP_SHAPE_REPRESENTATION('',(#11,#560),#710);
#560 = MANIFOLD_SOLID_BREP('',#561);
#561 = CLOSED_SHELL('',(#562,#602,#633,#664,#686,#698));
#562 = ADVANCED_FACE('',(#563),#597,.T.);
#563 = FACE_BOUND('',#564,.T.);
#564 = EDGE_LOOP('',(#565,#575,#583,#591));
#565 = ORIENTED_EDGE('',*,*,#566,.T.);
#566 = EDGE_CURVE('',#567,#569,#571,.T.);
#567 = VERTEX_POINT('',#568);
#568 = CARTESIAN_POINT('',(-0.25,0.25,0.));
#569 = VERTEX_POINT('',#570);
#570 = CARTESIAN_POINT('',(-0.25,0.25,-3.68));
#571 = LINE('',#572,#573);
#572 = CARTESIAN_POINT('',(-0.25,0.25,0.));
#573 = VECTOR('',#574,1.);
#574 = DIRECTION('',(-0.,-0.,-1.));
#575 = ORIENTED_EDGE('',*,*,#576,.T.);
#576 = EDGE_CURVE('',#569,#577,#579,.T.);
#577 = VERTEX_POINT('',#578);
#578 = CARTESIAN_POINT('',(-0.25,-0.25,-3.68));
#579 = LINE('',#580,#581);
#580 = CARTESIAN_POINT('',(-0.25,0.25,-3.68));
#581 = VECTOR('',#582,1.);
#582 = DIRECTION('',(0.,-1.,0.));
#583 = ORIENTED_EDGE('',*,*,#584,.F.);
#584 = EDGE_CURVE('',#585,#577,#587,.T.);
#585 = VERTEX_POINT('',#586);
#586 = CARTESIAN_POINT('',(-0.25,-0.25,0.));
#587 = LINE('',#588,#589);
#588 = CARTESIAN_POINT('',(-0.25,-0.25,0.));
#589 = VECTOR('',#590,1.);
#590 = DIRECTION('',(-0.,-0.,-1.));
#591 = ORIENTED_EDGE('',*,*,#592,.F.);
#592 = EDGE_CURVE('',#567,#585,#593,.T.);
#593 = LINE('',#594,#595);
#594 = CARTESIAN_POINT('',(-0.25,0.25,0.));
#595 = VECTOR('',#596,1.);
#596 = DIRECTION('',(0.,-1.,0.));
#597 = PLANE('',#598);
#598 = AXIS2_PLACEMENT_3D('',#599,#600,#601);
#599 = CARTESIAN_POINT('',(-0.25,0.25,0.));
#600 = DIRECTION('',(-1.,0.,0.));
#601 = DIRECTION('',(0.,-1.,0.));
#602 = ADVANCED_FACE('',(#603),#628,.T.);
#603 = FACE_BOUND('',#604,.T.);
#604 = EDGE_LOOP('',(#605,#606,#614,#622));
#605 = ORIENTED_EDGE('',*,*,#584,.T.);
#606 = ORIENTED_EDGE('',*,*,#607,.T.);
#607 = EDGE_CURVE('',#577,#608,#610,.T.);
#608 = VERTEX_POINT('',#609);
#609 = CARTESIAN_POINT('',(0.25,-0.25,-3.68));
#610 = LINE('',#611,#612);
#611 = CARTESIAN_POINT('',(-0.25,-0.25,-3.68));
#612 = VECTOR('',#613,1.);
#613 = DIRECTION('',(1.,0.,0.));
#614 = ORIENTED_EDGE('',*,*,#615,.F.);
#615 = EDGE_CURVE('',#616,#608,#618,.T.);
#616 = VERTEX_POINT('',#617);
#617 = CARTESIAN_POINT('',(0.25,-0.25,0.));
#618 = LINE('',#619,#620);
#619 = CARTESIAN_POINT('',(0.25,-0.25,0.));
#620 = VECTOR('',#621,1.);
#621 = DIRECTION('',(-0.,-0.,-1.));
#622 = ORIENTED_EDGE('',*,*,#623,.F.);
#623 = EDGE_CURVE('',#585,#616,#624,.T.);
#624 = LINE('',#625,#626);
#625 = CARTESIAN_POINT('',(-0.25,-0.25,0.));
#626 = VECTOR('',#627,1.);
#627 = DIRECTION('',(1.,0.,0.));
#628 = PLANE('',#629);
#629 = AXIS2_PLACEMENT_3D('',#630,#631,#632);
#630 = CARTESIAN_POINT('',(-0.25,-0.25,0.));
#631 = DIRECTION('',(0.,-1.,0.));
#632 = DIRECTION('',(1.,0.,0.));
#633 = ADVANCED_FACE('',(#634),#659,.T.);
#634 = FACE_BOUND('',#635,.T.);
#635 = EDGE_LOOP('',(#636,#637,#645,#653));
#636 = ORIENTED_EDGE('',*,*,#615,.T.);
#637 = ORIENTED_EDGE('',*,*,#638,.T.);
#638 = EDGE_CURVE('',#608,#639,#641,.T.);
#639 = VERTEX_POINT('',#640);
#640 = CARTESIAN_POINT('',(0.25,0.25,-3.68));
#641 = LINE('',#642,#643);
#642 = CARTESIAN_POINT('',(0.25,-0.25,-3.68));
#643 = VECTOR('',#644,1.);
#644 = DIRECTION('',(0.,1.,0.));
#645 = ORIENTED_EDGE('',*,*,#646,.F.);
#646 = EDGE_CURVE('',#647,#639,#649,.T.);
#647 = VERTEX_POINT('',#648);
#648 = CARTESIAN_POINT('',(0.25,0.25,0.));
#649 = LINE('',#650,#651);
#650 = CARTESIAN_POINT('',(0.25,0.25,0.));
#651 = VECTOR('',#652,1.);
#652 = DIRECTION('',(-0.,-0.,-1.));
#653 = ORIENTED_EDGE('',*,*,#654,.F.);
#654 = EDGE_CURVE('',#616,#647,#655,.T.);
#655 = LINE('',#656,#657);
#656 = CARTESIAN_POINT('',(0.25,-0.25,0.));
#657 = VECTOR('',#658,1.);
#658 = DIRECTION('',(0.,1.,0.));
#659 = PLANE('',#660);
#660 = AXIS2_PLACEMENT_3D('',#661,#662,#663);
#661 = CARTESIAN_POINT('',(0.25,-0.25,0.));
#662 = DIRECTION('',(1.,0.,0.));
#663 = DIRECTION('',(-0.,1.,0.));
#664 = ADVANCED_FACE('',(#665),#681,.T.);
#665 = FACE_BOUND('',#666,.T.);
#666 = EDGE_LOOP('',(#667,#668,#674,#675));
#667 = ORIENTED_EDGE('',*,*,#646,.T.);
#668 = ORIENTED_EDGE('',*,*,#669,.T.);
#669 = EDGE_CURVE('',#639,#569,#670,.T.);
#670 = LINE('',#671,#672);
#671 = CARTESIAN_POINT('',(0.25,0.25,-3.68));
#672 = VECTOR('',#673,1.);
#673 = DIRECTION('',(-1.,0.,0.));
#674 = ORIENTED_EDGE('',*,*,#566,.F.);
#675 = ORIENTED_EDGE('',*,*,#676,.F.);
#676 = EDGE_CURVE('',#647,#567,#677,.T.);
#677 = LINE('',#678,#679);
#678 = CARTESIAN_POINT('',(0.25,0.25,0.));
#679 = VECTOR('',#680,1.);
#680 = DIRECTION('',(-1.,0.,0.));
#681 = PLANE('',#682);
#682 = AXIS2_PLACEMENT_3D('',#683,#684,#685);
#683 = CARTESIAN_POINT('',(0.25,0.25,0.));
#684 = DIRECTION('',(0.,1.,-0.));
#685 = DIRECTION('',(-1.,0.,0.));
#686 = ADVANCED_FACE('',(#687),#693,.T.);
#687 = FACE_BOUND('',#688,.T.);
#688 = EDGE_LOOP('',(#689,#690,#691,#692));
#689 = ORIENTED_EDGE('',*,*,#592,.T.);
#690 = ORIENTED_EDGE('',*,*,#623,.T.);
#691 = ORIENTED_EDGE('',*,*,#654,.T.);
#692 = ORIENTED_EDGE('',*,*,#676,.T.);
#693 = PLANE('',#694);
#694 = AXIS2_PLACEMENT_3D('',#695,#696,#697);
#695 = CARTESIAN_POINT('',(-2.22044604925E-16,-4.440892098501E-16,0.));
#696 = DIRECTION('',(0.,0.,1.));
#697 = DIRECTION('',(1.,0.,0.));
#698 = ADVANCED_FACE('',(#699),#705,.F.);
#699 = FACE_BOUND('',#700,.F.);
#700 = EDGE_LOOP('',(#701,#702,#703,#704));
#701 = ORIENTED_EDGE('',*,*,#576,.T.);
#702 = ORIENTED_EDGE('',*,*,#607,.T.);
#703 = ORIENTED_EDGE('',*,*,#638,.T.);
#704 = ORIENTED_EDGE('',*,*,#669,.T.);
#705 = PLANE('',#706);
#706 = AXIS2_PLACEMENT_3D('',#707,#708,#709);
#707 = CARTESIAN_POINT('',(-2.22044604925E-16,-4.440892098501E-16,-3.68)
  );
#708 = DIRECTION('',(0.,0.,1.));
#709 = DIRECTION('',(1.,0.,0.));
#710 = ( GEOMETRIC_REPRESENTATION_CONTEXT(3) 
GLOBAL_UNCERTAINTY_ASSIGNED_CONTEXT((#714)) GLOBAL_UNIT_ASSIGNED_CONTEXT
((#711,#712,#713)) REPRESENTATION_CONTEXT('Context #1',
  '3D Context with UNIT and UNCERTAINTY') );
#711 = ( LENGTH_UNIT() NAMED_UNIT(*) SI_UNIT(.MILLI.,.METRE.) );
#712 = ( NAMED_UNIT(*) PLANE_ANGLE_UNIT() SI_UNIT($,.RADIAN.) );
#713 = ( NAMED_UNIT(*) SI_UNIT($,.STERADIAN.) SOLID_ANGLE_UNIT() );
#714 = UNCERTAINTY_MEASURE_WITH_UNIT(LENGTH_MEASURE(1.E-07),#711,
  'distance_accuracy_value','confusion accuracy');
#715 = CONTEXT_DEPENDENT_SHAPE_REPRESENTATION(#716,#718);
#716 = ( REPRESENTATION_RELATIONSHIP('','',#559,#10) 
REPRESENTATION_RELATIONSHIP_WITH_TRANSFORMATION(#717) 
SHAPE_REPRESENTATION_RELATIONSHIP() );
#717 = ITEM_DEFINED_TRANSFORMATION('','',#11,#27);
#718 = PRODUCT_DEFINITION_SHAPE('Placement','Placement of an item',#719
  );
#719 = NEXT_ASSEMBLY_USAGE_OCCURRENCE('18','K2_Pad','',#5,#554,$);
#720 = PRODUCT_RELATED_PRODUCT_CATEGORY('part',$,(#556));
#721 = SHAPE_DEFINITION_REPRESENTATION(#722,#728);
#722 = PRODUCT_DEFINITION_SHAPE('','',#723);
#723 = PRODUCT_DEFINITION('design','',#724,#727);
#724 = PRODUCT_DEFINITION_FORMATION('','',#725);
#725 = PRODUCT('LED-Fillet','LED-Fillet','',(#726));
#726 = PRODUCT_CONTEXT('',#2,'mechanical');
#727 = PRODUCT_DEFINITION_CONTEXT('part definition',#2,'design');
#728 = ADVANCED_BREP_SHAPE_REPRESENTATION('',(#11,#729),#820);
#729 = MANIFOLD_SOLID_BREP('',#730);
#730 = CLOSED_SHELL('',(#731,#764,#802,#811));
#731 = ADVANCED_FACE('',(#732),#759,.T.);
#732 = FACE_BOUND('',#733,.F.);
#733 = EDGE_LOOP('',(#734,#744,#751,#752));
#734 = ORIENTED_EDGE('',*,*,#735,.T.);
#735 = EDGE_CURVE('',#736,#738,#740,.T.);
#736 = VERTEX_POINT('',#737);
#737 = CARTESIAN_POINT('',(2.415,-5.21,3.));
#738 = VERTEX_POINT('',#739);
#739 = CARTESIAN_POINT('',(2.415,-7.8,3.));
#740 = LINE('',#741,#742);
#741 = CARTESIAN_POINT('',(2.415,-5.21,3.));
#742 = VECTOR('',#743,1.);
#743 = DIRECTION('',(0.,-1.,2.22044604925E-16));
#744 = ORIENTED_EDGE('',*,*,#745,.T.);
#745 = EDGE_CURVE('',#738,#738,#746,.T.);
#746 = CIRCLE('',#747,2.415);
#747 = AXIS2_PLACEMENT_3D('',#748,#749,#750);
#748 = CARTESIAN_POINT('',(0.,-7.8,3.));
#749 = DIRECTION('',(-0.,-1.,0.));
#750 = DIRECTION('',(1.,-0.,3.67775743147E-16));
#751 = ORIENTED_EDGE('',*,*,#735,.F.);
#752 = ORIENTED_EDGE('',*,*,#753,.F.);
#753 = EDGE_CURVE('',#736,#736,#754,.T.);
#754 = CIRCLE('',#755,2.415);
#755 = AXIS2_PLACEMENT_3D('',#756,#757,#758);
#756 = CARTESIAN_POINT('',(0.,-5.21,3.));
#757 = DIRECTION('',(0.,-1.,2.22044604925E-16));
#758 = DIRECTION('',(1.,0.,0.));
#759 = CYLINDRICAL_SURFACE('',#760,2.415);
#760 = AXIS2_PLACEMENT_3D('',#761,#762,#763);
#761 = CARTESIAN_POINT('',(0.,-5.21,3.));
#762 = DIRECTION('',(0.,1.,-2.22044604925E-16));
#763 = DIRECTION('',(1.,0.,0.));
#764 = ADVANCED_FACE('',(#765),#785,.T.);
#765 = FACE_BOUND('',#766,.T.);
#766 = EDGE_LOOP('',(#767,#776,#777,#778));
#767 = ORIENTED_EDGE('',*,*,#768,.F.);
#768 = EDGE_CURVE('',#738,#769,#771,.T.);
#769 = VERTEX_POINT('',#770);
#770 = CARTESIAN_POINT('',(5.E-03,-10.21,3.));
#771 = CIRCLE('',#772,2.41);
#772 = AXIS2_PLACEMENT_3D('',#773,#774,#775);
#773 = CARTESIAN_POINT('',(5.E-03,-7.8,3.));
#774 = DIRECTION('',(1.838878715735E-16,0.,-1.));
#775 = DIRECTION('',(1.,-0.,1.838878715735E-16));
#776 = ORIENTED_EDGE('',*,*,#745,.T.);
#777 = ORIENTED_EDGE('',*,*,#768,.T.);
#778 = ORIENTED_EDGE('',*,*,#779,.F.);
#779 = EDGE_CURVE('',#769,#769,#780,.T.);
#780 = CIRCLE('',#781,5.E-03);
#781 = AXIS2_PLACEMENT_3D('',#782,#783,#784);
#782 = CARTESIAN_POINT('',(0.,-10.21,3.));
#783 = DIRECTION('',(-0.,-1.,0.));
#784 = DIRECTION('',(1.,-0.,3.67775743147E-16));
#785 = SURFACE_OF_REVOLUTION('',#786,#799);
#786 = B_SPLINE_CURVE_WITH_KNOTS('',6,(#787,#788,#789,#790,#791,#792,
    #793,#794,#795,#796,#797,#798),.UNSPECIFIED.,.F.,.F.,(7,5,7),(0.,
    0.785398163397,1.570796326795),.UNSPECIFIED.);
#787 = CARTESIAN_POINT('',(2.415,-7.8,3.));
#788 = CARTESIAN_POINT('',(2.415,-8.115468262298,3.));
#789 = CARTESIAN_POINT('',(2.365446555613,-8.430935997677,3.));
#790 = CARTESIAN_POINT('',(2.266338375884,-8.736677024406,3.));
#791 = CARTESIAN_POINT('',(2.120226888555,-9.02294864365,3.));
#792 = CARTESIAN_POINT('',(1.93219709018,-9.28105759514,3.));
#793 = CARTESIAN_POINT('',(1.48605759514,-9.72719709018,3.));
#794 = CARTESIAN_POINT('',(1.22794864365,-9.915226888555,3.));
#795 = CARTESIAN_POINT('',(0.941677024406,-10.06133837588,3.));
#796 = CARTESIAN_POINT('',(0.635935997677,-10.16044655561,3.));
#797 = CARTESIAN_POINT('',(0.320468262298,-10.21,3.));
#798 = CARTESIAN_POINT('',(5.E-03,-10.21,3.));
#799 = AXIS1_PLACEMENT('',#800,#801);
#800 = CARTESIAN_POINT('',(0.,-7.8,3.));
#801 = DIRECTION('',(-0.,-1.,-0.));
#802 = ADVANCED_FACE('',(#803),#806,.T.);
#803 = FACE_BOUND('',#804,.F.);
#804 = EDGE_LOOP('',(#805));
#805 = ORIENTED_EDGE('',*,*,#753,.T.);
#806 = PLANE('',#807);
#807 = AXIS2_PLACEMENT_3D('',#808,#809,#810);
#808 = CARTESIAN_POINT('',(-1.415569495382E-16,-5.21,3.));
#809 = DIRECTION('',(0.,1.,0.));
#810 = DIRECTION('',(0.,0.,1.));
#811 = ADVANCED_FACE('',(#812),#815,.F.);
#812 = FACE_BOUND('',#813,.F.);
#813 = EDGE_LOOP('',(#814));
#814 = ORIENTED_EDGE('',*,*,#779,.F.);
#815 = PLANE('',#816);
#816 = AXIS2_PLACEMENT_3D('',#817,#818,#819);
#817 = CARTESIAN_POINT('',(-1.415569495382E-16,-10.21,3.));
#818 = DIRECTION('',(0.,1.,0.));
#819 = DIRECTION('',(0.,0.,1.));
#820 = ( GEOMETRIC_REPRESENTATION_CONTEXT(3) 
GLOBAL_UNCERTAINTY_ASSIGNED_CONTEXT((#824)) GLOBAL_UNIT_ASSIGNED_CONTEXT
((#821,#822,#823)) REPRESENTATION_CONTEXT('Context #1',
  '3D Context with UNIT and UNCERTAINTY') );
#821 = ( LENGTH_UNIT() NAMED_UNIT(*) SI_UNIT(.MILLI.,.METRE.) );
#822 = ( NAMED_UNIT(*) PLANE_ANGLE_UNIT() SI_UNIT($,.RADIAN.) );
#823 = ( NAMED_UNIT(*) SI_UNIT($,.STERADIAN.) SOLID_ANGLE_UNIT() );
#824 = UNCERTAINTY_MEASURE_WITH_UNIT(LENGTH_MEASURE(1.E-07),#821,
  'distance_accuracy_value','confusion accuracy');
#825 = CONTEXT_DEPENDENT_SHAPE_REPRESENTATION(#826,#828);
#826 = ( REPRESENTATION_RELATIONSHIP('','',#728,#10) 
REPRESENTATION_RELATIONSHIP_WITH_TRANSFORMATION(#827) 
SHAPE_REPRESENTATION_RELATIONSHIP() );
#827 = ITEM_DEFINED_TRANSFORMATION('','',#11,#31);
#828 = PRODUCT_DEFINITION_SHAPE('Placement','Placement of an item',#829
  );
#829 = NEXT_ASSEMBLY_USAGE_OCCURRENCE('19','LED-Fillet','',#5,#723,$);
#830 = PRODUCT_RELATED_PRODUCT_CATEGORY('part',$,(#725));
#831 = SHAPE_DEFINITION_REPRESENTATION(#832,#838);
#832 = PRODUCT_DEFINITION_SHAPE('','',#833);
#833 = PRODUCT_DEFINITION('design','',#834,#837);
#834 = PRODUCT_DEFINITION_FORMATION('','',#835);
#835 = PRODUCT('BODY-Chamfer','BODY-Chamfer','',(#836));
#836 = PRODUCT_CONTEXT('',#2,'mechanical');
#837 = PRODUCT_DEFINITION_CONTEXT('part definition',#2,'design');
#838 = ADVANCED_BREP_SHAPE_REPRESENTATION('',(#11,#839),#1022);
#839 = MANIFOLD_SOLID_BREP('',#840);
#840 = CLOSED_SHELL('',(#841,#889,#920,#944,#968,#992,#1009));
#841 = ADVANCED_FACE('',(#842),#884,.F.);
#842 = FACE_BOUND('',#843,.F.);
#843 = EDGE_LOOP('',(#844,#854,#862,#870,#878));
#844 = ORIENTED_EDGE('',*,*,#845,.F.);
#845 = EDGE_CURVE('',#846,#848,#850,.T.);
#846 = VERTEX_POINT('',#847);
#847 = CARTESIAN_POINT('',(3.05,3.81,0.));
#848 = VERTEX_POINT('',#849);
#849 = CARTESIAN_POINT('',(3.05,3.81,2.1));
#850 = LINE('',#851,#852);
#851 = CARTESIAN_POINT('',(3.05,3.81,0.));
#852 = VECTOR('',#853,1.);
#853 = DIRECTION('',(0.,0.,1.));
#854 = ORIENTED_EDGE('',*,*,#855,.F.);
#855 = EDGE_CURVE('',#856,#846,#858,.T.);
#856 = VERTEX_POINT('',#857);
#857 = CARTESIAN_POINT('',(3.05,-5.21,0.));
#858 = LINE('',#859,#860);
#859 = CARTESIAN_POINT('',(3.05,-5.21,0.));
#860 = VECTOR('',#861,1.);
#861 = DIRECTION('',(0.,1.,0.));
#862 = ORIENTED_EDGE('',*,*,#863,.T.);
#863 = EDGE_CURVE('',#856,#864,#866,.T.);
#864 = VERTEX_POINT('',#865);
#865 = CARTESIAN_POINT('',(3.05,-5.21,6.1));
#866 = LINE('',#867,#868);
#867 = CARTESIAN_POINT('',(3.05,-5.21,0.));
#868 = VECTOR('',#869,1.);
#869 = DIRECTION('',(0.,0.,1.));
#870 = ORIENTED_EDGE('',*,*,#871,.T.);
#871 = EDGE_CURVE('',#864,#872,#874,.T.);
#872 = VERTEX_POINT('',#873);
#873 = CARTESIAN_POINT('',(3.05,-0.19,6.1));
#874 = LINE('',#875,#876);
#875 = CARTESIAN_POINT('',(3.05,-5.21,6.1));
#876 = VECTOR('',#877,1.);
#877 = DIRECTION('',(0.,1.,0.));
#878 = ORIENTED_EDGE('',*,*,#879,.F.);
#879 = EDGE_CURVE('',#848,#872,#880,.T.);
#880 = LINE('',#881,#882);
#881 = CARTESIAN_POINT('',(3.05,1.08,4.83));
#882 = VECTOR('',#883,1.);
#883 = DIRECTION('',(0.,-0.707106781187,0.707106781187));
#884 = PLANE('',#885);
#885 = AXIS2_PLACEMENT_3D('',#886,#887,#888);
#886 = CARTESIAN_POINT('',(3.05,-5.21,0.));
#887 = DIRECTION('',(-1.,0.,0.));
#888 = DIRECTION('',(0.,1.,0.));
#889 = ADVANCED_FACE('',(#890),#915,.F.);
#890 = FACE_BOUND('',#891,.F.);
#891 = EDGE_LOOP('',(#892,#893,#901,#909));
#892 = ORIENTED_EDGE('',*,*,#845,.T.);
#893 = ORIENTED_EDGE('',*,*,#894,.T.);
#894 = EDGE_CURVE('',#848,#895,#897,.T.);
#895 = VERTEX_POINT('',#896);
#896 = CARTESIAN_POINT('',(-3.05,3.81,2.1));
#897 = LINE('',#898,#899);
#898 = CARTESIAN_POINT('',(3.05,3.81,2.1));
#899 = VECTOR('',#900,1.);
#900 = DIRECTION('',(-1.,0.,0.));
#901 = ORIENTED_EDGE('',*,*,#902,.F.);
#902 = EDGE_CURVE('',#903,#895,#905,.T.);
#903 = VERTEX_POINT('',#904);
#904 = CARTESIAN_POINT('',(-3.05,3.81,0.));
#905 = LINE('',#906,#907);
#906 = CARTESIAN_POINT('',(-3.05,3.81,0.));
#907 = VECTOR('',#908,1.);
#908 = DIRECTION('',(0.,0.,1.));
#909 = ORIENTED_EDGE('',*,*,#910,.F.);
#910 = EDGE_CURVE('',#846,#903,#911,.T.);
#911 = LINE('',#912,#913);
#912 = CARTESIAN_POINT('',(3.05,3.81,0.));
#913 = VECTOR('',#914,1.);
#914 = DIRECTION('',(-1.,0.,0.));
#915 = PLANE('',#916);
#916 = AXIS2_PLACEMENT_3D('',#917,#918,#919);
#917 = CARTESIAN_POINT('',(3.05,3.81,0.));
#918 = DIRECTION('',(0.,-1.,0.));
#919 = DIRECTION('',(-1.,0.,0.));
#920 = ADVANCED_FACE('',(#921),#939,.F.);
#921 = FACE_BOUND('',#922,.T.);
#922 = EDGE_LOOP('',(#923,#924,#925,#933));
#923 = ORIENTED_EDGE('',*,*,#879,.F.);
#924 = ORIENTED_EDGE('',*,*,#894,.T.);
#925 = ORIENTED_EDGE('',*,*,#926,.T.);
#926 = EDGE_CURVE('',#895,#927,#929,.T.);
#927 = VERTEX_POINT('',#928);
#928 = CARTESIAN_POINT('',(-3.05,-0.19,6.1));
#929 = LINE('',#930,#931);
#930 = CARTESIAN_POINT('',(-3.05,3.335,2.575));
#931 = VECTOR('',#932,1.);
#932 = DIRECTION('',(-0.,-0.707106781187,0.707106781187));
#933 = ORIENTED_EDGE('',*,*,#934,.F.);
#934 = EDGE_CURVE('',#872,#927,#935,.T.);
#935 = LINE('',#936,#937);
#936 = CARTESIAN_POINT('',(3.05,-0.19,6.1));
#937 = VECTOR('',#938,1.);
#938 = DIRECTION('',(-1.,0.,0.));
#939 = PLANE('',#940);
#940 = AXIS2_PLACEMENT_3D('',#941,#942,#943);
#941 = CARTESIAN_POINT('',(3.05,1.81,4.1));
#942 = DIRECTION('',(0.,-0.707106781187,-0.707106781187));
#943 = DIRECTION('',(1.,0.,-0.));
#944 = ADVANCED_FACE('',(#945),#963,.F.);
#945 = FACE_BOUND('',#946,.F.);
#946 = EDGE_LOOP('',(#947,#955,#956,#957));
#947 = ORIENTED_EDGE('',*,*,#948,.T.);
#948 = EDGE_CURVE('',#949,#856,#951,.T.);
#949 = VERTEX_POINT('',#950);
#950 = CARTESIAN_POINT('',(-3.05,-5.21,0.));
#951 = LINE('',#952,#953);
#952 = CARTESIAN_POINT('',(-3.05,-5.21,0.));
#953 = VECTOR('',#954,1.);
#954 = DIRECTION('',(1.,0.,0.));
#955 = ORIENTED_EDGE('',*,*,#855,.T.);
#956 = ORIENTED_EDGE('',*,*,#910,.T.);
#957 = ORIENTED_EDGE('',*,*,#958,.T.);
#958 = EDGE_CURVE('',#903,#949,#959,.T.);
#959 = LINE('',#960,#961);
#960 = CARTESIAN_POINT('',(-3.05,3.81,0.));
#961 = VECTOR('',#962,1.);
#962 = DIRECTION('',(0.,-1.,0.));
#963 = PLANE('',#964);
#964 = AXIS2_PLACEMENT_3D('',#965,#966,#967);
#965 = CARTESIAN_POINT('',(-1.174839179498E-16,-0.7,0.));
#966 = DIRECTION('',(0.,0.,1.));
#967 = DIRECTION('',(1.,0.,0.));
#968 = ADVANCED_FACE('',(#969),#987,.T.);
#969 = FACE_BOUND('',#970,.T.);
#970 = EDGE_LOOP('',(#971,#972,#973,#981));
#971 = ORIENTED_EDGE('',*,*,#871,.T.);
#972 = ORIENTED_EDGE('',*,*,#934,.T.);
#973 = ORIENTED_EDGE('',*,*,#974,.T.);
#974 = EDGE_CURVE('',#927,#975,#977,.T.);
#975 = VERTEX_POINT('',#976);
#976 = CARTESIAN_POINT('',(-3.05,-5.21,6.1));
#977 = LINE('',#978,#979);
#978 = CARTESIAN_POINT('',(-3.05,3.81,6.1));
#979 = VECTOR('',#980,1.);
#980 = DIRECTION('',(0.,-1.,0.));
#981 = ORIENTED_EDGE('',*,*,#982,.T.);
#982 = EDGE_CURVE('',#975,#864,#983,.T.);
#983 = LINE('',#984,#985);
#984 = CARTESIAN_POINT('',(-3.05,-5.21,6.1));
#985 = VECTOR('',#986,1.);
#986 = DIRECTION('',(1.,0.,0.));
#987 = PLANE('',#988);
#988 = AXIS2_PLACEMENT_3D('',#989,#990,#991);
#989 = CARTESIAN_POINT('',(-1.174839179498E-16,-0.7,6.1));
#990 = DIRECTION('',(0.,0.,1.));
#991 = DIRECTION('',(1.,0.,0.));
#992 = ADVANCED_FACE('',(#993),#1004,.F.);
#993 = FACE_BOUND('',#994,.F.);
#994 = EDGE_LOOP('',(#995,#1001,#1002,#1003));
#995 = ORIENTED_EDGE('',*,*,#996,.T.);
#996 = EDGE_CURVE('',#949,#975,#997,.T.);
#997 = LINE('',#998,#999);
#998 = CARTESIAN_POINT('',(-3.05,-5.21,0.));
#999 = VECTOR('',#1000,1.);
#1000 = DIRECTION('',(0.,0.,1.));
#1001 = ORIENTED_EDGE('',*,*,#982,.T.);
#1002 = ORIENTED_EDGE('',*,*,#863,.F.);
#1003 = ORIENTED_EDGE('',*,*,#948,.F.);
#1004 = PLANE('',#1005);
#1005 = AXIS2_PLACEMENT_3D('',#1006,#1007,#1008);
#1006 = CARTESIAN_POINT('',(-3.05,-5.21,0.));
#1007 = DIRECTION('',(0.,1.,0.));
#1008 = DIRECTION('',(1.,0.,0.));
#1009 = ADVANCED_FACE('',(#1010),#1017,.F.);
#1010 = FACE_BOUND('',#1011,.F.);
#1011 = EDGE_LOOP('',(#1012,#1013,#1014,#1015,#1016));
#1012 = ORIENTED_EDGE('',*,*,#902,.T.);
#1013 = ORIENTED_EDGE('',*,*,#926,.T.);
#1014 = ORIENTED_EDGE('',*,*,#974,.T.);
#1015 = ORIENTED_EDGE('',*,*,#996,.F.);
#1016 = ORIENTED_EDGE('',*,*,#958,.F.);
#1017 = PLANE('',#1018);
#1018 = AXIS2_PLACEMENT_3D('',#1019,#1020,#1021);
#1019 = CARTESIAN_POINT('',(-3.05,3.81,0.));
#1020 = DIRECTION('',(1.,0.,0.));
#1021 = DIRECTION('',(0.,-1.,0.));
#1022 = ( GEOMETRIC_REPRESENTATION_CONTEXT(3) 
GLOBAL_UNCERTAINTY_ASSIGNED_CONTEXT((#1026)) 
GLOBAL_UNIT_ASSIGNED_CONTEXT((#1023,#1024,#1025)) REPRESENTATION_CONTEXT
('Context #1','3D Context with UNIT and UNCERTAINTY') );
#1023 = ( LENGTH_UNIT() NAMED_UNIT(*) SI_UNIT(.MILLI.,.METRE.) );
#1024 = ( NAMED_UNIT(*) PLANE_ANGLE_UNIT() SI_UNIT($,.RADIAN.) );
#1025 = ( NAMED_UNIT(*) SI_UNIT($,.STERADIAN.) SOLID_ANGLE_UNIT() );
#1026 = UNCERTAINTY_MEASURE_WITH_UNIT(LENGTH_MEASURE(1.E-07),#1023,
  'distance_accuracy_value','confusion accuracy');
#1027 = CONTEXT_DEPENDENT_SHAPE_REPRESENTATION(#1028,#1030);
#1028 = ( REPRESENTATION_RELATIONSHIP('','',#838,#10) 
REPRESENTATION_RELATIONSHIP_WITH_TRANSFORMATION(#1029) 
SHAPE_REPRESENTATION_RELATIONSHIP() );
#1029 = ITEM_DEFINED_TRANSFORMATION('','',#11,#35);
#1030 = PRODUCT_DEFINITION_SHAPE('Placement','Placement of an item',
  #1031);
#1031 = NEXT_ASSEMBLY_USAGE_OCCURRENCE('20','BODY-Chamfer','',#5,#833,$
  );
#1032 = PRODUCT_RELATED_PRODUCT_CATEGORY('part',$,(#835));
#1033 = MECHANICAL_DESIGN_GEOMETRIC_PRESENTATION_REPRESENTATION('',(
    #1034),#820);
#1034 = STYLED_ITEM('color',(#1035),#729);
#1035 = PRESENTATION_STYLE_ASSIGNMENT((#1036,#1042));
#1036 = SURFACE_STYLE_USAGE(.BOTH.,#1037);
#1037 = SURFACE_SIDE_STYLE('',(#1038));
#1038 = SURFACE_STYLE_FILL_AREA(#1039);
#1039 = FILL_AREA_STYLE('',(#1040));
#1040 = FILL_AREA_STYLE_COLOUR('',#1041);
#1041 = COLOUR_RGB('',0.,0.666666687201,0.);
#1042 = CURVE_STYLE('',#1043,POSITIVE_LENGTH_MEASURE(0.1),#1044);
#1043 = DRAUGHTING_PRE_DEFINED_CURVE_FONT('continuous');
#1044 = DRAUGHTING_PRE_DEFINED_COLOUR('white');
#1045 = MECHANICAL_DESIGN_GEOMETRIC_PRESENTATION_REPRESENTATION('',(
    #1046),#710);
#1046 = STYLED_ITEM('color',(#1047),#560);
#1047 = PRESENTATION_STYLE_ASSIGNMENT((#1048,#1054));
#1048 = SURFACE_STYLE_USAGE(.BOTH.,#1049);
#1049 = SURFACE_SIDE_STYLE('',(#1050));
#1050 = SURFACE_STYLE_FILL_AREA(#1051);
#1051 = FILL_AREA_STYLE('',(#1052));
#1052 = FILL_AREA_STYLE_COLOUR('',#1053);
#1053 = COLOUR_RGB('',0.800000010877,0.800000010877,0.901960800373);
#1054 = CURVE_STYLE('',#1055,POSITIVE_LENGTH_MEASURE(0.1),#1056);
#1055 = DRAUGHTING_PRE_DEFINED_CURVE_FONT('continuous');
#1056 = COLOUR_RGB('',9.803921802644E-02,9.803921802644E-02,
  9.803921802644E-02);
#1057 = MECHANICAL_DESIGN_GEOMETRIC_PRESENTATION_REPRESENTATION('',(
    #1058),#1022);
#1058 = STYLED_ITEM('color',(#1059),#839);
#1059 = PRESENTATION_STYLE_ASSIGNMENT((#1060,#1066));
#1060 = SURFACE_STYLE_USAGE(.BOTH.,#1061);
#1061 = SURFACE_SIDE_STYLE('',(#1062));
#1062 = SURFACE_STYLE_FILL_AREA(#1063);
#1063 = FILL_AREA_STYLE('',(#1064));
#1064 = FILL_AREA_STYLE_COLOUR('',#1065);
#1065 = DRAUGHTING_PRE_DEFINED_COLOUR('black');
#1066 = CURVE_STYLE('',#1067,POSITIVE_LENGTH_MEASURE(0.1),#1065);
#1067 = DRAUGHTING_PRE_DEFINED_CURVE_FONT('continuous');
#1068 = MECHANICAL_DESIGN_GEOMETRIC_PRESENTATION_REPRESENTATION('',(
    #1069),#372);
#1069 = STYLED_ITEM('color',(#1070),#222);
#1070 = PRESENTATION_STYLE_ASSIGNMENT((#1071,#1076));
#1071 = SURFACE_STYLE_USAGE(.BOTH.,#1072);
#1072 = SURFACE_SIDE_STYLE('',(#1073));
#1073 = SURFACE_STYLE_FILL_AREA(#1074);
#1074 = FILL_AREA_STYLE('',(#1075));
#1075 = FILL_AREA_STYLE_COLOUR('',#1053);
#1076 = CURVE_STYLE('',#1077,POSITIVE_LENGTH_MEASURE(0.1),#1056);
#1077 = DRAUGHTING_PRE_DEFINED_CURVE_FONT('continuous');
#1078 = MECHANICAL_DESIGN_GEOMETRIC_PRESENTATION_REPRESENTATION('',(
    #1079),#541);
#1079 = STYLED_ITEM('color',(#1080),#391);
#1080 = PRESENTATION_STYLE_ASSIGNMENT((#1081,#1086));
#1081 = SURFACE_STYLE_USAGE(.BOTH.,#1082);
#1082 = SURFACE_SIDE_STYLE('',(#1083));
#1083 = SURFACE_STYLE_FILL_AREA(#1084);
#1084 = FILL_AREA_STYLE('',(#1085));
#1085 = FILL_AREA_STYLE_COLOUR('',#1053);
#1086 = CURVE_STYLE('',#1087,POSITIVE_LENGTH_MEASURE(0.1),#1056);
#1087 = DRAUGHTING_PRE_DEFINED_CURVE_FONT('continuous');
#1088 = MECHANICAL_DESIGN_GEOMETRIC_PRESENTATION_REPRESENTATION('',(
    #1089),#203);
#1089 = STYLED_ITEM('color',(#1090),#53);
#1090 = PRESENTATION_STYLE_ASSIGNMENT((#1091,#1096));
#1091 = SURFACE_STYLE_USAGE(.BOTH.,#1092);
#1092 = SURFACE_SIDE_STYLE('',(#1093));
#1093 = SURFACE_STYLE_FILL_AREA(#1094);
#1094 = FILL_AREA_STYLE('',(#1095));
#1095 = FILL_AREA_STYLE_COLOUR('',#1053);
#1096 = CURVE_STYLE('',#1097,POSITIVE_LENGTH_MEASURE(0.1),#1056);
#1097 = DRAUGHTING_PRE_DEFINED_CURVE_FONT('continuous');
ENDSEC;
END-ISO-10303-21;
