ISO-10303-21;
HEADER;
FILE_DESCRIPTION(('FreeCAD Model'),'2;1');
FILE_NAME('Open CASCADE Shape Model','2026-06-22T10:35:08',(''),(''),
  'Open CASCADE STEP processor 7.8','FreeCAD','Unknown');
FILE_SCHEMA(('AUTOMOTIVE_DESIGN { 1 0 10303 214 1 1 1 1 }'));
ENDSEC;
DATA;
#1 = APPLICATION_PROTOCOL_DEFINITION('international standard',
  'automotive_design',2000,#2);
#2 = APPLICATION_CONTEXT(
  'core data for automotive mechanical design processes');
#3 = SHAPE_DEFINITION_REPRESENTATION(#4,#10);
#4 = PRODUCT_DEFINITION_SHAPE('','',#5);
#5 = PRODUCT_DEFINITION('design','',#6,#9);
#6 = PRODUCT_DEFINITION_FORMATION('','',#7);
#7 = PRODUCT('L_934MD_1LI1LGD','L_934MD_1LI1LGD','',(#8));
#8 = PRODUCT_CONTEXT('',#2,'mechanical');
#9 = PRODUCT_DEFINITION_CONTEXT('part definition',#2,'design');
#10 = SHAPE_REPRESENTATION('',(#11,#15,#19,#23,#27,#31,#35,#39),#43);
#11 = AXIS2_PLACEMENT_3D('',#12,#13,#14);
#12 = CARTESIAN_POINT('',(0.,0.,0.));
#13 = DIRECTION('',(0.,0.,1.));
#14 = DIRECTION('',(1.,0.,-0.));
#15 = AXIS2_PLACEMENT_3D('',#16,#17,#18);
#16 = CARTESIAN_POINT('',(-1.27,0.,0.));
#17 = DIRECTION('',(0.,0.,1.));
#18 = DIRECTION('',(1.,0.,0.));
#19 = AXIS2_PLACEMENT_3D('',#20,#21,#22);
#20 = CARTESIAN_POINT('',(1.27,0.,0.));
#21 = DIRECTION('',(0.,0.,1.));
#22 = DIRECTION('',(1.,0.,0.));
#23 = AXIS2_PLACEMENT_3D('',#24,#25,#26);
#24 = CARTESIAN_POINT('',(-1.27,2.54,0.));
#25 = DIRECTION('',(0.,0.,1.));
#26 = DIRECTION('',(1.,0.,0.));
#27 = AXIS2_PLACEMENT_3D('',#28,#29,#30);
#28 = CARTESIAN_POINT('',(1.27,2.54,0.));
#29 = DIRECTION('',(0.,0.,1.));
#30 = DIRECTION('',(1.,0.,0.));
#31 = AXIS2_PLACEMENT_3D('',#32,#33,#34);
#32 = CARTESIAN_POINT('',(0.,0.,0.));
#33 = DIRECTION('',(0.,0.,1.));
#34 = DIRECTION('',(1.,0.,0.));
#35 = AXIS2_PLACEMENT_3D('',#36,#37,#38);
#36 = CARTESIAN_POINT('',(0.,0.,0.));
#37 = DIRECTION('',(0.,0.,1.));
#38 = DIRECTION('',(1.,0.,0.));
#39 = AXIS2_PLACEMENT_3D('',#40,#41,#42);
#40 = CARTESIAN_POINT('',(0.,0.,0.));
#41 = DIRECTION('',(0.,0.,1.));
#42 = DIRECTION('',(1.,0.,0.));
#43 = ( GEOMETRIC_REPRESENTATION_CONTEXT(3) 
GLOBAL_UNCERTAINTY_ASSIGNED_CONTEXT((#47)) GLOBAL_UNIT_ASSIGNED_CONTEXT(
(#44,#45,#46)) REPRESENTATION_CONTEXT('Context #1',
  '3D Context with UNIT and UNCERTAINTY') );
#44 = ( LENGTH_UNIT() NAMED_UNIT(*) SI_UNIT(.MILLI.,.METRE.) );
#45 = ( NAMED_UNIT(*) PLANE_ANGLE_UNIT() SI_UNIT($,.RADIAN.) );
#46 = ( NAMED_UNIT(*) SI_UNIT($,.STERADIAN.) SOLID_ANGLE_UNIT() );
#47 = UNCERTAINTY_MEASURE_WITH_UNIT(LENGTH_MEASURE(1.E-07),#44,
  'distance_accuracy_value','confusion accuracy');
#48 = PRODUCT_RELATED_PRODUCT_CATEGORY('part',$,(#7));
#49 = SHAPE_DEFINITION_REPRESENTATION(#50,#56);
#50 = PRODUCT_DEFINITION_SHAPE('','',#51);
#51 = PRODUCT_DEFINITION('design','',#52,#55);
#52 = PRODUCT_DEFINITION_FORMATION('','',#53);
#53 = PRODUCT('A1_Pad','A1_Pad','',(#54));
#54 = PRODUCT_CONTEXT('',#2,'mechanical');
#55 = PRODUCT_DEFINITION_CONTEXT('part definition',#2,'design');
#56 = ADVANCED_BREP_SHAPE_REPRESENTATION('',(#11,#57),#207);
#57 = MANIFOLD_SOLID_BREP('',#58);
#58 = CLOSED_SHELL('',(#59,#99,#130,#161,#183,#195));
#59 = ADVANCED_FACE('',(#60),#94,.T.);
#60 = FACE_BOUND('',#61,.T.);
#61 = EDGE_LOOP('',(#62,#72,#80,#88));
#62 = ORIENTED_EDGE('',*,*,#63,.T.);
#63 = EDGE_CURVE('',#64,#66,#68,.T.);
#64 = VERTEX_POINT('',#65);
#65 = CARTESIAN_POINT('',(-0.25,0.25,0.));
#66 = VERTEX_POINT('',#67);
#67 = CARTESIAN_POINT('',(-0.25,0.25,-3.68));
#68 = LINE('',#69,#70);
#69 = CARTESIAN_POINT('',(-0.25,0.25,0.));
#70 = VECTOR('',#71,1.);
#71 = DIRECTION('',(-0.,-0.,-1.));
#72 = ORIENTED_EDGE('',*,*,#73,.T.);
#73 = EDGE_CURVE('',#66,#74,#76,.T.);
#74 = VERTEX_POINT('',#75);
#75 = CARTESIAN_POINT('',(-0.25,-0.25,-3.68));
#76 = LINE('',#77,#78);
#77 = CARTESIAN_POINT('',(-0.25,0.25,-3.68));
#78 = VECTOR('',#79,1.);
#79 = DIRECTION('',(0.,-1.,0.));
#80 = ORIENTED_EDGE('',*,*,#81,.F.);
#81 = EDGE_CURVE('',#82,#74,#84,.T.);
#82 = VERTEX_POINT('',#83);
#83 = CARTESIAN_POINT('',(-0.25,-0.25,0.));
#84 = LINE('',#85,#86);
#85 = CARTESIAN_POINT('',(-0.25,-0.25,0.));
#86 = VECTOR('',#87,1.);
#87 = DIRECTION('',(-0.,-0.,-1.));
#88 = ORIENTED_EDGE('',*,*,#89,.F.);
#89 = EDGE_CURVE('',#64,#82,#90,.T.);
#90 = LINE('',#91,#92);
#91 = CARTESIAN_POINT('',(-0.25,0.25,0.));
#92 = VECTOR('',#93,1.);
#93 = DIRECTION('',(0.,-1.,0.));
#94 = PLANE('',#95);
#95 = AXIS2_PLACEMENT_3D('',#96,#97,#98);
#96 = CARTESIAN_POINT('',(-0.25,0.25,0.));
#97 = DIRECTION('',(-1.,0.,0.));
#98 = DIRECTION('',(0.,-1.,0.));
#99 = ADVANCED_FACE('',(#100),#125,.T.);
#100 = FACE_BOUND('',#101,.T.);
#101 = EDGE_LOOP('',(#102,#103,#111,#119));
#102 = ORIENTED_EDGE('',*,*,#81,.T.);
#103 = ORIENTED_EDGE('',*,*,#104,.T.);
#104 = EDGE_CURVE('',#74,#105,#107,.T.);
#105 = VERTEX_POINT('',#106);
#106 = CARTESIAN_POINT('',(0.25,-0.25,-3.68));
#107 = LINE('',#108,#109);
#108 = CARTESIAN_POINT('',(-0.25,-0.25,-3.68));
#109 = VECTOR('',#110,1.);
#110 = DIRECTION('',(1.,0.,0.));
#111 = ORIENTED_EDGE('',*,*,#112,.F.);
#112 = EDGE_CURVE('',#113,#105,#115,.T.);
#113 = VERTEX_POINT('',#114);
#114 = CARTESIAN_POINT('',(0.25,-0.25,0.));
#115 = LINE('',#116,#117);
#116 = CARTESIAN_POINT('',(0.25,-0.25,0.));
#117 = VECTOR('',#118,1.);
#118 = DIRECTION('',(-0.,-0.,-1.));
#119 = ORIENTED_EDGE('',*,*,#120,.F.);
#120 = EDGE_CURVE('',#82,#113,#121,.T.);
#121 = LINE('',#122,#123);
#122 = CARTESIAN_POINT('',(-0.25,-0.25,0.));
#123 = VECTOR('',#124,1.);
#124 = DIRECTION('',(1.,0.,0.));
#125 = PLANE('',#126);
#126 = AXIS2_PLACEMENT_3D('',#127,#128,#129);
#127 = CARTESIAN_POINT('',(-0.25,-0.25,0.));
#128 = DIRECTION('',(0.,-1.,0.));
#129 = DIRECTION('',(1.,0.,0.));
#130 = ADVANCED_FACE('',(#131),#156,.T.);
#131 = FACE_BOUND('',#132,.T.);
#132 = EDGE_LOOP('',(#133,#134,#142,#150));
#133 = ORIENTED_EDGE('',*,*,#112,.T.);
#134 = ORIENTED_EDGE('',*,*,#135,.T.);
#135 = EDGE_CURVE('',#105,#136,#138,.T.);
#136 = VERTEX_POINT('',#137);
#137 = CARTESIAN_POINT('',(0.25,0.25,-3.68));
#138 = LINE('',#139,#140);
#139 = CARTESIAN_POINT('',(0.25,-0.25,-3.68));
#140 = VECTOR('',#141,1.);
#141 = DIRECTION('',(0.,1.,0.));
#142 = ORIENTED_EDGE('',*,*,#143,.F.);
#143 = EDGE_CURVE('',#144,#136,#146,.T.);
#144 = VERTEX_POINT('',#145);
#145 = CARTESIAN_POINT('',(0.25,0.25,0.));
#146 = LINE('',#147,#148);
#147 = CARTESIAN_POINT('',(0.25,0.25,0.));
#148 = VECTOR('',#149,1.);
#149 = DIRECTION('',(-0.,-0.,-1.));
#150 = ORIENTED_EDGE('',*,*,#151,.F.);
#151 = EDGE_CURVE('',#113,#144,#152,.T.);
#152 = LINE('',#153,#154);
#153 = CARTESIAN_POINT('',(0.25,-0.25,0.));
#154 = VECTOR('',#155,1.);
#155 = DIRECTION('',(0.,1.,0.));
#156 = PLANE('',#157);
#157 = AXIS2_PLACEMENT_3D('',#158,#159,#160);
#158 = CARTESIAN_POINT('',(0.25,-0.25,0.));
#159 = DIRECTION('',(1.,0.,0.));
#160 = DIRECTION('',(-0.,1.,0.));
#161 = ADVANCED_FACE('',(#162),#178,.T.);
#162 = FACE_BOUND('',#163,.T.);
#163 = EDGE_LOOP('',(#164,#165,#171,#172));
#164 = ORIENTED_EDGE('',*,*,#143,.T.);
#165 = ORIENTED_EDGE('',*,*,#166,.T.);
#166 = EDGE_CURVE('',#136,#66,#167,.T.);
#167 = LINE('',#168,#169);
#168 = CARTESIAN_POINT('',(0.25,0.25,-3.68));
#169 = VECTOR('',#170,1.);
#170 = DIRECTION('',(-1.,0.,0.));
#171 = ORIENTED_EDGE('',*,*,#63,.F.);
#172 = ORIENTED_EDGE('',*,*,#173,.F.);
#173 = EDGE_CURVE('',#144,#64,#174,.T.);
#174 = LINE('',#175,#176);
#175 = CARTESIAN_POINT('',(0.25,0.25,0.));
#176 = VECTOR('',#177,1.);
#177 = DIRECTION('',(-1.,0.,0.));
#178 = PLANE('',#179);
#179 = AXIS2_PLACEMENT_3D('',#180,#181,#182);
#180 = CARTESIAN_POINT('',(0.25,0.25,0.));
#181 = DIRECTION('',(0.,1.,-0.));
#182 = DIRECTION('',(-1.,0.,0.));
#183 = ADVANCED_FACE('',(#184),#190,.T.);
#184 = FACE_BOUND('',#185,.T.);
#185 = EDGE_LOOP('',(#186,#187,#188,#189));
#186 = ORIENTED_EDGE('',*,*,#89,.T.);
#187 = ORIENTED_EDGE('',*,*,#120,.T.);
#188 = ORIENTED_EDGE('',*,*,#151,.T.);
#189 = ORIENTED_EDGE('',*,*,#173,.T.);
#190 = PLANE('',#191);
#191 = AXIS2_PLACEMENT_3D('',#192,#193,#194);
#192 = CARTESIAN_POINT('',(2.22044604925E-16,0.,0.));
#193 = DIRECTION('',(0.,0.,1.));
#194 = DIRECTION('',(1.,0.,0.));
#195 = ADVANCED_FACE('',(#196),#202,.F.);
#196 = FACE_BOUND('',#197,.F.);
#197 = EDGE_LOOP('',(#198,#199,#200,#201));
#198 = ORIENTED_EDGE('',*,*,#73,.T.);
#199 = ORIENTED_EDGE('',*,*,#104,.T.);
#200 = ORIENTED_EDGE('',*,*,#135,.T.);
#201 = ORIENTED_EDGE('',*,*,#166,.T.);
#202 = PLANE('',#203);
#203 = AXIS2_PLACEMENT_3D('',#204,#205,#206);
#204 = CARTESIAN_POINT('',(2.22044604925E-16,0.,-3.68));
#205 = DIRECTION('',(0.,0.,1.));
#206 = DIRECTION('',(1.,0.,0.));
#207 = ( GEOMETRIC_REPRESENTATION_CONTEXT(3) 
GLOBAL_UNCERTAINTY_ASSIGNED_CONTEXT((#211)) GLOBAL_UNIT_ASSIGNED_CONTEXT
((#208,#209,#210)) REPRESENTATION_CONTEXT('Context #1',
  '3D Context with UNIT and UNCERTAINTY') );
#208 = ( LENGTH_UNIT() NAMED_UNIT(*) SI_UNIT(.MILLI.,.METRE.) );
#209 = ( NAMED_UNIT(*) PLANE_ANGLE_UNIT() SI_UNIT($,.RADIAN.) );
#210 = ( NAMED_UNIT(*) SI_UNIT($,.STERADIAN.) SOLID_ANGLE_UNIT() );
#211 = UNCERTAINTY_MEASURE_WITH_UNIT(LENGTH_MEASURE(1.E-07),#208,
  'distance_accuracy_value','confusion accuracy');
#212 = CONTEXT_DEPENDENT_SHAPE_REPRESENTATION(#213,#215);
#213 = ( REPRESENTATION_RELATIONSHIP('','',#56,#10) 
REPRESENTATION_RELATIONSHIP_WITH_TRANSFORMATION(#214) 
SHAPE_REPRESENTATION_RELATIONSHIP() );
#214 = ITEM_DEFINED_TRANSFORMATION('','',#11,#15);
#215 = PRODUCT_DEFINITION_SHAPE('Placement','Placement of an item',#216
  );
#216 = NEXT_ASSEMBLY_USAGE_OCCURRENCE('81','A1_Pad','',#5,#51,$);
#217 = PRODUCT_RELATED_PRODUCT_CATEGORY('part',$,(#53));
#218 = SHAPE_DEFINITION_REPRESENTATION(#219,#225);
#219 = PRODUCT_DEFINITION_SHAPE('','',#220);
#220 = PRODUCT_DEFINITION('design','',#221,#224);
#221 = PRODUCT_DEFINITION_FORMATION('','',#222);
#222 = PRODUCT('K1_Pad','K1_Pad','',(#223));
#223 = PRODUCT_CONTEXT('',#2,'mechanical');
#224 = PRODUCT_DEFINITION_CONTEXT('part definition',#2,'design');
#225 = ADVANCED_BREP_SHAPE_REPRESENTATION('',(#11,#226),#376);
#226 = MANIFOLD_SOLID_BREP('',#227);
#227 = CLOSED_SHELL('',(#228,#268,#299,#330,#352,#364));
#228 = ADVANCED_FACE('',(#229),#263,.T.);
#229 = FACE_BOUND('',#230,.T.);
#230 = EDGE_LOOP('',(#231,#241,#249,#257));
#231 = ORIENTED_EDGE('',*,*,#232,.T.);
#232 = EDGE_CURVE('',#233,#235,#237,.T.);
#233 = VERTEX_POINT('',#234);
#234 = CARTESIAN_POINT('',(-0.25,0.25,0.));
#235 = VERTEX_POINT('',#236);
#236 = CARTESIAN_POINT('',(-0.25,0.25,-3.68));
#237 = LINE('',#238,#239);
#238 = CARTESIAN_POINT('',(-0.25,0.25,0.));
#239 = VECTOR('',#240,1.);
#240 = DIRECTION('',(-0.,-0.,-1.));
#241 = ORIENTED_EDGE('',*,*,#242,.T.);
#242 = EDGE_CURVE('',#235,#243,#245,.T.);
#243 = VERTEX_POINT('',#244);
#244 = CARTESIAN_POINT('',(-0.25,-0.25,-3.68));
#245 = LINE('',#246,#247);
#246 = CARTESIAN_POINT('',(-0.25,0.25,-3.68));
#247 = VECTOR('',#248,1.);
#248 = DIRECTION('',(0.,-1.,0.));
#249 = ORIENTED_EDGE('',*,*,#250,.F.);
#250 = EDGE_CURVE('',#251,#243,#253,.T.);
#251 = VERTEX_POINT('',#252);
#252 = CARTESIAN_POINT('',(-0.25,-0.25,0.));
#253 = LINE('',#254,#255);
#254 = CARTESIAN_POINT('',(-0.25,-0.25,0.));
#255 = VECTOR('',#256,1.);
#256 = DIRECTION('',(-0.,-0.,-1.));
#257 = ORIENTED_EDGE('',*,*,#258,.F.);
#258 = EDGE_CURVE('',#233,#251,#259,.T.);
#259 = LINE('',#260,#261);
#260 = CARTESIAN_POINT('',(-0.25,0.25,0.));
#261 = VECTOR('',#262,1.);
#262 = DIRECTION('',(0.,-1.,0.));
#263 = PLANE('',#264);
#264 = AXIS2_PLACEMENT_3D('',#265,#266,#267);
#265 = CARTESIAN_POINT('',(-0.25,0.25,0.));
#266 = DIRECTION('',(-1.,0.,0.));
#267 = DIRECTION('',(0.,-1.,0.));
#268 = ADVANCED_FACE('',(#269),#294,.T.);
#269 = FACE_BOUND('',#270,.T.);
#270 = EDGE_LOOP('',(#271,#272,#280,#288));
#271 = ORIENTED_EDGE('',*,*,#250,.T.);
#272 = ORIENTED_EDGE('',*,*,#273,.T.);
#273 = EDGE_CURVE('',#243,#274,#276,.T.);
#274 = VERTEX_POINT('',#275);
#275 = CARTESIAN_POINT('',(0.25,-0.25,-3.68));
#276 = LINE('',#277,#278);
#277 = CARTESIAN_POINT('',(-0.25,-0.25,-3.68));
#278 = VECTOR('',#279,1.);
#279 = DIRECTION('',(1.,0.,0.));
#280 = ORIENTED_EDGE('',*,*,#281,.F.);
#281 = EDGE_CURVE('',#282,#274,#284,.T.);
#282 = VERTEX_POINT('',#283);
#283 = CARTESIAN_POINT('',(0.25,-0.25,0.));
#284 = LINE('',#285,#286);
#285 = CARTESIAN_POINT('',(0.25,-0.25,0.));
#286 = VECTOR('',#287,1.);
#287 = DIRECTION('',(-0.,-0.,-1.));
#288 = ORIENTED_EDGE('',*,*,#289,.F.);
#289 = EDGE_CURVE('',#251,#282,#290,.T.);
#290 = LINE('',#291,#292);
#291 = CARTESIAN_POINT('',(-0.25,-0.25,0.));
#292 = VECTOR('',#293,1.);
#293 = DIRECTION('',(1.,0.,0.));
#294 = PLANE('',#295);
#295 = AXIS2_PLACEMENT_3D('',#296,#297,#298);
#296 = CARTESIAN_POINT('',(-0.25,-0.25,0.));
#297 = DIRECTION('',(0.,-1.,0.));
#298 = DIRECTION('',(1.,0.,0.));
#299 = ADVANCED_FACE('',(#300),#325,.T.);
#300 = FACE_BOUND('',#301,.T.);
#301 = EDGE_LOOP('',(#302,#303,#311,#319));
#302 = ORIENTED_EDGE('',*,*,#281,.T.);
#303 = ORIENTED_EDGE('',*,*,#304,.T.);
#304 = EDGE_CURVE('',#274,#305,#307,.T.);
#305 = VERTEX_POINT('',#306);
#306 = CARTESIAN_POINT('',(0.25,0.25,-3.68));
#307 = LINE('',#308,#309);
#308 = CARTESIAN_POINT('',(0.25,-0.25,-3.68));
#309 = VECTOR('',#310,1.);
#310 = DIRECTION('',(0.,1.,0.));
#311 = ORIENTED_EDGE('',*,*,#312,.F.);
#312 = EDGE_CURVE('',#313,#305,#315,.T.);
#313 = VERTEX_POINT('',#314);
#314 = CARTESIAN_POINT('',(0.25,0.25,0.));
#315 = LINE('',#316,#317);
#316 = CARTESIAN_POINT('',(0.25,0.25,0.));
#317 = VECTOR('',#318,1.);
#318 = DIRECTION('',(-0.,-0.,-1.));
#319 = ORIENTED_EDGE('',*,*,#320,.F.);
#320 = EDGE_CURVE('',#282,#313,#321,.T.);
#321 = LINE('',#322,#323);
#322 = CARTESIAN_POINT('',(0.25,-0.25,0.));
#323 = VECTOR('',#324,1.);
#324 = DIRECTION('',(0.,1.,0.));
#325 = PLANE('',#326);
#326 = AXIS2_PLACEMENT_3D('',#327,#328,#329);
#327 = CARTESIAN_POINT('',(0.25,-0.25,0.));
#328 = DIRECTION('',(1.,0.,0.));
#329 = DIRECTION('',(-0.,1.,0.));
#330 = ADVANCED_FACE('',(#331),#347,.T.);
#331 = FACE_BOUND('',#332,.T.);
#332 = EDGE_LOOP('',(#333,#334,#340,#341));
#333 = ORIENTED_EDGE('',*,*,#312,.T.);
#334 = ORIENTED_EDGE('',*,*,#335,.T.);
#335 = EDGE_CURVE('',#305,#235,#336,.T.);
#336 = LINE('',#337,#338);
#337 = CARTESIAN_POINT('',(0.25,0.25,-3.68));
#338 = VECTOR('',#339,1.);
#339 = DIRECTION('',(-1.,0.,0.));
#340 = ORIENTED_EDGE('',*,*,#232,.F.);
#341 = ORIENTED_EDGE('',*,*,#342,.F.);
#342 = EDGE_CURVE('',#313,#233,#343,.T.);
#343 = LINE('',#344,#345);
#344 = CARTESIAN_POINT('',(0.25,0.25,0.));
#345 = VECTOR('',#346,1.);
#346 = DIRECTION('',(-1.,0.,0.));
#347 = PLANE('',#348);
#348 = AXIS2_PLACEMENT_3D('',#349,#350,#351);
#349 = CARTESIAN_POINT('',(0.25,0.25,0.));
#350 = DIRECTION('',(0.,1.,-0.));
#351 = DIRECTION('',(-1.,0.,0.));
#352 = ADVANCED_FACE('',(#353),#359,.T.);
#353 = FACE_BOUND('',#354,.T.);
#354 = EDGE_LOOP('',(#355,#356,#357,#358));
#355 = ORIENTED_EDGE('',*,*,#258,.T.);
#356 = ORIENTED_EDGE('',*,*,#289,.T.);
#357 = ORIENTED_EDGE('',*,*,#320,.T.);
#358 = ORIENTED_EDGE('',*,*,#342,.T.);
#359 = PLANE('',#360);
#360 = AXIS2_PLACEMENT_3D('',#361,#362,#363);
#361 = CARTESIAN_POINT('',(-2.22044604925E-16,0.,0.));
#362 = DIRECTION('',(0.,0.,1.));
#363 = DIRECTION('',(1.,0.,0.));
#364 = ADVANCED_FACE('',(#365),#371,.F.);
#365 = FACE_BOUND('',#366,.F.);
#366 = EDGE_LOOP('',(#367,#368,#369,#370));
#367 = ORIENTED_EDGE('',*,*,#242,.T.);
#368 = ORIENTED_EDGE('',*,*,#273,.T.);
#369 = ORIENTED_EDGE('',*,*,#304,.T.);
#370 = ORIENTED_EDGE('',*,*,#335,.T.);
#371 = PLANE('',#372);
#372 = AXIS2_PLACEMENT_3D('',#373,#374,#375);
#373 = CARTESIAN_POINT('',(-2.22044604925E-16,0.,-3.68));
#374 = DIRECTION('',(0.,0.,1.));
#375 = DIRECTION('',(1.,0.,0.));
#376 = ( GEOMETRIC_REPRESENTATION_CONTEXT(3) 
GLOBAL_UNCERTAINTY_ASSIGNED_CONTEXT((#380)) GLOBAL_UNIT_ASSIGNED_CONTEXT
((#377,#378,#379)) REPRESENTATION_CONTEXT('Context #1',
  '3D Context with UNIT and UNCERTAINTY') );
#377 = ( LENGTH_UNIT() NAMED_UNIT(*) SI_UNIT(.MILLI.,.METRE.) );
#378 = ( NAMED_UNIT(*) PLANE_ANGLE_UNIT() SI_UNIT($,.RADIAN.) );
#379 = ( NAMED_UNIT(*) SI_UNIT($,.STERADIAN.) SOLID_ANGLE_UNIT() );
#380 = UNCERTAINTY_MEASURE_WITH_UNIT(LENGTH_MEASURE(1.E-07),#377,
  'distance_accuracy_value','confusion accuracy');
#381 = CONTEXT_DEPENDENT_SHAPE_REPRESENTATION(#382,#384);
#382 = ( REPRESENTATION_RELATIONSHIP('','',#225,#10) 
REPRESENTATION_RELATIONSHIP_WITH_TRANSFORMATION(#383) 
SHAPE_REPRESENTATION_RELATIONSHIP() );
#383 = ITEM_DEFINED_TRANSFORMATION('','',#11,#19);
#384 = PRODUCT_DEFINITION_SHAPE('Placement','Placement of an item',#385
  );
#385 = NEXT_ASSEMBLY_USAGE_OCCURRENCE('82','K1_Pad','',#5,#220,$);
#386 = PRODUCT_RELATED_PRODUCT_CATEGORY('part',$,(#222));
#387 = SHAPE_DEFINITION_REPRESENTATION(#388,#394);
#388 = PRODUCT_DEFINITION_SHAPE('','',#389);
#389 = PRODUCT_DEFINITION('design','',#390,#393);
#390 = PRODUCT_DEFINITION_FORMATION('','',#391);
#391 = PRODUCT('A2_Pad','A2_Pad','',(#392));
#392 = PRODUCT_CONTEXT('',#2,'mechanical');
#393 = PRODUCT_DEFINITION_CONTEXT('part definition',#2,'design');
#394 = ADVANCED_BREP_SHAPE_REPRESENTATION('',(#11,#395),#545);
#395 = MANIFOLD_SOLID_BREP('',#396);
#396 = CLOSED_SHELL('',(#397,#437,#468,#499,#521,#533));
#397 = ADVANCED_FACE('',(#398),#432,.T.);
#398 = FACE_BOUND('',#399,.T.);
#399 = EDGE_LOOP('',(#400,#410,#418,#426));
#400 = ORIENTED_EDGE('',*,*,#401,.T.);
#401 = EDGE_CURVE('',#402,#404,#406,.T.);
#402 = VERTEX_POINT('',#403);
#403 = CARTESIAN_POINT('',(-0.25,0.25,0.));
#404 = VERTEX_POINT('',#405);
#405 = CARTESIAN_POINT('',(-0.25,0.25,-3.68));
#406 = LINE('',#407,#408);
#407 = CARTESIAN_POINT('',(-0.25,0.25,0.));
#408 = VECTOR('',#409,1.);
#409 = DIRECTION('',(-0.,-0.,-1.));
#410 = ORIENTED_EDGE('',*,*,#411,.T.);
#411 = EDGE_CURVE('',#404,#412,#414,.T.);
#412 = VERTEX_POINT('',#413);
#413 = CARTESIAN_POINT('',(-0.25,-0.25,-3.68));
#414 = LINE('',#415,#416);
#415 = CARTESIAN_POINT('',(-0.25,0.25,-3.68));
#416 = VECTOR('',#417,1.);
#417 = DIRECTION('',(0.,-1.,0.));
#418 = ORIENTED_EDGE('',*,*,#419,.F.);
#419 = EDGE_CURVE('',#420,#412,#422,.T.);
#420 = VERTEX_POINT('',#421);
#421 = CARTESIAN_POINT('',(-0.25,-0.25,0.));
#422 = LINE('',#423,#424);
#423 = CARTESIAN_POINT('',(-0.25,-0.25,0.));
#424 = VECTOR('',#425,1.);
#425 = DIRECTION('',(-0.,-0.,-1.));
#426 = ORIENTED_EDGE('',*,*,#427,.F.);
#427 = EDGE_CURVE('',#402,#420,#428,.T.);
#428 = LINE('',#429,#430);
#429 = CARTESIAN_POINT('',(-0.25,0.25,0.));
#430 = VECTOR('',#431,1.);
#431 = DIRECTION('',(0.,-1.,0.));
#432 = PLANE('',#433);
#433 = AXIS2_PLACEMENT_3D('',#434,#435,#436);
#434 = CARTESIAN_POINT('',(-0.25,0.25,0.));
#435 = DIRECTION('',(-1.,0.,0.));
#436 = DIRECTION('',(0.,-1.,0.));
#437 = ADVANCED_FACE('',(#438),#463,.T.);
#438 = FACE_BOUND('',#439,.T.);
#439 = EDGE_LOOP('',(#440,#441,#449,#457));
#440 = ORIENTED_EDGE('',*,*,#419,.T.);
#441 = ORIENTED_EDGE('',*,*,#442,.T.);
#442 = EDGE_CURVE('',#412,#443,#445,.T.);
#443 = VERTEX_POINT('',#444);
#444 = CARTESIAN_POINT('',(0.25,-0.25,-3.68));
#445 = LINE('',#446,#447);
#446 = CARTESIAN_POINT('',(-0.25,-0.25,-3.68));
#447 = VECTOR('',#448,1.);
#448 = DIRECTION('',(1.,0.,0.));
#449 = ORIENTED_EDGE('',*,*,#450,.F.);
#450 = EDGE_CURVE('',#451,#443,#453,.T.);
#451 = VERTEX_POINT('',#452);
#452 = CARTESIAN_POINT('',(0.25,-0.25,0.));
#453 = LINE('',#454,#455);
#454 = CARTESIAN_POINT('',(0.25,-0.25,0.));
#455 = VECTOR('',#456,1.);
#456 = DIRECTION('',(-0.,-0.,-1.));
#457 = ORIENTED_EDGE('',*,*,#458,.F.);
#458 = EDGE_CURVE('',#420,#451,#459,.T.);
#459 = LINE('',#460,#461);
#460 = CARTESIAN_POINT('',(-0.25,-0.25,0.));
#461 = VECTOR('',#462,1.);
#462 = DIRECTION('',(1.,0.,0.));
#463 = PLANE('',#464);
#464 = AXIS2_PLACEMENT_3D('',#465,#466,#467);
#465 = CARTESIAN_POINT('',(-0.25,-0.25,0.));
#466 = DIRECTION('',(0.,-1.,0.));
#467 = DIRECTION('',(1.,0.,0.));
#468 = ADVANCED_FACE('',(#469),#494,.T.);
#469 = FACE_BOUND('',#470,.T.);
#470 = EDGE_LOOP('',(#471,#472,#480,#488));
#471 = ORIENTED_EDGE('',*,*,#450,.T.);
#472 = ORIENTED_EDGE('',*,*,#473,.T.);
#473 = EDGE_CURVE('',#443,#474,#476,.T.);
#474 = VERTEX_POINT('',#475);
#475 = CARTESIAN_POINT('',(0.25,0.25,-3.68));
#476 = LINE('',#477,#478);
#477 = CARTESIAN_POINT('',(0.25,-0.25,-3.68));
#478 = VECTOR('',#479,1.);
#479 = DIRECTION('',(0.,1.,0.));
#480 = ORIENTED_EDGE('',*,*,#481,.F.);
#481 = EDGE_CURVE('',#482,#474,#484,.T.);
#482 = VERTEX_POINT('',#483);
#483 = CARTESIAN_POINT('',(0.25,0.25,0.));
#484 = LINE('',#485,#486);
#485 = CARTESIAN_POINT('',(0.25,0.25,0.));
#486 = VECTOR('',#487,1.);
#487 = DIRECTION('',(-0.,-0.,-1.));
#488 = ORIENTED_EDGE('',*,*,#489,.F.);
#489 = EDGE_CURVE('',#451,#482,#490,.T.);
#490 = LINE('',#491,#492);
#491 = CARTESIAN_POINT('',(0.25,-0.25,0.));
#492 = VECTOR('',#493,1.);
#493 = DIRECTION('',(0.,1.,0.));
#494 = PLANE('',#495);
#495 = AXIS2_PLACEMENT_3D('',#496,#497,#498);
#496 = CARTESIAN_POINT('',(0.25,-0.25,0.));
#497 = DIRECTION('',(1.,0.,0.));
#498 = DIRECTION('',(-0.,1.,0.));
#499 = ADVANCED_FACE('',(#500),#516,.T.);
#500 = FACE_BOUND('',#501,.T.);
#501 = EDGE_LOOP('',(#502,#503,#509,#510));
#502 = ORIENTED_EDGE('',*,*,#481,.T.);
#503 = ORIENTED_EDGE('',*,*,#504,.T.);
#504 = EDGE_CURVE('',#474,#404,#505,.T.);
#505 = LINE('',#506,#507);
#506 = CARTESIAN_POINT('',(0.25,0.25,-3.68));
#507 = VECTOR('',#508,1.);
#508 = DIRECTION('',(-1.,0.,0.));
#509 = ORIENTED_EDGE('',*,*,#401,.F.);
#510 = ORIENTED_EDGE('',*,*,#511,.F.);
#511 = EDGE_CURVE('',#482,#402,#512,.T.);
#512 = LINE('',#513,#514);
#513 = CARTESIAN_POINT('',(0.25,0.25,0.));
#514 = VECTOR('',#515,1.);
#515 = DIRECTION('',(-1.,0.,0.));
#516 = PLANE('',#517);
#517 = AXIS2_PLACEMENT_3D('',#518,#519,#520);
#518 = CARTESIAN_POINT('',(0.25,0.25,0.));
#519 = DIRECTION('',(0.,1.,-0.));
#520 = DIRECTION('',(-1.,0.,0.));
#521 = ADVANCED_FACE('',(#522),#528,.T.);
#522 = FACE_BOUND('',#523,.T.);
#523 = EDGE_LOOP('',(#524,#525,#526,#527));
#524 = ORIENTED_EDGE('',*,*,#427,.T.);
#525 = ORIENTED_EDGE('',*,*,#458,.T.);
#526 = ORIENTED_EDGE('',*,*,#489,.T.);
#527 = ORIENTED_EDGE('',*,*,#511,.T.);
#528 = PLANE('',#529);
#529 = AXIS2_PLACEMENT_3D('',#530,#531,#532);
#530 = CARTESIAN_POINT('',(2.22044604925E-16,-4.440892098501E-16,0.));
#531 = DIRECTION('',(0.,0.,1.));
#532 = DIRECTION('',(1.,0.,0.));
#533 = ADVANCED_FACE('',(#534),#540,.F.);
#534 = FACE_BOUND('',#535,.F.);
#535 = EDGE_LOOP('',(#536,#537,#538,#539));
#536 = ORIENTED_EDGE('',*,*,#411,.T.);
#537 = ORIENTED_EDGE('',*,*,#442,.T.);
#538 = ORIENTED_EDGE('',*,*,#473,.T.);
#539 = ORIENTED_EDGE('',*,*,#504,.T.);
#540 = PLANE('',#541);
#541 = AXIS2_PLACEMENT_3D('',#542,#543,#544);
#542 = CARTESIAN_POINT('',(2.22044604925E-16,-4.440892098501E-16,-3.68)
  );
#543 = DIRECTION('',(0.,0.,1.));
#544 = DIRECTION('',(1.,0.,0.));
#545 = ( GEOMETRIC_REPRESENTATION_CONTEXT(3) 
GLOBAL_UNCERTAINTY_ASSIGNED_CONTEXT((#549)) GLOBAL_UNIT_ASSIGNED_CONTEXT
((#546,#547,#548)) REPRESENTATION_CONTEXT('Context #1',
  '3D Context with UNIT and UNCERTAINTY') );
#546 = ( LENGTH_UNIT() NAMED_UNIT(*) SI_UNIT(.MILLI.,.METRE.) );
#547 = ( NAMED_UNIT(*) PLANE_ANGLE_UNIT() SI_UNIT($,.RADIAN.) );
#548 = ( NAMED_UNIT(*) SI_UNIT($,.STERADIAN.) SOLID_ANGLE_UNIT() );
#549 = UNCERTAINTY_MEASURE_WITH_UNIT(LENGTH_MEASURE(1.E-07),#546,
  'distance_accuracy_value','confusion accuracy');
#550 = CONTEXT_DEPENDENT_SHAPE_REPRESENTATION(#551,#553);
#551 = ( REPRESENTATION_RELATIONSHIP('','',#394,#10) 
REPRESENTATION_RELATIONSHIP_WITH_TRANSFORMATION(#552) 
SHAPE_REPRESENTATION_RELATIONSHIP() );
#552 = ITEM_DEFINED_TRANSFORMATION('','',#11,#23);
#553 = PRODUCT_DEFINITION_SHAPE('Placement','Placement of an item',#554
  );
#554 = NEXT_ASSEMBLY_USAGE_OCCURRENCE('83','A2_Pad','',#5,#389,$);
#555 = PRODUCT_RELATED_PRODUCT_CATEGORY('part',$,(#391));
#556 = SHAPE_DEFINITION_REPRESENTATION(#557,#563);
#557 = PRODUCT_DEFINITION_SHAPE('','',#558);
#558 = PRODUCT_DEFINITION('design','',#559,#562);
#559 = PRODUCT_DEFINITION_FORMATION('','',#560);
#560 = PRODUCT('K2_Pad','K2_Pad','',(#561));
#561 = PRODUCT_CONTEXT('',#2,'mechanical');
#562 = PRODUCT_DEFINITION_CONTEXT('part definition',#2,'design');
#563 = ADVANCED_BREP_SHAPE_REPRESENTATION('',(#11,#564),#714);
#564 = MANIFOLD_SOLID_BREP('',#565);
#565 = CLOSED_SHELL('',(#566,#606,#637,#668,#690,#702));
#566 = ADVANCED_FACE('',(#567),#601,.T.);
#567 = FACE_BOUND('',#568,.T.);
#568 = EDGE_LOOP('',(#569,#579,#587,#595));
#569 = ORIENTED_EDGE('',*,*,#570,.T.);
#570 = EDGE_CURVE('',#571,#573,#575,.T.);
#571 = VERTEX_POINT('',#572);
#572 = CARTESIAN_POINT('',(-0.25,0.25,0.));
#573 = VERTEX_POINT('',#574);
#574 = CARTESIAN_POINT('',(-0.25,0.25,-3.68));
#575 = LINE('',#576,#577);
#576 = CARTESIAN_POINT('',(-0.25,0.25,0.));
#577 = VECTOR('',#578,1.);
#578 = DIRECTION('',(-0.,-0.,-1.));
#579 = ORIENTED_EDGE('',*,*,#580,.T.);
#580 = EDGE_CURVE('',#573,#581,#583,.T.);
#581 = VERTEX_POINT('',#582);
#582 = CARTESIAN_POINT('',(-0.25,-0.25,-3.68));
#583 = LINE('',#584,#585);
#584 = CARTESIAN_POINT('',(-0.25,0.25,-3.68));
#585 = VECTOR('',#586,1.);
#586 = DIRECTION('',(0.,-1.,0.));
#587 = ORIENTED_EDGE('',*,*,#588,.F.);
#588 = EDGE_CURVE('',#589,#581,#591,.T.);
#589 = VERTEX_POINT('',#590);
#590 = CARTESIAN_POINT('',(-0.25,-0.25,0.));
#591 = LINE('',#592,#593);
#592 = CARTESIAN_POINT('',(-0.25,-0.25,0.));
#593 = VECTOR('',#594,1.);
#594 = DIRECTION('',(-0.,-0.,-1.));
#595 = ORIENTED_EDGE('',*,*,#596,.F.);
#596 = EDGE_CURVE('',#571,#589,#597,.T.);
#597 = LINE('',#598,#599);
#598 = CARTESIAN_POINT('',(-0.25,0.25,0.));
#599 = VECTOR('',#600,1.);
#600 = DIRECTION('',(0.,-1.,0.));
#601 = PLANE('',#602);
#602 = AXIS2_PLACEMENT_3D('',#603,#604,#605);
#603 = CARTESIAN_POINT('',(-0.25,0.25,0.));
#604 = DIRECTION('',(-1.,0.,0.));
#605 = DIRECTION('',(0.,-1.,0.));
#606 = ADVANCED_FACE('',(#607),#632,.T.);
#607 = FACE_BOUND('',#608,.T.);
#608 = EDGE_LOOP('',(#609,#610,#618,#626));
#609 = ORIENTED_EDGE('',*,*,#588,.T.);
#610 = ORIENTED_EDGE('',*,*,#611,.T.);
#611 = EDGE_CURVE('',#581,#612,#614,.T.);
#612 = VERTEX_POINT('',#613);
#613 = CARTESIAN_POINT('',(0.25,-0.25,-3.68));
#614 = LINE('',#615,#616);
#615 = CARTESIAN_POINT('',(-0.25,-0.25,-3.68));
#616 = VECTOR('',#617,1.);
#617 = DIRECTION('',(1.,0.,0.));
#618 = ORIENTED_EDGE('',*,*,#619,.F.);
#619 = EDGE_CURVE('',#620,#612,#622,.T.);
#620 = VERTEX_POINT('',#621);
#621 = CARTESIAN_POINT('',(0.25,-0.25,0.));
#622 = LINE('',#623,#624);
#623 = CARTESIAN_POINT('',(0.25,-0.25,0.));
#624 = VECTOR('',#625,1.);
#625 = DIRECTION('',(-0.,-0.,-1.));
#626 = ORIENTED_EDGE('',*,*,#627,.F.);
#627 = EDGE_CURVE('',#589,#620,#628,.T.);
#628 = LINE('',#629,#630);
#629 = CARTESIAN_POINT('',(-0.25,-0.25,0.));
#630 = VECTOR('',#631,1.);
#631 = DIRECTION('',(1.,0.,0.));
#632 = PLANE('',#633);
#633 = AXIS2_PLACEMENT_3D('',#634,#635,#636);
#634 = CARTESIAN_POINT('',(-0.25,-0.25,0.));
#635 = DIRECTION('',(0.,-1.,0.));
#636 = DIRECTION('',(1.,0.,0.));
#637 = ADVANCED_FACE('',(#638),#663,.T.);
#638 = FACE_BOUND('',#639,.T.);
#639 = EDGE_LOOP('',(#640,#641,#649,#657));
#640 = ORIENTED_EDGE('',*,*,#619,.T.);
#641 = ORIENTED_EDGE('',*,*,#642,.T.);
#642 = EDGE_CURVE('',#612,#643,#645,.T.);
#643 = VERTEX_POINT('',#644);
#644 = CARTESIAN_POINT('',(0.25,0.25,-3.68));
#645 = LINE('',#646,#647);
#646 = CARTESIAN_POINT('',(0.25,-0.25,-3.68));
#647 = VECTOR('',#648,1.);
#648 = DIRECTION('',(0.,1.,0.));
#649 = ORIENTED_EDGE('',*,*,#650,.F.);
#650 = EDGE_CURVE('',#651,#643,#653,.T.);
#651 = VERTEX_POINT('',#652);
#652 = CARTESIAN_POINT('',(0.25,0.25,0.));
#653 = LINE('',#654,#655);
#654 = CARTESIAN_POINT('',(0.25,0.25,0.));
#655 = VECTOR('',#656,1.);
#656 = DIRECTION('',(-0.,-0.,-1.));
#657 = ORIENTED_EDGE('',*,*,#658,.F.);
#658 = EDGE_CURVE('',#620,#651,#659,.T.);
#659 = LINE('',#660,#661);
#660 = CARTESIAN_POINT('',(0.25,-0.25,0.));
#661 = VECTOR('',#662,1.);
#662 = DIRECTION('',(0.,1.,0.));
#663 = PLANE('',#664);
#664 = AXIS2_PLACEMENT_3D('',#665,#666,#667);
#665 = CARTESIAN_POINT('',(0.25,-0.25,0.));
#666 = DIRECTION('',(1.,0.,0.));
#667 = DIRECTION('',(-0.,1.,0.));
#668 = ADVANCED_FACE('',(#669),#685,.T.);
#669 = FACE_BOUND('',#670,.T.);
#670 = EDGE_LOOP('',(#671,#672,#678,#679));
#671 = ORIENTED_EDGE('',*,*,#650,.T.);
#672 = ORIENTED_EDGE('',*,*,#673,.T.);
#673 = EDGE_CURVE('',#643,#573,#674,.T.);
#674 = LINE('',#675,#676);
#675 = CARTESIAN_POINT('',(0.25,0.25,-3.68));
#676 = VECTOR('',#677,1.);
#677 = DIRECTION('',(-1.,0.,0.));
#678 = ORIENTED_EDGE('',*,*,#570,.F.);
#679 = ORIENTED_EDGE('',*,*,#680,.F.);
#680 = EDGE_CURVE('',#651,#571,#681,.T.);
#681 = LINE('',#682,#683);
#682 = CARTESIAN_POINT('',(0.25,0.25,0.));
#683 = VECTOR('',#684,1.);
#684 = DIRECTION('',(-1.,0.,0.));
#685 = PLANE('',#686);
#686 = AXIS2_PLACEMENT_3D('',#687,#688,#689);
#687 = CARTESIAN_POINT('',(0.25,0.25,0.));
#688 = DIRECTION('',(0.,1.,-0.));
#689 = DIRECTION('',(-1.,0.,0.));
#690 = ADVANCED_FACE('',(#691),#697,.T.);
#691 = FACE_BOUND('',#692,.T.);
#692 = EDGE_LOOP('',(#693,#694,#695,#696));
#693 = ORIENTED_EDGE('',*,*,#596,.T.);
#694 = ORIENTED_EDGE('',*,*,#627,.T.);
#695 = ORIENTED_EDGE('',*,*,#658,.T.);
#696 = ORIENTED_EDGE('',*,*,#680,.T.);
#697 = PLANE('',#698);
#698 = AXIS2_PLACEMENT_3D('',#699,#700,#701);
#699 = CARTESIAN_POINT('',(-2.22044604925E-16,-4.440892098501E-16,0.));
#700 = DIRECTION('',(0.,0.,1.));
#701 = DIRECTION('',(1.,0.,0.));
#702 = ADVANCED_FACE('',(#703),#709,.F.);
#703 = FACE_BOUND('',#704,.F.);
#704 = EDGE_LOOP('',(#705,#706,#707,#708));
#705 = ORIENTED_EDGE('',*,*,#580,.T.);
#706 = ORIENTED_EDGE('',*,*,#611,.T.);
#707 = ORIENTED_EDGE('',*,*,#642,.T.);
#708 = ORIENTED_EDGE('',*,*,#673,.T.);
#709 = PLANE('',#710);
#710 = AXIS2_PLACEMENT_3D('',#711,#712,#713);
#711 = CARTESIAN_POINT('',(-2.22044604925E-16,-4.440892098501E-16,-3.68)
  );
#712 = DIRECTION('',(0.,0.,1.));
#713 = DIRECTION('',(1.,0.,0.));
#714 = ( GEOMETRIC_REPRESENTATION_CONTEXT(3) 
GLOBAL_UNCERTAINTY_ASSIGNED_CONTEXT((#718)) GLOBAL_UNIT_ASSIGNED_CONTEXT
((#715,#716,#717)) REPRESENTATION_CONTEXT('Context #1',
  '3D Context with UNIT and UNCERTAINTY') );
#715 = ( LENGTH_UNIT() NAMED_UNIT(*) SI_UNIT(.MILLI.,.METRE.) );
#716 = ( NAMED_UNIT(*) PLANE_ANGLE_UNIT() SI_UNIT($,.RADIAN.) );
#717 = ( NAMED_UNIT(*) SI_UNIT($,.STERADIAN.) SOLID_ANGLE_UNIT() );
#718 = UNCERTAINTY_MEASURE_WITH_UNIT(LENGTH_MEASURE(1.E-07),#715,
  'distance_accuracy_value','confusion accuracy');
#719 = CONTEXT_DEPENDENT_SHAPE_REPRESENTATION(#720,#722);
#720 = ( REPRESENTATION_RELATIONSHIP('','',#563,#10) 
REPRESENTATION_RELATIONSHIP_WITH_TRANSFORMATION(#721) 
SHAPE_REPRESENTATION_RELATIONSHIP() );
#721 = ITEM_DEFINED_TRANSFORMATION('','',#11,#27);
#722 = PRODUCT_DEFINITION_SHAPE('Placement','Placement of an item',#723
  );
#723 = NEXT_ASSEMBLY_USAGE_OCCURRENCE('84','K2_Pad','',#5,#558,$);
#724 = PRODUCT_RELATED_PRODUCT_CATEGORY('part',$,(#560));
#725 = SHAPE_DEFINITION_REPRESENTATION(#726,#732);
#726 = PRODUCT_DEFINITION_SHAPE('','',#727);
#727 = PRODUCT_DEFINITION('design','',#728,#731);
#728 = PRODUCT_DEFINITION_FORMATION('','',#729);
#729 = PRODUCT('Red_LED_Obluk','Red_LED_Obluk','',(#730));
#730 = PRODUCT_CONTEXT('',#2,'mechanical');
#731 = PRODUCT_DEFINITION_CONTEXT('part definition',#2,'design');
#732 = ADVANCED_BREP_SHAPE_REPRESENTATION('',(#11,#733),#796);
#733 = MANIFOLD_SOLID_BREP('',#734);
#734 = CLOSED_SHELL('',(#735,#768,#787));
#735 = ADVANCED_FACE('',(#736),#763,.T.);
#736 = FACE_BOUND('',#737,.F.);
#737 = EDGE_LOOP('',(#738,#748,#755,#756));
#738 = ORIENTED_EDGE('',*,*,#739,.T.);
#739 = EDGE_CURVE('',#740,#742,#744,.T.);
#740 = VERTEX_POINT('',#741);
#741 = CARTESIAN_POINT('',(1.45,-4.44,7.62));
#742 = VERTEX_POINT('',#743);
#743 = CARTESIAN_POINT('',(1.45,-5.79,7.62));
#744 = LINE('',#745,#746);
#745 = CARTESIAN_POINT('',(1.45,-4.44,7.62));
#746 = VECTOR('',#747,1.);
#747 = DIRECTION('',(0.,-1.,2.2E-16));
#748 = ORIENTED_EDGE('',*,*,#749,.T.);
#749 = EDGE_CURVE('',#742,#742,#750,.T.);
#750 = CIRCLE('',#751,1.45);
#751 = AXIS2_PLACEMENT_3D('',#752,#753,#754);
#752 = CARTESIAN_POINT('',(0.,-5.79,7.62));
#753 = DIRECTION('',(-0.,-1.,0.));
#754 = DIRECTION('',(1.,-0.,6.1E-16));
#755 = ORIENTED_EDGE('',*,*,#739,.F.);
#756 = ORIENTED_EDGE('',*,*,#757,.F.);
#757 = EDGE_CURVE('',#740,#740,#758,.T.);
#758 = CIRCLE('',#759,1.45);
#759 = AXIS2_PLACEMENT_3D('',#760,#761,#762);
#760 = CARTESIAN_POINT('',(0.,-4.44,7.62));
#761 = DIRECTION('',(0.,-1.,0.));
#762 = DIRECTION('',(1.,0.,0.));
#763 = CYLINDRICAL_SURFACE('',#764,1.45);
#764 = AXIS2_PLACEMENT_3D('',#765,#766,#767);
#765 = CARTESIAN_POINT('',(0.,-4.44,7.62));
#766 = DIRECTION('',(0.,1.,-2.2E-16));
#767 = DIRECTION('',(1.,0.,0.));
#768 = ADVANCED_FACE('',(#769),#782,.T.);
#769 = FACE_BOUND('',#770,.T.);
#770 = EDGE_LOOP('',(#771,#780,#781));
#771 = ORIENTED_EDGE('',*,*,#772,.F.);
#772 = EDGE_CURVE('',#742,#773,#775,.T.);
#773 = VERTEX_POINT('',#774);
#774 = CARTESIAN_POINT('',(0.,-7.24,7.62));
#775 = CIRCLE('',#776,1.45);
#776 = AXIS2_PLACEMENT_3D('',#777,#778,#779);
#777 = CARTESIAN_POINT('',(0.,-5.79,7.62));
#778 = DIRECTION('',(-0.,0.,-1.));
#779 = DIRECTION('',(1.,0.,-0.));
#780 = ORIENTED_EDGE('',*,*,#749,.T.);
#781 = ORIENTED_EDGE('',*,*,#772,.T.);
#782 = SPHERICAL_SURFACE('',#783,1.45);
#783 = AXIS2_PLACEMENT_3D('',#784,#785,#786);
#784 = CARTESIAN_POINT('',(0.,-5.79,7.62));
#785 = DIRECTION('',(-0.,-1.,-0.));
#786 = DIRECTION('',(1.,-0.,6.1E-16));
#787 = ADVANCED_FACE('',(#788),#791,.T.);
#788 = FACE_BOUND('',#789,.F.);
#789 = EDGE_LOOP('',(#790));
#790 = ORIENTED_EDGE('',*,*,#757,.T.);
#791 = PLANE('',#792);
#792 = AXIS2_PLACEMENT_3D('',#793,#794,#795);
#793 = CARTESIAN_POINT('',(6.E-17,-4.44,7.62));
#794 = DIRECTION('',(0.,1.,0.));
#795 = DIRECTION('',(0.,0.,1.));
#796 = ( GEOMETRIC_REPRESENTATION_CONTEXT(3) 
GLOBAL_UNCERTAINTY_ASSIGNED_CONTEXT((#800)) GLOBAL_UNIT_ASSIGNED_CONTEXT
((#797,#798,#799)) REPRESENTATION_CONTEXT('Context #1',
  '3D Context with UNIT and UNCERTAINTY') );
#797 = ( LENGTH_UNIT() NAMED_UNIT(*) SI_UNIT(.MILLI.,.METRE.) );
#798 = ( NAMED_UNIT(*) PLANE_ANGLE_UNIT() SI_UNIT($,.RADIAN.) );
#799 = ( NAMED_UNIT(*) SI_UNIT($,.STERADIAN.) SOLID_ANGLE_UNIT() );
#800 = UNCERTAINTY_MEASURE_WITH_UNIT(LENGTH_MEASURE(1.E-07),#797,
  'distance_accuracy_value','confusion accuracy');
#801 = CONTEXT_DEPENDENT_SHAPE_REPRESENTATION(#802,#804);
#802 = ( REPRESENTATION_RELATIONSHIP('','',#732,#10) 
REPRESENTATION_RELATIONSHIP_WITH_TRANSFORMATION(#803) 
SHAPE_REPRESENTATION_RELATIONSHIP() );
#803 = ITEM_DEFINED_TRANSFORMATION('','',#11,#31);
#804 = PRODUCT_DEFINITION_SHAPE('Placement','Placement of an item',#805
  );
#805 = NEXT_ASSEMBLY_USAGE_OCCURRENCE('85','Red_LED_Obluk','',#5,#727,$
  );
#806 = PRODUCT_RELATED_PRODUCT_CATEGORY('part',$,(#729));
#807 = SHAPE_DEFINITION_REPRESENTATION(#808,#814);
#808 = PRODUCT_DEFINITION_SHAPE('','',#809);
#809 = PRODUCT_DEFINITION('design','',#810,#813);
#810 = PRODUCT_DEFINITION_FORMATION('','',#811);
#811 = PRODUCT('Green_LED_Obluk','Green_LED_Obluk','',(#812));
#812 = PRODUCT_CONTEXT('',#2,'mechanical');
#813 = PRODUCT_DEFINITION_CONTEXT('part definition',#2,'design');
#814 = ADVANCED_BREP_SHAPE_REPRESENTATION('',(#11,#815),#878);
#815 = MANIFOLD_SOLID_BREP('',#816);
#816 = CLOSED_SHELL('',(#817,#850,#869));
#817 = ADVANCED_FACE('',(#818),#845,.T.);
#818 = FACE_BOUND('',#819,.F.);
#819 = EDGE_LOOP('',(#820,#830,#837,#838));
#820 = ORIENTED_EDGE('',*,*,#821,.T.);
#821 = EDGE_CURVE('',#822,#824,#826,.T.);
#822 = VERTEX_POINT('',#823);
#823 = CARTESIAN_POINT('',(1.45,-4.44,2.54));
#824 = VERTEX_POINT('',#825);
#825 = CARTESIAN_POINT('',(1.45,-5.79,2.54));
#826 = LINE('',#827,#828);
#827 = CARTESIAN_POINT('',(1.45,-4.44,2.54));
#828 = VECTOR('',#829,1.);
#829 = DIRECTION('',(0.,-1.,2.2E-16));
#830 = ORIENTED_EDGE('',*,*,#831,.T.);
#831 = EDGE_CURVE('',#824,#824,#832,.T.);
#832 = CIRCLE('',#833,1.45);
#833 = AXIS2_PLACEMENT_3D('',#834,#835,#836);
#834 = CARTESIAN_POINT('',(0.,-5.79,2.54));
#835 = DIRECTION('',(-0.,-1.,0.));
#836 = DIRECTION('',(1.,-0.,3.1E-16));
#837 = ORIENTED_EDGE('',*,*,#821,.F.);
#838 = ORIENTED_EDGE('',*,*,#839,.F.);
#839 = EDGE_CURVE('',#822,#822,#840,.T.);
#840 = CIRCLE('',#841,1.45);
#841 = AXIS2_PLACEMENT_3D('',#842,#843,#844);
#842 = CARTESIAN_POINT('',(0.,-4.44,2.54));
#843 = DIRECTION('',(0.,-1.,0.));
#844 = DIRECTION('',(1.,0.,0.));
#845 = CYLINDRICAL_SURFACE('',#846,1.45);
#846 = AXIS2_PLACEMENT_3D('',#847,#848,#849);
#847 = CARTESIAN_POINT('',(0.,-4.44,2.54));
#848 = DIRECTION('',(0.,1.,-2.2E-16));
#849 = DIRECTION('',(1.,0.,0.));
#850 = ADVANCED_FACE('',(#851),#864,.T.);
#851 = FACE_BOUND('',#852,.T.);
#852 = EDGE_LOOP('',(#853,#862,#863));
#853 = ORIENTED_EDGE('',*,*,#854,.F.);
#854 = EDGE_CURVE('',#824,#855,#857,.T.);
#855 = VERTEX_POINT('',#856);
#856 = CARTESIAN_POINT('',(0.,-7.24,2.54));
#857 = CIRCLE('',#858,1.45);
#858 = AXIS2_PLACEMENT_3D('',#859,#860,#861);
#859 = CARTESIAN_POINT('',(0.,-5.79,2.54));
#860 = DIRECTION('',(3.1E-16,0.,-1.));
#861 = DIRECTION('',(1.,0.,3.1E-16));
#862 = ORIENTED_EDGE('',*,*,#831,.T.);
#863 = ORIENTED_EDGE('',*,*,#854,.T.);
#864 = SPHERICAL_SURFACE('',#865,1.45);
#865 = AXIS2_PLACEMENT_3D('',#866,#867,#868);
#866 = CARTESIAN_POINT('',(0.,-5.79,2.54));
#867 = DIRECTION('',(-0.,-1.,-0.));
#868 = DIRECTION('',(1.,-0.,3.1E-16));
#869 = ADVANCED_FACE('',(#870),#873,.T.);
#870 = FACE_BOUND('',#871,.F.);
#871 = EDGE_LOOP('',(#872));
#872 = ORIENTED_EDGE('',*,*,#839,.T.);
#873 = PLANE('',#874);
#874 = AXIS2_PLACEMENT_3D('',#875,#876,#877);
#875 = CARTESIAN_POINT('',(-9.E-17,-4.44,2.54));
#876 = DIRECTION('',(0.,1.,0.));
#877 = DIRECTION('',(0.,0.,1.));
#878 = ( GEOMETRIC_REPRESENTATION_CONTEXT(3) 
GLOBAL_UNCERTAINTY_ASSIGNED_CONTEXT((#882)) GLOBAL_UNIT_ASSIGNED_CONTEXT
((#879,#880,#881)) REPRESENTATION_CONTEXT('Context #1',
  '3D Context with UNIT and UNCERTAINTY') );
#879 = ( LENGTH_UNIT() NAMED_UNIT(*) SI_UNIT(.MILLI.,.METRE.) );
#880 = ( NAMED_UNIT(*) PLANE_ANGLE_UNIT() SI_UNIT($,.RADIAN.) );
#881 = ( NAMED_UNIT(*) SI_UNIT($,.STERADIAN.) SOLID_ANGLE_UNIT() );
#882 = UNCERTAINTY_MEASURE_WITH_UNIT(LENGTH_MEASURE(1.E-07),#879,
  'distance_accuracy_value','confusion accuracy');
#883 = CONTEXT_DEPENDENT_SHAPE_REPRESENTATION(#884,#886);
#884 = ( REPRESENTATION_RELATIONSHIP('','',#814,#10) 
REPRESENTATION_RELATIONSHIP_WITH_TRANSFORMATION(#885) 
SHAPE_REPRESENTATION_RELATIONSHIP() );
#885 = ITEM_DEFINED_TRANSFORMATION('','',#11,#35);
#886 = PRODUCT_DEFINITION_SHAPE('Placement','Placement of an item',#887
  );
#887 = NEXT_ASSEMBLY_USAGE_OCCURRENCE('86','Green_LED_Obluk','',#5,#809,
  $);
#888 = PRODUCT_RELATED_PRODUCT_CATEGORY('part',$,(#811));
#889 = SHAPE_DEFINITION_REPRESENTATION(#890,#896);
#890 = PRODUCT_DEFINITION_SHAPE('','',#891);
#891 = PRODUCT_DEFINITION('design','',#892,#895);
#892 = PRODUCT_DEFINITION_FORMATION('','',#893);
#893 = PRODUCT('Chamfer','Chamfer','',(#894));
#894 = PRODUCT_CONTEXT('',#2,'mechanical');
#895 = PRODUCT_DEFINITION_CONTEXT('part definition',#2,'design');
#896 = ADVANCED_BREP_SHAPE_REPRESENTATION('',(#11,#897),#1080);
#897 = MANIFOLD_SOLID_BREP('',#898);
#898 = CLOSED_SHELL('',(#899,#947,#978,#1002,#1026,#1050,#1067));
#899 = ADVANCED_FACE('',(#900),#942,.F.);
#900 = FACE_BOUND('',#901,.F.);
#901 = EDGE_LOOP('',(#902,#912,#920,#928,#936));
#902 = ORIENTED_EDGE('',*,*,#903,.F.);
#903 = EDGE_CURVE('',#904,#906,#908,.T.);
#904 = VERTEX_POINT('',#905);
#905 = CARTESIAN_POINT('',(2.15,-4.44,0.));
#906 = VERTEX_POINT('',#907);
#907 = CARTESIAN_POINT('',(2.15,-4.44,9.15));
#908 = LINE('',#909,#910);
#909 = CARTESIAN_POINT('',(2.15,-4.44,0.));
#910 = VECTOR('',#911,1.);
#911 = DIRECTION('',(0.,0.,1.));
#912 = ORIENTED_EDGE('',*,*,#913,.F.);
#913 = EDGE_CURVE('',#914,#904,#916,.T.);
#914 = VERTEX_POINT('',#915);
#915 = CARTESIAN_POINT('',(-2.15,-4.44,0.));
#916 = LINE('',#917,#918);
#917 = CARTESIAN_POINT('',(-2.15,-4.44,0.));
#918 = VECTOR('',#919,1.);
#919 = DIRECTION('',(1.,0.,0.));
#920 = ORIENTED_EDGE('',*,*,#921,.T.);
#921 = EDGE_CURVE('',#914,#922,#924,.T.);
#922 = VERTEX_POINT('',#923);
#923 = CARTESIAN_POINT('',(-2.15,-4.44,9.65));
#924 = LINE('',#925,#926);
#925 = CARTESIAN_POINT('',(-2.15,-4.44,0.));
#926 = VECTOR('',#927,1.);
#927 = DIRECTION('',(0.,0.,1.));
#928 = ORIENTED_EDGE('',*,*,#929,.T.);
#929 = EDGE_CURVE('',#922,#930,#932,.T.);
#930 = VERTEX_POINT('',#931);
#931 = CARTESIAN_POINT('',(1.65,-4.44,9.65));
#932 = LINE('',#933,#934);
#933 = CARTESIAN_POINT('',(-2.15,-4.44,9.65));
#934 = VECTOR('',#935,1.);
#935 = DIRECTION('',(1.,0.,0.));
#936 = ORIENTED_EDGE('',*,*,#937,.F.);
#937 = EDGE_CURVE('',#906,#930,#938,.T.);
#938 = LINE('',#939,#940);
#939 = CARTESIAN_POINT('',(3.2375,-4.44,8.0625));
#940 = VECTOR('',#941,1.);
#941 = DIRECTION('',(-0.707106781187,0.,0.707106781187));
#942 = PLANE('',#943);
#943 = AXIS2_PLACEMENT_3D('',#944,#945,#946);
#944 = CARTESIAN_POINT('',(-2.15,-4.44,0.));
#945 = DIRECTION('',(0.,1.,0.));
#946 = DIRECTION('',(1.,0.,0.));
#947 = ADVANCED_FACE('',(#948),#973,.F.);
#948 = FACE_BOUND('',#949,.F.);
#949 = EDGE_LOOP('',(#950,#951,#959,#967));
#950 = ORIENTED_EDGE('',*,*,#903,.T.);
#951 = ORIENTED_EDGE('',*,*,#952,.T.);
#952 = EDGE_CURVE('',#906,#953,#955,.T.);
#953 = VERTEX_POINT('',#954);
#954 = CARTESIAN_POINT('',(2.15,3.69,9.15));
#955 = LINE('',#956,#957);
#956 = CARTESIAN_POINT('',(2.15,-4.44,9.15));
#957 = VECTOR('',#958,1.);
#958 = DIRECTION('',(0.,1.,0.));
#959 = ORIENTED_EDGE('',*,*,#960,.F.);
#960 = EDGE_CURVE('',#961,#953,#963,.T.);
#961 = VERTEX_POINT('',#962);
#962 = CARTESIAN_POINT('',(2.15,3.69,0.));
#963 = LINE('',#964,#965);
#964 = CARTESIAN_POINT('',(2.15,3.69,0.));
#965 = VECTOR('',#966,1.);
#966 = DIRECTION('',(0.,0.,1.));
#967 = ORIENTED_EDGE('',*,*,#968,.F.);
#968 = EDGE_CURVE('',#904,#961,#969,.T.);
#969 = LINE('',#970,#971);
#970 = CARTESIAN_POINT('',(2.15,-4.44,0.));
#971 = VECTOR('',#972,1.);
#972 = DIRECTION('',(0.,1.,0.));
#973 = PLANE('',#974);
#974 = AXIS2_PLACEMENT_3D('',#975,#976,#977);
#975 = CARTESIAN_POINT('',(2.15,-4.44,0.));
#976 = DIRECTION('',(-1.,0.,0.));
#977 = DIRECTION('',(0.,1.,0.));
#978 = ADVANCED_FACE('',(#979),#997,.F.);
#979 = FACE_BOUND('',#980,.T.);
#980 = EDGE_LOOP('',(#981,#982,#983,#991));
#981 = ORIENTED_EDGE('',*,*,#937,.F.);
#982 = ORIENTED_EDGE('',*,*,#952,.T.);
#983 = ORIENTED_EDGE('',*,*,#984,.T.);
#984 = EDGE_CURVE('',#953,#985,#987,.T.);
#985 = VERTEX_POINT('',#986);
#986 = CARTESIAN_POINT('',(1.65,3.69,9.65));
#987 = LINE('',#988,#989);
#988 = CARTESIAN_POINT('',(4.3125,3.69,6.9875));
#989 = VECTOR('',#990,1.);
#990 = DIRECTION('',(-0.707106781187,-0.,0.707106781187));
#991 = ORIENTED_EDGE('',*,*,#992,.F.);
#992 = EDGE_CURVE('',#930,#985,#993,.T.);
#993 = LINE('',#994,#995);
#994 = CARTESIAN_POINT('',(1.65,-4.44,9.65));
#995 = VECTOR('',#996,1.);
#996 = DIRECTION('',(0.,1.,0.));
#997 = PLANE('',#998);
#998 = AXIS2_PLACEMENT_3D('',#999,#1000,#1001);
#999 = CARTESIAN_POINT('',(1.9,-4.44,9.4));
#1000 = DIRECTION('',(-0.707106781187,0.,-0.707106781187));
#1001 = DIRECTION('',(-0.,-1.,-0.));
#1002 = ADVANCED_FACE('',(#1003),#1021,.F.);
#1003 = FACE_BOUND('',#1004,.F.);
#1004 = EDGE_LOOP('',(#1005,#1006,#1007,#1015));
#1005 = ORIENTED_EDGE('',*,*,#913,.T.);
#1006 = ORIENTED_EDGE('',*,*,#968,.T.);
#1007 = ORIENTED_EDGE('',*,*,#1008,.T.);
#1008 = EDGE_CURVE('',#961,#1009,#1011,.T.);
#1009 = VERTEX_POINT('',#1010);
#1010 = CARTESIAN_POINT('',(-2.15,3.69,0.));
#1011 = LINE('',#1012,#1013);
#1012 = CARTESIAN_POINT('',(2.15,3.69,0.));
#1013 = VECTOR('',#1014,1.);
#1014 = DIRECTION('',(-1.,0.,0.));
#1015 = ORIENTED_EDGE('',*,*,#1016,.T.);
#1016 = EDGE_CURVE('',#1009,#914,#1017,.T.);
#1017 = LINE('',#1018,#1019);
#1018 = CARTESIAN_POINT('',(-2.15,3.69,0.));
#1019 = VECTOR('',#1020,1.);
#1020 = DIRECTION('',(0.,-1.,0.));
#1021 = PLANE('',#1022);
#1022 = AXIS2_PLACEMENT_3D('',#1023,#1024,#1025);
#1023 = CARTESIAN_POINT('',(0.,-0.375,0.));
#1024 = DIRECTION('',(0.,0.,1.));
#1025 = DIRECTION('',(1.,0.,0.));
#1026 = ADVANCED_FACE('',(#1027),#1045,.T.);
#1027 = FACE_BOUND('',#1028,.T.);
#1028 = EDGE_LOOP('',(#1029,#1030,#1031,#1039));
#1029 = ORIENTED_EDGE('',*,*,#929,.T.);
#1030 = ORIENTED_EDGE('',*,*,#992,.T.);
#1031 = ORIENTED_EDGE('',*,*,#1032,.T.);
#1032 = EDGE_CURVE('',#985,#1033,#1035,.T.);
#1033 = VERTEX_POINT('',#1034);
#1034 = CARTESIAN_POINT('',(-2.15,3.69,9.65));
#1035 = LINE('',#1036,#1037);
#1036 = CARTESIAN_POINT('',(2.15,3.69,9.65));
#1037 = VECTOR('',#1038,1.);
#1038 = DIRECTION('',(-1.,0.,0.));
#1039 = ORIENTED_EDGE('',*,*,#1040,.T.);
#1040 = EDGE_CURVE('',#1033,#922,#1041,.T.);
#1041 = LINE('',#1042,#1043);
#1042 = CARTESIAN_POINT('',(-2.15,3.69,9.65));
#1043 = VECTOR('',#1044,1.);
#1044 = DIRECTION('',(0.,-1.,0.));
#1045 = PLANE('',#1046);
#1046 = AXIS2_PLACEMENT_3D('',#1047,#1048,#1049);
#1047 = CARTESIAN_POINT('',(0.,-0.375,9.65));
#1048 = DIRECTION('',(0.,0.,1.));
#1049 = DIRECTION('',(1.,0.,0.));
#1050 = ADVANCED_FACE('',(#1051),#1062,.F.);
#1051 = FACE_BOUND('',#1052,.F.);
#1052 = EDGE_LOOP('',(#1053,#1059,#1060,#1061));
#1053 = ORIENTED_EDGE('',*,*,#1054,.T.);
#1054 = EDGE_CURVE('',#1009,#1033,#1055,.T.);
#1055 = LINE('',#1056,#1057);
#1056 = CARTESIAN_POINT('',(-2.15,3.69,0.));
#1057 = VECTOR('',#1058,1.);
#1058 = DIRECTION('',(0.,0.,1.));
#1059 = ORIENTED_EDGE('',*,*,#1040,.T.);
#1060 = ORIENTED_EDGE('',*,*,#921,.F.);
#1061 = ORIENTED_EDGE('',*,*,#1016,.F.);
#1062 = PLANE('',#1063);
#1063 = AXIS2_PLACEMENT_3D('',#1064,#1065,#1066);
#1064 = CARTESIAN_POINT('',(-2.15,3.69,0.));
#1065 = DIRECTION('',(1.,0.,0.));
#1066 = DIRECTION('',(0.,-1.,0.));
#1067 = ADVANCED_FACE('',(#1068),#1075,.F.);
#1068 = FACE_BOUND('',#1069,.F.);
#1069 = EDGE_LOOP('',(#1070,#1071,#1072,#1073,#1074));
#1070 = ORIENTED_EDGE('',*,*,#960,.T.);
#1071 = ORIENTED_EDGE('',*,*,#984,.T.);
#1072 = ORIENTED_EDGE('',*,*,#1032,.T.);
#1073 = ORIENTED_EDGE('',*,*,#1054,.F.);
#1074 = ORIENTED_EDGE('',*,*,#1008,.F.);
#1075 = PLANE('',#1076);
#1076 = AXIS2_PLACEMENT_3D('',#1077,#1078,#1079);
#1077 = CARTESIAN_POINT('',(2.15,3.69,0.));
#1078 = DIRECTION('',(0.,-1.,0.));
#1079 = DIRECTION('',(-1.,0.,0.));
#1080 = ( GEOMETRIC_REPRESENTATION_CONTEXT(3) 
GLOBAL_UNCERTAINTY_ASSIGNED_CONTEXT((#1084)) 
GLOBAL_UNIT_ASSIGNED_CONTEXT((#1081,#1082,#1083)) REPRESENTATION_CONTEXT
('Context #1','3D Context with UNIT and UNCERTAINTY') );
#1081 = ( LENGTH_UNIT() NAMED_UNIT(*) SI_UNIT(.MILLI.,.METRE.) );
#1082 = ( NAMED_UNIT(*) PLANE_ANGLE_UNIT() SI_UNIT($,.RADIAN.) );
#1083 = ( NAMED_UNIT(*) SI_UNIT($,.STERADIAN.) SOLID_ANGLE_UNIT() );
#1084 = UNCERTAINTY_MEASURE_WITH_UNIT(LENGTH_MEASURE(1.E-07),#1081,
  'distance_accuracy_value','confusion accuracy');
#1085 = CONTEXT_DEPENDENT_SHAPE_REPRESENTATION(#1086,#1088);
#1086 = ( REPRESENTATION_RELATIONSHIP('','',#896,#10) 
REPRESENTATION_RELATIONSHIP_WITH_TRANSFORMATION(#1087) 
SHAPE_REPRESENTATION_RELATIONSHIP() );
#1087 = ITEM_DEFINED_TRANSFORMATION('','',#11,#39);
#1088 = PRODUCT_DEFINITION_SHAPE('Placement','Placement of an item',
  #1089);
#1089 = NEXT_ASSEMBLY_USAGE_OCCURRENCE('87','Chamfer','',#5,#891,$);
#1090 = PRODUCT_RELATED_PRODUCT_CATEGORY('part',$,(#893));
#1091 = MECHANICAL_DESIGN_GEOMETRIC_PRESENTATION_REPRESENTATION('',(
    #1092),#545);
#1092 = STYLED_ITEM('color',(#1093),#395);
#1093 = PRESENTATION_STYLE_ASSIGNMENT((#1094,#1100));
#1094 = SURFACE_STYLE_USAGE(.BOTH.,#1095);
#1095 = SURFACE_SIDE_STYLE('',(#1096));
#1096 = SURFACE_STYLE_FILL_AREA(#1097);
#1097 = FILL_AREA_STYLE('',(#1098));
#1098 = FILL_AREA_STYLE_COLOUR('',#1099);
#1099 = COLOUR_RGB('',0.800000010877,0.800000010877,0.901960800373);
#1100 = CURVE_STYLE('',#1101,POSITIVE_LENGTH_MEASURE(0.1),#1102);
#1101 = DRAUGHTING_PRE_DEFINED_CURVE_FONT('continuous');
#1102 = COLOUR_RGB('',9.803921802644E-02,9.803921802644E-02,
  9.803921802644E-02);
#1103 = MECHANICAL_DESIGN_GEOMETRIC_PRESENTATION_REPRESENTATION('',(
    #1104),#376);
#1104 = STYLED_ITEM('color',(#1105),#226);
#1105 = PRESENTATION_STYLE_ASSIGNMENT((#1106,#1111));
#1106 = SURFACE_STYLE_USAGE(.BOTH.,#1107);
#1107 = SURFACE_SIDE_STYLE('',(#1108));
#1108 = SURFACE_STYLE_FILL_AREA(#1109);
#1109 = FILL_AREA_STYLE('',(#1110));
#1110 = FILL_AREA_STYLE_COLOUR('',#1099);
#1111 = CURVE_STYLE('',#1112,POSITIVE_LENGTH_MEASURE(0.1),#1102);
#1112 = DRAUGHTING_PRE_DEFINED_CURVE_FONT('continuous');
#1113 = MECHANICAL_DESIGN_GEOMETRIC_PRESENTATION_REPRESENTATION('',(
    #1114),#796);
#1114 = STYLED_ITEM('color',(#1115),#733);
#1115 = PRESENTATION_STYLE_ASSIGNMENT((#1116,#1122));
#1116 = SURFACE_STYLE_USAGE(.BOTH.,#1117);
#1117 = SURFACE_SIDE_STYLE('',(#1118));
#1118 = SURFACE_STYLE_FILL_AREA(#1119);
#1119 = FILL_AREA_STYLE('',(#1120));
#1120 = FILL_AREA_STYLE_COLOUR('',#1121);
#1121 = DRAUGHTING_PRE_DEFINED_COLOUR('red');
#1122 = CURVE_STYLE('',#1123,POSITIVE_LENGTH_MEASURE(0.1),#1121);
#1123 = DRAUGHTING_PRE_DEFINED_CURVE_FONT('continuous');
#1124 = MECHANICAL_DESIGN_GEOMETRIC_PRESENTATION_REPRESENTATION('',(
    #1125),#714);
#1125 = STYLED_ITEM('color',(#1126),#564);
#1126 = PRESENTATION_STYLE_ASSIGNMENT((#1127,#1132));
#1127 = SURFACE_STYLE_USAGE(.BOTH.,#1128);
#1128 = SURFACE_SIDE_STYLE('',(#1129));
#1129 = SURFACE_STYLE_FILL_AREA(#1130);
#1130 = FILL_AREA_STYLE('',(#1131));
#1131 = FILL_AREA_STYLE_COLOUR('',#1099);
#1132 = CURVE_STYLE('',#1133,POSITIVE_LENGTH_MEASURE(0.1),#1102);
#1133 = DRAUGHTING_PRE_DEFINED_CURVE_FONT('continuous');
#1134 = MECHANICAL_DESIGN_GEOMETRIC_PRESENTATION_REPRESENTATION('',(
    #1135),#207);
#1135 = STYLED_ITEM('color',(#1136),#57);
#1136 = PRESENTATION_STYLE_ASSIGNMENT((#1137,#1142));
#1137 = SURFACE_STYLE_USAGE(.BOTH.,#1138);
#1138 = SURFACE_SIDE_STYLE('',(#1139));
#1139 = SURFACE_STYLE_FILL_AREA(#1140);
#1140 = FILL_AREA_STYLE('',(#1141));
#1141 = FILL_AREA_STYLE_COLOUR('',#1099);
#1142 = CURVE_STYLE('',#1143,POSITIVE_LENGTH_MEASURE(0.1),#1102);
#1143 = DRAUGHTING_PRE_DEFINED_CURVE_FONT('continuous');
#1144 = MECHANICAL_DESIGN_GEOMETRIC_PRESENTATION_REPRESENTATION('',(
    #1145),#878);
#1145 = STYLED_ITEM('color',(#1146),#815);
#1146 = PRESENTATION_STYLE_ASSIGNMENT((#1147,#1153));
#1147 = SURFACE_STYLE_USAGE(.BOTH.,#1148);
#1148 = SURFACE_SIDE_STYLE('',(#1149));
#1149 = SURFACE_STYLE_FILL_AREA(#1150);
#1150 = FILL_AREA_STYLE('',(#1151));
#1151 = FILL_AREA_STYLE_COLOUR('',#1152);
#1152 = COLOUR_RGB('',0.,0.666666687201,0.);
#1153 = CURVE_STYLE('',#1154,POSITIVE_LENGTH_MEASURE(0.1),#1152);
#1154 = DRAUGHTING_PRE_DEFINED_CURVE_FONT('continuous');
#1155 = MECHANICAL_DESIGN_GEOMETRIC_PRESENTATION_REPRESENTATION('',(
    #1156),#1080);
#1156 = STYLED_ITEM('color',(#1157),#897);
#1157 = PRESENTATION_STYLE_ASSIGNMENT((#1158,#1164));
#1158 = SURFACE_STYLE_USAGE(.BOTH.,#1159);
#1159 = SURFACE_SIDE_STYLE('',(#1160));
#1160 = SURFACE_STYLE_FILL_AREA(#1161);
#1161 = FILL_AREA_STYLE('',(#1162));
#1162 = FILL_AREA_STYLE_COLOUR('',#1163);
#1163 = DRAUGHTING_PRE_DEFINED_COLOUR('black');
#1164 = CURVE_STYLE('',#1165,POSITIVE_LENGTH_MEASURE(0.1),#1163);
#1165 = DRAUGHTING_PRE_DEFINED_CURVE_FONT('continuous');
ENDSEC;
END-ISO-10303-21;
