ISO-10303-21;
HEADER;
FILE_DESCRIPTION(('FreeCAD Model'),'2;1');
FILE_NAME('Open CASCADE Shape Model','2026-06-22T13:31:16',(''),(''),
  'Open CASCADE STEP processor 7.8','FreeCAD','Unknown');
FILE_SCHEMA(('AUTOMOTIVE_DESIGN { 1 0 10303 214 1 1 1 1 }'));
ENDSEC;
DATA;
#1 = APPLICATION_PROTOCOL_DEFINITION('international standard',
  'automotive_design',2000,#2);
#2 = APPLICATION_CONTEXT(
  'core data for automotive mechanical design processes');
#3 = SHAPE_DEFINITION_REPRESENTATION(#4,#10);
#4 = PRODUCT_DEFINITION_SHAPE('','',#5);
#5 = PRODUCT_DEFINITION('design','',#6,#9);
#6 = PRODUCT_DEFINITION_FORMATION('','',#7);
#7 = PRODUCT('LED','LED','',(#8));
#8 = PRODUCT_CONTEXT('',#2,'mechanical');
#9 = PRODUCT_DEFINITION_CONTEXT('part definition',#2,'design');
#10 = SHAPE_REPRESENTATION('',(#11,#15,#19),#23);
#11 = AXIS2_PLACEMENT_3D('',#12,#13,#14);
#12 = CARTESIAN_POINT('',(0.,0.,0.));
#13 = DIRECTION('',(0.,0.,1.));
#14 = DIRECTION('',(1.,0.,-0.));
#15 = AXIS2_PLACEMENT_3D('',#16,#17,#18);
#16 = CARTESIAN_POINT('',(0.,0.,0.));
#17 = DIRECTION('',(0.,0.,1.));
#18 = DIRECTION('',(1.,0.,0.));
#19 = AXIS2_PLACEMENT_3D('',#20,#21,#22);
#20 = CARTESIAN_POINT('',(0.,0.,0.));
#21 = DIRECTION('',(0.,0.,1.));
#22 = DIRECTION('',(1.,0.,0.));
#23 = ( GEOMETRIC_REPRESENTATION_CONTEXT(3) 
GLOBAL_UNCERTAINTY_ASSIGNED_CONTEXT((#27)) GLOBAL_UNIT_ASSIGNED_CONTEXT(
(#24,#25,#26)) REPRESENTATION_CONTEXT('Context #1',
  '3D Context with UNIT and UNCERTAINTY') );
#24 = ( LENGTH_UNIT() NAMED_UNIT(*) SI_UNIT(.MILLI.,.METRE.) );
#25 = ( NAMED_UNIT(*) PLANE_ANGLE_UNIT() SI_UNIT($,.RADIAN.) );
#26 = ( NAMED_UNIT(*) SI_UNIT($,.STERADIAN.) SOLID_ANGLE_UNIT() );
#27 = UNCERTAINTY_MEASURE_WITH_UNIT(LENGTH_MEASURE(1.E-07),#24,
  'distance_accuracy_value','confusion accuracy');
#28 = PRODUCT_RELATED_PRODUCT_CATEGORY('part',$,(#7));
#29 = SHAPE_DEFINITION_REPRESENTATION(#30,#36);
#30 = PRODUCT_DEFINITION_SHAPE('','',#31);
#31 = PRODUCT_DEFINITION('design','',#32,#35);
#32 = PRODUCT_DEFINITION_FORMATION('','',#33);
#33 = PRODUCT('LensGroup','LensGroup','',(#34));
#34 = PRODUCT_CONTEXT('',#2,'mechanical');
#35 = PRODUCT_DEFINITION_CONTEXT('part definition',#2,'design');
#36 = SHAPE_REPRESENTATION('',(#11,#37),#41);
#37 = AXIS2_PLACEMENT_3D('',#38,#39,#40);
#38 = CARTESIAN_POINT('',(0.,0.,0.));
#39 = DIRECTION('',(0.,0.,1.));
#40 = DIRECTION('',(1.,0.,0.));
#41 = ( GEOMETRIC_REPRESENTATION_CONTEXT(3) 
GLOBAL_UNCERTAINTY_ASSIGNED_CONTEXT((#45)) GLOBAL_UNIT_ASSIGNED_CONTEXT(
(#42,#43,#44)) REPRESENTATION_CONTEXT('Context #1',
  '3D Context with UNIT and UNCERTAINTY') );
#42 = ( LENGTH_UNIT() NAMED_UNIT(*) SI_UNIT(.MILLI.,.METRE.) );
#43 = ( NAMED_UNIT(*) PLANE_ANGLE_UNIT() SI_UNIT($,.RADIAN.) );
#44 = ( NAMED_UNIT(*) SI_UNIT($,.STERADIAN.) SOLID_ANGLE_UNIT() );
#45 = UNCERTAINTY_MEASURE_WITH_UNIT(LENGTH_MEASURE(1.E-07),#42,
  'distance_accuracy_value','confusion accuracy');
#46 = CONTEXT_DEPENDENT_SHAPE_REPRESENTATION(#47,#49);
#47 = ( REPRESENTATION_RELATIONSHIP('','',#36,#10) 
REPRESENTATION_RELATIONSHIP_WITH_TRANSFORMATION(#48) 
SHAPE_REPRESENTATION_RELATIONSHIP() );
#48 = ITEM_DEFINED_TRANSFORMATION('','',#11,#15);
#49 = PRODUCT_DEFINITION_SHAPE('Placement','Placement of an item',#50);
#50 = NEXT_ASSEMBLY_USAGE_OCCURRENCE('95','LensGroup','',#5,#31,$);
#51 = PRODUCT_RELATED_PRODUCT_CATEGORY('part',$,(#33));
#52 = SHAPE_DEFINITION_REPRESENTATION(#53,#59);
#53 = PRODUCT_DEFINITION_SHAPE('','',#54);
#54 = PRODUCT_DEFINITION('design','',#55,#58);
#55 = PRODUCT_DEFINITION_FORMATION('','',#56);
#56 = PRODUCT('Lens','Lens','',(#57));
#57 = PRODUCT_CONTEXT('',#2,'mechanical');
#58 = PRODUCT_DEFINITION_CONTEXT('part definition',#2,'design');
#59 = ADVANCED_BREP_SHAPE_REPRESENTATION('',(#11,#60),#210);
#60 = MANIFOLD_SOLID_BREP('',#61);
#61 = CLOSED_SHELL('',(#62,#102,#133,#164,#186,#198));
#62 = ADVANCED_FACE('',(#63),#97,.F.);
#63 = FACE_BOUND('',#64,.F.);
#64 = EDGE_LOOP('',(#65,#75,#83,#91));
#65 = ORIENTED_EDGE('',*,*,#66,.T.);
#66 = EDGE_CURVE('',#67,#69,#71,.T.);
#67 = VERTEX_POINT('',#68);
#68 = CARTESIAN_POINT('',(-2.5,1.,1.));
#69 = VERTEX_POINT('',#70);
#70 = CARTESIAN_POINT('',(-2.5,1.,8.));
#71 = LINE('',#72,#73);
#72 = CARTESIAN_POINT('',(-2.5,1.,1.));
#73 = VECTOR('',#74,1.);
#74 = DIRECTION('',(0.,0.,1.));
#75 = ORIENTED_EDGE('',*,*,#76,.T.);
#76 = EDGE_CURVE('',#69,#77,#79,.T.);
#77 = VERTEX_POINT('',#78);
#78 = CARTESIAN_POINT('',(-2.5,-1.,8.));
#79 = LINE('',#80,#81);
#80 = CARTESIAN_POINT('',(-2.5,1.,8.));
#81 = VECTOR('',#82,1.);
#82 = DIRECTION('',(0.,-1.,0.));
#83 = ORIENTED_EDGE('',*,*,#84,.F.);
#84 = EDGE_CURVE('',#85,#77,#87,.T.);
#85 = VERTEX_POINT('',#86);
#86 = CARTESIAN_POINT('',(-2.5,-1.,1.));
#87 = LINE('',#88,#89);
#88 = CARTESIAN_POINT('',(-2.5,-1.,1.));
#89 = VECTOR('',#90,1.);
#90 = DIRECTION('',(0.,0.,1.));
#91 = ORIENTED_EDGE('',*,*,#92,.F.);
#92 = EDGE_CURVE('',#67,#85,#93,.T.);
#93 = LINE('',#94,#95);
#94 = CARTESIAN_POINT('',(-2.5,1.,1.));
#95 = VECTOR('',#96,1.);
#96 = DIRECTION('',(0.,-1.,0.));
#97 = PLANE('',#98);
#98 = AXIS2_PLACEMENT_3D('',#99,#100,#101);
#99 = CARTESIAN_POINT('',(-2.5,1.,1.));
#100 = DIRECTION('',(1.,0.,0.));
#101 = DIRECTION('',(0.,-1.,0.));
#102 = ADVANCED_FACE('',(#103),#128,.F.);
#103 = FACE_BOUND('',#104,.F.);
#104 = EDGE_LOOP('',(#105,#106,#114,#122));
#105 = ORIENTED_EDGE('',*,*,#84,.T.);
#106 = ORIENTED_EDGE('',*,*,#107,.T.);
#107 = EDGE_CURVE('',#77,#108,#110,.T.);
#108 = VERTEX_POINT('',#109);
#109 = CARTESIAN_POINT('',(2.5,-1.,8.));
#110 = LINE('',#111,#112);
#111 = CARTESIAN_POINT('',(-2.5,-1.,8.));
#112 = VECTOR('',#113,1.);
#113 = DIRECTION('',(1.,0.,0.));
#114 = ORIENTED_EDGE('',*,*,#115,.F.);
#115 = EDGE_CURVE('',#116,#108,#118,.T.);
#116 = VERTEX_POINT('',#117);
#117 = CARTESIAN_POINT('',(2.5,-1.,1.));
#118 = LINE('',#119,#120);
#119 = CARTESIAN_POINT('',(2.5,-1.,1.));
#120 = VECTOR('',#121,1.);
#121 = DIRECTION('',(0.,0.,1.));
#122 = ORIENTED_EDGE('',*,*,#123,.F.);
#123 = EDGE_CURVE('',#85,#116,#124,.T.);
#124 = LINE('',#125,#126);
#125 = CARTESIAN_POINT('',(-2.5,-1.,1.));
#126 = VECTOR('',#127,1.);
#127 = DIRECTION('',(1.,0.,0.));
#128 = PLANE('',#129);
#129 = AXIS2_PLACEMENT_3D('',#130,#131,#132);
#130 = CARTESIAN_POINT('',(-2.5,-1.,1.));
#131 = DIRECTION('',(0.,1.,0.));
#132 = DIRECTION('',(1.,0.,0.));
#133 = ADVANCED_FACE('',(#134),#159,.F.);
#134 = FACE_BOUND('',#135,.F.);
#135 = EDGE_LOOP('',(#136,#137,#145,#153));
#136 = ORIENTED_EDGE('',*,*,#115,.T.);
#137 = ORIENTED_EDGE('',*,*,#138,.T.);
#138 = EDGE_CURVE('',#108,#139,#141,.T.);
#139 = VERTEX_POINT('',#140);
#140 = CARTESIAN_POINT('',(2.5,1.,8.));
#141 = LINE('',#142,#143);
#142 = CARTESIAN_POINT('',(2.5,-1.,8.));
#143 = VECTOR('',#144,1.);
#144 = DIRECTION('',(0.,1.,0.));
#145 = ORIENTED_EDGE('',*,*,#146,.F.);
#146 = EDGE_CURVE('',#147,#139,#149,.T.);
#147 = VERTEX_POINT('',#148);
#148 = CARTESIAN_POINT('',(2.5,1.,1.));
#149 = LINE('',#150,#151);
#150 = CARTESIAN_POINT('',(2.5,1.,1.));
#151 = VECTOR('',#152,1.);
#152 = DIRECTION('',(0.,0.,1.));
#153 = ORIENTED_EDGE('',*,*,#154,.F.);
#154 = EDGE_CURVE('',#116,#147,#155,.T.);
#155 = LINE('',#156,#157);
#156 = CARTESIAN_POINT('',(2.5,-1.,1.));
#157 = VECTOR('',#158,1.);
#158 = DIRECTION('',(0.,1.,0.));
#159 = PLANE('',#160);
#160 = AXIS2_PLACEMENT_3D('',#161,#162,#163);
#161 = CARTESIAN_POINT('',(2.5,-1.,1.));
#162 = DIRECTION('',(-1.,0.,0.));
#163 = DIRECTION('',(0.,1.,0.));
#164 = ADVANCED_FACE('',(#165),#181,.F.);
#165 = FACE_BOUND('',#166,.F.);
#166 = EDGE_LOOP('',(#167,#168,#174,#175));
#167 = ORIENTED_EDGE('',*,*,#146,.T.);
#168 = ORIENTED_EDGE('',*,*,#169,.T.);
#169 = EDGE_CURVE('',#139,#69,#170,.T.);
#170 = LINE('',#171,#172);
#171 = CARTESIAN_POINT('',(2.5,1.,8.));
#172 = VECTOR('',#173,1.);
#173 = DIRECTION('',(-1.,0.,0.));
#174 = ORIENTED_EDGE('',*,*,#66,.F.);
#175 = ORIENTED_EDGE('',*,*,#176,.F.);
#176 = EDGE_CURVE('',#147,#67,#177,.T.);
#177 = LINE('',#178,#179);
#178 = CARTESIAN_POINT('',(2.5,1.,1.));
#179 = VECTOR('',#180,1.);
#180 = DIRECTION('',(-1.,0.,0.));
#181 = PLANE('',#182);
#182 = AXIS2_PLACEMENT_3D('',#183,#184,#185);
#183 = CARTESIAN_POINT('',(2.5,1.,1.));
#184 = DIRECTION('',(0.,-1.,0.));
#185 = DIRECTION('',(-1.,0.,0.));
#186 = ADVANCED_FACE('',(#187),#193,.F.);
#187 = FACE_BOUND('',#188,.F.);
#188 = EDGE_LOOP('',(#189,#190,#191,#192));
#189 = ORIENTED_EDGE('',*,*,#92,.T.);
#190 = ORIENTED_EDGE('',*,*,#123,.T.);
#191 = ORIENTED_EDGE('',*,*,#154,.T.);
#192 = ORIENTED_EDGE('',*,*,#176,.T.);
#193 = PLANE('',#194);
#194 = AXIS2_PLACEMENT_3D('',#195,#196,#197);
#195 = CARTESIAN_POINT('',(0.,0.,1.));
#196 = DIRECTION('',(0.,0.,1.));
#197 = DIRECTION('',(1.,0.,0.));
#198 = ADVANCED_FACE('',(#199),#205,.T.);
#199 = FACE_BOUND('',#200,.T.);
#200 = EDGE_LOOP('',(#201,#202,#203,#204));
#201 = ORIENTED_EDGE('',*,*,#76,.T.);
#202 = ORIENTED_EDGE('',*,*,#107,.T.);
#203 = ORIENTED_EDGE('',*,*,#138,.T.);
#204 = ORIENTED_EDGE('',*,*,#169,.T.);
#205 = PLANE('',#206);
#206 = AXIS2_PLACEMENT_3D('',#207,#208,#209);
#207 = CARTESIAN_POINT('',(0.,0.,8.));
#208 = DIRECTION('',(0.,0.,1.));
#209 = DIRECTION('',(1.,0.,0.));
#210 = ( GEOMETRIC_REPRESENTATION_CONTEXT(3) 
GLOBAL_UNCERTAINTY_ASSIGNED_CONTEXT((#214)) GLOBAL_UNIT_ASSIGNED_CONTEXT
((#211,#212,#213)) REPRESENTATION_CONTEXT('Context #1',
  '3D Context with UNIT and UNCERTAINTY') );
#211 = ( LENGTH_UNIT() NAMED_UNIT(*) SI_UNIT(.MILLI.,.METRE.) );
#212 = ( NAMED_UNIT(*) PLANE_ANGLE_UNIT() SI_UNIT($,.RADIAN.) );
#213 = ( NAMED_UNIT(*) SI_UNIT($,.STERADIAN.) SOLID_ANGLE_UNIT() );
#214 = UNCERTAINTY_MEASURE_WITH_UNIT(LENGTH_MEASURE(1.E-07),#211,
  'distance_accuracy_value','confusion accuracy');
#215 = CONTEXT_DEPENDENT_SHAPE_REPRESENTATION(#216,#218);
#216 = ( REPRESENTATION_RELATIONSHIP('','',#59,#36) 
REPRESENTATION_RELATIONSHIP_WITH_TRANSFORMATION(#217) 
SHAPE_REPRESENTATION_RELATIONSHIP() );
#217 = ITEM_DEFINED_TRANSFORMATION('','',#11,#37);
#218 = PRODUCT_DEFINITION_SHAPE('Placement','Placement of an item',#219
  );
#219 = NEXT_ASSEMBLY_USAGE_OCCURRENCE('94','Lens','',#31,#54,$);
#220 = PRODUCT_RELATED_PRODUCT_CATEGORY('part',$,(#56));
#221 = SHAPE_DEFINITION_REPRESENTATION(#222,#228);
#222 = PRODUCT_DEFINITION_SHAPE('','',#223);
#223 = PRODUCT_DEFINITION('design','',#224,#227);
#224 = PRODUCT_DEFINITION_FORMATION('','',#225);
#225 = PRODUCT('PinsGroup','PinsGroup','',(#226));
#226 = PRODUCT_CONTEXT('',#2,'mechanical');
#227 = PRODUCT_DEFINITION_CONTEXT('part definition',#2,'design');
#228 = SHAPE_REPRESENTATION('',(#11,#229,#233,#237),#241);
#229 = AXIS2_PLACEMENT_3D('',#230,#231,#232);
#230 = CARTESIAN_POINT('',(0.,0.,0.));
#231 = DIRECTION('',(0.,0.,1.));
#232 = DIRECTION('',(1.,0.,0.));
#233 = AXIS2_PLACEMENT_3D('',#234,#235,#236);
#234 = CARTESIAN_POINT('',(0.,0.,0.));
#235 = DIRECTION('',(0.,0.,1.));
#236 = DIRECTION('',(1.,0.,0.));
#237 = AXIS2_PLACEMENT_3D('',#238,#239,#240);
#238 = CARTESIAN_POINT('',(0.,0.,0.));
#239 = DIRECTION('',(0.,0.,1.));
#240 = DIRECTION('',(1.,0.,0.));
#241 = ( GEOMETRIC_REPRESENTATION_CONTEXT(3) 
GLOBAL_UNCERTAINTY_ASSIGNED_CONTEXT((#245)) GLOBAL_UNIT_ASSIGNED_CONTEXT
((#242,#243,#244)) REPRESENTATION_CONTEXT('Context #1',
  '3D Context with UNIT and UNCERTAINTY') );
#242 = ( LENGTH_UNIT() NAMED_UNIT(*) SI_UNIT(.MILLI.,.METRE.) );
#243 = ( NAMED_UNIT(*) PLANE_ANGLE_UNIT() SI_UNIT($,.RADIAN.) );
#244 = ( NAMED_UNIT(*) SI_UNIT($,.STERADIAN.) SOLID_ANGLE_UNIT() );
#245 = UNCERTAINTY_MEASURE_WITH_UNIT(LENGTH_MEASURE(1.E-07),#242,
  'distance_accuracy_value','confusion accuracy');
#246 = CONTEXT_DEPENDENT_SHAPE_REPRESENTATION(#247,#249);
#247 = ( REPRESENTATION_RELATIONSHIP('','',#228,#10) 
REPRESENTATION_RELATIONSHIP_WITH_TRANSFORMATION(#248) 
SHAPE_REPRESENTATION_RELATIONSHIP() );
#248 = ITEM_DEFINED_TRANSFORMATION('','',#11,#19);
#249 = PRODUCT_DEFINITION_SHAPE('Placement','Placement of an item',#250
  );
#250 = NEXT_ASSEMBLY_USAGE_OCCURRENCE('99','PinsGroup','',#5,#223,$);
#251 = PRODUCT_RELATED_PRODUCT_CATEGORY('part',$,(#225));
#252 = SHAPE_DEFINITION_REPRESENTATION(#253,#259);
#253 = PRODUCT_DEFINITION_SHAPE('','',#254);
#254 = PRODUCT_DEFINITION('design','',#255,#258);
#255 = PRODUCT_DEFINITION_FORMATION('','',#256);
#256 = PRODUCT('PinA','PinA','',(#257));
#257 = PRODUCT_CONTEXT('',#2,'mechanical');
#258 = PRODUCT_DEFINITION_CONTEXT('part definition',#2,'design');
#259 = ADVANCED_BREP_SHAPE_REPRESENTATION('',(#11,#260),#410);
#260 = MANIFOLD_SOLID_BREP('',#261);
#261 = CLOSED_SHELL('',(#262,#302,#333,#364,#386,#398));
#262 = ADVANCED_FACE('',(#263),#297,.T.);
#263 = FACE_BOUND('',#264,.T.);
#264 = EDGE_LOOP('',(#265,#275,#283,#291));
#265 = ORIENTED_EDGE('',*,*,#266,.T.);
#266 = EDGE_CURVE('',#267,#269,#271,.T.);
#267 = VERTEX_POINT('',#268);
#268 = CARTESIAN_POINT('',(-1.52,-0.25,0.));
#269 = VERTEX_POINT('',#270);
#270 = CARTESIAN_POINT('',(-1.52,-0.25,-5.));
#271 = LINE('',#272,#273);
#272 = CARTESIAN_POINT('',(-1.52,-0.25,0.));
#273 = VECTOR('',#274,1.);
#274 = DIRECTION('',(-0.,-0.,-1.));
#275 = ORIENTED_EDGE('',*,*,#276,.T.);
#276 = EDGE_CURVE('',#269,#277,#279,.T.);
#277 = VERTEX_POINT('',#278);
#278 = CARTESIAN_POINT('',(-1.02,-0.25,-5.));
#279 = LINE('',#280,#281);
#280 = CARTESIAN_POINT('',(-1.52,-0.25,-5.));
#281 = VECTOR('',#282,1.);
#282 = DIRECTION('',(1.,0.,0.));
#283 = ORIENTED_EDGE('',*,*,#284,.F.);
#284 = EDGE_CURVE('',#285,#277,#287,.T.);
#285 = VERTEX_POINT('',#286);
#286 = CARTESIAN_POINT('',(-1.02,-0.25,0.));
#287 = LINE('',#288,#289);
#288 = CARTESIAN_POINT('',(-1.02,-0.25,0.));
#289 = VECTOR('',#290,1.);
#290 = DIRECTION('',(-0.,-0.,-1.));
#291 = ORIENTED_EDGE('',*,*,#292,.F.);
#292 = EDGE_CURVE('',#267,#285,#293,.T.);
#293 = LINE('',#294,#295);
#294 = CARTESIAN_POINT('',(-1.52,-0.25,0.));
#295 = VECTOR('',#296,1.);
#296 = DIRECTION('',(1.,0.,0.));
#297 = PLANE('',#298);
#298 = AXIS2_PLACEMENT_3D('',#299,#300,#301);
#299 = CARTESIAN_POINT('',(-1.52,-0.25,0.));
#300 = DIRECTION('',(0.,-1.,0.));
#301 = DIRECTION('',(1.,0.,0.));
#302 = ADVANCED_FACE('',(#303),#328,.T.);
#303 = FACE_BOUND('',#304,.T.);
#304 = EDGE_LOOP('',(#305,#306,#314,#322));
#305 = ORIENTED_EDGE('',*,*,#284,.T.);
#306 = ORIENTED_EDGE('',*,*,#307,.T.);
#307 = EDGE_CURVE('',#277,#308,#310,.T.);
#308 = VERTEX_POINT('',#309);
#309 = CARTESIAN_POINT('',(-1.02,0.25,-5.));
#310 = LINE('',#311,#312);
#311 = CARTESIAN_POINT('',(-1.02,-0.25,-5.));
#312 = VECTOR('',#313,1.);
#313 = DIRECTION('',(0.,1.,0.));
#314 = ORIENTED_EDGE('',*,*,#315,.F.);
#315 = EDGE_CURVE('',#316,#308,#318,.T.);
#316 = VERTEX_POINT('',#317);
#317 = CARTESIAN_POINT('',(-1.02,0.25,0.));
#318 = LINE('',#319,#320);
#319 = CARTESIAN_POINT('',(-1.02,0.25,0.));
#320 = VECTOR('',#321,1.);
#321 = DIRECTION('',(-0.,-0.,-1.));
#322 = ORIENTED_EDGE('',*,*,#323,.F.);
#323 = EDGE_CURVE('',#285,#316,#324,.T.);
#324 = LINE('',#325,#326);
#325 = CARTESIAN_POINT('',(-1.02,-0.25,0.));
#326 = VECTOR('',#327,1.);
#327 = DIRECTION('',(0.,1.,0.));
#328 = PLANE('',#329);
#329 = AXIS2_PLACEMENT_3D('',#330,#331,#332);
#330 = CARTESIAN_POINT('',(-1.02,-0.25,0.));
#331 = DIRECTION('',(1.,0.,0.));
#332 = DIRECTION('',(-0.,1.,0.));
#333 = ADVANCED_FACE('',(#334),#359,.T.);
#334 = FACE_BOUND('',#335,.T.);
#335 = EDGE_LOOP('',(#336,#337,#345,#353));
#336 = ORIENTED_EDGE('',*,*,#315,.T.);
#337 = ORIENTED_EDGE('',*,*,#338,.T.);
#338 = EDGE_CURVE('',#308,#339,#341,.T.);
#339 = VERTEX_POINT('',#340);
#340 = CARTESIAN_POINT('',(-1.52,0.25,-5.));
#341 = LINE('',#342,#343);
#342 = CARTESIAN_POINT('',(-1.02,0.25,-5.));
#343 = VECTOR('',#344,1.);
#344 = DIRECTION('',(-1.,0.,0.));
#345 = ORIENTED_EDGE('',*,*,#346,.F.);
#346 = EDGE_CURVE('',#347,#339,#349,.T.);
#347 = VERTEX_POINT('',#348);
#348 = CARTESIAN_POINT('',(-1.52,0.25,0.));
#349 = LINE('',#350,#351);
#350 = CARTESIAN_POINT('',(-1.52,0.25,0.));
#351 = VECTOR('',#352,1.);
#352 = DIRECTION('',(-0.,-0.,-1.));
#353 = ORIENTED_EDGE('',*,*,#354,.F.);
#354 = EDGE_CURVE('',#316,#347,#355,.T.);
#355 = LINE('',#356,#357);
#356 = CARTESIAN_POINT('',(-1.02,0.25,0.));
#357 = VECTOR('',#358,1.);
#358 = DIRECTION('',(-1.,0.,0.));
#359 = PLANE('',#360);
#360 = AXIS2_PLACEMENT_3D('',#361,#362,#363);
#361 = CARTESIAN_POINT('',(-1.02,0.25,0.));
#362 = DIRECTION('',(0.,1.,0.));
#363 = DIRECTION('',(-1.,0.,0.));
#364 = ADVANCED_FACE('',(#365),#381,.T.);
#365 = FACE_BOUND('',#366,.T.);
#366 = EDGE_LOOP('',(#367,#368,#374,#375));
#367 = ORIENTED_EDGE('',*,*,#346,.T.);
#368 = ORIENTED_EDGE('',*,*,#369,.T.);
#369 = EDGE_CURVE('',#339,#269,#370,.T.);
#370 = LINE('',#371,#372);
#371 = CARTESIAN_POINT('',(-1.52,0.25,-5.));
#372 = VECTOR('',#373,1.);
#373 = DIRECTION('',(0.,-1.,0.));
#374 = ORIENTED_EDGE('',*,*,#266,.F.);
#375 = ORIENTED_EDGE('',*,*,#376,.F.);
#376 = EDGE_CURVE('',#347,#267,#377,.T.);
#377 = LINE('',#378,#379);
#378 = CARTESIAN_POINT('',(-1.52,0.25,0.));
#379 = VECTOR('',#380,1.);
#380 = DIRECTION('',(0.,-1.,0.));
#381 = PLANE('',#382);
#382 = AXIS2_PLACEMENT_3D('',#383,#384,#385);
#383 = CARTESIAN_POINT('',(-1.52,0.25,0.));
#384 = DIRECTION('',(-1.,0.,0.));
#385 = DIRECTION('',(0.,-1.,0.));
#386 = ADVANCED_FACE('',(#387),#393,.T.);
#387 = FACE_BOUND('',#388,.T.);
#388 = EDGE_LOOP('',(#389,#390,#391,#392));
#389 = ORIENTED_EDGE('',*,*,#292,.T.);
#390 = ORIENTED_EDGE('',*,*,#323,.T.);
#391 = ORIENTED_EDGE('',*,*,#354,.T.);
#392 = ORIENTED_EDGE('',*,*,#376,.T.);
#393 = PLANE('',#394);
#394 = AXIS2_PLACEMENT_3D('',#395,#396,#397);
#395 = CARTESIAN_POINT('',(-1.27,0.,0.));
#396 = DIRECTION('',(0.,0.,1.));
#397 = DIRECTION('',(1.,0.,0.));
#398 = ADVANCED_FACE('',(#399),#405,.F.);
#399 = FACE_BOUND('',#400,.F.);
#400 = EDGE_LOOP('',(#401,#402,#403,#404));
#401 = ORIENTED_EDGE('',*,*,#276,.T.);
#402 = ORIENTED_EDGE('',*,*,#307,.T.);
#403 = ORIENTED_EDGE('',*,*,#338,.T.);
#404 = ORIENTED_EDGE('',*,*,#369,.T.);
#405 = PLANE('',#406);
#406 = AXIS2_PLACEMENT_3D('',#407,#408,#409);
#407 = CARTESIAN_POINT('',(-1.27,0.,-5.));
#408 = DIRECTION('',(0.,0.,1.));
#409 = DIRECTION('',(1.,0.,0.));
#410 = ( GEOMETRIC_REPRESENTATION_CONTEXT(3) 
GLOBAL_UNCERTAINTY_ASSIGNED_CONTEXT((#414)) GLOBAL_UNIT_ASSIGNED_CONTEXT
((#411,#412,#413)) REPRESENTATION_CONTEXT('Context #1',
  '3D Context with UNIT and UNCERTAINTY') );
#411 = ( LENGTH_UNIT() NAMED_UNIT(*) SI_UNIT(.MILLI.,.METRE.) );
#412 = ( NAMED_UNIT(*) PLANE_ANGLE_UNIT() SI_UNIT($,.RADIAN.) );
#413 = ( NAMED_UNIT(*) SI_UNIT($,.STERADIAN.) SOLID_ANGLE_UNIT() );
#414 = UNCERTAINTY_MEASURE_WITH_UNIT(LENGTH_MEASURE(1.E-07),#411,
  'distance_accuracy_value','confusion accuracy');
#415 = CONTEXT_DEPENDENT_SHAPE_REPRESENTATION(#416,#418);
#416 = ( REPRESENTATION_RELATIONSHIP('','',#259,#228) 
REPRESENTATION_RELATIONSHIP_WITH_TRANSFORMATION(#417) 
SHAPE_REPRESENTATION_RELATIONSHIP() );
#417 = ITEM_DEFINED_TRANSFORMATION('','',#11,#229);
#418 = PRODUCT_DEFINITION_SHAPE('Placement','Placement of an item',#419
  );
#419 = NEXT_ASSEMBLY_USAGE_OCCURRENCE('96','PinA','',#223,#254,$);
#420 = PRODUCT_RELATED_PRODUCT_CATEGORY('part',$,(#256));
#421 = SHAPE_DEFINITION_REPRESENTATION(#422,#428);
#422 = PRODUCT_DEFINITION_SHAPE('','',#423);
#423 = PRODUCT_DEFINITION('design','',#424,#427);
#424 = PRODUCT_DEFINITION_FORMATION('','',#425);
#425 = PRODUCT('PinB','PinB','',(#426));
#426 = PRODUCT_CONTEXT('',#2,'mechanical');
#427 = PRODUCT_DEFINITION_CONTEXT('part definition',#2,'design');
#428 = ADVANCED_BREP_SHAPE_REPRESENTATION('',(#11,#429),#579);
#429 = MANIFOLD_SOLID_BREP('',#430);
#430 = CLOSED_SHELL('',(#431,#471,#502,#533,#555,#567));
#431 = ADVANCED_FACE('',(#432),#466,.T.);
#432 = FACE_BOUND('',#433,.T.);
#433 = EDGE_LOOP('',(#434,#444,#452,#460));
#434 = ORIENTED_EDGE('',*,*,#435,.T.);
#435 = EDGE_CURVE('',#436,#438,#440,.T.);
#436 = VERTEX_POINT('',#437);
#437 = CARTESIAN_POINT('',(1.02,-0.25,0.));
#438 = VERTEX_POINT('',#439);
#439 = CARTESIAN_POINT('',(1.02,-0.25,-5.));
#440 = LINE('',#441,#442);
#441 = CARTESIAN_POINT('',(1.02,-0.25,0.));
#442 = VECTOR('',#443,1.);
#443 = DIRECTION('',(-0.,-0.,-1.));
#444 = ORIENTED_EDGE('',*,*,#445,.T.);
#445 = EDGE_CURVE('',#438,#446,#448,.T.);
#446 = VERTEX_POINT('',#447);
#447 = CARTESIAN_POINT('',(1.52,-0.25,-5.));
#448 = LINE('',#449,#450);
#449 = CARTESIAN_POINT('',(1.02,-0.25,-5.));
#450 = VECTOR('',#451,1.);
#451 = DIRECTION('',(1.,0.,0.));
#452 = ORIENTED_EDGE('',*,*,#453,.F.);
#453 = EDGE_CURVE('',#454,#446,#456,.T.);
#454 = VERTEX_POINT('',#455);
#455 = CARTESIAN_POINT('',(1.52,-0.25,0.));
#456 = LINE('',#457,#458);
#457 = CARTESIAN_POINT('',(1.52,-0.25,0.));
#458 = VECTOR('',#459,1.);
#459 = DIRECTION('',(-0.,-0.,-1.));
#460 = ORIENTED_EDGE('',*,*,#461,.F.);
#461 = EDGE_CURVE('',#436,#454,#462,.T.);
#462 = LINE('',#463,#464);
#463 = CARTESIAN_POINT('',(1.02,-0.25,0.));
#464 = VECTOR('',#465,1.);
#465 = DIRECTION('',(1.,0.,0.));
#466 = PLANE('',#467);
#467 = AXIS2_PLACEMENT_3D('',#468,#469,#470);
#468 = CARTESIAN_POINT('',(1.02,-0.25,0.));
#469 = DIRECTION('',(0.,-1.,0.));
#470 = DIRECTION('',(1.,0.,0.));
#471 = ADVANCED_FACE('',(#472),#497,.T.);
#472 = FACE_BOUND('',#473,.T.);
#473 = EDGE_LOOP('',(#474,#475,#483,#491));
#474 = ORIENTED_EDGE('',*,*,#453,.T.);
#475 = ORIENTED_EDGE('',*,*,#476,.T.);
#476 = EDGE_CURVE('',#446,#477,#479,.T.);
#477 = VERTEX_POINT('',#478);
#478 = CARTESIAN_POINT('',(1.52,0.25,-5.));
#479 = LINE('',#480,#481);
#480 = CARTESIAN_POINT('',(1.52,-0.25,-5.));
#481 = VECTOR('',#482,1.);
#482 = DIRECTION('',(0.,1.,0.));
#483 = ORIENTED_EDGE('',*,*,#484,.F.);
#484 = EDGE_CURVE('',#485,#477,#487,.T.);
#485 = VERTEX_POINT('',#486);
#486 = CARTESIAN_POINT('',(1.52,0.25,0.));
#487 = LINE('',#488,#489);
#488 = CARTESIAN_POINT('',(1.52,0.25,0.));
#489 = VECTOR('',#490,1.);
#490 = DIRECTION('',(-0.,-0.,-1.));
#491 = ORIENTED_EDGE('',*,*,#492,.F.);
#492 = EDGE_CURVE('',#454,#485,#493,.T.);
#493 = LINE('',#494,#495);
#494 = CARTESIAN_POINT('',(1.52,-0.25,0.));
#495 = VECTOR('',#496,1.);
#496 = DIRECTION('',(0.,1.,0.));
#497 = PLANE('',#498);
#498 = AXIS2_PLACEMENT_3D('',#499,#500,#501);
#499 = CARTESIAN_POINT('',(1.52,-0.25,0.));
#500 = DIRECTION('',(1.,0.,0.));
#501 = DIRECTION('',(-0.,1.,0.));
#502 = ADVANCED_FACE('',(#503),#528,.T.);
#503 = FACE_BOUND('',#504,.T.);
#504 = EDGE_LOOP('',(#505,#506,#514,#522));
#505 = ORIENTED_EDGE('',*,*,#484,.T.);
#506 = ORIENTED_EDGE('',*,*,#507,.T.);
#507 = EDGE_CURVE('',#477,#508,#510,.T.);
#508 = VERTEX_POINT('',#509);
#509 = CARTESIAN_POINT('',(1.02,0.25,-5.));
#510 = LINE('',#511,#512);
#511 = CARTESIAN_POINT('',(1.52,0.25,-5.));
#512 = VECTOR('',#513,1.);
#513 = DIRECTION('',(-1.,0.,0.));
#514 = ORIENTED_EDGE('',*,*,#515,.F.);
#515 = EDGE_CURVE('',#516,#508,#518,.T.);
#516 = VERTEX_POINT('',#517);
#517 = CARTESIAN_POINT('',(1.02,0.25,0.));
#518 = LINE('',#519,#520);
#519 = CARTESIAN_POINT('',(1.02,0.25,0.));
#520 = VECTOR('',#521,1.);
#521 = DIRECTION('',(-0.,-0.,-1.));
#522 = ORIENTED_EDGE('',*,*,#523,.F.);
#523 = EDGE_CURVE('',#485,#516,#524,.T.);
#524 = LINE('',#525,#526);
#525 = CARTESIAN_POINT('',(1.52,0.25,0.));
#526 = VECTOR('',#527,1.);
#527 = DIRECTION('',(-1.,0.,0.));
#528 = PLANE('',#529);
#529 = AXIS2_PLACEMENT_3D('',#530,#531,#532);
#530 = CARTESIAN_POINT('',(1.52,0.25,0.));
#531 = DIRECTION('',(0.,1.,0.));
#532 = DIRECTION('',(-1.,0.,0.));
#533 = ADVANCED_FACE('',(#534),#550,.T.);
#534 = FACE_BOUND('',#535,.T.);
#535 = EDGE_LOOP('',(#536,#537,#543,#544));
#536 = ORIENTED_EDGE('',*,*,#515,.T.);
#537 = ORIENTED_EDGE('',*,*,#538,.T.);
#538 = EDGE_CURVE('',#508,#438,#539,.T.);
#539 = LINE('',#540,#541);
#540 = CARTESIAN_POINT('',(1.02,0.25,-5.));
#541 = VECTOR('',#542,1.);
#542 = DIRECTION('',(0.,-1.,0.));
#543 = ORIENTED_EDGE('',*,*,#435,.F.);
#544 = ORIENTED_EDGE('',*,*,#545,.F.);
#545 = EDGE_CURVE('',#516,#436,#546,.T.);
#546 = LINE('',#547,#548);
#547 = CARTESIAN_POINT('',(1.02,0.25,0.));
#548 = VECTOR('',#549,1.);
#549 = DIRECTION('',(0.,-1.,0.));
#550 = PLANE('',#551);
#551 = AXIS2_PLACEMENT_3D('',#552,#553,#554);
#552 = CARTESIAN_POINT('',(1.02,0.25,0.));
#553 = DIRECTION('',(-1.,0.,0.));
#554 = DIRECTION('',(0.,-1.,0.));
#555 = ADVANCED_FACE('',(#556),#562,.T.);
#556 = FACE_BOUND('',#557,.T.);
#557 = EDGE_LOOP('',(#558,#559,#560,#561));
#558 = ORIENTED_EDGE('',*,*,#461,.T.);
#559 = ORIENTED_EDGE('',*,*,#492,.T.);
#560 = ORIENTED_EDGE('',*,*,#523,.T.);
#561 = ORIENTED_EDGE('',*,*,#545,.T.);
#562 = PLANE('',#563);
#563 = AXIS2_PLACEMENT_3D('',#564,#565,#566);
#564 = CARTESIAN_POINT('',(1.27,0.,0.));
#565 = DIRECTION('',(0.,0.,1.));
#566 = DIRECTION('',(1.,0.,0.));
#567 = ADVANCED_FACE('',(#568),#574,.F.);
#568 = FACE_BOUND('',#569,.F.);
#569 = EDGE_LOOP('',(#570,#571,#572,#573));
#570 = ORIENTED_EDGE('',*,*,#445,.T.);
#571 = ORIENTED_EDGE('',*,*,#476,.T.);
#572 = ORIENTED_EDGE('',*,*,#507,.T.);
#573 = ORIENTED_EDGE('',*,*,#538,.T.);
#574 = PLANE('',#575);
#575 = AXIS2_PLACEMENT_3D('',#576,#577,#578);
#576 = CARTESIAN_POINT('',(1.27,0.,-5.));
#577 = DIRECTION('',(0.,0.,1.));
#578 = DIRECTION('',(1.,0.,0.));
#579 = ( GEOMETRIC_REPRESENTATION_CONTEXT(3) 
GLOBAL_UNCERTAINTY_ASSIGNED_CONTEXT((#583)) GLOBAL_UNIT_ASSIGNED_CONTEXT
((#580,#581,#582)) REPRESENTATION_CONTEXT('Context #1',
  '3D Context with UNIT and UNCERTAINTY') );
#580 = ( LENGTH_UNIT() NAMED_UNIT(*) SI_UNIT(.MILLI.,.METRE.) );
#581 = ( NAMED_UNIT(*) PLANE_ANGLE_UNIT() SI_UNIT($,.RADIAN.) );
#582 = ( NAMED_UNIT(*) SI_UNIT($,.STERADIAN.) SOLID_ANGLE_UNIT() );
#583 = UNCERTAINTY_MEASURE_WITH_UNIT(LENGTH_MEASURE(1.E-07),#580,
  'distance_accuracy_value','confusion accuracy');
#584 = CONTEXT_DEPENDENT_SHAPE_REPRESENTATION(#585,#587);
#585 = ( REPRESENTATION_RELATIONSHIP('','',#428,#228) 
REPRESENTATION_RELATIONSHIP_WITH_TRANSFORMATION(#586) 
SHAPE_REPRESENTATION_RELATIONSHIP() );
#586 = ITEM_DEFINED_TRANSFORMATION('','',#11,#233);
#587 = PRODUCT_DEFINITION_SHAPE('Placement','Placement of an item',#588
  );
#588 = NEXT_ASSEMBLY_USAGE_OCCURRENCE('97','PinB','',#223,#423,$);
#589 = PRODUCT_RELATED_PRODUCT_CATEGORY('part',$,(#425));
#590 = SHAPE_DEFINITION_REPRESENTATION(#591,#597);
#591 = PRODUCT_DEFINITION_SHAPE('','',#592);
#592 = PRODUCT_DEFINITION('design','',#593,#596);
#593 = PRODUCT_DEFINITION_FORMATION('','',#594);
#594 = PRODUCT('StandOff','StandOff','',(#595));
#595 = PRODUCT_CONTEXT('',#2,'mechanical');
#596 = PRODUCT_DEFINITION_CONTEXT('part definition',#2,'design');
#597 = SHAPE_REPRESENTATION('',(#11,#598,#748),#898);
#598 = MANIFOLD_SOLID_BREP('',#599);
#599 = CLOSED_SHELL('',(#600,#640,#671,#702,#724,#736));
#600 = ADVANCED_FACE('',(#601),#635,.F.);
#601 = FACE_BOUND('',#602,.F.);
#602 = EDGE_LOOP('',(#603,#613,#621,#629));
#603 = ORIENTED_EDGE('',*,*,#604,.T.);
#604 = EDGE_CURVE('',#605,#607,#609,.T.);
#605 = VERTEX_POINT('',#606);
#606 = CARTESIAN_POINT('',(0.52,0.25,0.));
#607 = VERTEX_POINT('',#608);
#608 = CARTESIAN_POINT('',(0.52,0.25,1.));
#609 = LINE('',#610,#611);
#610 = CARTESIAN_POINT('',(0.52,0.25,0.));
#611 = VECTOR('',#612,1.);
#612 = DIRECTION('',(0.,0.,1.));
#613 = ORIENTED_EDGE('',*,*,#614,.T.);
#614 = EDGE_CURVE('',#607,#615,#617,.T.);
#615 = VERTEX_POINT('',#616);
#616 = CARTESIAN_POINT('',(0.52,-0.25,1.));
#617 = LINE('',#618,#619);
#618 = CARTESIAN_POINT('',(0.52,0.25,1.));
#619 = VECTOR('',#620,1.);
#620 = DIRECTION('',(0.,-1.,0.));
#621 = ORIENTED_EDGE('',*,*,#622,.F.);
#622 = EDGE_CURVE('',#623,#615,#625,.T.);
#623 = VERTEX_POINT('',#624);
#624 = CARTESIAN_POINT('',(0.52,-0.25,0.));
#625 = LINE('',#626,#627);
#626 = CARTESIAN_POINT('',(0.52,-0.25,0.));
#627 = VECTOR('',#628,1.);
#628 = DIRECTION('',(0.,0.,1.));
#629 = ORIENTED_EDGE('',*,*,#630,.F.);
#630 = EDGE_CURVE('',#605,#623,#631,.T.);
#631 = LINE('',#632,#633);
#632 = CARTESIAN_POINT('',(0.52,0.25,0.));
#633 = VECTOR('',#634,1.);
#634 = DIRECTION('',(0.,-1.,0.));
#635 = PLANE('',#636);
#636 = AXIS2_PLACEMENT_3D('',#637,#638,#639);
#637 = CARTESIAN_POINT('',(0.52,0.25,0.));
#638 = DIRECTION('',(1.,0.,-0.));
#639 = DIRECTION('',(0.,-1.,0.));
#640 = ADVANCED_FACE('',(#641),#666,.F.);
#641 = FACE_BOUND('',#642,.F.);
#642 = EDGE_LOOP('',(#643,#644,#652,#660));
#643 = ORIENTED_EDGE('',*,*,#622,.T.);
#644 = ORIENTED_EDGE('',*,*,#645,.T.);
#645 = EDGE_CURVE('',#615,#646,#648,.T.);
#646 = VERTEX_POINT('',#647);
#647 = CARTESIAN_POINT('',(1.52,-0.25,1.));
#648 = LINE('',#649,#650);
#649 = CARTESIAN_POINT('',(0.52,-0.25,1.));
#650 = VECTOR('',#651,1.);
#651 = DIRECTION('',(1.,0.,0.));
#652 = ORIENTED_EDGE('',*,*,#653,.F.);
#653 = EDGE_CURVE('',#654,#646,#656,.T.);
#654 = VERTEX_POINT('',#655);
#655 = CARTESIAN_POINT('',(1.52,-0.25,0.));
#656 = LINE('',#657,#658);
#657 = CARTESIAN_POINT('',(1.52,-0.25,0.));
#658 = VECTOR('',#659,1.);
#659 = DIRECTION('',(0.,0.,1.));
#660 = ORIENTED_EDGE('',*,*,#661,.F.);
#661 = EDGE_CURVE('',#623,#654,#662,.T.);
#662 = LINE('',#663,#664);
#663 = CARTESIAN_POINT('',(0.52,-0.25,0.));
#664 = VECTOR('',#665,1.);
#665 = DIRECTION('',(1.,0.,0.));
#666 = PLANE('',#667);
#667 = AXIS2_PLACEMENT_3D('',#668,#669,#670);
#668 = CARTESIAN_POINT('',(0.52,-0.25,0.));
#669 = DIRECTION('',(0.,1.,0.));
#670 = DIRECTION('',(1.,0.,0.));
#671 = ADVANCED_FACE('',(#672),#697,.F.);
#672 = FACE_BOUND('',#673,.F.);
#673 = EDGE_LOOP('',(#674,#675,#683,#691));
#674 = ORIENTED_EDGE('',*,*,#653,.T.);
#675 = ORIENTED_EDGE('',*,*,#676,.T.);
#676 = EDGE_CURVE('',#646,#677,#679,.T.);
#677 = VERTEX_POINT('',#678);
#678 = CARTESIAN_POINT('',(1.52,0.25,1.));
#679 = LINE('',#680,#681);
#680 = CARTESIAN_POINT('',(1.52,-0.25,1.));
#681 = VECTOR('',#682,1.);
#682 = DIRECTION('',(0.,1.,0.));
#683 = ORIENTED_EDGE('',*,*,#684,.F.);
#684 = EDGE_CURVE('',#685,#677,#687,.T.);
#685 = VERTEX_POINT('',#686);
#686 = CARTESIAN_POINT('',(1.52,0.25,0.));
#687 = LINE('',#688,#689);
#688 = CARTESIAN_POINT('',(1.52,0.25,0.));
#689 = VECTOR('',#690,1.);
#690 = DIRECTION('',(0.,0.,1.));
#691 = ORIENTED_EDGE('',*,*,#692,.F.);
#692 = EDGE_CURVE('',#654,#685,#693,.T.);
#693 = LINE('',#694,#695);
#694 = CARTESIAN_POINT('',(1.52,-0.25,0.));
#695 = VECTOR('',#696,1.);
#696 = DIRECTION('',(0.,1.,0.));
#697 = PLANE('',#698);
#698 = AXIS2_PLACEMENT_3D('',#699,#700,#701);
#699 = CARTESIAN_POINT('',(1.52,-0.25,0.));
#700 = DIRECTION('',(-1.,0.,0.));
#701 = DIRECTION('',(0.,1.,0.));
#702 = ADVANCED_FACE('',(#703),#719,.F.);
#703 = FACE_BOUND('',#704,.F.);
#704 = EDGE_LOOP('',(#705,#706,#712,#713));
#705 = ORIENTED_EDGE('',*,*,#684,.T.);
#706 = ORIENTED_EDGE('',*,*,#707,.T.);
#707 = EDGE_CURVE('',#677,#607,#708,.T.);
#708 = LINE('',#709,#710);
#709 = CARTESIAN_POINT('',(1.52,0.25,1.));
#710 = VECTOR('',#711,1.);
#711 = DIRECTION('',(-1.,0.,0.));
#712 = ORIENTED_EDGE('',*,*,#604,.F.);
#713 = ORIENTED_EDGE('',*,*,#714,.F.);
#714 = EDGE_CURVE('',#685,#605,#715,.T.);
#715 = LINE('',#716,#717);
#716 = CARTESIAN_POINT('',(1.52,0.25,0.));
#717 = VECTOR('',#718,1.);
#718 = DIRECTION('',(-1.,0.,0.));
#719 = PLANE('',#720);
#720 = AXIS2_PLACEMENT_3D('',#721,#722,#723);
#721 = CARTESIAN_POINT('',(1.52,0.25,0.));
#722 = DIRECTION('',(0.,-1.,0.));
#723 = DIRECTION('',(-1.,0.,0.));
#724 = ADVANCED_FACE('',(#725),#731,.F.);
#725 = FACE_BOUND('',#726,.F.);
#726 = EDGE_LOOP('',(#727,#728,#729,#730));
#727 = ORIENTED_EDGE('',*,*,#630,.T.);
#728 = ORIENTED_EDGE('',*,*,#661,.T.);
#729 = ORIENTED_EDGE('',*,*,#692,.T.);
#730 = ORIENTED_EDGE('',*,*,#714,.T.);
#731 = PLANE('',#732);
#732 = AXIS2_PLACEMENT_3D('',#733,#734,#735);
#733 = CARTESIAN_POINT('',(0.,0.,0.));
#734 = DIRECTION('',(0.,0.,1.));
#735 = DIRECTION('',(1.,0.,-0.));
#736 = ADVANCED_FACE('',(#737),#743,.T.);
#737 = FACE_BOUND('',#738,.T.);
#738 = EDGE_LOOP('',(#739,#740,#741,#742));
#739 = ORIENTED_EDGE('',*,*,#614,.T.);
#740 = ORIENTED_EDGE('',*,*,#645,.T.);
#741 = ORIENTED_EDGE('',*,*,#676,.T.);
#742 = ORIENTED_EDGE('',*,*,#707,.T.);
#743 = PLANE('',#744);
#744 = AXIS2_PLACEMENT_3D('',#745,#746,#747);
#745 = CARTESIAN_POINT('',(0.,0.,1.));
#746 = DIRECTION('',(0.,0.,1.));
#747 = DIRECTION('',(1.,0.,0.));
#748 = MANIFOLD_SOLID_BREP('',#749);
#749 = CLOSED_SHELL('',(#750,#790,#821,#852,#874,#886));
#750 = ADVANCED_FACE('',(#751),#785,.F.);
#751 = FACE_BOUND('',#752,.F.);
#752 = EDGE_LOOP('',(#753,#763,#771,#779));
#753 = ORIENTED_EDGE('',*,*,#754,.T.);
#754 = EDGE_CURVE('',#755,#757,#759,.T.);
#755 = VERTEX_POINT('',#756);
#756 = CARTESIAN_POINT('',(-1.52,0.25,0.));
#757 = VERTEX_POINT('',#758);
#758 = CARTESIAN_POINT('',(-1.52,0.25,1.));
#759 = LINE('',#760,#761);
#760 = CARTESIAN_POINT('',(-1.52,0.25,0.));
#761 = VECTOR('',#762,1.);
#762 = DIRECTION('',(0.,0.,1.));
#763 = ORIENTED_EDGE('',*,*,#764,.T.);
#764 = EDGE_CURVE('',#757,#765,#767,.T.);
#765 = VERTEX_POINT('',#766);
#766 = CARTESIAN_POINT('',(-1.52,-0.25,1.));
#767 = LINE('',#768,#769);
#768 = CARTESIAN_POINT('',(-1.52,0.25,1.));
#769 = VECTOR('',#770,1.);
#770 = DIRECTION('',(0.,-1.,0.));
#771 = ORIENTED_EDGE('',*,*,#772,.F.);
#772 = EDGE_CURVE('',#773,#765,#775,.T.);
#773 = VERTEX_POINT('',#774);
#774 = CARTESIAN_POINT('',(-1.52,-0.25,0.));
#775 = LINE('',#776,#777);
#776 = CARTESIAN_POINT('',(-1.52,-0.25,0.));
#777 = VECTOR('',#778,1.);
#778 = DIRECTION('',(0.,0.,1.));
#779 = ORIENTED_EDGE('',*,*,#780,.F.);
#780 = EDGE_CURVE('',#755,#773,#781,.T.);
#781 = LINE('',#782,#783);
#782 = CARTESIAN_POINT('',(-1.52,0.25,0.));
#783 = VECTOR('',#784,1.);
#784 = DIRECTION('',(0.,-1.,0.));
#785 = PLANE('',#786);
#786 = AXIS2_PLACEMENT_3D('',#787,#788,#789);
#787 = CARTESIAN_POINT('',(-1.52,0.25,0.));
#788 = DIRECTION('',(1.,0.,-0.));
#789 = DIRECTION('',(0.,-1.,0.));
#790 = ADVANCED_FACE('',(#791),#816,.F.);
#791 = FACE_BOUND('',#792,.F.);
#792 = EDGE_LOOP('',(#793,#794,#802,#810));
#793 = ORIENTED_EDGE('',*,*,#772,.T.);
#794 = ORIENTED_EDGE('',*,*,#795,.T.);
#795 = EDGE_CURVE('',#765,#796,#798,.T.);
#796 = VERTEX_POINT('',#797);
#797 = CARTESIAN_POINT('',(-0.52,-0.25,1.));
#798 = LINE('',#799,#800);
#799 = CARTESIAN_POINT('',(-1.52,-0.25,1.));
#800 = VECTOR('',#801,1.);
#801 = DIRECTION('',(1.,0.,0.));
#802 = ORIENTED_EDGE('',*,*,#803,.F.);
#803 = EDGE_CURVE('',#804,#796,#806,.T.);
#804 = VERTEX_POINT('',#805);
#805 = CARTESIAN_POINT('',(-0.52,-0.25,0.));
#806 = LINE('',#807,#808);
#807 = CARTESIAN_POINT('',(-0.52,-0.25,0.));
#808 = VECTOR('',#809,1.);
#809 = DIRECTION('',(0.,0.,1.));
#810 = ORIENTED_EDGE('',*,*,#811,.F.);
#811 = EDGE_CURVE('',#773,#804,#812,.T.);
#812 = LINE('',#813,#814);
#813 = CARTESIAN_POINT('',(-1.52,-0.25,0.));
#814 = VECTOR('',#815,1.);
#815 = DIRECTION('',(1.,0.,0.));
#816 = PLANE('',#817);
#817 = AXIS2_PLACEMENT_3D('',#818,#819,#820);
#818 = CARTESIAN_POINT('',(-1.52,-0.25,0.));
#819 = DIRECTION('',(0.,1.,0.));
#820 = DIRECTION('',(1.,0.,0.));
#821 = ADVANCED_FACE('',(#822),#847,.F.);
#822 = FACE_BOUND('',#823,.F.);
#823 = EDGE_LOOP('',(#824,#825,#833,#841));
#824 = ORIENTED_EDGE('',*,*,#803,.T.);
#825 = ORIENTED_EDGE('',*,*,#826,.T.);
#826 = EDGE_CURVE('',#796,#827,#829,.T.);
#827 = VERTEX_POINT('',#828);
#828 = CARTESIAN_POINT('',(-0.52,0.25,1.));
#829 = LINE('',#830,#831);
#830 = CARTESIAN_POINT('',(-0.52,-0.25,1.));
#831 = VECTOR('',#832,1.);
#832 = DIRECTION('',(0.,1.,0.));
#833 = ORIENTED_EDGE('',*,*,#834,.F.);
#834 = EDGE_CURVE('',#835,#827,#837,.T.);
#835 = VERTEX_POINT('',#836);
#836 = CARTESIAN_POINT('',(-0.52,0.25,0.));
#837 = LINE('',#838,#839);
#838 = CARTESIAN_POINT('',(-0.52,0.25,0.));
#839 = VECTOR('',#840,1.);
#840 = DIRECTION('',(0.,0.,1.));
#841 = ORIENTED_EDGE('',*,*,#842,.F.);
#842 = EDGE_CURVE('',#804,#835,#843,.T.);
#843 = LINE('',#844,#845);
#844 = CARTESIAN_POINT('',(-0.52,-0.25,0.));
#845 = VECTOR('',#846,1.);
#846 = DIRECTION('',(0.,1.,0.));
#847 = PLANE('',#848);
#848 = AXIS2_PLACEMENT_3D('',#849,#850,#851);
#849 = CARTESIAN_POINT('',(-0.52,-0.25,0.));
#850 = DIRECTION('',(-1.,0.,0.));
#851 = DIRECTION('',(0.,1.,0.));
#852 = ADVANCED_FACE('',(#853),#869,.F.);
#853 = FACE_BOUND('',#854,.F.);
#854 = EDGE_LOOP('',(#855,#856,#862,#863));
#855 = ORIENTED_EDGE('',*,*,#834,.T.);
#856 = ORIENTED_EDGE('',*,*,#857,.T.);
#857 = EDGE_CURVE('',#827,#757,#858,.T.);
#858 = LINE('',#859,#860);
#859 = CARTESIAN_POINT('',(-0.52,0.25,1.));
#860 = VECTOR('',#861,1.);
#861 = DIRECTION('',(-1.,0.,0.));
#862 = ORIENTED_EDGE('',*,*,#754,.F.);
#863 = ORIENTED_EDGE('',*,*,#864,.F.);
#864 = EDGE_CURVE('',#835,#755,#865,.T.);
#865 = LINE('',#866,#867);
#866 = CARTESIAN_POINT('',(-0.52,0.25,0.));
#867 = VECTOR('',#868,1.);
#868 = DIRECTION('',(-1.,0.,0.));
#869 = PLANE('',#870);
#870 = AXIS2_PLACEMENT_3D('',#871,#872,#873);
#871 = CARTESIAN_POINT('',(-0.52,0.25,0.));
#872 = DIRECTION('',(0.,-1.,0.));
#873 = DIRECTION('',(-1.,0.,0.));
#874 = ADVANCED_FACE('',(#875),#881,.F.);
#875 = FACE_BOUND('',#876,.F.);
#876 = EDGE_LOOP('',(#877,#878,#879,#880));
#877 = ORIENTED_EDGE('',*,*,#780,.T.);
#878 = ORIENTED_EDGE('',*,*,#811,.T.);
#879 = ORIENTED_EDGE('',*,*,#842,.T.);
#880 = ORIENTED_EDGE('',*,*,#864,.T.);
#881 = PLANE('',#882);
#882 = AXIS2_PLACEMENT_3D('',#883,#884,#885);
#883 = CARTESIAN_POINT('',(0.,0.,0.));
#884 = DIRECTION('',(0.,0.,1.));
#885 = DIRECTION('',(1.,0.,-0.));
#886 = ADVANCED_FACE('',(#887),#893,.T.);
#887 = FACE_BOUND('',#888,.T.);
#888 = EDGE_LOOP('',(#889,#890,#891,#892));
#889 = ORIENTED_EDGE('',*,*,#764,.T.);
#890 = ORIENTED_EDGE('',*,*,#795,.T.);
#891 = ORIENTED_EDGE('',*,*,#826,.T.);
#892 = ORIENTED_EDGE('',*,*,#857,.T.);
#893 = PLANE('',#894);
#894 = AXIS2_PLACEMENT_3D('',#895,#896,#897);
#895 = CARTESIAN_POINT('',(0.,0.,1.));
#896 = DIRECTION('',(0.,0.,1.));
#897 = DIRECTION('',(1.,0.,0.));
#898 = ( GEOMETRIC_REPRESENTATION_CONTEXT(3) 
GLOBAL_UNCERTAINTY_ASSIGNED_CONTEXT((#902)) GLOBAL_UNIT_ASSIGNED_CONTEXT
((#899,#900,#901)) REPRESENTATION_CONTEXT('Context #1',
  '3D Context with UNIT and UNCERTAINTY') );
#899 = ( LENGTH_UNIT() NAMED_UNIT(*) SI_UNIT(.MILLI.,.METRE.) );
#900 = ( NAMED_UNIT(*) PLANE_ANGLE_UNIT() SI_UNIT($,.RADIAN.) );
#901 = ( NAMED_UNIT(*) SI_UNIT($,.STERADIAN.) SOLID_ANGLE_UNIT() );
#902 = UNCERTAINTY_MEASURE_WITH_UNIT(LENGTH_MEASURE(1.E-07),#899,
  'distance_accuracy_value','confusion accuracy');
#903 = CONTEXT_DEPENDENT_SHAPE_REPRESENTATION(#904,#906);
#904 = ( REPRESENTATION_RELATIONSHIP('','',#597,#228) 
REPRESENTATION_RELATIONSHIP_WITH_TRANSFORMATION(#905) 
SHAPE_REPRESENTATION_RELATIONSHIP() );
#905 = ITEM_DEFINED_TRANSFORMATION('','',#11,#237);
#906 = PRODUCT_DEFINITION_SHAPE('Placement','Placement of an item',#907
  );
#907 = NEXT_ASSEMBLY_USAGE_OCCURRENCE('98','StandOff','',#223,#592,$);
#908 = PRODUCT_RELATED_PRODUCT_CATEGORY('part',$,(#594));
#909 = MECHANICAL_DESIGN_GEOMETRIC_PRESENTATION_REPRESENTATION('',(#910)
  ,#410);
#910 = STYLED_ITEM('color',(#911),#260);
#911 = PRESENTATION_STYLE_ASSIGNMENT((#912,#918));
#912 = SURFACE_STYLE_USAGE(.BOTH.,#913);
#913 = SURFACE_SIDE_STYLE('',(#914));
#914 = SURFACE_STYLE_FILL_AREA(#915);
#915 = FILL_AREA_STYLE('',(#916));
#916 = FILL_AREA_STYLE_COLOUR('',#917);
#917 = COLOUR_RGB('',0.800000010877,0.800000010877,0.901960800373);
#918 = CURVE_STYLE('',#919,POSITIVE_LENGTH_MEASURE(0.1),#920);
#919 = DRAUGHTING_PRE_DEFINED_CURVE_FONT('continuous');
#920 = COLOUR_RGB('',9.803921802644E-02,9.803921802644E-02,
  9.803921802644E-02);
#921 = MECHANICAL_DESIGN_GEOMETRIC_PRESENTATION_REPRESENTATION('',(#922)
  ,#579);
#922 = STYLED_ITEM('color',(#923),#429);
#923 = PRESENTATION_STYLE_ASSIGNMENT((#924,#929));
#924 = SURFACE_STYLE_USAGE(.BOTH.,#925);
#925 = SURFACE_SIDE_STYLE('',(#926));
#926 = SURFACE_STYLE_FILL_AREA(#927);
#927 = FILL_AREA_STYLE('',(#928));
#928 = FILL_AREA_STYLE_COLOUR('',#917);
#929 = CURVE_STYLE('',#930,POSITIVE_LENGTH_MEASURE(0.1),#920);
#930 = DRAUGHTING_PRE_DEFINED_CURVE_FONT('continuous');
#931 = MECHANICAL_DESIGN_GEOMETRIC_PRESENTATION_REPRESENTATION('',(#932)
  ,#210);
#932 = STYLED_ITEM('color',(#933),#60);
#933 = PRESENTATION_STYLE_ASSIGNMENT((#934,#940));
#934 = SURFACE_STYLE_USAGE(.BOTH.,#935);
#935 = SURFACE_SIDE_STYLE('',(#936));
#936 = SURFACE_STYLE_FILL_AREA(#937);
#937 = FILL_AREA_STYLE('',(#938));
#938 = FILL_AREA_STYLE_COLOUR('',#939);
#939 = DRAUGHTING_PRE_DEFINED_COLOUR('red');
#940 = CURVE_STYLE('',#941,POSITIVE_LENGTH_MEASURE(0.1),#920);
#941 = DRAUGHTING_PRE_DEFINED_CURVE_FONT('continuous');
#942 = MECHANICAL_DESIGN_GEOMETRIC_PRESENTATION_REPRESENTATION('',(#943,
    #953),#898);
#943 = STYLED_ITEM('color',(#944),#598);
#944 = PRESENTATION_STYLE_ASSIGNMENT((#945,#950));
#945 = SURFACE_STYLE_USAGE(.BOTH.,#946);
#946 = SURFACE_SIDE_STYLE('',(#947));
#947 = SURFACE_STYLE_FILL_AREA(#948);
#948 = FILL_AREA_STYLE('',(#949));
#949 = FILL_AREA_STYLE_COLOUR('',#917);
#950 = CURVE_STYLE('',#951,POSITIVE_LENGTH_MEASURE(0.1),#952);
#951 = DRAUGHTING_PRE_DEFINED_CURVE_FONT('continuous');
#952 = DRAUGHTING_PRE_DEFINED_COLOUR('black');
#953 = STYLED_ITEM('color',(#954),#748);
#954 = PRESENTATION_STYLE_ASSIGNMENT((#955,#960));
#955 = SURFACE_STYLE_USAGE(.BOTH.,#956);
#956 = SURFACE_SIDE_STYLE('',(#957));
#957 = SURFACE_STYLE_FILL_AREA(#958);
#958 = FILL_AREA_STYLE('',(#959));
#959 = FILL_AREA_STYLE_COLOUR('',#917);
#960 = CURVE_STYLE('',#961,POSITIVE_LENGTH_MEASURE(0.1),#952);
#961 = DRAUGHTING_PRE_DEFINED_CURVE_FONT('continuous');
ENDSEC;
END-ISO-10303-21;
